<?xml version="1.0" encoding="UTF-8" standalone="no"?>
<!DOCTYPE svg PUBLIC "-//W3C//DTD SVG 1.1//EN"
 "http://www.w3.org/Graphics/SVG/1.1/DTD/svg11.dtd">
<!-- Generated by graphviz version 14.1.2 (0)
 -->
<!-- Title: PWN_Agent_Tool_Registry Pages: 1 -->
<svg width="652pt" height="825pt"
 viewBox="0.00 0.00 652.00 825.00" xmlns="http://www.w3.org/2000/svg" xmlns:xlink="http://www.w3.org/1999/xlink">
<g id="graph0" class="graph" transform="scale(1 1) rotate(0) translate(43.2 782.2)">
<title>PWN_Agent_Tool_Registry</title>
<polygon fill="#0f172a" stroke="none" points="-43.2,43.2 -43.2,-782.2 608.45,-782.2 608.45,43.2 -43.2,43.2"/>
<text xml:space="preserve" text-anchor="start" x="10.38" y="-717" font-family="sans-Serif" font-weight="bold" font-size="20.00" fill="#e2e8f0">PWN::AI::Agent::Registry — Toolsets exposed to the LLM</text>
<text xml:space="preserve" text-anchor="start" x="155.5" y="-705.55" font-family="sans-Serif" font-size="11.00" fill="#94a3b8">10 toolsets · 61 callable tools · lib/pwn/ai/agent/tools/*</text>
<g id="clust1" class="cluster">
<title>cluster_ts</title>
<path fill="#022c22" stroke="#047857" stroke-width="2" d="M201.25,-14C201.25,-14 267.75,-14 267.75,-14 273.75,-14 279.75,-20 279.75,-26 279.75,-26 279.75,-634 279.75,-634 279.75,-640 273.75,-646 267.75,-646 267.75,-646 201.25,-646 201.25,-646 195.25,-646 189.25,-640 189.25,-634 189.25,-634 189.25,-26 189.25,-26 189.25,-20 195.25,-14 201.25,-14"/>
<text xml:space="preserve" text-anchor="middle" x="234.5" y="-623" font-family="sans-Serif" font-size="20.00" fill="#a7f3d0">Toolsets</text>
</g>
<g id="clust2" class="cluster">
<title>cluster_tools</title>
<path fill="#422006" stroke="#a16207" stroke-width="2" d="M376.75,-8C376.75,-8 553.25,-8 553.25,-8 559.25,-8 565.25,-14 565.25,-20 565.25,-20 565.25,-680 565.25,-680 565.25,-686 559.25,-692 553.25,-692 553.25,-692 376.75,-692 376.75,-692 370.75,-692 364.75,-686 364.75,-680 364.75,-680 364.75,-20 364.75,-20 364.75,-14 370.75,-8 376.75,-8"/>
<text xml:space="preserve" text-anchor="middle" x="465" y="-669" font-family="sans-Serif" font-size="20.00" fill="#fde68a">Tools &#160;(LLM&#45;callable)</text>
</g>
<!-- Registry -->
<g id="node1" class="node">
<title>Registry</title>
<path fill="#c4b5fd" stroke="#334155" stroke-width="2" d="M84.25,-339.38C84.25,-339.38 12,-339.38 12,-339.38 6,-339.38 0,-333.38 0,-327.38 0,-327.38 0,-300.62 0,-300.62 0,-294.62 6,-288.62 12,-288.62 12,-288.62 84.25,-288.62 84.25,-288.62 90.25,-288.62 96.25,-294.62 96.25,-300.62 96.25,-300.62 96.25,-327.38 96.25,-327.38 96.25,-333.38 90.25,-339.38 84.25,-339.38"/>
<text xml:space="preserve" text-anchor="middle" x="48.12" y="-323.98" font-family="sans-Serif" font-size="12.00" fill="#0f172a">Registry</text>
<text xml:space="preserve" text-anchor="middle" x="48.12" y="-309.73" font-family="sans-Serif" font-size="12.00" fill="#0f172a">JSON&#45;Schema</text>
<text xml:space="preserve" text-anchor="middle" x="48.12" y="-295.48" font-family="sans-Serif" font-size="12.00" fill="#0f172a">function defs</text>
</g>
<!-- terminal -->
<g id="node2" class="node">
<title>terminal</title>
<path fill="#6ee7b7" stroke="#334155" stroke-width="1.3" d="M249.5,-58C249.5,-58 219.5,-58 219.5,-58 213.5,-58 207.5,-52 207.5,-46 207.5,-46 207.5,-34 207.5,-34 207.5,-28 213.5,-22 219.5,-22 219.5,-22 249.5,-22 249.5,-22 255.5,-22 261.5,-28 261.5,-34 261.5,-34 261.5,-46 261.5,-46 261.5,-52 255.5,-58 249.5,-58"/>
<text xml:space="preserve" text-anchor="middle" x="234.5" y="-36.5" font-family="sans-Serif" font-size="10.00" fill="#0f172a">terminal</text>
</g>
<!-- Registry&#45;&gt;terminal -->
<g id="edge1" class="edge">
<title>Registry&#45;&gt;terminal</title>
<path fill="none" stroke="#94a3b8" stroke-width="1.1" d="M59.65,-287.85C79.6,-240.57 126.6,-139.42 189.25,-71 192.58,-67.37 196.4,-63.92 200.38,-60.73"/>
<polygon fill="#94a3b8" stroke="#94a3b8" stroke-width="1.1" points="201.71,-62.8 205.83,-56.63 198.76,-58.88 201.71,-62.8"/>
</g>
<!-- pwn -->
<g id="node3" class="node">
<title>pwn</title>
<path fill="#6ee7b7" stroke="#334155" stroke-width="1.3" d="M249.5,-119C249.5,-119 219.5,-119 219.5,-119 213.5,-119 207.5,-113 207.5,-107 207.5,-107 207.5,-95 207.5,-95 207.5,-89 213.5,-83 219.5,-83 219.5,-83 249.5,-83 249.5,-83 255.5,-83 261.5,-89 261.5,-95 261.5,-95 261.5,-107 261.5,-107 261.5,-113 255.5,-119 249.5,-119"/>
<text xml:space="preserve" text-anchor="middle" x="234.5" y="-97.5" font-family="sans-Serif" font-size="10.00" fill="#0f172a">pwn</text>
</g>
<!-- Registry&#45;&gt;pwn -->
<g id="edge2" class="edge">
<title>Registry&#45;&gt;pwn</title>
<path fill="none" stroke="#94a3b8" stroke-width="1.1" d="M65.53,-287.9C89.7,-250.65 137.65,-181.32 189.25,-132 192.72,-128.68 196.58,-125.44 200.53,-122.4"/>
<polygon fill="#94a3b8" stroke="#94a3b8" stroke-width="1.1" points="201.7,-124.58 205.87,-118.45 198.78,-120.64 201.7,-124.58"/>
</g>
<!-- memory -->
<g id="node4" class="node">
<title>memory</title>
<path fill="#6ee7b7" stroke="#334155" stroke-width="1.3" d="M249.5,-180C249.5,-180 219.5,-180 219.5,-180 213.5,-180 207.5,-174 207.5,-168 207.5,-168 207.5,-156 207.5,-156 207.5,-150 213.5,-144 219.5,-144 219.5,-144 249.5,-144 249.5,-144 255.5,-144 261.5,-150 261.5,-156 261.5,-156 261.5,-168 261.5,-168 261.5,-174 255.5,-180 249.5,-180"/>
<text xml:space="preserve" text-anchor="middle" x="234.5" y="-158.5" font-family="sans-Serif" font-size="10.00" fill="#0f172a">memory</text>
</g>
<!-- Registry&#45;&gt;memory -->
<g id="edge3" class="edge">
<title>Registry&#45;&gt;memory</title>
<path fill="none" stroke="#94a3b8" stroke-width="1.1" d="M77.66,-287.86C105.48,-262.74 149.31,-224.11 189.25,-193 192.68,-190.33 196.31,-187.61 199.97,-184.95"/>
<polygon fill="#94a3b8" stroke="#94a3b8" stroke-width="1.1" points="201.36,-186.97 205.62,-180.9 198.51,-182.99 201.36,-186.97"/>
</g>
<!-- skills -->
<g id="node5" class="node">
<title>skills</title>
<path fill="#6ee7b7" stroke="#334155" stroke-width="1.3" d="M249.5,-241C249.5,-241 219.5,-241 219.5,-241 213.5,-241 207.5,-235 207.5,-229 207.5,-229 207.5,-217 207.5,-217 207.5,-211 213.5,-205 219.5,-205 219.5,-205 249.5,-205 249.5,-205 255.5,-205 261.5,-211 261.5,-217 261.5,-217 261.5,-229 261.5,-229 261.5,-235 255.5,-241 249.5,-241"/>
<text xml:space="preserve" text-anchor="middle" x="234.5" y="-219.5" font-family="sans-Serif" font-size="10.00" fill="#0f172a">skills</text>
</g>
<!-- Registry&#45;&gt;skills -->
<g id="edge4" class="edge">
<title>Registry&#45;&gt;skills</title>
<path fill="none" stroke="#94a3b8" stroke-width="1.1" d="M97.09,-290.33C129.08,-274.54 170.38,-254.16 199.11,-239.97"/>
<polygon fill="#94a3b8" stroke="#94a3b8" stroke-width="1.1" points="200.18,-242.18 205.38,-236.88 198.01,-237.78 200.18,-242.18"/>
</g>
<!-- sessions -->
<g id="node6" class="node">
<title>sessions</title>
<path fill="#6ee7b7" stroke="#334155" stroke-width="1.3" d="M250,-302C250,-302 219,-302 219,-302 213,-302 207,-296 207,-290 207,-290 207,-278 207,-278 207,-272 213,-266 219,-266 219,-266 250,-266 250,-266 256,-266 262,-272 262,-278 262,-278 262,-290 262,-290 262,-296 256,-302 250,-302"/>
<text xml:space="preserve" text-anchor="middle" x="234.5" y="-280.5" font-family="sans-Serif" font-size="10.00" fill="#0f172a">sessions</text>
</g>
<!-- Registry&#45;&gt;sessions -->
<g id="edge5" class="edge">
<title>Registry&#45;&gt;sessions</title>
<path fill="none" stroke="#94a3b8" stroke-width="1.1" d="M97.09,-306.2C128.71,-301.05 169.42,-294.43 198.11,-289.76"/>
<polygon fill="#94a3b8" stroke="#94a3b8" stroke-width="1.1" points="198.45,-292.19 204.96,-288.64 197.66,-287.35 198.45,-292.19"/>
</g>
<!-- learning -->
<g id="node7" class="node">
<title>learning</title>
<path fill="#6ee7b7" stroke="#334155" stroke-width="1.3" d="M249.5,-363C249.5,-363 219.5,-363 219.5,-363 213.5,-363 207.5,-357 207.5,-351 207.5,-351 207.5,-339 207.5,-339 207.5,-333 213.5,-327 219.5,-327 219.5,-327 249.5,-327 249.5,-327 255.5,-327 261.5,-333 261.5,-339 261.5,-339 261.5,-351 261.5,-351 261.5,-357 255.5,-363 249.5,-363"/>
<text xml:space="preserve" text-anchor="middle" x="234.5" y="-341.5" font-family="sans-Serif" font-size="10.00" fill="#0f172a">learning</text>
</g>
<!-- Registry&#45;&gt;learning -->
<g id="edge6" class="edge">
<title>Registry&#45;&gt;learning</title>
<path fill="none" stroke="#94a3b8" stroke-width="1.1" d="M97.09,-322.06C128.8,-327.4 169.67,-334.27 198.37,-339.09"/>
<polygon fill="#94a3b8" stroke="#94a3b8" stroke-width="1.1" points="197.92,-341.5 205.23,-340.25 198.73,-336.67 197.92,-341.5"/>
</g>
<!-- metrics -->
<g id="node8" class="node">
<title>metrics</title>
<path fill="#6ee7b7" stroke="#334155" stroke-width="1.3" d="M249.5,-424C249.5,-424 219.5,-424 219.5,-424 213.5,-424 207.5,-418 207.5,-412 207.5,-412 207.5,-400 207.5,-400 207.5,-394 213.5,-388 219.5,-388 219.5,-388 249.5,-388 249.5,-388 255.5,-388 261.5,-394 261.5,-400 261.5,-400 261.5,-412 261.5,-412 261.5,-418 255.5,-424 249.5,-424"/>
<text xml:space="preserve" text-anchor="middle" x="234.5" y="-402.5" font-family="sans-Serif" font-size="10.00" fill="#0f172a">metrics</text>
</g>
<!-- Registry&#45;&gt;metrics -->
<g id="edge7" class="edge">
<title>Registry&#45;&gt;metrics</title>
<path fill="none" stroke="#94a3b8" stroke-width="1.1" d="M97.09,-337.93C129.21,-353.96 170.73,-374.68 199.48,-389.03"/>
<polygon fill="#94a3b8" stroke="#94a3b8" stroke-width="1.1" points="198.02,-391.03 205.38,-391.97 200.21,-386.65 198.02,-391.03"/>
</g>
<!-- extro -->
<g id="node9" class="node">
<title>extro</title>
<path fill="#6ee7b7" stroke="#334155" stroke-width="1.3" d="M259.75,-485C259.75,-485 209.25,-485 209.25,-485 203.25,-485 197.25,-479 197.25,-473 197.25,-473 197.25,-461 197.25,-461 197.25,-455 203.25,-449 209.25,-449 209.25,-449 259.75,-449 259.75,-449 265.75,-449 271.75,-455 271.75,-461 271.75,-461 271.75,-473 271.75,-473 271.75,-479 265.75,-485 259.75,-485"/>
<text xml:space="preserve" text-anchor="middle" x="234.5" y="-463.5" font-family="sans-Serif" font-size="10.00" fill="#0f172a">extrospection</text>
</g>
<!-- Registry&#45;&gt;extro -->
<g id="edge8" class="edge">
<title>Registry&#45;&gt;extro</title>
<path fill="none" stroke="#94a3b8" stroke-width="1.1" d="M76.96,-340.28C104.62,-365.95 148.66,-405.62 189.25,-437 192.06,-439.17 195.02,-441.36 198.01,-443.52"/>
<polygon fill="#94a3b8" stroke="#94a3b8" stroke-width="1.1" points="196.54,-445.48 203.68,-447.51 199.37,-441.48 196.54,-445.48"/>
</g>
<!-- cron -->
<g id="node10" class="node">
<title>cron</title>
<path fill="#6ee7b7" stroke="#334155" stroke-width="1.3" d="M249.5,-546C249.5,-546 219.5,-546 219.5,-546 213.5,-546 207.5,-540 207.5,-534 207.5,-534 207.5,-522 207.5,-522 207.5,-516 213.5,-510 219.5,-510 219.5,-510 249.5,-510 249.5,-510 255.5,-510 261.5,-516 261.5,-522 261.5,-522 261.5,-534 261.5,-534 261.5,-540 255.5,-546 249.5,-546"/>
<text xml:space="preserve" text-anchor="middle" x="234.5" y="-524.5" font-family="sans-Serif" font-size="10.00" fill="#0f172a">cron</text>
</g>
<!-- Registry&#45;&gt;cron -->
<g id="edge9" class="edge">
<title>Registry&#45;&gt;cron</title>
<path fill="none" stroke="#94a3b8" stroke-width="1.1" d="M65.16,-340.2C89.07,-377.93 136.9,-448.46 189.25,-498 192.62,-501.19 196.36,-504.28 200.2,-507.18"/>
<polygon fill="#94a3b8" stroke="#94a3b8" stroke-width="1.1" points="198.7,-509.12 205.81,-511.22 201.56,-505.14 198.7,-509.12"/>
</g>
<!-- swarm -->
<g id="node11" class="node">
<title>swarm</title>
<path fill="#6ee7b7" stroke="#334155" stroke-width="1.3" d="M249.5,-607C249.5,-607 219.5,-607 219.5,-607 213.5,-607 207.5,-601 207.5,-595 207.5,-595 207.5,-583 207.5,-583 207.5,-577 213.5,-571 219.5,-571 219.5,-571 249.5,-571 249.5,-571 255.5,-571 261.5,-577 261.5,-583 261.5,-583 261.5,-595 261.5,-595 261.5,-601 255.5,-607 249.5,-607"/>
<text xml:space="preserve" text-anchor="middle" x="234.5" y="-585.5" font-family="sans-Serif" font-size="10.00" fill="#0f172a">swarm</text>
</g>
<!-- Registry&#45;&gt;swarm -->
<g id="edge10" class="edge">
<title>Registry&#45;&gt;swarm</title>
<path fill="none" stroke="#94a3b8" stroke-width="1.1" d="M59.34,-340.09C78.95,-387.76 125.64,-490.35 189.25,-559 192.56,-562.58 196.38,-565.95 200.35,-569.05"/>
<polygon fill="#94a3b8" stroke="#94a3b8" stroke-width="1.1" points="198.69,-570.87 205.79,-573.02 201.58,-566.91 198.69,-570.87"/>
</g>
<!-- t_shell -->
<g id="node12" class="node">
<title>t_shell</title>
<path fill="#fcd34d" stroke="#334155" stroke-width="1.3" d="M479.5,-52C479.5,-52 449.5,-52 449.5,-52 443.5,-52 437.5,-46 437.5,-40 437.5,-40 437.5,-28 437.5,-28 437.5,-22 443.5,-16 449.5,-16 449.5,-16 479.5,-16 479.5,-16 485.5,-16 491.5,-22 491.5,-28 491.5,-28 491.5,-40 491.5,-40 491.5,-46 485.5,-52 479.5,-52"/>
<text xml:space="preserve" text-anchor="middle" x="464.5" y="-30.7" font-family="sans-Serif" font-size="9.00" fill="#0f172a">shell</text>
</g>
<!-- terminal&#45;&gt;t_shell -->
<g id="edge11" class="edge">
<title>terminal&#45;&gt;t_shell</title>
<path fill="none" stroke="#f59e0b" stroke-width="1.1" d="M262.1,-39.3C303.37,-38.21 382.84,-36.12 428.65,-34.92"/>
<polygon fill="#f59e0b" stroke="#f59e0b" stroke-width="1.1" points="428.47,-37.37 435.4,-34.74 428.34,-32.47 428.47,-37.37"/>
</g>
<!-- t_eval -->
<g id="node13" class="node">
<title>t_eval</title>
<path fill="#fcd34d" stroke="#334155" stroke-width="1.3" d="M480.38,-113C480.38,-113 448.62,-113 448.62,-113 442.62,-113 436.62,-107 436.62,-101 436.62,-101 436.62,-89 436.62,-89 436.62,-83 442.62,-77 448.62,-77 448.62,-77 480.38,-77 480.38,-77 486.38,-77 492.38,-83 492.38,-89 492.38,-89 492.38,-101 492.38,-101 492.38,-107 486.38,-113 480.38,-113"/>
<text xml:space="preserve" text-anchor="middle" x="464.5" y="-91.7" font-family="sans-Serif" font-size="9.00" fill="#0f172a">pwn_eval</text>
</g>
<!-- pwn&#45;&gt;t_eval -->
<g id="edge12" class="edge">
<title>pwn&#45;&gt;t_eval</title>
<path fill="none" stroke="#f59e0b" stroke-width="1.1" d="M262.1,-100.3C303.04,-99.22 381.57,-97.16 427.54,-95.95"/>
<polygon fill="#f59e0b" stroke="#f59e0b" stroke-width="1.1" points="427.41,-98.4 434.34,-95.77 427.28,-93.5 427.41,-98.4"/>
</g>
<!-- t_mem -->
<g id="node14" class="node">
<title>t_mem</title>
<path fill="#fcd34d" stroke="#334155" stroke-width="1.3" d="M500.62,-174C500.62,-174 428.38,-174 428.38,-174 422.38,-174 416.38,-168 416.38,-162 416.38,-162 416.38,-150 416.38,-150 416.38,-144 422.38,-138 428.38,-138 428.38,-138 500.62,-138 500.62,-138 506.62,-138 512.62,-144 512.62,-150 512.62,-150 512.62,-162 512.62,-162 512.62,-168 506.62,-174 500.62,-174"/>
<text xml:space="preserve" text-anchor="middle" x="464.5" y="-157.95" font-family="sans-Serif" font-size="9.00" fill="#0f172a">memory_remember</text>
<text xml:space="preserve" text-anchor="middle" x="464.5" y="-147.45" font-family="sans-Serif" font-size="9.00" fill="#0f172a">recall · forget · clear</text>
</g>
<!-- memory&#45;&gt;t_mem -->
<g id="edge13" class="edge">
<title>memory&#45;&gt;t_mem</title>
<path fill="none" stroke="#f59e0b" stroke-width="1.1" d="M262.1,-161.3C297.6,-160.37 361.35,-158.69 407.64,-157.47"/>
<polygon fill="#f59e0b" stroke="#f59e0b" stroke-width="1.1" points="407.47,-159.93 414.41,-157.29 407.34,-155.03 407.47,-159.93"/>
</g>
<!-- t_skill -->
<g id="node15" class="node">
<title>t_skill</title>
<path fill="#fcd34d" stroke="#334155" stroke-width="1.3" d="M522.75,-235C522.75,-235 406.25,-235 406.25,-235 400.25,-235 394.25,-229 394.25,-223 394.25,-223 394.25,-211 394.25,-211 394.25,-205 400.25,-199 406.25,-199 406.25,-199 522.75,-199 522.75,-199 528.75,-199 534.75,-205 534.75,-211 534.75,-211 534.75,-223 534.75,-223 534.75,-229 528.75,-235 522.75,-235"/>
<text xml:space="preserve" text-anchor="middle" x="464.5" y="-218.95" font-family="sans-Serif" font-size="9.00" fill="#0f172a">skill_list · view</text>
<text xml:space="preserve" text-anchor="middle" x="464.5" y="-208.45" font-family="sans-Serif" font-size="9.00" fill="#0f172a">create · add_reference · delete</text>
</g>
<!-- skills&#45;&gt;t_skill -->
<g id="edge14" class="edge">
<title>skills&#45;&gt;t_skill</title>
<path fill="none" stroke="#f59e0b" stroke-width="1.1" d="M262.1,-222.3C292.17,-221.51 342.5,-220.18 385.32,-219.06"/>
<polygon fill="#f59e0b" stroke="#f59e0b" stroke-width="1.1" points="385.18,-221.51 392.12,-218.88 385.05,-216.61 385.18,-221.51"/>
</g>
<!-- t_sess -->
<g id="node16" class="node">
<title>t_sess</title>
<path fill="#fcd34d" stroke="#334155" stroke-width="1.3" d="M503.62,-296C503.62,-296 425.38,-296 425.38,-296 419.38,-296 413.38,-290 413.38,-284 413.38,-284 413.38,-272 413.38,-272 413.38,-266 419.38,-260 425.38,-260 425.38,-260 503.62,-260 503.62,-260 509.62,-260 515.62,-266 515.62,-272 515.62,-272 515.62,-284 515.62,-284 515.62,-290 509.62,-296 503.62,-296"/>
<text xml:space="preserve" text-anchor="middle" x="464.5" y="-279.95" font-family="sans-Serif" font-size="9.00" fill="#0f172a">sessions_list · view</text>
<text xml:space="preserve" text-anchor="middle" x="464.5" y="-269.45" font-family="sans-Serif" font-size="9.00" fill="#0f172a">current · delete · stats</text>
</g>
<!-- sessions&#45;&gt;t_sess -->
<g id="edge15" class="edge">
<title>sessions&#45;&gt;t_sess</title>
<path fill="none" stroke="#f59e0b" stroke-width="1.1" d="M262.55,-283.29C297.24,-282.38 358.36,-280.77 404.12,-279.56"/>
<polygon fill="#f59e0b" stroke="#f59e0b" stroke-width="1.1" points="404.16,-282.01 411.1,-279.38 404.03,-277.11 404.16,-282.01"/>
</g>
<!-- t_learn -->
<g id="node17" class="node">
<title>t_learn</title>
<path fill="#fcd34d" stroke="#334155" stroke-width="1.3" d="M520.88,-381.25C520.88,-381.25 408.12,-381.25 408.12,-381.25 402.12,-381.25 396.12,-375.25 396.12,-369.25 396.12,-369.25 396.12,-332.75 396.12,-332.75 396.12,-326.75 402.12,-320.75 408.12,-320.75 408.12,-320.75 520.88,-320.75 520.88,-320.75 526.88,-320.75 532.88,-326.75 532.88,-332.75 532.88,-332.75 532.88,-369.25 532.88,-369.25 532.88,-375.25 526.88,-381.25 520.88,-381.25"/>
<text xml:space="preserve" text-anchor="middle" x="464.5" y="-368.7" font-family="sans-Serif" font-size="9.00" fill="#0f172a">learning_note_outcome</text>
<text xml:space="preserve" text-anchor="middle" x="464.5" y="-358.2" font-family="sans-Serif" font-size="9.00" fill="#0f172a">reflect · distill_skill</text>
<text xml:space="preserve" text-anchor="middle" x="464.5" y="-347.7" font-family="sans-Serif" font-size="9.00" fill="#0f172a">consolidate · outcomes · reset</text>
<text xml:space="preserve" text-anchor="middle" x="464.5" y="-337.2" font-family="sans-Serif" font-size="9.00" fill="#0f172a">mistakes_list · record</text>
<text xml:space="preserve" text-anchor="middle" x="464.5" y="-326.7" font-family="sans-Serif" font-size="9.00" fill="#0f172a">mistakes_resolve · reset</text>
</g>
<!-- learning&#45;&gt;t_learn -->
<g id="edge16" class="edge">
<title>learning&#45;&gt;t_learn</title>
<path fill="none" stroke="#f59e0b" stroke-width="1.1" d="M262.1,-345.7C292.61,-346.5 343.98,-347.85 387.2,-348.99"/>
<polygon fill="#f59e0b" stroke="#f59e0b" stroke-width="1.1" points="387,-351.44 394.06,-349.17 387.13,-346.54 387,-351.44"/>
</g>
<!-- t_metric -->
<g id="node18" class="node">
<title>t_metric</title>
<path fill="#fcd34d" stroke="#334155" stroke-width="1.3" d="M496.5,-442C496.5,-442 432.5,-442 432.5,-442 426.5,-442 420.5,-436 420.5,-430 420.5,-430 420.5,-418 420.5,-418 420.5,-412 426.5,-406 432.5,-406 432.5,-406 496.5,-406 496.5,-406 502.5,-406 508.5,-412 508.5,-418 508.5,-418 508.5,-430 508.5,-430 508.5,-436 502.5,-442 496.5,-442"/>
<text xml:space="preserve" text-anchor="middle" x="464.5" y="-425.95" font-family="sans-Serif" font-size="9.00" fill="#0f172a">metrics_summary</text>
<text xml:space="preserve" text-anchor="middle" x="464.5" y="-415.45" font-family="sans-Serif" font-size="9.00" fill="#0f172a">metrics_reset</text>
</g>
<!-- metrics&#45;&gt;t_metric -->
<g id="edge17" class="edge">
<title>metrics&#45;&gt;t_metric</title>
<path fill="none" stroke="#f59e0b" stroke-width="1.1" d="M262.1,-408.1C298.59,-410.98 364.95,-416.22 411.49,-419.89"/>
<polygon fill="#f59e0b" stroke="#f59e0b" stroke-width="1.1" points="411.11,-422.32 418.28,-420.43 411.5,-417.44 411.11,-422.32"/>
</g>
<!-- t_extro -->
<g id="node19" class="node">
<title>t_extro</title>
<path fill="#fcd34d" stroke="#334155" stroke-width="1.3" d="M513,-527.25C513,-527.25 416,-527.25 416,-527.25 410,-527.25 404,-521.25 404,-515.25 404,-515.25 404,-478.75 404,-478.75 404,-472.75 410,-466.75 416,-466.75 416,-466.75 513,-466.75 513,-466.75 519,-466.75 525,-472.75 525,-478.75 525,-478.75 525,-515.25 525,-515.25 525,-521.25 519,-527.25 513,-527.25"/>
<text xml:space="preserve" text-anchor="middle" x="464.5" y="-514.7" font-family="sans-Serif" font-size="9.00" fill="#0f172a">extro_snapshot · drift</text>
<text xml:space="preserve" text-anchor="middle" x="464.5" y="-504.2" font-family="sans-Serif" font-size="9.00" fill="#0f172a">observe · intel · correlate</text>
<text xml:space="preserve" text-anchor="middle" x="464.5" y="-493.7" font-family="sans-Serif" font-size="9.00" fill="#0f172a">watch · verify · rf_tune</text>
<text xml:space="preserve" text-anchor="middle" x="464.5" y="-483.2" font-family="sans-Serif" font-size="9.00" fill="#0f172a">observations · stats · reset</text>
<text xml:space="preserve" text-anchor="middle" x="464.5" y="-472.7" font-family="sans-Serif" font-size="9.00" fill="#0f172a">auto_toggle</text>
</g>
<!-- extro&#45;&gt;t_extro -->
<g id="edge18" class="edge">
<title>extro&#45;&gt;t_extro</title>
<path fill="none" stroke="#f59e0b" stroke-width="1.1" d="M272.39,-471.85C305.45,-476.2 354.8,-482.7 395.08,-488"/>
<polygon fill="#f59e0b" stroke="#f59e0b" stroke-width="1.1" points="394.61,-490.41 401.87,-488.89 395.25,-485.55 394.61,-490.41"/>
</g>
<!-- t_cron -->
<g id="node20" class="node">
<title>t_cron</title>
<path fill="#fcd34d" stroke="#334155" stroke-width="1.3" d="M511.88,-588C511.88,-588 417.12,-588 417.12,-588 411.12,-588 405.12,-582 405.12,-576 405.12,-576 405.12,-564 405.12,-564 405.12,-558 411.12,-552 417.12,-552 417.12,-552 511.88,-552 511.88,-552 517.88,-552 523.88,-558 523.88,-564 523.88,-564 523.88,-576 523.88,-576 523.88,-582 517.88,-588 511.88,-588"/>
<text xml:space="preserve" text-anchor="middle" x="464.5" y="-571.95" font-family="sans-Serif" font-size="9.00" fill="#0f172a">cron_list · create · run</text>
<text xml:space="preserve" text-anchor="middle" x="464.5" y="-561.45" font-family="sans-Serif" font-size="9.00" fill="#0f172a">enable · disable · remove</text>
</g>
<!-- cron&#45;&gt;t_cron -->
<g id="edge19" class="edge">
<title>cron&#45;&gt;t_cron</title>
<path fill="none" stroke="#f59e0b" stroke-width="1.1" d="M262.1,-532.9C294.83,-538.93 351.59,-549.39 396.53,-557.66"/>
<polygon fill="#f59e0b" stroke="#f59e0b" stroke-width="1.1" points="395.81,-560.02 403.14,-558.88 396.7,-555.2 395.81,-560.02"/>
</g>
<!-- t_swarm -->
<g id="node21" class="node">
<title>t_swarm</title>
<path fill="#fcd34d" stroke="#334155" stroke-width="1.3" d="M509.25,-652.75C509.25,-652.75 419.75,-652.75 419.75,-652.75 413.75,-652.75 407.75,-646.75 407.75,-640.75 407.75,-640.75 407.75,-625.25 407.75,-625.25 407.75,-619.25 413.75,-613.25 419.75,-613.25 419.75,-613.25 509.25,-613.25 509.25,-613.25 515.25,-613.25 521.25,-619.25 521.25,-625.25 521.25,-625.25 521.25,-640.75 521.25,-640.75 521.25,-646.75 515.25,-652.75 509.25,-652.75"/>
<text xml:space="preserve" text-anchor="middle" x="464.5" y="-640.2" font-family="sans-Serif" font-size="9.00" fill="#0f172a">agent_list · spawn · ask</text>
<text xml:space="preserve" text-anchor="middle" x="464.5" y="-629.7" font-family="sans-Serif" font-size="9.00" fill="#0f172a">debate · broadcast</text>
<text xml:space="preserve" text-anchor="middle" x="464.5" y="-619.2" font-family="sans-Serif" font-size="9.00" fill="#0f172a">swarm_bus · swarm_list</text>
</g>
<!-- swarm&#45;&gt;t_swarm -->
<g id="edge20" class="edge">
<title>swarm&#45;&gt;t_swarm</title>
<path fill="none" stroke="#f59e0b" stroke-width="1.1" d="M262.1,-594.13C295.5,-600.58 353.9,-611.85 399.25,-620.6"/>
<polygon fill="#f59e0b" stroke="#f59e0b" stroke-width="1.1" points="398.58,-622.97 405.92,-621.89 399.51,-618.16 398.58,-622.97"/>
</g>
</g>
</svg>
