<?xml version="1.0" encoding="UTF-8" standalone="no"?>
<!DOCTYPE svg PUBLIC "-//W3C//DTD SVG 1.1//EN"
 "http://www.w3.org/Graphics/SVG/1.1/DTD/svg11.dtd">
<!-- Generated by graphviz version 14.1.2 (0)
 -->
<!-- Title: PWN AI Integration &amp; Tool Calling Pages: 1 -->
<svg width="878pt" height="235pt"
 viewBox="0.00 0.00 878.00 235.00" xmlns="http://www.w3.org/2000/svg" xmlns:xlink="http://www.w3.org/1999/xlink">
<g id="graph0" class="graph" transform="scale(1 1) rotate(0) translate(4 230.55)">
<title>PWN AI Integration &amp; Tool Calling</title>
<polygon fill="white" stroke="none" points="-4,4 -4,-230.55 874.47,-230.55 874.47,4 -4,4"/>
<!-- User -->
<g id="node1" class="node">
<title>User</title>
<path fill="none" stroke="black" d="M55,-143.82C55,-143.82 12,-143.82 12,-143.82 6,-143.82 0,-137.82 0,-131.82 0,-131.82 0,-119.82 0,-119.82 0,-113.82 6,-107.82 12,-107.82 12,-107.82 55,-107.82 55,-107.82 61,-107.82 67,-113.82 67,-119.82 67,-119.82 67,-131.82 67,-131.82 67,-137.82 61,-143.82 55,-143.82"/>
<text xml:space="preserve" text-anchor="middle" x="33.5" y="-122.52" font-family="Arial" font-size="9.00">User Prompt</text>
</g>
<!-- Agent -->
<g id="node2" class="node">
<title>Agent</title>
<ellipse fill="none" stroke="black" cx="274.61" cy="-125.82" rx="45.61" ry="18"/>
<text xml:space="preserve" text-anchor="middle" x="274.61" y="-122.52" font-family="Arial" font-size="9.00">PWN::AI::Agent</text>
</g>
<!-- User&#45;&gt;Agent -->
<g id="edge1" class="edge">
<title>User&#45;&gt;Agent</title>
<path fill="none" stroke="black" d="M67.36,-127.31C73.24,-127.52 79.3,-127.71 85,-127.82 140.99,-128.93 155.01,-128.72 211,-127.82 213.07,-127.79 215.18,-127.75 217.31,-127.7"/>
<polygon fill="black" stroke="black" points="217.39,-131.2 227.3,-127.46 217.22,-124.21 217.39,-131.2"/>
</g>
<!-- Agent&#45;&gt;User -->
<g id="edge11" class="edge">
<title>Agent&#45;&gt;User</title>
<path fill="none" stroke="black" d="M239.56,-113.84C230.4,-111.14 220.42,-108.68 211,-107.32 155.58,-99.3 140.14,-97.54 85,-107.32 82.83,-107.71 80.63,-108.18 78.42,-108.72"/>
<polygon fill="black" stroke="black" points="77.55,-105.33 68.91,-111.46 79.49,-112.05 77.55,-105.33"/>
<text xml:space="preserve" text-anchor="middle" x="148" y="-110.52" font-family="Times,serif" font-size="14.00">final answer + artifacts</text>
</g>
<!-- LLM -->
<g id="node3" class="node">
<title>LLM</title>
<path fill="none" stroke="black" d="M553.72,-183.82C553.72,-183.82 488.97,-183.82 488.97,-183.82 482.97,-183.82 476.97,-177.82 476.97,-171.82 476.97,-171.82 476.97,-159.82 476.97,-159.82 476.97,-153.82 482.97,-147.82 488.97,-147.82 488.97,-147.82 553.72,-147.82 553.72,-147.82 559.72,-147.82 565.72,-153.82 565.72,-159.82 565.72,-159.82 565.72,-171.82 565.72,-171.82 565.72,-177.82 559.72,-183.82 553.72,-183.82"/>
<text xml:space="preserve" text-anchor="middle" x="521.34" y="-167.77" font-family="Arial" font-size="9.00">LLM (Grok OAuth,</text>
<text xml:space="preserve" text-anchor="middle" x="521.34" y="-157.27" font-family="Arial" font-size="9.00">OpenAI, etc.)</text>
</g>
<!-- Agent&#45;&gt;LLM -->
<g id="edge2" class="edge">
<title>Agent&#45;&gt;LLM</title>
<path fill="none" stroke="black" d="M288.28,-143.25C299.59,-157.19 317.52,-175.71 338.22,-183.82 378.83,-199.74 428.27,-193.41 465.38,-184.11"/>
<polygon fill="black" stroke="black" points="466.25,-187.5 475.01,-181.54 464.45,-180.74 466.25,-187.5"/>
<text xml:space="preserve" text-anchor="middle" x="397.84" y="-213.25" font-family="Times,serif" font-size="14.00">build prompt +</text>
<text xml:space="preserve" text-anchor="middle" x="397.84" y="-196.75" font-family="Times,serif" font-size="14.00">tools schema</text>
</g>
<!-- Agent&#45;&gt;LLM -->
<g id="edge10" class="edge">
<title>Agent&#45;&gt;LLM</title>
<path fill="none" stroke="black" d="M311.12,-137.1C319.91,-139.59 329.35,-142.02 338.22,-143.82 380.46,-152.39 428.95,-158.05 465.27,-161.48"/>
<polygon fill="black" stroke="black" points="464.82,-164.95 475.1,-162.38 465.46,-157.98 464.82,-164.95"/>
<text xml:space="preserve" text-anchor="middle" x="397.84" y="-163.67" font-family="Times,serif" font-size="14.00">continue conversation</text>
</g>
<!-- Tools -->
<g id="node4" class="node">
<title>Tools</title>
<path fill="none" stroke="black" d="M555.22,-90.82C555.22,-90.82 487.47,-90.82 487.47,-90.82 481.47,-90.82 475.47,-84.82 475.47,-78.82 475.47,-78.82 475.47,-52.82 475.47,-52.82 475.47,-46.82 481.47,-40.82 487.47,-40.82 487.47,-40.82 555.22,-40.82 555.22,-40.82 561.22,-40.82 567.22,-46.82 567.22,-52.82 567.22,-52.82 567.22,-78.82 567.22,-78.82 567.22,-84.82 561.22,-90.82 555.22,-90.82"/>
<text xml:space="preserve" text-anchor="middle" x="521.34" y="-78.27" font-family="Arial" font-size="9.00">Tool Registry</text>
<text xml:space="preserve" text-anchor="middle" x="521.34" y="-67.77" font-family="Arial" font-size="9.00">(pwn_eval, shell,</text>
<text xml:space="preserve" text-anchor="middle" x="521.34" y="-57.27" font-family="Arial" font-size="9.00">memory_*, skill_*, </text>
<text xml:space="preserve" text-anchor="middle" x="521.34" y="-46.77" font-family="Arial" font-size="9.00">learning_*)</text>
</g>
<!-- Agent&#45;&gt;Tools -->
<g id="edge4" class="edge">
<title>Agent&#45;&gt;Tools</title>
<path fill="none" stroke="black" d="M302.38,-111.22C313.24,-105.83 326.06,-100.12 338.22,-96.32 379.22,-83.5 427.19,-75.74 463.61,-71.26"/>
<polygon fill="black" stroke="black" points="463.98,-74.74 473.5,-70.1 463.16,-67.79 463.98,-74.74"/>
<text xml:space="preserve" text-anchor="middle" x="397.84" y="-99.52" font-family="Times,serif" font-size="14.00">dispatch</text>
</g>
<!-- LLM&#45;&gt;Agent -->
<g id="edge3" class="edge">
<title>LLM&#45;&gt;Agent</title>
<path fill="none" stroke="black" d="M497.01,-147.34C485.74,-139.55 471.62,-131.37 457.47,-127.32 415.52,-115.31 365.86,-115.83 329.04,-118.85"/>
<polygon fill="black" stroke="black" points="329.2,-115.32 319.56,-119.72 329.83,-122.29 329.2,-115.32"/>
<text xml:space="preserve" text-anchor="middle" x="397.84" y="-130.52" font-family="Times,serif" font-size="14.00">tool_calls[]</text>
</g>
<!-- Tools&#45;&gt;Agent -->
<g id="edge9" class="edge">
<title>Tools&#45;&gt;Agent</title>
<path fill="none" stroke="black" d="M475.11,-50.64C436.87,-40.5 381.54,-32.32 338.22,-52.32 317.61,-61.84 301.28,-81.85 290.48,-98.6"/>
<polygon fill="black" stroke="black" points="287.77,-96.32 285.55,-106.68 293.74,-99.97 287.77,-96.32"/>
<text xml:space="preserve" text-anchor="middle" x="397.84" y="-55.52" font-family="Times,serif" font-size="14.00">results</text>
</g>
<!-- PWNNS -->
<g id="node5" class="node">
<title>PWNNS</title>
<path fill="none" stroke="black" d="M849.47,-119.57C849.47,-119.57 784.72,-119.57 784.72,-119.57 778.72,-119.57 772.72,-113.57 772.72,-107.57 772.72,-107.57 772.72,-92.07 772.72,-92.07 772.72,-86.07 778.72,-80.07 784.72,-80.07 784.72,-80.07 849.47,-80.07 849.47,-80.07 855.47,-80.07 861.47,-86.07 861.47,-92.07 861.47,-92.07 861.47,-107.57 861.47,-107.57 861.47,-113.57 855.47,-119.57 849.47,-119.57"/>
<text xml:space="preserve" text-anchor="middle" x="817.09" y="-107.02" font-family="Arial" font-size="9.00">PWN Namespace</text>
<text xml:space="preserve" text-anchor="middle" x="817.09" y="-96.52" font-family="Arial" font-size="9.00">(Plugins, SAST,</text>
<text xml:space="preserve" text-anchor="middle" x="817.09" y="-86.02" font-family="Arial" font-size="9.00">Reports, etc.)</text>
</g>
<!-- Tools&#45;&gt;PWNNS -->
<g id="edge5" class="edge">
<title>Tools&#45;&gt;PWNNS</title>
<path fill="none" stroke="black" d="M543.86,-91.12C554.94,-102.19 569.43,-113.97 585.22,-119.82 642.67,-141.11 713.47,-129.99 761.41,-117.49"/>
<polygon fill="black" stroke="black" points="762.29,-120.88 771.02,-114.87 760.45,-114.12 762.29,-120.88"/>
<text xml:space="preserve" text-anchor="middle" x="665.47" y="-135" font-family="Times,serif" font-size="14.00">PWN::Plugins::XXX.method</text>
</g>
<!-- External -->
<g id="node6" class="node">
<title>External</title>
<path fill="none" stroke="black" d="M858.47,-49.82C858.47,-49.82 775.72,-49.82 775.72,-49.82 769.72,-49.82 763.72,-43.82 763.72,-37.82 763.72,-37.82 763.72,-25.82 763.72,-25.82 763.72,-19.82 769.72,-13.82 775.72,-13.82 775.72,-13.82 858.47,-13.82 858.47,-13.82 864.47,-13.82 870.47,-19.82 870.47,-25.82 870.47,-25.82 870.47,-37.82 870.47,-37.82 870.47,-43.82 864.47,-49.82 858.47,-49.82"/>
<text xml:space="preserve" text-anchor="middle" x="817.09" y="-33.77" font-family="Arial" font-size="9.00">External Tools</text>
<text xml:space="preserve" text-anchor="middle" x="817.09" y="-23.27" font-family="Arial" font-size="9.00">(curl, nmap, msf, burp)</text>
</g>
<!-- Tools&#45;&gt;External -->
<g id="edge6" class="edge">
<title>Tools&#45;&gt;External</title>
<path fill="none" stroke="black" d="M567.39,-51.28C573.34,-49.74 579.39,-48.36 585.22,-47.32 641,-37.37 705.4,-33.68 751.98,-32.37"/>
<polygon fill="black" stroke="black" points="752,-35.87 761.91,-32.12 751.83,-28.87 752,-35.87"/>
<text xml:space="preserve" text-anchor="middle" x="665.47" y="-50.52" font-family="Times,serif" font-size="14.00">shell commands</text>
</g>
<!-- PWNNS&#45;&gt;Tools -->
<g id="edge7" class="edge">
<title>PWNNS&#45;&gt;Tools</title>
<path fill="none" stroke="black" d="M772.39,-88.11C763.61,-86.08 754.41,-84.19 745.72,-82.82 689.35,-73.93 624.21,-69.64 578.88,-67.61"/>
<polygon fill="black" stroke="black" points="579.16,-64.12 569.02,-67.19 578.87,-71.11 579.16,-64.12"/>
<text xml:space="preserve" text-anchor="middle" x="665.47" y="-102.52" font-family="Times,serif" font-size="14.00">return value</text>
<text xml:space="preserve" text-anchor="middle" x="665.47" y="-86.02" font-family="Times,serif" font-size="14.00">or exception</text>
</g>
<!-- External&#45;&gt;Tools -->
<g id="edge8" class="edge">
<title>External&#45;&gt;Tools</title>
<path fill="none" stroke="black" d="M763.5,-14.94C715.56,-2.41 643.54,9.14 585.22,-12.32 573.27,-16.72 562.04,-24.5 552.48,-32.79"/>
<polygon fill="black" stroke="black" points="550.26,-30.08 545.3,-39.44 555.01,-35.22 550.26,-30.08"/>
<text xml:space="preserve" text-anchor="middle" x="665.47" y="-15.52" font-family="Times,serif" font-size="14.00">stdout/stderr</text>
</g>
</g>
</svg>
