<?xml version="1.0" encoding="UTF-8" standalone="no"?>
<!DOCTYPE svg PUBLIC "-//W3C//DTD SVG 1.1//EN"
 "http://www.w3.org/Graphics/SVG/1.1/DTD/svg11.dtd">
<!-- Generated by graphviz version 14.1.2 (0)
 -->
<!-- Title: PWN_AI_Integration Pages: 1 -->
<svg width="798pt" height="530pt"
 viewBox="0.00 0.00 798.00 530.00" xmlns="http://www.w3.org/2000/svg" xmlns:xlink="http://www.w3.org/1999/xlink">
<g id="graph0" class="graph" transform="scale(1 1) rotate(0) translate(43.2 486.95)">
<title>PWN_AI_Integration</title>
<polygon fill="#0f172a" stroke="none" points="-43.2,43.2 -43.2,-486.95 754.95,-486.95 754.95,43.2 -43.2,43.2"/>
<text xml:space="preserve" text-anchor="start" x="157.88" y="-421.75" font-family="sans-Serif" font-weight="bold" font-size="20.00" fill="#e2e8f0">PWN::AI — Multi&#45;Provider LLM Integration</text>
<text xml:space="preserve" text-anchor="start" x="245.25" y="-410.3" font-family="sans-Serif" font-size="11.00" fill="#94a3b8">one Agent Loop · five interchangeable engines</text>
<g id="clust1" class="cluster">
<title>cluster_c</title>
<path fill="#2e1065" stroke="#6d28d9" d="M331.5,-33.75C331.5,-33.75 483.25,-33.75 483.25,-33.75 489.25,-33.75 495.25,-39.75 495.25,-45.75 495.25,-45.75 495.25,-384.75 495.25,-384.75 495.25,-390.75 489.25,-396.75 483.25,-396.75 483.25,-396.75 331.5,-396.75 331.5,-396.75 325.5,-396.75 319.5,-390.75 319.5,-384.75 319.5,-384.75 319.5,-45.75 319.5,-45.75 319.5,-39.75 325.5,-33.75 331.5,-33.75"/>
<text xml:space="preserve" text-anchor="middle" x="407.38" y="-373.75" font-family="sans-Serif" font-size="20.00" fill="#ddd6fe">PWN::AI::* Clients</text>
</g>
<g id="clust3" class="cluster">
<title>cluster_api</title>
<path fill="#450a0a" stroke="#b91c1c" stroke-dasharray="5,2" d="M586.25,-41.75C586.25,-41.75 699.75,-41.75 699.75,-41.75 705.75,-41.75 711.75,-47.75 711.75,-53.75 711.75,-53.75 711.75,-384.75 711.75,-384.75 711.75,-390.75 705.75,-396.75 699.75,-396.75 699.75,-396.75 586.25,-396.75 586.25,-396.75 580.25,-396.75 574.25,-390.75 574.25,-384.75 574.25,-384.75 574.25,-53.75 574.25,-53.75 574.25,-47.75 580.25,-41.75 586.25,-41.75"/>
<text xml:space="preserve" text-anchor="middle" x="643" y="-373.75" font-family="sans-Serif" font-size="20.00" fill="#fecaca">Provider APIs</text>
</g>
<!-- Loop -->
<g id="node1" class="node">
<title>Loop</title>
<path fill="#7dd3fc" stroke="#334155" stroke-width="2" d="M127,-192.75C127,-192.75 36.75,-192.75 36.75,-192.75 30.75,-192.75 24.75,-186.75 24.75,-180.75 24.75,-180.75 24.75,-168.75 24.75,-168.75 24.75,-162.75 30.75,-156.75 36.75,-156.75 36.75,-156.75 127,-156.75 127,-156.75 133,-156.75 139,-162.75 139,-168.75 139,-168.75 139,-180.75 139,-180.75 139,-186.75 133,-192.75 127,-192.75"/>
<text xml:space="preserve" text-anchor="middle" x="81.88" y="-177.25" font-family="sans-Serif" font-size="10.00" fill="#0f172a">PWN::AI::Agent::Loop</text>
<text xml:space="preserve" text-anchor="middle" x="81.88" y="-165.25" font-family="sans-Serif" font-size="10.00" fill="#0f172a">tool&#45;calling harness</text>
</g>
<!-- OpenAI -->
<g id="node2" class="node">
<title>OpenAI</title>
<path fill="#c4b5fd" stroke="#334155" stroke-width="1.3" d="M421.88,-357.75C421.88,-357.75 391.88,-357.75 391.88,-357.75 385.88,-357.75 379.88,-351.75 379.88,-345.75 379.88,-345.75 379.88,-333.75 379.88,-333.75 379.88,-327.75 385.88,-321.75 391.88,-321.75 391.88,-321.75 421.88,-321.75 421.88,-321.75 427.88,-321.75 433.88,-327.75 433.88,-333.75 433.88,-333.75 433.88,-345.75 433.88,-345.75 433.88,-351.75 427.88,-357.75 421.88,-357.75"/>
<text xml:space="preserve" text-anchor="middle" x="406.88" y="-336.25" font-family="sans-Serif" font-size="10.00" fill="#0f172a">OpenAI</text>
</g>
<!-- Loop&#45;&gt;OpenAI -->
<g id="edge1" class="edge">
<title>Loop&#45;&gt;OpenAI</title>
<path fill="none" stroke="#a78bfa" stroke-width="1.3" d="M100.06,-193.75C123.03,-218.01 166.03,-259.74 210.75,-283.75 262.28,-311.41 328.99,-326.74 369.55,-334.1"/>
<polygon fill="#a78bfa" stroke="#a78bfa" stroke-width="1.3" points="368.97,-336.85 377.33,-335.47 369.94,-331.33 368.97,-336.85"/>
</g>
<!-- Anthropic -->
<g id="node3" class="node">
<title>Anthropic</title>
<path fill="#c4b5fd" stroke="#334155" stroke-width="1.3" d="M423.5,-289.75C423.5,-289.75 390.25,-289.75 390.25,-289.75 384.25,-289.75 378.25,-283.75 378.25,-277.75 378.25,-277.75 378.25,-265.75 378.25,-265.75 378.25,-259.75 384.25,-253.75 390.25,-253.75 390.25,-253.75 423.5,-253.75 423.5,-253.75 429.5,-253.75 435.5,-259.75 435.5,-265.75 435.5,-265.75 435.5,-277.75 435.5,-277.75 435.5,-283.75 429.5,-289.75 423.5,-289.75"/>
<text xml:space="preserve" text-anchor="middle" x="406.88" y="-268.25" font-family="sans-Serif" font-size="10.00" fill="#0f172a">Anthropic</text>
</g>
<!-- Loop&#45;&gt;Anthropic -->
<g id="edge2" class="edge">
<title>Loop&#45;&gt;Anthropic</title>
<path fill="none" stroke="#a78bfa" stroke-width="1.3" d="M107.26,-193.62C131.9,-211.59 171.79,-237.77 210.75,-250.75 263.23,-268.24 327.63,-271.99 367.72,-272.4"/>
<polygon fill="#a78bfa" stroke="#a78bfa" stroke-width="1.3" points="367.64,-275.2 375.65,-272.43 367.66,-269.6 367.64,-275.2"/>
</g>
<!-- Loop&#45;&gt;Anthropic -->
<g id="edge12" class="edge">
<title>Loop&#45;&gt;Anthropic</title>
<path fill="none" stroke="#fbbf24" stroke-width="1.3" stroke-dasharray="5,2" d="M139.74,-185.82C179.58,-194.16 233.84,-206.73 280.5,-221.75 298.33,-227.49 302.12,-230.76 319.5,-237.75 335.6,-244.22 353.43,-251.26 368.69,-257.25"/>
<polygon fill="#fbbf24" stroke="#fbbf24" stroke-width="1.3" points="367.52,-259.8 375.99,-260.11 369.57,-254.58 367.52,-259.8"/>
<text xml:space="preserve" text-anchor="middle" x="245.62" y="-234.2" font-family="sans-Serif" font-size="9.00" fill="#cbd5e1">reflect_engine</text>
<text xml:space="preserve" text-anchor="middle" x="245.62" y="-223.7" font-family="sans-Serif" font-size="9.00" fill="#cbd5e1">(teacher&#45;student)</text>
</g>
<!-- Grok -->
<g id="node4" class="node">
<title>Grok</title>
<path fill="#c4b5fd" stroke="#334155" stroke-width="1.3" d="M443,-221.75C443,-221.75 370.75,-221.75 370.75,-221.75 364.75,-221.75 358.75,-215.75 358.75,-209.75 358.75,-209.75 358.75,-197.75 358.75,-197.75 358.75,-191.75 364.75,-185.75 370.75,-185.75 370.75,-185.75 443,-185.75 443,-185.75 449,-185.75 455,-191.75 455,-197.75 455,-197.75 455,-209.75 455,-209.75 455,-215.75 449,-221.75 443,-221.75"/>
<text xml:space="preserve" text-anchor="middle" x="406.88" y="-206.25" font-family="sans-Serif" font-size="10.00" fill="#0f172a">Grok</text>
<text xml:space="preserve" text-anchor="middle" x="406.88" y="-194.25" font-family="sans-Serif" font-size="10.00" fill="#0f172a">OAuth device flow</text>
</g>
<!-- Loop&#45;&gt;Grok -->
<g id="edge3" class="edge">
<title>Loop&#45;&gt;Grok</title>
<path fill="none" stroke="#a78bfa" stroke-width="1.3" d="M139.88,-179.87C198.51,-185.13 289.36,-193.29 348.23,-198.57"/>
<polygon fill="#a78bfa" stroke="#a78bfa" stroke-width="1.3" points="347.94,-201.36 356.15,-199.29 348.44,-195.78 347.94,-201.36"/>
</g>
<!-- Gemini -->
<g id="node5" class="node">
<title>Gemini</title>
<path fill="#c4b5fd" stroke="#334155" stroke-width="1.3" d="M421.88,-153.75C421.88,-153.75 391.88,-153.75 391.88,-153.75 385.88,-153.75 379.88,-147.75 379.88,-141.75 379.88,-141.75 379.88,-129.75 379.88,-129.75 379.88,-123.75 385.88,-117.75 391.88,-117.75 391.88,-117.75 421.88,-117.75 421.88,-117.75 427.88,-117.75 433.88,-123.75 433.88,-129.75 433.88,-129.75 433.88,-141.75 433.88,-141.75 433.88,-147.75 427.88,-153.75 421.88,-153.75"/>
<text xml:space="preserve" text-anchor="middle" x="406.88" y="-132.25" font-family="sans-Serif" font-size="10.00" fill="#0f172a">Gemini</text>
</g>
<!-- Loop&#45;&gt;Gemini -->
<g id="edge4" class="edge">
<title>Loop&#45;&gt;Gemini</title>
<path fill="none" stroke="#a78bfa" stroke-width="1.3" d="M139.88,-167.87C206.2,-159.86 313.73,-146.88 369.59,-140.13"/>
<polygon fill="#a78bfa" stroke="#a78bfa" stroke-width="1.3" points="369.83,-142.92 377.44,-139.18 369.16,-137.36 369.83,-142.92"/>
</g>
<!-- Ollama -->
<g id="node6" class="node">
<title>Ollama</title>
<path fill="#c4b5fd" stroke="#334155" stroke-width="1.3" d="M471.12,-85.75C471.12,-85.75 342.62,-85.75 342.62,-85.75 336.62,-85.75 330.62,-79.75 330.62,-73.75 330.62,-73.75 330.62,-53.75 330.62,-53.75 330.62,-47.75 336.62,-41.75 342.62,-41.75 342.62,-41.75 471.12,-41.75 471.12,-41.75 477.12,-41.75 483.12,-47.75 483.12,-53.75 483.12,-53.75 483.12,-73.75 483.12,-73.75 483.12,-79.75 477.12,-85.75 471.12,-85.75"/>
<text xml:space="preserve" text-anchor="middle" x="406.88" y="-72.25" font-family="sans-Serif" font-size="10.00" fill="#0f172a">Ollama (local)</text>
<text xml:space="preserve" text-anchor="middle" x="406.88" y="-60.25" font-family="sans-Serif" font-size="10.00" fill="#0f172a">/api/chat &#160;num_ctx · keep_alive</text>
<text xml:space="preserve" text-anchor="middle" x="406.88" y="-48.25" font-family="sans-Serif" font-size="10.00" fill="#0f172a">/api/embed → MemoryIndex</text>
</g>
<!-- Loop&#45;&gt;Ollama -->
<g id="edge5" class="edge">
<title>Loop&#45;&gt;Ollama</title>
<path fill="none" stroke="#a78bfa" stroke-width="1.3" d="M138.03,-155.79C191.14,-137.54 271.86,-109.8 330.8,-89.55"/>
<polygon fill="#a78bfa" stroke="#a78bfa" stroke-width="1.3" points="331.55,-92.25 338.21,-87 329.73,-86.96 331.55,-92.25"/>
</g>
<!-- A1 -->
<g id="node7" class="node">
<title>A1</title>
<path fill="#fda4af" stroke="#334155" stroke-width="1.3" d="M671.5,-357.75C671.5,-357.75 613.5,-357.75 613.5,-357.75 607.5,-357.75 601.5,-351.75 601.5,-345.75 601.5,-345.75 601.5,-333.75 601.5,-333.75 601.5,-327.75 607.5,-321.75 613.5,-321.75 613.5,-321.75 671.5,-321.75 671.5,-321.75 677.5,-321.75 683.5,-327.75 683.5,-333.75 683.5,-333.75 683.5,-345.75 683.5,-345.75 683.5,-351.75 677.5,-357.75 671.5,-357.75"/>
<text xml:space="preserve" text-anchor="middle" x="642.5" y="-336.25" font-family="sans-Serif" font-size="10.00" fill="#0f172a">api.openai.com</text>
</g>
<!-- OpenAI&#45;&gt;A1 -->
<g id="edge6" class="edge">
<title>OpenAI&#45;&gt;A1</title>
<path fill="none" stroke="#fb7185" stroke-width="1.3" d="M434.22,-339.75C472.21,-339.75 543.1,-339.75 591.28,-339.75"/>
<polygon fill="#fb7185" stroke="#fb7185" stroke-width="1.3" points="591.23,-342.55 599.23,-339.75 591.23,-336.95 591.23,-342.55"/>
</g>
<!-- A2 -->
<g id="node8" class="node">
<title>A2</title>
<path fill="#fda4af" stroke="#334155" stroke-width="1.3" d="M677.12,-289.75C677.12,-289.75 607.88,-289.75 607.88,-289.75 601.88,-289.75 595.88,-283.75 595.88,-277.75 595.88,-277.75 595.88,-265.75 595.88,-265.75 595.88,-259.75 601.88,-253.75 607.88,-253.75 607.88,-253.75 677.12,-253.75 677.12,-253.75 683.12,-253.75 689.12,-259.75 689.12,-265.75 689.12,-265.75 689.12,-277.75 689.12,-277.75 689.12,-283.75 683.12,-289.75 677.12,-289.75"/>
<text xml:space="preserve" text-anchor="middle" x="642.5" y="-268.25" font-family="sans-Serif" font-size="10.00" fill="#0f172a">api.anthropic.com</text>
</g>
<!-- Anthropic&#45;&gt;A2 -->
<g id="edge7" class="edge">
<title>Anthropic&#45;&gt;A2</title>
<path fill="none" stroke="#fb7185" stroke-width="1.3" d="M436.06,-271.75C472.99,-271.75 538.61,-271.75 585.76,-271.75"/>
<polygon fill="#fb7185" stroke="#fb7185" stroke-width="1.3" points="585.56,-274.55 593.56,-271.75 585.56,-268.95 585.56,-274.55"/>
</g>
<!-- A3 -->
<g id="node9" class="node">
<title>A3</title>
<path fill="#fda4af" stroke="#334155" stroke-width="1.3" d="M657.5,-221.75C657.5,-221.75 627.5,-221.75 627.5,-221.75 621.5,-221.75 615.5,-215.75 615.5,-209.75 615.5,-209.75 615.5,-197.75 615.5,-197.75 615.5,-191.75 621.5,-185.75 627.5,-185.75 627.5,-185.75 657.5,-185.75 657.5,-185.75 663.5,-185.75 669.5,-191.75 669.5,-197.75 669.5,-197.75 669.5,-209.75 669.5,-209.75 669.5,-215.75 663.5,-221.75 657.5,-221.75"/>
<text xml:space="preserve" text-anchor="middle" x="642.5" y="-206.25" font-family="sans-Serif" font-size="10.00" fill="#0f172a">api.x.ai</text>
<text xml:space="preserve" text-anchor="middle" x="642.5" y="-194.25" font-family="sans-Serif" font-size="10.00" fill="#0f172a">auth.x.ai</text>
</g>
<!-- Grok&#45;&gt;A3 -->
<g id="edge8" class="edge">
<title>Grok&#45;&gt;A3</title>
<path fill="none" stroke="#fb7185" stroke-width="1.3" d="M455.43,-203.75C499.74,-203.75 564.85,-203.75 605.14,-203.75"/>
<polygon fill="#fb7185" stroke="#fb7185" stroke-width="1.3" points="605.09,-206.55 613.09,-203.75 605.09,-200.95 605.09,-206.55"/>
</g>
<!-- A4 -->
<g id="node10" class="node">
<title>A4</title>
<path fill="#fda4af" stroke="#334155" stroke-width="1.3" d="M680.5,-153.75C680.5,-153.75 604.5,-153.75 604.5,-153.75 598.5,-153.75 592.5,-147.75 592.5,-141.75 592.5,-141.75 592.5,-129.75 592.5,-129.75 592.5,-123.75 598.5,-117.75 604.5,-117.75 604.5,-117.75 680.5,-117.75 680.5,-117.75 686.5,-117.75 692.5,-123.75 692.5,-129.75 692.5,-129.75 692.5,-141.75 692.5,-141.75 692.5,-147.75 686.5,-153.75 680.5,-153.75"/>
<text xml:space="preserve" text-anchor="middle" x="642.5" y="-138.25" font-family="sans-Serif" font-size="10.00" fill="#0f172a">generativelanguage</text>
<text xml:space="preserve" text-anchor="middle" x="642.5" y="-126.25" font-family="sans-Serif" font-size="10.00" fill="#0f172a">.googleapis.com</text>
</g>
<!-- Gemini&#45;&gt;A4 -->
<g id="edge9" class="edge">
<title>Gemini&#45;&gt;A4</title>
<path fill="none" stroke="#fb7185" stroke-width="1.3" d="M434.22,-135.75C469.87,-135.75 534.49,-135.75 582.13,-135.75"/>
<polygon fill="#fb7185" stroke="#fb7185" stroke-width="1.3" points="582.06,-138.55 590.06,-135.75 582.06,-132.95 582.06,-138.55"/>
</g>
<!-- A5 -->
<g id="node11" class="node">
<title>A5</title>
<path fill="#fda4af" stroke="#334155" stroke-width="1.3" d="M672.62,-85.75C672.62,-85.75 612.38,-85.75 612.38,-85.75 606.38,-85.75 600.38,-79.75 600.38,-73.75 600.38,-73.75 600.38,-61.75 600.38,-61.75 600.38,-55.75 606.38,-49.75 612.38,-49.75 612.38,-49.75 672.62,-49.75 672.62,-49.75 678.62,-49.75 684.62,-55.75 684.62,-61.75 684.62,-61.75 684.62,-73.75 684.62,-73.75 684.62,-79.75 678.62,-85.75 672.62,-85.75"/>
<text xml:space="preserve" text-anchor="middle" x="642.5" y="-64.25" font-family="sans-Serif" font-size="10.00" fill="#0f172a">localhost:11434</text>
</g>
<!-- Ollama&#45;&gt;A5 -->
<g id="edge10" class="edge">
<title>Ollama&#45;&gt;A5</title>
<path fill="none" stroke="#fb7185" stroke-width="1.3" d="M483.73,-65.05C518.59,-65.65 559.03,-66.34 590.24,-66.87"/>
<polygon fill="#fb7185" stroke="#fb7185" stroke-width="1.3" points="590.01,-69.67 598.06,-67.01 590.11,-64.07 590.01,-69.67"/>
</g>
<!-- Cfg -->
<g id="node12" class="node">
<title>Cfg</title>
<path fill="#fcd34d" stroke="#334155" stroke-width="1.3" d="M163.75,-85C163.75,-89.69 127.05,-93.5 81.88,-93.5 36.7,-93.5 0,-89.69 0,-85 0,-85 0,-8.5 0,-8.5 0,-3.81 36.7,0 81.88,0 127.05,0 163.75,-3.81 163.75,-8.5 163.75,-8.5 163.75,-85 163.75,-85"/>
<path fill="none" stroke="#334155" stroke-width="1.3" d="M163.75,-85C163.75,-80.31 127.05,-76.5 81.88,-76.5 36.7,-76.5 0,-80.31 0,-85"/>
<text xml:space="preserve" text-anchor="middle" x="81.88" y="-67.25" font-family="sans-Serif" font-size="10.00" fill="#0f172a">PWN::Config</text>
<text xml:space="preserve" text-anchor="middle" x="81.88" y="-55.25" font-family="sans-Serif" font-size="10.00" fill="#0f172a">~/.pwn/config.yml</text>
<text xml:space="preserve" text-anchor="middle" x="81.88" y="-43.25" font-family="sans-Serif" font-size="10.00" fill="#0f172a">active · key · oauth</text>
<text xml:space="preserve" text-anchor="middle" x="81.88" y="-31.25" font-family="sans-Serif" font-size="10.00" fill="#0f172a">prompt_budget · reflect_engine</text>
<text xml:space="preserve" text-anchor="middle" x="81.88" y="-19.25" font-family="sans-Serif" font-size="10.00" fill="#0f172a">plan_first · tool_router · escalation</text>
</g>
<!-- Cfg&#45;&gt;Loop -->
<g id="edge11" class="edge">
<title>Cfg&#45;&gt;Loop</title>
<path fill="none" stroke="#fbbf24" stroke-width="1.3" stroke-dasharray="5,2" d="M81.88,-94.05C81.88,-111.52 81.88,-130.78 81.88,-146.11"/>
<polygon fill="#fbbf24" stroke="#fbbf24" stroke-width="1.3" points="79.08,-146.04 81.88,-154.04 84.68,-146.04 79.08,-146.04"/>
<text xml:space="preserve" text-anchor="middle" x="73.62" y="-121.83" font-family="sans-Serif" font-size="9.00" fill="#cbd5e1">active engine</text>
</g>
</g>
</svg>
