<?xml version="1.0" encoding="UTF-8" standalone="no"?>
<!DOCTYPE svg PUBLIC "-//W3C//DTD SVG 1.1//EN"
 "http://www.w3.org/Graphics/SVG/1.1/DTD/svg11.dtd">
<!-- Generated by graphviz version 14.1.2 (0)
 -->
<!-- Title: PWN_AI_Integration Pages: 1 -->
<svg width="680pt" height="496pt"
 viewBox="0.00 0.00 680.00 496.00" xmlns="http://www.w3.org/2000/svg" xmlns:xlink="http://www.w3.org/1999/xlink">
<g id="graph0" class="graph" transform="scale(1 1) rotate(0) translate(43.2 453.2)">
<title>PWN_AI_Integration</title>
<polygon fill="#0f172a" stroke="none" points="-43.2,43.2 -43.2,-453.2 636.7,-453.2 636.7,43.2 -43.2,43.2"/>
<text xml:space="preserve" text-anchor="start" x="98.75" y="-388" font-family="sans-Serif" font-weight="bold" font-size="20.00" fill="#e2e8f0">PWN::AI — Multi&#45;Provider LLM Integration</text>
<text xml:space="preserve" text-anchor="start" x="186.12" y="-376.55" font-family="sans-Serif" font-size="11.00" fill="#94a3b8">one Agent Loop · five interchangeable engines</text>
<g id="clust1" class="cluster">
<title>cluster_c</title>
<path fill="#2e1065" stroke="#6d28d9" d="M213.25,-8C213.25,-8 365,-8 365,-8 371,-8 377,-14 377,-20 377,-20 377,-351 377,-351 377,-357 371,-363 365,-363 365,-363 213.25,-363 213.25,-363 207.25,-363 201.25,-357 201.25,-351 201.25,-351 201.25,-20 201.25,-20 201.25,-14 207.25,-8 213.25,-8"/>
<text xml:space="preserve" text-anchor="middle" x="289.12" y="-340" font-family="sans-Serif" font-size="20.00" fill="#ddd6fe">PWN::AI::* Clients</text>
</g>
<g id="clust3" class="cluster">
<title>cluster_api</title>
<path fill="#450a0a" stroke="#b91c1c" stroke-dasharray="5,2" d="M468,-8C468,-8 581.5,-8 581.5,-8 587.5,-8 593.5,-14 593.5,-20 593.5,-20 593.5,-351 593.5,-351 593.5,-357 587.5,-363 581.5,-363 581.5,-363 468,-363 468,-363 462,-363 456,-357 456,-351 456,-351 456,-20 456,-20 456,-14 462,-8 468,-8"/>
<text xml:space="preserve" text-anchor="middle" x="524.75" y="-340" font-family="sans-Serif" font-size="20.00" fill="#fecaca">Provider APIs</text>
</g>
<!-- Loop -->
<g id="node1" class="node">
<title>Loop</title>
<path fill="#7dd3fc" stroke="#334155" stroke-width="2" d="M102.25,-188C102.25,-188 12,-188 12,-188 6,-188 0,-182 0,-176 0,-176 0,-164 0,-164 0,-158 6,-152 12,-152 12,-152 102.25,-152 102.25,-152 108.25,-152 114.25,-158 114.25,-164 114.25,-164 114.25,-176 114.25,-176 114.25,-182 108.25,-188 102.25,-188"/>
<text xml:space="preserve" text-anchor="middle" x="57.12" y="-172.5" font-family="sans-Serif" font-size="10.00" fill="#0f172a">PWN::AI::Agent::Loop</text>
<text xml:space="preserve" text-anchor="middle" x="57.12" y="-160.5" font-family="sans-Serif" font-size="10.00" fill="#0f172a">tool&#45;calling harness</text>
</g>
<!-- OpenAI -->
<g id="node2" class="node">
<title>OpenAI</title>
<path fill="#c4b5fd" stroke="#334155" stroke-width="1.3" d="M303.62,-324C303.62,-324 273.62,-324 273.62,-324 267.62,-324 261.62,-318 261.62,-312 261.62,-312 261.62,-300 261.62,-300 261.62,-294 267.62,-288 273.62,-288 273.62,-288 303.62,-288 303.62,-288 309.62,-288 315.62,-294 315.62,-300 315.62,-300 315.62,-312 315.62,-312 315.62,-318 309.62,-324 303.62,-324"/>
<text xml:space="preserve" text-anchor="middle" x="288.62" y="-302.5" font-family="sans-Serif" font-size="10.00" fill="#0f172a">OpenAI</text>
</g>
<!-- Loop&#45;&gt;OpenAI -->
<g id="edge1" class="edge">
<title>Loop&#45;&gt;OpenAI</title>
<path fill="none" stroke="#a78bfa" stroke-width="1.3" d="M80.78,-188.81C108.07,-210.83 155.92,-247.41 201.25,-272 217.35,-280.74 236.19,-288.42 252.15,-294.26"/>
<polygon fill="#a78bfa" stroke="#a78bfa" stroke-width="1.3" points="250.85,-296.77 259.33,-296.82 252.73,-291.49 250.85,-296.77"/>
</g>
<!-- Anthropic -->
<g id="node3" class="node">
<title>Anthropic</title>
<path fill="#c4b5fd" stroke="#334155" stroke-width="1.3" d="M305.25,-256C305.25,-256 272,-256 272,-256 266,-256 260,-250 260,-244 260,-244 260,-232 260,-232 260,-226 266,-220 272,-220 272,-220 305.25,-220 305.25,-220 311.25,-220 317.25,-226 317.25,-232 317.25,-232 317.25,-244 317.25,-244 317.25,-250 311.25,-256 305.25,-256"/>
<text xml:space="preserve" text-anchor="middle" x="288.62" y="-234.5" font-family="sans-Serif" font-size="10.00" fill="#0f172a">Anthropic</text>
</g>
<!-- Loop&#45;&gt;Anthropic -->
<g id="edge2" class="edge">
<title>Loop&#45;&gt;Anthropic</title>
<path fill="none" stroke="#a78bfa" stroke-width="1.3" d="M115.15,-186.9C157.31,-199.39 213.54,-216.05 250.15,-226.9"/>
<polygon fill="#a78bfa" stroke="#a78bfa" stroke-width="1.3" points="249.12,-229.51 257.59,-229.1 250.71,-224.14 249.12,-229.51"/>
</g>
<!-- Grok -->
<g id="node4" class="node">
<title>Grok</title>
<path fill="#c4b5fd" stroke="#334155" stroke-width="1.3" d="M324.75,-188C324.75,-188 252.5,-188 252.5,-188 246.5,-188 240.5,-182 240.5,-176 240.5,-176 240.5,-164 240.5,-164 240.5,-158 246.5,-152 252.5,-152 252.5,-152 324.75,-152 324.75,-152 330.75,-152 336.75,-158 336.75,-164 336.75,-164 336.75,-176 336.75,-176 336.75,-182 330.75,-188 324.75,-188"/>
<text xml:space="preserve" text-anchor="middle" x="288.62" y="-172.5" font-family="sans-Serif" font-size="10.00" fill="#0f172a">Grok</text>
<text xml:space="preserve" text-anchor="middle" x="288.62" y="-160.5" font-family="sans-Serif" font-size="10.00" fill="#0f172a">OAuth device flow</text>
</g>
<!-- Loop&#45;&gt;Grok -->
<g id="edge3" class="edge">
<title>Loop&#45;&gt;Grok</title>
<path fill="none" stroke="#a78bfa" stroke-width="1.3" d="M115.15,-170C150.34,-170 195.32,-170 230.53,-170"/>
<polygon fill="#a78bfa" stroke="#a78bfa" stroke-width="1.3" points="230.21,-172.8 238.21,-170 230.21,-167.2 230.21,-172.8"/>
</g>
<!-- Gemini -->
<g id="node5" class="node">
<title>Gemini</title>
<path fill="#c4b5fd" stroke="#334155" stroke-width="1.3" d="M303.62,-120C303.62,-120 273.62,-120 273.62,-120 267.62,-120 261.62,-114 261.62,-108 261.62,-108 261.62,-96 261.62,-96 261.62,-90 267.62,-84 273.62,-84 273.62,-84 303.62,-84 303.62,-84 309.62,-84 315.62,-90 315.62,-96 315.62,-96 315.62,-108 315.62,-108 315.62,-114 309.62,-120 303.62,-120"/>
<text xml:space="preserve" text-anchor="middle" x="288.62" y="-98.5" font-family="sans-Serif" font-size="10.00" fill="#0f172a">Gemini</text>
</g>
<!-- Loop&#45;&gt;Gemini -->
<g id="edge4" class="edge">
<title>Loop&#45;&gt;Gemini</title>
<path fill="none" stroke="#a78bfa" stroke-width="1.3" d="M115.15,-153.1C157.92,-140.43 215.17,-123.47 251.73,-112.64"/>
<polygon fill="#a78bfa" stroke="#a78bfa" stroke-width="1.3" points="252.25,-115.4 259.12,-110.44 250.66,-110.03 252.25,-115.4"/>
</g>
<!-- Ollama -->
<g id="node6" class="node">
<title>Ollama</title>
<path fill="#c4b5fd" stroke="#334155" stroke-width="1.3" d="M303.62,-52C303.62,-52 273.62,-52 273.62,-52 267.62,-52 261.62,-46 261.62,-40 261.62,-40 261.62,-28 261.62,-28 261.62,-22 267.62,-16 273.62,-16 273.62,-16 303.62,-16 303.62,-16 309.62,-16 315.62,-22 315.62,-28 315.62,-28 315.62,-40 315.62,-40 315.62,-46 309.62,-52 303.62,-52"/>
<text xml:space="preserve" text-anchor="middle" x="288.62" y="-36.5" font-family="sans-Serif" font-size="10.00" fill="#0f172a">Ollama</text>
<text xml:space="preserve" text-anchor="middle" x="288.62" y="-24.5" font-family="sans-Serif" font-size="10.00" fill="#0f172a">(local)</text>
</g>
<!-- Loop&#45;&gt;Ollama -->
<g id="edge5" class="edge">
<title>Loop&#45;&gt;Ollama</title>
<path fill="none" stroke="#a78bfa" stroke-width="1.3" d="M80.78,-151.19C108.07,-129.17 155.92,-92.59 201.25,-68 217.35,-59.26 236.19,-51.58 252.15,-45.74"/>
<polygon fill="#a78bfa" stroke="#a78bfa" stroke-width="1.3" points="252.73,-48.51 259.33,-43.18 250.85,-43.23 252.73,-48.51"/>
</g>
<!-- A1 -->
<g id="node7" class="node">
<title>A1</title>
<path fill="#fda4af" stroke="#334155" stroke-width="1.3" d="M553.25,-324C553.25,-324 495.25,-324 495.25,-324 489.25,-324 483.25,-318 483.25,-312 483.25,-312 483.25,-300 483.25,-300 483.25,-294 489.25,-288 495.25,-288 495.25,-288 553.25,-288 553.25,-288 559.25,-288 565.25,-294 565.25,-300 565.25,-300 565.25,-312 565.25,-312 565.25,-318 559.25,-324 553.25,-324"/>
<text xml:space="preserve" text-anchor="middle" x="524.25" y="-302.5" font-family="sans-Serif" font-size="10.00" fill="#0f172a">api.openai.com</text>
</g>
<!-- OpenAI&#45;&gt;A1 -->
<g id="edge6" class="edge">
<title>OpenAI&#45;&gt;A1</title>
<path fill="none" stroke="#fb7185" stroke-width="1.3" d="M315.97,-306C353.96,-306 424.85,-306 473.03,-306"/>
<polygon fill="#fb7185" stroke="#fb7185" stroke-width="1.3" points="472.98,-308.8 480.98,-306 472.98,-303.2 472.98,-308.8"/>
</g>
<!-- A2 -->
<g id="node8" class="node">
<title>A2</title>
<path fill="#fda4af" stroke="#334155" stroke-width="1.3" d="M558.88,-256C558.88,-256 489.62,-256 489.62,-256 483.62,-256 477.62,-250 477.62,-244 477.62,-244 477.62,-232 477.62,-232 477.62,-226 483.62,-220 489.62,-220 489.62,-220 558.88,-220 558.88,-220 564.88,-220 570.88,-226 570.88,-232 570.88,-232 570.88,-244 570.88,-244 570.88,-250 564.88,-256 558.88,-256"/>
<text xml:space="preserve" text-anchor="middle" x="524.25" y="-234.5" font-family="sans-Serif" font-size="10.00" fill="#0f172a">api.anthropic.com</text>
</g>
<!-- Anthropic&#45;&gt;A2 -->
<g id="edge7" class="edge">
<title>Anthropic&#45;&gt;A2</title>
<path fill="none" stroke="#fb7185" stroke-width="1.3" d="M317.81,-238C354.74,-238 420.36,-238 467.51,-238"/>
<polygon fill="#fb7185" stroke="#fb7185" stroke-width="1.3" points="467.31,-240.8 475.31,-238 467.31,-235.2 467.31,-240.8"/>
</g>
<!-- A3 -->
<g id="node9" class="node">
<title>A3</title>
<path fill="#fda4af" stroke="#334155" stroke-width="1.3" d="M539.25,-188C539.25,-188 509.25,-188 509.25,-188 503.25,-188 497.25,-182 497.25,-176 497.25,-176 497.25,-164 497.25,-164 497.25,-158 503.25,-152 509.25,-152 509.25,-152 539.25,-152 539.25,-152 545.25,-152 551.25,-158 551.25,-164 551.25,-164 551.25,-176 551.25,-176 551.25,-182 545.25,-188 539.25,-188"/>
<text xml:space="preserve" text-anchor="middle" x="524.25" y="-172.5" font-family="sans-Serif" font-size="10.00" fill="#0f172a">api.x.ai</text>
<text xml:space="preserve" text-anchor="middle" x="524.25" y="-160.5" font-family="sans-Serif" font-size="10.00" fill="#0f172a">auth.x.ai</text>
</g>
<!-- Grok&#45;&gt;A3 -->
<g id="edge8" class="edge">
<title>Grok&#45;&gt;A3</title>
<path fill="none" stroke="#fb7185" stroke-width="1.3" d="M337.18,-170C381.49,-170 446.6,-170 486.89,-170"/>
<polygon fill="#fb7185" stroke="#fb7185" stroke-width="1.3" points="486.84,-172.8 494.84,-170 486.84,-167.2 486.84,-172.8"/>
</g>
<!-- A4 -->
<g id="node10" class="node">
<title>A4</title>
<path fill="#fda4af" stroke="#334155" stroke-width="1.3" d="M562.25,-120C562.25,-120 486.25,-120 486.25,-120 480.25,-120 474.25,-114 474.25,-108 474.25,-108 474.25,-96 474.25,-96 474.25,-90 480.25,-84 486.25,-84 486.25,-84 562.25,-84 562.25,-84 568.25,-84 574.25,-90 574.25,-96 574.25,-96 574.25,-108 574.25,-108 574.25,-114 568.25,-120 562.25,-120"/>
<text xml:space="preserve" text-anchor="middle" x="524.25" y="-104.5" font-family="sans-Serif" font-size="10.00" fill="#0f172a">generativelanguage</text>
<text xml:space="preserve" text-anchor="middle" x="524.25" y="-92.5" font-family="sans-Serif" font-size="10.00" fill="#0f172a">.googleapis.com</text>
</g>
<!-- Gemini&#45;&gt;A4 -->
<g id="edge9" class="edge">
<title>Gemini&#45;&gt;A4</title>
<path fill="none" stroke="#fb7185" stroke-width="1.3" d="M315.97,-102C351.62,-102 416.24,-102 463.88,-102"/>
<polygon fill="#fb7185" stroke="#fb7185" stroke-width="1.3" points="463.81,-104.8 471.81,-102 463.81,-99.2 463.81,-104.8"/>
</g>
<!-- A5 -->
<g id="node11" class="node">
<title>A5</title>
<path fill="#fda4af" stroke="#334155" stroke-width="1.3" d="M554.38,-52C554.38,-52 494.12,-52 494.12,-52 488.12,-52 482.12,-46 482.12,-40 482.12,-40 482.12,-28 482.12,-28 482.12,-22 488.12,-16 494.12,-16 494.12,-16 554.38,-16 554.38,-16 560.38,-16 566.38,-22 566.38,-28 566.38,-28 566.38,-40 566.38,-40 566.38,-46 560.38,-52 554.38,-52"/>
<text xml:space="preserve" text-anchor="middle" x="524.25" y="-30.5" font-family="sans-Serif" font-size="10.00" fill="#0f172a">localhost:11434</text>
</g>
<!-- Ollama&#45;&gt;A5 -->
<g id="edge10" class="edge">
<title>Ollama&#45;&gt;A5</title>
<path fill="none" stroke="#fb7185" stroke-width="1.3" d="M315.97,-34C353.63,-34 423.6,-34 471.75,-34"/>
<polygon fill="#fb7185" stroke="#fb7185" stroke-width="1.3" points="471.71,-36.8 479.71,-34 471.71,-31.2 471.71,-36.8"/>
</g>
<!-- Cfg -->
<g id="node12" class="node">
<title>Cfg</title>
<path fill="#fcd34d" stroke="#334155" stroke-width="1.3" d="M108.25,-82.75C108.25,-85.78 85.33,-88.25 57.12,-88.25 28.92,-88.25 6,-85.78 6,-82.75 6,-82.75 6,-33.25 6,-33.25 6,-30.22 28.92,-27.75 57.12,-27.75 85.33,-27.75 108.25,-30.22 108.25,-33.25 108.25,-33.25 108.25,-82.75 108.25,-82.75"/>
<path fill="none" stroke="#334155" stroke-width="1.3" d="M108.25,-82.75C108.25,-79.72 85.33,-77.25 57.12,-77.25 28.92,-77.25 6,-79.72 6,-82.75"/>
<text xml:space="preserve" text-anchor="middle" x="57.12" y="-66.5" font-family="sans-Serif" font-size="10.00" fill="#0f172a">PWN::Config</text>
<text xml:space="preserve" text-anchor="middle" x="57.12" y="-54.5" font-family="sans-Serif" font-size="10.00" fill="#0f172a">~/.pwn/config.yml</text>
<text xml:space="preserve" text-anchor="middle" x="57.12" y="-42.5" font-family="sans-Serif" font-size="10.00" fill="#0f172a">engine · key · oauth</text>
</g>
<!-- Cfg&#45;&gt;Loop -->
<g id="edge11" class="edge">
<title>Cfg&#45;&gt;Loop</title>
<path fill="none" stroke="#fbbf24" stroke-width="1.3" stroke-dasharray="5,2" d="M57.12,-88.6C57.12,-104.97 57.12,-125 57.12,-141.1"/>
<polygon fill="#fbbf24" stroke="#fbbf24" stroke-width="1.3" points="54.33,-141.06 57.13,-149.06 59.93,-141.06 54.33,-141.06"/>
<text xml:space="preserve" text-anchor="middle" x="48.88" y="-116.83" font-family="sans-Serif" font-size="9.00" fill="#cbd5e1">active engine</text>
</g>
</g>
</svg>
