<?xml version="1.0" encoding="UTF-8" standalone="no"?>
<!DOCTYPE svg PUBLIC "-//W3C//DTD SVG 1.1//EN"
 "http://www.w3.org/Graphics/SVG/1.1/DTD/svg11.dtd">
<!-- Generated by graphviz version 14.1.2 (0)
 -->
<!-- Title: PWN_BurpVsZap Pages: 1 -->
<svg width="625pt" height="421pt"
 viewBox="0.00 0.00 625.00 421.00" xmlns="http://www.w3.org/2000/svg" xmlns:xlink="http://www.w3.org/1999/xlink">
<g id="graph0" class="graph" transform="scale(1 1) rotate(0) translate(43.2 377.9)">
<title>PWN_BurpVsZap</title>
<polygon fill="#0f172a" stroke="none" points="-43.2,43.2 -43.2,-377.9 581.95,-377.9 581.95,43.2 -43.2,43.2"/>
<text xml:space="preserve" text-anchor="start" x="8" y="-312.7" font-family="sans-Serif" font-weight="bold" font-size="20.00" fill="#e2e8f0">Web Proxy Selection &#45; BurpSuite ⭐ preferred over ZAP</text>
<!-- Need -->
<g id="node1" class="node">
<title>Need</title>
<polygon fill="#7dd3fc" stroke="#334155" stroke-width="1.3" points="279.38,-302.7 207.29,-263.1 279.38,-223.5 351.46,-263.1 279.38,-302.7"/>
<text xml:space="preserve" text-anchor="middle" x="279.38" y="-265.6" font-family="sans-Serif" font-size="10.00" fill="#0f172a">Need web proxy /</text>
<text xml:space="preserve" text-anchor="middle" x="279.38" y="-253.6" font-family="sans-Serif" font-size="10.00" fill="#0f172a">active scanner?</text>
</g>
<!-- Burp -->
<g id="node2" class="node">
<title>Burp</title>
<path fill="#6ee7b7" stroke="#334155" stroke-width="2" d="M253.12,-147C253.12,-147 115.62,-147 115.62,-147 109.62,-147 103.62,-141 103.62,-135 103.62,-135 103.62,-115 103.62,-115 103.62,-109 109.62,-103 115.62,-103 115.62,-103 253.12,-103 253.12,-103 259.12,-103 265.12,-109 265.12,-115 265.12,-115 265.12,-135 265.12,-135 265.12,-141 259.12,-147 253.12,-147"/>
<text xml:space="preserve" text-anchor="middle" x="184.38" y="-133.5" font-family="sans-Serif" font-size="10.00" fill="#0f172a">PWN::Plugins::BurpSuite</text>
<text xml:space="preserve" text-anchor="middle" x="184.38" y="-121.5" font-family="sans-Serif" font-size="10.00" fill="#0f172a">headless · REST · richer scanner</text>
<text xml:space="preserve" text-anchor="middle" x="184.38" y="-109.5" font-family="sans-Serif" font-size="10.00" fill="#0f172a">BApp ecosystem</text>
</g>
<!-- Need&#45;&gt;Burp -->
<g id="edge1" class="edge">
<title>Need&#45;&gt;Burp</title>
<path fill="none" stroke="#34d399" stroke-width="2" d="M256.93,-235.55C246.12,-222.34 233.24,-205.92 222.62,-190.5 215.39,-179.99 208.09,-168.07 201.84,-157.37"/>
<polygon fill="#34d399" stroke="#34d399" stroke-width="2" points="204.34,-156.11 197.93,-150.58 199.49,-158.91 204.34,-156.11"/>
<text xml:space="preserve" text-anchor="middle" x="260.5" y="-181.95" font-family="sans-Serif" font-size="9.00" fill="#cbd5e1">Burp Pro available</text>
</g>
<!-- Zap -->
<g id="node3" class="node">
<title>Zap</title>
<path fill="#fcd34d" stroke="#334155" stroke-width="1.3" d="M423.12,-143C423.12,-143 327.62,-143 327.62,-143 321.62,-143 315.62,-137 315.62,-131 315.62,-131 315.62,-119 315.62,-119 315.62,-113 321.62,-107 327.62,-107 327.62,-107 423.12,-107 423.12,-107 429.12,-107 435.12,-113 435.12,-119 435.12,-119 435.12,-131 435.12,-131 435.12,-137 429.12,-143 423.12,-143"/>
<text xml:space="preserve" text-anchor="middle" x="375.38" y="-127.5" font-family="sans-Serif" font-size="10.00" fill="#0f172a">PWN::Plugins::Zaproxy</text>
<text xml:space="preserve" text-anchor="middle" x="375.38" y="-115.5" font-family="sans-Serif" font-size="10.00" fill="#0f172a">OSS fallback</text>
</g>
<!-- Need&#45;&gt;Zap -->
<g id="edge2" class="edge">
<title>Need&#45;&gt;Zap</title>
<path fill="none" stroke="#f59e0b" stroke-width="1.3" d="M299.27,-233.9C316.39,-209.63 340.87,-174.92 357.41,-151.47"/>
<polygon fill="#f59e0b" stroke="#f59e0b" stroke-width="1.3" points="359.65,-153.15 361.98,-144.99 355.08,-149.92 359.65,-153.15"/>
<text xml:space="preserve" text-anchor="middle" x="351.72" y="-181.95" font-family="sans-Serif" font-size="9.00" fill="#cbd5e1">fallback</text>
</g>
<!-- Both -->
<g id="node4" class="node">
<title>Both</title>
<path fill="#c4b5fd" stroke="#334155" stroke-width="1.3" d="M383.75,-36C383.75,-36 175,-36 175,-36 169,-36 163,-30 163,-24 163,-24 163,-12 163,-12 163,-6 169,0 175,0 175,0 383.75,0 383.75,0 389.75,0 395.75,-6 395.75,-12 395.75,-12 395.75,-24 395.75,-24 395.75,-30 389.75,-36 383.75,-36"/>
<text xml:space="preserve" text-anchor="middle" x="279.38" y="-20.5" font-family="sans-Serif" font-size="10.00" fill="#0f172a">Same downstream:</text>
<text xml:space="preserve" text-anchor="middle" x="279.38" y="-8.5" font-family="sans-Serif" font-size="10.00" fill="#0f172a">TransparentBrowser proxy · Reports · DefectDojo</text>
</g>
<!-- Burp&#45;&gt;Both -->
<g id="edge3" class="edge">
<title>Burp&#45;&gt;Both</title>
<path fill="none" stroke="#a78bfa" stroke-width="1.3" d="M204.06,-102.24C219.47,-85.21 240.9,-61.52 256.97,-43.77"/>
<polygon fill="#a78bfa" stroke="#a78bfa" stroke-width="1.3" points="258.88,-45.83 262.17,-38.02 254.73,-42.07 258.88,-45.83"/>
</g>
<!-- Zap&#45;&gt;Both -->
<g id="edge4" class="edge">
<title>Zap&#45;&gt;Both</title>
<path fill="none" stroke="#a78bfa" stroke-width="1.3" d="M359.52,-106.66C343.82,-89.49 319.62,-63.02 301.92,-43.66"/>
<polygon fill="#a78bfa" stroke="#a78bfa" stroke-width="1.3" points="304.04,-41.83 296.58,-37.82 299.91,-45.61 304.04,-41.83"/>
</g>
</g>
</svg>
