<?xml version="1.0" encoding="UTF-8" standalone="no"?>
<!DOCTYPE svg PUBLIC "-//W3C//DTD SVG 1.1//EN"
 "http://www.w3.org/Graphics/SVG/1.1/DTD/svg11.dtd">
<!-- Generated by graphviz version 14.1.2 (0)
 -->
<!-- Title: PWN BurpSuite vs Zaproxy Preference Pages: 1 -->
<svg width="745pt" height="136pt"
 viewBox="0.00 0.00 745.00 136.00" xmlns="http://www.w3.org/2000/svg" xmlns:xlink="http://www.w3.org/1999/xlink">
<g id="graph0" class="graph" transform="scale(1 1) rotate(0) translate(4 132.25)">
<title>PWN BurpSuite vs Zaproxy Preference</title>
<polygon fill="white" stroke="none" points="-4,4 -4,-132.25 740.75,-132.25 740.75,4 -4,4"/>
<!-- Decision -->
<g id="node1" class="node">
<title>Decision</title>
<path fill="none" stroke="black" d="M210.56,-86.38C210.56,-86.38 141.69,-64.62 141.69,-64.62 135.97,-62.81 135.97,-59.19 141.69,-57.38 141.69,-57.38 210.56,-35.62 210.56,-35.62 216.28,-33.81 227.72,-33.81 233.44,-35.62 233.44,-35.62 302.31,-57.38 302.31,-57.38 308.03,-59.19 308.03,-62.81 302.31,-64.62 302.31,-64.62 233.44,-86.38 233.44,-86.38 227.72,-88.19 216.28,-88.19 210.56,-86.38"/>
<text xml:space="preserve" text-anchor="middle" x="222" y="-62.95" font-family="Arial" font-size="9.00">Web Proxy Choice</text>
<text xml:space="preserve" text-anchor="middle" x="222" y="-52.45" font-family="Arial" font-size="9.00">in PWN</text>
</g>
<!-- Burp -->
<g id="node2" class="node">
<title>Burp</title>
<path fill="none" stroke="black" d="M586.25,-128.25C586.25,-128.25 484,-128.25 484,-128.25 478,-128.25 472,-122.25 472,-116.25 472,-116.25 472,-79.75 472,-79.75 472,-73.75 478,-67.75 484,-67.75 484,-67.75 586.25,-67.75 586.25,-67.75 592.25,-67.75 598.25,-73.75 598.25,-79.75 598.25,-79.75 598.25,-116.25 598.25,-116.25 598.25,-122.25 592.25,-128.25 586.25,-128.25"/>
<text xml:space="preserve" text-anchor="middle" x="535.12" y="-115.7" font-family="Arial" font-size="9.00">PWN::Plugins::BurpSuite</text>
<text xml:space="preserve" text-anchor="middle" x="535.12" y="-105.2" font-family="Arial" font-size="9.00">(preferred for most cases)</text>
<text xml:space="preserve" text-anchor="middle" x="535.12" y="-94.7" font-family="Arial" font-size="9.00">&#45; Comprehensive scanning</text>
<text xml:space="preserve" text-anchor="middle" x="535.12" y="-84.2" font-family="Arial" font-size="9.00">&#45; Rich ecosystem</text>
<text xml:space="preserve" text-anchor="middle" x="535.12" y="-73.7" font-family="Arial" font-size="9.00">&#45; Active scan + extensions</text>
</g>
<!-- Decision&#45;&gt;Burp -->
<g id="edge2" class="edge">
<title>Decision&#45;&gt;Burp</title>
<path fill="none" stroke="black" d="M290.13,-68.98C340.2,-74.94 408.58,-83.07 460.21,-89.21"/>
<polygon fill="black" stroke="black" points="459.77,-92.68 470.12,-90.39 460.6,-85.73 459.77,-92.68"/>
<text xml:space="preserve" text-anchor="middle" x="392.88" y="-91.28" font-family="Times,serif" font-size="14.00">default / most features</text>
</g>
<!-- Zap -->
<g id="node3" class="node">
<title>Zap</title>
<path fill="none" stroke="black" d="M578,-50C578,-50 492.25,-50 492.25,-50 486.25,-50 480.25,-44 480.25,-38 480.25,-38 480.25,-12 480.25,-12 480.25,-6 486.25,0 492.25,0 492.25,0 578,0 578,0 584,0 590,-6 590,-12 590,-12 590,-38 590,-38 590,-44 584,-50 578,-50"/>
<text xml:space="preserve" text-anchor="middle" x="535.12" y="-37.45" font-family="Arial" font-size="9.00">PWN::Plugins::Zaproxy</text>
<text xml:space="preserve" text-anchor="middle" x="535.12" y="-26.95" font-family="Arial" font-size="9.00">(fallback)</text>
<text xml:space="preserve" text-anchor="middle" x="535.12" y="-16.45" font-family="Arial" font-size="9.00">&#45; Open source</text>
<text xml:space="preserve" text-anchor="middle" x="535.12" y="-5.95" font-family="Arial" font-size="9.00">&#45; REST API scans</text>
</g>
<!-- Decision&#45;&gt;Zap -->
<g id="edge3" class="edge">
<title>Decision&#45;&gt;Zap</title>
<path fill="none" stroke="black" d="M275.28,-48.35C293.1,-44.46 313.2,-40.54 331.75,-38 377.15,-31.77 428.69,-28.52 468.4,-26.82"/>
<polygon fill="black" stroke="black" points="468.43,-30.32 478.29,-26.43 468.15,-23.33 468.43,-30.32"/>
<text xml:space="preserve" text-anchor="middle" x="392.88" y="-57.7" font-family="Times,serif" font-size="14.00">if Burp unavailable</text>
<text xml:space="preserve" text-anchor="middle" x="392.88" y="-41.2" font-family="Times,serif" font-size="14.00">or specific REST need</text>
</g>
<!-- Scan / Proxy / Exploit -->
<g id="node5" class="node">
<title>Scan / Proxy / Exploit</title>
<path fill="none" stroke="black" d="M724.75,-79C724.75,-79 647.25,-79 647.25,-79 641.25,-79 635.25,-73 635.25,-67 635.25,-67 635.25,-55 635.25,-55 635.25,-49 641.25,-43 647.25,-43 647.25,-43 724.75,-43 724.75,-43 730.75,-43 736.75,-49 736.75,-55 736.75,-55 736.75,-67 736.75,-67 736.75,-73 730.75,-79 724.75,-79"/>
<text xml:space="preserve" text-anchor="middle" x="686" y="-57.7" font-family="Arial" font-size="9.00">Scan / Proxy / Exploit</text>
</g>
<!-- Burp&#45;&gt;Scan / Proxy / Exploit -->
<g id="edge4" class="edge">
<title>Burp&#45;&gt;Scan / Proxy / Exploit</title>
<path fill="none" stroke="black" d="M598.4,-82.52C606.93,-80.4 615.68,-78.23 624.19,-76.11"/>
<polygon fill="black" stroke="black" points="624.86,-79.55 633.72,-73.75 623.17,-72.76 624.86,-79.55"/>
</g>
<!-- Zap&#45;&gt;Scan / Proxy / Exploit -->
<g id="edge5" class="edge">
<title>Zap&#45;&gt;Scan / Proxy / Exploit</title>
<path fill="none" stroke="black" d="M590.29,-38.1C601.27,-40.75 612.88,-43.56 624.07,-46.27"/>
<polygon fill="black" stroke="black" points="623.06,-49.62 633.61,-48.57 624.71,-42.82 623.06,-49.62"/>
</g>
<!-- UserTask -->
<g id="node4" class="node">
<title>UserTask</title>
<path fill="none" stroke="black" d="M81.25,-79C81.25,-79 12,-79 12,-79 6,-79 0,-73 0,-67 0,-67 0,-55 0,-55 0,-49 6,-43 12,-43 12,-43 81.25,-43 81.25,-43 87.25,-43 93.25,-49 93.25,-55 93.25,-55 93.25,-67 93.25,-67 93.25,-73 87.25,-79 81.25,-79"/>
<text xml:space="preserve" text-anchor="middle" x="46.62" y="-57.7" font-family="Arial" font-size="9.00">Web App Test Task</text>
</g>
<!-- UserTask&#45;&gt;Decision -->
<g id="edge1" class="edge">
<title>UserTask&#45;&gt;Decision</title>
<path fill="none" stroke="black" d="M93.63,-61C101.15,-61 109.19,-61 117.45,-61"/>
<polygon fill="black" stroke="black" points="117.3,-64.5 127.3,-61 117.3,-57.5 117.3,-64.5"/>
</g>
</g>
</svg>
