<?xml version="1.0" encoding="UTF-8" standalone="no"?>
<!DOCTYPE svg PUBLIC "-//W3C//DTD SVG 1.1//EN"
 "http://www.w3.org/Graphics/SVG/1.1/DTD/svg11.dtd">
<!-- Generated by graphviz version 14.1.2 (0)
 -->
<!-- Title: PWN Code Scanning &amp; SAST Pages: 1 -->
<svg width="930pt" height="137pt"
 viewBox="0.00 0.00 930.00 137.00" xmlns="http://www.w3.org/2000/svg" xmlns:xlink="http://www.w3.org/1999/xlink">
<g id="graph0" class="graph" transform="scale(1 1) rotate(0) translate(4 132.75)">
<title>PWN Code Scanning &amp; SAST</title>
<polygon fill="white" stroke="none" points="-4,4 -4,-132.75 926.19,-132.75 926.19,4 -4,4"/>
<!-- Source -->
<g id="node1" class="node">
<title>Source</title>
<path fill="none" stroke="black" d="M62.5,-36C62.5,-36 12,-36 12,-36 6,-36 0,-30 0,-24 0,-24 0,-12 0,-12 0,-6 6,0 12,0 12,0 62.5,0 62.5,0 68.5,0 74.5,-6 74.5,-12 74.5,-12 74.5,-24 74.5,-24 74.5,-30 68.5,-36 62.5,-36"/>
<text xml:space="preserve" text-anchor="middle" x="37.25" y="-19.95" font-family="Arial" font-size="9.00">Source Code</text>
<text xml:space="preserve" text-anchor="middle" x="37.25" y="-9.45" font-family="Arial" font-size="9.00">(Git, Local Dir)</text>
</g>
<!-- SAST -->
<g id="node2" class="node">
<title>SAST</title>
<ellipse fill="none" stroke="black" cx="174.26" cy="-55" rx="62.76" ry="20.51"/>
<text xml:space="preserve" text-anchor="middle" x="174.26" y="-56.95" font-family="Arial" font-size="9.00">PWN::SAST</text>
<text xml:space="preserve" text-anchor="middle" x="174.26" y="-46.45" font-family="Arial" font-size="9.00">(analyze, testgen)</text>
</g>
<!-- Source&#45;&gt;SAST -->
<g id="edge1" class="edge">
<title>Source&#45;&gt;SAST</title>
<path fill="none" stroke="black" d="M74.78,-28.01C86.93,-31.34 100.77,-35.13 114.17,-38.81"/>
<polygon fill="black" stroke="black" points="113.24,-42.18 123.81,-41.45 115.09,-35.43 113.24,-42.18"/>
</g>
<!-- Static -->
<g id="node3" class="node">
<title>Static</title>
<path fill="none" stroke="black" d="M374.76,-128.75C374.76,-128.75 286.01,-128.75 286.01,-128.75 280.01,-128.75 274.01,-122.75 274.01,-116.75 274.01,-116.75 274.01,-101.25 274.01,-101.25 274.01,-95.25 280.01,-89.25 286.01,-89.25 286.01,-89.25 374.76,-89.25 374.76,-89.25 380.76,-89.25 386.76,-95.25 386.76,-101.25 386.76,-101.25 386.76,-116.75 386.76,-116.75 386.76,-122.75 380.76,-128.75 374.76,-128.75"/>
<text xml:space="preserve" text-anchor="middle" x="330.39" y="-116.2" font-family="Arial" font-size="9.00">Static Analysis</text>
<text xml:space="preserve" text-anchor="middle" x="330.39" y="-105.7" font-family="Arial" font-size="9.00">(RuboCop, Brakeman,</text>
<text xml:space="preserve" text-anchor="middle" x="330.39" y="-95.2" font-family="Arial" font-size="9.00">Semgrep, custom rules)</text>
</g>
<!-- SAST&#45;&gt;Static -->
<g id="edge2" class="edge">
<title>SAST&#45;&gt;Static</title>
<path fill="none" stroke="black" d="M218.19,-70.04C232.16,-74.94 248,-80.49 263.26,-85.83"/>
<polygon fill="black" stroke="black" points="261.68,-88.99 272.27,-88.99 263.99,-82.38 261.68,-88.99"/>
</g>
<!-- TestGen -->
<g id="node4" class="node">
<title>TestGen</title>
<path fill="none" stroke="black" d="M369.14,-71C369.14,-71 291.64,-71 291.64,-71 285.64,-71 279.64,-65 279.64,-59 279.64,-59 279.64,-47 279.64,-47 279.64,-41 285.64,-35 291.64,-35 291.64,-35 369.14,-35 369.14,-35 375.14,-35 381.14,-41 381.14,-47 381.14,-47 381.14,-59 381.14,-59 381.14,-65 375.14,-71 369.14,-71"/>
<text xml:space="preserve" text-anchor="middle" x="330.39" y="-54.95" font-family="Arial" font-size="9.00">Test Case Gen</text>
<text xml:space="preserve" text-anchor="middle" x="330.39" y="-44.45" font-family="Arial" font-size="9.00">(unit/integration fuzz)</text>
</g>
<!-- SAST&#45;&gt;TestGen -->
<g id="edge3" class="edge">
<title>SAST&#45;&gt;TestGen</title>
<path fill="none" stroke="black" d="M237.06,-54.2C247.28,-54.07 257.88,-53.93 268.09,-53.8"/>
<polygon fill="black" stroke="black" points="267.94,-57.3 277.9,-53.67 267.85,-50.3 267.94,-57.3"/>
</g>
<!-- Findings -->
<g id="node5" class="node">
<title>Findings</title>
<path fill="none" stroke="black" d="M578.26,-73C578.26,-73 521.76,-73 521.76,-73 515.76,-73 509.76,-67 509.76,-61 509.76,-61 509.76,-49 509.76,-49 509.76,-43 515.76,-37 521.76,-37 521.76,-37 578.26,-37 578.26,-37 584.26,-37 590.26,-43 590.26,-49 590.26,-49 590.26,-61 590.26,-61 590.26,-67 584.26,-73 578.26,-73"/>
<text xml:space="preserve" text-anchor="middle" x="550.01" y="-56.95" font-family="Arial" font-size="9.00">Vulns / Findings</text>
<text xml:space="preserve" text-anchor="middle" x="550.01" y="-46.45" font-family="Arial" font-size="9.00">(CWE mapped)</text>
</g>
<!-- Static&#45;&gt;Findings -->
<g id="edge4" class="edge">
<title>Static&#45;&gt;Findings</title>
<path fill="none" stroke="black" d="M387.15,-95.16C421.54,-86.63 465.3,-75.77 498.65,-67.5"/>
<polygon fill="black" stroke="black" points="499.2,-70.97 508.06,-65.16 497.51,-64.17 499.2,-70.97"/>
</g>
<!-- TestGen&#45;&gt;Findings -->
<g id="edge5" class="edge">
<title>TestGen&#45;&gt;Findings</title>
<path fill="none" stroke="black" d="M381.59,-53.46C416.55,-53.78 463.02,-54.21 498.13,-54.53"/>
<polygon fill="black" stroke="black" points="498.02,-58.03 508.05,-54.62 498.08,-51.03 498.02,-58.03"/>
</g>
<!-- Reports -->
<g id="node6" class="node">
<title>Reports</title>
<ellipse fill="none" stroke="black" cx="713.35" cy="-55" rx="86.09" ry="20.51"/>
<text xml:space="preserve" text-anchor="middle" x="713.35" y="-56.95" font-family="Arial" font-size="9.00">PWN::Reports</text>
<text xml:space="preserve" text-anchor="middle" x="713.35" y="-46.45" font-family="Arial" font-size="9.00">(generate PDF/MD/JSON)</text>
</g>
<!-- Findings&#45;&gt;Reports -->
<g id="edge6" class="edge">
<title>Findings&#45;&gt;Reports</title>
<path fill="none" stroke="black" d="M590.48,-55C598.29,-55 606.79,-55 615.57,-55"/>
<polygon fill="black" stroke="black" points="615.28,-58.5 625.28,-55 615.28,-51.5 615.28,-58.5"/>
</g>
<!-- REPL -->
<g id="node7" class="node">
<title>REPL</title>
<path fill="none" stroke="black" d="M910.19,-36C910.19,-36 848.44,-36 848.44,-36 842.44,-36 836.44,-30 836.44,-24 836.44,-24 836.44,-12 836.44,-12 836.44,-6 842.44,0 848.44,0 848.44,0 910.19,0 910.19,0 916.19,0 922.19,-6 922.19,-12 922.19,-12 922.19,-24 922.19,-24 922.19,-30 916.19,-36 910.19,-36"/>
<text xml:space="preserve" text-anchor="middle" x="879.32" y="-19.95" font-family="Arial" font-size="9.00">REPL / Agent</text>
<text xml:space="preserve" text-anchor="middle" x="879.32" y="-9.45" font-family="Arial" font-size="9.00">(inspect findings)</text>
</g>
<!-- Reports&#45;&gt;REPL -->
<g id="edge7" class="edge">
<title>Reports&#45;&gt;REPL</title>
<path fill="none" stroke="black" d="M776.81,-40.91C792.83,-37.29 809.91,-33.44 825.4,-29.94"/>
<polygon fill="black" stroke="black" points="825.89,-33.42 834.88,-27.8 824.35,-26.59 825.89,-33.42"/>
</g>
<!-- REPL&#45;&gt;Source -->
<g id="edge8" class="edge">
<title>REPL&#45;&gt;Source</title>
<path fill="none" stroke="black" d="M836.25,-13.22C803.17,-9.88 755.88,-6 714.35,-6 173.26,-6 173.26,-6 173.26,-6 144.28,-6 111.94,-8.78 86.18,-11.66"/>
<polygon fill="black" stroke="black" points="85.87,-8.17 76.35,-12.81 86.69,-15.12 85.87,-8.17"/>
<text xml:space="preserve" text-anchor="middle" x="448.26" y="-9.2" font-family="Times,serif" font-size="14.00">patch &amp; re&#45;scan</text>
</g>
</g>
</svg>
