<?xml version="1.0" encoding="UTF-8" standalone="no"?>
<!DOCTYPE svg PUBLIC "-//W3C//DTD SVG 1.1//EN"
 "http://www.w3.org/Graphics/SVG/1.1/DTD/svg11.dtd">
<!-- Generated by graphviz version 14.1.2 (0)
 -->
<!-- Title: PWN_SAST Pages: 1 -->
<svg width="818pt" height="484pt"
 viewBox="0.00 0.00 818.00 484.00" xmlns="http://www.w3.org/2000/svg" xmlns:xlink="http://www.w3.org/1999/xlink">
<g id="graph0" class="graph" transform="scale(1 1) rotate(0) translate(43.2 441.2)">
<title>PWN_SAST</title>
<polygon fill="#0f172a" stroke="none" points="-43.2,43.2 -43.2,-441.2 775.2,-441.2 775.2,43.2 -43.2,43.2"/>
<text xml:space="preserve" text-anchor="start" x="131.25" y="-376" font-family="Helvetica,sans-Serif" font-weight="bold" font-size="20.00" fill="#e2e8f0">PWN::SAST — Static Application Security Testing</text>
<text xml:space="preserve" text-anchor="start" x="229.88" y="-364.55" font-family="Helvetica,sans-Serif" font-size="11.00" fill="#94a3b8">48 rules · multi&#45;language · bin/pwn_sast · Reports::SAST</text>
<g id="clust1" class="cluster">
<title>cluster_engine</title>
<path fill="#022c22" stroke="#047857" d="M178,-138C178,-138 290.75,-138 290.75,-138 296.75,-138 302.75,-144 302.75,-150 302.75,-150 302.75,-274 302.75,-274 302.75,-280 296.75,-286 290.75,-286 290.75,-286 178,-286 178,-286 172,-286 166,-280 166,-274 166,-274 166,-150 166,-150 166,-144 172,-138 178,-138"/>
<text xml:space="preserve" text-anchor="middle" x="234.38" y="-263" font-family="Helvetica,sans-Serif" font-size="20.00" fill="#a7f3d0">SAST Engine</text>
</g>
<g id="clust2" class="cluster">
<title>cluster_rules</title>
<path fill="#422006" stroke="#a16207" d="M384.75,-8C384.75,-8 538.75,-8 538.75,-8 544.75,-8 550.75,-14 550.75,-20 550.75,-20 550.75,-339 550.75,-339 550.75,-345 544.75,-351 538.75,-351 538.75,-351 384.75,-351 384.75,-351 378.75,-351 372.75,-345 372.75,-339 372.75,-339 372.75,-20 372.75,-20 372.75,-14 378.75,-8 384.75,-8"/>
<text xml:space="preserve" text-anchor="middle" x="461.75" y="-328" font-family="Helvetica,sans-Serif" font-size="20.00" fill="#fde68a">Rule Families (48)</text>
</g>
<g id="clust3" class="cluster">
<title>cluster_out</title>
<path fill="#2e1065" stroke="#6d28d9" d="M632.75,-138C632.75,-138 712,-138 712,-138 718,-138 724,-144 724,-150 724,-150 724,-274 724,-274 724,-280 718,-286 712,-286 712,-286 632.75,-286 632.75,-286 626.75,-286 620.75,-280 620.75,-274 620.75,-274 620.75,-150 620.75,-150 620.75,-144 626.75,-138 632.75,-138"/>
<text xml:space="preserve" text-anchor="middle" x="672.38" y="-263" font-family="Helvetica,sans-Serif" font-size="20.00" fill="#ddd6fe">Output</text>
</g>
<!-- Src -->
<g id="node1" class="node">
<title>Src</title>
<path fill="#7dd3fc" stroke="#334155" stroke-width="1.3" d="M76,-214C76,-214 12,-214 12,-214 6,-214 0,-208 0,-202 0,-202 0,-190 0,-190 0,-184 6,-178 12,-178 12,-178 76,-178 76,-178 82,-178 88,-184 88,-190 88,-190 88,-202 88,-202 88,-208 82,-214 76,-214"/>
<text xml:space="preserve" text-anchor="middle" x="44" y="-198.88" font-family="Helvetica,sans-Serif" font-size="10.00" fill="#0f172a">📁 &#160;Source Tree</text>
<text xml:space="preserve" text-anchor="middle" x="44" y="-186.12" font-family="Helvetica,sans-Serif" font-size="10.00" fill="#0f172a">git clone / repo</text>
</g>
<!-- Factory -->
<g id="node2" class="node">
<title>Factory</title>
<path fill="#6ee7b7" stroke="#334155" stroke-width="1.3" d="M261.75,-182C261.75,-182 206,-182 206,-182 200,-182 194,-176 194,-170 194,-170 194,-158 194,-158 194,-152 200,-146 206,-146 206,-146 261.75,-146 261.75,-146 267.75,-146 273.75,-152 273.75,-158 273.75,-158 273.75,-170 273.75,-170 273.75,-176 267.75,-182 261.75,-182"/>
<text xml:space="preserve" text-anchor="middle" x="233.88" y="-166.5" font-family="Helvetica,sans-Serif" font-size="10.00" fill="#0f172a">SAST::Factory</text>
<text xml:space="preserve" text-anchor="middle" x="233.88" y="-154.5" font-family="Helvetica,sans-Serif" font-size="10.00" fill="#0f172a">rule loader</text>
</g>
<!-- Src&#45;&gt;Factory -->
<g id="edge1" class="edge">
<title>Src&#45;&gt;Factory</title>
<path fill="none" stroke="#38bdf8" stroke-width="1.3" d="M88.57,-188.58C117.01,-183.73 154.19,-177.4 183.69,-172.38"/>
<polygon fill="#38bdf8" stroke="#38bdf8" stroke-width="1.3" points="184.02,-175.16 191.44,-171.06 183.08,-169.64 184.02,-175.16"/>
</g>
<!-- TCE -->
<g id="node3" class="node">
<title>TCE</title>
<path fill="#6ee7b7" stroke="#334155" stroke-width="1.3" d="M265.88,-247C265.88,-247 201.88,-247 201.88,-247 195.88,-247 189.88,-241 189.88,-235 189.88,-235 189.88,-223 189.88,-223 189.88,-217 195.88,-211 201.88,-211 201.88,-211 265.88,-211 265.88,-211 271.88,-211 277.88,-217 277.88,-223 277.88,-223 277.88,-235 277.88,-235 277.88,-241 271.88,-247 265.88,-247"/>
<text xml:space="preserve" text-anchor="middle" x="233.88" y="-231.5" font-family="Helvetica,sans-Serif" font-size="10.00" fill="#0f172a">TestCaseEngine</text>
<text xml:space="preserve" text-anchor="middle" x="233.88" y="-219.5" font-family="Helvetica,sans-Serif" font-size="10.00" fill="#0f172a">generate probes</text>
</g>
<!-- Src&#45;&gt;TCE -->
<g id="edge2" class="edge">
<title>Src&#45;&gt;TCE</title>
<path fill="none" stroke="#38bdf8" stroke-width="1.3" d="M88.57,-203.65C115.84,-208.44 151.15,-214.65 180.02,-219.72"/>
<polygon fill="#38bdf8" stroke="#38bdf8" stroke-width="1.3" points="179.24,-222.42 187.6,-221.05 180.2,-216.91 179.24,-222.42"/>
</g>
<!-- Cmd -->
<g id="node4" class="node">
<title>Cmd</title>
<path fill="#fcd34d" stroke="#334155" stroke-width="1.3" d="M515.75,-52C515.75,-52 406.75,-52 406.75,-52 400.75,-52 394.75,-46 394.75,-40 394.75,-40 394.75,-28 394.75,-28 394.75,-22 400.75,-16 406.75,-16 406.75,-16 515.75,-16 515.75,-16 521.75,-16 527.75,-22 527.75,-28 527.75,-28 527.75,-40 527.75,-40 527.75,-46 521.75,-52 515.75,-52"/>
<text xml:space="preserve" text-anchor="middle" x="461.25" y="-36.5" font-family="Helvetica,sans-Serif" font-size="10.00" fill="#0f172a">cmd_execution_*</text>
<text xml:space="preserve" text-anchor="middle" x="461.25" y="-24.5" font-family="Helvetica,sans-Serif" font-size="10.00" fill="#0f172a">java · py · ruby · go · scala</text>
</g>
<!-- Factory&#45;&gt;Cmd -->
<g id="edge3" class="edge">
<title>Factory&#45;&gt;Cmd</title>
<path fill="none" stroke="#f59e0b" stroke-width="1.3" d="M257.15,-145.65C283.5,-124.59 329.29,-90 372.75,-67 379.97,-63.18 387.73,-59.58 395.54,-56.28"/>
<polygon fill="#f59e0b" stroke="#f59e0b" stroke-width="1.3" points="396.54,-58.89 402.88,-53.27 394.42,-53.71 396.54,-58.89"/>
</g>
<!-- Web -->
<g id="node5" class="node">
<title>Web</title>
<path fill="#fcd34d" stroke="#334155" stroke-width="1.3" d="M526.62,-117C526.62,-117 395.88,-117 395.88,-117 389.88,-117 383.88,-111 383.88,-105 383.88,-105 383.88,-93 383.88,-93 383.88,-87 389.88,-81 395.88,-81 395.88,-81 526.62,-81 526.62,-81 532.62,-81 538.62,-87 538.62,-93 538.62,-93 538.62,-105 538.62,-105 538.62,-111 532.62,-117 526.62,-117"/>
<text xml:space="preserve" text-anchor="middle" x="461.25" y="-101.5" font-family="Helvetica,sans-Serif" font-size="10.00" fill="#0f172a">csrf · redirect · redos</text>
<text xml:space="preserve" text-anchor="middle" x="461.25" y="-89.5" font-family="Helvetica,sans-Serif" font-size="10.00" fill="#0f172a">inner/outer_html · location_hash</text>
</g>
<!-- Factory&#45;&gt;Web -->
<g id="edge4" class="edge">
<title>Factory&#45;&gt;Web</title>
<path fill="none" stroke="#f59e0b" stroke-width="1.3" d="M274.39,-152.6C305.35,-143.68 349.28,-131 386.67,-120.22"/>
<polygon fill="#f59e0b" stroke="#f59e0b" stroke-width="1.3" points="387.22,-122.98 394.13,-118.07 385.67,-117.6 387.22,-122.98"/>
</g>
<!-- Cryp -->
<g id="node6" class="node">
<title>Cryp</title>
<path fill="#fcd34d" stroke="#334155" stroke-width="1.3" d="M519.5,-182C519.5,-182 403,-182 403,-182 397,-182 391,-176 391,-170 391,-170 391,-158 391,-158 391,-152 397,-146 403,-146 403,-146 519.5,-146 519.5,-146 525.5,-146 531.5,-152 531.5,-158 531.5,-158 531.5,-170 531.5,-170 531.5,-176 525.5,-182 519.5,-182"/>
<text xml:space="preserve" text-anchor="middle" x="461.25" y="-166.5" font-family="Helvetica,sans-Serif" font-size="10.00" fill="#0f172a">md5 · ssl · keystore</text>
<text xml:space="preserve" text-anchor="middle" x="461.25" y="-154.5" font-family="Helvetica,sans-Serif" font-size="10.00" fill="#0f172a">padding_oracle · private_key</text>
</g>
<!-- Factory&#45;&gt;Cryp -->
<g id="edge5" class="edge">
<title>Factory&#45;&gt;Cryp</title>
<path fill="none" stroke="#f59e0b" stroke-width="1.3" d="M274.39,-164C303.83,-164 345,-164 381.11,-164"/>
<polygon fill="#f59e0b" stroke="#f59e0b" stroke-width="1.3" points="380.69,-166.8 388.69,-164 380.69,-161.2 380.69,-166.8"/>
</g>
<!-- Data -->
<g id="node7" class="node">
<title>Data</title>
<path fill="#fcd34d" stroke="#334155" stroke-width="1.3" d="M510.88,-247C510.88,-247 411.62,-247 411.62,-247 405.62,-247 399.62,-241 399.62,-235 399.62,-235 399.62,-223 399.62,-223 399.62,-217 405.62,-211 411.62,-211 411.62,-211 510.88,-211 510.88,-211 516.88,-211 522.88,-217 522.88,-223 522.88,-223 522.88,-235 522.88,-235 522.88,-241 516.88,-247 510.88,-247"/>
<text xml:space="preserve" text-anchor="middle" x="461.25" y="-231.5" font-family="Helvetica,sans-Serif" font-size="10.00" fill="#0f172a">sql · eval · deserial_java</text>
<text xml:space="preserve" text-anchor="middle" x="461.25" y="-219.5" font-family="Helvetica,sans-Serif" font-size="10.00" fill="#0f172a">log4j · php_type_juggling</text>
</g>
<!-- TCE&#45;&gt;Data -->
<g id="edge6" class="edge">
<title>TCE&#45;&gt;Data</title>
<path fill="none" stroke="#f59e0b" stroke-width="1.3" d="M278.33,-229C309.8,-229 353.03,-229 389.45,-229"/>
<polygon fill="#f59e0b" stroke="#f59e0b" stroke-width="1.3" points="389.07,-231.8 397.07,-229 389.07,-226.2 389.07,-231.8"/>
</g>
<!-- Mem -->
<g id="node8" class="node">
<title>Mem</title>
<path fill="#fcd34d" stroke="#334155" stroke-width="1.3" d="M491,-312C491,-312 431.5,-312 431.5,-312 425.5,-312 419.5,-306 419.5,-300 419.5,-300 419.5,-288 419.5,-288 419.5,-282 425.5,-276 431.5,-276 431.5,-276 491,-276 491,-276 497,-276 503,-282 503,-288 503,-288 503,-300 503,-300 503,-306 497,-312 491,-312"/>
<text xml:space="preserve" text-anchor="middle" x="461.25" y="-296.5" font-family="Helvetica,sans-Serif" font-size="10.00" fill="#0f172a">banned_c_calls</text>
<text xml:space="preserve" text-anchor="middle" x="461.25" y="-284.5" font-family="Helvetica,sans-Serif" font-size="10.00" fill="#0f172a">use_after_free</text>
</g>
<!-- TCE&#45;&gt;Mem -->
<g id="edge7" class="edge">
<title>TCE&#45;&gt;Mem</title>
<path fill="none" stroke="#f59e0b" stroke-width="1.3" d="M278.33,-241.53C315.99,-252.39 370.49,-268.11 410.01,-279.51"/>
<polygon fill="#f59e0b" stroke="#f59e0b" stroke-width="1.3" points="408.85,-282.09 417.32,-281.62 410.41,-276.71 408.85,-282.09"/>
</g>
<!-- Report -->
<g id="node9" class="node">
<title>Report</title>
<path fill="#c4b5fd" stroke="#334155" stroke-width="1.3" d="M701.75,-182C701.75,-182 643,-182 643,-182 637,-182 631,-176 631,-170 631,-170 631,-158 631,-158 631,-152 637,-146 643,-146 643,-146 701.75,-146 701.75,-146 707.75,-146 713.75,-152 713.75,-158 713.75,-158 713.75,-170 713.75,-170 713.75,-176 707.75,-182 701.75,-182"/>
<text xml:space="preserve" text-anchor="middle" x="672.38" y="-166.5" font-family="Helvetica,sans-Serif" font-size="10.00" fill="#0f172a">Reports::SAST</text>
<text xml:space="preserve" text-anchor="middle" x="672.38" y="-154.5" font-family="Helvetica,sans-Serif" font-size="10.00" fill="#0f172a">HTML + JSON</text>
</g>
<!-- Cmd&#45;&gt;Report -->
<g id="edge8" class="edge">
<title>Cmd&#45;&gt;Report</title>
<path fill="none" stroke="#a78bfa" stroke-width="1.3" d="M520.12,-52.52C530.59,-56.72 541.2,-61.57 550.75,-67 586.16,-87.14 621.93,-117.44 645.22,-138.81"/>
<polygon fill="#a78bfa" stroke="#a78bfa" stroke-width="1.3" points="643.12,-140.67 650.88,-144.07 646.93,-136.57 643.12,-140.67"/>
</g>
<!-- Web&#45;&gt;Report -->
<g id="edge9" class="edge">
<title>Web&#45;&gt;Report</title>
<path fill="none" stroke="#a78bfa" stroke-width="1.3" d="M522.18,-117.63C553.54,-127.38 591.51,-139.17 621.29,-148.43"/>
<polygon fill="#a78bfa" stroke="#a78bfa" stroke-width="1.3" points="620.3,-151.06 628.77,-150.76 621.96,-145.71 620.3,-151.06"/>
</g>
<!-- Cryp&#45;&gt;Report -->
<g id="edge10" class="edge">
<title>Cryp&#45;&gt;Report</title>
<path fill="none" stroke="#a78bfa" stroke-width="1.3" d="M531.89,-164C560.86,-164 593.87,-164 620.51,-164"/>
<polygon fill="#a78bfa" stroke="#a78bfa" stroke-width="1.3" points="620.42,-166.8 628.42,-164 620.42,-161.2 620.42,-166.8"/>
</g>
<!-- DD -->
<g id="node10" class="node">
<title>DD</title>
<path fill="#c4b5fd" stroke="#334155" stroke-width="1.3" d="M704,-247C704,-247 640.75,-247 640.75,-247 634.75,-247 628.75,-241 628.75,-235 628.75,-235 628.75,-223 628.75,-223 628.75,-217 634.75,-211 640.75,-211 640.75,-211 704,-211 704,-211 710,-211 716,-217 716,-223 716,-223 716,-235 716,-235 716,-241 710,-247 704,-247"/>
<text xml:space="preserve" text-anchor="middle" x="672.38" y="-231.5" font-family="Helvetica,sans-Serif" font-size="10.00" fill="#0f172a">DefectDojo</text>
<text xml:space="preserve" text-anchor="middle" x="672.38" y="-219.5" font-family="Helvetica,sans-Serif" font-size="10.00" fill="#0f172a">import / reimport</text>
</g>
<!-- Data&#45;&gt;DD -->
<g id="edge11" class="edge">
<title>Data&#45;&gt;DD</title>
<path fill="none" stroke="#a78bfa" stroke-width="1.3" d="M523.3,-229C553.39,-229 589.33,-229 618.26,-229"/>
<polygon fill="#a78bfa" stroke="#a78bfa" stroke-width="1.3" points="618.22,-231.8 626.22,-229 618.22,-226.2 618.22,-231.8"/>
</g>
<!-- Mem&#45;&gt;DD -->
<g id="edge12" class="edge">
<title>Mem&#45;&gt;DD</title>
<path fill="none" stroke="#a78bfa" stroke-width="1.3" d="M503.57,-281.16C536.68,-270.87 583.34,-256.36 619.05,-245.26"/>
<polygon fill="#a78bfa" stroke="#a78bfa" stroke-width="1.3" points="619.66,-248.01 626.47,-242.96 618,-242.66 619.66,-248.01"/>
</g>
</g>
</svg>
