<?xml version="1.0" encoding="UTF-8" standalone="no"?>
<!DOCTYPE svg PUBLIC "-//W3C//DTD SVG 1.1//EN"
 "http://www.w3.org/Graphics/SVG/1.1/DTD/svg11.dtd">
<!-- Generated by graphviz version 14.1.2 (0)
 -->
<!-- Title: PWN_Cron Pages: 1 -->
<svg width="1248pt" height="391pt"
 viewBox="0.00 0.00 1248.00 391.00" xmlns="http://www.w3.org/2000/svg" xmlns:xlink="http://www.w3.org/1999/xlink">
<g id="graph0" class="graph" transform="scale(1 1) rotate(0) translate(43.2 348.08)">
<title>PWN_Cron</title>
<polygon fill="#0f172a" stroke="none" points="-43.2,43.2 -43.2,-348.08 1204.45,-348.08 1204.45,43.2 -43.2,43.2"/>
<text xml:space="preserve" text-anchor="start" x="372.5" y="-282.88" font-family="sans-Serif" font-weight="bold" font-size="20.00" fill="#e2e8f0">PWN::Cron — Scheduled Autonomous Jobs</text>
<text xml:space="preserve" text-anchor="start" x="452" y="-271.43" font-family="sans-Serif" font-size="11.00" fill="#94a3b8">prompt · ruby · script → jobs.yml → crontab → pwn&#45;ai</text>
<g id="clust1" class="cluster">
<title>cluster_kinds</title>
<path fill="#022c22" stroke="#047857" stroke-width="2" d="M775.75,-30.88C775.75,-30.88 930,-30.88 930,-30.88 936,-30.88 942,-36.88 942,-42.88 942,-42.88 942,-245.88 942,-245.88 942,-251.88 936,-257.88 930,-257.88 930,-257.88 775.75,-257.88 775.75,-257.88 769.75,-257.88 763.75,-251.88 763.75,-245.88 763.75,-245.88 763.75,-42.88 763.75,-42.88 763.75,-36.88 769.75,-30.88 775.75,-30.88"/>
<text xml:space="preserve" text-anchor="middle" x="852.88" y="-234.88" font-family="sans-Serif" font-size="20.00" fill="#a7f3d0">Job Kinds</text>
</g>
<!-- Create -->
<g id="node1" class="node">
<title>Create</title>
<path fill="#7dd3fc" stroke="#334155" stroke-width="1.4" d="M102.25,-152.13C102.25,-152.13 12,-152.13 12,-152.13 6,-152.13 0,-146.13 0,-140.13 0,-140.13 0,-115.63 0,-115.63 0,-109.63 6,-103.63 12,-103.63 12,-103.63 102.25,-103.63 102.25,-103.63 108.25,-103.63 114.25,-109.63 114.25,-115.63 114.25,-115.63 114.25,-140.13 114.25,-140.13 114.25,-146.13 108.25,-152.13 102.25,-152.13"/>
<text xml:space="preserve" text-anchor="middle" x="57.12" y="-137.68" font-family="sans-Serif" font-size="11.00" fill="#0f172a">cron_create</text>
<text xml:space="preserve" text-anchor="middle" x="57.12" y="-124.18" font-family="sans-Serif" font-size="11.00" fill="#0f172a">name · schedule</text>
<text xml:space="preserve" text-anchor="middle" x="57.12" y="-110.68" font-family="sans-Serif" font-size="11.00" fill="#0f172a">prompt | ruby | script</text>
</g>
<!-- Jobs -->
<g id="node2" class="node">
<title>Jobs</title>
<path fill="#fcd34d" stroke="#334155" stroke-width="1.4" d="M355.88,-184.6C355.88,-186.41 330.1,-187.88 298.38,-187.88 266.65,-187.88 240.88,-186.41 240.88,-184.6 240.88,-184.6 240.88,-155.15 240.88,-155.15 240.88,-153.34 266.65,-151.88 298.38,-151.88 330.1,-151.88 355.88,-153.34 355.88,-155.15 355.88,-155.15 355.88,-184.6 355.88,-184.6"/>
<path fill="none" stroke="#334155" stroke-width="1.4" d="M355.88,-184.6C355.88,-182.8 330.1,-181.33 298.38,-181.33 266.65,-181.33 240.88,-182.8 240.88,-184.6"/>
<text xml:space="preserve" text-anchor="middle" x="298.38" y="-166.18" font-family="sans-Serif" font-size="11.00" fill="#0f172a">~/.pwn/cron/jobs.yml</text>
</g>
<!-- Create&#45;&gt;Jobs -->
<g id="edge1" class="edge">
<title>Create&#45;&gt;Jobs</title>
<path fill="none" stroke="#38bdf8" stroke-width="1.3" d="M114.82,-137.83C149.58,-143.93 194.24,-151.77 230.69,-158.17"/>
<polygon fill="#38bdf8" stroke="#38bdf8" stroke-width="1.3" points="229.95,-160.88 238.32,-159.51 230.92,-155.37 229.95,-160.88"/>
<text xml:space="preserve" text-anchor="middle" x="177" y="-153.34" font-family="sans-Serif" font-size="9.00" fill="#cbd5e1">write</text>
</g>
<!-- Crontab -->
<g id="node3" class="node">
<title>Crontab</title>
<path fill="#fda4af" stroke="#334155" stroke-width="1.4" d="M345,-109.88C345,-109.88 251.75,-109.88 251.75,-109.88 245.75,-109.88 239.75,-103.88 239.75,-97.88 239.75,-97.88 239.75,-85.88 239.75,-85.88 239.75,-79.88 245.75,-73.88 251.75,-73.88 251.75,-73.88 345,-73.88 345,-73.88 351,-73.88 357,-79.88 357,-85.88 357,-85.88 357,-97.88 357,-97.88 357,-103.88 351,-109.88 345,-109.88"/>
<text xml:space="preserve" text-anchor="middle" x="298.38" y="-94.93" font-family="sans-Serif" font-size="11.00" fill="#0f172a">system crontab</text>
<text xml:space="preserve" text-anchor="middle" x="298.38" y="-81.43" font-family="sans-Serif" font-size="11.00" fill="#0f172a">(install_crontab: true)</text>
</g>
<!-- Create&#45;&gt;Crontab -->
<g id="edge2" class="edge">
<title>Create&#45;&gt;Crontab</title>
<path fill="none" stroke="#fb7185" stroke-width="1.3" d="M114.83,-112.81C129.83,-109.26 146.08,-105.81 161.25,-103.38 183.28,-99.85 207.51,-97.36 229.34,-95.62"/>
<polygon fill="#fb7185" stroke="#fb7185" stroke-width="1.3" points="229.46,-98.42 237.22,-95.03 229.03,-92.84 229.46,-98.42"/>
<text xml:space="preserve" text-anchor="middle" x="177" y="-105.33" font-family="sans-Serif" font-size="9.00" fill="#cbd5e1">append</text>
</g>
<!-- Runner -->
<g id="node4" class="node">
<title>Runner</title>
<path fill="#c4b5fd" stroke="#334155" stroke-width="1.4" d="M611,-146.88C611,-146.88 528.25,-146.88 528.25,-146.88 522.25,-146.88 516.25,-140.88 516.25,-134.88 516.25,-134.88 516.25,-122.88 516.25,-122.88 516.25,-116.88 522.25,-110.88 528.25,-110.88 528.25,-110.88 611,-110.88 611,-110.88 617,-110.88 623,-116.88 623,-122.88 623,-122.88 623,-134.88 623,-134.88 623,-140.88 617,-146.88 611,-146.88"/>
<text xml:space="preserve" text-anchor="middle" x="569.62" y="-125.18" font-family="sans-Serif" font-size="11.00" fill="#0f172a">PWN::Cron.run(id)</text>
</g>
<!-- Jobs&#45;&gt;Runner -->
<g id="edge4" class="edge">
<title>Jobs&#45;&gt;Runner</title>
<path fill="none" stroke="#f59e0b" stroke-width="1.3" d="M356.48,-161.18C400.34,-154.5 460.86,-145.29 506.04,-138.41"/>
<polygon fill="#f59e0b" stroke="#f59e0b" stroke-width="1.3" points="506.29,-141.2 513.78,-137.23 505.45,-135.67 506.29,-141.2"/>
<text xml:space="preserve" text-anchor="middle" x="436.62" y="-155" font-family="sans-Serif" font-size="9.00" fill="#cbd5e1">load job</text>
</g>
<!-- Crontab&#45;&gt;Runner -->
<g id="edge3" class="edge">
<title>Crontab&#45;&gt;Runner</title>
<path fill="none" stroke="#fb7185" stroke-width="2" d="M357.47,-99.86C400.88,-105.83 460.2,-113.98 504.92,-120.12"/>
<polygon fill="#fb7185" stroke="#fb7185" stroke-width="2" points="504.36,-122.87 512.66,-121.19 505.12,-117.32 504.36,-122.87"/>
<text xml:space="preserve" text-anchor="middle" x="436.62" y="-116.73" font-family="sans-Serif" font-size="9.00" fill="#cbd5e1">fire on schedule</text>
</g>
<!-- Prompt -->
<g id="node5" class="node">
<title>Prompt</title>
<path fill="#6ee7b7" stroke="#334155" stroke-width="1.4" d="M894.62,-218.88C894.62,-218.88 811.12,-218.88 811.12,-218.88 805.12,-218.88 799.12,-212.88 799.12,-206.88 799.12,-206.88 799.12,-194.88 799.12,-194.88 799.12,-188.88 805.12,-182.88 811.12,-182.88 811.12,-182.88 894.62,-182.88 894.62,-182.88 900.62,-182.88 906.62,-188.88 906.62,-194.88 906.62,-194.88 906.62,-206.88 906.62,-206.88 906.62,-212.88 900.62,-218.88 894.62,-218.88"/>
<text xml:space="preserve" text-anchor="middle" x="852.88" y="-203.93" font-family="sans-Serif" font-size="11.00" fill="#0f172a">:prompt</text>
<text xml:space="preserve" text-anchor="middle" x="852.88" y="-190.43" font-family="sans-Serif" font-size="11.00" fill="#0f172a">→ pwn&#45;ai one&#45;shot</text>
</g>
<!-- Runner&#45;&gt;Prompt -->
<g id="edge5" class="edge">
<title>Runner&#45;&gt;Prompt</title>
<path fill="none" stroke="#34d399" stroke-width="1.3" d="M623.65,-144.21C638.6,-148.43 654.91,-152.93 670,-156.88 709.5,-167.22 754.05,-178.01 789.18,-186.32"/>
<polygon fill="#34d399" stroke="#34d399" stroke-width="1.3" points="788.48,-189.03 796.91,-188.14 789.76,-183.58 788.48,-189.03"/>
</g>
<!-- Ruby -->
<g id="node6" class="node">
<title>Ruby</title>
<path fill="#6ee7b7" stroke="#334155" stroke-width="1.4" d="M922,-146.88C922,-146.88 783.75,-146.88 783.75,-146.88 777.75,-146.88 771.75,-140.88 771.75,-134.88 771.75,-134.88 771.75,-122.88 771.75,-122.88 771.75,-116.88 777.75,-110.88 783.75,-110.88 783.75,-110.88 922,-110.88 922,-110.88 928,-110.88 934,-116.88 934,-122.88 934,-122.88 934,-134.88 934,-134.88 934,-140.88 928,-146.88 922,-146.88"/>
<text xml:space="preserve" text-anchor="middle" x="852.88" y="-131.93" font-family="sans-Serif" font-size="11.00" fill="#0f172a">:ruby</text>
<text xml:space="preserve" text-anchor="middle" x="852.88" y="-118.43" font-family="sans-Serif" font-size="11.00" fill="#0f172a">→ TOPLEVEL_BINDING.eval</text>
</g>
<!-- Runner&#45;&gt;Ruby -->
<g id="edge6" class="edge">
<title>Runner&#45;&gt;Ruby</title>
<path fill="none" stroke="#34d399" stroke-width="1.3" d="M623.53,-128.88C662.29,-128.88 715.87,-128.88 761.38,-128.88"/>
<polygon fill="#34d399" stroke="#34d399" stroke-width="1.3" points="761.29,-131.68 769.29,-128.88 761.29,-126.08 761.29,-131.68"/>
</g>
<!-- Script -->
<g id="node7" class="node">
<title>Script</title>
<path fill="#6ee7b7" stroke="#334155" stroke-width="1.4" d="M896.12,-74.88C896.12,-74.88 809.62,-74.88 809.62,-74.88 803.62,-74.88 797.62,-68.88 797.62,-62.88 797.62,-62.88 797.62,-50.88 797.62,-50.88 797.62,-44.88 803.62,-38.88 809.62,-38.88 809.62,-38.88 896.12,-38.88 896.12,-38.88 902.12,-38.88 908.12,-44.88 908.12,-50.88 908.12,-50.88 908.12,-62.88 908.12,-62.88 908.12,-68.88 902.12,-74.88 896.12,-74.88"/>
<text xml:space="preserve" text-anchor="middle" x="852.88" y="-59.93" font-family="sans-Serif" font-size="11.00" fill="#0f172a">:script</text>
<text xml:space="preserve" text-anchor="middle" x="852.88" y="-46.43" font-family="sans-Serif" font-size="11.00" fill="#0f172a">→ exec external file</text>
</g>
<!-- Runner&#45;&gt;Script -->
<g id="edge7" class="edge">
<title>Runner&#45;&gt;Script</title>
<path fill="none" stroke="#34d399" stroke-width="1.3" d="M623.53,-115.33C670.17,-103.39 738.24,-85.97 787.93,-73.25"/>
<polygon fill="#34d399" stroke="#34d399" stroke-width="1.3" points="788.33,-76.03 795.39,-71.34 786.94,-70.61 788.33,-76.03"/>
</g>
<!-- Log -->
<g id="node8" class="node">
<title>Log</title>
<path fill="#fcd34d" stroke="#334155" stroke-width="1.4" d="M1161.25,-148.56C1161.25,-150.98 1131.61,-152.94 1095.12,-152.94 1058.64,-152.94 1029,-150.98 1029,-148.56 1029,-148.56 1029,-109.19 1029,-109.19 1029,-106.78 1058.64,-104.81 1095.12,-104.81 1131.61,-104.81 1161.25,-106.78 1161.25,-109.19 1161.25,-109.19 1161.25,-148.56 1161.25,-148.56"/>
<path fill="none" stroke="#334155" stroke-width="1.4" d="M1161.25,-148.56C1161.25,-146.15 1131.61,-144.19 1095.12,-144.19 1058.64,-144.19 1029,-146.15 1029,-148.56"/>
<text xml:space="preserve" text-anchor="middle" x="1095.12" y="-131.93" font-family="sans-Serif" font-size="11.00" fill="#0f172a">~/.pwn/cron/log/&lt;id&gt;.log</text>
<text xml:space="preserve" text-anchor="middle" x="1095.12" y="-118.43" font-family="sans-Serif" font-size="11.00" fill="#0f172a">last_run · last_status</text>
</g>
<!-- Prompt&#45;&gt;Log -->
<g id="edge8" class="edge">
<title>Prompt&#45;&gt;Log</title>
<path fill="none" stroke="#f59e0b" stroke-width="1.3" d="M907.19,-184.9C940.2,-175.01 983.08,-162.16 1019.44,-151.26"/>
<polygon fill="#f59e0b" stroke="#f59e0b" stroke-width="1.3" points="1019.79,-154.08 1026.65,-149.1 1018.18,-148.71 1019.79,-154.08"/>
</g>
<!-- Ruby&#45;&gt;Log -->
<g id="edge9" class="edge">
<title>Ruby&#45;&gt;Log</title>
<path fill="none" stroke="#f59e0b" stroke-width="1.3" d="M934.54,-128.88C961.74,-128.88 991.97,-128.88 1018.74,-128.88"/>
<polygon fill="#f59e0b" stroke="#f59e0b" stroke-width="1.3" points="1018.47,-131.68 1026.47,-128.88 1018.47,-126.08 1018.47,-131.68"/>
</g>
<!-- Script&#45;&gt;Log -->
<g id="edge10" class="edge">
<title>Script&#45;&gt;Log</title>
<path fill="none" stroke="#f59e0b" stroke-width="1.3" d="M908.69,-73.3C941.36,-83.1 983.3,-95.66 1019.02,-106.37"/>
<polygon fill="#f59e0b" stroke="#f59e0b" stroke-width="1.3" points="1018.09,-109.01 1026.55,-108.63 1019.69,-103.65 1018.09,-109.01"/>
</g>
<!-- Log&#45;&gt;Jobs -->
<g id="edge11" class="edge">
<title>Log&#45;&gt;Jobs</title>
<path fill="none" stroke="#fbbf24" stroke-width="1.3" stroke-dasharray="5,2" d="M1069.63,-104.26C1041.6,-78 992.95,-38 942,-21.88 759.1,36 698.93,-34.31 516.25,-92.88 461.31,-110.49 399.34,-132.73 355.76,-148.78"/>
<polygon fill="#fbbf24" stroke="#fbbf24" stroke-width="1.3" points="354.85,-146.13 348.32,-151.53 356.79,-151.38 354.85,-146.13"/>
<text xml:space="preserve" text-anchor="middle" x="697.38" y="-35.59" font-family="sans-Serif" font-size="9.00" fill="#cbd5e1">update status</text>
</g>
</g>
</svg>
