<?xml version="1.0" encoding="UTF-8" standalone="no"?>
<!DOCTYPE svg PUBLIC "-//W3C//DTD SVG 1.1//EN"
 "http://www.w3.org/Graphics/SVG/1.1/DTD/svg11.dtd">
<!-- Generated by graphviz version 14.1.2 (0)
 -->
<!-- Title: PWN_Cron Pages: 1 -->
<svg width="1575pt" height="617pt"
 viewBox="0.00 0.00 1575.00 617.00" xmlns="http://www.w3.org/2000/svg" xmlns:xlink="http://www.w3.org/1999/xlink">
<g id="graph0" class="graph" transform="scale(1 1) rotate(0) translate(43.2 574.2)">
<title>PWN_Cron</title>
<polygon fill="#0f172a" stroke="none" points="-43.2,43.2 -43.2,-574.2 1531.7,-574.2 1531.7,43.2 -43.2,43.2"/>
<text xml:space="preserve" text-anchor="start" x="542.88" y="-509" font-family="sans-Serif" font-weight="bold" font-size="20.00" fill="#e2e8f0">PWN::Cron &#45; Scheduled Autonomous Jobs</text>
<text xml:space="preserve" text-anchor="start" x="516.25" y="-497.55" font-family="sans-Serif" font-size="11.00" fill="#94a3b8">prompt · ruby · script → jobs.yml → crontab → pwn&#45;ai &#160;· &#160;seeded self&#45;improvement (Curriculum)</text>
<g id="clust2" class="cluster">
<title>cluster_kinds</title>
<path fill="#022c22" stroke="#047857" stroke-width="2" d="M844,-257C844,-257 998.25,-257 998.25,-257 1004.25,-257 1010.25,-263 1010.25,-269 1010.25,-269 1010.25,-472 1010.25,-472 1010.25,-478 1004.25,-484 998.25,-484 998.25,-484 844,-484 844,-484 838,-484 832,-478 832,-472 832,-472 832,-269 832,-269 832,-263 838,-257 844,-257"/>
<text xml:space="preserve" text-anchor="middle" x="921.12" y="-461" font-family="sans-Serif" font-size="20.00" fill="#a7f3d0">Job Kinds</text>
</g>
<g id="clust4" class="cluster">
<title>cluster_seed</title>
<path fill="#2e1065" stroke="#6d28d9" stroke-width="2" d="M1101.25,-8C1101.25,-8 1476.5,-8 1476.5,-8 1482.5,-8 1488.5,-14 1488.5,-20 1488.5,-20 1488.5,-359 1488.5,-359 1488.5,-365 1482.5,-371 1476.5,-371 1476.5,-371 1101.25,-371 1101.25,-371 1095.25,-371 1089.25,-365 1089.25,-359 1089.25,-359 1089.25,-20 1089.25,-20 1089.25,-14 1095.25,-8 1101.25,-8"/>
<text xml:space="preserve" text-anchor="middle" x="1288.88" y="-348" font-family="sans-Serif" font-size="20.00" fill="#ddd6fe">Seeded Self&#45;Improvement (install_defaults)</text>
</g>
<!-- Create -->
<g id="node1" class="node">
<title>Create</title>
<path fill="#7dd3fc" stroke="#334155" stroke-width="1.4" d="M118,-413.25C118,-413.25 27.75,-413.25 27.75,-413.25 21.75,-413.25 15.75,-407.25 15.75,-401.25 15.75,-401.25 15.75,-376.75 15.75,-376.75 15.75,-370.75 21.75,-364.75 27.75,-364.75 27.75,-364.75 118,-364.75 118,-364.75 124,-364.75 130,-370.75 130,-376.75 130,-376.75 130,-401.25 130,-401.25 130,-407.25 124,-413.25 118,-413.25"/>
<text xml:space="preserve" text-anchor="middle" x="72.88" y="-398.8" font-family="sans-Serif" font-size="11.00" fill="#0f172a">cron_create</text>
<text xml:space="preserve" text-anchor="middle" x="72.88" y="-385.3" font-family="sans-Serif" font-size="11.00" fill="#0f172a">name · schedule</text>
<text xml:space="preserve" text-anchor="middle" x="72.88" y="-371.8" font-family="sans-Serif" font-size="11.00" fill="#0f172a">prompt | ruby | script</text>
</g>
<!-- Jobs -->
<g id="node3" class="node">
<title>Jobs</title>
<path fill="#fcd34d" stroke="#334155" stroke-width="1.4" d="M424.12,-321.73C424.12,-323.53 398.35,-325 366.62,-325 334.9,-325 309.12,-323.53 309.12,-321.73 309.12,-321.73 309.12,-292.27 309.12,-292.27 309.12,-290.47 334.9,-289 366.62,-289 398.35,-289 424.12,-290.47 424.12,-292.27 424.12,-292.27 424.12,-321.73 424.12,-321.73"/>
<path fill="none" stroke="#334155" stroke-width="1.4" d="M424.12,-321.73C424.12,-319.92 398.35,-318.45 366.62,-318.45 334.9,-318.45 309.12,-319.92 309.12,-321.73"/>
<text xml:space="preserve" text-anchor="middle" x="366.62" y="-303.3" font-family="sans-Serif" font-size="11.00" fill="#0f172a">~/.pwn/cron/jobs.yml</text>
</g>
<!-- Create&#45;&gt;Jobs -->
<g id="edge1" class="edge">
<title>Create&#45;&gt;Jobs</title>
<path fill="none" stroke="#38bdf8" stroke-width="1.3" d="M130.47,-373.09C178.83,-359.5 248.46,-339.93 299.4,-325.61"/>
<polygon fill="#38bdf8" stroke="#38bdf8" stroke-width="1.3" points="299.85,-328.4 306.79,-323.54 298.33,-323 299.85,-328.4"/>
<text xml:space="preserve" text-anchor="middle" x="226.88" y="-357.29" font-family="sans-Serif" font-size="9.00" fill="#cbd5e1">write</text>
</g>
<!-- Crontab -->
<g id="node4" class="node">
<title>Crontab</title>
<path fill="#fda4af" stroke="#334155" stroke-width="1.4" d="M413.25,-420C413.25,-420 320,-420 320,-420 314,-420 308,-414 308,-408 308,-408 308,-396 308,-396 308,-390 314,-384 320,-384 320,-384 413.25,-384 413.25,-384 419.25,-384 425.25,-390 425.25,-396 425.25,-396 425.25,-408 425.25,-408 425.25,-414 419.25,-420 413.25,-420"/>
<text xml:space="preserve" text-anchor="middle" x="366.62" y="-405.05" font-family="sans-Serif" font-size="11.00" fill="#0f172a">system crontab</text>
<text xml:space="preserve" text-anchor="middle" x="366.62" y="-391.55" font-family="sans-Serif" font-size="11.00" fill="#0f172a">(install_crontab: true)</text>
</g>
<!-- Create&#45;&gt;Crontab -->
<g id="edge3" class="edge">
<title>Create&#45;&gt;Crontab</title>
<path fill="none" stroke="#fb7185" stroke-width="1.3" d="M130.47,-391.52C178.24,-393.65 246.77,-396.7 297.53,-398.97"/>
<polygon fill="#fb7185" stroke="#fb7185" stroke-width="1.3" points="297.35,-401.76 305.47,-399.32 297.6,-396.17 297.35,-401.76"/>
<text xml:space="preserve" text-anchor="middle" x="226.88" y="-399" font-family="sans-Serif" font-size="9.00" fill="#cbd5e1">append</text>
</g>
<!-- Seed -->
<g id="node2" class="node">
<title>Seed</title>
<path fill="#7dd3fc" stroke="#334155" stroke-width="1.4" d="M133.75,-316C133.75,-316 12,-316 12,-316 6,-316 0,-310 0,-304 0,-304 0,-292 0,-292 0,-286 6,-280 12,-280 12,-280 133.75,-280 133.75,-280 139.75,-280 145.75,-286 145.75,-292 145.75,-292 145.75,-304 145.75,-304 145.75,-310 139.75,-316 133.75,-316"/>
<text xml:space="preserve" text-anchor="middle" x="72.88" y="-301.05" font-family="sans-Serif" font-size="11.00" fill="#0f172a">PWN::Cron.install_defaults</text>
<text xml:space="preserve" text-anchor="middle" x="72.88" y="-287.55" font-family="sans-Serif" font-size="11.00" fill="#0f172a">(pwn setup &#45;&#45;migrate)</text>
</g>
<!-- Seed&#45;&gt;Jobs -->
<g id="edge2" class="edge">
<title>Seed&#45;&gt;Jobs</title>
<path fill="none" stroke="#38bdf8" stroke-width="1.3" d="M146.33,-296.19C181.04,-295.74 223.19,-295.79 261,-297.5 273.22,-298.05 286.22,-298.97 298.75,-300.02"/>
<polygon fill="#38bdf8" stroke="#38bdf8" stroke-width="1.3" points="298.5,-302.81 306.71,-300.71 298.99,-297.23 298.5,-302.81"/>
<text xml:space="preserve" text-anchor="middle" x="226.88" y="-299.45" font-family="sans-Serif" font-size="9.00" fill="#cbd5e1">idempotent seed</text>
</g>
<!-- Runner -->
<g id="node5" class="node">
<title>Runner</title>
<path fill="#c4b5fd" stroke="#334155" stroke-width="1.4" d="M679.25,-373C679.25,-373 596.5,-373 596.5,-373 590.5,-373 584.5,-367 584.5,-361 584.5,-361 584.5,-349 584.5,-349 584.5,-343 590.5,-337 596.5,-337 596.5,-337 679.25,-337 679.25,-337 685.25,-337 691.25,-343 691.25,-349 691.25,-349 691.25,-361 691.25,-361 691.25,-367 685.25,-373 679.25,-373"/>
<text xml:space="preserve" text-anchor="middle" x="637.88" y="-351.3" font-family="sans-Serif" font-size="11.00" fill="#0f172a">PWN::Cron.run(id)</text>
</g>
<!-- Jobs&#45;&gt;Runner -->
<g id="edge5" class="edge">
<title>Jobs&#45;&gt;Runner</title>
<path fill="none" stroke="#f59e0b" stroke-width="1.3" d="M424.73,-317.18C468.59,-325 529.11,-335.79 574.29,-343.84"/>
<polygon fill="#f59e0b" stroke="#f59e0b" stroke-width="1.3" points="573.67,-346.58 582.03,-345.22 574.65,-341.06 573.67,-346.58"/>
<text xml:space="preserve" text-anchor="middle" x="504.88" y="-338.66" font-family="sans-Serif" font-size="9.00" fill="#cbd5e1">load job</text>
</g>
<!-- Crontab&#45;&gt;Runner -->
<g id="edge4" class="edge">
<title>Crontab&#45;&gt;Runner</title>
<path fill="none" stroke="#fb7185" stroke-width="2" d="M425.72,-391.86C469.13,-384.28 528.45,-373.93 573.17,-366.12"/>
<polygon fill="#fb7185" stroke="#fb7185" stroke-width="2" points="573.53,-368.9 580.93,-364.77 572.57,-363.38 573.53,-368.9"/>
<text xml:space="preserve" text-anchor="middle" x="504.88" y="-384.66" font-family="sans-Serif" font-size="9.00" fill="#cbd5e1">fire on schedule</text>
</g>
<!-- Prompt -->
<g id="node6" class="node">
<title>Prompt</title>
<path fill="#6ee7b7" stroke="#334155" stroke-width="1.4" d="M962.88,-373C962.88,-373 879.38,-373 879.38,-373 873.38,-373 867.38,-367 867.38,-361 867.38,-361 867.38,-349 867.38,-349 867.38,-343 873.38,-337 879.38,-337 879.38,-337 962.88,-337 962.88,-337 968.88,-337 974.88,-343 974.88,-349 974.88,-349 974.88,-361 974.88,-361 974.88,-367 968.88,-373 962.88,-373"/>
<text xml:space="preserve" text-anchor="middle" x="921.12" y="-358.05" font-family="sans-Serif" font-size="11.00" fill="#0f172a">:prompt</text>
<text xml:space="preserve" text-anchor="middle" x="921.12" y="-344.55" font-family="sans-Serif" font-size="11.00" fill="#0f172a">→ pwn&#45;ai one&#45;shot</text>
</g>
<!-- Runner&#45;&gt;Prompt -->
<g id="edge6" class="edge">
<title>Runner&#45;&gt;Prompt</title>
<path fill="none" stroke="#34d399" stroke-width="1.3" d="M691.78,-355C738.77,-355 807.52,-355 857.29,-355"/>
<polygon fill="#34d399" stroke="#34d399" stroke-width="1.3" points="857.02,-357.8 865.02,-355 857.02,-352.2 857.02,-357.8"/>
</g>
<!-- Ruby -->
<g id="node7" class="node">
<title>Ruby</title>
<path fill="#6ee7b7" stroke="#334155" stroke-width="1.4" d="M990.25,-301C990.25,-301 852,-301 852,-301 846,-301 840,-295 840,-289 840,-289 840,-277 840,-277 840,-271 846,-265 852,-265 852,-265 990.25,-265 990.25,-265 996.25,-265 1002.25,-271 1002.25,-277 1002.25,-277 1002.25,-289 1002.25,-289 1002.25,-295 996.25,-301 990.25,-301"/>
<text xml:space="preserve" text-anchor="middle" x="921.12" y="-286.05" font-family="sans-Serif" font-size="11.00" fill="#0f172a">:ruby</text>
<text xml:space="preserve" text-anchor="middle" x="921.12" y="-272.55" font-family="sans-Serif" font-size="11.00" fill="#0f172a">→ TOPLEVEL_BINDING.eval</text>
</g>
<!-- Runner&#45;&gt;Ruby -->
<g id="edge7" class="edge">
<title>Runner&#45;&gt;Ruby</title>
<path fill="none" stroke="#34d399" stroke-width="1.3" d="M691.78,-341.46C732.86,-330.94 790.59,-316.16 837.72,-304.1"/>
<polygon fill="#34d399" stroke="#34d399" stroke-width="1.3" points="838.33,-306.83 845.39,-302.13 836.95,-301.4 838.33,-306.83"/>
</g>
<!-- Script -->
<g id="node8" class="node">
<title>Script</title>
<path fill="#6ee7b7" stroke="#334155" stroke-width="1.4" d="M964.38,-445C964.38,-445 877.88,-445 877.88,-445 871.88,-445 865.88,-439 865.88,-433 865.88,-433 865.88,-421 865.88,-421 865.88,-415 871.88,-409 877.88,-409 877.88,-409 964.38,-409 964.38,-409 970.38,-409 976.38,-415 976.38,-421 976.38,-421 976.38,-433 976.38,-433 976.38,-439 970.38,-445 964.38,-445"/>
<text xml:space="preserve" text-anchor="middle" x="921.12" y="-430.05" font-family="sans-Serif" font-size="11.00" fill="#0f172a">:script</text>
<text xml:space="preserve" text-anchor="middle" x="921.12" y="-416.55" font-family="sans-Serif" font-size="11.00" fill="#0f172a">→ exec external file</text>
</g>
<!-- Runner&#45;&gt;Script -->
<g id="edge8" class="edge">
<title>Runner&#45;&gt;Script</title>
<path fill="none" stroke="#34d399" stroke-width="1.3" d="M691.9,-370.33C706.85,-374.55 723.16,-379.05 738.25,-383 777.17,-393.19 821.01,-403.82 855.89,-412.08"/>
<polygon fill="#34d399" stroke="#34d399" stroke-width="1.3" points="855.13,-414.77 863.56,-413.89 856.42,-409.32 855.13,-414.77"/>
</g>
<!-- Log -->
<g id="node13" class="node">
<title>Log</title>
<path fill="#fcd34d" stroke="#334155" stroke-width="1.4" d="M1354.5,-446.69C1354.5,-449.1 1324.86,-451.06 1288.38,-451.06 1251.89,-451.06 1222.25,-449.1 1222.25,-446.69 1222.25,-446.69 1222.25,-407.31 1222.25,-407.31 1222.25,-404.9 1251.89,-402.94 1288.38,-402.94 1324.86,-402.94 1354.5,-404.9 1354.5,-407.31 1354.5,-407.31 1354.5,-446.69 1354.5,-446.69"/>
<path fill="none" stroke="#334155" stroke-width="1.4" d="M1354.5,-446.69C1354.5,-444.27 1324.86,-442.31 1288.38,-442.31 1251.89,-442.31 1222.25,-444.27 1222.25,-446.69"/>
<text xml:space="preserve" text-anchor="middle" x="1288.38" y="-430.05" font-family="sans-Serif" font-size="11.00" fill="#0f172a">~/.pwn/cron/log/&lt;id&gt;.log</text>
<text xml:space="preserve" text-anchor="middle" x="1288.38" y="-416.55" font-family="sans-Serif" font-size="11.00" fill="#0f172a">last_run · last_status</text>
</g>
<!-- Prompt&#45;&gt;Log -->
<g id="edge13" class="edge">
<title>Prompt&#45;&gt;Log</title>
<path fill="none" stroke="#f59e0b" stroke-width="1.3" d="M975.24,-365.47C1037.59,-377.76 1141.46,-398.24 1212.1,-412.16"/>
<polygon fill="#f59e0b" stroke="#f59e0b" stroke-width="1.3" points="1211.52,-414.9 1219.91,-413.7 1212.6,-409.41 1211.52,-414.9"/>
</g>
<!-- Practice -->
<g id="node9" class="node">
<title>Practice</title>
<path fill="#c4b5fd" stroke="#334155" stroke-width="1.4" d="M1349.25,-331.25C1349.25,-331.25 1227.5,-331.25 1227.5,-331.25 1221.5,-331.25 1215.5,-325.25 1215.5,-319.25 1215.5,-319.25 1215.5,-294.75 1215.5,-294.75 1215.5,-288.75 1221.5,-282.75 1227.5,-282.75 1227.5,-282.75 1349.25,-282.75 1349.25,-282.75 1355.25,-282.75 1361.25,-288.75 1361.25,-294.75 1361.25,-294.75 1361.25,-319.25 1361.25,-319.25 1361.25,-325.25 1355.25,-331.25 1349.25,-331.25"/>
<text xml:space="preserve" text-anchor="middle" x="1288.38" y="-316.8" font-family="sans-Serif" font-size="11.00" fill="#0f172a">curriculum_practice_nightly</text>
<text xml:space="preserve" text-anchor="middle" x="1288.38" y="-303.3" font-family="sans-Serif" font-size="11.00" fill="#0f172a">0 3 * * *</text>
<text xml:space="preserve" text-anchor="middle" x="1288.38" y="-289.8" font-family="sans-Serif" font-size="11.00" fill="#0f172a">Curriculum.practice(limit:3)</text>
</g>
<!-- Ruby&#45;&gt;Practice -->
<g id="edge9" class="edge">
<title>Ruby&#45;&gt;Practice</title>
<path fill="none" stroke="#a78bfa" stroke-width="1.3" d="M1002.73,-288.3C1062.83,-292.25 1144.63,-297.62 1205.12,-301.6"/>
<polygon fill="#a78bfa" stroke="#a78bfa" stroke-width="1.3" points="1204.89,-304.39 1213.06,-302.12 1205.26,-298.8 1204.89,-304.39"/>
</g>
<!-- Offline -->
<g id="node10" class="node">
<title>Offline</title>
<path fill="#c4b5fd" stroke="#334155" stroke-width="1.4" d="M1342.5,-246.25C1342.5,-246.25 1234.25,-246.25 1234.25,-246.25 1228.25,-246.25 1222.25,-240.25 1222.25,-234.25 1222.25,-234.25 1222.25,-209.75 1222.25,-209.75 1222.25,-203.75 1228.25,-197.75 1234.25,-197.75 1234.25,-197.75 1342.5,-197.75 1342.5,-197.75 1348.5,-197.75 1354.5,-203.75 1354.5,-209.75 1354.5,-209.75 1354.5,-234.25 1354.5,-234.25 1354.5,-240.25 1348.5,-246.25 1342.5,-246.25"/>
<text xml:space="preserve" text-anchor="middle" x="1288.38" y="-231.8" font-family="sans-Serif" font-size="11.00" fill="#0f172a">curriculum_offline_judge</text>
<text xml:space="preserve" text-anchor="middle" x="1288.38" y="-218.3" font-family="sans-Serif" font-size="11.00" fill="#0f172a">30 3 * * *</text>
<text xml:space="preserve" text-anchor="middle" x="1288.38" y="-204.8" font-family="sans-Serif" font-size="11.00" fill="#0f172a">Curriculum.offline_judge</text>
</g>
<!-- Ruby&#45;&gt;Offline -->
<g id="edge10" class="edge">
<title>Ruby&#45;&gt;Offline</title>
<path fill="none" stroke="#a78bfa" stroke-width="1.3" d="M1002.73,-269.54C1065.15,-259.11 1150.97,-244.78 1212.02,-234.58"/>
<polygon fill="#a78bfa" stroke="#a78bfa" stroke-width="1.3" points="1212.23,-237.39 1219.66,-233.31 1211.31,-231.86 1212.23,-237.39"/>
</g>
<!-- Train -->
<g id="node11" class="node">
<title>Train</title>
<path fill="#c4b5fd" stroke="#334155" stroke-width="1.4" d="M1348.12,-162C1348.12,-162 1228.62,-162 1228.62,-162 1222.62,-162 1216.62,-156 1216.62,-150 1216.62,-150 1216.62,-112 1216.62,-112 1216.62,-106 1222.62,-100 1228.62,-100 1228.62,-100 1348.12,-100 1348.12,-100 1354.12,-100 1360.12,-106 1360.12,-112 1360.12,-112 1360.12,-150 1360.12,-150 1360.12,-156 1354.12,-162 1348.12,-162"/>
<text xml:space="preserve" text-anchor="middle" x="1288.38" y="-147.55" font-family="sans-Serif" font-size="11.00" fill="#0f172a">curriculum_train_weekly</text>
<text xml:space="preserve" text-anchor="middle" x="1288.38" y="-134.05" font-family="sans-Serif" font-size="11.00" fill="#0f172a">0 4 * * 0</text>
<text xml:space="preserve" text-anchor="middle" x="1288.38" y="-120.55" font-family="sans-Serif" font-size="11.00" fill="#0f172a">Curriculum.train_and_gate</text>
<text xml:space="preserve" text-anchor="middle" x="1288.38" y="-107.05" font-family="sans-Serif" font-size="11.00" fill="#0f172a">(dry_run / export_ready)</text>
</g>
<!-- Ruby&#45;&gt;Train -->
<g id="edge11" class="edge">
<title>Ruby&#45;&gt;Train</title>
<path fill="none" stroke="#a78bfa" stroke-width="1.3" d="M946.84,-264.34C978.33,-241.38 1035.2,-202.69 1089.25,-180 1126.44,-164.39 1169.73,-152.97 1206.34,-145.11"/>
<polygon fill="#a78bfa" stroke="#a78bfa" stroke-width="1.3" points="1206.8,-147.87 1214.06,-143.49 1205.65,-142.39 1206.8,-147.87"/>
</g>
<!-- MemGC -->
<g id="node12" class="node">
<title>MemGC</title>
<path fill="#c4b5fd" stroke="#334155" stroke-width="1.4" d="M1351.88,-64.25C1351.88,-64.25 1224.88,-64.25 1224.88,-64.25 1218.88,-64.25 1212.88,-58.25 1212.88,-52.25 1212.88,-52.25 1212.88,-27.75 1212.88,-27.75 1212.88,-21.75 1218.88,-15.75 1224.88,-15.75 1224.88,-15.75 1351.88,-15.75 1351.88,-15.75 1357.88,-15.75 1363.88,-21.75 1363.88,-27.75 1363.88,-27.75 1363.88,-52.25 1363.88,-52.25 1363.88,-58.25 1357.88,-64.25 1351.88,-64.25"/>
<text xml:space="preserve" text-anchor="middle" x="1288.38" y="-49.8" font-family="sans-Serif" font-size="11.00" fill="#0f172a">learning_consolidate_nightly</text>
<text xml:space="preserve" text-anchor="middle" x="1288.38" y="-36.3" font-family="sans-Serif" font-size="11.00" fill="#0f172a">0 5 * * *</text>
<text xml:space="preserve" text-anchor="middle" x="1288.38" y="-22.8" font-family="sans-Serif" font-size="11.00" fill="#0f172a">Learning.consolidate</text>
</g>
<!-- Ruby&#45;&gt;MemGC -->
<g id="edge12" class="edge">
<title>Ruby&#45;&gt;MemGC</title>
<path fill="none" stroke="#a78bfa" stroke-width="1.3" d="M931.79,-264.48C953.83,-224.24 1011.93,-128.67 1089.25,-82 1123.24,-61.49 1165.79,-50.9 1202.73,-45.47"/>
<polygon fill="#a78bfa" stroke="#a78bfa" stroke-width="1.3" points="1203,-48.26 1210.54,-44.4 1202.24,-42.71 1203,-48.26"/>
</g>
<!-- Ruby&#45;&gt;Log -->
<g id="edge14" class="edge">
<title>Ruby&#45;&gt;Log</title>
<path fill="none" stroke="#f59e0b" stroke-width="1.3" d="M974.49,-301.68C986.54,-306.71 999.08,-312.56 1010.25,-319 1048.69,-341.14 1049.21,-360.9 1089.25,-380 1127.78,-398.39 1174.05,-409.88 1212.18,-416.9"/>
<polygon fill="#f59e0b" stroke="#f59e0b" stroke-width="1.3" points="1211.39,-419.6 1219.75,-418.25 1212.36,-414.09 1211.39,-419.6"/>
</g>
<!-- Script&#45;&gt;Log -->
<g id="edge15" class="edge">
<title>Script&#45;&gt;Log</title>
<path fill="none" stroke="#f59e0b" stroke-width="1.3" d="M976.81,-427C1039.34,-427 1142.09,-427 1212.14,-427"/>
<polygon fill="#f59e0b" stroke="#f59e0b" stroke-width="1.3" points="1211.84,-429.8 1219.84,-427 1211.84,-424.2 1211.84,-429.8"/>
</g>
<!-- Practice&#45;&gt;Log -->
<g id="edge17" class="edge">
<title>Practice&#45;&gt;Log</title>
<path fill="none" stroke="#fbbf24" stroke-width="1.3" stroke-dasharray="5,2" d="M1288.38,-331.84C1288.38,-352.07 1288.38,-372.31 1288.38,-392.54"/>
<polygon fill="#fbbf24" stroke="#fbbf24" stroke-width="1.3" points="1285.58,-392.5 1288.38,-400.5 1291.18,-392.5 1285.58,-392.5"/>
</g>
<!-- Offline&#45;&gt;Log -->
<g id="edge18" class="edge">
<title>Offline&#45;&gt;Log</title>
<path fill="none" stroke="#fbbf24" stroke-width="1.3" stroke-dasharray="5,2" d="M1221.6,-216.96C1164.23,-216.83 1085.32,-227.71 1049.75,-283 1030.76,-312.53 1030.76,-332.47 1049.75,-362 1083.44,-414.38 1155.55,-428.27 1211.74,-430.47"/>
<polygon fill="#fbbf24" stroke="#fbbf24" stroke-width="1.3" points="1211.63,-433.27 1219.71,-430.69 1211.79,-427.67 1211.63,-433.27"/>
</g>
<!-- Train&#45;&gt;Log -->
<g id="edge19" class="edge">
<title>Train&#45;&gt;Log</title>
<path fill="none" stroke="#fbbf24" stroke-width="1.3" stroke-dasharray="5,2" d="M1216.05,-128.08C1159.33,-130.27 1084.38,-144.17 1049.75,-198 1010.32,-259.3 1010.32,-300.7 1049.75,-362 1083.44,-414.38 1155.55,-428.27 1211.74,-430.47"/>
<polygon fill="#fbbf24" stroke="#fbbf24" stroke-width="1.3" points="1211.63,-433.27 1219.71,-430.69 1211.79,-427.67 1211.63,-433.27"/>
</g>
<!-- MemGC&#45;&gt;Log -->
<g id="edge20" class="edge">
<title>MemGC&#45;&gt;Log</title>
<path fill="none" stroke="#fbbf24" stroke-width="1.3" stroke-dasharray="5,2" d="M1212.46,-34.66C1156.11,-35.45 1083.43,-47.64 1049.75,-100 1018.25,-148.97 1018.25,-313.03 1049.75,-362 1083.44,-414.38 1155.55,-428.27 1211.74,-430.47"/>
<polygon fill="#fbbf24" stroke="#fbbf24" stroke-width="1.3" points="1211.63,-433.27 1219.71,-430.69 1211.79,-427.67 1211.63,-433.27"/>
</g>
<!-- Log&#45;&gt;Jobs -->
<g id="edge16" class="edge">
<title>Log&#45;&gt;Jobs</title>
<path fill="none" stroke="#fbbf24" stroke-width="1.3" stroke-dasharray="5,2" d="M1221.77,-424.28C1180.35,-419.64 1127.61,-408.1 1089.25,-380 1034.09,-339.6 1069.73,-281.72 1010.25,-248 825.42,-143.21 748.48,-293.93 537.5,-319 503.58,-323.03 465.67,-320.98 434.28,-317.51"/>
<polygon fill="#fbbf24" stroke="#fbbf24" stroke-width="1.3" points="434.99,-314.78 426.72,-316.63 434.34,-320.34 434.99,-314.78"/>
<text xml:space="preserve" text-anchor="middle" x="765.62" y="-256.44" font-family="sans-Serif" font-size="9.00" fill="#cbd5e1">update status</text>
</g>
</g>
</svg>
