<?xml version="1.0" encoding="UTF-8" standalone="no"?>
<!DOCTYPE svg PUBLIC "-//W3C//DTD SVG 1.1//EN"
 "http://www.w3.org/Graphics/SVG/1.1/DTD/svg11.dtd">
<!-- Generated by graphviz version 14.1.2 (0)
 -->
<!-- Title: PWN_Cron Pages: 1 -->
<svg width="1424pt" height="459pt"
 viewBox="0.00 0.00 1424.00 459.00" xmlns="http://www.w3.org/2000/svg" xmlns:xlink="http://www.w3.org/1999/xlink">
<g id="graph0" class="graph" transform="scale(1 1) rotate(0) translate(43.2 416.2)">
<title>PWN_Cron</title>
<polygon fill="#0f172a" stroke="none" points="-43.2,43.2 -43.2,-416.2 1380.95,-416.2 1380.95,43.2 -43.2,43.2"/>
<text xml:space="preserve" text-anchor="start" x="467.5" y="-351" font-family="sans-Serif" font-weight="bold" font-size="20.00" fill="#e2e8f0">PWN::Cron &#45; Scheduled Autonomous Jobs</text>
<text xml:space="preserve" text-anchor="start" x="440.88" y="-339.55" font-family="sans-Serif" font-size="11.00" fill="#94a3b8">prompt · ruby · script → jobs.yml → crontab → pwn&#45;ai &#160;· &#160;seeded self&#45;improvement (Curriculum)</text>
<g id="clust2" class="cluster">
<title>cluster_kinds</title>
<path fill="#022c22" stroke="#047857" stroke-width="2" d="M844,-99C844,-99 998.25,-99 998.25,-99 1004.25,-99 1010.25,-105 1010.25,-111 1010.25,-111 1010.25,-314 1010.25,-314 1010.25,-320 1004.25,-326 998.25,-326 998.25,-326 844,-326 844,-326 838,-326 832,-320 832,-314 832,-314 832,-111 832,-111 832,-105 838,-99 844,-99"/>
<text xml:space="preserve" text-anchor="middle" x="921.12" y="-303" font-family="sans-Serif" font-size="20.00" fill="#a7f3d0">Job Kinds</text>
</g>
<g id="clust4" class="cluster">
<title>cluster_seed</title>
<path fill="#2e1065" stroke="#6d28d9" stroke-width="2" d="M1101.25,-8C1101.25,-8 1325.75,-8 1325.75,-8 1331.75,-8 1337.75,-14 1337.75,-20 1337.75,-20 1337.75,-177 1337.75,-177 1337.75,-183 1331.75,-189 1325.75,-189 1325.75,-189 1101.25,-189 1101.25,-189 1095.25,-189 1089.25,-183 1089.25,-177 1089.25,-177 1089.25,-20 1089.25,-20 1089.25,-14 1095.25,-8 1101.25,-8"/>
<text xml:space="preserve" text-anchor="middle" x="1213.5" y="-166" font-family="sans-Serif" font-size="20.00" fill="#ddd6fe">Seeded Self&#45;Improvement</text>
</g>
<!-- Create -->
<g id="node1" class="node">
<title>Create</title>
<path fill="#7dd3fc" stroke="#334155" stroke-width="1.4" d="M118,-255.25C118,-255.25 27.75,-255.25 27.75,-255.25 21.75,-255.25 15.75,-249.25 15.75,-243.25 15.75,-243.25 15.75,-218.75 15.75,-218.75 15.75,-212.75 21.75,-206.75 27.75,-206.75 27.75,-206.75 118,-206.75 118,-206.75 124,-206.75 130,-212.75 130,-218.75 130,-218.75 130,-243.25 130,-243.25 130,-249.25 124,-255.25 118,-255.25"/>
<text xml:space="preserve" text-anchor="middle" x="72.88" y="-240.8" font-family="sans-Serif" font-size="11.00" fill="#0f172a">cron_create</text>
<text xml:space="preserve" text-anchor="middle" x="72.88" y="-227.3" font-family="sans-Serif" font-size="11.00" fill="#0f172a">name · schedule</text>
<text xml:space="preserve" text-anchor="middle" x="72.88" y="-213.8" font-family="sans-Serif" font-size="11.00" fill="#0f172a">prompt | ruby | script</text>
</g>
<!-- Jobs -->
<g id="node3" class="node">
<title>Jobs</title>
<path fill="#fcd34d" stroke="#334155" stroke-width="1.4" d="M424.12,-163.73C424.12,-165.53 398.35,-167 366.62,-167 334.9,-167 309.12,-165.53 309.12,-163.73 309.12,-163.73 309.12,-134.27 309.12,-134.27 309.12,-132.47 334.9,-131 366.62,-131 398.35,-131 424.12,-132.47 424.12,-134.27 424.12,-134.27 424.12,-163.73 424.12,-163.73"/>
<path fill="none" stroke="#334155" stroke-width="1.4" d="M424.12,-163.73C424.12,-161.92 398.35,-160.45 366.62,-160.45 334.9,-160.45 309.12,-161.92 309.12,-163.73"/>
<text xml:space="preserve" text-anchor="middle" x="366.62" y="-145.3" font-family="sans-Serif" font-size="11.00" fill="#0f172a">~/.pwn/cron/jobs.yml</text>
</g>
<!-- Create&#45;&gt;Jobs -->
<g id="edge1" class="edge">
<title>Create&#45;&gt;Jobs</title>
<path fill="none" stroke="#38bdf8" stroke-width="1.3" d="M130.47,-215.09C178.83,-201.5 248.46,-181.93 299.4,-167.61"/>
<polygon fill="#38bdf8" stroke="#38bdf8" stroke-width="1.3" points="299.85,-170.4 306.79,-165.54 298.33,-165 299.85,-170.4"/>
<text xml:space="preserve" text-anchor="middle" x="226.88" y="-199.29" font-family="sans-Serif" font-size="9.00" fill="#cbd5e1">write</text>
</g>
<!-- Crontab -->
<g id="node4" class="node">
<title>Crontab</title>
<path fill="#fda4af" stroke="#334155" stroke-width="1.4" d="M413.25,-262C413.25,-262 320,-262 320,-262 314,-262 308,-256 308,-250 308,-250 308,-238 308,-238 308,-232 314,-226 320,-226 320,-226 413.25,-226 413.25,-226 419.25,-226 425.25,-232 425.25,-238 425.25,-238 425.25,-250 425.25,-250 425.25,-256 419.25,-262 413.25,-262"/>
<text xml:space="preserve" text-anchor="middle" x="366.62" y="-247.05" font-family="sans-Serif" font-size="11.00" fill="#0f172a">system crontab</text>
<text xml:space="preserve" text-anchor="middle" x="366.62" y="-233.55" font-family="sans-Serif" font-size="11.00" fill="#0f172a">(install_crontab: true)</text>
</g>
<!-- Create&#45;&gt;Crontab -->
<g id="edge3" class="edge">
<title>Create&#45;&gt;Crontab</title>
<path fill="none" stroke="#fb7185" stroke-width="1.3" d="M130.47,-233.52C178.24,-235.65 246.77,-238.7 297.53,-240.97"/>
<polygon fill="#fb7185" stroke="#fb7185" stroke-width="1.3" points="297.35,-243.76 305.47,-241.32 297.6,-238.17 297.35,-243.76"/>
<text xml:space="preserve" text-anchor="middle" x="226.88" y="-241" font-family="sans-Serif" font-size="9.00" fill="#cbd5e1">append</text>
</g>
<!-- Seed -->
<g id="node2" class="node">
<title>Seed</title>
<path fill="#7dd3fc" stroke="#334155" stroke-width="1.4" d="M133.75,-158C133.75,-158 12,-158 12,-158 6,-158 0,-152 0,-146 0,-146 0,-134 0,-134 0,-128 6,-122 12,-122 12,-122 133.75,-122 133.75,-122 139.75,-122 145.75,-128 145.75,-134 145.75,-134 145.75,-146 145.75,-146 145.75,-152 139.75,-158 133.75,-158"/>
<text xml:space="preserve" text-anchor="middle" x="72.88" y="-143.05" font-family="sans-Serif" font-size="11.00" fill="#0f172a">PWN::Cron.install_defaults</text>
<text xml:space="preserve" text-anchor="middle" x="72.88" y="-129.55" font-family="sans-Serif" font-size="11.00" fill="#0f172a">(pwn setup &#45;&#45;migrate)</text>
</g>
<!-- Seed&#45;&gt;Jobs -->
<g id="edge2" class="edge">
<title>Seed&#45;&gt;Jobs</title>
<path fill="none" stroke="#38bdf8" stroke-width="1.3" d="M146.33,-138.19C181.04,-137.74 223.19,-137.79 261,-139.5 273.22,-140.05 286.22,-140.97 298.75,-142.02"/>
<polygon fill="#38bdf8" stroke="#38bdf8" stroke-width="1.3" points="298.5,-144.81 306.71,-142.71 298.99,-139.23 298.5,-144.81"/>
<text xml:space="preserve" text-anchor="middle" x="226.88" y="-141.45" font-family="sans-Serif" font-size="9.00" fill="#cbd5e1">idempotent seed</text>
</g>
<!-- Runner -->
<g id="node5" class="node">
<title>Runner</title>
<path fill="#c4b5fd" stroke="#334155" stroke-width="1.4" d="M679.25,-215C679.25,-215 596.5,-215 596.5,-215 590.5,-215 584.5,-209 584.5,-203 584.5,-203 584.5,-191 584.5,-191 584.5,-185 590.5,-179 596.5,-179 596.5,-179 679.25,-179 679.25,-179 685.25,-179 691.25,-185 691.25,-191 691.25,-191 691.25,-203 691.25,-203 691.25,-209 685.25,-215 679.25,-215"/>
<text xml:space="preserve" text-anchor="middle" x="637.88" y="-193.3" font-family="sans-Serif" font-size="11.00" fill="#0f172a">PWN::Cron.run(id)</text>
</g>
<!-- Jobs&#45;&gt;Runner -->
<g id="edge5" class="edge">
<title>Jobs&#45;&gt;Runner</title>
<path fill="none" stroke="#f59e0b" stroke-width="1.3" d="M424.73,-159.18C468.59,-167 529.11,-177.79 574.29,-185.84"/>
<polygon fill="#f59e0b" stroke="#f59e0b" stroke-width="1.3" points="573.67,-188.58 582.03,-187.22 574.65,-183.06 573.67,-188.58"/>
<text xml:space="preserve" text-anchor="middle" x="504.88" y="-180.66" font-family="sans-Serif" font-size="9.00" fill="#cbd5e1">load job</text>
</g>
<!-- Crontab&#45;&gt;Runner -->
<g id="edge4" class="edge">
<title>Crontab&#45;&gt;Runner</title>
<path fill="none" stroke="#fb7185" stroke-width="2" d="M425.72,-233.86C469.13,-226.28 528.45,-215.93 573.17,-208.12"/>
<polygon fill="#fb7185" stroke="#fb7185" stroke-width="2" points="573.53,-210.9 580.93,-206.77 572.57,-205.38 573.53,-210.9"/>
<text xml:space="preserve" text-anchor="middle" x="504.88" y="-226.66" font-family="sans-Serif" font-size="9.00" fill="#cbd5e1">fire on schedule</text>
</g>
<!-- Prompt -->
<g id="node6" class="node">
<title>Prompt</title>
<path fill="#6ee7b7" stroke="#334155" stroke-width="1.4" d="M962.88,-215C962.88,-215 879.38,-215 879.38,-215 873.38,-215 867.38,-209 867.38,-203 867.38,-203 867.38,-191 867.38,-191 867.38,-185 873.38,-179 879.38,-179 879.38,-179 962.88,-179 962.88,-179 968.88,-179 974.88,-185 974.88,-191 974.88,-191 974.88,-203 974.88,-203 974.88,-209 968.88,-215 962.88,-215"/>
<text xml:space="preserve" text-anchor="middle" x="921.12" y="-200.05" font-family="sans-Serif" font-size="11.00" fill="#0f172a">:prompt</text>
<text xml:space="preserve" text-anchor="middle" x="921.12" y="-186.55" font-family="sans-Serif" font-size="11.00" fill="#0f172a">→ pwn&#45;ai one&#45;shot</text>
</g>
<!-- Runner&#45;&gt;Prompt -->
<g id="edge6" class="edge">
<title>Runner&#45;&gt;Prompt</title>
<path fill="none" stroke="#34d399" stroke-width="1.3" d="M691.78,-197C738.77,-197 807.52,-197 857.29,-197"/>
<polygon fill="#34d399" stroke="#34d399" stroke-width="1.3" points="857.02,-199.8 865.02,-197 857.02,-194.2 857.02,-199.8"/>
</g>
<!-- Ruby -->
<g id="node7" class="node">
<title>Ruby</title>
<path fill="#6ee7b7" stroke="#334155" stroke-width="1.4" d="M990.25,-143C990.25,-143 852,-143 852,-143 846,-143 840,-137 840,-131 840,-131 840,-119 840,-119 840,-113 846,-107 852,-107 852,-107 990.25,-107 990.25,-107 996.25,-107 1002.25,-113 1002.25,-119 1002.25,-119 1002.25,-131 1002.25,-131 1002.25,-137 996.25,-143 990.25,-143"/>
<text xml:space="preserve" text-anchor="middle" x="921.12" y="-128.05" font-family="sans-Serif" font-size="11.00" fill="#0f172a">:ruby</text>
<text xml:space="preserve" text-anchor="middle" x="921.12" y="-114.55" font-family="sans-Serif" font-size="11.00" fill="#0f172a">→ TOPLEVEL_BINDING.eval</text>
</g>
<!-- Runner&#45;&gt;Ruby -->
<g id="edge7" class="edge">
<title>Runner&#45;&gt;Ruby</title>
<path fill="none" stroke="#34d399" stroke-width="1.3" d="M691.78,-183.46C732.86,-172.94 790.59,-158.16 837.72,-146.1"/>
<polygon fill="#34d399" stroke="#34d399" stroke-width="1.3" points="838.33,-148.83 845.39,-144.13 836.95,-143.4 838.33,-148.83"/>
</g>
<!-- Script -->
<g id="node8" class="node">
<title>Script</title>
<path fill="#6ee7b7" stroke="#334155" stroke-width="1.4" d="M964.38,-287C964.38,-287 877.88,-287 877.88,-287 871.88,-287 865.88,-281 865.88,-275 865.88,-275 865.88,-263 865.88,-263 865.88,-257 871.88,-251 877.88,-251 877.88,-251 964.38,-251 964.38,-251 970.38,-251 976.38,-257 976.38,-263 976.38,-263 976.38,-275 976.38,-275 976.38,-281 970.38,-287 964.38,-287"/>
<text xml:space="preserve" text-anchor="middle" x="921.12" y="-272.05" font-family="sans-Serif" font-size="11.00" fill="#0f172a">:script</text>
<text xml:space="preserve" text-anchor="middle" x="921.12" y="-258.55" font-family="sans-Serif" font-size="11.00" fill="#0f172a">→ exec external file</text>
</g>
<!-- Runner&#45;&gt;Script -->
<g id="edge8" class="edge">
<title>Runner&#45;&gt;Script</title>
<path fill="none" stroke="#34d399" stroke-width="1.3" d="M691.9,-212.33C706.85,-216.55 723.16,-221.05 738.25,-225 777.17,-235.19 821.01,-245.82 855.89,-254.08"/>
<polygon fill="#34d399" stroke="#34d399" stroke-width="1.3" points="855.13,-256.77 863.56,-255.89 856.42,-251.32 855.13,-256.77"/>
</g>
<!-- Log -->
<g id="node11" class="node">
<title>Log</title>
<path fill="#fcd34d" stroke="#334155" stroke-width="1.4" d="M1279.12,-264.69C1279.12,-267.1 1249.49,-269.06 1213,-269.06 1176.51,-269.06 1146.88,-267.1 1146.88,-264.69 1146.88,-264.69 1146.88,-225.31 1146.88,-225.31 1146.88,-222.9 1176.51,-220.94 1213,-220.94 1249.49,-220.94 1279.12,-222.9 1279.12,-225.31 1279.12,-225.31 1279.12,-264.69 1279.12,-264.69"/>
<path fill="none" stroke="#334155" stroke-width="1.4" d="M1279.12,-264.69C1279.12,-262.27 1249.49,-260.31 1213,-260.31 1176.51,-260.31 1146.88,-262.27 1146.88,-264.69"/>
<text xml:space="preserve" text-anchor="middle" x="1213" y="-248.05" font-family="sans-Serif" font-size="11.00" fill="#0f172a">~/.pwn/cron/log/&lt;id&gt;.log</text>
<text xml:space="preserve" text-anchor="middle" x="1213" y="-234.55" font-family="sans-Serif" font-size="11.00" fill="#0f172a">last_run · last_status</text>
</g>
<!-- Prompt&#45;&gt;Log -->
<g id="edge11" class="edge">
<title>Prompt&#45;&gt;Log</title>
<path fill="none" stroke="#f59e0b" stroke-width="1.3" d="M975.29,-205.8C1020.51,-213.29 1085.98,-224.13 1136.61,-232.52"/>
<polygon fill="#f59e0b" stroke="#f59e0b" stroke-width="1.3" points="1135.91,-235.24 1144.26,-233.78 1136.83,-229.71 1135.91,-235.24"/>
</g>
<!-- Practice -->
<g id="node9" class="node">
<title>Practice</title>
<path fill="#c4b5fd" stroke="#334155" stroke-width="1.4" d="M1273.88,-64.25C1273.88,-64.25 1152.12,-64.25 1152.12,-64.25 1146.12,-64.25 1140.12,-58.25 1140.12,-52.25 1140.12,-52.25 1140.12,-27.75 1140.12,-27.75 1140.12,-21.75 1146.12,-15.75 1152.12,-15.75 1152.12,-15.75 1273.88,-15.75 1273.88,-15.75 1279.88,-15.75 1285.88,-21.75 1285.88,-27.75 1285.88,-27.75 1285.88,-52.25 1285.88,-52.25 1285.88,-58.25 1279.88,-64.25 1273.88,-64.25"/>
<text xml:space="preserve" text-anchor="middle" x="1213" y="-49.8" font-family="sans-Serif" font-size="11.00" fill="#0f172a">curriculum_practice_nightly</text>
<text xml:space="preserve" text-anchor="middle" x="1213" y="-36.3" font-family="sans-Serif" font-size="11.00" fill="#0f172a">0 3 * * *</text>
<text xml:space="preserve" text-anchor="middle" x="1213" y="-22.8" font-family="sans-Serif" font-size="11.00" fill="#0f172a">Curriculum.practice(limit:3)</text>
</g>
<!-- Ruby&#45;&gt;Practice -->
<g id="edge9" class="edge">
<title>Ruby&#45;&gt;Practice</title>
<path fill="none" stroke="#a78bfa" stroke-width="1.3" d="M985.74,-106.35C1028.23,-93.89 1084.5,-77.39 1130.3,-63.96"/>
<polygon fill="#a78bfa" stroke="#a78bfa" stroke-width="1.3" points="1130.83,-66.72 1137.72,-61.78 1129.25,-61.35 1130.83,-66.72"/>
</g>
<!-- Train -->
<g id="node10" class="node">
<title>Train</title>
<path fill="#c4b5fd" stroke="#334155" stroke-width="1.4" d="M1272.75,-149.25C1272.75,-149.25 1153.25,-149.25 1153.25,-149.25 1147.25,-149.25 1141.25,-143.25 1141.25,-137.25 1141.25,-137.25 1141.25,-112.75 1141.25,-112.75 1141.25,-106.75 1147.25,-100.75 1153.25,-100.75 1153.25,-100.75 1272.75,-100.75 1272.75,-100.75 1278.75,-100.75 1284.75,-106.75 1284.75,-112.75 1284.75,-112.75 1284.75,-137.25 1284.75,-137.25 1284.75,-143.25 1278.75,-149.25 1272.75,-149.25"/>
<text xml:space="preserve" text-anchor="middle" x="1213" y="-134.8" font-family="sans-Serif" font-size="11.00" fill="#0f172a">curriculum_train_weekly</text>
<text xml:space="preserve" text-anchor="middle" x="1213" y="-121.3" font-family="sans-Serif" font-size="11.00" fill="#0f172a">0 4 * * 0</text>
<text xml:space="preserve" text-anchor="middle" x="1213" y="-107.8" font-family="sans-Serif" font-size="11.00" fill="#0f172a">Curriculum.train_and_gate</text>
</g>
<!-- Ruby&#45;&gt;Train -->
<g id="edge10" class="edge">
<title>Ruby&#45;&gt;Train</title>
<path fill="none" stroke="#a78bfa" stroke-width="1.3" d="M1002.87,-125C1042.8,-125 1090.87,-125 1130.86,-125"/>
<polygon fill="#a78bfa" stroke="#a78bfa" stroke-width="1.3" points="1130.6,-127.8 1138.6,-125 1130.6,-122.2 1130.6,-127.8"/>
</g>
<!-- Ruby&#45;&gt;Log -->
<g id="edge12" class="edge">
<title>Ruby&#45;&gt;Log</title>
<path fill="none" stroke="#f59e0b" stroke-width="1.3" d="M968.96,-143.62C982.35,-149.09 996.93,-155.16 1010.25,-161 1045.76,-176.56 1053.57,-182.84 1089.25,-198 1105.64,-204.97 1123.45,-212.05 1140.28,-218.54"/>
<polygon fill="#f59e0b" stroke="#f59e0b" stroke-width="1.3" points="1139.21,-221.13 1147.68,-221.37 1141.21,-215.9 1139.21,-221.13"/>
</g>
<!-- Script&#45;&gt;Log -->
<g id="edge13" class="edge">
<title>Script&#45;&gt;Log</title>
<path fill="none" stroke="#f59e0b" stroke-width="1.3" d="M976.99,-264.46C1022.08,-260.72 1086.43,-255.4 1136.4,-251.26"/>
<polygon fill="#f59e0b" stroke="#f59e0b" stroke-width="1.3" points="1136.49,-254.06 1144.23,-250.61 1136.02,-248.48 1136.49,-254.06"/>
</g>
<!-- Practice&#45;&gt;Log -->
<g id="edge15" class="edge">
<title>Practice&#45;&gt;Log</title>
<path fill="none" stroke="#fbbf24" stroke-width="1.3" stroke-dasharray="5,2" d="M1139.52,-47.69C1105.87,-55.41 1069.23,-70.72 1049.75,-101 1030.76,-130.53 1030.76,-150.47 1049.75,-180 1068.83,-209.66 1103.96,-225.78 1136.76,-234.55"/>
<polygon fill="#fbbf24" stroke="#fbbf24" stroke-width="1.3" points="1136.04,-237.26 1144.47,-236.47 1137.38,-231.82 1136.04,-237.26"/>
</g>
<!-- Train&#45;&gt;Log -->
<g id="edge16" class="edge">
<title>Train&#45;&gt;Log</title>
<path fill="none" stroke="#fbbf24" stroke-width="1.3" stroke-dasharray="5,2" d="M1213,-149.84C1213,-170.07 1213,-190.31 1213,-210.54"/>
<polygon fill="#fbbf24" stroke="#fbbf24" stroke-width="1.3" points="1210.2,-210.5 1213,-218.5 1215.8,-210.5 1210.2,-210.5"/>
</g>
<!-- Log&#45;&gt;Jobs -->
<g id="edge14" class="edge">
<title>Log&#45;&gt;Jobs</title>
<path fill="none" stroke="#fbbf24" stroke-width="1.3" stroke-dasharray="5,2" d="M1146.27,-227.66C1126.7,-220.51 1106.02,-210.82 1089.25,-198 1041.99,-161.89 1063.28,-116.91 1010.25,-90 820.78,6.15 748.48,-135.93 537.5,-161 503.58,-165.03 465.67,-162.98 434.28,-159.51"/>
<polygon fill="#fbbf24" stroke="#fbbf24" stroke-width="1.3" points="434.99,-156.78 426.72,-158.63 434.34,-162.34 434.99,-156.78"/>
<text xml:space="preserve" text-anchor="middle" x="765.62" y="-99.43" font-family="sans-Serif" font-size="9.00" fill="#cbd5e1">update status</text>
</g>
</g>
</svg>
