<?xml version="1.0" encoding="UTF-8" standalone="no"?>
<!DOCTYPE svg PUBLIC "-//W3C//DTD SVG 1.1//EN"
 "http://www.w3.org/Graphics/SVG/1.1/DTD/svg11.dtd">
<!-- Generated by graphviz version 14.1.2 (0)
 -->
<!-- Title: PWN Driver Framework Pages: 1 -->
<svg width="682pt" height="98pt"
 viewBox="0.00 0.00 682.00 98.00" xmlns="http://www.w3.org/2000/svg" xmlns:xlink="http://www.w3.org/1999/xlink">
<g id="graph0" class="graph" transform="scale(1 1) rotate(0) translate(4 94)">
<title>PWN Driver Framework</title>
<polygon fill="white" stroke="none" points="-4,4 -4,-94 678,-94 678,4 -4,4"/>
<!-- Parser -->
<g id="node1" class="node">
<title>Parser</title>
<path fill="none" stroke="black" d="M114.25,-63C114.25,-63 12,-63 12,-63 6,-63 0,-57 0,-51 0,-51 0,-39 0,-39 0,-33 6,-27 12,-27 12,-27 114.25,-27 114.25,-27 120.25,-27 126.25,-33 126.25,-39 126.25,-39 126.25,-51 126.25,-51 126.25,-57 120.25,-63 114.25,-63"/>
<text xml:space="preserve" text-anchor="middle" x="63.12" y="-46.95" font-family="Arial" font-size="9.00">PWN::Driver::Parser</text>
<text xml:space="preserve" text-anchor="middle" x="63.12" y="-36.45" font-family="Arial" font-size="9.00">(OptionParser + auto_opts)</text>
</g>
<!-- Script -->
<g id="node2" class="node">
<title>Script</title>
<path fill="none" stroke="black" d="M255.5,-63C255.5,-63 174.25,-63 174.25,-63 168.25,-63 162.25,-57 162.25,-51 162.25,-51 162.25,-39 162.25,-39 162.25,-33 168.25,-27 174.25,-27 174.25,-27 255.5,-27 255.5,-27 261.5,-27 267.5,-33 267.5,-39 267.5,-39 267.5,-51 267.5,-51 267.5,-57 261.5,-63 255.5,-63"/>
<text xml:space="preserve" text-anchor="middle" x="214.88" y="-46.95" font-family="Arial" font-size="9.00">Driver Script</text>
<text xml:space="preserve" text-anchor="middle" x="214.88" y="-36.45" font-family="Arial" font-size="9.00">(bin/pwn_* or custom)</text>
</g>
<!-- Parser&#45;&gt;Script -->
<g id="edge2" class="edge">
<title>Parser&#45;&gt;Script</title>
<path fill="none" stroke="black" d="M126.33,-38.34C134.42,-38.23 142.7,-38.22 150.8,-38.33"/>
<polygon fill="black" stroke="black" points="150.5,-41.82 160.57,-38.51 150.64,-34.82 150.5,-41.82"/>
</g>
<!-- Script&#45;&gt;Parser -->
<g id="edge1" class="edge">
<title>Script&#45;&gt;Parser</title>
<path fill="none" stroke="black" d="M162.08,-51.46C154.16,-51.66 145.85,-51.76 137.57,-51.75"/>
<polygon fill="black" stroke="black" points="137.87,-48.25 127.85,-51.67 137.82,-55.25 137.87,-48.25"/>
</g>
<!-- PWNLoad -->
<g id="node3" class="node">
<title>PWNLoad</title>
<path fill="none" stroke="black" d="M392.62,-90C392.62,-90 335.38,-90 335.38,-90 329.38,-90 323.38,-84 323.38,-78 323.38,-78 323.38,-66 323.38,-66 323.38,-60 329.38,-54 335.38,-54 335.38,-54 392.62,-54 392.62,-54 398.62,-54 404.62,-60 404.62,-66 404.62,-66 404.62,-78 404.62,-78 404.62,-84 398.62,-90 392.62,-90"/>
<text xml:space="preserve" text-anchor="middle" x="364" y="-73.95" font-family="Arial" font-size="9.00">require &#39;pwn&#39;</text>
<text xml:space="preserve" text-anchor="middle" x="364" y="-63.45" font-family="Arial" font-size="9.00">Full namespace</text>
</g>
<!-- Script&#45;&gt;PWNLoad -->
<g id="edge3" class="edge">
<title>Script&#45;&gt;PWNLoad</title>
<path fill="none" stroke="black" d="M267.75,-54.52C282.11,-57.15 297.68,-60.01 311.99,-62.64"/>
<polygon fill="black" stroke="black" points="311.2,-66.05 321.66,-64.41 312.46,-59.17 311.2,-66.05"/>
</g>
<!-- standalone | cron | pwn&#45;ai -->
<g id="node6" class="node">
<title>standalone | cron | pwn&#45;ai</title>
<path fill="none" stroke="black" d="M412.5,-36C412.5,-36 315.5,-36 315.5,-36 309.5,-36 303.5,-30 303.5,-24 303.5,-24 303.5,-12 303.5,-12 303.5,-6 309.5,0 315.5,0 315.5,0 412.5,0 412.5,0 418.5,0 424.5,-6 424.5,-12 424.5,-12 424.5,-24 424.5,-24 424.5,-30 418.5,-36 412.5,-36"/>
<text xml:space="preserve" text-anchor="middle" x="364" y="-14.7" font-family="Arial" font-size="9.00">standalone | cron | pwn&#45;ai</text>
</g>
<!-- Script&#45;&gt;standalone | cron | pwn&#45;ai -->
<g id="edge6" class="edge">
<title>Script&#45;&gt;standalone | cron | pwn&#45;ai</title>
<path fill="none" stroke="black" d="M267.75,-35.48C275.59,-34.04 283.81,-32.53 291.97,-31.03"/>
<polygon fill="black" stroke="black" points="292.36,-34.52 301.56,-29.27 291.09,-27.64 292.36,-34.52"/>
</g>
<!-- Orchestrate -->
<g id="node4" class="node">
<title>Orchestrate</title>
<path fill="none" stroke="black" d="M550.75,-90C550.75,-90 472.5,-90 472.5,-90 466.5,-90 460.5,-84 460.5,-78 460.5,-78 460.5,-66 460.5,-66 460.5,-60 466.5,-54 472.5,-54 472.5,-54 550.75,-54 550.75,-54 556.75,-54 562.75,-60 562.75,-66 562.75,-66 562.75,-78 562.75,-78 562.75,-84 556.75,-90 550.75,-90"/>
<text xml:space="preserve" text-anchor="middle" x="511.62" y="-73.95" font-family="Arial" font-size="9.00">Orchestration Logic</text>
<text xml:space="preserve" text-anchor="middle" x="511.62" y="-63.45" font-family="Arial" font-size="9.00">(plugins + AI + loops)</text>
</g>
<!-- PWNLoad&#45;&gt;Orchestrate -->
<g id="edge4" class="edge">
<title>PWNLoad&#45;&gt;Orchestrate</title>
<path fill="none" stroke="black" d="M404.79,-72C418.42,-72 433.99,-72 448.93,-72"/>
<polygon fill="black" stroke="black" points="448.68,-75.5 458.68,-72 448.68,-68.5 448.68,-75.5"/>
</g>
<!-- Outputs -->
<g id="node5" class="node">
<title>Outputs</title>
<path fill="none" stroke="black" d="M662,-90C662,-90 610.75,-90 610.75,-90 604.75,-90 598.75,-84 598.75,-78 598.75,-78 598.75,-66 598.75,-66 598.75,-60 604.75,-54 610.75,-54 610.75,-54 662,-54 662,-54 668,-54 674,-60 674,-66 674,-66 674,-78 674,-78 674,-84 668,-90 662,-90"/>
<text xml:space="preserve" text-anchor="middle" x="636.38" y="-73.95" font-family="Arial" font-size="9.00">Reports, Logs,</text>
<text xml:space="preserve" text-anchor="middle" x="636.38" y="-63.45" font-family="Arial" font-size="9.00">Findings</text>
</g>
<!-- Orchestrate&#45;&gt;Outputs -->
<g id="edge5" class="edge">
<title>Orchestrate&#45;&gt;Outputs</title>
<path fill="none" stroke="black" d="M562.91,-72C570.91,-72 579.18,-72 587.14,-72"/>
<polygon fill="black" stroke="black" points="587,-75.5 597,-72 587,-68.5 587,-75.5"/>
</g>
</g>
</svg>
