<?xml version="1.0" encoding="UTF-8" standalone="no"?>
<!DOCTYPE svg PUBLIC "-//W3C//DTD SVG 1.1//EN"
 "http://www.w3.org/Graphics/SVG/1.1/DTD/svg11.dtd">
<!-- Generated by graphviz version 14.1.2 (0)
 -->
<!-- Title: PWN_Driver Pages: 1 -->
<svg width="728pt" height="440pt"
 viewBox="0.00 0.00 728.00 440.00" xmlns="http://www.w3.org/2000/svg" xmlns:xlink="http://www.w3.org/1999/xlink">
<g id="graph0" class="graph" transform="scale(1 1) rotate(0) translate(43.2 397.2)">
<title>PWN_Driver</title>
<polygon fill="#0f172a" stroke="none" points="-43.2,43.2 -43.2,-397.2 684.45,-397.2 684.45,43.2 -43.2,43.2"/>
<text xml:space="preserve" text-anchor="start" x="184.88" y="-332" font-family="Helvetica,sans-Serif" font-weight="bold" font-size="20.00" fill="#e2e8f0">Driver Anatomy — bin/pwn_*</text>
<text xml:space="preserve" text-anchor="start" x="206.25" y="-320.55" font-family="Helvetica,sans-Serif" font-size="11.00" fill="#94a3b8">52 shipped drivers · thin CLI over PWN::Plugins</text>
<g id="clust1" class="cluster">
<title>cluster_d</title>
<path fill="#022c22" stroke="#047857" d="M276,-8C276,-8 419,-8 419,-8 425,-8 431,-14 431,-20 431,-20 431,-223 431,-223 431,-229 425,-235 419,-235 419,-235 276,-235 276,-235 270,-235 264,-229 264,-223 264,-223 264,-20 264,-20 264,-14 270,-8 276,-8"/>
<text xml:space="preserve" text-anchor="middle" x="347.5" y="-212" font-family="Helvetica,sans-Serif" font-size="20.00" fill="#a7f3d0">Driver Body</text>
</g>
<g id="clust3" class="cluster">
<title>cluster_o</title>
<path fill="#2e1065" stroke="#6d28d9" d="M521,-80C521,-80 621.25,-80 621.25,-80 627.25,-80 633.25,-86 633.25,-92 633.25,-92 633.25,-295 633.25,-295 633.25,-301 627.25,-307 621.25,-307 621.25,-307 521,-307 521,-307 515,-307 509,-301 509,-295 509,-295 509,-92 509,-92 509,-86 515,-80 521,-80"/>
<text xml:space="preserve" text-anchor="middle" x="571.12" y="-284" font-family="Helvetica,sans-Serif" font-size="20.00" fill="#ddd6fe">Output</text>
</g>
<!-- Sh -->
<g id="node1" class="node">
<title>Sh</title>
<path fill="#7dd3fc" stroke="#334155" stroke-width="1.3" d="M166,-88C166,-88 12,-88 12,-88 6,-88 0,-82 0,-76 0,-76 0,-64 0,-64 0,-58 6,-52 12,-52 12,-52 166,-52 166,-52 172,-52 178,-58 178,-64 178,-64 178,-76 178,-76 178,-82 172,-88 166,-88"/>
<text xml:space="preserve" text-anchor="middle" x="89" y="-72.5" font-family="Helvetica,sans-Serif" font-size="10.00" fill="#0f172a">$ pwn_burp_suite_pro_active_scan \ </text>
<text xml:space="preserve" text-anchor="middle" x="89" y="-60.5" font-family="Helvetica,sans-Serif" font-size="10.00" fill="#0f172a"> &#160;&#160;&#160;&#45;t https://target &#45;o out/</text>
</g>
<!-- Opt -->
<g id="node2" class="node">
<title>Opt</title>
<path fill="#6ee7b7" stroke="#334155" stroke-width="1.3" d="M378,-52C378,-52 317,-52 317,-52 311,-52 305,-46 305,-40 305,-40 305,-28 305,-28 305,-22 311,-16 317,-16 317,-16 378,-16 378,-16 384,-16 390,-22 390,-28 390,-28 390,-40 390,-40 390,-46 384,-52 378,-52"/>
<text xml:space="preserve" text-anchor="middle" x="347.5" y="-36.5" font-family="Helvetica,sans-Serif" font-size="10.00" fill="#0f172a">OptionParser</text>
<text xml:space="preserve" text-anchor="middle" x="347.5" y="-24.5" font-family="Helvetica,sans-Serif" font-size="10.00" fill="#0f172a">ARGV → opts{}</text>
</g>
<!-- Sh&#45;&gt;Opt -->
<g id="edge1" class="edge">
<title>Sh&#45;&gt;Opt</title>
<path fill="none" stroke="#38bdf8" stroke-width="1.3" d="M178.63,-57.56C217.51,-52.1 261.78,-45.89 295.09,-41.22"/>
<polygon fill="#38bdf8" stroke="#38bdf8" stroke-width="1.3" points="295.14,-44.04 302.67,-40.15 294.36,-38.49 295.14,-44.04"/>
</g>
<!-- Req -->
<g id="node3" class="node">
<title>Req</title>
<path fill="#6ee7b7" stroke="#334155" stroke-width="1.3" d="M370.88,-124C370.88,-124 324.12,-124 324.12,-124 318.12,-124 312.12,-118 312.12,-112 312.12,-112 312.12,-100 312.12,-100 312.12,-94 318.12,-88 324.12,-88 324.12,-88 370.88,-88 370.88,-88 376.88,-88 382.88,-94 382.88,-100 382.88,-100 382.88,-112 382.88,-112 382.88,-118 376.88,-124 370.88,-124"/>
<text xml:space="preserve" text-anchor="middle" x="347.5" y="-102.5" font-family="Helvetica,sans-Serif" font-size="10.00" fill="#0f172a">require &#39;pwn&#39;</text>
</g>
<!-- Sh&#45;&gt;Req -->
<g id="edge2" class="edge">
<title>Sh&#45;&gt;Req</title>
<path fill="none" stroke="#38bdf8" stroke-width="1.3" d="M178.63,-82.44C220.28,-88.28 268.11,-95 302.03,-99.76"/>
<polygon fill="#38bdf8" stroke="#38bdf8" stroke-width="1.3" points="301.39,-102.5 309.7,-100.84 302.17,-96.95 301.39,-102.5"/>
</g>
<!-- Call -->
<g id="node4" class="node">
<title>Call</title>
<path fill="#6ee7b7" stroke="#334155" stroke-width="1.3" d="M411,-196C411,-196 284,-196 284,-196 278,-196 272,-190 272,-184 272,-184 272,-172 272,-172 272,-166 278,-160 284,-160 284,-160 411,-160 411,-160 417,-160 423,-166 423,-172 423,-172 423,-184 423,-184 423,-190 417,-196 411,-196"/>
<text xml:space="preserve" text-anchor="middle" x="347.5" y="-174.5" font-family="Helvetica,sans-Serif" font-size="10.00" fill="#0f172a">PWN::Plugins::X.method(opts)</text>
</g>
<!-- Opt&#45;&gt;Call -->
<g id="edge3" class="edge">
<title>Opt&#45;&gt;Call</title>
<path fill="none" stroke="#34d399" stroke-width="1.3" d="M304.47,-40.03C275.53,-46.57 239.42,-60.1 221,-88 212.18,-101.35 212.18,-110.65 221,-124 231.03,-139.19 246.3,-150.12 262.8,-157.98"/>
<polygon fill="#34d399" stroke="#34d399" stroke-width="1.3" points="261.27,-160.36 269.72,-161.02 263.53,-155.24 261.27,-160.36"/>
</g>
<!-- Req&#45;&gt;Call -->
<g id="edge4" class="edge">
<title>Req&#45;&gt;Call</title>
<path fill="none" stroke="#34d399" stroke-width="1.3" d="M347.5,-124.56C347.5,-132.96 347.5,-141.37 347.5,-149.77"/>
<polygon fill="#34d399" stroke="#34d399" stroke-width="1.3" points="344.7,-149.66 347.5,-157.66 350.3,-149.66 344.7,-149.66"/>
</g>
<!-- Std -->
<g id="node5" class="node">
<title>Std</title>
<path fill="#c4b5fd" stroke="#334155" stroke-width="1.3" d="M613.25,-124C613.25,-124 529,-124 529,-124 523,-124 517,-118 517,-112 517,-112 517,-100 517,-100 517,-94 523,-88 529,-88 529,-88 613.25,-88 613.25,-88 619.25,-88 625.25,-94 625.25,-100 625.25,-100 625.25,-112 625.25,-112 625.25,-118 619.25,-124 613.25,-124"/>
<text xml:space="preserve" text-anchor="middle" x="571.12" y="-102.5" font-family="Helvetica,sans-Serif" font-size="10.00" fill="#0f172a">STDOUT / STDERR</text>
</g>
<!-- Call&#45;&gt;Std -->
<g id="edge5" class="edge">
<title>Call&#45;&gt;Std</title>
<path fill="none" stroke="#a78bfa" stroke-width="1.3" d="M405.86,-159.36C436.91,-149.28 475.33,-136.8 507.2,-126.44"/>
<polygon fill="#a78bfa" stroke="#a78bfa" stroke-width="1.3" points="507.82,-129.19 514.56,-124.05 506.09,-123.86 507.82,-129.19"/>
</g>
<!-- Rep -->
<g id="node6" class="node">
<title>Rep</title>
<path fill="#c4b5fd" stroke="#334155" stroke-width="1.3" d="M599.38,-196C599.38,-196 542.88,-196 542.88,-196 536.88,-196 530.88,-190 530.88,-184 530.88,-184 530.88,-172 530.88,-172 530.88,-166 536.88,-160 542.88,-160 542.88,-160 599.38,-160 599.38,-160 605.38,-160 611.38,-166 611.38,-172 611.38,-172 611.38,-184 611.38,-184 611.38,-190 605.38,-196 599.38,-196"/>
<text xml:space="preserve" text-anchor="middle" x="571.12" y="-174.5" font-family="Helvetica,sans-Serif" font-size="10.00" fill="#0f172a">PWN::Reports</text>
</g>
<!-- Call&#45;&gt;Rep -->
<g id="edge6" class="edge">
<title>Call&#45;&gt;Rep</title>
<path fill="none" stroke="#a78bfa" stroke-width="1.3" d="M423.53,-178C455.55,-178 492.02,-178 520.58,-178"/>
<polygon fill="#a78bfa" stroke="#a78bfa" stroke-width="1.3" points="520.37,-180.8 528.37,-178 520.37,-175.2 520.37,-180.8"/>
</g>
<!-- Ex -->
<g id="node7" class="node">
<title>Ex</title>
<path fill="#c4b5fd" stroke="#334155" stroke-width="1.3" d="M587,-268C587,-268 555.25,-268 555.25,-268 549.25,-268 543.25,-262 543.25,-256 543.25,-256 543.25,-244 543.25,-244 543.25,-238 549.25,-232 555.25,-232 555.25,-232 587,-232 587,-232 593,-232 599,-238 599,-244 599,-244 599,-256 599,-256 599,-262 593,-268 587,-268"/>
<text xml:space="preserve" text-anchor="middle" x="571.12" y="-246.5" font-family="Helvetica,sans-Serif" font-size="10.00" fill="#0f172a">exit code</text>
</g>
<!-- Call&#45;&gt;Ex -->
<g id="edge7" class="edge">
<title>Call&#45;&gt;Ex</title>
<path fill="none" stroke="#a78bfa" stroke-width="1.3" d="M405.86,-196.64C446.07,-209.7 498.63,-226.77 533.34,-238.05"/>
<polygon fill="#a78bfa" stroke="#a78bfa" stroke-width="1.3" points="532.28,-240.65 540.76,-240.46 534.01,-235.32 532.28,-240.65"/>
</g>
</g>
</svg>
