<?xml version="1.0" encoding="UTF-8" standalone="no"?>
<!DOCTYPE svg PUBLIC "-//W3C//DTD SVG 1.1//EN"
 "http://www.w3.org/Graphics/SVG/1.1/DTD/svg11.dtd">
<!-- Generated by graphviz version 14.1.2 (0)
 -->
<!-- Title: PWN_Extrospection Pages: 1 -->
<svg width="1157pt" height="987pt"
 viewBox="0.00 0.00 1157.00 987.00" xmlns="http://www.w3.org/2000/svg" xmlns:xlink="http://www.w3.org/1999/xlink">
<g id="graph0" class="graph" transform="scale(1 1) rotate(0) translate(43.2 943.33)">
<title>PWN_Extrospection</title>
<polygon fill="#0f172a" stroke="none" points="-43.2,43.2 -43.2,-943.33 1114.2,-943.33 1114.2,43.2 -43.2,43.2"/>
<text xml:space="preserve" text-anchor="start" x="289.12" y="-878.13" font-family="Helvetica,sans-Serif" font-weight="bold" font-size="20.00" fill="#e2e8f0">PWN::AI::Agent::Extrospection — World Awareness</text>
<text xml:space="preserve" text-anchor="start" x="290.25" y="-866.68" font-family="Helvetica,sans-Serif" font-size="11.00" fill="#94a3b8">snapshot · drift · observe · intel · watch · verify · correlate &#160;— &#160;host · net · toolchain · repo · env · rf · web</text>
<g id="clust1" class="cluster">
<title>cluster_world</title>
<path fill="#450a0a" stroke="#b91c1c" stroke-dasharray="5,2" d="M20,-314.13C20,-314.13 155.5,-314.13 155.5,-314.13 161.5,-314.13 167.5,-320.13 167.5,-326.13 167.5,-326.13 167.5,-841.13 167.5,-841.13 167.5,-847.13 161.5,-853.13 155.5,-853.13 155.5,-853.13 20,-853.13 20,-853.13 14,-853.13 8,-847.13 8,-841.13 8,-841.13 8,-326.13 8,-326.13 8,-320.13 14,-314.13 20,-314.13"/>
<text xml:space="preserve" text-anchor="middle" x="87.75" y="-830.13" font-family="Helvetica,sans-Serif" font-size="20.00" fill="#fecaca">Outside World</text>
</g>
<g id="clust3" class="cluster">
<title>cluster_eng</title>
<path fill="#422006" stroke="#a16207" stroke-width="2" d="M565.62,-148.13C565.62,-148.13 746.62,-148.13 746.62,-148.13 752.62,-148.13 758.62,-154.13 758.62,-160.13 758.62,-160.13 758.62,-714.13 758.62,-714.13 758.62,-720.13 752.62,-726.13 746.62,-726.13 746.62,-726.13 565.62,-726.13 565.62,-726.13 559.62,-726.13 553.62,-720.13 553.62,-714.13 553.62,-714.13 553.62,-160.13 553.62,-160.13 553.62,-154.13 559.62,-148.13 565.62,-148.13"/>
<text xml:space="preserve" text-anchor="middle" x="656.12" y="-703.13" font-family="Helvetica,sans-Serif" font-size="20.00" fill="#fde68a">Extrospection Engine</text>
</g>
<!-- Host -->
<g id="node1" class="node">
<title>Host</title>
<path fill="#fda4af" stroke="#334155" stroke-width="1.4" d="M132.88,-814.13C132.88,-814.13 42.62,-814.13 42.62,-814.13 36.62,-814.13 30.62,-808.13 30.62,-802.13 30.62,-802.13 30.62,-790.13 30.62,-790.13 30.62,-784.13 36.62,-778.13 42.62,-778.13 42.62,-778.13 132.88,-778.13 132.88,-778.13 138.88,-778.13 144.88,-784.13 144.88,-790.13 144.88,-790.13 144.88,-802.13 144.88,-802.13 144.88,-808.13 138.88,-814.13 132.88,-814.13"/>
<text xml:space="preserve" text-anchor="middle" x="87.75" y="-799.18" font-family="Helvetica,sans-Serif" font-size="11.00" fill="#0f172a">host</text>
<text xml:space="preserve" text-anchor="middle" x="87.75" y="-785.68" font-family="Helvetica,sans-Serif" font-size="11.00" fill="#0f172a">uname · distro · arch</text>
</g>
<!-- Snap -->
<g id="node9" class="node">
<title>Snap</title>
<path fill="#fcd34d" stroke="#334155" stroke-width="1.4" d="M710.5,-686.38C710.5,-686.38 600.75,-686.38 600.75,-686.38 594.75,-686.38 588.75,-680.38 588.75,-674.38 588.75,-674.38 588.75,-649.88 588.75,-649.88 588.75,-643.88 594.75,-637.88 600.75,-637.88 600.75,-637.88 710.5,-637.88 710.5,-637.88 716.5,-637.88 722.5,-643.88 722.5,-649.88 722.5,-649.88 722.5,-674.38 722.5,-674.38 722.5,-680.38 716.5,-686.38 710.5,-686.38"/>
<text xml:space="preserve" text-anchor="middle" x="655.62" y="-671.93" font-family="Helvetica,sans-Serif" font-size="11.00" fill="#0f172a">extro_snapshot</text>
<text xml:space="preserve" text-anchor="middle" x="655.62" y="-658.43" font-family="Helvetica,sans-Serif" font-size="11.00" fill="#0f172a">probe_host/net/toolchain</text>
<text xml:space="preserve" text-anchor="middle" x="655.62" y="-644.93" font-family="Helvetica,sans-Serif" font-size="11.00" fill="#0f172a">probe_repo/env/rf/web</text>
</g>
<!-- Host&#45;&gt;Snap -->
<g id="edge1" class="edge">
<title>Host&#45;&gt;Snap</title>
<path fill="none" stroke="#fb7185" stroke-width="1.3" d="M145.28,-787.96C227.97,-775.36 386.34,-748.76 517.75,-712.13 539.51,-706.07 562.74,-698.15 583.77,-690.41"/>
<polygon fill="#fb7185" stroke="#fb7185" stroke-width="1.3" points="584.59,-693.1 591.11,-687.68 582.63,-687.85 584.59,-693.1"/>
</g>
<!-- Net -->
<g id="node2" class="node">
<title>Net</title>
<path fill="#fda4af" stroke="#334155" stroke-width="1.4" d="M144.5,-742.13C144.5,-742.13 31,-742.13 31,-742.13 25,-742.13 19,-736.13 19,-730.13 19,-730.13 19,-718.13 19,-718.13 19,-712.13 25,-706.13 31,-706.13 31,-706.13 144.5,-706.13 144.5,-706.13 150.5,-706.13 156.5,-712.13 156.5,-718.13 156.5,-718.13 156.5,-730.13 156.5,-730.13 156.5,-736.13 150.5,-742.13 144.5,-742.13"/>
<text xml:space="preserve" text-anchor="middle" x="87.75" y="-727.18" font-family="Helvetica,sans-Serif" font-size="11.00" fill="#0f172a">net</text>
<text xml:space="preserve" text-anchor="middle" x="87.75" y="-713.68" font-family="Helvetica,sans-Serif" font-size="11.00" fill="#0f172a">interfaces · listening ports</text>
</g>
<!-- Net&#45;&gt;Snap -->
<g id="edge2" class="edge">
<title>Net&#45;&gt;Snap</title>
<path fill="none" stroke="#fb7185" stroke-width="1.3" d="M157.17,-717.72C241.9,-709.65 390.59,-695.01 517.75,-680.13 537.4,-677.83 558.61,-675.15 578.33,-672.56"/>
<polygon fill="#fb7185" stroke="#fb7185" stroke-width="1.3" points="578.67,-675.34 586.24,-671.52 577.94,-669.79 578.67,-675.34"/>
</g>
<!-- Tool -->
<g id="node3" class="node">
<title>Tool</title>
<path fill="#fda4af" stroke="#334155" stroke-width="1.4" d="M135.88,-670.13C135.88,-670.13 39.62,-670.13 39.62,-670.13 33.62,-670.13 27.62,-664.13 27.62,-658.13 27.62,-658.13 27.62,-646.13 27.62,-646.13 27.62,-640.13 33.62,-634.13 39.62,-634.13 39.62,-634.13 135.88,-634.13 135.88,-634.13 141.88,-634.13 147.88,-640.13 147.88,-646.13 147.88,-646.13 147.88,-658.13 147.88,-658.13 147.88,-664.13 141.88,-670.13 135.88,-670.13"/>
<text xml:space="preserve" text-anchor="middle" x="87.75" y="-655.18" font-family="Helvetica,sans-Serif" font-size="11.00" fill="#0f172a">toolchain</text>
<text xml:space="preserve" text-anchor="middle" x="87.75" y="-641.68" font-family="Helvetica,sans-Serif" font-size="11.00" fill="#0f172a">nmap · burp · msf · git</text>
</g>
<!-- Drift -->
<g id="node10" class="node">
<title>Drift</title>
<path fill="#fcd34d" stroke="#334155" stroke-width="1.4" d="M691.38,-602.13C691.38,-602.13 619.88,-602.13 619.88,-602.13 613.88,-602.13 607.88,-596.13 607.88,-590.13 607.88,-590.13 607.88,-578.13 607.88,-578.13 607.88,-572.13 613.88,-566.13 619.88,-566.13 619.88,-566.13 691.38,-566.13 691.38,-566.13 697.38,-566.13 703.38,-572.13 703.38,-578.13 703.38,-578.13 703.38,-590.13 703.38,-590.13 703.38,-596.13 697.38,-602.13 691.38,-602.13"/>
<text xml:space="preserve" text-anchor="middle" x="655.62" y="-587.18" font-family="Helvetica,sans-Serif" font-size="11.00" fill="#0f172a">extro_drift</text>
<text xml:space="preserve" text-anchor="middle" x="655.62" y="-573.68" font-family="Helvetica,sans-Serif" font-size="11.00" fill="#0f172a">delta vs baseline</text>
</g>
<!-- Tool&#45;&gt;Drift -->
<g id="edge3" class="edge">
<title>Tool&#45;&gt;Drift</title>
<path fill="none" stroke="#fb7185" stroke-width="1.3" d="M148.31,-648.32C231.36,-642.58 386.53,-630.3 517.75,-611.13 544.2,-607.27 573.28,-601.72 597.81,-596.66"/>
<polygon fill="#fb7185" stroke="#fb7185" stroke-width="1.3" points="598.13,-599.45 605.39,-595.07 596.99,-593.97 598.13,-599.45"/>
</g>
<!-- Repo -->
<g id="node4" class="node">
<title>Repo</title>
<path fill="#fda4af" stroke="#334155" stroke-width="1.4" d="M141.12,-598.13C141.12,-598.13 34.38,-598.13 34.38,-598.13 28.38,-598.13 22.38,-592.13 22.38,-586.13 22.38,-586.13 22.38,-574.13 22.38,-574.13 22.38,-568.13 28.38,-562.13 34.38,-562.13 34.38,-562.13 141.12,-562.13 141.12,-562.13 147.12,-562.13 153.12,-568.13 153.12,-574.13 153.12,-574.13 153.12,-586.13 153.12,-586.13 153.12,-592.13 147.12,-598.13 141.12,-598.13"/>
<text xml:space="preserve" text-anchor="middle" x="87.75" y="-583.18" font-family="Helvetica,sans-Serif" font-size="11.00" fill="#0f172a">repo · env</text>
<text xml:space="preserve" text-anchor="middle" x="87.75" y="-569.68" font-family="Helvetica,sans-Serif" font-size="11.00" fill="#0f172a">HEAD · dirty · ruby/gem</text>
</g>
<!-- Repo&#45;&gt;Drift -->
<g id="edge4" class="edge">
<title>Repo&#45;&gt;Drift</title>
<path fill="none" stroke="#fb7185" stroke-width="1.3" d="M153.66,-580.59C265.17,-581.38 491.32,-582.98 597.34,-583.73"/>
<polygon fill="#fb7185" stroke="#fb7185" stroke-width="1.3" points="597.23,-586.53 605.25,-583.78 597.27,-580.93 597.23,-586.53"/>
</g>
<!-- RFhw -->
<g id="node5" class="node">
<title>RFhw</title>
<path fill="#fda4af" stroke="#334155" stroke-width="1.4" d="M136.62,-526.38C136.62,-526.38 38.88,-526.38 38.88,-526.38 32.88,-526.38 26.88,-520.38 26.88,-514.38 26.88,-514.38 26.88,-489.88 26.88,-489.88 26.88,-483.88 32.88,-477.88 38.88,-477.88 38.88,-477.88 136.62,-477.88 136.62,-477.88 142.62,-477.88 148.62,-483.88 148.62,-489.88 148.62,-489.88 148.62,-514.38 148.62,-514.38 148.62,-520.38 142.62,-526.38 136.62,-526.38"/>
<text xml:space="preserve" text-anchor="middle" x="87.75" y="-511.93" font-family="Helvetica,sans-Serif" font-size="11.00" fill="#0f172a">rf &#160;📡</text>
<text xml:space="preserve" text-anchor="middle" x="87.75" y="-498.43" font-family="Helvetica,sans-Serif" font-size="11.00" fill="#0f172a">rtl&#45;sdr · hackrf · flipper</text>
<text xml:space="preserve" text-anchor="middle" x="87.75" y="-484.93" font-family="Helvetica,sans-Serif" font-size="11.00" fill="#0f172a">gqrx sock · serial devs</text>
</g>
<!-- Obs -->
<g id="node11" class="node">
<title>Obs</title>
<path fill="#fcd34d" stroke="#334155" stroke-width="1.4" d="M724.75,-530.38C724.75,-530.38 586.5,-530.38 586.5,-530.38 580.5,-530.38 574.5,-524.38 574.5,-518.38 574.5,-518.38 574.5,-493.88 574.5,-493.88 574.5,-487.88 580.5,-481.88 586.5,-481.88 586.5,-481.88 724.75,-481.88 724.75,-481.88 730.75,-481.88 736.75,-487.88 736.75,-493.88 736.75,-493.88 736.75,-518.38 736.75,-518.38 736.75,-524.38 730.75,-530.38 724.75,-530.38"/>
<text xml:space="preserve" text-anchor="middle" x="655.62" y="-515.93" font-family="Helvetica,sans-Serif" font-size="11.00" fill="#0f172a">extro_observe</text>
<text xml:space="preserve" text-anchor="middle" x="655.62" y="-502.43" font-family="Helvetica,sans-Serif" font-size="11.00" fill="#0f172a">recon · vuln · intel</text>
<text xml:space="preserve" text-anchor="middle" x="655.62" y="-488.93" font-family="Helvetica,sans-Serif" font-size="11.00" fill="#0f172a">target · network · env · rf · web</text>
</g>
<!-- RFhw&#45;&gt;Obs -->
<g id="edge5" class="edge">
<title>RFhw&#45;&gt;Obs</title>
<path fill="none" stroke="#fb7185" stroke-width="1.3" d="M149.31,-502.56C248.91,-503.27 447.82,-504.67 564.16,-505.49"/>
<polygon fill="#fb7185" stroke="#fb7185" stroke-width="1.3" points="564.13,-508.29 572.15,-505.55 564.17,-502.69 564.13,-508.29"/>
<text xml:space="preserve" text-anchor="middle" x="327.75" y="-506.28" font-family="Helvetica,sans-Serif" font-size="9.00" fill="#cbd5e1">probe_rf</text>
</g>
<!-- Web -->
<g id="node6" class="node">
<title>Web</title>
<path fill="#fda4af" stroke="#334155" stroke-width="1.4" d="M144.88,-370.38C144.88,-370.38 30.62,-370.38 30.62,-370.38 24.62,-370.38 18.62,-364.38 18.62,-358.38 18.62,-358.38 18.62,-333.88 18.62,-333.88 18.62,-327.88 24.62,-321.88 30.62,-321.88 30.62,-321.88 144.88,-321.88 144.88,-321.88 150.88,-321.88 156.88,-327.88 156.88,-333.88 156.88,-333.88 156.88,-358.38 156.88,-358.38 156.88,-364.38 150.88,-370.38 144.88,-370.38"/>
<text xml:space="preserve" text-anchor="middle" x="87.75" y="-355.93" font-family="Helvetica,sans-Serif" font-size="11.00" fill="#0f172a">web &#160;🌐</text>
<text xml:space="preserve" text-anchor="middle" x="87.75" y="-342.43" font-family="Helvetica,sans-Serif" font-size="11.00" fill="#0f172a">anchors · targets</text>
<text xml:space="preserve" text-anchor="middle" x="87.75" y="-328.93" font-family="Helvetica,sans-Serif" font-size="11.00" fill="#0f172a">rendered DOM · TLS cert</text>
</g>
<!-- TB -->
<g id="node8" class="node">
<title>TB</title>
<path fill="#7dd3fc" stroke="#334155" stroke-width="2" d="M389,-352.38C389,-352.38 266.5,-352.38 266.5,-352.38 260.5,-352.38 254.5,-346.38 254.5,-340.38 254.5,-340.38 254.5,-315.88 254.5,-315.88 254.5,-309.88 260.5,-303.88 266.5,-303.88 266.5,-303.88 389,-303.88 389,-303.88 395,-303.88 401,-309.88 401,-315.88 401,-315.88 401,-340.38 401,-340.38 401,-346.38 395,-352.38 389,-352.38"/>
<text xml:space="preserve" text-anchor="middle" x="327.75" y="-337.93" font-family="Helvetica,sans-Serif" font-size="11.00" fill="#0f172a">PWN::Plugins::</text>
<text xml:space="preserve" text-anchor="middle" x="327.75" y="-324.43" font-family="Helvetica,sans-Serif" font-size="11.00" fill="#0f172a">TransparentBrowser</text>
<text xml:space="preserve" text-anchor="middle" x="327.75" y="-310.93" font-family="Helvetica,sans-Serif" font-size="11.00" fill="#0f172a">:headless (→ :rest fallback)</text>
</g>
<!-- Web&#45;&gt;TB -->
<g id="edge7" class="edge">
<title>Web&#45;&gt;TB</title>
<path fill="none" stroke="#fb7185" stroke-width="1.3" d="M157.27,-340.95C184.3,-338.91 215.58,-336.54 243.87,-334.4"/>
<polygon fill="#fb7185" stroke="#fb7185" stroke-width="1.3" points="244,-337.2 251.77,-333.8 243.58,-331.62 244,-337.2"/>
</g>
<!-- Feeds -->
<g id="node7" class="node">
<title>Feeds</title>
<path fill="#fda4af" stroke="#334155" stroke-width="1.4" d="M147.5,-442.13C147.5,-442.13 28,-442.13 28,-442.13 22,-442.13 16,-436.13 16,-430.13 16,-430.13 16,-418.13 16,-418.13 16,-412.13 22,-406.13 28,-406.13 28,-406.13 147.5,-406.13 147.5,-406.13 153.5,-406.13 159.5,-412.13 159.5,-418.13 159.5,-418.13 159.5,-430.13 159.5,-430.13 159.5,-436.13 153.5,-442.13 147.5,-442.13"/>
<text xml:space="preserve" text-anchor="middle" x="87.75" y="-427.18" font-family="Helvetica,sans-Serif" font-size="11.00" fill="#0f172a">intel feeds</text>
<text xml:space="preserve" text-anchor="middle" x="87.75" y="-413.68" font-family="Helvetica,sans-Serif" font-size="11.00" fill="#0f172a">NVD · CIRCL · Exploit&#45;DB</text>
</g>
<!-- Intel -->
<g id="node12" class="node">
<title>Intel</title>
<path fill="#fcd34d" stroke="#334155" stroke-width="1.4" d="M700.38,-446.13C700.38,-446.13 610.88,-446.13 610.88,-446.13 604.88,-446.13 598.88,-440.13 598.88,-434.13 598.88,-434.13 598.88,-422.13 598.88,-422.13 598.88,-416.13 604.88,-410.13 610.88,-410.13 610.88,-410.13 700.38,-410.13 700.38,-410.13 706.38,-410.13 712.38,-416.13 712.38,-422.13 712.38,-422.13 712.38,-434.13 712.38,-434.13 712.38,-440.13 706.38,-446.13 700.38,-446.13"/>
<text xml:space="preserve" text-anchor="middle" x="655.62" y="-431.18" font-family="Helvetica,sans-Serif" font-size="11.00" fill="#0f172a">extro_intel</text>
<text xml:space="preserve" text-anchor="middle" x="655.62" y="-417.68" font-family="Helvetica,sans-Serif" font-size="11.00" fill="#0f172a">CVE / exploit lookup</text>
</g>
<!-- Feeds&#45;&gt;Intel -->
<g id="edge6" class="edge">
<title>Feeds&#45;&gt;Intel</title>
<path fill="none" stroke="#fb7185" stroke-width="1.3" d="M160.13,-424.64C270.63,-425.42 481.49,-426.91 588.62,-427.67"/>
<polygon fill="#fb7185" stroke="#fb7185" stroke-width="1.3" points="588.36,-430.47 596.38,-427.72 588.4,-424.87 588.36,-430.47"/>
</g>
<!-- TB&#45;&gt;Snap -->
<g id="edge8" class="edge">
<title>TB&#45;&gt;Snap</title>
<path fill="none" stroke="#38bdf8" stroke-width="1.3" d="M341.97,-353.17C372.35,-408.51 452.34,-542.44 553.62,-620.13 561.45,-626.13 570.25,-631.43 579.31,-636.05"/>
<polygon fill="#38bdf8" stroke="#38bdf8" stroke-width="1.3" points="577.87,-638.47 586.29,-639.43 580.31,-633.42 577.87,-638.47"/>
<text xml:space="preserve" text-anchor="middle" x="482.88" y="-600.18" font-family="Helvetica,sans-Serif" font-size="9.00" fill="#cbd5e1">probe_web</text>
<text xml:space="preserve" text-anchor="middle" x="482.88" y="-589.68" font-family="Helvetica,sans-Serif" font-size="9.00" fill="#cbd5e1">(opt&#45;in)</text>
</g>
<!-- Watch -->
<g id="node13" class="node">
<title>Watch</title>
<path fill="#fcd34d" stroke="#334155" stroke-width="1.4" d="M712.75,-374.38C712.75,-374.38 598.5,-374.38 598.5,-374.38 592.5,-374.38 586.5,-368.38 586.5,-362.38 586.5,-362.38 586.5,-337.88 586.5,-337.88 586.5,-331.88 592.5,-325.88 598.5,-325.88 598.5,-325.88 712.75,-325.88 712.75,-325.88 718.75,-325.88 724.75,-331.88 724.75,-337.88 724.75,-337.88 724.75,-362.38 724.75,-362.38 724.75,-368.38 718.75,-374.38 712.75,-374.38"/>
<text xml:space="preserve" text-anchor="middle" x="655.62" y="-359.93" font-family="Helvetica,sans-Serif" font-size="11.00" fill="#0f172a">extro_watch</text>
<text xml:space="preserve" text-anchor="middle" x="655.62" y="-346.43" font-family="Helvetica,sans-Serif" font-size="11.00" fill="#0f172a">render → DOM SHA&#45;256</text>
<text xml:space="preserve" text-anchor="middle" x="655.62" y="-332.93" font-family="Helvetica,sans-Serif" font-size="11.00" fill="#0f172a">screenshot · TLS fp</text>
</g>
<!-- TB&#45;&gt;Watch -->
<g id="edge9" class="edge">
<title>TB&#45;&gt;Watch</title>
<path fill="none" stroke="#38bdf8" stroke-width="1.3" d="M401.83,-320.32C417.07,-318.99 433.05,-317.82 448,-317.13 478.97,-315.71 486.97,-313.48 517.75,-317.13 536.96,-319.42 557.37,-323.44 576.4,-327.91"/>
<polygon fill="#38bdf8" stroke="#38bdf8" stroke-width="1.3" points="575.58,-330.59 584.01,-329.75 576.89,-325.15 575.58,-330.59"/>
<text xml:space="preserve" text-anchor="middle" x="482.88" y="-329.58" font-family="Helvetica,sans-Serif" font-size="9.00" fill="#cbd5e1">goto · text</text>
<text xml:space="preserve" text-anchor="middle" x="482.88" y="-319.08" font-family="Helvetica,sans-Serif" font-size="9.00" fill="#cbd5e1">screenshot</text>
</g>
<!-- Verify -->
<g id="node14" class="node">
<title>Verify</title>
<path fill="#fcd34d" stroke="#334155" stroke-width="2" d="M734.5,-289.38C734.5,-289.38 576.75,-289.38 576.75,-289.38 570.75,-289.38 564.75,-283.38 564.75,-277.38 564.75,-277.38 564.75,-252.88 564.75,-252.88 564.75,-246.88 570.75,-240.88 576.75,-240.88 576.75,-240.88 734.5,-240.88 734.5,-240.88 740.5,-240.88 746.5,-246.88 746.5,-252.88 746.5,-252.88 746.5,-277.38 746.5,-277.38 746.5,-283.38 740.5,-289.38 734.5,-289.38"/>
<text xml:space="preserve" text-anchor="middle" x="655.62" y="-274.93" font-family="Helvetica,sans-Serif" font-size="11.00" fill="#0f172a">extro_verify</text>
<text xml:space="preserve" text-anchor="middle" x="655.62" y="-261.43" font-family="Helvetica,sans-Serif" font-size="11.00" fill="#0f172a">:cve · :version · :doc · :generic</text>
<text xml:space="preserve" text-anchor="middle" x="655.62" y="-247.93" font-family="Helvetica,sans-Serif" font-size="11.00" fill="#0f172a">→ :confirmed | :refuted | :unknown</text>
</g>
<!-- TB&#45;&gt;Verify -->
<g id="edge10" class="edge">
<title>TB&#45;&gt;Verify</title>
<path fill="none" stroke="#38bdf8" stroke-width="2" d="M389.46,-302.94C407.97,-296.16 428.57,-289.51 448,-285.13 481.79,-277.53 519.33,-272.82 553.04,-269.9"/>
<polygon fill="#38bdf8" stroke="#38bdf8" stroke-width="2" points="553.08,-272.7 560.82,-269.26 552.62,-267.12 553.08,-272.7"/>
<text xml:space="preserve" text-anchor="middle" x="482.88" y="-297.58" font-family="Helvetica,sans-Serif" font-size="9.00" fill="#cbd5e1">render</text>
<text xml:space="preserve" text-anchor="middle" x="482.88" y="-287.08" font-family="Helvetica,sans-Serif" font-size="9.00" fill="#cbd5e1">canonical source</text>
</g>
<!-- Store -->
<g id="node16" class="node">
<title>Store</title>
<path fill="#fcd34d" stroke="#334155" stroke-width="1.4" d="M1046.25,-478.82C1046.25,-481.24 1023.33,-483.2 995.12,-483.2 966.92,-483.2 944,-481.24 944,-478.82 944,-478.82 944,-439.45 944,-439.45 944,-437.03 966.92,-435.07 995.12,-435.07 1023.33,-435.07 1046.25,-437.03 1046.25,-439.45 1046.25,-439.45 1046.25,-478.82 1046.25,-478.82"/>
<path fill="none" stroke="#334155" stroke-width="1.4" d="M1046.25,-478.82C1046.25,-476.41 1023.33,-474.45 995.12,-474.45 966.92,-474.45 944,-476.41 944,-478.82"/>
<text xml:space="preserve" text-anchor="middle" x="995.12" y="-462.18" font-family="Helvetica,sans-Serif" font-size="11.00" fill="#0f172a">~/.pwn/</text>
<text xml:space="preserve" text-anchor="middle" x="995.12" y="-448.68" font-family="Helvetica,sans-Serif" font-size="11.00" fill="#0f172a">extrospection.json</text>
</g>
<!-- Snap&#45;&gt;Store -->
<g id="edge11" class="edge">
<title>Snap&#45;&gt;Store</title>
<path fill="none" stroke="#f59e0b" stroke-width="1.3" d="M721.21,-637.24C733.77,-631.92 746.73,-626.1 758.62,-620.13 811.23,-593.75 823.53,-585.15 872.25,-552.13 901.35,-532.42 932.86,-508.29 956.55,-489.55"/>
<polygon fill="#f59e0b" stroke="#f59e0b" stroke-width="1.3" points="958.21,-491.81 962.73,-484.64 954.73,-487.43 958.21,-491.81"/>
</g>
<!-- Drift&#45;&gt;Store -->
<g id="edge12" class="edge">
<title>Drift&#45;&gt;Store</title>
<path fill="none" stroke="#f59e0b" stroke-width="1.3" d="M704.06,-568.85C747.96,-554.47 814.91,-531.94 872.25,-510.13 892.61,-502.39 914.63,-493.37 934.29,-485.1"/>
<polygon fill="#f59e0b" stroke="#f59e0b" stroke-width="1.3" points="935.34,-487.69 941.62,-481.99 933.16,-482.53 935.34,-487.69"/>
</g>
<!-- Obs&#45;&gt;Store -->
<g id="edge13" class="edge">
<title>Obs&#45;&gt;Store</title>
<path fill="none" stroke="#f59e0b" stroke-width="1.3" d="M737.04,-494.94C797.55,-486.51 879.17,-475.14 934.07,-467.5"/>
<polygon fill="#f59e0b" stroke="#f59e0b" stroke-width="1.3" points="934.17,-470.31 941.71,-466.43 933.4,-464.76 934.17,-470.31"/>
</g>
<!-- Intel&#45;&gt;Store -->
<g id="edge14" class="edge">
<title>Intel&#45;&gt;Store</title>
<path fill="none" stroke="#f59e0b" stroke-width="1.3" d="M712.74,-433.29C773.76,-438.89 870.96,-447.82 933.65,-453.58"/>
<polygon fill="#f59e0b" stroke="#f59e0b" stroke-width="1.3" points="933.22,-456.35 941.45,-454.29 933.73,-450.77 933.22,-456.35"/>
<text xml:space="preserve" text-anchor="middle" x="832.88" y="-449.27" font-family="Helvetica,sans-Serif" font-size="9.00" fill="#cbd5e1">record:true</text>
</g>
<!-- Watch&#45;&gt;Store -->
<g id="edge15" class="edge">
<title>Watch&#45;&gt;Store</title>
<path fill="none" stroke="#f59e0b" stroke-width="1.3" d="M725.33,-372.32C786.58,-392.11 875.36,-420.78 933.89,-439.68"/>
<polygon fill="#f59e0b" stroke="#f59e0b" stroke-width="1.3" points="933.03,-442.34 941.5,-442.14 934.75,-437.01 933.03,-442.34"/>
<text xml:space="preserve" text-anchor="middle" x="832.88" y="-419.55" font-family="Helvetica,sans-Serif" font-size="9.00" fill="#cbd5e1">category::web</text>
</g>
<!-- Shots -->
<g id="node17" class="node">
<title>Shots</title>
<path fill="#fcd34d" stroke="#334155" stroke-width="1.4" d="M1054.5,-380.82C1054.5,-383.24 1027.89,-385.2 995.12,-385.2 962.36,-385.2 935.75,-383.24 935.75,-380.82 935.75,-380.82 935.75,-341.45 935.75,-341.45 935.75,-339.03 962.36,-337.07 995.12,-337.07 1027.89,-337.07 1054.5,-339.03 1054.5,-341.45 1054.5,-341.45 1054.5,-380.82 1054.5,-380.82"/>
<path fill="none" stroke="#334155" stroke-width="1.4" d="M1054.5,-380.82C1054.5,-378.41 1027.89,-376.45 995.12,-376.45 962.36,-376.45 935.75,-378.41 935.75,-380.82"/>
<text xml:space="preserve" text-anchor="middle" x="995.12" y="-364.18" font-family="Helvetica,sans-Serif" font-size="11.00" fill="#0f172a">~/.pwn/extrospection/</text>
<text xml:space="preserve" text-anchor="middle" x="995.12" y="-350.68" font-family="Helvetica,sans-Serif" font-size="11.00" fill="#0f172a">web/*.png</text>
</g>
<!-- Watch&#45;&gt;Shots -->
<g id="edge16" class="edge">
<title>Watch&#45;&gt;Shots</title>
<path fill="none" stroke="#f59e0b" stroke-width="1.3" d="M725.33,-352.37C783.63,-354.27 866.87,-356.99 925.23,-358.89"/>
<polygon fill="#f59e0b" stroke="#f59e0b" stroke-width="1.3" points="925.04,-361.68 933.13,-359.15 925.22,-356.09 925.04,-361.68"/>
</g>
<!-- Verify&#45;&gt;Store -->
<g id="edge18" class="edge">
<title>Verify&#45;&gt;Store</title>
<path fill="none" stroke="#f59e0b" stroke-width="1.3" d="M718.13,-290.29C731.55,-295.99 745.62,-302.14 758.62,-308.13 809.93,-331.79 824.76,-334.53 872.25,-365.13 894.83,-379.68 898.05,-386.64 919.25,-403.13 930.18,-411.63 942.14,-420.69 953.23,-428.98"/>
<polygon fill="#f59e0b" stroke="#f59e0b" stroke-width="1.3" points="951.46,-431.15 959.54,-433.69 954.8,-426.66 951.46,-431.15"/>
<text xml:space="preserve" text-anchor="middle" x="832.88" y="-377.58" font-family="Helvetica,sans-Serif" font-size="9.00" fill="#cbd5e1">:confirmed</text>
<text xml:space="preserve" text-anchor="middle" x="832.88" y="-367.08" font-family="Helvetica,sans-Serif" font-size="9.00" fill="#cbd5e1">:intel obs (ttl 30d)</text>
</g>
<!-- Mist -->
<g id="node19" class="node">
<title>Mist</title>
<path fill="#fca5a5" stroke="#334155" stroke-width="2" d="M1048.5,-298.38C1048.5,-298.38 941.75,-298.38 941.75,-298.38 935.75,-298.38 929.75,-292.38 929.75,-286.38 929.75,-286.38 929.75,-261.88 929.75,-261.88 929.75,-255.88 935.75,-249.88 941.75,-249.88 941.75,-249.88 1048.5,-249.88 1048.5,-249.88 1054.5,-249.88 1060.5,-255.88 1060.5,-261.88 1060.5,-261.88 1060.5,-286.38 1060.5,-286.38 1060.5,-292.38 1054.5,-298.38 1048.5,-298.38"/>
<text xml:space="preserve" text-anchor="middle" x="995.12" y="-283.93" font-family="Helvetica,sans-Serif" font-size="11.00" fill="#0f172a">Mistakes.record</text>
<text xml:space="preserve" text-anchor="middle" x="995.12" y="-270.43" font-family="Helvetica,sans-Serif" font-size="11.00" fill="#0f172a">(tool:&#39;assumption&#39;)</text>
<text xml:space="preserve" text-anchor="middle" x="995.12" y="-256.93" font-family="Helvetica,sans-Serif" font-size="11.00" fill="#0f172a">→ KNOWN MISTAKES</text>
</g>
<!-- Verify&#45;&gt;Mist -->
<g id="edge17" class="edge">
<title>Verify&#45;&gt;Mist</title>
<path fill="none" stroke="#fb7185" stroke-width="2" d="M747.41,-262.49C785.93,-261.89 831.3,-261.87 872.25,-263.63 887.1,-264.27 902.95,-265.35 918.13,-266.57"/>
<polygon fill="#fb7185" stroke="#fb7185" stroke-width="2" points="917.82,-269.36 926.03,-267.23 918.29,-263.77 917.82,-269.36"/>
<text xml:space="preserve" text-anchor="middle" x="832.88" y="-265.58" font-family="Helvetica,sans-Serif" font-size="9.00" fill="#cbd5e1">:refuted</text>
</g>
<!-- Mem -->
<g id="node20" class="node">
<title>Mem</title>
<path fill="#c4b5fd" stroke="#334155" stroke-width="1.4" d="M1059,-213.38C1059,-213.38 931.25,-213.38 931.25,-213.38 925.25,-213.38 919.25,-207.38 919.25,-201.38 919.25,-201.38 919.25,-176.88 919.25,-176.88 919.25,-170.88 925.25,-164.88 931.25,-164.88 931.25,-164.88 1059,-164.88 1059,-164.88 1065,-164.88 1071,-170.88 1071,-176.88 1071,-176.88 1071,-201.38 1071,-201.38 1071,-207.38 1065,-213.38 1059,-213.38"/>
<text xml:space="preserve" text-anchor="middle" x="995.12" y="-198.93" font-family="Helvetica,sans-Serif" font-size="11.00" fill="#0f172a">PWN::Memory :fact</text>
<text xml:space="preserve" text-anchor="middle" x="995.12" y="-185.43" font-family="Helvetica,sans-Serif" font-size="11.00" fill="#0f172a">[UNVERIFIED yyyy&#45;mm&#45;dd]</text>
<text xml:space="preserve" text-anchor="middle" x="995.12" y="-171.93" font-family="Helvetica,sans-Serif" font-size="11.00" fill="#0f172a">(revalidate_memory)</text>
</g>
<!-- Verify&#45;&gt;Mem -->
<g id="edge19" class="edge">
<title>Verify&#45;&gt;Mem</title>
<path fill="none" stroke="#a78bfa" stroke-width="1.3" stroke-dasharray="5,2" d="M727.94,-239.9C738.65,-234.76 749.24,-228.83 758.62,-222.13 777.55,-208.62 772.27,-192.63 793.5,-183.13 829.12,-167.2 871.97,-166.36 908.91,-170.45"/>
<polygon fill="#a78bfa" stroke="#a78bfa" stroke-width="1.3" points="908.43,-173.21 916.71,-171.41 909.11,-167.65 908.43,-173.21"/>
<text xml:space="preserve" text-anchor="middle" x="832.88" y="-195.58" font-family="Helvetica,sans-Serif" font-size="9.00" fill="#cbd5e1">revalidate_memory</text>
<text xml:space="preserve" text-anchor="middle" x="832.88" y="-185.08" font-family="Helvetica,sans-Serif" font-size="9.00" fill="#cbd5e1">mark stale :fact</text>
</g>
<!-- Corr -->
<g id="node15" class="node">
<title>Corr</title>
<path fill="#fcd34d" stroke="#334155" stroke-width="2" d="M703.38,-204.38C703.38,-204.38 607.88,-204.38 607.88,-204.38 601.88,-204.38 595.88,-198.38 595.88,-192.38 595.88,-192.38 595.88,-167.88 595.88,-167.88 595.88,-161.88 601.88,-155.88 607.88,-155.88 607.88,-155.88 703.38,-155.88 703.38,-155.88 709.38,-155.88 715.38,-161.88 715.38,-167.88 715.38,-167.88 715.38,-192.38 715.38,-192.38 715.38,-198.38 709.38,-204.38 703.38,-204.38"/>
<text xml:space="preserve" text-anchor="middle" x="655.62" y="-189.93" font-family="Helvetica,sans-Serif" font-size="11.00" fill="#0f172a">extro_correlate</text>
<text xml:space="preserve" text-anchor="middle" x="655.62" y="-176.43" font-family="Helvetica,sans-Serif" font-size="11.00" fill="#0f172a">join with Learning</text>
<text xml:space="preserve" text-anchor="middle" x="655.62" y="-162.93" font-family="Helvetica,sans-Serif" font-size="11.00" fill="#0f172a">+ Mistakes + Memory</text>
</g>
<!-- Prompt -->
<g id="node18" class="node">
<title>Prompt</title>
<path fill="#c4b5fd" stroke="#334155" stroke-width="1.4" d="M1045.88,-129.13C1045.88,-129.13 944.38,-129.13 944.38,-129.13 938.38,-129.13 932.38,-123.13 932.38,-117.13 932.38,-117.13 932.38,-105.13 932.38,-105.13 932.38,-99.13 938.38,-93.13 944.38,-93.13 944.38,-93.13 1045.88,-93.13 1045.88,-93.13 1051.88,-93.13 1057.88,-99.13 1057.88,-105.13 1057.88,-105.13 1057.88,-117.13 1057.88,-117.13 1057.88,-123.13 1051.88,-129.13 1045.88,-129.13"/>
<text xml:space="preserve" text-anchor="middle" x="995.12" y="-114.18" font-family="Helvetica,sans-Serif" font-size="11.00" fill="#0f172a">EXTROSPECTION</text>
<text xml:space="preserve" text-anchor="middle" x="995.12" y="-100.68" font-family="Helvetica,sans-Serif" font-size="11.00" fill="#0f172a">block in system prompt</text>
</g>
<!-- Corr&#45;&gt;Prompt -->
<g id="edge20" class="edge">
<title>Corr&#45;&gt;Prompt</title>
<path fill="none" stroke="#a78bfa" stroke-width="2" d="M716.35,-155.48C740.01,-146.64 767.67,-137.44 793.5,-131.63 835.34,-122.23 883.07,-117.13 921.48,-114.37"/>
<polygon fill="#a78bfa" stroke="#a78bfa" stroke-width="2" points="921.24,-117.19 929.03,-113.86 920.86,-111.6 921.24,-117.19"/>
<text xml:space="preserve" text-anchor="middle" x="832.88" y="-133.58" font-family="Helvetica,sans-Serif" font-size="9.00" fill="#cbd5e1">findings</text>
</g>
<!-- Store&#45;&gt;Corr -->
<g id="edge22" class="edge">
<title>Store&#45;&gt;Corr</title>
<path fill="none" stroke="#fbbf24" stroke-width="1.3" stroke-dasharray="5,2" d="M951.61,-435.93C939.34,-427.21 927.15,-416.19 919.25,-403.13 851.01,-290.27 972.62,-195.69 872.25,-110.13 820.43,-65.97 740.18,-113.46 693.59,-148.9"/>
<polygon fill="#fbbf24" stroke="#fbbf24" stroke-width="1.3" points="692.01,-146.58 687.41,-153.7 695.44,-151 692.01,-146.58"/>
</g>
<!-- Store&#45;&gt;Prompt -->
<g id="edge21" class="edge">
<title>Store&#45;&gt;Prompt</title>
<path fill="none" stroke="#fbbf24" stroke-width="1.3" stroke-dasharray="5,2" d="M954.46,-435.47C941.87,-426.61 928.81,-415.61 919.25,-403.13 867.09,-335.05 864.92,-307.67 849.04,-223.38 840.93,-180.34 883.31,-151.22 924.47,-133.45"/>
<polygon fill="#fbbf24" stroke="#fbbf24" stroke-width="1.3" points="925.35,-136.12 931.68,-130.48 923.21,-130.95 925.35,-136.12"/>
<text xml:space="preserve" text-anchor="middle" x="832.88" y="-214.83" font-family="Helvetica,sans-Serif" font-size="9.00" fill="#cbd5e1">inject</text>
</g>
<!-- Mem&#45;&gt;Corr -->
<g id="edge23" class="edge">
<title>Mem&#45;&gt;Corr</title>
<path fill="none" stroke="#a78bfa" stroke-width="1.3" stroke-dasharray="5,2" d="M938.64,-164.25C931.46,-159.33 924.71,-153.64 919.25,-147.13 878.67,-98.8 923.74,-49.64 872.25,-13.13 797.18,40.09 711.81,-83.76 675.05,-146.49"/>
<polygon fill="#a78bfa" stroke="#a78bfa" stroke-width="1.3" points="672.75,-144.88 671.18,-153.21 677.6,-147.68 672.75,-144.88"/>
<text xml:space="preserve" text-anchor="middle" x="832.88" y="-25.58" font-family="Helvetica,sans-Serif" font-size="9.00" fill="#cbd5e1">rule (f)</text>
<text xml:space="preserve" text-anchor="middle" x="832.88" y="-15.08" font-family="Helvetica,sans-Serif" font-size="9.00" fill="#cbd5e1">stale :fact</text>
</g>
</g>
</svg>
