<?xml version="1.0" encoding="UTF-8" standalone="no"?>
<!DOCTYPE svg PUBLIC "-//W3C//DTD SVG 1.1//EN"
 "http://www.w3.org/Graphics/SVG/1.1/DTD/svg11.dtd">
<!-- Generated by graphviz version 14.1.2 (0)
 -->
<!-- Title: PWN_Extrospection Pages: 1 -->
<svg width="794pt" height="584pt"
 viewBox="0.00 0.00 794.00 584.00" xmlns="http://www.w3.org/2000/svg" xmlns:xlink="http://www.w3.org/1999/xlink">
<g id="graph0" class="graph" transform="scale(1 1) rotate(0) translate(43.2 541.2)">
<title>PWN_Extrospection</title>
<polygon fill="#0f172a" stroke="none" points="-43.2,43.2 -43.2,-541.2 750.45,-541.2 750.45,43.2 -43.2,43.2"/>
<text xml:space="preserve" text-anchor="start" x="107.25" y="-476" font-family="sans-Serif" font-weight="bold" font-size="20.00" fill="#e2e8f0">PWN::AI::Agent::Extrospection — World Awareness</text>
<text xml:space="preserve" text-anchor="start" x="255" y="-464.55" font-family="sans-Serif" font-size="11.00" fill="#94a3b8">snapshot · drift · observe · intel · correlate</text>
<g id="clust1" class="cluster">
<title>cluster_world</title>
<path fill="#450a0a" stroke="#b91c1c" stroke-dasharray="5,2" d="M20,-80C20,-80 155.5,-80 155.5,-80 161.5,-80 167.5,-86 167.5,-92 167.5,-92 167.5,-439 167.5,-439 167.5,-445 161.5,-451 155.5,-451 155.5,-451 20,-451 20,-451 14,-451 8,-445 8,-439 8,-439 8,-92 8,-92 8,-86 14,-80 20,-80"/>
<text xml:space="preserve" text-anchor="middle" x="87.75" y="-428" font-family="sans-Serif" font-size="20.00" fill="#fecaca">Outside World</text>
</g>
<g id="clust3" class="cluster">
<title>cluster_eng</title>
<path fill="#422006" stroke="#a16207" stroke-width="2" d="M258.5,-8C258.5,-8 439.5,-8 439.5,-8 445.5,-8 451.5,-14 451.5,-20 451.5,-20 451.5,-367 451.5,-367 451.5,-373 445.5,-379 439.5,-379 439.5,-379 258.5,-379 258.5,-379 252.5,-379 246.5,-373 246.5,-367 246.5,-367 246.5,-20 246.5,-20 246.5,-14 252.5,-8 258.5,-8"/>
<text xml:space="preserve" text-anchor="middle" x="349" y="-356" font-family="sans-Serif" font-size="20.00" fill="#fde68a">Extrospection Engine</text>
</g>
<!-- Host -->
<g id="node1" class="node">
<title>Host</title>
<path fill="#fda4af" stroke="#334155" stroke-width="1.4" d="M132.88,-412C132.88,-412 42.62,-412 42.62,-412 36.62,-412 30.62,-406 30.62,-400 30.62,-400 30.62,-388 30.62,-388 30.62,-382 36.62,-376 42.62,-376 42.62,-376 132.88,-376 132.88,-376 138.88,-376 144.88,-382 144.88,-388 144.88,-388 144.88,-400 144.88,-400 144.88,-406 138.88,-412 132.88,-412"/>
<text xml:space="preserve" text-anchor="middle" x="87.75" y="-397.05" font-family="sans-Serif" font-size="11.00" fill="#0f172a">host</text>
<text xml:space="preserve" text-anchor="middle" x="87.75" y="-383.55" font-family="sans-Serif" font-size="11.00" fill="#0f172a">uname · distro · arch</text>
</g>
<!-- Snap -->
<g id="node6" class="node">
<title>Snap</title>
<path fill="#fcd34d" stroke="#334155" stroke-width="1.4" d="M381.25,-340C381.25,-340 315.75,-340 315.75,-340 309.75,-340 303.75,-334 303.75,-328 303.75,-328 303.75,-316 303.75,-316 303.75,-310 309.75,-304 315.75,-304 315.75,-304 381.25,-304 381.25,-304 387.25,-304 393.25,-310 393.25,-316 393.25,-316 393.25,-328 393.25,-328 393.25,-334 387.25,-340 381.25,-340"/>
<text xml:space="preserve" text-anchor="middle" x="348.5" y="-325.05" font-family="sans-Serif" font-size="11.00" fill="#0f172a">extro_snapshot</text>
<text xml:space="preserve" text-anchor="middle" x="348.5" y="-311.55" font-family="sans-Serif" font-size="11.00" fill="#0f172a">fingerprint host</text>
</g>
<!-- Host&#45;&gt;Snap -->
<g id="edge1" class="edge">
<title>Host&#45;&gt;Snap</title>
<path fill="none" stroke="#fb7185" stroke-width="1.3" d="M145.53,-378.2C189.65,-365.92 250.42,-349.01 293.75,-336.96"/>
<polygon fill="#fb7185" stroke="#fb7185" stroke-width="1.3" points="294.42,-339.68 301.38,-334.83 292.92,-334.28 294.42,-339.68"/>
</g>
<!-- Net -->
<g id="node2" class="node">
<title>Net</title>
<path fill="#fda4af" stroke="#334155" stroke-width="1.4" d="M144.5,-340C144.5,-340 31,-340 31,-340 25,-340 19,-334 19,-328 19,-328 19,-316 19,-316 19,-310 25,-304 31,-304 31,-304 144.5,-304 144.5,-304 150.5,-304 156.5,-310 156.5,-316 156.5,-316 156.5,-328 156.5,-328 156.5,-334 150.5,-340 144.5,-340"/>
<text xml:space="preserve" text-anchor="middle" x="87.75" y="-325.05" font-family="sans-Serif" font-size="11.00" fill="#0f172a">net</text>
<text xml:space="preserve" text-anchor="middle" x="87.75" y="-311.55" font-family="sans-Serif" font-size="11.00" fill="#0f172a">interfaces · listening ports</text>
</g>
<!-- Net&#45;&gt;Snap -->
<g id="edge2" class="edge">
<title>Net&#45;&gt;Snap</title>
<path fill="none" stroke="#fb7185" stroke-width="1.3" d="M157.07,-322C199.72,-322 253.86,-322 293.5,-322"/>
<polygon fill="#fb7185" stroke="#fb7185" stroke-width="1.3" points="293.28,-324.8 301.28,-322 293.28,-319.2 293.28,-324.8"/>
</g>
<!-- Tool -->
<g id="node3" class="node">
<title>Tool</title>
<path fill="#fda4af" stroke="#334155" stroke-width="1.4" d="M135.88,-268C135.88,-268 39.62,-268 39.62,-268 33.62,-268 27.62,-262 27.62,-256 27.62,-256 27.62,-244 27.62,-244 27.62,-238 33.62,-232 39.62,-232 39.62,-232 135.88,-232 135.88,-232 141.88,-232 147.88,-238 147.88,-244 147.88,-244 147.88,-256 147.88,-256 147.88,-262 141.88,-268 135.88,-268"/>
<text xml:space="preserve" text-anchor="middle" x="87.75" y="-253.05" font-family="sans-Serif" font-size="11.00" fill="#0f172a">toolchain</text>
<text xml:space="preserve" text-anchor="middle" x="87.75" y="-239.55" font-family="sans-Serif" font-size="11.00" fill="#0f172a">nmap · burp · msf · git</text>
</g>
<!-- Drift -->
<g id="node7" class="node">
<title>Drift</title>
<path fill="#fcd34d" stroke="#334155" stroke-width="1.4" d="M384.25,-268C384.25,-268 312.75,-268 312.75,-268 306.75,-268 300.75,-262 300.75,-256 300.75,-256 300.75,-244 300.75,-244 300.75,-238 306.75,-232 312.75,-232 312.75,-232 384.25,-232 384.25,-232 390.25,-232 396.25,-238 396.25,-244 396.25,-244 396.25,-256 396.25,-256 396.25,-262 390.25,-268 384.25,-268"/>
<text xml:space="preserve" text-anchor="middle" x="348.5" y="-253.05" font-family="sans-Serif" font-size="11.00" fill="#0f172a">extro_drift</text>
<text xml:space="preserve" text-anchor="middle" x="348.5" y="-239.55" font-family="sans-Serif" font-size="11.00" fill="#0f172a">delta vs baseline</text>
</g>
<!-- Tool&#45;&gt;Drift -->
<g id="edge3" class="edge">
<title>Tool&#45;&gt;Drift</title>
<path fill="none" stroke="#fb7185" stroke-width="1.3" d="M148.44,-250C191.13,-250 248.26,-250 290.36,-250"/>
<polygon fill="#fb7185" stroke="#fb7185" stroke-width="1.3" points="290.22,-252.8 298.22,-250 290.22,-247.2 290.22,-252.8"/>
</g>
<!-- Repo -->
<g id="node4" class="node">
<title>Repo</title>
<path fill="#fda4af" stroke="#334155" stroke-width="1.4" d="M135.12,-196C135.12,-196 40.38,-196 40.38,-196 34.38,-196 28.38,-190 28.38,-184 28.38,-184 28.38,-172 28.38,-172 28.38,-166 34.38,-160 40.38,-160 40.38,-160 135.12,-160 135.12,-160 141.12,-160 147.12,-166 147.12,-172 147.12,-172 147.12,-184 147.12,-184 147.12,-190 141.12,-196 135.12,-196"/>
<text xml:space="preserve" text-anchor="middle" x="87.75" y="-181.05" font-family="sans-Serif" font-size="11.00" fill="#0f172a">repo</text>
<text xml:space="preserve" text-anchor="middle" x="87.75" y="-167.55" font-family="sans-Serif" font-size="11.00" fill="#0f172a">HEAD · dirty · branch</text>
</g>
<!-- Repo&#45;&gt;Drift -->
<g id="edge4" class="edge">
<title>Repo&#45;&gt;Drift</title>
<path fill="none" stroke="#fb7185" stroke-width="1.3" d="M147.79,-194.43C190.78,-206.39 248.65,-222.49 291.03,-234.29"/>
<polygon fill="#fb7185" stroke="#fb7185" stroke-width="1.3" points="290.01,-236.91 298.47,-236.36 291.51,-231.51 290.01,-236.91"/>
</g>
<!-- Feeds -->
<g id="node5" class="node">
<title>Feeds</title>
<path fill="#fda4af" stroke="#334155" stroke-width="1.4" d="M147.5,-124C147.5,-124 28,-124 28,-124 22,-124 16,-118 16,-112 16,-112 16,-100 16,-100 16,-94 22,-88 28,-88 28,-88 147.5,-88 147.5,-88 153.5,-88 159.5,-94 159.5,-100 159.5,-100 159.5,-112 159.5,-112 159.5,-118 153.5,-124 147.5,-124"/>
<text xml:space="preserve" text-anchor="middle" x="87.75" y="-109.05" font-family="sans-Serif" font-size="11.00" fill="#0f172a">intel feeds</text>
<text xml:space="preserve" text-anchor="middle" x="87.75" y="-95.55" font-family="sans-Serif" font-size="11.00" fill="#0f172a">NVD · CIRCL · Exploit&#45;DB</text>
</g>
<!-- Intel -->
<g id="node9" class="node">
<title>Intel</title>
<path fill="#fcd34d" stroke="#334155" stroke-width="1.4" d="M393.25,-124C393.25,-124 303.75,-124 303.75,-124 297.75,-124 291.75,-118 291.75,-112 291.75,-112 291.75,-100 291.75,-100 291.75,-94 297.75,-88 303.75,-88 303.75,-88 393.25,-88 393.25,-88 399.25,-88 405.25,-94 405.25,-100 405.25,-100 405.25,-112 405.25,-112 405.25,-118 399.25,-124 393.25,-124"/>
<text xml:space="preserve" text-anchor="middle" x="348.5" y="-109.05" font-family="sans-Serif" font-size="11.00" fill="#0f172a">extro_intel</text>
<text xml:space="preserve" text-anchor="middle" x="348.5" y="-95.55" font-family="sans-Serif" font-size="11.00" fill="#0f172a">CVE / exploit lookup</text>
</g>
<!-- Feeds&#45;&gt;Intel -->
<g id="edge5" class="edge">
<title>Feeds&#45;&gt;Intel</title>
<path fill="none" stroke="#fb7185" stroke-width="1.3" d="M160.14,-106C198.04,-106 244.31,-106 281.38,-106"/>
<polygon fill="#fb7185" stroke="#fb7185" stroke-width="1.3" points="281.12,-108.8 289.12,-106 281.12,-103.2 281.12,-108.8"/>
</g>
<!-- Store -->
<g id="node11" class="node">
<title>Store</title>
<path fill="#fcd34d" stroke="#334155" stroke-width="1.4" d="M695.62,-197.69C695.62,-200.1 672.71,-202.06 644.5,-202.06 616.29,-202.06 593.38,-200.1 593.38,-197.69 593.38,-197.69 593.38,-158.31 593.38,-158.31 593.38,-155.9 616.29,-153.94 644.5,-153.94 672.71,-153.94 695.62,-155.9 695.62,-158.31 695.62,-158.31 695.62,-197.69 695.62,-197.69"/>
<path fill="none" stroke="#334155" stroke-width="1.4" d="M695.62,-197.69C695.62,-195.27 672.71,-193.31 644.5,-193.31 616.29,-193.31 593.38,-195.27 593.38,-197.69"/>
<text xml:space="preserve" text-anchor="middle" x="644.5" y="-181.05" font-family="sans-Serif" font-size="11.00" fill="#0f172a">~/.pwn/</text>
<text xml:space="preserve" text-anchor="middle" x="644.5" y="-167.55" font-family="sans-Serif" font-size="11.00" fill="#0f172a">extrospection.json</text>
</g>
<!-- Snap&#45;&gt;Store -->
<g id="edge6" class="edge">
<title>Snap&#45;&gt;Store</title>
<path fill="none" stroke="#f59e0b" stroke-width="1.3" d="M393.84,-308.22C411.99,-302.09 433.03,-294.38 451.5,-286 503.15,-262.57 559.38,-230.05 597.56,-206.83"/>
<polygon fill="#f59e0b" stroke="#f59e0b" stroke-width="1.3" points="598.86,-209.32 604.22,-202.75 595.94,-204.54 598.86,-209.32"/>
</g>
<!-- Drift&#45;&gt;Store -->
<g id="edge7" class="edge">
<title>Drift&#45;&gt;Store</title>
<path fill="none" stroke="#f59e0b" stroke-width="1.3" d="M396.77,-239.03C434.24,-230.27 487.9,-217.59 534.75,-206 550.5,-202.1 567.5,-197.78 583.28,-193.72"/>
<polygon fill="#f59e0b" stroke="#f59e0b" stroke-width="1.3" points="583.97,-196.43 591.02,-191.72 582.57,-191.01 583.97,-196.43"/>
</g>
<!-- Obs -->
<g id="node8" class="node">
<title>Obs</title>
<path fill="#fcd34d" stroke="#334155" stroke-width="1.4" d="M385,-196C385,-196 312,-196 312,-196 306,-196 300,-190 300,-184 300,-184 300,-172 300,-172 300,-166 306,-160 312,-160 312,-160 385,-160 385,-160 391,-160 397,-166 397,-172 397,-172 397,-184 397,-184 397,-190 391,-196 385,-196"/>
<text xml:space="preserve" text-anchor="middle" x="348.5" y="-181.05" font-family="sans-Serif" font-size="11.00" fill="#0f172a">extro_observe</text>
<text xml:space="preserve" text-anchor="middle" x="348.5" y="-167.55" font-family="sans-Serif" font-size="11.00" fill="#0f172a">record recon fact</text>
</g>
<!-- Obs&#45;&gt;Store -->
<g id="edge8" class="edge">
<title>Obs&#45;&gt;Store</title>
<path fill="none" stroke="#f59e0b" stroke-width="1.3" d="M397.39,-178C448.09,-178 528.24,-178 583.21,-178"/>
<polygon fill="#f59e0b" stroke="#f59e0b" stroke-width="1.3" points="583.2,-180.8 591.2,-178 583.2,-175.2 583.2,-180.8"/>
</g>
<!-- Intel&#45;&gt;Store -->
<g id="edge9" class="edge">
<title>Intel&#45;&gt;Store</title>
<path fill="none" stroke="#f59e0b" stroke-width="1.3" d="M405.84,-119.8C456.69,-132.25 531.3,-150.52 583.32,-163.26"/>
<polygon fill="#f59e0b" stroke="#f59e0b" stroke-width="1.3" points="582.41,-165.92 590.84,-165.1 583.74,-160.48 582.41,-165.92"/>
<text xml:space="preserve" text-anchor="middle" x="512.62" y="-152.52" font-family="sans-Serif" font-size="9.00" fill="#cbd5e1">record:true</text>
</g>
<!-- Corr -->
<g id="node10" class="node">
<title>Corr</title>
<path fill="#fcd34d" stroke="#334155" stroke-width="2" d="M386.5,-52C386.5,-52 310.5,-52 310.5,-52 304.5,-52 298.5,-46 298.5,-40 298.5,-40 298.5,-28 298.5,-28 298.5,-22 304.5,-16 310.5,-16 310.5,-16 386.5,-16 386.5,-16 392.5,-16 398.5,-22 398.5,-28 398.5,-28 398.5,-40 398.5,-40 398.5,-46 392.5,-52 386.5,-52"/>
<text xml:space="preserve" text-anchor="middle" x="348.5" y="-37.05" font-family="sans-Serif" font-size="11.00" fill="#0f172a">extro_correlate</text>
<text xml:space="preserve" text-anchor="middle" x="348.5" y="-23.55" font-family="sans-Serif" font-size="11.00" fill="#0f172a">join with Learning</text>
</g>
<!-- Prompt -->
<g id="node12" class="node">
<title>Prompt</title>
<path fill="#c4b5fd" stroke="#334155" stroke-width="1.4" d="M695.25,-77C695.25,-77 593.75,-77 593.75,-77 587.75,-77 581.75,-71 581.75,-65 581.75,-65 581.75,-53 581.75,-53 581.75,-47 587.75,-41 593.75,-41 593.75,-41 695.25,-41 695.25,-41 701.25,-41 707.25,-47 707.25,-53 707.25,-53 707.25,-65 707.25,-65 707.25,-71 701.25,-77 695.25,-77"/>
<text xml:space="preserve" text-anchor="middle" x="644.5" y="-62.05" font-family="sans-Serif" font-size="11.00" fill="#0f172a">EXTROSPECTION</text>
<text xml:space="preserve" text-anchor="middle" x="644.5" y="-48.55" font-family="sans-Serif" font-size="11.00" fill="#0f172a">block in system prompt</text>
</g>
<!-- Corr&#45;&gt;Prompt -->
<g id="edge10" class="edge">
<title>Corr&#45;&gt;Prompt</title>
<path fill="none" stroke="#a78bfa" stroke-width="2" d="M399.37,-38.24C446.27,-42.23 517.05,-48.25 570.34,-52.78"/>
<polygon fill="#a78bfa" stroke="#a78bfa" stroke-width="2" points="569.86,-55.55 578.07,-53.44 570.34,-49.97 569.86,-55.55"/>
<text xml:space="preserve" text-anchor="middle" x="512.62" y="-51.42" font-family="sans-Serif" font-size="9.00" fill="#cbd5e1">findings</text>
</g>
<!-- Store&#45;&gt;Corr -->
<g id="edge12" class="edge">
<title>Store&#45;&gt;Corr</title>
<path fill="none" stroke="#fbbf24" stroke-width="1.3" stroke-dasharray="5,2" d="M625.47,-153.5C596.26,-113.98 541.21,-40.24 534.75,-37 496.22,-17.67 447.26,-17.76 409.35,-22.23"/>
<polygon fill="#fbbf24" stroke="#fbbf24" stroke-width="1.3" points="408.99,-19.45 401.42,-23.27 409.71,-25 408.99,-19.45"/>
</g>
<!-- Store&#45;&gt;Prompt -->
<g id="edge11" class="edge">
<title>Store&#45;&gt;Prompt</title>
<path fill="none" stroke="#fbbf24" stroke-width="1.3" stroke-dasharray="5,2" d="M644.5,-153.34C644.5,-134.16 644.5,-107.51 644.5,-87.42"/>
<polygon fill="#fbbf24" stroke="#fbbf24" stroke-width="1.3" points="647.3,-87.56 644.5,-79.56 641.7,-87.56 647.3,-87.56"/>
<text xml:space="preserve" text-anchor="middle" x="636.25" y="-112.17" font-family="sans-Serif" font-size="9.00" fill="#cbd5e1">inject</text>
</g>
</g>
</svg>
