<?xml version="1.0" encoding="UTF-8" standalone="no"?>
<!DOCTYPE svg PUBLIC "-//W3C//DTD SVG 1.1//EN"
 "http://www.w3.org/Graphics/SVG/1.1/DTD/svg11.dtd">
<!-- Generated by graphviz version 14.1.2 (0)
 -->
<!-- Title: PWN_Extrospection Pages: 1 -->
<svg width="827pt" height="635pt"
 viewBox="0.00 0.00 827.00 635.00" xmlns="http://www.w3.org/2000/svg" xmlns:xlink="http://www.w3.org/1999/xlink">
<g id="graph0" class="graph" transform="scale(1 1) rotate(0) translate(43.2 592.2)">
<title>PWN_Extrospection</title>
<polygon fill="#0f172a" stroke="none" points="-43.2,43.2 -43.2,-592.2 783.95,-592.2 783.95,43.2 -43.2,43.2"/>
<text xml:space="preserve" text-anchor="start" x="124" y="-527" font-family="sans-Serif" font-weight="bold" font-size="20.00" fill="#e2e8f0">PWN::AI::Agent::Extrospection — World Awareness</text>
<text xml:space="preserve" text-anchor="start" x="175.75" y="-515.55" font-family="sans-Serif" font-size="11.00" fill="#94a3b8">snapshot · drift · observe · intel · correlate &#160;— &#160;host · net · toolchain · repo · env · rf</text>
<g id="clust1" class="cluster">
<title>cluster_world</title>
<path fill="#450a0a" stroke="#b91c1c" stroke-dasharray="5,2" d="M20,-47C20,-47 155.5,-47 155.5,-47 161.5,-47 167.5,-53 167.5,-59 167.5,-59 167.5,-490 167.5,-490 167.5,-496 161.5,-502 155.5,-502 155.5,-502 20,-502 20,-502 14,-502 8,-496 8,-490 8,-490 8,-59 8,-59 8,-53 14,-47 20,-47"/>
<text xml:space="preserve" text-anchor="middle" x="87.75" y="-479" font-family="sans-Serif" font-size="20.00" fill="#fecaca">Outside World</text>
</g>
<g id="clust3" class="cluster">
<title>cluster_eng</title>
<path fill="#422006" stroke="#a16207" stroke-width="2" d="M292,-8C292,-8 473,-8 473,-8 479,-8 485,-14 485,-20 485,-20 485,-404 485,-404 485,-410 479,-416 473,-416 473,-416 292,-416 292,-416 286,-416 280,-410 280,-404 280,-404 280,-20 280,-20 280,-14 286,-8 292,-8"/>
<text xml:space="preserve" text-anchor="middle" x="382.5" y="-393" font-family="sans-Serif" font-size="20.00" fill="#fde68a">Extrospection Engine</text>
</g>
<!-- Host -->
<g id="node1" class="node">
<title>Host</title>
<path fill="#fda4af" stroke="#334155" stroke-width="1.4" d="M132.88,-463C132.88,-463 42.62,-463 42.62,-463 36.62,-463 30.62,-457 30.62,-451 30.62,-451 30.62,-439 30.62,-439 30.62,-433 36.62,-427 42.62,-427 42.62,-427 132.88,-427 132.88,-427 138.88,-427 144.88,-433 144.88,-439 144.88,-439 144.88,-451 144.88,-451 144.88,-457 138.88,-463 132.88,-463"/>
<text xml:space="preserve" text-anchor="middle" x="87.75" y="-448.05" font-family="sans-Serif" font-size="11.00" fill="#0f172a">host</text>
<text xml:space="preserve" text-anchor="middle" x="87.75" y="-434.55" font-family="sans-Serif" font-size="11.00" fill="#0f172a">uname · distro · arch</text>
</g>
<!-- Snap -->
<g id="node7" class="node">
<title>Snap</title>
<path fill="#fcd34d" stroke="#334155" stroke-width="1.4" d="M436.88,-376.25C436.88,-376.25 327.12,-376.25 327.12,-376.25 321.12,-376.25 315.12,-370.25 315.12,-364.25 315.12,-364.25 315.12,-339.75 315.12,-339.75 315.12,-333.75 321.12,-327.75 327.12,-327.75 327.12,-327.75 436.88,-327.75 436.88,-327.75 442.88,-327.75 448.88,-333.75 448.88,-339.75 448.88,-339.75 448.88,-364.25 448.88,-364.25 448.88,-370.25 442.88,-376.25 436.88,-376.25"/>
<text xml:space="preserve" text-anchor="middle" x="382" y="-361.8" font-family="sans-Serif" font-size="11.00" fill="#0f172a">extro_snapshot</text>
<text xml:space="preserve" text-anchor="middle" x="382" y="-348.3" font-family="sans-Serif" font-size="11.00" fill="#0f172a">probe_host/net/toolchain</text>
<text xml:space="preserve" text-anchor="middle" x="382" y="-334.8" font-family="sans-Serif" font-size="11.00" fill="#0f172a">probe_repo/env/rf</text>
</g>
<!-- Host&#45;&gt;Snap -->
<g id="edge1" class="edge">
<title>Host&#45;&gt;Snap</title>
<path fill="none" stroke="#fb7185" stroke-width="1.3" d="M145.45,-426.96C190.9,-412.49 255.12,-392.06 305.03,-376.18"/>
<polygon fill="#fb7185" stroke="#fb7185" stroke-width="1.3" points="305.84,-378.86 312.61,-373.76 304.14,-373.52 305.84,-378.86"/>
</g>
<!-- Net -->
<g id="node2" class="node">
<title>Net</title>
<path fill="#fda4af" stroke="#334155" stroke-width="1.4" d="M144.5,-391C144.5,-391 31,-391 31,-391 25,-391 19,-385 19,-379 19,-379 19,-367 19,-367 19,-361 25,-355 31,-355 31,-355 144.5,-355 144.5,-355 150.5,-355 156.5,-361 156.5,-367 156.5,-367 156.5,-379 156.5,-379 156.5,-385 150.5,-391 144.5,-391"/>
<text xml:space="preserve" text-anchor="middle" x="87.75" y="-376.05" font-family="sans-Serif" font-size="11.00" fill="#0f172a">net</text>
<text xml:space="preserve" text-anchor="middle" x="87.75" y="-362.55" font-family="sans-Serif" font-size="11.00" fill="#0f172a">interfaces · listening ports</text>
</g>
<!-- Net&#45;&gt;Snap -->
<g id="edge2" class="edge">
<title>Net&#45;&gt;Snap</title>
<path fill="none" stroke="#fb7185" stroke-width="1.3" d="M156.9,-368.1C201.13,-364.92 258.85,-360.78 304.63,-357.49"/>
<polygon fill="#fb7185" stroke="#fb7185" stroke-width="1.3" points="304.76,-360.29 312.54,-356.92 304.36,-354.7 304.76,-360.29"/>
</g>
<!-- Tool -->
<g id="node3" class="node">
<title>Tool</title>
<path fill="#fda4af" stroke="#334155" stroke-width="1.4" d="M135.88,-319C135.88,-319 39.62,-319 39.62,-319 33.62,-319 27.62,-313 27.62,-307 27.62,-307 27.62,-295 27.62,-295 27.62,-289 33.62,-283 39.62,-283 39.62,-283 135.88,-283 135.88,-283 141.88,-283 147.88,-289 147.88,-295 147.88,-295 147.88,-307 147.88,-307 147.88,-313 141.88,-319 135.88,-319"/>
<text xml:space="preserve" text-anchor="middle" x="87.75" y="-304.05" font-family="sans-Serif" font-size="11.00" fill="#0f172a">toolchain</text>
<text xml:space="preserve" text-anchor="middle" x="87.75" y="-290.55" font-family="sans-Serif" font-size="11.00" fill="#0f172a">nmap · burp · msf · git</text>
</g>
<!-- Drift -->
<g id="node8" class="node">
<title>Drift</title>
<path fill="#fcd34d" stroke="#334155" stroke-width="1.4" d="M417.75,-292C417.75,-292 346.25,-292 346.25,-292 340.25,-292 334.25,-286 334.25,-280 334.25,-280 334.25,-268 334.25,-268 334.25,-262 340.25,-256 346.25,-256 346.25,-256 417.75,-256 417.75,-256 423.75,-256 429.75,-262 429.75,-268 429.75,-268 429.75,-280 429.75,-280 429.75,-286 423.75,-292 417.75,-292"/>
<text xml:space="preserve" text-anchor="middle" x="382" y="-277.05" font-family="sans-Serif" font-size="11.00" fill="#0f172a">extro_drift</text>
<text xml:space="preserve" text-anchor="middle" x="382" y="-263.55" font-family="sans-Serif" font-size="11.00" fill="#0f172a">delta vs baseline</text>
</g>
<!-- Tool&#45;&gt;Drift -->
<g id="edge3" class="edge">
<title>Tool&#45;&gt;Drift</title>
<path fill="none" stroke="#fb7185" stroke-width="1.3" d="M148.24,-295.5C199.56,-290.76 273.2,-283.96 323.83,-279.28"/>
<polygon fill="#fb7185" stroke="#fb7185" stroke-width="1.3" points="323.97,-282.08 331.67,-278.56 323.45,-276.5 323.97,-282.08"/>
</g>
<!-- Repo -->
<g id="node4" class="node">
<title>Repo</title>
<path fill="#fda4af" stroke="#334155" stroke-width="1.4" d="M141.12,-247C141.12,-247 34.38,-247 34.38,-247 28.38,-247 22.38,-241 22.38,-235 22.38,-235 22.38,-223 22.38,-223 22.38,-217 28.38,-211 34.38,-211 34.38,-211 141.12,-211 141.12,-211 147.12,-211 153.12,-217 153.12,-223 153.12,-223 153.12,-235 153.12,-235 153.12,-241 147.12,-247 141.12,-247"/>
<text xml:space="preserve" text-anchor="middle" x="87.75" y="-232.05" font-family="sans-Serif" font-size="11.00" fill="#0f172a">repo · env</text>
<text xml:space="preserve" text-anchor="middle" x="87.75" y="-218.55" font-family="sans-Serif" font-size="11.00" fill="#0f172a">HEAD · dirty · ruby/gem</text>
</g>
<!-- Repo&#45;&gt;Drift -->
<g id="edge4" class="edge">
<title>Repo&#45;&gt;Drift</title>
<path fill="none" stroke="#fb7185" stroke-width="1.3" d="M153.61,-238.99C204.58,-246.84 274.9,-257.66 323.79,-265.19"/>
<polygon fill="#fb7185" stroke="#fb7185" stroke-width="1.3" points="323.3,-267.95 331.63,-266.4 324.15,-262.41 323.3,-267.95"/>
</g>
<!-- RFhw -->
<g id="node5" class="node">
<title>RFhw</title>
<path fill="#fda4af" stroke="#334155" stroke-width="1.4" d="M136.62,-175.25C136.62,-175.25 38.88,-175.25 38.88,-175.25 32.88,-175.25 26.88,-169.25 26.88,-163.25 26.88,-163.25 26.88,-138.75 26.88,-138.75 26.88,-132.75 32.88,-126.75 38.88,-126.75 38.88,-126.75 136.62,-126.75 136.62,-126.75 142.62,-126.75 148.62,-132.75 148.62,-138.75 148.62,-138.75 148.62,-163.25 148.62,-163.25 148.62,-169.25 142.62,-175.25 136.62,-175.25"/>
<text xml:space="preserve" text-anchor="middle" x="87.75" y="-160.8" font-family="sans-Serif" font-size="11.00" fill="#0f172a">rf &#160;📡</text>
<text xml:space="preserve" text-anchor="middle" x="87.75" y="-147.3" font-family="sans-Serif" font-size="11.00" fill="#0f172a">rtl&#45;sdr · hackrf · flipper</text>
<text xml:space="preserve" text-anchor="middle" x="87.75" y="-133.8" font-family="sans-Serif" font-size="11.00" fill="#0f172a">gqrx sock · serial devs</text>
</g>
<!-- Obs -->
<g id="node9" class="node">
<title>Obs</title>
<path fill="#fcd34d" stroke="#334155" stroke-width="1.4" d="M436.5,-220.25C436.5,-220.25 327.5,-220.25 327.5,-220.25 321.5,-220.25 315.5,-214.25 315.5,-208.25 315.5,-208.25 315.5,-183.75 315.5,-183.75 315.5,-177.75 321.5,-171.75 327.5,-171.75 327.5,-171.75 436.5,-171.75 436.5,-171.75 442.5,-171.75 448.5,-177.75 448.5,-183.75 448.5,-183.75 448.5,-208.25 448.5,-208.25 448.5,-214.25 442.5,-220.25 436.5,-220.25"/>
<text xml:space="preserve" text-anchor="middle" x="382" y="-205.8" font-family="sans-Serif" font-size="11.00" fill="#0f172a">extro_observe</text>
<text xml:space="preserve" text-anchor="middle" x="382" y="-192.3" font-family="sans-Serif" font-size="11.00" fill="#0f172a">recon · vuln · intel</text>
<text xml:space="preserve" text-anchor="middle" x="382" y="-178.8" font-family="sans-Serif" font-size="11.00" fill="#0f172a">target · network · env · rf</text>
</g>
<!-- RFhw&#45;&gt;Obs -->
<g id="edge5" class="edge">
<title>RFhw&#45;&gt;Obs</title>
<path fill="none" stroke="#fb7185" stroke-width="1.3" d="M149.3,-160.32C194.51,-167.28 256.58,-176.84 305.1,-184.31"/>
<polygon fill="#fb7185" stroke="#fb7185" stroke-width="1.3" points="304.65,-187.08 312.98,-185.53 305.5,-181.54 304.65,-187.08"/>
<text xml:space="preserve" text-anchor="middle" x="223.75" y="-175.45" font-family="sans-Serif" font-size="9.00" fill="#cbd5e1">probe_rf</text>
</g>
<!-- Feeds -->
<g id="node6" class="node">
<title>Feeds</title>
<path fill="#fda4af" stroke="#334155" stroke-width="1.4" d="M147.5,-91C147.5,-91 28,-91 28,-91 22,-91 16,-85 16,-79 16,-79 16,-67 16,-67 16,-61 22,-55 28,-55 28,-55 147.5,-55 147.5,-55 153.5,-55 159.5,-61 159.5,-67 159.5,-67 159.5,-79 159.5,-79 159.5,-85 153.5,-91 147.5,-91"/>
<text xml:space="preserve" text-anchor="middle" x="87.75" y="-76.05" font-family="sans-Serif" font-size="11.00" fill="#0f172a">intel feeds</text>
<text xml:space="preserve" text-anchor="middle" x="87.75" y="-62.55" font-family="sans-Serif" font-size="11.00" fill="#0f172a">NVD · CIRCL · Exploit&#45;DB</text>
</g>
<!-- Intel -->
<g id="node10" class="node">
<title>Intel</title>
<path fill="#fcd34d" stroke="#334155" stroke-width="1.4" d="M426.75,-136C426.75,-136 337.25,-136 337.25,-136 331.25,-136 325.25,-130 325.25,-124 325.25,-124 325.25,-112 325.25,-112 325.25,-106 331.25,-100 337.25,-100 337.25,-100 426.75,-100 426.75,-100 432.75,-100 438.75,-106 438.75,-112 438.75,-112 438.75,-124 438.75,-124 438.75,-130 432.75,-136 426.75,-136"/>
<text xml:space="preserve" text-anchor="middle" x="382" y="-121.05" font-family="sans-Serif" font-size="11.00" fill="#0f172a">extro_intel</text>
<text xml:space="preserve" text-anchor="middle" x="382" y="-107.55" font-family="sans-Serif" font-size="11.00" fill="#0f172a">CVE / exploit lookup</text>
</g>
<!-- Feeds&#45;&gt;Intel -->
<g id="edge6" class="edge">
<title>Feeds&#45;&gt;Intel</title>
<path fill="none" stroke="#fb7185" stroke-width="1.3" d="M159.87,-83.95C207.19,-91.24 268.91,-100.74 315.12,-107.86"/>
<polygon fill="#fb7185" stroke="#fb7185" stroke-width="1.3" points="314.45,-110.59 322.78,-109.04 315.3,-105.05 314.45,-110.59"/>
</g>
<!-- Store -->
<g id="node12" class="node">
<title>Store</title>
<path fill="#fcd34d" stroke="#334155" stroke-width="1.4" d="M729.12,-215.69C729.12,-218.1 706.21,-220.06 678,-220.06 649.79,-220.06 626.88,-218.1 626.88,-215.69 626.88,-215.69 626.88,-176.31 626.88,-176.31 626.88,-173.9 649.79,-171.94 678,-171.94 706.21,-171.94 729.12,-173.9 729.12,-176.31 729.12,-176.31 729.12,-215.69 729.12,-215.69"/>
<path fill="none" stroke="#334155" stroke-width="1.4" d="M729.12,-215.69C729.12,-213.27 706.21,-211.31 678,-211.31 649.79,-211.31 626.88,-213.27 626.88,-215.69"/>
<text xml:space="preserve" text-anchor="middle" x="678" y="-199.05" font-family="sans-Serif" font-size="11.00" fill="#0f172a">~/.pwn/</text>
<text xml:space="preserve" text-anchor="middle" x="678" y="-185.55" font-family="sans-Serif" font-size="11.00" fill="#0f172a">extrospection.json</text>
</g>
<!-- Snap&#45;&gt;Store -->
<g id="edge7" class="edge">
<title>Snap&#45;&gt;Store</title>
<path fill="none" stroke="#f59e0b" stroke-width="1.3" d="M447.57,-327.07C460.13,-321.76 473.09,-315.95 485,-310 536.91,-284.07 593.76,-249.49 632.02,-225.24"/>
<polygon fill="#f59e0b" stroke="#f59e0b" stroke-width="1.3" points="633.47,-227.64 638.71,-220.98 630.46,-222.91 633.47,-227.64"/>
</g>
<!-- Drift&#45;&gt;Store -->
<g id="edge8" class="edge">
<title>Drift&#45;&gt;Store</title>
<path fill="none" stroke="#f59e0b" stroke-width="1.3" d="M430.24,-261.47C480.95,-248.01 561.65,-226.6 616.87,-211.95"/>
<polygon fill="#f59e0b" stroke="#f59e0b" stroke-width="1.3" points="617.26,-214.75 624.28,-209.99 615.83,-209.33 617.26,-214.75"/>
</g>
<!-- Obs&#45;&gt;Store -->
<g id="edge9" class="edge">
<title>Obs&#45;&gt;Store</title>
<path fill="none" stroke="#f59e0b" stroke-width="1.3" d="M448.98,-196C499.19,-196 567.74,-196 616.53,-196"/>
<polygon fill="#f59e0b" stroke="#f59e0b" stroke-width="1.3" points="616.35,-198.8 624.35,-196 616.35,-193.2 616.35,-198.8"/>
</g>
<!-- Intel&#45;&gt;Store -->
<g id="edge10" class="edge">
<title>Intel&#45;&gt;Store</title>
<path fill="none" stroke="#f59e0b" stroke-width="1.3" d="M439.34,-132.95C490.19,-146.44 564.8,-166.23 616.82,-180.03"/>
<polygon fill="#f59e0b" stroke="#f59e0b" stroke-width="1.3" points="615.9,-182.69 624.35,-182.03 617.34,-177.27 615.9,-182.69"/>
<text xml:space="preserve" text-anchor="middle" x="546.12" y="-168.23" font-family="sans-Serif" font-size="9.00" fill="#cbd5e1">record:true</text>
</g>
<!-- Corr -->
<g id="node11" class="node">
<title>Corr</title>
<path fill="#fcd34d" stroke="#334155" stroke-width="2" d="M420,-64.25C420,-64.25 344,-64.25 344,-64.25 338,-64.25 332,-58.25 332,-52.25 332,-52.25 332,-27.75 332,-27.75 332,-21.75 338,-15.75 344,-15.75 344,-15.75 420,-15.75 420,-15.75 426,-15.75 432,-21.75 432,-27.75 432,-27.75 432,-52.25 432,-52.25 432,-58.25 426,-64.25 420,-64.25"/>
<text xml:space="preserve" text-anchor="middle" x="382" y="-49.8" font-family="sans-Serif" font-size="11.00" fill="#0f172a">extro_correlate</text>
<text xml:space="preserve" text-anchor="middle" x="382" y="-36.3" font-family="sans-Serif" font-size="11.00" fill="#0f172a">join with Learning</text>
<text xml:space="preserve" text-anchor="middle" x="382" y="-22.8" font-family="sans-Serif" font-size="11.00" fill="#0f172a">+ Mistakes</text>
</g>
<!-- Prompt -->
<g id="node13" class="node">
<title>Prompt</title>
<path fill="#c4b5fd" stroke="#334155" stroke-width="1.4" d="M728.75,-92C728.75,-92 627.25,-92 627.25,-92 621.25,-92 615.25,-86 615.25,-80 615.25,-80 615.25,-68 615.25,-68 615.25,-62 621.25,-56 627.25,-56 627.25,-56 728.75,-56 728.75,-56 734.75,-56 740.75,-62 740.75,-68 740.75,-68 740.75,-80 740.75,-80 740.75,-86 734.75,-92 728.75,-92"/>
<text xml:space="preserve" text-anchor="middle" x="678" y="-77.05" font-family="sans-Serif" font-size="11.00" fill="#0f172a">EXTROSPECTION</text>
<text xml:space="preserve" text-anchor="middle" x="678" y="-63.55" font-family="sans-Serif" font-size="11.00" fill="#0f172a">block in system prompt</text>
</g>
<!-- Corr&#45;&gt;Prompt -->
<g id="edge11" class="edge">
<title>Corr&#45;&gt;Prompt</title>
<path fill="none" stroke="#a78bfa" stroke-width="2" d="M432.87,-45.77C479.77,-51.19 550.55,-59.38 603.84,-65.54"/>
<polygon fill="#a78bfa" stroke="#a78bfa" stroke-width="2" points="603.31,-68.3 611.58,-66.43 603.96,-62.73 603.31,-68.3"/>
<text xml:space="preserve" text-anchor="middle" x="546.12" y="-63" font-family="sans-Serif" font-size="9.00" fill="#cbd5e1">findings</text>
</g>
<!-- Store&#45;&gt;Corr -->
<g id="edge13" class="edge">
<title>Store&#45;&gt;Corr</title>
<path fill="none" stroke="#fbbf24" stroke-width="1.3" stroke-dasharray="5,2" d="M659.23,-171.26C629.26,-129.6 571.57,-49.77 568.25,-48 529.89,-27.53 480.45,-26.44 442.29,-29.97"/>
<polygon fill="#fbbf24" stroke="#fbbf24" stroke-width="1.3" points="442.47,-27.13 434.8,-30.75 443.05,-32.7 442.47,-27.13"/>
</g>
<!-- Store&#45;&gt;Prompt -->
<g id="edge12" class="edge">
<title>Store&#45;&gt;Prompt</title>
<path fill="none" stroke="#fbbf24" stroke-width="1.3" stroke-dasharray="5,2" d="M678,-171.38C678,-151.44 678,-123.33 678,-102.43"/>
<polygon fill="#fbbf24" stroke="#fbbf24" stroke-width="1.3" points="680.8,-102.5 678,-94.5 675.2,-102.5 680.8,-102.5"/>
<text xml:space="preserve" text-anchor="middle" x="669.75" y="-128.67" font-family="sans-Serif" font-size="9.00" fill="#cbd5e1">inject</text>
</g>
</g>
</svg>
