<?xml version="1.0" encoding="UTF-8" standalone="no"?>
<!DOCTYPE svg PUBLIC "-//W3C//DTD SVG 1.1//EN"
 "http://www.w3.org/Graphics/SVG/1.1/DTD/svg11.dtd">
<!-- Generated by graphviz version 14.1.2 (0)
 -->
<!-- Title: PWN_Extrospection Pages: 1 -->
<svg width="1175pt" height="935pt"
 viewBox="0.00 0.00 1175.00 935.00" xmlns="http://www.w3.org/2000/svg" xmlns:xlink="http://www.w3.org/1999/xlink">
<g id="graph0" class="graph" transform="scale(1 1) rotate(0) translate(43.2 892.25)">
<title>PWN_Extrospection</title>
<polygon fill="#0f172a" stroke="none" points="-43.2,43.2 -43.2,-892.25 1132.2,-892.25 1132.2,43.2 -43.2,43.2"/>
<text xml:space="preserve" text-anchor="start" x="193.88" y="-827.05" font-family="sans-Serif" font-weight="bold" font-size="20.00" fill="#e2e8f0">PWN::AI::Agent::Extrospection — On&#45;demand sensing + ambient baseline</text>
<text xml:space="preserve" text-anchor="start" x="222.38" y="-815.6" font-family="sans-Serif" font-size="11.00" fill="#94a3b8">PRIMARY: intel · verify · watch · rf_tune · observe · rf/web senses &#160;· &#160;SECONDARY: snapshot/drift (AUTO_SECTIONS=host/repo/env)</text>
<g id="clust1" class="cluster">
<title>cluster_world</title>
<path fill="#450a0a" stroke="#b91c1c" stroke-dasharray="5,2" d="M20,-222.05C20,-222.05 155.5,-222.05 155.5,-222.05 161.5,-222.05 167.5,-228.05 167.5,-234.05 167.5,-234.05 167.5,-762.05 167.5,-762.05 167.5,-768.05 161.5,-774.05 155.5,-774.05 155.5,-774.05 20,-774.05 20,-774.05 14,-774.05 8,-768.05 8,-762.05 8,-762.05 8,-234.05 8,-234.05 8,-228.05 14,-222.05 20,-222.05"/>
<text xml:space="preserve" text-anchor="middle" x="87.75" y="-751.05" font-family="sans-Serif" font-size="20.00" fill="#fecaca">Outside World</text>
</g>
<g id="clust3" class="cluster">
<title>cluster_eng</title>
<path fill="#422006" stroke="#a16207" stroke-width="2" d="M568.75,-125.05C568.75,-125.05 760.5,-125.05 760.5,-125.05 766.5,-125.05 772.5,-131.05 772.5,-137.05 772.5,-137.05 772.5,-790.05 772.5,-790.05 772.5,-796.05 766.5,-802.05 760.5,-802.05 760.5,-802.05 568.75,-802.05 568.75,-802.05 562.75,-802.05 556.75,-796.05 556.75,-790.05 556.75,-790.05 556.75,-137.05 556.75,-137.05 556.75,-131.05 562.75,-125.05 568.75,-125.05"/>
<text xml:space="preserve" text-anchor="middle" x="664.62" y="-779.05" font-family="sans-Serif" font-size="20.00" fill="#fde68a">Extrospection Engine</text>
</g>
<!-- Host -->
<g id="node1" class="node">
<title>Host</title>
<path fill="#fda4af" stroke="#334155" stroke-width="1.4" d="M132.88,-506.05C132.88,-506.05 42.62,-506.05 42.62,-506.05 36.62,-506.05 30.62,-500.05 30.62,-494.05 30.62,-494.05 30.62,-482.05 30.62,-482.05 30.62,-476.05 36.62,-470.05 42.62,-470.05 42.62,-470.05 132.88,-470.05 132.88,-470.05 138.88,-470.05 144.88,-476.05 144.88,-482.05 144.88,-482.05 144.88,-494.05 144.88,-494.05 144.88,-500.05 138.88,-506.05 132.88,-506.05"/>
<text xml:space="preserve" text-anchor="middle" x="87.75" y="-491.1" font-family="sans-Serif" font-size="11.00" fill="#0f172a">host</text>
<text xml:space="preserve" text-anchor="middle" x="87.75" y="-477.6" font-family="sans-Serif" font-size="11.00" fill="#0f172a">uname · distro · arch</text>
</g>
<!-- Snap -->
<g id="node9" class="node">
<title>Snap</title>
<path fill="#fcd34d" stroke="#334155" stroke-width="1.4" d="M725.12,-521.05C725.12,-521.05 604.12,-521.05 604.12,-521.05 598.12,-521.05 592.12,-515.05 592.12,-509.05 592.12,-509.05 592.12,-471.05 592.12,-471.05 592.12,-465.05 598.12,-459.05 604.12,-459.05 604.12,-459.05 725.12,-459.05 725.12,-459.05 731.12,-459.05 737.12,-465.05 737.12,-471.05 737.12,-471.05 737.12,-509.05 737.12,-509.05 737.12,-515.05 731.12,-521.05 725.12,-521.05"/>
<text xml:space="preserve" text-anchor="middle" x="664.62" y="-506.6" font-family="sans-Serif" font-size="11.00" fill="#0f172a">extro_snapshot</text>
<text xml:space="preserve" text-anchor="middle" x="664.62" y="-493.1" font-family="sans-Serif" font-size="11.00" fill="#0f172a">probe_host/net/toolchain</text>
<text xml:space="preserve" text-anchor="middle" x="664.62" y="-479.6" font-family="sans-Serif" font-size="11.00" fill="#0f172a">probe_repo/env/rf/web</text>
<text xml:space="preserve" text-anchor="middle" x="664.62" y="-466.1" font-family="sans-Serif" font-size="11.00" fill="#0f172a">(auto = host/repo/env only)</text>
</g>
<!-- Host&#45;&gt;Snap -->
<g id="edge1" class="edge">
<title>Host&#45;&gt;Snap</title>
<path fill="none" stroke="#fb7185" stroke-width="1.3" d="M145.44,-488.25C247.8,-488.6 463.78,-489.35 582.02,-489.76"/>
<polygon fill="#fb7185" stroke="#fb7185" stroke-width="1.3" points="581.77,-492.56 589.78,-489.79 581.79,-486.96 581.77,-492.56"/>
</g>
<!-- Net -->
<g id="node2" class="node">
<title>Net</title>
<path fill="#fda4af" stroke="#334155" stroke-width="1.4" d="M144.5,-578.05C144.5,-578.05 31,-578.05 31,-578.05 25,-578.05 19,-572.05 19,-566.05 19,-566.05 19,-554.05 19,-554.05 19,-548.05 25,-542.05 31,-542.05 31,-542.05 144.5,-542.05 144.5,-542.05 150.5,-542.05 156.5,-548.05 156.5,-554.05 156.5,-554.05 156.5,-566.05 156.5,-566.05 156.5,-572.05 150.5,-578.05 144.5,-578.05"/>
<text xml:space="preserve" text-anchor="middle" x="87.75" y="-563.1" font-family="sans-Serif" font-size="11.00" fill="#0f172a">net</text>
<text xml:space="preserve" text-anchor="middle" x="87.75" y="-549.6" font-family="sans-Serif" font-size="11.00" fill="#0f172a">interfaces · listening ports</text>
</g>
<!-- Net&#45;&gt;Snap -->
<g id="edge2" class="edge">
<title>Net&#45;&gt;Snap</title>
<path fill="none" stroke="#fb7185" stroke-width="1.3" d="M156.95,-554.97C241.75,-548.26 390.85,-535.12 517.75,-517.05 538.55,-514.09 560.91,-510.27 581.72,-506.44"/>
<polygon fill="#fb7185" stroke="#fb7185" stroke-width="1.3" points="582.19,-509.21 589.54,-504.99 581.17,-503.7 582.19,-509.21"/>
</g>
<!-- Tool -->
<g id="node3" class="node">
<title>Tool</title>
<path fill="#fda4af" stroke="#334155" stroke-width="1.4" d="M143.38,-434.3C143.38,-434.3 32.12,-434.3 32.12,-434.3 26.12,-434.3 20.12,-428.3 20.12,-422.3 20.12,-422.3 20.12,-397.8 20.12,-397.8 20.12,-391.8 26.12,-385.8 32.12,-385.8 32.12,-385.8 143.38,-385.8 143.38,-385.8 149.38,-385.8 155.38,-391.8 155.38,-397.8 155.38,-397.8 155.38,-422.3 155.38,-422.3 155.38,-428.3 149.38,-434.3 143.38,-434.3"/>
<text xml:space="preserve" text-anchor="middle" x="87.75" y="-419.85" font-family="sans-Serif" font-size="11.00" fill="#0f172a">toolchain (presence)</text>
<text xml:space="preserve" text-anchor="middle" x="87.75" y="-406.35" font-family="sans-Serif" font-size="11.00" fill="#0f172a">nmap/git (safe &#45;&#45;ver)</text>
<text xml:space="preserve" text-anchor="middle" x="87.75" y="-392.85" font-family="sans-Serif" font-size="11.00" fill="#0f172a">burp/msf/gqrx PATH only</text>
</g>
<!-- Drift -->
<g id="node10" class="node">
<title>Drift</title>
<path fill="#fcd34d" stroke="#334155" stroke-width="1.4" d="M700.38,-423.05C700.38,-423.05 628.88,-423.05 628.88,-423.05 622.88,-423.05 616.88,-417.05 616.88,-411.05 616.88,-411.05 616.88,-399.05 616.88,-399.05 616.88,-393.05 622.88,-387.05 628.88,-387.05 628.88,-387.05 700.38,-387.05 700.38,-387.05 706.38,-387.05 712.38,-393.05 712.38,-399.05 712.38,-399.05 712.38,-411.05 712.38,-411.05 712.38,-417.05 706.38,-423.05 700.38,-423.05"/>
<text xml:space="preserve" text-anchor="middle" x="664.62" y="-408.1" font-family="sans-Serif" font-size="11.00" fill="#0f172a">extro_drift</text>
<text xml:space="preserve" text-anchor="middle" x="664.62" y="-394.6" font-family="sans-Serif" font-size="11.00" fill="#0f172a">delta vs baseline</text>
</g>
<!-- Tool&#45;&gt;Drift -->
<g id="edge3" class="edge">
<title>Tool&#45;&gt;Drift</title>
<path fill="none" stroke="#fb7185" stroke-width="1.3" d="M155.82,-409.46C269.87,-408.47 499.61,-406.47 606.51,-405.54"/>
<polygon fill="#fb7185" stroke="#fb7185" stroke-width="1.3" points="606.52,-408.34 614.49,-405.48 606.47,-402.75 606.52,-408.34"/>
</g>
<!-- Repo -->
<g id="node4" class="node">
<title>Repo</title>
<path fill="#fda4af" stroke="#334155" stroke-width="1.4" d="M141.12,-350.05C141.12,-350.05 34.38,-350.05 34.38,-350.05 28.38,-350.05 22.38,-344.05 22.38,-338.05 22.38,-338.05 22.38,-326.05 22.38,-326.05 22.38,-320.05 28.38,-314.05 34.38,-314.05 34.38,-314.05 141.12,-314.05 141.12,-314.05 147.12,-314.05 153.12,-320.05 153.12,-326.05 153.12,-326.05 153.12,-338.05 153.12,-338.05 153.12,-344.05 147.12,-350.05 141.12,-350.05"/>
<text xml:space="preserve" text-anchor="middle" x="87.75" y="-335.1" font-family="sans-Serif" font-size="11.00" fill="#0f172a">repo · env</text>
<text xml:space="preserve" text-anchor="middle" x="87.75" y="-321.6" font-family="sans-Serif" font-size="11.00" fill="#0f172a">HEAD · dirty · ruby/gem</text>
</g>
<!-- Repo&#45;&gt;Drift -->
<g id="edge4" class="edge">
<title>Repo&#45;&gt;Drift</title>
<path fill="none" stroke="#fb7185" stroke-width="1.3" d="M153.58,-340.28C266.91,-354.67 499.2,-384.17 606.71,-397.82"/>
<polygon fill="#fb7185" stroke="#fb7185" stroke-width="1.3" points="606.17,-400.57 614.46,-398.8 606.87,-395.02 606.17,-400.57"/>
</g>
<!-- RFhw -->
<g id="node5" class="node">
<title>RFhw</title>
<path fill="#fda4af" stroke="#334155" stroke-width="1.4" d="M136.62,-734.3C136.62,-734.3 38.88,-734.3 38.88,-734.3 32.88,-734.3 26.88,-728.3 26.88,-722.3 26.88,-722.3 26.88,-697.8 26.88,-697.8 26.88,-691.8 32.88,-685.8 38.88,-685.8 38.88,-685.8 136.62,-685.8 136.62,-685.8 142.62,-685.8 148.62,-691.8 148.62,-697.8 148.62,-697.8 148.62,-722.3 148.62,-722.3 148.62,-728.3 142.62,-734.3 136.62,-734.3"/>
<text xml:space="preserve" text-anchor="middle" x="87.75" y="-719.85" font-family="sans-Serif" font-size="11.00" fill="#0f172a">rf &#160;📡</text>
<text xml:space="preserve" text-anchor="middle" x="87.75" y="-706.35" font-family="sans-Serif" font-size="11.00" fill="#0f172a">rtl&#45;sdr · hackrf · flipper</text>
<text xml:space="preserve" text-anchor="middle" x="87.75" y="-692.85" font-family="sans-Serif" font-size="11.00" fill="#0f172a">gqrx sock · serial devs</text>
</g>
<!-- Obs -->
<g id="node11" class="node">
<title>Obs</title>
<path fill="#fcd34d" stroke="#334155" stroke-width="1.4" d="M733.75,-762.3C733.75,-762.3 595.5,-762.3 595.5,-762.3 589.5,-762.3 583.5,-756.3 583.5,-750.3 583.5,-750.3 583.5,-725.8 583.5,-725.8 583.5,-719.8 589.5,-713.8 595.5,-713.8 595.5,-713.8 733.75,-713.8 733.75,-713.8 739.75,-713.8 745.75,-719.8 745.75,-725.8 745.75,-725.8 745.75,-750.3 745.75,-750.3 745.75,-756.3 739.75,-762.3 733.75,-762.3"/>
<text xml:space="preserve" text-anchor="middle" x="664.62" y="-747.85" font-family="sans-Serif" font-size="11.00" fill="#0f172a">extro_observe</text>
<text xml:space="preserve" text-anchor="middle" x="664.62" y="-734.35" font-family="sans-Serif" font-size="11.00" fill="#0f172a">recon · vuln · intel</text>
<text xml:space="preserve" text-anchor="middle" x="664.62" y="-720.85" font-family="sans-Serif" font-size="11.00" fill="#0f172a">target · network · env · rf · web</text>
</g>
<!-- RFhw&#45;&gt;Obs -->
<g id="edge5" class="edge">
<title>RFhw&#45;&gt;Obs</title>
<path fill="none" stroke="#fb7185" stroke-width="1.3" d="M147.93,-734.99C166.36,-741.57 186.97,-747.75 206.5,-751.05 332.39,-772.34 480.49,-761.75 573.23,-750.93"/>
<polygon fill="#fb7185" stroke="#fb7185" stroke-width="1.3" points="573.3,-753.75 580.91,-750.02 572.64,-748.19 573.3,-753.75"/>
<text xml:space="preserve" text-anchor="middle" x="327.75" y="-765.3" font-family="sans-Serif" font-size="9.00" fill="#cbd5e1">probe_rf</text>
</g>
<!-- RFTune -->
<g id="node15" class="node">
<title>RFTune</title>
<path fill="#fcd34d" stroke="#334155" stroke-width="2" d="M752.5,-677.3C752.5,-677.3 576.75,-677.3 576.75,-677.3 570.75,-677.3 564.75,-671.3 564.75,-665.3 564.75,-665.3 564.75,-640.8 564.75,-640.8 564.75,-634.8 570.75,-628.8 576.75,-628.8 576.75,-628.8 752.5,-628.8 752.5,-628.8 758.5,-628.8 764.5,-634.8 764.5,-640.8 764.5,-640.8 764.5,-665.3 764.5,-665.3 764.5,-671.3 758.5,-677.3 752.5,-677.3"/>
<text xml:space="preserve" text-anchor="middle" x="664.62" y="-662.85" font-family="sans-Serif" font-size="11.00" fill="#0f172a">extro_rf_tune &#160;📡</text>
<text xml:space="preserve" text-anchor="middle" x="664.62" y="-649.35" font-family="sans-Serif" font-size="11.00" fill="#0f172a">tune GQRX · demod · strength</text>
<text xml:space="preserve" text-anchor="middle" x="664.62" y="-635.85" font-family="sans-Serif" font-size="11.00" fill="#0f172a">RDS PI/PS/RadioText → now_playing</text>
</g>
<!-- RFhw&#45;&gt;RFTune -->
<g id="edge6" class="edge">
<title>RFhw&#45;&gt;RFTune</title>
<path fill="none" stroke="#fb7185" stroke-width="2" d="M149.19,-704.06C244.89,-694.57 432.76,-675.94 553.05,-664.01"/>
<polygon fill="#fb7185" stroke="#fb7185" stroke-width="2" points="553.05,-666.83 560.74,-663.25 552.5,-661.25 553.05,-666.83"/>
<text xml:space="preserve" text-anchor="middle" x="327.75" y="-695.5" font-family="sans-Serif" font-size="9.00" fill="#cbd5e1">tune · RDS</text>
</g>
<!-- Web -->
<g id="node6" class="node">
<title>Web</title>
<path fill="#fda4af" stroke="#334155" stroke-width="1.4" d="M144.88,-278.3C144.88,-278.3 30.62,-278.3 30.62,-278.3 24.62,-278.3 18.62,-272.3 18.62,-266.3 18.62,-266.3 18.62,-241.8 18.62,-241.8 18.62,-235.8 24.62,-229.8 30.62,-229.8 30.62,-229.8 144.88,-229.8 144.88,-229.8 150.88,-229.8 156.88,-235.8 156.88,-241.8 156.88,-241.8 156.88,-266.3 156.88,-266.3 156.88,-272.3 150.88,-278.3 144.88,-278.3"/>
<text xml:space="preserve" text-anchor="middle" x="87.75" y="-263.85" font-family="sans-Serif" font-size="11.00" fill="#0f172a">web &#160;🌐</text>
<text xml:space="preserve" text-anchor="middle" x="87.75" y="-250.35" font-family="sans-Serif" font-size="11.00" fill="#0f172a">anchors · targets</text>
<text xml:space="preserve" text-anchor="middle" x="87.75" y="-236.85" font-family="sans-Serif" font-size="11.00" fill="#0f172a">rendered DOM · TLS cert</text>
</g>
<!-- TB -->
<g id="node8" class="node">
<title>TB</title>
<path fill="#7dd3fc" stroke="#334155" stroke-width="2" d="M389,-278.3C389,-278.3 266.5,-278.3 266.5,-278.3 260.5,-278.3 254.5,-272.3 254.5,-266.3 254.5,-266.3 254.5,-241.8 254.5,-241.8 254.5,-235.8 260.5,-229.8 266.5,-229.8 266.5,-229.8 389,-229.8 389,-229.8 395,-229.8 401,-235.8 401,-241.8 401,-241.8 401,-266.3 401,-266.3 401,-272.3 395,-278.3 389,-278.3"/>
<text xml:space="preserve" text-anchor="middle" x="327.75" y="-263.85" font-family="sans-Serif" font-size="11.00" fill="#0f172a">PWN::Plugins::</text>
<text xml:space="preserve" text-anchor="middle" x="327.75" y="-250.35" font-family="sans-Serif" font-size="11.00" fill="#0f172a">TransparentBrowser</text>
<text xml:space="preserve" text-anchor="middle" x="327.75" y="-236.85" font-family="sans-Serif" font-size="11.00" fill="#0f172a">:headless (→ :rest fallback)</text>
</g>
<!-- Web&#45;&gt;TB -->
<g id="edge8" class="edge">
<title>Web&#45;&gt;TB</title>
<path fill="none" stroke="#fb7185" stroke-width="1.3" d="M157.27,-254.05C184.3,-254.05 215.58,-254.05 243.87,-254.05"/>
<polygon fill="#fb7185" stroke="#fb7185" stroke-width="1.3" points="243.76,-256.85 251.76,-254.05 243.76,-251.25 243.76,-256.85"/>
</g>
<!-- Feeds -->
<g id="node7" class="node">
<title>Feeds</title>
<path fill="#fda4af" stroke="#334155" stroke-width="1.4" d="M147.5,-650.05C147.5,-650.05 28,-650.05 28,-650.05 22,-650.05 16,-644.05 16,-638.05 16,-638.05 16,-626.05 16,-626.05 16,-620.05 22,-614.05 28,-614.05 28,-614.05 147.5,-614.05 147.5,-614.05 153.5,-614.05 159.5,-620.05 159.5,-626.05 159.5,-626.05 159.5,-638.05 159.5,-638.05 159.5,-644.05 153.5,-650.05 147.5,-650.05"/>
<text xml:space="preserve" text-anchor="middle" x="87.75" y="-635.1" font-family="sans-Serif" font-size="11.00" fill="#0f172a">intel feeds</text>
<text xml:space="preserve" text-anchor="middle" x="87.75" y="-621.6" font-family="sans-Serif" font-size="11.00" fill="#0f172a">NVD · CIRCL · Exploit&#45;DB</text>
</g>
<!-- Intel -->
<g id="node12" class="node">
<title>Intel</title>
<path fill="#fcd34d" stroke="#334155" stroke-width="1.4" d="M709.38,-593.05C709.38,-593.05 619.88,-593.05 619.88,-593.05 613.88,-593.05 607.88,-587.05 607.88,-581.05 607.88,-581.05 607.88,-569.05 607.88,-569.05 607.88,-563.05 613.88,-557.05 619.88,-557.05 619.88,-557.05 709.38,-557.05 709.38,-557.05 715.38,-557.05 721.38,-563.05 721.38,-569.05 721.38,-569.05 721.38,-581.05 721.38,-581.05 721.38,-587.05 715.38,-593.05 709.38,-593.05"/>
<text xml:space="preserve" text-anchor="middle" x="664.62" y="-578.1" font-family="sans-Serif" font-size="11.00" fill="#0f172a">extro_intel</text>
<text xml:space="preserve" text-anchor="middle" x="664.62" y="-564.6" font-family="sans-Serif" font-size="11.00" fill="#0f172a">CVE / exploit lookup</text>
</g>
<!-- Feeds&#45;&gt;Intel -->
<g id="edge7" class="edge">
<title>Feeds&#45;&gt;Intel</title>
<path fill="none" stroke="#fb7185" stroke-width="1.3" d="M160.11,-624.97C272.37,-613.84 488.64,-592.4 597.54,-581.6"/>
<polygon fill="#fb7185" stroke="#fb7185" stroke-width="1.3" points="597.78,-584.39 605.46,-580.81 597.23,-578.82 597.78,-584.39"/>
</g>
<!-- TB&#45;&gt;Snap -->
<g id="edge9" class="edge">
<title>TB&#45;&gt;Snap</title>
<path fill="none" stroke="#38bdf8" stroke-width="1.3" d="M354.75,-279.2C395.38,-317.59 477.51,-391.55 556.75,-441.05 565.01,-446.21 573.91,-451.15 582.92,-455.78"/>
<polygon fill="#38bdf8" stroke="#38bdf8" stroke-width="1.3" points="581.41,-458.15 589.82,-459.23 583.92,-453.14 581.41,-458.15"/>
<text xml:space="preserve" text-anchor="middle" x="482.88" y="-426.71" font-family="sans-Serif" font-size="9.00" fill="#cbd5e1">probe_web</text>
<text xml:space="preserve" text-anchor="middle" x="482.88" y="-416.21" font-family="sans-Serif" font-size="9.00" fill="#cbd5e1">(opt&#45;in)</text>
</g>
<!-- Watch -->
<g id="node13" class="node">
<title>Watch</title>
<path fill="#fcd34d" stroke="#334155" stroke-width="1.4" d="M721.75,-351.3C721.75,-351.3 607.5,-351.3 607.5,-351.3 601.5,-351.3 595.5,-345.3 595.5,-339.3 595.5,-339.3 595.5,-314.8 595.5,-314.8 595.5,-308.8 601.5,-302.8 607.5,-302.8 607.5,-302.8 721.75,-302.8 721.75,-302.8 727.75,-302.8 733.75,-308.8 733.75,-314.8 733.75,-314.8 733.75,-339.3 733.75,-339.3 733.75,-345.3 727.75,-351.3 721.75,-351.3"/>
<text xml:space="preserve" text-anchor="middle" x="664.62" y="-336.85" font-family="sans-Serif" font-size="11.00" fill="#0f172a">extro_watch</text>
<text xml:space="preserve" text-anchor="middle" x="664.62" y="-323.35" font-family="sans-Serif" font-size="11.00" fill="#0f172a">render → DOM SHA&#45;256</text>
<text xml:space="preserve" text-anchor="middle" x="664.62" y="-309.85" font-family="sans-Serif" font-size="11.00" fill="#0f172a">screenshot · TLS fp</text>
</g>
<!-- TB&#45;&gt;Watch -->
<g id="edge10" class="edge">
<title>TB&#45;&gt;Watch</title>
<path fill="none" stroke="#38bdf8" stroke-width="1.3" d="M401.78,-240.06C437.77,-236.25 481.18,-236.34 517.75,-250.05 539.28,-258.12 537.14,-272.03 556.75,-284.05 565.92,-289.67 575.95,-294.82 586.07,-299.46"/>
<polygon fill="#38bdf8" stroke="#38bdf8" stroke-width="1.3" points="584.73,-301.92 593.18,-302.6 586.99,-296.8 584.73,-301.92"/>
<text xml:space="preserve" text-anchor="middle" x="482.88" y="-262.5" font-family="sans-Serif" font-size="9.00" fill="#cbd5e1">goto · text</text>
<text xml:space="preserve" text-anchor="middle" x="482.88" y="-252" font-family="sans-Serif" font-size="9.00" fill="#cbd5e1">screenshot</text>
</g>
<!-- Verify -->
<g id="node14" class="node">
<title>Verify</title>
<path fill="#fcd34d" stroke="#334155" stroke-width="2" d="M743.5,-266.3C743.5,-266.3 585.75,-266.3 585.75,-266.3 579.75,-266.3 573.75,-260.3 573.75,-254.3 573.75,-254.3 573.75,-229.8 573.75,-229.8 573.75,-223.8 579.75,-217.8 585.75,-217.8 585.75,-217.8 743.5,-217.8 743.5,-217.8 749.5,-217.8 755.5,-223.8 755.5,-229.8 755.5,-229.8 755.5,-254.3 755.5,-254.3 755.5,-260.3 749.5,-266.3 743.5,-266.3"/>
<text xml:space="preserve" text-anchor="middle" x="664.62" y="-251.85" font-family="sans-Serif" font-size="11.00" fill="#0f172a">extro_verify</text>
<text xml:space="preserve" text-anchor="middle" x="664.62" y="-238.35" font-family="sans-Serif" font-size="11.00" fill="#0f172a">:cve · :version · :doc · :generic</text>
<text xml:space="preserve" text-anchor="middle" x="664.62" y="-224.85" font-family="sans-Serif" font-size="11.00" fill="#0f172a">→ :confirmed | :refuted | :unknown</text>
</g>
<!-- TB&#45;&gt;Verify -->
<g id="edge11" class="edge">
<title>TB&#45;&gt;Verify</title>
<path fill="none" stroke="#38bdf8" stroke-width="2" d="M363.01,-228.94C385.83,-213.82 417.19,-196.01 448,-188.05 478.02,-180.3 487.24,-182.58 517.75,-188.05 532.79,-190.74 563.04,-201.61 592.11,-212.89"/>
<polygon fill="#38bdf8" stroke="#38bdf8" stroke-width="2" points="591.02,-215.47 599.49,-215.78 593.07,-210.26 591.02,-215.47"/>
<text xml:space="preserve" text-anchor="middle" x="482.88" y="-200.5" font-family="sans-Serif" font-size="9.00" fill="#cbd5e1">render</text>
<text xml:space="preserve" text-anchor="middle" x="482.88" y="-190" font-family="sans-Serif" font-size="9.00" fill="#cbd5e1">canonical source</text>
</g>
<!-- Store -->
<g id="node17" class="node">
<title>Store</title>
<path fill="#fcd34d" stroke="#334155" stroke-width="1.4" d="M1064.25,-478.74C1064.25,-481.15 1041.33,-483.11 1013.12,-483.11 984.92,-483.11 962,-481.15 962,-478.74 962,-478.74 962,-439.36 962,-439.36 962,-436.95 984.92,-434.99 1013.12,-434.99 1041.33,-434.99 1064.25,-436.95 1064.25,-439.36 1064.25,-439.36 1064.25,-478.74 1064.25,-478.74"/>
<path fill="none" stroke="#334155" stroke-width="1.4" d="M1064.25,-478.74C1064.25,-476.32 1041.33,-474.36 1013.12,-474.36 984.92,-474.36 962,-476.32 962,-478.74"/>
<text xml:space="preserve" text-anchor="middle" x="1013.12" y="-462.1" font-family="sans-Serif" font-size="11.00" fill="#0f172a">~/.pwn/</text>
<text xml:space="preserve" text-anchor="middle" x="1013.12" y="-448.6" font-family="sans-Serif" font-size="11.00" fill="#0f172a">extrospection.json</text>
</g>
<!-- Snap&#45;&gt;Store -->
<g id="edge12" class="edge">
<title>Snap&#45;&gt;Store</title>
<path fill="none" stroke="#f59e0b" stroke-width="1.3" d="M737.61,-488.6C781.76,-487.2 839.39,-484.45 890.25,-479.05 910.31,-476.92 932.1,-473.65 951.62,-470.37"/>
<polygon fill="#f59e0b" stroke="#f59e0b" stroke-width="1.3" points="951.95,-473.16 959.36,-469.05 951.01,-467.64 951.95,-473.16"/>
</g>
<!-- Drift&#45;&gt;Store -->
<g id="edge13" class="edge">
<title>Drift&#45;&gt;Store</title>
<path fill="none" stroke="#f59e0b" stroke-width="1.3" d="M713.04,-416.32C741.47,-422.78 778.41,-430.65 811.5,-436.05 858.39,-443.7 911.86,-449.7 951.8,-453.64"/>
<polygon fill="#f59e0b" stroke="#f59e0b" stroke-width="1.3" points="951.45,-456.42 959.69,-454.41 952,-450.85 951.45,-456.42"/>
</g>
<!-- Obs&#45;&gt;Store -->
<g id="edge14" class="edge">
<title>Obs&#45;&gt;Store</title>
<path fill="none" stroke="#f59e0b" stroke-width="1.3" d="M737.39,-713.2C784.73,-694.2 845.95,-664.38 890.25,-624.05 933.64,-584.54 971.67,-527.52 993.26,-491.91"/>
<polygon fill="#f59e0b" stroke="#f59e0b" stroke-width="1.3" points="995.41,-493.77 997.12,-485.47 990.61,-490.89 995.41,-493.77"/>
</g>
<!-- Intel&#45;&gt;Store -->
<g id="edge15" class="edge">
<title>Intel&#45;&gt;Store</title>
<path fill="none" stroke="#f59e0b" stroke-width="1.3" d="M722.04,-560.65C767.81,-548.51 833.78,-529.96 890.25,-510.05 910.79,-502.8 932.86,-493.92 952.5,-485.6"/>
<polygon fill="#f59e0b" stroke="#f59e0b" stroke-width="1.3" points="953.57,-488.19 959.83,-482.48 951.37,-483.04 953.57,-488.19"/>
<text xml:space="preserve" text-anchor="middle" x="850.88" y="-535.81" font-family="sans-Serif" font-size="9.00" fill="#cbd5e1">record:true</text>
</g>
<!-- Watch&#45;&gt;Store -->
<g id="edge16" class="edge">
<title>Watch&#45;&gt;Store</title>
<path fill="none" stroke="#f59e0b" stroke-width="1.3" d="M730.8,-351.88C794.38,-376.1 890.31,-412.64 952.08,-436.17"/>
<polygon fill="#f59e0b" stroke="#f59e0b" stroke-width="1.3" points="951,-438.76 959.48,-438.99 953,-433.53 951,-438.76"/>
<text xml:space="preserve" text-anchor="middle" x="850.88" y="-414.53" font-family="sans-Serif" font-size="9.00" fill="#cbd5e1">category::web</text>
</g>
<!-- Shots -->
<g id="node18" class="node">
<title>Shots</title>
<path fill="#fcd34d" stroke="#334155" stroke-width="1.4" d="M1072.5,-383.74C1072.5,-386.15 1045.89,-388.11 1013.12,-388.11 980.36,-388.11 953.75,-386.15 953.75,-383.74 953.75,-383.74 953.75,-344.36 953.75,-344.36 953.75,-341.95 980.36,-339.99 1013.12,-339.99 1045.89,-339.99 1072.5,-341.95 1072.5,-344.36 1072.5,-344.36 1072.5,-383.74 1072.5,-383.74"/>
<path fill="none" stroke="#334155" stroke-width="1.4" d="M1072.5,-383.74C1072.5,-381.32 1045.89,-379.36 1013.12,-379.36 980.36,-379.36 953.75,-381.32 953.75,-383.74"/>
<text xml:space="preserve" text-anchor="middle" x="1013.12" y="-367.1" font-family="sans-Serif" font-size="11.00" fill="#0f172a">~/.pwn/extrospection/</text>
<text xml:space="preserve" text-anchor="middle" x="1013.12" y="-353.6" font-family="sans-Serif" font-size="11.00" fill="#0f172a">web/*.png</text>
</g>
<!-- Watch&#45;&gt;Shots -->
<g id="edge17" class="edge">
<title>Watch&#45;&gt;Shots</title>
<path fill="none" stroke="#f59e0b" stroke-width="1.3" d="M734.08,-334.36C794.71,-340.83 882.76,-350.23 943.45,-356.71"/>
<polygon fill="#f59e0b" stroke="#f59e0b" stroke-width="1.3" points="943.11,-359.49 951.36,-357.56 943.71,-353.93 943.11,-359.49"/>
</g>
<!-- Verify&#45;&gt;Store -->
<g id="edge20" class="edge">
<title>Verify&#45;&gt;Store</title>
<path fill="none" stroke="#f59e0b" stroke-width="1.3" d="M732.74,-267.21C746.08,-272.73 759.86,-278.8 772.5,-285.05 827.07,-312.05 842.96,-316.71 890.25,-355.05 914.19,-374.46 914.1,-385.7 937.25,-406.05 946.5,-414.18 956.99,-422.23 967.14,-429.52"/>
<polygon fill="#f59e0b" stroke="#f59e0b" stroke-width="1.3" points="965.4,-431.72 973.56,-434.04 968.63,-427.14 965.4,-431.72"/>
<text xml:space="preserve" text-anchor="middle" x="850.88" y="-367.5" font-family="sans-Serif" font-size="9.00" fill="#cbd5e1">:confirmed</text>
<text xml:space="preserve" text-anchor="middle" x="850.88" y="-357" font-family="sans-Serif" font-size="9.00" fill="#cbd5e1">:intel obs (ttl 30d)</text>
</g>
<!-- Mist -->
<g id="node20" class="node">
<title>Mist</title>
<path fill="#fca5a5" stroke="#334155" stroke-width="2" d="M1066.5,-216.3C1066.5,-216.3 959.75,-216.3 959.75,-216.3 953.75,-216.3 947.75,-210.3 947.75,-204.3 947.75,-204.3 947.75,-179.8 947.75,-179.8 947.75,-173.8 953.75,-167.8 959.75,-167.8 959.75,-167.8 1066.5,-167.8 1066.5,-167.8 1072.5,-167.8 1078.5,-173.8 1078.5,-179.8 1078.5,-179.8 1078.5,-204.3 1078.5,-204.3 1078.5,-210.3 1072.5,-216.3 1066.5,-216.3"/>
<text xml:space="preserve" text-anchor="middle" x="1013.12" y="-201.85" font-family="sans-Serif" font-size="11.00" fill="#0f172a">Mistakes.record</text>
<text xml:space="preserve" text-anchor="middle" x="1013.12" y="-188.35" font-family="sans-Serif" font-size="11.00" fill="#0f172a">(tool:&#39;assumption&#39;)</text>
<text xml:space="preserve" text-anchor="middle" x="1013.12" y="-174.85" font-family="sans-Serif" font-size="11.00" fill="#0f172a">→ KNOWN MISTAKES</text>
</g>
<!-- Verify&#45;&gt;Mist -->
<g id="edge19" class="edge">
<title>Verify&#45;&gt;Mist</title>
<path fill="none" stroke="#fb7185" stroke-width="2" d="M756.43,-222.26C774.61,-218.7 793.62,-215.26 811.5,-212.55 852.46,-206.33 898.41,-201.48 935.99,-198.06"/>
<polygon fill="#fb7185" stroke="#fb7185" stroke-width="2" points="936.13,-200.86 943.85,-197.36 935.63,-195.28 936.13,-200.86"/>
<text xml:space="preserve" text-anchor="middle" x="850.88" y="-214.5" font-family="sans-Serif" font-size="9.00" fill="#cbd5e1">:refuted</text>
</g>
<!-- Mem -->
<g id="node21" class="node">
<title>Mem</title>
<path fill="#c4b5fd" stroke="#334155" stroke-width="1.4" d="M1077,-301.3C1077,-301.3 949.25,-301.3 949.25,-301.3 943.25,-301.3 937.25,-295.3 937.25,-289.3 937.25,-289.3 937.25,-264.8 937.25,-264.8 937.25,-258.8 943.25,-252.8 949.25,-252.8 949.25,-252.8 1077,-252.8 1077,-252.8 1083,-252.8 1089,-258.8 1089,-264.8 1089,-264.8 1089,-289.3 1089,-289.3 1089,-295.3 1083,-301.3 1077,-301.3"/>
<text xml:space="preserve" text-anchor="middle" x="1013.12" y="-286.85" font-family="sans-Serif" font-size="11.00" fill="#0f172a">PWN::Memory :fact</text>
<text xml:space="preserve" text-anchor="middle" x="1013.12" y="-273.35" font-family="sans-Serif" font-size="11.00" fill="#0f172a">[UNVERIFIED yyyy&#45;mm&#45;dd]</text>
<text xml:space="preserve" text-anchor="middle" x="1013.12" y="-259.85" font-family="sans-Serif" font-size="11.00" fill="#0f172a">(revalidate_memory)</text>
</g>
<!-- Verify&#45;&gt;Mem -->
<g id="edge21" class="edge">
<title>Verify&#45;&gt;Mem</title>
<path fill="none" stroke="#a78bfa" stroke-width="1.3" stroke-dasharray="5,2" d="M756.28,-233.36C797.4,-231.23 846.51,-231.22 890.25,-238.05 905.88,-240.49 922.25,-244.59 937.73,-249.24"/>
<polygon fill="#a78bfa" stroke="#a78bfa" stroke-width="1.3" points="936.89,-251.91 945.37,-251.61 938.56,-246.56 936.89,-251.91"/>
<text xml:space="preserve" text-anchor="middle" x="850.88" y="-250.5" font-family="sans-Serif" font-size="9.00" fill="#cbd5e1">revalidate_memory</text>
<text xml:space="preserve" text-anchor="middle" x="850.88" y="-240" font-family="sans-Serif" font-size="9.00" fill="#cbd5e1">mark stale :fact</text>
</g>
<!-- RFTune&#45;&gt;Store -->
<g id="edge18" class="edge">
<title>RFTune&#45;&gt;Store</title>
<path fill="none" stroke="#f59e0b" stroke-width="2" d="M732.11,-627.91C745.57,-622.55 759.55,-616.77 772.5,-611.05 825.86,-587.47 840.74,-583.9 890.25,-553.05 920.34,-534.29 951.99,-509.72 975.49,-490.41"/>
<polygon fill="#f59e0b" stroke="#f59e0b" stroke-width="2" points="977.06,-492.74 981.43,-485.48 973.48,-488.43 977.06,-492.74"/>
<text xml:space="preserve" text-anchor="middle" x="850.88" y="-606.4" font-family="sans-Serif" font-size="9.00" fill="#cbd5e1">category::rf</text>
<text xml:space="preserve" text-anchor="middle" x="850.88" y="-595.9" font-family="sans-Serif" font-size="9.00" fill="#cbd5e1">now_playing</text>
</g>
<!-- Corr -->
<g id="node16" class="node">
<title>Corr</title>
<path fill="#fcd34d" stroke="#334155" stroke-width="2" d="M712.38,-181.3C712.38,-181.3 616.88,-181.3 616.88,-181.3 610.88,-181.3 604.88,-175.3 604.88,-169.3 604.88,-169.3 604.88,-144.8 604.88,-144.8 604.88,-138.8 610.88,-132.8 616.88,-132.8 616.88,-132.8 712.38,-132.8 712.38,-132.8 718.38,-132.8 724.38,-138.8 724.38,-144.8 724.38,-144.8 724.38,-169.3 724.38,-169.3 724.38,-175.3 718.38,-181.3 712.38,-181.3"/>
<text xml:space="preserve" text-anchor="middle" x="664.62" y="-166.85" font-family="sans-Serif" font-size="11.00" fill="#0f172a">extro_correlate</text>
<text xml:space="preserve" text-anchor="middle" x="664.62" y="-153.35" font-family="sans-Serif" font-size="11.00" fill="#0f172a">join with Learning</text>
<text xml:space="preserve" text-anchor="middle" x="664.62" y="-139.85" font-family="sans-Serif" font-size="11.00" fill="#0f172a">+ Mistakes + Memory</text>
</g>
<!-- Prompt -->
<g id="node19" class="node">
<title>Prompt</title>
<path fill="#c4b5fd" stroke="#334155" stroke-width="1.4" d="M1063.88,-132.05C1063.88,-132.05 962.38,-132.05 962.38,-132.05 956.38,-132.05 950.38,-126.05 950.38,-120.05 950.38,-120.05 950.38,-108.05 950.38,-108.05 950.38,-102.05 956.38,-96.05 962.38,-96.05 962.38,-96.05 1063.88,-96.05 1063.88,-96.05 1069.88,-96.05 1075.88,-102.05 1075.88,-108.05 1075.88,-108.05 1075.88,-120.05 1075.88,-120.05 1075.88,-126.05 1069.88,-132.05 1063.88,-132.05"/>
<text xml:space="preserve" text-anchor="middle" x="1013.12" y="-117.1" font-family="sans-Serif" font-size="11.00" fill="#0f172a">EXTROSPECTION</text>
<text xml:space="preserve" text-anchor="middle" x="1013.12" y="-103.6" font-family="sans-Serif" font-size="11.00" fill="#0f172a">block in system prompt</text>
</g>
<!-- Corr&#45;&gt;Prompt -->
<g id="edge22" class="edge">
<title>Corr&#45;&gt;Prompt</title>
<path fill="none" stroke="#a78bfa" stroke-width="2" d="M725.15,-147.16C751.55,-142.96 783.03,-138.2 811.5,-134.55 853.72,-129.14 901.08,-124.24 939.19,-120.59"/>
<polygon fill="#a78bfa" stroke="#a78bfa" stroke-width="2" points="938.96,-123.43 946.66,-119.89 938.43,-117.85 938.96,-123.43"/>
<text xml:space="preserve" text-anchor="middle" x="850.88" y="-136.5" font-family="sans-Serif" font-size="9.00" fill="#cbd5e1">findings</text>
</g>
<!-- Store&#45;&gt;Corr -->
<g id="edge24" class="edge">
<title>Store&#45;&gt;Corr</title>
<path fill="none" stroke="#fbbf24" stroke-width="1.3" stroke-dasharray="5,2" d="M967.3,-435.89C955.84,-427.92 944.67,-417.94 937.25,-406.05 868.34,-295.66 989.38,-201.36 890.25,-117.05 841.72,-75.77 765.5,-102.15 715.54,-127.47"/>
<polygon fill="#fbbf24" stroke="#fbbf24" stroke-width="1.3" points="714.39,-124.91 708.59,-131.09 716.97,-129.88 714.39,-124.91"/>
</g>
<!-- Store&#45;&gt;Prompt -->
<g id="edge23" class="edge">
<title>Store&#45;&gt;Prompt</title>
<path fill="none" stroke="#fbbf24" stroke-width="1.3" stroke-dasharray="5,2" d="M972.16,-435.47C959.98,-427.2 947.24,-417.17 937.25,-406.05 893.96,-357.85 883.15,-341.05 867.04,-278.3 850.89,-215.36 889.18,-193.77 937.25,-150.05 942.44,-145.33 948.36,-141.11 954.55,-137.37"/>
<polygon fill="#fbbf24" stroke="#fbbf24" stroke-width="1.3" points="955.8,-139.88 961.41,-133.53 953.06,-135 955.8,-139.88"/>
<text xml:space="preserve" text-anchor="middle" x="850.88" y="-269.75" font-family="sans-Serif" font-size="9.00" fill="#cbd5e1">inject</text>
</g>
<!-- Mem&#45;&gt;Corr -->
<g id="edge25" class="edge">
<title>Mem&#45;&gt;Corr</title>
<path fill="none" stroke="#a78bfa" stroke-width="1.3" stroke-dasharray="5,2" d="M956.24,-252.27C949.03,-247.12 942.38,-241.07 937.25,-234.05 878.78,-154.01 967.37,-78.31 890.25,-16.05 821.79,39.23 730.37,-66.59 688.41,-123.8"/>
<polygon fill="#a78bfa" stroke="#a78bfa" stroke-width="1.3" points="686.16,-122.14 683.74,-130.27 690.7,-125.42 686.16,-122.14"/>
<text xml:space="preserve" text-anchor="middle" x="850.88" y="-28.5" font-family="sans-Serif" font-size="9.00" fill="#cbd5e1">rule (f)</text>
<text xml:space="preserve" text-anchor="middle" x="850.88" y="-18" font-family="sans-Serif" font-size="9.00" fill="#cbd5e1">stale :fact</text>
</g>
</g>
</svg>
