<?xml version="1.0" encoding="UTF-8" standalone="no"?>
<!DOCTYPE svg PUBLIC "-//W3C//DTD SVG 1.1//EN"
 "http://www.w3.org/Graphics/SVG/1.1/DTD/svg11.dtd">
<!-- Generated by graphviz version 14.1.2 (0)
 -->
<!-- Title: PWN Fuzzing Workflows Pages: 1 -->
<svg width="740pt" height="247pt"
 viewBox="0.00 0.00 740.00 247.00" xmlns="http://www.w3.org/2000/svg" xmlns:xlink="http://www.w3.org/1999/xlink">
<g id="graph0" class="graph" transform="scale(1 1) rotate(0) translate(4 243)">
<title>PWN Fuzzing Workflows</title>
<polygon fill="white" stroke="none" points="-4,4 -4,-243 736.32,-243 736.32,4 -4,4"/>
<!-- Input -->
<g id="node1" class="node">
<title>Input</title>
<path fill="none" stroke="black" d="M76,-36C76,-36 12,-36 12,-36 6,-36 0,-30 0,-24 0,-24 0,-12 0,-12 0,-6 6,0 12,0 12,0 76,0 76,0 82,0 88,-6 88,-12 88,-12 88,-24 88,-24 88,-30 82,-36 76,-36"/>
<text xml:space="preserve" text-anchor="middle" x="44" y="-19.95" font-family="Arial" font-size="9.00">Input Corpus</text>
<text xml:space="preserve" text-anchor="middle" x="44" y="-9.45" font-family="Arial" font-size="9.00">(Seeds, Mutators)</text>
</g>
<!-- PWNfuzz -->
<g id="node6" class="node">
<title>PWNfuzz</title>
<ellipse fill="none" stroke="black" cx="181.1" cy="-113" rx="56.1" ry="18"/>
<text xml:space="preserve" text-anchor="middle" x="181.1" y="-109.7" font-family="Arial" font-size="9.00">PWN::Plugins::Fuzz</text>
</g>
<!-- Input&#45;&gt;PWNfuzz -->
<g id="edge1" class="edge">
<title>Input&#45;&gt;PWNfuzz</title>
<path fill="none" stroke="black" d="M71.05,-36.32C92.88,-51.67 124.16,-73.67 147.63,-90.17"/>
<polygon fill="black" stroke="black" points="145.4,-92.88 155.6,-95.77 149.43,-87.16 145.4,-92.88"/>
</g>
<!-- FuzzProto -->
<g id="node2" class="node">
<title>FuzzProto</title>
<path fill="none" stroke="black" d="M388.45,-239C388.45,-239 286.2,-239 286.2,-239 280.2,-239 274.2,-233 274.2,-227 274.2,-227 274.2,-215 274.2,-215 274.2,-209 280.2,-203 286.2,-203 286.2,-203 388.45,-203 388.45,-203 394.45,-203 400.45,-209 400.45,-215 400.45,-215 400.45,-227 400.45,-227 400.45,-233 394.45,-239 388.45,-239"/>
<text xml:space="preserve" text-anchor="middle" x="337.32" y="-222.95" font-family="Arial" font-size="9.00">Protocol Fuzz</text>
<text xml:space="preserve" text-anchor="middle" x="337.32" y="-212.45" font-family="Arial" font-size="9.00">(pwn_fuzz_net_app_proto)</text>
</g>
<!-- Monitor -->
<g id="node7" class="node">
<title>Monitor</title>
<path fill="none" stroke="black" d="M547.2,-131C547.2,-131 449.45,-131 449.45,-131 443.45,-131 437.45,-125 437.45,-119 437.45,-119 437.45,-107 437.45,-107 437.45,-101 443.45,-95 449.45,-95 449.45,-95 547.2,-95 547.2,-95 553.2,-95 559.2,-101 559.2,-107 559.2,-107 559.2,-119 559.2,-119 559.2,-125 553.2,-131 547.2,-131"/>
<text xml:space="preserve" text-anchor="middle" x="498.32" y="-114.95" font-family="Arial" font-size="9.00">Monitor Crashes</text>
<text xml:space="preserve" text-anchor="middle" x="498.32" y="-104.45" font-family="Arial" font-size="9.00">(PS, logging, core dumps)</text>
</g>
<!-- FuzzProto&#45;&gt;Monitor -->
<g id="edge6" class="edge">
<title>FuzzProto&#45;&gt;Monitor</title>
<path fill="none" stroke="black" d="M384.87,-202.53C390.24,-199.89 395.55,-197.03 400.45,-194 426.05,-178.19 452.05,-156.05 470.66,-138.91"/>
<polygon fill="black" stroke="black" points="472.9,-141.61 477.81,-132.22 468.11,-136.5 472.9,-141.61"/>
</g>
<!-- FuzzFile -->
<g id="node3" class="node">
<title>FuzzFile</title>
<path fill="none" stroke="black" d="M369.32,-185C369.32,-185 305.32,-185 305.32,-185 299.32,-185 293.32,-179 293.32,-173 293.32,-173 293.32,-161 293.32,-161 293.32,-155 299.32,-149 305.32,-149 305.32,-149 369.32,-149 369.32,-149 375.32,-149 381.32,-155 381.32,-161 381.32,-161 381.32,-173 381.32,-173 381.32,-179 375.32,-185 369.32,-185"/>
<text xml:space="preserve" text-anchor="middle" x="337.32" y="-163.7" font-family="Arial" font-size="9.00">File / Format Fuzz</text>
</g>
<!-- FuzzFile&#45;&gt;Monitor -->
<g id="edge7" class="edge">
<title>FuzzFile&#45;&gt;Monitor</title>
<path fill="none" stroke="black" d="M381.77,-152.24C397.46,-146.92 415.52,-140.78 432.63,-134.97"/>
<polygon fill="black" stroke="black" points="433.36,-138.42 441.7,-131.89 431.1,-131.79 433.36,-138.42"/>
</g>
<!-- FuzzNet -->
<g id="node4" class="node">
<title>FuzzNet</title>
<path fill="none" stroke="black" d="M377.57,-131C377.57,-131 297.07,-131 297.07,-131 291.07,-131 285.07,-125 285.07,-119 285.07,-119 285.07,-107 285.07,-107 285.07,-101 291.07,-95 297.07,-95 297.07,-95 377.57,-95 377.57,-95 383.57,-95 389.57,-101 389.57,-107 389.57,-107 389.57,-119 389.57,-119 389.57,-125 383.57,-131 377.57,-131"/>
<text xml:space="preserve" text-anchor="middle" x="337.32" y="-109.7" font-family="Arial" font-size="9.00">Network Service Fuzz</text>
</g>
<!-- FuzzNet&#45;&gt;Monitor -->
<g id="edge8" class="edge">
<title>FuzzNet&#45;&gt;Monitor</title>
<path fill="none" stroke="black" d="M389.95,-113C401.35,-113 413.64,-113 425.68,-113"/>
<polygon fill="black" stroke="black" points="425.6,-116.5 435.6,-113 425.6,-109.5 425.6,-116.5"/>
</g>
<!-- FuzzWeb -->
<g id="node5" class="node">
<title>FuzzWeb</title>
<path fill="none" stroke="black" d="M370.45,-77C370.45,-77 304.2,-77 304.2,-77 298.2,-77 292.2,-71 292.2,-65 292.2,-65 292.2,-53 292.2,-53 292.2,-47 298.2,-41 304.2,-41 304.2,-41 370.45,-41 370.45,-41 376.45,-41 382.45,-47 382.45,-53 382.45,-53 382.45,-65 382.45,-65 382.45,-71 376.45,-77 370.45,-77"/>
<text xml:space="preserve" text-anchor="middle" x="337.32" y="-60.95" font-family="Arial" font-size="9.00">Web App Fuzz</text>
<text xml:space="preserve" text-anchor="middle" x="337.32" y="-50.45" font-family="Arial" font-size="9.00">(XSS vectors, etc.)</text>
</g>
<!-- FuzzWeb&#45;&gt;Monitor -->
<g id="edge9" class="edge">
<title>FuzzWeb&#45;&gt;Monitor</title>
<path fill="none" stroke="black" d="M382.61,-74.04C397.99,-79.26 415.57,-85.23 432.27,-90.91"/>
<polygon fill="black" stroke="black" points="431.06,-94.19 441.65,-94.09 433.31,-87.56 431.06,-94.19"/>
</g>
<!-- PWNfuzz&#45;&gt;FuzzProto -->
<g id="edge2" class="edge">
<title>PWNfuzz&#45;&gt;FuzzProto</title>
<path fill="none" stroke="black" d="M198.45,-130.26C215.93,-147.99 245.08,-175.51 274.2,-194 276.02,-195.16 277.91,-196.29 279.83,-197.39"/>
<polygon fill="black" stroke="black" points="277.89,-200.32 288.36,-201.94 281.18,-194.15 277.89,-200.32"/>
</g>
<!-- PWNfuzz&#45;&gt;FuzzFile -->
<g id="edge3" class="edge">
<title>PWNfuzz&#45;&gt;FuzzFile</title>
<path fill="none" stroke="black" d="M220.22,-126.35C238.9,-132.89 261.71,-140.88 282.16,-148.04"/>
<polygon fill="black" stroke="black" points="280.9,-151.3 291.49,-151.3 283.21,-144.69 280.9,-151.3"/>
</g>
<!-- PWNfuzz&#45;&gt;FuzzNet -->
<g id="edge4" class="edge">
<title>PWNfuzz&#45;&gt;FuzzNet</title>
<path fill="none" stroke="black" d="M237.34,-113C249.07,-113 261.53,-113 273.51,-113"/>
<polygon fill="black" stroke="black" points="273.3,-116.5 283.3,-113 273.3,-109.5 273.3,-116.5"/>
</g>
<!-- PWNfuzz&#45;&gt;FuzzWeb -->
<g id="edge5" class="edge">
<title>PWNfuzz&#45;&gt;FuzzWeb</title>
<path fill="none" stroke="black" d="M220.22,-99.65C238.6,-93.22 260.98,-85.38 281.17,-78.31"/>
<polygon fill="black" stroke="black" points="282.09,-81.7 290.38,-75.09 279.78,-75.09 282.09,-81.7"/>
</g>
<!-- Corpus -->
<g id="node8" class="node">
<title>Corpus</title>
<path fill="none" stroke="black" d="M707.88,-129.31C707.88,-131.31 688.33,-132.94 664.26,-132.94 640.19,-132.94 620.63,-131.31 620.63,-129.31 620.63,-129.31 620.63,-96.69 620.63,-96.69 620.63,-94.69 640.19,-93.06 664.26,-93.06 688.33,-93.06 707.88,-94.69 707.88,-96.69 707.88,-96.69 707.88,-129.31 707.88,-129.31"/>
<path fill="none" stroke="black" d="M707.88,-129.31C707.88,-127.31 688.33,-125.69 664.26,-125.69 640.19,-125.69 620.63,-127.31 620.63,-129.31"/>
<text xml:space="preserve" text-anchor="middle" x="664.26" y="-114.95" font-family="Arial" font-size="9.00">Interesting Inputs</text>
<text xml:space="preserve" text-anchor="middle" x="664.26" y="-104.45" font-family="Arial" font-size="9.00">(saved for replay)</text>
</g>
<!-- Monitor&#45;&gt;Corpus -->
<g id="edge10" class="edge">
<title>Monitor&#45;&gt;Corpus</title>
<path fill="none" stroke="black" d="M559.44,-113C575.69,-113 593.17,-113 609.08,-113"/>
<polygon fill="black" stroke="black" points="608.82,-116.5 618.82,-113 608.82,-109.5 608.82,-116.5"/>
</g>
<!-- Crash -->
<g id="node9" class="node">
<title>Crash</title>
<ellipse fill="none" stroke="black" cx="664.26" cy="-31" rx="68.06" ry="20.51"/>
<text xml:space="preserve" text-anchor="middle" x="664.26" y="-32.95" font-family="Arial" font-size="9.00">Crash Analysis</text>
<text xml:space="preserve" text-anchor="middle" x="664.26" y="-22.45" font-family="Arial" font-size="9.00">(identify root cause)</text>
</g>
<!-- Monitor&#45;&gt;Crash -->
<g id="edge11" class="edge">
<title>Monitor&#45;&gt;Crash</title>
<path fill="none" stroke="black" d="M536.11,-94.6C560.26,-82.52 592.01,-66.64 617.74,-53.77"/>
<polygon fill="black" stroke="black" points="619.26,-56.92 626.64,-49.31 616.13,-50.66 619.26,-56.92"/>
</g>
<!-- Crash&#45;&gt;Input -->
<g id="edge12" class="edge">
<title>Crash&#45;&gt;Input</title>
<path fill="none" stroke="black" d="M609.3,-18.57C577.48,-12.3 536.32,-6 499.32,-6 180.1,-6 180.1,-6 180.1,-6 153.57,-6 124.23,-8.32 99.69,-10.93"/>
<polygon fill="black" stroke="black" points="99.47,-7.43 89.92,-12.01 100.24,-14.39 99.47,-7.43"/>
<text xml:space="preserve" text-anchor="middle" x="337.32" y="-9.2" font-family="Times,serif" font-size="14.00">refine mutators</text>
</g>
</g>
</svg>
