<?xml version="1.0" encoding="UTF-8" standalone="no"?>
<!DOCTYPE svg PUBLIC "-//W3C//DTD SVG 1.1//EN"
 "http://www.w3.org/Graphics/SVG/1.1/DTD/svg11.dtd">
<!-- Generated by graphviz version 14.1.2 (0)
 -->
<!-- Title: PWN_Fuzz Pages: 1 -->
<svg width="901pt" height="389pt"
 viewBox="0.00 0.00 901.00 389.00" xmlns="http://www.w3.org/2000/svg" xmlns:xlink="http://www.w3.org/1999/xlink">
<g id="graph0" class="graph" transform="scale(1 1) rotate(0) translate(43.2 346.07)">
<title>PWN_Fuzz</title>
<polygon fill="#0f172a" stroke="none" points="-43.2,43.2 -43.2,-346.07 858.2,-346.07 858.2,43.2 -43.2,43.2"/>
<text xml:space="preserve" text-anchor="start" x="322.75" y="-280.87" font-family="Helvetica,sans-Serif" font-weight="bold" font-size="20.00" fill="#e2e8f0">Fuzzing with PWN</text>
<text xml:space="preserve" text-anchor="start" x="299.5" y="-269.42" font-family="Helvetica,sans-Serif" font-size="11.00" fill="#94a3b8">Plugins::Fuzz · Sock · Packet · Reports::Fuzz</text>
<g id="clust1" class="cluster">
<title>cluster_gen</title>
<path fill="#022c22" stroke="#047857" d="M182.75,-36.87C182.75,-36.87 267.25,-36.87 267.25,-36.87 273.25,-36.87 279.25,-42.87 279.25,-48.87 279.25,-48.87 279.25,-175.87 279.25,-175.87 279.25,-181.87 273.25,-187.87 267.25,-187.87 267.25,-187.87 182.75,-187.87 182.75,-187.87 176.75,-187.87 170.75,-181.87 170.75,-175.87 170.75,-175.87 170.75,-48.87 170.75,-48.87 170.75,-42.87 176.75,-36.87 182.75,-36.87"/>
<text xml:space="preserve" text-anchor="middle" x="225" y="-164.87" font-family="Helvetica,sans-Serif" font-size="20.00" fill="#a7f3d0">Generate</text>
</g>
<g id="clust2" class="cluster">
<title>cluster_deliver</title>
<path fill="#422006" stroke="#a16207" d="M362.25,-36.87C362.25,-36.87 479,-36.87 479,-36.87 485,-36.87 491,-42.87 491,-48.87 491,-48.87 491,-243.87 491,-243.87 491,-249.87 485,-255.87 479,-255.87 479,-255.87 362.25,-255.87 362.25,-255.87 356.25,-255.87 350.25,-249.87 350.25,-243.87 350.25,-243.87 350.25,-48.87 350.25,-48.87 350.25,-42.87 356.25,-36.87 362.25,-36.87"/>
<text xml:space="preserve" text-anchor="middle" x="420.62" y="-232.87" font-family="Helvetica,sans-Serif" font-size="20.00" fill="#fde68a">Deliver</text>
</g>
<g id="clust3" class="cluster">
<title>cluster_mon</title>
<path fill="#450a0a" stroke="#b91c1c" d="M574,-104.87C574,-104.87 645.75,-104.87 645.75,-104.87 651.75,-104.87 657.75,-110.87 657.75,-116.87 657.75,-116.87 657.75,-243.87 657.75,-243.87 657.75,-249.87 651.75,-255.87 645.75,-255.87 645.75,-255.87 574,-255.87 574,-255.87 568,-255.87 562,-249.87 562,-243.87 562,-243.87 562,-116.87 562,-116.87 562,-110.87 568,-104.87 574,-104.87"/>
<text xml:space="preserve" text-anchor="middle" x="609.88" y="-232.87" font-family="Helvetica,sans-Serif" font-size="20.00" fill="#fecaca">Monitor</text>
</g>
<!-- Seed -->
<g id="node1" class="node">
<title>Seed</title>
<path fill="#7dd3fc" stroke="#334155" stroke-width="1.3" d="M79.75,-113.87C79.75,-113.87 12,-113.87 12,-113.87 6,-113.87 0,-107.87 0,-101.87 0,-101.87 0,-89.87 0,-89.87 0,-83.87 6,-77.87 12,-77.87 12,-77.87 79.75,-77.87 79.75,-77.87 85.75,-77.87 91.75,-83.87 91.75,-89.87 91.75,-89.87 91.75,-101.87 91.75,-101.87 91.75,-107.87 85.75,-113.87 79.75,-113.87"/>
<text xml:space="preserve" text-anchor="middle" x="45.88" y="-98.37" font-family="Helvetica,sans-Serif" font-size="10.00" fill="#0f172a">Seed corpus /</text>
<text xml:space="preserve" text-anchor="middle" x="45.88" y="-86.37" font-family="Helvetica,sans-Serif" font-size="10.00" fill="#0f172a">protocol grammar</text>
</g>
<!-- Fuzz -->
<g id="node2" class="node">
<title>Fuzz</title>
<path fill="#6ee7b7" stroke="#334155" stroke-width="1.3" d="M259.25,-148.87C259.25,-148.87 190.75,-148.87 190.75,-148.87 184.75,-148.87 178.75,-142.87 178.75,-136.87 178.75,-136.87 178.75,-124.87 178.75,-124.87 178.75,-118.87 184.75,-112.87 190.75,-112.87 190.75,-112.87 259.25,-112.87 259.25,-112.87 265.25,-112.87 271.25,-118.87 271.25,-124.87 271.25,-124.87 271.25,-136.87 271.25,-136.87 271.25,-142.87 265.25,-148.87 259.25,-148.87"/>
<text xml:space="preserve" text-anchor="middle" x="225" y="-133.37" font-family="Helvetica,sans-Serif" font-size="10.00" fill="#0f172a">Plugins::Fuzz</text>
<text xml:space="preserve" text-anchor="middle" x="225" y="-121.37" font-family="Helvetica,sans-Serif" font-size="10.00" fill="#0f172a">mutate · generate</text>
</g>
<!-- Seed&#45;&gt;Fuzz -->
<g id="edge1" class="edge">
<title>Seed&#45;&gt;Fuzz</title>
<path fill="none" stroke="#38bdf8" stroke-width="1.3" d="M92.03,-104.8C115.37,-109.41 144.07,-115.08 168.73,-119.95"/>
<polygon fill="#38bdf8" stroke="#38bdf8" stroke-width="1.3" points="167.99,-122.66 176.38,-121.46 169.08,-117.17 167.99,-122.66"/>
</g>
<!-- Char -->
<g id="node3" class="node">
<title>Char</title>
<path fill="#6ee7b7" stroke="#334155" stroke-width="1.3" d="M250.62,-80.87C250.62,-80.87 199.38,-80.87 199.38,-80.87 193.38,-80.87 187.38,-74.87 187.38,-68.87 187.38,-68.87 187.38,-56.87 187.38,-56.87 187.38,-50.87 193.38,-44.87 199.38,-44.87 199.38,-44.87 250.62,-44.87 250.62,-44.87 256.62,-44.87 262.62,-50.87 262.62,-56.87 262.62,-56.87 262.62,-68.87 262.62,-68.87 262.62,-74.87 256.62,-80.87 250.62,-80.87"/>
<text xml:space="preserve" text-anchor="middle" x="225" y="-65.37" font-family="Helvetica,sans-Serif" font-size="10.00" fill="#0f172a">Plugins::Char</text>
<text xml:space="preserve" text-anchor="middle" x="225" y="-53.37" font-family="Helvetica,sans-Serif" font-size="10.00" fill="#0f172a">encodings</text>
</g>
<!-- Seed&#45;&gt;Char -->
<g id="edge2" class="edge">
<title>Seed&#45;&gt;Char</title>
<path fill="none" stroke="#38bdf8" stroke-width="1.3" d="M92.03,-87.46C118.11,-82.6 150.87,-76.5 177.22,-71.59"/>
<polygon fill="#38bdf8" stroke="#38bdf8" stroke-width="1.3" points="177.7,-74.35 185.05,-70.13 176.67,-68.84 177.7,-74.35"/>
</g>
<!-- Sock -->
<g id="node4" class="node">
<title>Sock</title>
<path fill="#fcd34d" stroke="#334155" stroke-width="1.3" d="M447,-216.87C447,-216.87 394.25,-216.87 394.25,-216.87 388.25,-216.87 382.25,-210.87 382.25,-204.87 382.25,-204.87 382.25,-192.87 382.25,-192.87 382.25,-186.87 388.25,-180.87 394.25,-180.87 394.25,-180.87 447,-180.87 447,-180.87 453,-180.87 459,-186.87 459,-192.87 459,-192.87 459,-204.87 459,-204.87 459,-210.87 453,-216.87 447,-216.87"/>
<text xml:space="preserve" text-anchor="middle" x="420.62" y="-201.37" font-family="Helvetica,sans-Serif" font-size="10.00" fill="#0f172a">Plugins::Sock</text>
<text xml:space="preserve" text-anchor="middle" x="420.62" y="-189.37" font-family="Helvetica,sans-Serif" font-size="10.00" fill="#0f172a">TCP/UDP</text>
</g>
<!-- Fuzz&#45;&gt;Sock -->
<g id="edge3" class="edge">
<title>Fuzz&#45;&gt;Sock</title>
<path fill="none" stroke="#f59e0b" stroke-width="1.3" d="M271.89,-146.99C302.29,-157.67 342.06,-171.63 372.68,-182.39"/>
<polygon fill="#f59e0b" stroke="#f59e0b" stroke-width="1.3" points="371.54,-184.95 380.01,-184.96 373.39,-179.67 371.54,-184.95"/>
</g>
<!-- Packet -->
<g id="node5" class="node">
<title>Packet</title>
<path fill="#fcd34d" stroke="#334155" stroke-width="1.3" d="M451.12,-148.87C451.12,-148.87 390.12,-148.87 390.12,-148.87 384.12,-148.87 378.12,-142.87 378.12,-136.87 378.12,-136.87 378.12,-124.87 378.12,-124.87 378.12,-118.87 384.12,-112.87 390.12,-112.87 390.12,-112.87 451.12,-112.87 451.12,-112.87 457.12,-112.87 463.12,-118.87 463.12,-124.87 463.12,-124.87 463.12,-136.87 463.12,-136.87 463.12,-142.87 457.12,-148.87 451.12,-148.87"/>
<text xml:space="preserve" text-anchor="middle" x="420.62" y="-133.37" font-family="Helvetica,sans-Serif" font-size="10.00" fill="#0f172a">Plugins::Packet</text>
<text xml:space="preserve" text-anchor="middle" x="420.62" y="-121.37" font-family="Helvetica,sans-Serif" font-size="10.00" fill="#0f172a">raw L2/L3</text>
</g>
<!-- Fuzz&#45;&gt;Packet -->
<g id="edge4" class="edge">
<title>Fuzz&#45;&gt;Packet</title>
<path fill="none" stroke="#f59e0b" stroke-width="1.3" d="M271.89,-130.87C300.72,-130.87 337.98,-130.87 367.87,-130.87"/>
<polygon fill="#f59e0b" stroke="#f59e0b" stroke-width="1.3" points="367.73,-133.67 375.73,-130.87 367.73,-128.07 367.73,-133.67"/>
</g>
<!-- NetApp -->
<g id="node6" class="node">
<title>NetApp</title>
<path fill="#fcd34d" stroke="#334155" stroke-width="1.3" d="M471,-80.87C471,-80.87 370.25,-80.87 370.25,-80.87 364.25,-80.87 358.25,-74.87 358.25,-68.87 358.25,-68.87 358.25,-56.87 358.25,-56.87 358.25,-50.87 364.25,-44.87 370.25,-44.87 370.25,-44.87 471,-44.87 471,-44.87 477,-44.87 483,-50.87 483,-56.87 483,-56.87 483,-68.87 483,-68.87 483,-74.87 477,-80.87 471,-80.87"/>
<text xml:space="preserve" text-anchor="middle" x="420.62" y="-65.37" font-family="Helvetica,sans-Serif" font-size="10.00" fill="#0f172a">pwn_fuzz_net_app_proto</text>
<text xml:space="preserve" text-anchor="middle" x="420.62" y="-53.37" font-family="Helvetica,sans-Serif" font-size="10.00" fill="#0f172a">CLI driver</text>
</g>
<!-- Char&#45;&gt;NetApp -->
<g id="edge5" class="edge">
<title>Char&#45;&gt;NetApp</title>
<path fill="none" stroke="#f59e0b" stroke-width="1.3" d="M262.88,-62.87C286.93,-62.87 319.12,-62.87 348.07,-62.87"/>
<polygon fill="#f59e0b" stroke="#f59e0b" stroke-width="1.3" points="347.78,-65.67 355.78,-62.87 347.78,-60.07 347.78,-65.67"/>
</g>
<!-- PS -->
<g id="node7" class="node">
<title>PS</title>
<path fill="#fda4af" stroke="#334155" stroke-width="1.3" d="M637.75,-216.87C637.75,-216.87 582,-216.87 582,-216.87 576,-216.87 570,-210.87 570,-204.87 570,-204.87 570,-192.87 570,-192.87 570,-186.87 576,-180.87 582,-180.87 582,-180.87 637.75,-180.87 637.75,-180.87 643.75,-180.87 649.75,-186.87 649.75,-192.87 649.75,-192.87 649.75,-204.87 649.75,-204.87 649.75,-210.87 643.75,-216.87 637.75,-216.87"/>
<text xml:space="preserve" text-anchor="middle" x="609.88" y="-201.37" font-family="Helvetica,sans-Serif" font-size="10.00" fill="#0f172a">Plugins::PS</text>
<text xml:space="preserve" text-anchor="middle" x="609.88" y="-189.37" font-family="Helvetica,sans-Serif" font-size="10.00" fill="#0f172a">process health</text>
</g>
<!-- Sock&#45;&gt;PS -->
<g id="edge6" class="edge">
<title>Sock&#45;&gt;PS</title>
<path fill="none" stroke="#fb7185" stroke-width="1.3" d="M459.52,-198.87C488.35,-198.87 528.27,-198.87 559.58,-198.87"/>
<polygon fill="#fb7185" stroke="#fb7185" stroke-width="1.3" points="559.46,-201.67 567.46,-198.87 559.46,-196.07 559.46,-201.67"/>
</g>
<!-- Log -->
<g id="node8" class="node">
<title>Log</title>
<path fill="#fda4af" stroke="#334155" stroke-width="1.3" d="M632.88,-148.87C632.88,-148.87 586.88,-148.87 586.88,-148.87 580.88,-148.87 574.88,-142.87 574.88,-136.87 574.88,-136.87 574.88,-124.87 574.88,-124.87 574.88,-118.87 580.88,-112.87 586.88,-112.87 586.88,-112.87 632.88,-112.87 632.88,-112.87 638.88,-112.87 644.88,-118.87 644.88,-124.87 644.88,-124.87 644.88,-136.87 644.88,-136.87 644.88,-142.87 638.88,-148.87 632.88,-148.87"/>
<text xml:space="preserve" text-anchor="middle" x="609.88" y="-133.37" font-family="Helvetica,sans-Serif" font-size="10.00" fill="#0f172a">Plugins::Log</text>
<text xml:space="preserve" text-anchor="middle" x="609.88" y="-121.37" font-family="Helvetica,sans-Serif" font-size="10.00" fill="#0f172a">crash detect</text>
</g>
<!-- Packet&#45;&gt;Log -->
<g id="edge7" class="edge">
<title>Packet&#45;&gt;Log</title>
<path fill="none" stroke="#fb7185" stroke-width="1.3" d="M463.65,-130.87C493.68,-130.87 534.01,-130.87 564.55,-130.87"/>
<polygon fill="#fb7185" stroke="#fb7185" stroke-width="1.3" points="564.54,-133.67 572.54,-130.87 564.54,-128.07 564.54,-133.67"/>
</g>
<!-- NetApp&#45;&gt;Log -->
<g id="edge8" class="edge">
<title>NetApp&#45;&gt;Log</title>
<path fill="none" stroke="#fb7185" stroke-width="1.3" d="M472.79,-81.45C501.78,-91.98 537.67,-105.01 565.3,-115.05"/>
<polygon fill="#fb7185" stroke="#fb7185" stroke-width="1.3" points="564.01,-117.56 572.49,-117.66 565.93,-112.3 564.01,-117.56"/>
</g>
<!-- Report -->
<g id="node9" class="node">
<title>Report</title>
<path fill="#7dd3fc" stroke="#334155" stroke-width="1.3" d="M803,-185.87C803,-185.87 748.75,-185.87 748.75,-185.87 742.75,-185.87 736.75,-179.87 736.75,-173.87 736.75,-173.87 736.75,-161.87 736.75,-161.87 736.75,-155.87 742.75,-149.87 748.75,-149.87 748.75,-149.87 803,-149.87 803,-149.87 809,-149.87 815,-155.87 815,-161.87 815,-161.87 815,-173.87 815,-173.87 815,-179.87 809,-185.87 803,-185.87"/>
<text xml:space="preserve" text-anchor="middle" x="775.88" y="-170.37" font-family="Helvetica,sans-Serif" font-size="10.00" fill="#0f172a">Reports::Fuzz</text>
<text xml:space="preserve" text-anchor="middle" x="775.88" y="-158.37" font-family="Helvetica,sans-Serif" font-size="10.00" fill="#0f172a">crash triage</text>
</g>
<!-- PS&#45;&gt;Report -->
<g id="edge9" class="edge">
<title>PS&#45;&gt;Report</title>
<path fill="none" stroke="#38bdf8" stroke-width="1.3" d="M650.16,-191.45C673.06,-187.12 702.13,-181.62 726.45,-177.03"/>
<polygon fill="#38bdf8" stroke="#38bdf8" stroke-width="1.3" points="726.92,-179.79 734.26,-175.55 725.88,-174.28 726.92,-179.79"/>
</g>
<!-- Log&#45;&gt;Fuzz -->
<g id="edge11" class="edge">
<title>Log&#45;&gt;Fuzz</title>
<path fill="none" stroke="#fbbf24" stroke-width="1.3" stroke-dasharray="5,2" d="M596.69,-112.47C577.77,-85.77 538.53,-37.41 491,-18.37 432.93,4.89 407.43,7.01 350.25,-18.37 307.25,-37.46 315.17,-66.5 279.25,-96.87 275.22,-100.28 270.82,-103.61 266.34,-106.77"/>
<polygon fill="#fbbf24" stroke="#fbbf24" stroke-width="1.3" points="264.92,-104.34 259.87,-111.15 268.06,-108.98 264.92,-104.34"/>
<text xml:space="preserve" text-anchor="middle" x="420.62" y="-20.32" font-family="Helvetica,sans-Serif" font-size="9.00" fill="#cbd5e1">minimise + reseed</text>
</g>
<!-- Log&#45;&gt;Report -->
<g id="edge10" class="edge">
<title>Log&#45;&gt;Report</title>
<path fill="none" stroke="#38bdf8" stroke-width="1.3" d="M645.25,-138.63C668.82,-143.95 700.43,-151.08 726.53,-156.97"/>
<polygon fill="#38bdf8" stroke="#38bdf8" stroke-width="1.3" points="725.89,-159.69 734.31,-158.72 727.13,-154.23 725.89,-159.69"/>
</g>
</g>
</svg>
