<?xml version="1.0" encoding="UTF-8" standalone="no"?>
<!DOCTYPE svg PUBLIC "-//W3C//DTD SVG 1.1//EN"
 "http://www.w3.org/Graphics/SVG/1.1/DTD/svg11.dtd">
<!-- Generated by graphviz version 14.1.2 (0)
 -->
<!-- Title: PWN_Hardware Pages: 1 -->
<svg width="702pt" height="484pt"
 viewBox="0.00 0.00 702.00 484.00" xmlns="http://www.w3.org/2000/svg" xmlns:xlink="http://www.w3.org/1999/xlink">
<g id="graph0" class="graph" transform="scale(1 1) rotate(0) translate(43.2 441.2)">
<title>PWN_Hardware</title>
<polygon fill="#0f172a" stroke="none" points="-43.2,43.2 -43.2,-441.2 658.7,-441.2 658.7,43.2 -43.2,43.2"/>
<text xml:space="preserve" text-anchor="start" x="138.25" y="-376" font-family="sans-Serif" font-weight="bold" font-size="20.00" fill="#e2e8f0">Hardware &amp; Physical&#45;Layer Hacking</text>
<text xml:space="preserve" text-anchor="start" x="175.38" y="-364.55" font-family="sans-Serif" font-size="11.00" fill="#94a3b8">Serial · BusPirate · MSR206 · Android · BareSIP · SDR</text>
<g id="clust1" class="cluster">
<title>cluster_dev</title>
<path fill="#450a0a" stroke="#b91c1c" stroke-dasharray="5,2" d="M12,-8C12,-8 154,-8 154,-8 160,-8 166,-14 166,-20 166,-20 166,-339 166,-339 166,-345 160,-351 154,-351 154,-351 12,-351 12,-351 6,-351 0,-345 0,-339 0,-339 0,-20 0,-20 0,-14 6,-8 12,-8"/>
<text xml:space="preserve" text-anchor="middle" x="83" y="-328" font-family="sans-Serif" font-size="20.00" fill="#fecaca">Physical Devices</text>
</g>
<g id="clust2" class="cluster">
<title>cluster_pl</title>
<path fill="#022c22" stroke="#047857" d="M248,-8C248,-8 420.75,-8 420.75,-8 426.75,-8 432.75,-14 432.75,-20 432.75,-20 432.75,-339 432.75,-339 432.75,-345 426.75,-351 420.75,-351 420.75,-351 248,-351 248,-351 242,-351 236,-345 236,-339 236,-339 236,-20 236,-20 236,-14 242,-8 248,-8"/>
<text xml:space="preserve" text-anchor="middle" x="334.38" y="-328" font-family="sans-Serif" font-size="20.00" fill="#a7f3d0">PWN::Plugins / SDR</text>
</g>
<g id="clust3" class="cluster">
<title>cluster_out</title>
<path fill="#2e1065" stroke="#6d28d9" d="M514.75,-73C514.75,-73 595.5,-73 595.5,-73 601.5,-73 607.5,-79 607.5,-85 607.5,-85 607.5,-209 607.5,-209 607.5,-215 601.5,-221 595.5,-221 595.5,-221 514.75,-221 514.75,-221 508.75,-221 502.75,-215 502.75,-209 502.75,-209 502.75,-85 502.75,-85 502.75,-79 508.75,-73 514.75,-73"/>
<text xml:space="preserve" text-anchor="middle" x="555.12" y="-198" font-family="sans-Serif" font-size="20.00" fill="#ddd6fe">Analysis</text>
</g>
<!-- Uart -->
<g id="node1" class="node">
<title>Uart</title>
<path fill="#fda4af" stroke="#334155" stroke-width="1.3" d="M114.88,-52C114.88,-52 50.12,-52 50.12,-52 44.12,-52 38.12,-46 38.12,-40 38.12,-40 38.12,-28 38.12,-28 38.12,-22 44.12,-16 50.12,-16 50.12,-16 114.88,-16 114.88,-16 120.88,-16 126.88,-22 126.88,-28 126.88,-28 126.88,-40 126.88,-40 126.88,-46 120.88,-52 114.88,-52"/>
<text xml:space="preserve" text-anchor="middle" x="82.5" y="-36.5" font-family="sans-Serif" font-size="10.00" fill="#0f172a">UART / JTAG</text>
<text xml:space="preserve" text-anchor="middle" x="82.5" y="-24.5" font-family="sans-Serif" font-size="10.00" fill="#0f172a">embedded target</text>
</g>
<!-- Serial -->
<g id="node6" class="node">
<title>Serial</title>
<path fill="#6ee7b7" stroke="#334155" stroke-width="1.3" d="M368.12,-52C368.12,-52 299.62,-52 299.62,-52 293.62,-52 287.62,-46 287.62,-40 287.62,-40 287.62,-28 287.62,-28 287.62,-22 293.62,-16 299.62,-16 299.62,-16 368.12,-16 368.12,-16 374.12,-16 380.12,-22 380.12,-28 380.12,-28 380.12,-40 380.12,-40 380.12,-46 374.12,-52 368.12,-52"/>
<text xml:space="preserve" text-anchor="middle" x="333.88" y="-30.5" font-family="sans-Serif" font-size="10.00" fill="#0f172a">Serial · BusPirate</text>
</g>
<!-- Uart&#45;&gt;Serial -->
<g id="edge1" class="edge">
<title>Uart&#45;&gt;Serial</title>
<path fill="none" stroke="#fb7185" stroke-width="1.3" d="M127.51,-34C169.24,-34 232.09,-34 277.27,-34"/>
<polygon fill="#fb7185" stroke="#fb7185" stroke-width="1.3" points="277.23,-36.8 285.23,-34 277.23,-31.2 277.23,-36.8"/>
</g>
<!-- Mag -->
<g id="node2" class="node">
<title>Mag</title>
<path fill="#fda4af" stroke="#334155" stroke-width="1.3" d="M110.75,-117C110.75,-117 54.25,-117 54.25,-117 48.25,-117 42.25,-111 42.25,-105 42.25,-105 42.25,-93 42.25,-93 42.25,-87 48.25,-81 54.25,-81 54.25,-81 110.75,-81 110.75,-81 116.75,-81 122.75,-87 122.75,-93 122.75,-93 122.75,-105 122.75,-105 122.75,-111 116.75,-117 110.75,-117"/>
<text xml:space="preserve" text-anchor="middle" x="82.5" y="-95.5" font-family="sans-Serif" font-size="10.00" fill="#0f172a">Magstripe card</text>
</g>
<!-- MSR -->
<g id="node7" class="node">
<title>MSR</title>
<path fill="#6ee7b7" stroke="#334155" stroke-width="1.3" d="M349,-117C349,-117 318.75,-117 318.75,-117 312.75,-117 306.75,-111 306.75,-105 306.75,-105 306.75,-93 306.75,-93 306.75,-87 312.75,-81 318.75,-81 318.75,-81 349,-81 349,-81 355,-81 361,-87 361,-93 361,-93 361,-105 361,-105 361,-111 355,-117 349,-117"/>
<text xml:space="preserve" text-anchor="middle" x="333.88" y="-95.5" font-family="sans-Serif" font-size="10.00" fill="#0f172a">MSR206</text>
</g>
<!-- Mag&#45;&gt;MSR -->
<g id="edge2" class="edge">
<title>Mag&#45;&gt;MSR</title>
<path fill="none" stroke="#fb7185" stroke-width="1.3" d="M123.29,-99C170.97,-99 250.21,-99 296.38,-99"/>
<polygon fill="#fb7185" stroke="#fb7185" stroke-width="1.3" points="296.29,-101.8 304.29,-99 296.29,-96.2 296.29,-101.8"/>
</g>
<!-- Phone -->
<g id="node3" class="node">
<title>Phone</title>
<path fill="#fda4af" stroke="#334155" stroke-width="1.3" d="M110.75,-182C110.75,-182 54.25,-182 54.25,-182 48.25,-182 42.25,-176 42.25,-170 42.25,-170 42.25,-158 42.25,-158 42.25,-152 48.25,-146 54.25,-146 54.25,-146 110.75,-146 110.75,-146 116.75,-146 122.75,-152 122.75,-158 122.75,-158 122.75,-170 122.75,-170 122.75,-176 116.75,-182 110.75,-182"/>
<text xml:space="preserve" text-anchor="middle" x="82.5" y="-160.5" font-family="sans-Serif" font-size="10.00" fill="#0f172a">Android device</text>
</g>
<!-- Adb -->
<g id="node8" class="node">
<title>Adb</title>
<path fill="#6ee7b7" stroke="#334155" stroke-width="1.3" d="M358.75,-182C358.75,-182 309,-182 309,-182 303,-182 297,-176 297,-170 297,-170 297,-158 297,-158 297,-152 303,-146 309,-146 309,-146 358.75,-146 358.75,-146 364.75,-146 370.75,-152 370.75,-158 370.75,-158 370.75,-170 370.75,-170 370.75,-176 364.75,-182 358.75,-182"/>
<text xml:space="preserve" text-anchor="middle" x="333.88" y="-160.5" font-family="sans-Serif" font-size="10.00" fill="#0f172a">Android (adb)</text>
</g>
<!-- Phone&#45;&gt;Adb -->
<g id="edge3" class="edge">
<title>Phone&#45;&gt;Adb</title>
<path fill="none" stroke="#fb7185" stroke-width="1.3" d="M123.29,-164C167.74,-164 239.62,-164 286.56,-164"/>
<polygon fill="#fb7185" stroke="#fb7185" stroke-width="1.3" points="286.5,-166.8 294.5,-164 286.5,-161.2 286.5,-166.8"/>
</g>
<!-- VoIP -->
<g id="node4" class="node">
<title>VoIP</title>
<path fill="#fda4af" stroke="#334155" stroke-width="1.3" d="M104.75,-247C104.75,-247 60.25,-247 60.25,-247 54.25,-247 48.25,-241 48.25,-235 48.25,-235 48.25,-223 48.25,-223 48.25,-217 54.25,-211 60.25,-211 60.25,-211 104.75,-211 104.75,-211 110.75,-211 116.75,-217 116.75,-223 116.75,-223 116.75,-235 116.75,-235 116.75,-241 110.75,-247 104.75,-247"/>
<text xml:space="preserve" text-anchor="middle" x="82.5" y="-225.5" font-family="sans-Serif" font-size="10.00" fill="#0f172a">SIP / PSTN</text>
</g>
<!-- Sip -->
<g id="node9" class="node">
<title>Sip</title>
<path fill="#6ee7b7" stroke="#334155" stroke-width="1.3" d="M365.12,-247C365.12,-247 302.62,-247 302.62,-247 296.62,-247 290.62,-241 290.62,-235 290.62,-235 290.62,-223 290.62,-223 290.62,-217 296.62,-211 302.62,-211 302.62,-211 365.12,-211 365.12,-211 371.12,-211 377.12,-217 377.12,-223 377.12,-223 377.12,-235 377.12,-235 377.12,-241 371.12,-247 365.12,-247"/>
<text xml:space="preserve" text-anchor="middle" x="333.88" y="-225.5" font-family="sans-Serif" font-size="10.00" fill="#0f172a">BareSIP · Voice</text>
</g>
<!-- VoIP&#45;&gt;Sip -->
<g id="edge4" class="edge">
<title>VoIP&#45;&gt;Sip</title>
<path fill="none" stroke="#fb7185" stroke-width="1.3" d="M117.39,-229C159.38,-229 231.36,-229 280.48,-229"/>
<polygon fill="#fb7185" stroke="#fb7185" stroke-width="1.3" points="280.32,-231.8 288.32,-229 280.32,-226.2 280.32,-231.8"/>
</g>
<!-- RF -->
<g id="node5" class="node">
<title>RF</title>
<path fill="#fda4af" stroke="#334155" stroke-width="1.3" d="M107,-312C107,-312 58,-312 58,-312 52,-312 46,-306 46,-300 46,-300 46,-288 46,-288 46,-282 52,-276 58,-276 58,-276 107,-276 107,-276 113,-276 119,-282 119,-288 119,-288 119,-300 119,-300 119,-306 113,-312 107,-312"/>
<text xml:space="preserve" text-anchor="middle" x="82.5" y="-290.5" font-family="sans-Serif" font-size="10.00" fill="#0f172a">RF spectrum</text>
</g>
<!-- Sdr -->
<g id="node10" class="node">
<title>Sdr</title>
<path fill="#6ee7b7" stroke="#334155" stroke-width="1.3" d="M377.5,-312C377.5,-312 290.25,-312 290.25,-312 284.25,-312 278.25,-306 278.25,-300 278.25,-300 278.25,-288 278.25,-288 278.25,-282 284.25,-276 290.25,-276 290.25,-276 377.5,-276 377.5,-276 383.5,-276 389.5,-282 389.5,-288 389.5,-288 389.5,-300 389.5,-300 389.5,-306 383.5,-312 377.5,-312"/>
<text xml:space="preserve" text-anchor="middle" x="333.88" y="-290.5" font-family="sans-Serif" font-size="10.00" fill="#0f172a">SDR::GQRX · Flipper</text>
</g>
<!-- RF&#45;&gt;Sdr -->
<g id="edge5" class="edge">
<title>RF&#45;&gt;Sdr</title>
<path fill="none" stroke="#fb7185" stroke-width="1.3" d="M119.49,-294C158.28,-294 220.8,-294 268.17,-294"/>
<polygon fill="#fb7185" stroke="#fb7185" stroke-width="1.3" points="268.06,-296.8 276.06,-294 268.06,-291.2 268.06,-296.8"/>
</g>
<!-- XXD -->
<g id="node11" class="node">
<title>XXD</title>
<path fill="#c4b5fd" stroke="#334155" stroke-width="1.3" d="M587.5,-117C587.5,-117 522.75,-117 522.75,-117 516.75,-117 510.75,-111 510.75,-105 510.75,-105 510.75,-93 510.75,-93 510.75,-87 516.75,-81 522.75,-81 522.75,-81 587.5,-81 587.5,-81 593.5,-81 599.5,-87 599.5,-93 599.5,-93 599.5,-105 599.5,-105 599.5,-111 593.5,-117 587.5,-117"/>
<text xml:space="preserve" text-anchor="middle" x="555.12" y="-95.5" font-family="sans-Serif" font-size="10.00" fill="#0f172a">XXD · Assembly</text>
</g>
<!-- Serial&#45;&gt;XXD -->
<g id="edge6" class="edge">
<title>Serial&#45;&gt;XXD</title>
<path fill="none" stroke="#a78bfa" stroke-width="1.3" d="M380.57,-47.55C415.74,-57.97 464.41,-72.4 501.26,-83.33"/>
<polygon fill="#a78bfa" stroke="#a78bfa" stroke-width="1.3" points="500.01,-85.88 508.47,-85.47 501.6,-80.51 500.01,-85.88"/>
</g>
<!-- MSR&#45;&gt;XXD -->
<g id="edge7" class="edge">
<title>MSR&#45;&gt;XXD</title>
<path fill="none" stroke="#a78bfa" stroke-width="1.3" d="M361.32,-99C395.63,-99 456.3,-99 500.44,-99"/>
<polygon fill="#a78bfa" stroke="#a78bfa" stroke-width="1.3" points="500.19,-101.8 508.19,-99 500.19,-96.2 500.19,-101.8"/>
</g>
<!-- Rep -->
<g id="node12" class="node">
<title>Rep</title>
<path fill="#c4b5fd" stroke="#334155" stroke-width="1.3" d="M584.88,-182C584.88,-182 525.38,-182 525.38,-182 519.38,-182 513.38,-176 513.38,-170 513.38,-170 513.38,-158 513.38,-158 513.38,-152 519.38,-146 525.38,-146 525.38,-146 584.88,-146 584.88,-146 590.88,-146 596.88,-152 596.88,-158 596.88,-158 596.88,-170 596.88,-170 596.88,-176 590.88,-182 584.88,-182"/>
<text xml:space="preserve" text-anchor="middle" x="555.12" y="-160.5" font-family="sans-Serif" font-size="10.00" fill="#0f172a">Reports · Skills</text>
</g>
<!-- Adb&#45;&gt;Rep -->
<g id="edge8" class="edge">
<title>Adb&#45;&gt;Rep</title>
<path fill="none" stroke="#a78bfa" stroke-width="1.3" d="M371.08,-164C407.07,-164 462.61,-164 503.07,-164"/>
<polygon fill="#a78bfa" stroke="#a78bfa" stroke-width="1.3" points="503.04,-166.8 511.04,-164 503.04,-161.2 503.04,-166.8"/>
</g>
<!-- Sip&#45;&gt;Rep -->
<g id="edge9" class="edge">
<title>Sip&#45;&gt;Rep</title>
<path fill="none" stroke="#a78bfa" stroke-width="1.3" d="M377.67,-216.31C413.74,-205.62 465.43,-190.3 503.54,-179"/>
<polygon fill="#a78bfa" stroke="#a78bfa" stroke-width="1.3" points="504.16,-181.73 511.04,-176.77 502.57,-176.36 504.16,-181.73"/>
</g>
<!-- Sdr&#45;&gt;Rep -->
<g id="edge10" class="edge">
<title>Sdr&#45;&gt;Rep</title>
<path fill="none" stroke="#a78bfa" stroke-width="1.3" d="M389.93,-279.87C404.3,-275.15 419.48,-269.21 432.75,-262 469.26,-242.17 505.59,-210.92 528.86,-189.05"/>
<polygon fill="#a78bfa" stroke="#a78bfa" stroke-width="1.3" points="530.65,-191.21 534.51,-183.66 526.78,-187.16 530.65,-191.21"/>
</g>
</g>
</svg>
