<?xml version="1.0" encoding="UTF-8" standalone="no"?>
<!DOCTYPE svg PUBLIC "-//W3C//DTD SVG 1.1//EN"
 "http://www.w3.org/Graphics/SVG/1.1/DTD/svg11.dtd">
<!-- Generated by graphviz version 14.1.2 (0)
 -->
<!-- Title: PWN_Hardware Pages: 1 -->
<svg width="668pt" height="640pt"
 viewBox="0.00 0.00 668.00 640.00" xmlns="http://www.w3.org/2000/svg" xmlns:xlink="http://www.w3.org/1999/xlink">
<g id="graph0" class="graph" transform="scale(1 1) rotate(0) translate(43.2 597.2)">
<title>PWN_Hardware</title>
<polygon fill="#0f172a" stroke="none" points="-43.2,43.2 -43.2,-597.2 625.2,-597.2 625.2,43.2 -43.2,43.2"/>
<text xml:space="preserve" text-anchor="start" x="121.5" y="-532" font-family="sans-Serif" font-weight="bold" font-size="20.00" fill="#e2e8f0">Hardware &amp; Physical&#45;Layer Hacking</text>
<text xml:space="preserve" text-anchor="start" x="158.62" y="-520.55" font-family="sans-Serif" font-size="11.00" fill="#94a3b8">Serial · BusPirate · MSR206 · Android · BareSIP · SDR</text>
<g id="clust1" class="cluster">
<title>cluster_dev</title>
<path fill="#450a0a" stroke="#b91c1c" stroke-dasharray="5,2" d="M12,-164C12,-164 154,-164 154,-164 160,-164 166,-170 166,-176 166,-176 166,-495 166,-495 166,-501 160,-507 154,-507 154,-507 12,-507 12,-507 6,-507 0,-501 0,-495 0,-495 0,-176 0,-176 0,-170 6,-164 12,-164"/>
<text xml:space="preserve" text-anchor="middle" x="83" y="-484" font-family="sans-Serif" font-size="20.00" fill="#fecaca">Physical Devices</text>
</g>
<g id="clust2" class="cluster">
<title>cluster_pl</title>
<path fill="#022c22" stroke="#047857" d="M248,-164C248,-164 562,-164 562,-164 568,-164 574,-170 574,-176 574,-176 574,-495 574,-495 574,-501 568,-507 562,-507 562,-507 248,-507 248,-507 242,-507 236,-501 236,-495 236,-495 236,-176 236,-176 236,-170 242,-164 248,-164"/>
<text xml:space="preserve" text-anchor="middle" x="405" y="-484" font-family="sans-Serif" font-size="20.00" fill="#a7f3d0">PWN::Plugins / SDR</text>
</g>
<g id="clust3" class="cluster">
<title>cluster_out</title>
<path fill="#2e1065" stroke="#6d28d9" d="M463.25,-8C463.25,-8 544,-8 544,-8 550,-8 556,-14 556,-20 556,-20 556,-144 556,-144 556,-150 550,-156 544,-156 544,-156 463.25,-156 463.25,-156 457.25,-156 451.25,-150 451.25,-144 451.25,-144 451.25,-20 451.25,-20 451.25,-14 457.25,-8 463.25,-8"/>
<text xml:space="preserve" text-anchor="middle" x="503.62" y="-133" font-family="sans-Serif" font-size="20.00" fill="#ddd6fe">Analysis</text>
</g>
<!-- Uart -->
<g id="node1" class="node">
<title>Uart</title>
<path fill="#fda4af" stroke="#334155" stroke-width="1.3" d="M114.88,-208C114.88,-208 50.12,-208 50.12,-208 44.12,-208 38.12,-202 38.12,-196 38.12,-196 38.12,-184 38.12,-184 38.12,-178 44.12,-172 50.12,-172 50.12,-172 114.88,-172 114.88,-172 120.88,-172 126.88,-178 126.88,-184 126.88,-184 126.88,-196 126.88,-196 126.88,-202 120.88,-208 114.88,-208"/>
<text xml:space="preserve" text-anchor="middle" x="82.5" y="-192.5" font-family="sans-Serif" font-size="10.00" fill="#0f172a">UART / JTAG</text>
<text xml:space="preserve" text-anchor="middle" x="82.5" y="-180.5" font-family="sans-Serif" font-size="10.00" fill="#0f172a">embedded target</text>
</g>
<!-- Serial -->
<g id="node6" class="node">
<title>Serial</title>
<path fill="#6ee7b7" stroke="#334155" stroke-width="1.3" d="M333.88,-208C333.88,-208 265.38,-208 265.38,-208 259.38,-208 253.38,-202 253.38,-196 253.38,-196 253.38,-184 253.38,-184 253.38,-178 259.38,-172 265.38,-172 265.38,-172 333.88,-172 333.88,-172 339.88,-172 345.88,-178 345.88,-184 345.88,-184 345.88,-196 345.88,-196 345.88,-202 339.88,-208 333.88,-208"/>
<text xml:space="preserve" text-anchor="middle" x="299.62" y="-186.5" font-family="sans-Serif" font-size="10.00" fill="#0f172a">Serial · BusPirate</text>
</g>
<!-- Uart&#45;&gt;Serial -->
<g id="edge2" class="edge">
<title>Uart&#45;&gt;Serial</title>
<path fill="none" stroke="#fb7185" stroke-width="1.3" d="M127.29,-190C160.76,-190 207.11,-190 243.16,-190"/>
<polygon fill="#fb7185" stroke="#fb7185" stroke-width="1.3" points="243.07,-192.8 251.07,-190 243.07,-187.2 243.07,-192.8"/>
</g>
<!-- Mag -->
<g id="node2" class="node">
<title>Mag</title>
<path fill="#fda4af" stroke="#334155" stroke-width="1.3" d="M110.75,-273C110.75,-273 54.25,-273 54.25,-273 48.25,-273 42.25,-267 42.25,-261 42.25,-261 42.25,-249 42.25,-249 42.25,-243 48.25,-237 54.25,-237 54.25,-237 110.75,-237 110.75,-237 116.75,-237 122.75,-243 122.75,-249 122.75,-249 122.75,-261 122.75,-261 122.75,-267 116.75,-273 110.75,-273"/>
<text xml:space="preserve" text-anchor="middle" x="82.5" y="-251.5" font-family="sans-Serif" font-size="10.00" fill="#0f172a">Magstripe card</text>
</g>
<!-- MSR -->
<g id="node7" class="node">
<title>MSR</title>
<path fill="#6ee7b7" stroke="#334155" stroke-width="1.3" d="M314.75,-273C314.75,-273 284.5,-273 284.5,-273 278.5,-273 272.5,-267 272.5,-261 272.5,-261 272.5,-249 272.5,-249 272.5,-243 278.5,-237 284.5,-237 284.5,-237 314.75,-237 314.75,-237 320.75,-237 326.75,-243 326.75,-249 326.75,-249 326.75,-261 326.75,-261 326.75,-267 320.75,-273 314.75,-273"/>
<text xml:space="preserve" text-anchor="middle" x="299.62" y="-251.5" font-family="sans-Serif" font-size="10.00" fill="#0f172a">MSR206</text>
</g>
<!-- Mag&#45;&gt;MSR -->
<g id="edge3" class="edge">
<title>Mag&#45;&gt;MSR</title>
<path fill="none" stroke="#fb7185" stroke-width="1.3" d="M123.21,-255C162.99,-255 223.71,-255 262.27,-255"/>
<polygon fill="#fb7185" stroke="#fb7185" stroke-width="1.3" points="262.08,-257.8 270.08,-255 262.08,-252.2 262.08,-257.8"/>
</g>
<!-- Phone -->
<g id="node3" class="node">
<title>Phone</title>
<path fill="#fda4af" stroke="#334155" stroke-width="1.3" d="M110.75,-338C110.75,-338 54.25,-338 54.25,-338 48.25,-338 42.25,-332 42.25,-326 42.25,-326 42.25,-314 42.25,-314 42.25,-308 48.25,-302 54.25,-302 54.25,-302 110.75,-302 110.75,-302 116.75,-302 122.75,-308 122.75,-314 122.75,-314 122.75,-326 122.75,-326 122.75,-332 116.75,-338 110.75,-338"/>
<text xml:space="preserve" text-anchor="middle" x="82.5" y="-316.5" font-family="sans-Serif" font-size="10.00" fill="#0f172a">Android device</text>
</g>
<!-- Adb -->
<g id="node8" class="node">
<title>Adb</title>
<path fill="#6ee7b7" stroke="#334155" stroke-width="1.3" d="M324.5,-338C324.5,-338 274.75,-338 274.75,-338 268.75,-338 262.75,-332 262.75,-326 262.75,-326 262.75,-314 262.75,-314 262.75,-308 268.75,-302 274.75,-302 274.75,-302 324.5,-302 324.5,-302 330.5,-302 336.5,-308 336.5,-314 336.5,-314 336.5,-326 336.5,-326 336.5,-332 330.5,-338 324.5,-338"/>
<text xml:space="preserve" text-anchor="middle" x="299.62" y="-316.5" font-family="sans-Serif" font-size="10.00" fill="#0f172a">Android (adb)</text>
</g>
<!-- Phone&#45;&gt;Adb -->
<g id="edge4" class="edge">
<title>Phone&#45;&gt;Adb</title>
<path fill="none" stroke="#fb7185" stroke-width="1.3" d="M123.21,-320C159.76,-320 213.99,-320 252.46,-320"/>
<polygon fill="#fb7185" stroke="#fb7185" stroke-width="1.3" points="252.4,-322.8 260.4,-320 252.4,-317.2 252.4,-322.8"/>
</g>
<!-- VoIP -->
<g id="node4" class="node">
<title>VoIP</title>
<path fill="#fda4af" stroke="#334155" stroke-width="1.3" d="M104.75,-403C104.75,-403 60.25,-403 60.25,-403 54.25,-403 48.25,-397 48.25,-391 48.25,-391 48.25,-379 48.25,-379 48.25,-373 54.25,-367 60.25,-367 60.25,-367 104.75,-367 104.75,-367 110.75,-367 116.75,-373 116.75,-379 116.75,-379 116.75,-391 116.75,-391 116.75,-397 110.75,-403 104.75,-403"/>
<text xml:space="preserve" text-anchor="middle" x="82.5" y="-381.5" font-family="sans-Serif" font-size="10.00" fill="#0f172a">SIP / PSTN</text>
</g>
<!-- Sip -->
<g id="node9" class="node">
<title>Sip</title>
<path fill="#6ee7b7" stroke="#334155" stroke-width="1.3" d="M330.88,-403C330.88,-403 268.38,-403 268.38,-403 262.38,-403 256.38,-397 256.38,-391 256.38,-391 256.38,-379 256.38,-379 256.38,-373 262.38,-367 268.38,-367 268.38,-367 330.88,-367 330.88,-367 336.88,-367 342.88,-373 342.88,-379 342.88,-379 342.88,-391 342.88,-391 342.88,-397 336.88,-403 330.88,-403"/>
<text xml:space="preserve" text-anchor="middle" x="299.62" y="-381.5" font-family="sans-Serif" font-size="10.00" fill="#0f172a">BareSIP · Voice</text>
</g>
<!-- VoIP&#45;&gt;Sip -->
<g id="edge5" class="edge">
<title>VoIP&#45;&gt;Sip</title>
<path fill="none" stroke="#fb7185" stroke-width="1.3" d="M117.11,-385C151.65,-385 205.89,-385 246.1,-385"/>
<polygon fill="#fb7185" stroke="#fb7185" stroke-width="1.3" points="246.03,-387.8 254.03,-385 246.03,-382.2 246.03,-387.8"/>
</g>
<!-- RF -->
<g id="node5" class="node">
<title>RF</title>
<path fill="#fda4af" stroke="#334155" stroke-width="1.3" d="M107,-468C107,-468 58,-468 58,-468 52,-468 46,-462 46,-456 46,-456 46,-444 46,-444 46,-438 52,-432 58,-432 58,-432 107,-432 107,-432 113,-432 119,-438 119,-444 119,-444 119,-456 119,-456 119,-462 113,-468 107,-468"/>
<text xml:space="preserve" text-anchor="middle" x="82.5" y="-446.5" font-family="sans-Serif" font-size="10.00" fill="#0f172a">RF spectrum</text>
</g>
<!-- Sdr -->
<g id="node10" class="node">
<title>Sdr</title>
<path fill="#6ee7b7" stroke="#334155" stroke-width="1.3" d="M343.25,-468C343.25,-468 256,-468 256,-468 250,-468 244,-462 244,-456 244,-456 244,-444 244,-444 244,-438 250,-432 256,-432 256,-432 343.25,-432 343.25,-432 349.25,-432 355.25,-438 355.25,-444 355.25,-444 355.25,-456 355.25,-456 355.25,-462 349.25,-468 343.25,-468"/>
<text xml:space="preserve" text-anchor="middle" x="299.62" y="-452.5" font-family="sans-Serif" font-size="10.00" fill="#0f172a">SDR::GQRX · Flipper</text>
<text xml:space="preserve" text-anchor="middle" x="299.62" y="-440.5" font-family="sans-Serif" font-size="10.00" fill="#0f172a">Decoder::* (run_iq)</text>
</g>
<!-- RF&#45;&gt;Sdr -->
<g id="edge6" class="edge">
<title>RF&#45;&gt;Sdr</title>
<path fill="none" stroke="#fb7185" stroke-width="1.3" d="M119.51,-450C150.58,-450 196.23,-450 233.67,-450"/>
<polygon fill="#fb7185" stroke="#fb7185" stroke-width="1.3" points="233.53,-452.8 241.53,-450 233.53,-447.2 233.53,-452.8"/>
</g>
<!-- XXD -->
<g id="node12" class="node">
<title>XXD</title>
<path fill="#c4b5fd" stroke="#334155" stroke-width="1.3" d="M536,-52C536,-52 471.25,-52 471.25,-52 465.25,-52 459.25,-46 459.25,-40 459.25,-40 459.25,-28 459.25,-28 459.25,-22 465.25,-16 471.25,-16 471.25,-16 536,-16 536,-16 542,-16 548,-22 548,-28 548,-28 548,-40 548,-40 548,-46 542,-52 536,-52"/>
<text xml:space="preserve" text-anchor="middle" x="503.62" y="-30.5" font-family="sans-Serif" font-size="10.00" fill="#0f172a">XXD · Assembly</text>
</g>
<!-- Serial&#45;&gt;XXD -->
<g id="edge7" class="edge">
<title>Serial&#45;&gt;XXD</title>
<path fill="none" stroke="#a78bfa" stroke-width="1.3" d="M319.05,-171.43C344.9,-145.98 394.06,-99.7 441.25,-67 445.96,-63.73 451.04,-60.54 456.17,-57.52"/>
<polygon fill="#a78bfa" stroke="#a78bfa" stroke-width="1.3" points="457.55,-59.96 463.12,-53.56 454.78,-55.09 457.55,-59.96"/>
</g>
<!-- MSR&#45;&gt;XXD -->
<g id="edge8" class="edge">
<title>MSR&#45;&gt;XXD</title>
<path fill="none" stroke="#a78bfa" stroke-width="1.3" d="M327.37,-243.06C336.96,-237.87 347.35,-231.11 355.25,-223 410.5,-166.29 384.97,-122.69 441.25,-67 444.57,-63.72 448.28,-60.67 452.19,-57.87"/>
<polygon fill="#a78bfa" stroke="#a78bfa" stroke-width="1.3" points="453.64,-60.27 458.8,-53.54 450.57,-55.58 453.64,-60.27"/>
</g>
<!-- Rep -->
<g id="node13" class="node">
<title>Rep</title>
<path fill="#c4b5fd" stroke="#334155" stroke-width="1.3" d="M533.38,-117C533.38,-117 473.88,-117 473.88,-117 467.88,-117 461.88,-111 461.88,-105 461.88,-105 461.88,-93 461.88,-93 461.88,-87 467.88,-81 473.88,-81 473.88,-81 533.38,-81 533.38,-81 539.38,-81 545.38,-87 545.38,-93 545.38,-93 545.38,-105 545.38,-105 545.38,-111 539.38,-117 533.38,-117"/>
<text xml:space="preserve" text-anchor="middle" x="503.62" y="-95.5" font-family="sans-Serif" font-size="10.00" fill="#0f172a">Reports · Skills</text>
</g>
<!-- Adb&#45;&gt;Rep -->
<g id="edge9" class="edge">
<title>Adb&#45;&gt;Rep</title>
<path fill="none" stroke="#a78bfa" stroke-width="1.3" d="M336.97,-301.9C343.44,-297.82 349.83,-293.15 355.25,-288 405.74,-240.02 396.53,-210.39 441.25,-157 450.96,-145.4 462.82,-133.73 473.51,-123.93"/>
<polygon fill="#a78bfa" stroke="#a78bfa" stroke-width="1.3" points="475.15,-126.22 479.22,-118.78 471.41,-122.06 475.15,-126.22"/>
</g>
<!-- Sip&#45;&gt;Rep -->
<g id="edge10" class="edge">
<title>Sip&#45;&gt;Rep</title>
<path fill="none" stroke="#a78bfa" stroke-width="1.3" d="M339.39,-366.49C345.18,-362.59 350.72,-358.09 355.25,-353 418.49,-281.93 386.48,-234.78 441.25,-157 449.67,-145.04 460.85,-133.59 471.36,-124.07"/>
<polygon fill="#a78bfa" stroke="#a78bfa" stroke-width="1.3" points="473.2,-126.18 477.37,-118.8 469.51,-121.97 473.2,-126.18"/>
</g>
<!-- FfiSdr -->
<g id="node11" class="node">
<title>FfiSdr</title>
<path fill="#34d399" stroke="#334155" stroke-width="1.3" d="M554,-468C554,-468 453.25,-468 453.25,-468 447.25,-468 441.25,-462 441.25,-456 441.25,-456 441.25,-436 441.25,-436 441.25,-430 447.25,-424 453.25,-424 453.25,-424 554,-424 554,-424 560,-424 566,-430 566,-436 566,-436 566,-456 566,-456 566,-462 560,-468 554,-468"/>
<text xml:space="preserve" text-anchor="middle" x="503.62" y="-454.5" font-family="sans-Serif" font-size="10.00" fill="#0f172a">FFI::RTLSdr · HackRF</text>
<text xml:space="preserve" text-anchor="middle" x="503.62" y="-442.5" font-family="sans-Serif" font-size="10.00" fill="#0f172a">AdalmPluto · SoapySDR</text>
<text xml:space="preserve" text-anchor="middle" x="503.62" y="-430.5" font-family="sans-Serif" font-size="10.00" fill="#0f172a">Volk · Liquid · FFTW</text>
</g>
<!-- Sdr&#45;&gt;FfiSdr -->
<g id="edge1" class="edge">
<title>Sdr&#45;&gt;FfiSdr</title>
<path fill="none" stroke="#94a3b8" stroke-width="1.3" d="M355.82,-448.91C379.03,-448.45 406.32,-447.91 431.04,-447.42"/>
<polygon fill="#94a3b8" stroke="#94a3b8" stroke-width="1.3" points="430.82,-450.22 438.76,-447.26 430.71,-444.62 430.82,-450.22"/>
</g>
<!-- Sdr&#45;&gt;Rep -->
<g id="edge11" class="edge">
<title>Sdr&#45;&gt;Rep</title>
<path fill="none" stroke="#a78bfa" stroke-width="1.3" d="M340.37,-431.47C345.9,-427.61 351.11,-423.13 355.25,-418 432.01,-323 375.76,-260.09 441.25,-157 448.97,-144.85 459.79,-133.49 470.21,-124.1"/>
<polygon fill="#a78bfa" stroke="#a78bfa" stroke-width="1.3" points="471.97,-126.28 476.18,-118.92 468.3,-122.05 471.97,-126.28"/>
</g>
</g>
</svg>
