<?xml version="1.0" encoding="UTF-8" standalone="no"?>
<!DOCTYPE svg PUBLIC "-//W3C//DTD SVG 1.1//EN"
 "http://www.w3.org/Graphics/SVG/1.1/DTD/svg11.dtd">
<!-- Generated by graphviz version 14.1.2 (0)
 -->
<!-- Title: History Command to Driver Generation Pages: 1 -->
<svg width="369pt" height="455pt"
 viewBox="0.00 0.00 369.00 455.00" xmlns="http://www.w3.org/2000/svg" xmlns:xlink="http://www.w3.org/1999/xlink">
<g id="graph0" class="graph" transform="scale(1 1) rotate(0) translate(4 451.25)">
<title>History Command to Driver Generation</title>
<polygon fill="white" stroke="none" points="-4,4 -4,-451.25 364.98,-451.25 364.98,4 -4,4"/>
<!-- User -->
<g id="node1" class="node">
<title>User</title>
<path fill="none" stroke="black" d="M125.88,-447.25C125.88,-447.25 78.38,-447.25 78.38,-447.25 72.38,-447.25 66.38,-441.25 66.38,-435.25 66.38,-435.25 66.38,-423.25 66.38,-423.25 66.38,-417.25 72.38,-411.25 78.38,-411.25 78.38,-411.25 125.88,-411.25 125.88,-411.25 131.88,-411.25 137.88,-417.25 137.88,-423.25 137.88,-423.25 137.88,-435.25 137.88,-435.25 137.88,-441.25 131.88,-447.25 125.88,-447.25"/>
<text xml:space="preserve" text-anchor="middle" x="102.12" y="-425.95" font-family="Arial" font-size="9.00">User in REPL</text>
</g>
<!-- Pry -->
<g id="node2" class="node">
<title>Pry</title>
<path fill="none" stroke="black" d="M136.38,-358.75C136.38,-358.75 67.88,-358.75 67.88,-358.75 61.88,-358.75 55.88,-352.75 55.88,-346.75 55.88,-346.75 55.88,-334.75 55.88,-334.75 55.88,-328.75 61.88,-322.75 67.88,-322.75 67.88,-322.75 136.38,-322.75 136.38,-322.75 142.38,-322.75 148.38,-328.75 148.38,-334.75 148.38,-334.75 148.38,-346.75 148.38,-346.75 148.38,-352.75 142.38,-358.75 136.38,-358.75"/>
<text xml:space="preserve" text-anchor="middle" x="102.12" y="-342.7" font-family="Arial" font-size="9.00">PWN REPL</text>
<text xml:space="preserve" text-anchor="middle" x="102.12" y="-332.2" font-family="Arial" font-size="9.00">(history, edit, save)</text>
</g>
<!-- User&#45;&gt;Pry -->
<g id="edge1" class="edge">
<title>User&#45;&gt;Pry</title>
<path fill="none" stroke="black" d="M102.12,-411.16C102.12,-399.51 102.12,-383.8 102.12,-370.27"/>
<polygon fill="black" stroke="black" points="105.63,-370.61 102.13,-360.61 98.63,-370.61 105.63,-370.61"/>
<text xml:space="preserve" text-anchor="middle" x="160.25" y="-379.95" font-family="Times,serif" font-size="14.00">run exploration cmds</text>
</g>
<!-- HistoryFile -->
<g id="node3" class="node">
<title>HistoryFile</title>
<path fill="none" stroke="black" d="M84.25,-250.12C84.25,-252.13 65.37,-253.75 42.12,-253.75 18.88,-253.75 0,-252.13 0,-250.12 0,-250.12 0,-217.5 0,-217.5 0,-215.5 18.88,-213.88 42.12,-213.88 65.37,-213.88 84.25,-215.5 84.25,-217.5 84.25,-217.5 84.25,-250.12 84.25,-250.12"/>
<path fill="none" stroke="black" d="M84.25,-250.12C84.25,-248.12 65.37,-246.5 42.12,-246.5 18.88,-246.5 0,-248.12 0,-250.12"/>
<text xml:space="preserve" text-anchor="middle" x="42.12" y="-235.76" font-family="Arial" font-size="9.00">~/.pry_history</text>
<text xml:space="preserve" text-anchor="middle" x="42.12" y="-225.26" font-family="Arial" font-size="9.00">(raw commands)</text>
</g>
<!-- Pry&#45;&gt;HistoryFile -->
<g id="edge2" class="edge">
<title>Pry&#45;&gt;HistoryFile</title>
<path fill="none" stroke="black" d="M60.46,-322.35C53.65,-317.64 47.49,-311.84 43.38,-304.75 36.56,-293.01 35.46,-278.19 36.38,-265.21"/>
<polygon fill="black" stroke="black" points="39.84,-265.8 37.52,-255.46 32.88,-264.99 39.84,-265.8"/>
<text xml:space="preserve" text-anchor="middle" x="91.75" y="-283.2" font-family="Times,serif" font-size="14.00">appends each line</text>
</g>
<!-- Script -->
<g id="node4" class="node">
<title>Script</title>
<path fill="none" stroke="black" d="M190.38,-251.81C190.38,-251.81 133.88,-251.81 133.88,-251.81 127.88,-251.81 121.88,-245.81 121.88,-239.81 121.88,-239.81 121.88,-227.81 121.88,-227.81 121.88,-221.81 127.88,-215.81 133.88,-215.81 133.88,-215.81 190.38,-215.81 190.38,-215.81 196.38,-215.81 202.38,-221.81 202.38,-227.81 202.38,-227.81 202.38,-239.81 202.38,-239.81 202.38,-245.81 196.38,-251.81 190.38,-251.81"/>
<text xml:space="preserve" text-anchor="middle" x="162.12" y="-235.76" font-family="Arial" font-size="9.00">Prototype Script</text>
<text xml:space="preserve" text-anchor="middle" x="162.12" y="-225.26" font-family="Arial" font-size="9.00">(.rb or bin/)</text>
</g>
<!-- Pry&#45;&gt;Script -->
<g id="edge3" class="edge">
<title>Pry&#45;&gt;Script</title>
<path fill="none" stroke="black" d="M124.67,-322.56C130.35,-317.35 135.99,-311.26 140.12,-304.75 148.09,-292.2 153.37,-276.54 156.75,-263.23"/>
<polygon fill="black" stroke="black" points="160.1,-264.27 158.92,-253.74 153.28,-262.71 160.1,-264.27"/>
<text xml:space="preserve" text-anchor="middle" x="232.35" y="-291.45" font-family="Times,serif" font-size="14.00">history | grep &gt; my_proto.rb</text>
<text xml:space="preserve" text-anchor="middle" x="232.35" y="-274.95" font-family="Times,serif" font-size="14.00">or edit &#45;n</text>
</g>
<!-- Driver -->
<g id="node5" class="node">
<title>Driver</title>
<path fill="none" stroke="black" d="M138.75,-144.69C138.75,-144.69 51.5,-144.69 51.5,-144.69 45.5,-144.69 39.5,-138.69 39.5,-132.69 39.5,-132.69 39.5,-117.19 39.5,-117.19 39.5,-111.19 45.5,-105.19 51.5,-105.19 51.5,-105.19 138.75,-105.19 138.75,-105.19 144.75,-105.19 150.75,-111.19 150.75,-117.19 150.75,-117.19 150.75,-132.69 150.75,-132.69 150.75,-138.69 144.75,-144.69 138.75,-144.69"/>
<text xml:space="preserve" text-anchor="middle" x="95.12" y="-132.14" font-family="Arial" font-size="9.00">PWN Driver</text>
<text xml:space="preserve" text-anchor="middle" x="95.12" y="-121.64" font-family="Arial" font-size="9.00">(/opt/pwn/bin/ example</text>
<text xml:space="preserve" text-anchor="middle" x="95.12" y="-111.14" font-family="Arial" font-size="9.00">or PWN::Driver::Parser)</text>
</g>
<!-- Script&#45;&gt;Driver -->
<g id="edge4" class="edge">
<title>Script&#45;&gt;Driver</title>
<path fill="none" stroke="black" d="M121.49,-221.49C109,-215.89 96.64,-207.71 89.38,-195.88 82.18,-184.15 82.45,-169.16 85,-156.07"/>
<polygon fill="black" stroke="black" points="88.33,-157.2 87.33,-146.65 81.53,-155.52 88.33,-157.2"/>
<text xml:space="preserve" text-anchor="middle" x="151.25" y="-182.57" font-family="Times,serif" font-size="14.00">wrap in PWN::Driver</text>
<text xml:space="preserve" text-anchor="middle" x="151.25" y="-166.07" font-family="Times,serif" font-size="14.00">add opts, orchestration</text>
</g>
<!-- Skill -->
<g id="node6" class="node">
<title>Skill</title>
<path fill="none" stroke="black" d="M270,-141.25C270,-143.25 253.47,-144.88 233.12,-144.88 212.78,-144.88 196.25,-143.25 196.25,-141.25 196.25,-141.25 196.25,-108.62 196.25,-108.62 196.25,-106.62 212.78,-105 233.12,-105 253.47,-105 270,-106.62 270,-108.62 270,-108.62 270,-141.25 270,-141.25"/>
<path fill="none" stroke="black" d="M270,-141.25C270,-139.25 253.47,-137.62 233.12,-137.62 212.78,-137.62 196.25,-139.25 196.25,-141.25"/>
<text xml:space="preserve" text-anchor="middle" x="233.12" y="-126.89" font-family="Arial" font-size="9.00">Distilled Skill</text>
<text xml:space="preserve" text-anchor="middle" x="233.12" y="-116.39" font-family="Arial" font-size="9.00">(~/.pwn/skills/)</text>
</g>
<!-- Script&#45;&gt;Skill -->
<g id="edge5" class="edge">
<title>Script&#45;&gt;Skill</title>
<path fill="none" stroke="black" d="M193.12,-215.38C200.55,-209.96 207.85,-203.4 213.12,-195.88 221.23,-184.31 226.07,-169.52 228.95,-156.51"/>
<polygon fill="black" stroke="black" points="232.38,-157.18 230.8,-146.7 225.51,-155.88 232.38,-157.18"/>
<text xml:space="preserve" text-anchor="middle" x="293.99" y="-182.57" font-family="Times,serif" font-size="14.00">manually or via</text>
<text xml:space="preserve" text-anchor="middle" x="293.99" y="-166.07" font-family="Times,serif" font-size="14.00">distill_skill after success</text>
</g>
<!-- Agent -->
<g id="node7" class="node">
<title>Agent</title>
<path fill="none" stroke="black" d="M202.75,-36C202.75,-36 133.5,-36 133.5,-36 127.5,-36 121.5,-30 121.5,-24 121.5,-24 121.5,-12 121.5,-12 121.5,-6 127.5,0 133.5,0 133.5,0 202.75,0 202.75,0 208.75,0 214.75,-6 214.75,-12 214.75,-12 214.75,-24 214.75,-24 214.75,-30 208.75,-36 202.75,-36"/>
<text xml:space="preserve" text-anchor="middle" x="168.12" y="-19.95" font-family="Arial" font-size="9.00">pwn&#45;ai Agent</text>
<text xml:space="preserve" text-anchor="middle" x="168.12" y="-9.45" font-family="Arial" font-size="9.00">(future automation)</text>
</g>
<!-- Driver&#45;&gt;Agent -->
<g id="edge6" class="edge">
<title>Driver&#45;&gt;Agent</title>
<path fill="none" stroke="black" d="M95.29,-104.78C96.3,-89.72 99.76,-68.86 110.38,-54 113.17,-50.08 116.56,-46.52 120.27,-43.3"/>
<polygon fill="black" stroke="black" points="122.33,-46.14 128.2,-37.32 118.11,-40.55 122.33,-46.14"/>
<text xml:space="preserve" text-anchor="middle" x="157.25" y="-73.7" font-family="Times,serif" font-size="14.00">invoked by agent</text>
<text xml:space="preserve" text-anchor="middle" x="157.25" y="-57.2" font-family="Times,serif" font-size="14.00">or cron</text>
</g>
<!-- Skill&#45;&gt;Agent -->
<g id="edge7" class="edge">
<title>Skill&#45;&gt;Agent</title>
<path fill="none" stroke="black" d="M229.03,-104.61C225.27,-89.84 218.65,-69.46 208.12,-54 205.81,-50.6 203.08,-47.32 200.16,-44.22"/>
<polygon fill="black" stroke="black" points="202.85,-41.95 193.22,-37.54 198,-46.99 202.85,-41.95"/>
<text xml:space="preserve" text-anchor="middle" x="292.35" y="-65.45" font-family="Times,serif" font-size="14.00">loaded in prompt context</text>
</g>
</g>
</svg>
