<?xml version="1.0" encoding="UTF-8" standalone="no"?>
<!DOCTYPE svg PUBLIC "-//W3C//DTD SVG 1.1//EN"
 "http://www.w3.org/Graphics/SVG/1.1/DTD/svg11.dtd">
<!-- Generated by graphviz version 14.1.2 (0)
 -->
<!-- Title: PWN_HistToDriver Pages: 1 -->
<svg width="1027pt" height="368pt"
 viewBox="0.00 0.00 1027.00 368.00" xmlns="http://www.w3.org/2000/svg" xmlns:xlink="http://www.w3.org/1999/xlink">
<g id="graph0" class="graph" transform="scale(1 1) rotate(0) translate(43.2 325.2)">
<title>PWN_HistToDriver</title>
<polygon fill="#0f172a" stroke="none" points="-43.2,43.2 -43.2,-325.2 983.45,-325.2 983.45,43.2 -43.2,43.2"/>
<text xml:space="preserve" text-anchor="start" x="260.5" y="-260" font-family="sans-Serif" font-weight="bold" font-size="20.00" fill="#e2e8f0">From REPL History → Reusable Driver / Skill</text>
<text xml:space="preserve" text-anchor="start" x="348.62" y="-248.55" font-family="sans-Serif" font-size="11.00" fill="#94a3b8">explore → history → bin/pwn_* driver → distill_skill</text>
<g id="clust1" class="cluster">
<title>cluster_out</title>
<path fill="#2e1065" stroke="#6d28d9" d="M593.25,-8C593.25,-8 745.75,-8 745.75,-8 751.75,-8 757.75,-14 757.75,-20 757.75,-20 757.75,-223 757.75,-223 757.75,-229 751.75,-235 745.75,-235 745.75,-235 593.25,-235 593.25,-235 587.25,-235 581.25,-229 581.25,-223 581.25,-223 581.25,-20 581.25,-20 581.25,-14 587.25,-8 593.25,-8"/>
<text xml:space="preserve" text-anchor="middle" x="669.5" y="-212" font-family="sans-Serif" font-size="20.00" fill="#ddd6fe">Reusable Artifacts</text>
</g>
<!-- Explore -->
<g id="node1" class="node">
<title>Explore</title>
<path fill="#7dd3fc" stroke="#334155" stroke-width="1.3" d="M95.5,-124C95.5,-124 12,-124 12,-124 6,-124 0,-118 0,-112 0,-112 0,-100 0,-100 0,-94 6,-88 12,-88 12,-88 95.5,-88 95.5,-88 101.5,-88 107.5,-94 107.5,-100 107.5,-100 107.5,-112 107.5,-112 107.5,-118 101.5,-124 95.5,-124"/>
<text xml:space="preserve" text-anchor="middle" x="53.75" y="-108.88" font-family="sans-Serif" font-size="10.00" fill="#0f172a">🐚 &#160;Explore in REPL</text>
<text xml:space="preserve" text-anchor="middle" x="53.75" y="-96.12" font-family="sans-Serif" font-size="10.00" fill="#0f172a">call PWN::Plugins::*</text>
</g>
<!-- Hist -->
<g id="node2" class="node">
<title>Hist</title>
<path fill="#fcd34d" stroke="#334155" stroke-width="1.3" d="M318.25,-124C318.25,-126.21 297.86,-128 272.75,-128 247.64,-128 227.25,-126.21 227.25,-124 227.25,-124 227.25,-88 227.25,-88 227.25,-85.79 247.64,-84 272.75,-84 297.86,-84 318.25,-85.79 318.25,-88 318.25,-88 318.25,-124 318.25,-124"/>
<path fill="none" stroke="#334155" stroke-width="1.3" d="M318.25,-124C318.25,-121.79 297.86,-120 272.75,-120 247.64,-120 227.25,-121.79 227.25,-124"/>
<text xml:space="preserve" text-anchor="middle" x="272.75" y="-108.5" font-family="sans-Serif" font-size="10.00" fill="#0f172a">~/.pwn_history</text>
<text xml:space="preserve" text-anchor="middle" x="272.75" y="-96.5" font-family="sans-Serif" font-size="10.00" fill="#0f172a">Pry `history` cmd</text>
</g>
<!-- Explore&#45;&gt;Hist -->
<g id="edge1" class="edge">
<title>Explore&#45;&gt;Hist</title>
<path fill="none" stroke="#38bdf8" stroke-width="1.3" d="M108.11,-106C141.23,-106 183.7,-106 217.06,-106"/>
<polygon fill="#38bdf8" stroke="#38bdf8" stroke-width="1.3" points="216.69,-108.8 224.69,-106 216.69,-103.2 216.69,-108.8"/>
<text xml:space="preserve" text-anchor="middle" x="167.38" y="-107.95" font-family="sans-Serif" font-size="9.00" fill="#cbd5e1">auto&#45;log</text>
</g>
<!-- Extract -->
<g id="node3" class="node">
<title>Extract</title>
<path fill="#6ee7b7" stroke="#334155" stroke-width="1.3" d="M490.25,-124C490.25,-124 417.25,-124 417.25,-124 411.25,-124 405.25,-118 405.25,-112 405.25,-112 405.25,-100 405.25,-100 405.25,-94 411.25,-88 417.25,-88 417.25,-88 490.25,-88 490.25,-88 496.25,-88 502.25,-94 502.25,-100 502.25,-100 502.25,-112 502.25,-112 502.25,-118 496.25,-124 490.25,-124"/>
<text xml:space="preserve" text-anchor="middle" x="453.75" y="-102.5" font-family="sans-Serif" font-size="10.00" fill="#0f172a">copy working lines</text>
</g>
<!-- Hist&#45;&gt;Extract -->
<g id="edge2" class="edge">
<title>Hist&#45;&gt;Extract</title>
<path fill="none" stroke="#f59e0b" stroke-width="1.3" d="M318.46,-106C341.68,-106 370.32,-106 395.18,-106"/>
<polygon fill="#f59e0b" stroke="#f59e0b" stroke-width="1.3" points="394.89,-108.8 402.89,-106 394.89,-103.2 394.89,-108.8"/>
</g>
<!-- Driver -->
<g id="node4" class="node">
<title>Driver</title>
<path fill="#c4b5fd" stroke="#334155" stroke-width="1.3" d="M723.12,-196C723.12,-196 614.88,-196 614.88,-196 608.88,-196 602.88,-190 602.88,-184 602.88,-184 602.88,-172 602.88,-172 602.88,-166 608.88,-160 614.88,-160 614.88,-160 723.12,-160 723.12,-160 729.12,-160 735.12,-166 735.12,-172 735.12,-172 735.12,-184 735.12,-184 735.12,-190 729.12,-196 723.12,-196"/>
<text xml:space="preserve" text-anchor="middle" x="669" y="-180.5" font-family="sans-Serif" font-size="10.00" fill="#0f172a">bin/pwn_&lt;name&gt;</text>
<text xml:space="preserve" text-anchor="middle" x="669" y="-168.5" font-family="sans-Serif" font-size="10.00" fill="#0f172a">OptionParser + PWN calls</text>
</g>
<!-- Extract&#45;&gt;Driver -->
<g id="edge3" class="edge">
<title>Extract&#45;&gt;Driver</title>
<path fill="none" stroke="#a78bfa" stroke-width="1.3" d="M502.87,-122.25C532.61,-132.29 571.15,-145.3 603.51,-156.23"/>
<polygon fill="#a78bfa" stroke="#a78bfa" stroke-width="1.3" points="602.56,-158.86 611.04,-158.77 604.35,-153.56 602.56,-158.86"/>
</g>
<!-- Skill -->
<g id="node5" class="node">
<title>Skill</title>
<path fill="#c4b5fd" stroke="#334155" stroke-width="1.3" d="M735.5,-124C735.5,-124 602.5,-124 602.5,-124 596.5,-124 590.5,-118 590.5,-112 590.5,-112 590.5,-100 590.5,-100 590.5,-94 596.5,-88 602.5,-88 602.5,-88 735.5,-88 735.5,-88 741.5,-88 747.5,-94 747.5,-100 747.5,-100 747.5,-112 747.5,-112 747.5,-118 741.5,-124 735.5,-124"/>
<text xml:space="preserve" text-anchor="middle" x="669" y="-108.5" font-family="sans-Serif" font-size="10.00" fill="#0f172a">~/.pwn/skills/&lt;name&gt;/SKILL.md</text>
<text xml:space="preserve" text-anchor="middle" x="669" y="-96.5" font-family="sans-Serif" font-size="10.00" fill="#0f172a">learning_distill_skill</text>
</g>
<!-- Extract&#45;&gt;Skill -->
<g id="edge4" class="edge">
<title>Extract&#45;&gt;Skill</title>
<path fill="none" stroke="#a78bfa" stroke-width="1.3" d="M502.87,-106C525.74,-106 553.8,-106 580.27,-106"/>
<polygon fill="#a78bfa" stroke="#a78bfa" stroke-width="1.3" points="579.96,-108.8 587.96,-106 579.96,-103.2 579.96,-108.8"/>
</g>
<!-- Cron -->
<g id="node6" class="node">
<title>Cron</title>
<path fill="#c4b5fd" stroke="#334155" stroke-width="1.3" d="M696.5,-52C696.5,-52 641.5,-52 641.5,-52 635.5,-52 629.5,-46 629.5,-40 629.5,-40 629.5,-28 629.5,-28 629.5,-22 635.5,-16 641.5,-16 641.5,-16 696.5,-16 696.5,-16 702.5,-16 708.5,-22 708.5,-28 708.5,-28 708.5,-40 708.5,-40 708.5,-46 702.5,-52 696.5,-52"/>
<text xml:space="preserve" text-anchor="middle" x="669" y="-36.5" font-family="sans-Serif" font-size="10.00" fill="#0f172a">cron_create</text>
<text xml:space="preserve" text-anchor="middle" x="669" y="-24.5" font-family="sans-Serif" font-size="10.00" fill="#0f172a">prompt: | ruby:</text>
</g>
<!-- Extract&#45;&gt;Cron -->
<g id="edge5" class="edge">
<title>Extract&#45;&gt;Cron</title>
<path fill="none" stroke="#a78bfa" stroke-width="1.3" d="M502.87,-89.75C537.83,-77.95 584.94,-62.04 619.89,-50.24"/>
<polygon fill="#a78bfa" stroke="#a78bfa" stroke-width="1.3" points="620.41,-53.02 627.09,-47.81 618.62,-47.72 620.41,-53.02"/>
</g>
<!-- CI -->
<g id="node7" class="node">
<title>CI</title>
<path fill="#7dd3fc" stroke="#334155" stroke-width="1.3" d="M928.25,-124C928.25,-124 880.75,-124 880.75,-124 874.75,-124 868.75,-118 868.75,-112 868.75,-112 868.75,-100 868.75,-100 868.75,-94 874.75,-88 880.75,-88 880.75,-88 928.25,-88 928.25,-88 934.25,-88 940.25,-94 940.25,-100 940.25,-100 940.25,-112 940.25,-112 940.25,-118 934.25,-124 928.25,-124"/>
<text xml:space="preserve" text-anchor="middle" x="904.5" y="-108.88" font-family="sans-Serif" font-size="10.00" fill="#0f172a">⚙️ &#160;CI / CD</text>
<text xml:space="preserve" text-anchor="middle" x="904.5" y="-96.12" font-family="sans-Serif" font-size="10.00" fill="#0f172a">headless run</text>
</g>
<!-- Driver&#45;&gt;CI -->
<g id="edge6" class="edge">
<title>Driver&#45;&gt;CI</title>
<path fill="none" stroke="#38bdf8" stroke-width="2" d="M730.44,-159.36C770.28,-147.08 821.64,-131.24 858.03,-120.02"/>
<polygon fill="#38bdf8" stroke="#38bdf8" stroke-width="2" points="858.63,-122.77 865.45,-117.73 856.98,-117.41 858.63,-122.77"/>
</g>
<!-- Skill&#45;&gt;CI -->
<g id="edge7" class="edge">
<title>Skill&#45;&gt;CI</title>
<path fill="none" stroke="#38bdf8" stroke-width="1.3" d="M748.08,-106C784.8,-106 827.29,-106 858.55,-106"/>
<polygon fill="#38bdf8" stroke="#38bdf8" stroke-width="1.3" points="858.31,-108.8 866.31,-106 858.31,-103.2 858.31,-108.8"/>
<text xml:space="preserve" text-anchor="middle" x="809.25" y="-107.95" font-family="sans-Serif" font-size="9.00" fill="#cbd5e1">pwn &#45;&#45;ai</text>
</g>
<!-- Cron&#45;&gt;CI -->
<g id="edge8" class="edge">
<title>Cron&#45;&gt;CI</title>
<path fill="none" stroke="#38bdf8" stroke-width="1.3" d="M709.08,-46.05C750.36,-58.78 815.35,-78.82 858.68,-92.18"/>
<polygon fill="#38bdf8" stroke="#38bdf8" stroke-width="1.3" points="857.77,-94.83 866.24,-94.51 859.42,-89.48 857.77,-94.83"/>
</g>
</g>
</svg>
