<?xml version="1.0" encoding="UTF-8" standalone="no"?>
<!DOCTYPE svg PUBLIC "-//W3C//DTD SVG 1.1//EN"
 "http://www.w3.org/Graphics/SVG/1.1/DTD/svg11.dtd">
<!-- Generated by graphviz version 14.1.2 (0)
 -->
<!-- Title: PWN_HistToDriver Pages: 1 -->
<svg width="1033pt" height="368pt"
 viewBox="0.00 0.00 1033.00 368.00" xmlns="http://www.w3.org/2000/svg" xmlns:xlink="http://www.w3.org/1999/xlink">
<g id="graph0" class="graph" transform="scale(1 1) rotate(0) translate(43.2 325.2)">
<title>PWN_HistToDriver</title>
<polygon fill="#0f172a" stroke="none" points="-43.2,43.2 -43.2,-325.2 990.2,-325.2 990.2,43.2 -43.2,43.2"/>
<text xml:space="preserve" text-anchor="start" x="263.88" y="-260" font-family="sans-Serif" font-weight="bold" font-size="20.00" fill="#e2e8f0">From REPL History → Reusable Driver / Skill</text>
<text xml:space="preserve" text-anchor="start" x="352" y="-248.55" font-family="sans-Serif" font-size="11.00" fill="#94a3b8">explore → history → bin/pwn_* driver → distill_skill</text>
<g id="clust1" class="cluster">
<title>cluster_out</title>
<path fill="#2e1065" stroke="#6d28d9" d="M593.25,-8C593.25,-8 752.5,-8 752.5,-8 758.5,-8 764.5,-14 764.5,-20 764.5,-20 764.5,-223 764.5,-223 764.5,-229 758.5,-235 752.5,-235 752.5,-235 593.25,-235 593.25,-235 587.25,-235 581.25,-229 581.25,-223 581.25,-223 581.25,-20 581.25,-20 581.25,-14 587.25,-8 593.25,-8"/>
<text xml:space="preserve" text-anchor="middle" x="672.88" y="-212" font-family="sans-Serif" font-size="20.00" fill="#ddd6fe">Reusable Artefacts</text>
</g>
<!-- Explore -->
<g id="node1" class="node">
<title>Explore</title>
<path fill="#7dd3fc" stroke="#334155" stroke-width="1.3" d="M95.5,-124C95.5,-124 12,-124 12,-124 6,-124 0,-118 0,-112 0,-112 0,-100 0,-100 0,-94 6,-88 12,-88 12,-88 95.5,-88 95.5,-88 101.5,-88 107.5,-94 107.5,-100 107.5,-100 107.5,-112 107.5,-112 107.5,-118 101.5,-124 95.5,-124"/>
<text xml:space="preserve" text-anchor="middle" x="53.75" y="-108.88" font-family="sans-Serif" font-size="10.00" fill="#0f172a">🐚 &#160;Explore in REPL</text>
<text xml:space="preserve" text-anchor="middle" x="53.75" y="-96.12" font-family="sans-Serif" font-size="10.00" fill="#0f172a">call PWN::Plugins::*</text>
</g>
<!-- Hist -->
<g id="node2" class="node">
<title>Hist</title>
<path fill="#fcd34d" stroke="#334155" stroke-width="1.3" d="M318.25,-124C318.25,-126.21 297.86,-128 272.75,-128 247.64,-128 227.25,-126.21 227.25,-124 227.25,-124 227.25,-88 227.25,-88 227.25,-85.79 247.64,-84 272.75,-84 297.86,-84 318.25,-85.79 318.25,-88 318.25,-88 318.25,-124 318.25,-124"/>
<path fill="none" stroke="#334155" stroke-width="1.3" d="M318.25,-124C318.25,-121.79 297.86,-120 272.75,-120 247.64,-120 227.25,-121.79 227.25,-124"/>
<text xml:space="preserve" text-anchor="middle" x="272.75" y="-108.5" font-family="sans-Serif" font-size="10.00" fill="#0f172a">~/.pwn_history</text>
<text xml:space="preserve" text-anchor="middle" x="272.75" y="-96.5" font-family="sans-Serif" font-size="10.00" fill="#0f172a">Pry `history` cmd</text>
</g>
<!-- Explore&#45;&gt;Hist -->
<g id="edge1" class="edge">
<title>Explore&#45;&gt;Hist</title>
<path fill="none" stroke="#38bdf8" stroke-width="1.3" d="M108.11,-106C141.23,-106 183.7,-106 217.06,-106"/>
<polygon fill="#38bdf8" stroke="#38bdf8" stroke-width="1.3" points="216.69,-108.8 224.69,-106 216.69,-103.2 216.69,-108.8"/>
<text xml:space="preserve" text-anchor="middle" x="167.38" y="-107.95" font-family="sans-Serif" font-size="9.00" fill="#cbd5e1">auto&#45;log</text>
</g>
<!-- Extract -->
<g id="node3" class="node">
<title>Extract</title>
<path fill="#6ee7b7" stroke="#334155" stroke-width="1.3" d="M490.25,-124C490.25,-124 417.25,-124 417.25,-124 411.25,-124 405.25,-118 405.25,-112 405.25,-112 405.25,-100 405.25,-100 405.25,-94 411.25,-88 417.25,-88 417.25,-88 490.25,-88 490.25,-88 496.25,-88 502.25,-94 502.25,-100 502.25,-100 502.25,-112 502.25,-112 502.25,-118 496.25,-124 490.25,-124"/>
<text xml:space="preserve" text-anchor="middle" x="453.75" y="-102.5" font-family="sans-Serif" font-size="10.00" fill="#0f172a">copy working lines</text>
</g>
<!-- Hist&#45;&gt;Extract -->
<g id="edge2" class="edge">
<title>Hist&#45;&gt;Extract</title>
<path fill="none" stroke="#f59e0b" stroke-width="1.3" d="M318.46,-106C341.68,-106 370.32,-106 395.18,-106"/>
<polygon fill="#f59e0b" stroke="#f59e0b" stroke-width="1.3" points="394.89,-108.8 402.89,-106 394.89,-103.2 394.89,-108.8"/>
</g>
<!-- Driver -->
<g id="node4" class="node">
<title>Driver</title>
<path fill="#c4b5fd" stroke="#334155" stroke-width="1.3" d="M726.5,-196C726.5,-196 618.25,-196 618.25,-196 612.25,-196 606.25,-190 606.25,-184 606.25,-184 606.25,-172 606.25,-172 606.25,-166 612.25,-160 618.25,-160 618.25,-160 726.5,-160 726.5,-160 732.5,-160 738.5,-166 738.5,-172 738.5,-172 738.5,-184 738.5,-184 738.5,-190 732.5,-196 726.5,-196"/>
<text xml:space="preserve" text-anchor="middle" x="672.38" y="-180.5" font-family="sans-Serif" font-size="10.00" fill="#0f172a">bin/pwn_&lt;name&gt;</text>
<text xml:space="preserve" text-anchor="middle" x="672.38" y="-168.5" font-family="sans-Serif" font-size="10.00" fill="#0f172a">OptionParser + PWN calls</text>
</g>
<!-- Extract&#45;&gt;Driver -->
<g id="edge3" class="edge">
<title>Extract&#45;&gt;Driver</title>
<path fill="none" stroke="#a78bfa" stroke-width="1.3" d="M502.83,-121.98C533.25,-132.09 572.96,-145.29 606.2,-156.34"/>
<polygon fill="#a78bfa" stroke="#a78bfa" stroke-width="1.3" points="605.05,-158.91 613.52,-158.77 606.81,-153.59 605.05,-158.91"/>
</g>
<!-- Skill -->
<g id="node5" class="node">
<title>Skill</title>
<path fill="#c4b5fd" stroke="#334155" stroke-width="1.3" d="M723.88,-124C723.88,-124 620.88,-124 620.88,-124 614.88,-124 608.88,-118 608.88,-112 608.88,-112 608.88,-100 608.88,-100 608.88,-94 614.88,-88 620.88,-88 620.88,-88 723.88,-88 723.88,-88 729.88,-88 735.88,-94 735.88,-100 735.88,-100 735.88,-112 735.88,-112 735.88,-118 729.88,-124 723.88,-124"/>
<text xml:space="preserve" text-anchor="middle" x="672.38" y="-108.5" font-family="sans-Serif" font-size="10.00" fill="#0f172a">~/.pwn/skills/&lt;name&gt;.md</text>
<text xml:space="preserve" text-anchor="middle" x="672.38" y="-96.5" font-family="sans-Serif" font-size="10.00" fill="#0f172a">learning_distill_skill</text>
</g>
<!-- Extract&#45;&gt;Skill -->
<g id="edge4" class="edge">
<title>Extract&#45;&gt;Skill</title>
<path fill="none" stroke="#a78bfa" stroke-width="1.3" d="M502.83,-106C531.07,-106 567.32,-106 598.96,-106"/>
<polygon fill="#a78bfa" stroke="#a78bfa" stroke-width="1.3" points="598.65,-108.8 606.65,-106 598.65,-103.2 598.65,-108.8"/>
</g>
<!-- Cron -->
<g id="node6" class="node">
<title>Cron</title>
<path fill="#c4b5fd" stroke="#334155" stroke-width="1.3" d="M699.88,-52C699.88,-52 644.88,-52 644.88,-52 638.88,-52 632.88,-46 632.88,-40 632.88,-40 632.88,-28 632.88,-28 632.88,-22 638.88,-16 644.88,-16 644.88,-16 699.88,-16 699.88,-16 705.88,-16 711.88,-22 711.88,-28 711.88,-28 711.88,-40 711.88,-40 711.88,-46 705.88,-52 699.88,-52"/>
<text xml:space="preserve" text-anchor="middle" x="672.38" y="-36.5" font-family="sans-Serif" font-size="10.00" fill="#0f172a">cron_create</text>
<text xml:space="preserve" text-anchor="middle" x="672.38" y="-24.5" font-family="sans-Serif" font-size="10.00" fill="#0f172a">prompt: | ruby:</text>
</g>
<!-- Extract&#45;&gt;Cron -->
<g id="edge5" class="edge">
<title>Extract&#45;&gt;Cron</title>
<path fill="none" stroke="#a78bfa" stroke-width="1.3" d="M502.83,-90.02C538.64,-78.12 587.34,-61.93 623.18,-50.02"/>
<polygon fill="#a78bfa" stroke="#a78bfa" stroke-width="1.3" points="623.89,-52.73 630.6,-47.55 622.12,-47.42 623.89,-52.73"/>
</g>
<!-- CI -->
<g id="node7" class="node">
<title>CI</title>
<path fill="#7dd3fc" stroke="#334155" stroke-width="1.3" d="M935,-124C935,-124 887.5,-124 887.5,-124 881.5,-124 875.5,-118 875.5,-112 875.5,-112 875.5,-100 875.5,-100 875.5,-94 881.5,-88 887.5,-88 887.5,-88 935,-88 935,-88 941,-88 947,-94 947,-100 947,-100 947,-112 947,-112 947,-118 941,-124 935,-124"/>
<text xml:space="preserve" text-anchor="middle" x="911.25" y="-108.88" font-family="sans-Serif" font-size="10.00" fill="#0f172a">⚙️ &#160;CI / CD</text>
<text xml:space="preserve" text-anchor="middle" x="911.25" y="-96.12" font-family="sans-Serif" font-size="10.00" fill="#0f172a">headless run</text>
</g>
<!-- Driver&#45;&gt;CI -->
<g id="edge6" class="edge">
<title>Driver&#45;&gt;CI</title>
<path fill="none" stroke="#38bdf8" stroke-width="2" d="M734.68,-159.36C775.23,-147.04 827.53,-131.14 864.46,-119.92"/>
<polygon fill="#38bdf8" stroke="#38bdf8" stroke-width="2" points="865.19,-122.62 872.03,-117.62 863.56,-117.26 865.19,-122.62"/>
</g>
<!-- Skill&#45;&gt;CI -->
<g id="edge7" class="edge">
<title>Skill&#45;&gt;CI</title>
<path fill="none" stroke="#38bdf8" stroke-width="1.3" d="M736.23,-106C776.82,-106 828.68,-106 865.19,-106"/>
<polygon fill="#38bdf8" stroke="#38bdf8" stroke-width="1.3" points="865.09,-108.8 873.09,-106 865.09,-103.2 865.09,-108.8"/>
<text xml:space="preserve" text-anchor="middle" x="816" y="-107.95" font-family="sans-Serif" font-size="9.00" fill="#cbd5e1">pwn &#45;&#45;ai</text>
</g>
<!-- Cron&#45;&gt;CI -->
<g id="edge8" class="edge">
<title>Cron&#45;&gt;CI</title>
<path fill="none" stroke="#38bdf8" stroke-width="1.3" d="M712.49,-45.89C754.6,-58.69 821.48,-79.02 865.62,-92.43"/>
<polygon fill="#38bdf8" stroke="#38bdf8" stroke-width="1.3" points="864.6,-95.05 873.06,-94.7 866.22,-89.69 864.6,-95.05"/>
</g>
</g>
</svg>
