<?xml version="1.0" encoding="UTF-8" standalone="no"?>
<!DOCTYPE svg PUBLIC "-//W3C//DTD SVG 1.1//EN"
 "http://www.w3.org/Graphics/SVG/1.1/DTD/svg11.dtd">
<!-- Generated by graphviz version 14.1.2 (0)
 -->
<!-- Title: PWN_MemorySkills Pages: 1 -->
<svg width="665pt" height="568pt"
 viewBox="0.00 0.00 665.00 568.00" xmlns="http://www.w3.org/2000/svg" xmlns:xlink="http://www.w3.org/1999/xlink">
<g id="graph0" class="graph" transform="scale(1 1) rotate(0) translate(43.2 524.45)">
<title>PWN_MemorySkills</title>
<polygon fill="#0f172a" stroke="none" points="-43.2,43.2 -43.2,-524.45 622.2,-524.45 622.2,43.2 -43.2,43.2"/>
<text xml:space="preserve" text-anchor="start" x="46.5" y="-459.25" font-family="sans-Serif" font-weight="bold" font-size="20.00" fill="#e2e8f0">Persistent Knowledge — Memory · Skills · Sessions</text>
<text xml:space="preserve" text-anchor="start" x="164.25" y="-447.8" font-family="sans-Serif" font-size="11.00" fill="#94a3b8">everything under ~/.pwn/ that shapes future prompts</text>
<g id="clust1" class="cluster">
<title>cluster_write</title>
<path fill="#022c22" stroke="#047857" d="M20,-351C20,-351 559,-351 559,-351 565,-351 571,-357 571,-363 571,-363 571,-422.25 571,-422.25 571,-428.25 565,-434.25 559,-434.25 559,-434.25 20,-434.25 20,-434.25 14,-434.25 8,-428.25 8,-422.25 8,-422.25 8,-363 8,-363 8,-357 14,-351 20,-351"/>
<text xml:space="preserve" text-anchor="middle" x="289.5" y="-411.25" font-family="sans-Serif" font-size="20.00" fill="#a7f3d0">Write&#45;Side Tools</text>
</g>
<g id="clust3" class="cluster">
<title>cluster_files</title>
<path fill="#422006" stroke="#a16207" d="M47,-215.25C47,-215.25 551,-215.25 551,-215.25 557,-215.25 563,-221.25 563,-227.25 563,-227.25 563,-294.5 563,-294.5 563,-300.5 557,-306.5 551,-306.5 551,-306.5 47,-306.5 47,-306.5 41,-306.5 35,-300.5 35,-294.5 35,-294.5 35,-227.25 35,-227.25 35,-221.25 41,-215.25 47,-215.25"/>
<text xml:space="preserve" text-anchor="middle" x="299" y="-283.5" font-family="sans-Serif" font-size="20.00" fill="#fde68a">~/.pwn/</text>
</g>
<g id="clust5" class="cluster">
<title>cluster_read</title>
<path fill="#2e1065" stroke="#6d28d9" d="M77,-97C77,-97 537,-97 537,-97 543,-97 549,-103 549,-109 549,-109 549,-168.25 549,-168.25 549,-174.25 543,-180.25 537,-180.25 537,-180.25 77,-180.25 77,-180.25 71,-180.25 65,-174.25 65,-168.25 65,-168.25 65,-109 65,-109 65,-103 71,-97 77,-97"/>
<text xml:space="preserve" text-anchor="middle" x="307" y="-157.25" font-family="sans-Serif" font-size="20.00" fill="#ddd6fe">Read&#45;Side / Injection</text>
</g>
<!-- Rem -->
<g id="node1" class="node">
<title>Rem</title>
<path fill="#6ee7b7" stroke="#334155" stroke-width="1.3" d="M114.25,-395C114.25,-395 27.75,-395 27.75,-395 21.75,-395 15.75,-389 15.75,-383 15.75,-383 15.75,-371 15.75,-371 15.75,-365 21.75,-359 27.75,-359 27.75,-359 114.25,-359 114.25,-359 120.25,-359 126.25,-365 126.25,-371 126.25,-371 126.25,-383 126.25,-383 126.25,-389 120.25,-395 114.25,-395"/>
<text xml:space="preserve" text-anchor="middle" x="71" y="-379.5" font-family="sans-Serif" font-size="10.00" fill="#0f172a">memory_remember</text>
<text xml:space="preserve" text-anchor="middle" x="71" y="-367.5" font-family="sans-Serif" font-size="10.00" fill="#0f172a">key · value · category</text>
</g>
<!-- Fmem -->
<g id="node5" class="node">
<title>Fmem</title>
<path fill="#fcd34d" stroke="#334155" stroke-width="1.3" d="M163.12,-263.25C163.12,-265.46 136.18,-267.25 103,-267.25 69.82,-267.25 42.88,-265.46 42.88,-263.25 42.88,-263.25 42.88,-227.25 42.88,-227.25 42.88,-225.04 69.82,-223.25 103,-223.25 136.18,-223.25 163.12,-225.04 163.12,-227.25 163.12,-227.25 163.12,-263.25 163.12,-263.25"/>
<path fill="none" stroke="#334155" stroke-width="1.3" d="M163.12,-263.25C163.12,-261.04 136.18,-259.25 103,-259.25 69.82,-259.25 42.88,-261.04 42.88,-263.25"/>
<text xml:space="preserve" text-anchor="middle" x="103" y="-247.75" font-family="sans-Serif" font-size="10.00" fill="#0f172a">memory.json</text>
<text xml:space="preserve" text-anchor="middle" x="103" y="-235.75" font-family="sans-Serif" font-size="10.00" fill="#0f172a">fact · pref · lesson · env</text>
</g>
<!-- Rem&#45;&gt;Fmem -->
<g id="edge1" class="edge">
<title>Rem&#45;&gt;Fmem</title>
<path fill="none" stroke="#f59e0b" stroke-width="1.3" d="M75.32,-358.5C80.44,-337.74 89.07,-302.74 95.33,-277.34"/>
<polygon fill="#f59e0b" stroke="#f59e0b" stroke-width="1.3" points="98.02,-278.13 97.22,-269.69 92.58,-276.79 98.02,-278.13"/>
</g>
<!-- Skc -->
<g id="node2" class="node">
<title>Skc</title>
<path fill="#6ee7b7" stroke="#334155" stroke-width="1.3" d="M411,-395C411,-395 335,-395 335,-395 329,-395 323,-389 323,-383 323,-383 323,-371 323,-371 323,-365 329,-359 335,-359 335,-359 411,-359 411,-359 417,-359 423,-365 423,-371 423,-371 423,-383 423,-383 423,-389 417,-395 411,-395"/>
<text xml:space="preserve" text-anchor="middle" x="373" y="-379.5" font-family="sans-Serif" font-size="10.00" fill="#0f172a">skill_create</text>
<text xml:space="preserve" text-anchor="middle" x="373" y="-367.5" font-family="sans-Serif" font-size="10.00" fill="#0f172a">skill_add_reference</text>
</g>
<!-- Fskl -->
<g id="node6" class="node">
<title>Fskl</title>
<path fill="#fcd34d" stroke="#334155" stroke-width="1.3" d="M429.75,-263.25C429.75,-265.46 404.31,-267.25 373,-267.25 341.69,-267.25 316.25,-265.46 316.25,-263.25 316.25,-263.25 316.25,-227.25 316.25,-227.25 316.25,-225.04 341.69,-223.25 373,-223.25 404.31,-223.25 429.75,-225.04 429.75,-227.25 429.75,-227.25 429.75,-263.25 429.75,-263.25"/>
<path fill="none" stroke="#334155" stroke-width="1.3" d="M429.75,-263.25C429.75,-261.04 404.31,-259.25 373,-259.25 341.69,-259.25 316.25,-261.04 316.25,-263.25"/>
<text xml:space="preserve" text-anchor="middle" x="373" y="-247.75" font-family="sans-Serif" font-size="10.00" fill="#0f172a">skills/*.md</text>
<text xml:space="preserve" text-anchor="middle" x="373" y="-235.75" font-family="sans-Serif" font-size="10.00" fill="#0f172a">YAML front&#45;matter refs</text>
</g>
<!-- Skc&#45;&gt;Fskl -->
<g id="edge2" class="edge">
<title>Skc&#45;&gt;Fskl</title>
<path fill="none" stroke="#f59e0b" stroke-width="1.3" d="M373,-358.5C373,-337.83 373,-303.05 373,-277.67"/>
<polygon fill="#f59e0b" stroke="#f59e0b" stroke-width="1.3" points="375.8,-277.75 373,-269.75 370.2,-277.75 375.8,-277.75"/>
</g>
<!-- Note -->
<g id="node3" class="node">
<title>Note</title>
<path fill="#6ee7b7" stroke="#334155" stroke-width="1.3" d="M271.25,-395C271.25,-395 178.75,-395 178.75,-395 172.75,-395 166.75,-389 166.75,-383 166.75,-383 166.75,-371 166.75,-371 166.75,-365 172.75,-359 178.75,-359 178.75,-359 271.25,-359 271.25,-359 277.25,-359 283.25,-365 283.25,-371 283.25,-371 283.25,-383 283.25,-383 283.25,-389 277.25,-395 271.25,-395"/>
<text xml:space="preserve" text-anchor="middle" x="225" y="-379.5" font-family="sans-Serif" font-size="10.00" fill="#0f172a">learning_note_outcome</text>
<text xml:space="preserve" text-anchor="middle" x="225" y="-367.5" font-family="sans-Serif" font-size="10.00" fill="#0f172a">learning_reflect</text>
</g>
<!-- Flrn -->
<g id="node7" class="node">
<title>Flrn</title>
<path fill="#fcd34d" stroke="#334155" stroke-width="1.3" d="M276.5,-263.25C276.5,-265.46 260.14,-267.25 240,-267.25 219.86,-267.25 203.5,-265.46 203.5,-263.25 203.5,-263.25 203.5,-227.25 203.5,-227.25 203.5,-225.04 219.86,-223.25 240,-223.25 260.14,-223.25 276.5,-225.04 276.5,-227.25 276.5,-227.25 276.5,-263.25 276.5,-263.25"/>
<path fill="none" stroke="#334155" stroke-width="1.3" d="M276.5,-263.25C276.5,-261.04 260.14,-259.25 240,-259.25 219.86,-259.25 203.5,-261.04 203.5,-263.25"/>
<text xml:space="preserve" text-anchor="middle" x="240" y="-247.75" font-family="sans-Serif" font-size="10.00" fill="#0f172a">learning.jsonl</text>
<text xml:space="preserve" text-anchor="middle" x="240" y="-235.75" font-family="sans-Serif" font-size="10.00" fill="#0f172a">outcome log</text>
</g>
<!-- Note&#45;&gt;Flrn -->
<g id="edge3" class="edge">
<title>Note&#45;&gt;Flrn</title>
<path fill="none" stroke="#f59e0b" stroke-width="1.3" d="M227.02,-358.5C229.41,-337.83 233.43,-303.05 236.37,-277.67"/>
<polygon fill="#f59e0b" stroke="#f59e0b" stroke-width="1.3" points="239.15,-278 237.28,-269.73 233.58,-277.36 239.15,-278"/>
</g>
<!-- Dist -->
<g id="node4" class="node">
<title>Dist</title>
<path fill="#6ee7b7" stroke="#334155" stroke-width="1.3" d="M551,-395C551,-395 475,-395 475,-395 469,-395 463,-389 463,-383 463,-383 463,-371 463,-371 463,-365 469,-359 475,-359 475,-359 551,-359 551,-359 557,-359 563,-365 563,-371 563,-371 563,-383 563,-383 563,-389 557,-395 551,-395"/>
<text xml:space="preserve" text-anchor="middle" x="513" y="-379.5" font-family="sans-Serif" font-size="10.00" fill="#0f172a">learning_distill_skill</text>
<text xml:space="preserve" text-anchor="middle" x="513" y="-367.5" font-family="sans-Serif" font-size="10.00" fill="#0f172a">(session → skill)</text>
</g>
<!-- Dist&#45;&gt;Fskl -->
<g id="edge4" class="edge">
<title>Dist&#45;&gt;Fskl</title>
<path fill="none" stroke="#f59e0b" stroke-width="1.3" d="M494.12,-358.5C470.82,-336.91 430.92,-299.93 403.32,-274.35"/>
<polygon fill="#f59e0b" stroke="#f59e0b" stroke-width="1.3" points="405.45,-272.5 397.67,-269.12 401.64,-276.61 405.45,-272.5"/>
</g>
<!-- Fses -->
<g id="node8" class="node">
<title>Fses</title>
<path fill="#fcd34d" stroke="#334155" stroke-width="1.3" d="M554.5,-263.25C554.5,-265.46 535.45,-267.25 512,-267.25 488.55,-267.25 469.5,-265.46 469.5,-263.25 469.5,-263.25 469.5,-227.25 469.5,-227.25 469.5,-225.04 488.55,-223.25 512,-223.25 535.45,-223.25 554.5,-225.04 554.5,-227.25 554.5,-227.25 554.5,-263.25 554.5,-263.25"/>
<path fill="none" stroke="#334155" stroke-width="1.3" d="M554.5,-263.25C554.5,-261.04 535.45,-259.25 512,-259.25 488.55,-259.25 469.5,-261.04 469.5,-263.25"/>
<text xml:space="preserve" text-anchor="middle" x="512" y="-247.75" font-family="sans-Serif" font-size="10.00" fill="#0f172a">sessions/*.jsonl</text>
<text xml:space="preserve" text-anchor="middle" x="512" y="-235.75" font-family="sans-Serif" font-size="10.00" fill="#0f172a">transcripts</text>
</g>
<!-- Dist&#45;&gt;Fses -->
<g id="edge5" class="edge">
<title>Dist&#45;&gt;Fses</title>
<path fill="none" stroke="#fbbf24" stroke-width="1.3" stroke-dasharray="5,2" d="M512.79,-348.57C512.6,-324.48 512.34,-289.92 512.17,-267.78"/>
<polygon fill="#fbbf24" stroke="#fbbf24" stroke-width="1.3" points="509.99,-348.56 512.85,-356.53 515.59,-348.51 509.99,-348.56"/>
<text xml:space="preserve" text-anchor="middle" x="522.71" y="-316.45" font-family="sans-Serif" font-size="9.00" fill="#cbd5e1">mine</text>
</g>
<!-- Rec -->
<g id="node9" class="node">
<title>Rec</title>
<path fill="#c4b5fd" stroke="#334155" stroke-width="1.3" d="M140.88,-141C140.88,-141 85.12,-141 85.12,-141 79.12,-141 73.12,-135 73.12,-129 73.12,-129 73.12,-117 73.12,-117 73.12,-111 79.12,-105 85.12,-105 85.12,-105 140.88,-105 140.88,-105 146.88,-105 152.88,-111 152.88,-117 152.88,-117 152.88,-129 152.88,-129 152.88,-135 146.88,-141 140.88,-141"/>
<text xml:space="preserve" text-anchor="middle" x="113" y="-119.5" font-family="sans-Serif" font-size="10.00" fill="#0f172a">memory_recall</text>
</g>
<!-- Fmem&#45;&gt;Rec -->
<g id="edge6" class="edge">
<title>Fmem&#45;&gt;Rec</title>
<path fill="none" stroke="#a78bfa" stroke-width="1.3" d="M104.79,-222.75C106.45,-202.78 108.93,-172.95 110.73,-151.3"/>
<polygon fill="#a78bfa" stroke="#a78bfa" stroke-width="1.3" points="113.52,-151.58 111.39,-143.37 107.94,-151.11 113.52,-151.58"/>
</g>
<!-- Skv -->
<g id="node10" class="node">
<title>Skv</title>
<path fill="#c4b5fd" stroke="#334155" stroke-width="1.3" d="M399.25,-141C399.25,-141 342.75,-141 342.75,-141 336.75,-141 330.75,-135 330.75,-129 330.75,-129 330.75,-117 330.75,-117 330.75,-111 336.75,-105 342.75,-105 342.75,-105 399.25,-105 399.25,-105 405.25,-105 411.25,-111 411.25,-117 411.25,-117 411.25,-129 411.25,-129 411.25,-135 405.25,-141 399.25,-141"/>
<text xml:space="preserve" text-anchor="middle" x="371" y="-119.5" font-family="sans-Serif" font-size="10.00" fill="#0f172a">skill_list · view</text>
</g>
<!-- Fskl&#45;&gt;Skv -->
<g id="edge7" class="edge">
<title>Fskl&#45;&gt;Skv</title>
<path fill="none" stroke="#a78bfa" stroke-width="1.3" d="M372.64,-222.75C372.31,-202.78 371.81,-172.95 371.45,-151.3"/>
<polygon fill="#a78bfa" stroke="#a78bfa" stroke-width="1.3" points="374.26,-151.33 371.32,-143.38 368.66,-151.43 374.26,-151.33"/>
</g>
<!-- Out -->
<g id="node11" class="node">
<title>Out</title>
<path fill="#c4b5fd" stroke="#334155" stroke-width="1.3" d="M278.88,-141C278.88,-141 205.12,-141 205.12,-141 199.12,-141 193.12,-135 193.12,-129 193.12,-129 193.12,-117 193.12,-117 193.12,-111 199.12,-105 205.12,-105 205.12,-105 278.88,-105 278.88,-105 284.88,-105 290.88,-111 290.88,-117 290.88,-117 290.88,-129 290.88,-129 290.88,-135 284.88,-141 278.88,-141"/>
<text xml:space="preserve" text-anchor="middle" x="242" y="-125.5" font-family="sans-Serif" font-size="10.00" fill="#0f172a">learning_outcomes</text>
<text xml:space="preserve" text-anchor="middle" x="242" y="-113.5" font-family="sans-Serif" font-size="10.00" fill="#0f172a">learning_stats</text>
</g>
<!-- Flrn&#45;&gt;Out -->
<g id="edge8" class="edge">
<title>Flrn&#45;&gt;Out</title>
<path fill="none" stroke="#a78bfa" stroke-width="1.3" d="M240.36,-222.75C240.69,-202.78 241.19,-172.95 241.55,-151.3"/>
<polygon fill="#a78bfa" stroke="#a78bfa" stroke-width="1.3" points="244.34,-151.43 241.68,-143.38 238.74,-151.33 244.34,-151.43"/>
</g>
<!-- Sesv -->
<g id="node12" class="node">
<title>Sesv</title>
<path fill="#c4b5fd" stroke="#334155" stroke-width="1.3" d="M529.12,-141C529.12,-141 462.88,-141 462.88,-141 456.88,-141 450.88,-135 450.88,-129 450.88,-129 450.88,-117 450.88,-117 450.88,-111 456.88,-105 462.88,-105 462.88,-105 529.12,-105 529.12,-105 535.12,-105 541.12,-111 541.12,-117 541.12,-117 541.12,-129 541.12,-129 541.12,-135 535.12,-141 529.12,-141"/>
<text xml:space="preserve" text-anchor="middle" x="496" y="-125.5" font-family="sans-Serif" font-size="10.00" fill="#0f172a">sessions_view</text>
<text xml:space="preserve" text-anchor="middle" x="496" y="-113.5" font-family="sans-Serif" font-size="10.00" fill="#0f172a">sessions_current</text>
</g>
<!-- Fses&#45;&gt;Sesv -->
<g id="edge9" class="edge">
<title>Fses&#45;&gt;Sesv</title>
<path fill="none" stroke="#a78bfa" stroke-width="1.3" d="M509.14,-222.75C506.47,-202.69 502.48,-172.68 499.59,-151.01"/>
<polygon fill="#a78bfa" stroke="#a78bfa" stroke-width="1.3" points="502.41,-150.92 498.58,-143.36 496.86,-151.66 502.41,-150.92"/>
</g>
<!-- Prompt -->
<g id="node13" class="node">
<title>Prompt</title>
<path fill="#7dd3fc" stroke="#334155" stroke-width="2" d="M395,-36C395,-36 217,-36 217,-36 211,-36 205,-30 205,-24 205,-24 205,-12 205,-12 205,-6 211,0 217,0 217,0 395,0 395,0 401,0 407,-6 407,-12 407,-12 407,-24 407,-24 407,-30 401,-36 395,-36"/>
<text xml:space="preserve" text-anchor="middle" x="306" y="-20.5" font-family="sans-Serif" font-size="10.00" fill="#0f172a">PromptBuilder</text>
<text xml:space="preserve" text-anchor="middle" x="306" y="-8.5" font-family="sans-Serif" font-size="10.00" fill="#0f172a">MEMORY + SKILLS + LEARNING blocks</text>
</g>
<!-- Rec&#45;&gt;Prompt -->
<g id="edge10" class="edge">
<title>Rec&#45;&gt;Prompt</title>
<path fill="none" stroke="#38bdf8" stroke-width="1.3" d="M145.74,-104.53C178.26,-87.17 228.26,-60.49 263.76,-41.54"/>
<polygon fill="#38bdf8" stroke="#38bdf8" stroke-width="1.3" points="264.98,-44.07 270.72,-37.83 262.34,-39.13 264.98,-44.07"/>
</g>
<!-- Skv&#45;&gt;Prompt -->
<g id="edge11" class="edge">
<title>Skv&#45;&gt;Prompt</title>
<path fill="none" stroke="#38bdf8" stroke-width="1.3" d="M359.97,-104.53C349.72,-88.28 334.3,-63.84 322.56,-45.24"/>
<polygon fill="#38bdf8" stroke="#38bdf8" stroke-width="1.3" points="324.99,-43.84 318.35,-38.57 320.25,-46.83 324.99,-43.84"/>
</g>
<!-- Out&#45;&gt;Prompt -->
<g id="edge12" class="edge">
<title>Out&#45;&gt;Prompt</title>
<path fill="none" stroke="#38bdf8" stroke-width="1.3" d="M252.86,-104.53C262.95,-88.28 278.14,-63.84 289.69,-45.24"/>
<polygon fill="#38bdf8" stroke="#38bdf8" stroke-width="1.3" points="291.99,-46.85 293.84,-38.58 287.24,-43.89 291.99,-46.85"/>
</g>
<!-- Sesv&#45;&gt;Prompt -->
<g id="edge13" class="edge">
<title>Sesv&#45;&gt;Prompt</title>
<path fill="none" stroke="#38bdf8" stroke-width="1.3" d="M463.77,-104.53C431.76,-87.17 382.53,-60.49 347.58,-41.54"/>
<polygon fill="#38bdf8" stroke="#38bdf8" stroke-width="1.3" points="349.12,-39.19 340.76,-37.84 346.46,-44.12 349.12,-39.19"/>
</g>
</g>
</svg>
