<?xml version="1.0" encoding="UTF-8" standalone="no"?>
<!DOCTYPE svg PUBLIC "-//W3C//DTD SVG 1.1//EN"
 "http://www.w3.org/Graphics/SVG/1.1/DTD/svg11.dtd">
<!-- Generated by graphviz version 14.1.2 (0)
 -->
<!-- Title: PWN_MemorySkills Pages: 1 -->
<svg width="1022pt" height="600pt"
 viewBox="0.00 0.00 1022.00 600.00" xmlns="http://www.w3.org/2000/svg" xmlns:xlink="http://www.w3.org/1999/xlink">
<g id="graph0" class="graph" transform="scale(1 1) rotate(0) translate(43.2 556.45)">
<title>PWN_MemorySkills</title>
<polygon fill="#0f172a" stroke="none" points="-43.2,43.2 -43.2,-556.45 979.06,-556.45 979.06,43.2 -43.2,43.2"/>
<text xml:space="preserve" text-anchor="start" x="125.18" y="-491.25" font-family="Helvetica,sans-Serif" font-weight="bold" font-size="20.00" fill="#e2e8f0">Persistent Knowledge — Memory · Skills · Learning · Mistakes · Sessions</text>
<text xml:space="preserve" text-anchor="start" x="342.68" y="-479.8" font-family="Helvetica,sans-Serif" font-size="11.00" fill="#94a3b8">everything under ~/.pwn/ that shapes future prompts</text>
<g id="clust1" class="cluster">
<title>cluster_write</title>
<path fill="#022c22" stroke="#047857" d="M20,-383C20,-383 691,-383 691,-383 697,-383 703,-389 703,-395 703,-395 703,-454.25 703,-454.25 703,-460.25 697,-466.25 691,-466.25 691,-466.25 20,-466.25 20,-466.25 14,-466.25 8,-460.25 8,-454.25 8,-454.25 8,-395 8,-395 8,-389 14,-383 20,-383"/>
<text xml:space="preserve" text-anchor="middle" x="355.5" y="-443.25" font-family="Helvetica,sans-Serif" font-size="20.00" fill="#a7f3d0">Write&#45;Side Tools</text>
</g>
<g id="clust3" class="cluster">
<title>cluster_files</title>
<path fill="#422006" stroke="#a16207" d="M45,-232.75C45,-232.75 728,-232.75 728,-232.75 734,-232.75 740,-238.75 740,-244.75 740,-244.75 740,-312 740,-312 740,-318 734,-324 728,-324 728,-324 45,-324 45,-324 39,-324 33,-318 33,-312 33,-312 33,-244.75 33,-244.75 33,-238.75 39,-232.75 45,-232.75"/>
<text xml:space="preserve" text-anchor="middle" x="386.5" y="-301" font-family="Helvetica,sans-Serif" font-size="20.00" fill="#fde68a">~/.pwn/</text>
</g>
<g id="clust5" class="cluster">
<title>cluster_read</title>
<path fill="#2e1065" stroke="#6d28d9" d="M51,-114.5C51,-114.5 631,-114.5 631,-114.5 637,-114.5 643,-120.5 643,-126.5 643,-126.5 643,-185.75 643,-185.75 643,-191.75 637,-197.75 631,-197.75 631,-197.75 51,-197.75 51,-197.75 45,-197.75 39,-191.75 39,-185.75 39,-185.75 39,-126.5 39,-126.5 39,-120.5 45,-114.5 51,-114.5"/>
<text xml:space="preserve" text-anchor="middle" x="341" y="-174.75" font-family="Helvetica,sans-Serif" font-size="20.00" fill="#ddd6fe">Read&#45;Side / Injection</text>
</g>
<!-- Rem -->
<g id="node1" class="node">
<title>Rem</title>
<path fill="#6ee7b7" stroke="#334155" stroke-width="1.3" d="M683.25,-427C683.25,-427 596.75,-427 596.75,-427 590.75,-427 584.75,-421 584.75,-415 584.75,-415 584.75,-403 584.75,-403 584.75,-397 590.75,-391 596.75,-391 596.75,-391 683.25,-391 683.25,-391 689.25,-391 695.25,-397 695.25,-403 695.25,-403 695.25,-415 695.25,-415 695.25,-421 689.25,-427 683.25,-427"/>
<text xml:space="preserve" text-anchor="middle" x="640" y="-411.5" font-family="Helvetica,sans-Serif" font-size="10.00" fill="#0f172a">memory_remember</text>
<text xml:space="preserve" text-anchor="middle" x="640" y="-399.5" font-family="Helvetica,sans-Serif" font-size="10.00" fill="#0f172a">key · value · category</text>
</g>
<!-- Fmem -->
<g id="node6" class="node">
<title>Fmem</title>
<path fill="#fcd34d" stroke="#334155" stroke-width="1.3" d="M732.12,-280.75C732.12,-282.96 705.18,-284.75 672,-284.75 638.82,-284.75 611.88,-282.96 611.88,-280.75 611.88,-280.75 611.88,-244.75 611.88,-244.75 611.88,-242.54 638.82,-240.75 672,-240.75 705.18,-240.75 732.12,-242.54 732.12,-244.75 732.12,-244.75 732.12,-280.75 732.12,-280.75"/>
<path fill="none" stroke="#334155" stroke-width="1.3" d="M732.12,-280.75C732.12,-278.54 705.18,-276.75 672,-276.75 638.82,-276.75 611.88,-278.54 611.88,-280.75"/>
<text xml:space="preserve" text-anchor="middle" x="672" y="-265.25" font-family="Helvetica,sans-Serif" font-size="10.00" fill="#0f172a">memory.json</text>
<text xml:space="preserve" text-anchor="middle" x="672" y="-253.25" font-family="Helvetica,sans-Serif" font-size="10.00" fill="#0f172a">fact · pref · lesson · env</text>
</g>
<!-- Rem&#45;&gt;Fmem -->
<g id="edge1" class="edge">
<title>Rem&#45;&gt;Fmem</title>
<path fill="none" stroke="#f59e0b" stroke-width="1.3" d="M643.86,-390.6C649.15,-366.77 658.72,-323.6 665.22,-294.31"/>
<polygon fill="#f59e0b" stroke="#f59e0b" stroke-width="1.3" points="667.87,-295.29 666.87,-286.88 662.4,-294.08 667.87,-295.29"/>
</g>
<!-- Skc -->
<g id="node2" class="node">
<title>Skc</title>
<path fill="#6ee7b7" stroke="#334155" stroke-width="1.3" d="M260,-427C260,-427 184,-427 184,-427 178,-427 172,-421 172,-415 172,-415 172,-403 172,-403 172,-397 178,-391 184,-391 184,-391 260,-391 260,-391 266,-391 272,-397 272,-403 272,-403 272,-415 272,-415 272,-421 266,-427 260,-427"/>
<text xml:space="preserve" text-anchor="middle" x="222" y="-411.5" font-family="Helvetica,sans-Serif" font-size="10.00" fill="#0f172a">skill_create</text>
<text xml:space="preserve" text-anchor="middle" x="222" y="-399.5" font-family="Helvetica,sans-Serif" font-size="10.00" fill="#0f172a">skill_add_reference</text>
</g>
<!-- Fskl -->
<g id="node7" class="node">
<title>Fskl</title>
<path fill="#fcd34d" stroke="#334155" stroke-width="1.3" d="M267.75,-280.75C267.75,-282.96 242.31,-284.75 211,-284.75 179.69,-284.75 154.25,-282.96 154.25,-280.75 154.25,-280.75 154.25,-244.75 154.25,-244.75 154.25,-242.54 179.69,-240.75 211,-240.75 242.31,-240.75 267.75,-242.54 267.75,-244.75 267.75,-244.75 267.75,-280.75 267.75,-280.75"/>
<path fill="none" stroke="#334155" stroke-width="1.3" d="M267.75,-280.75C267.75,-278.54 242.31,-276.75 211,-276.75 179.69,-276.75 154.25,-278.54 154.25,-280.75"/>
<text xml:space="preserve" text-anchor="middle" x="211" y="-265.25" font-family="Helvetica,sans-Serif" font-size="10.00" fill="#0f172a">skills/*.md</text>
<text xml:space="preserve" text-anchor="middle" x="211" y="-253.25" font-family="Helvetica,sans-Serif" font-size="10.00" fill="#0f172a">YAML front&#45;matter refs</text>
</g>
<!-- Skc&#45;&gt;Fskl -->
<g id="edge2" class="edge">
<title>Skc&#45;&gt;Fskl</title>
<path fill="none" stroke="#f59e0b" stroke-width="1.3" d="M220.67,-390.6C218.86,-366.87 215.59,-323.97 213.36,-294.69"/>
<polygon fill="#f59e0b" stroke="#f59e0b" stroke-width="1.3" points="216.17,-294.68 212.77,-286.92 210.58,-295.11 216.17,-294.68"/>
</g>
<!-- Note -->
<g id="node3" class="node">
<title>Note</title>
<path fill="#6ee7b7" stroke="#334155" stroke-width="1.3" d="M120.25,-427C120.25,-427 27.75,-427 27.75,-427 21.75,-427 15.75,-421 15.75,-415 15.75,-415 15.75,-403 15.75,-403 15.75,-397 21.75,-391 27.75,-391 27.75,-391 120.25,-391 120.25,-391 126.25,-391 132.25,-397 132.25,-403 132.25,-403 132.25,-415 132.25,-415 132.25,-421 126.25,-427 120.25,-427"/>
<text xml:space="preserve" text-anchor="middle" x="74" y="-411.5" font-family="Helvetica,sans-Serif" font-size="10.00" fill="#0f172a">learning_note_outcome</text>
<text xml:space="preserve" text-anchor="middle" x="74" y="-399.5" font-family="Helvetica,sans-Serif" font-size="10.00" fill="#0f172a">learning_reflect</text>
</g>
<!-- Flrn -->
<g id="node8" class="node">
<title>Flrn</title>
<path fill="#fcd34d" stroke="#334155" stroke-width="1.3" d="M114.5,-280.75C114.5,-282.96 98.14,-284.75 78,-284.75 57.86,-284.75 41.5,-282.96 41.5,-280.75 41.5,-280.75 41.5,-244.75 41.5,-244.75 41.5,-242.54 57.86,-240.75 78,-240.75 98.14,-240.75 114.5,-242.54 114.5,-244.75 114.5,-244.75 114.5,-280.75 114.5,-280.75"/>
<path fill="none" stroke="#334155" stroke-width="1.3" d="M114.5,-280.75C114.5,-278.54 98.14,-276.75 78,-276.75 57.86,-276.75 41.5,-278.54 41.5,-280.75"/>
<text xml:space="preserve" text-anchor="middle" x="78" y="-265.25" font-family="Helvetica,sans-Serif" font-size="10.00" fill="#0f172a">learning.jsonl</text>
<text xml:space="preserve" text-anchor="middle" x="78" y="-253.25" font-family="Helvetica,sans-Serif" font-size="10.00" fill="#0f172a">outcome log</text>
</g>
<!-- Note&#45;&gt;Flrn -->
<g id="edge3" class="edge">
<title>Note&#45;&gt;Flrn</title>
<path fill="none" stroke="#f59e0b" stroke-width="1.3" d="M74.48,-390.6C75.14,-366.87 76.33,-323.97 77.14,-294.69"/>
<polygon fill="#f59e0b" stroke="#f59e0b" stroke-width="1.3" points="79.93,-295 77.36,-286.92 74.34,-294.84 79.93,-295"/>
</g>
<!-- Dist -->
<g id="node4" class="node">
<title>Dist</title>
<path fill="#6ee7b7" stroke="#334155" stroke-width="1.3" d="M400,-427C400,-427 324,-427 324,-427 318,-427 312,-421 312,-415 312,-415 312,-403 312,-403 312,-397 318,-391 324,-391 324,-391 400,-391 400,-391 406,-391 412,-397 412,-403 412,-403 412,-415 412,-415 412,-421 406,-427 400,-427"/>
<text xml:space="preserve" text-anchor="middle" x="362" y="-411.5" font-family="Helvetica,sans-Serif" font-size="10.00" fill="#0f172a">learning_distill_skill</text>
<text xml:space="preserve" text-anchor="middle" x="362" y="-399.5" font-family="Helvetica,sans-Serif" font-size="10.00" fill="#0f172a">(session → skill)</text>
</g>
<!-- Dist&#45;&gt;Fskl -->
<g id="edge4" class="edge">
<title>Dist&#45;&gt;Fskl</title>
<path fill="none" stroke="#f59e0b" stroke-width="1.3" d="M343.79,-390.6C318.15,-366.11 271.14,-321.2 240.49,-291.92"/>
<polygon fill="#f59e0b" stroke="#f59e0b" stroke-width="1.3" points="242.59,-290.06 234.88,-286.56 238.73,-294.11 242.59,-290.06"/>
</g>
<!-- Fses -->
<g id="node9" class="node">
<title>Fses</title>
<path fill="#fcd34d" stroke="#334155" stroke-width="1.3" d="M392.5,-280.75C392.5,-282.96 373.45,-284.75 350,-284.75 326.55,-284.75 307.5,-282.96 307.5,-280.75 307.5,-280.75 307.5,-244.75 307.5,-244.75 307.5,-242.54 326.55,-240.75 350,-240.75 373.45,-240.75 392.5,-242.54 392.5,-244.75 392.5,-244.75 392.5,-280.75 392.5,-280.75"/>
<path fill="none" stroke="#334155" stroke-width="1.3" d="M392.5,-280.75C392.5,-278.54 373.45,-276.75 350,-276.75 326.55,-276.75 307.5,-278.54 307.5,-280.75"/>
<text xml:space="preserve" text-anchor="middle" x="350" y="-265.25" font-family="Helvetica,sans-Serif" font-size="10.00" fill="#0f172a">sessions/*.jsonl</text>
<text xml:space="preserve" text-anchor="middle" x="350" y="-253.25" font-family="Helvetica,sans-Serif" font-size="10.00" fill="#0f172a">transcripts</text>
</g>
<!-- Dist&#45;&gt;Fses -->
<g id="edge5" class="edge">
<title>Dist&#45;&gt;Fses</title>
<path fill="none" stroke="#fbbf24" stroke-width="1.3" stroke-dasharray="5,2" d="M359.73,-380.73C357.42,-352.92 353.88,-310.34 351.76,-284.96"/>
<polygon fill="#fbbf24" stroke="#fbbf24" stroke-width="1.3" points="356.94,-380.9 360.39,-388.64 362.52,-380.43 356.94,-380.9"/>
<text xml:space="preserve" text-anchor="middle" x="367.2" y="-339.2" font-family="Helvetica,sans-Serif" font-size="9.00" fill="#cbd5e1">mine</text>
</g>
<!-- Mrec -->
<g id="node5" class="node">
<title>Mrec</title>
<path fill="#6ee7b7" stroke="#334155" stroke-width="1.3" d="M532.25,-427C532.25,-427 463.75,-427 463.75,-427 457.75,-427 451.75,-421 451.75,-415 451.75,-415 451.75,-403 451.75,-403 451.75,-397 457.75,-391 463.75,-391 463.75,-391 532.25,-391 532.25,-391 538.25,-391 544.25,-397 544.25,-403 544.25,-403 544.25,-415 544.25,-415 544.25,-421 538.25,-427 532.25,-427"/>
<text xml:space="preserve" text-anchor="middle" x="498" y="-411.5" font-family="Helvetica,sans-Serif" font-size="10.00" fill="#0f172a">mistakes_record</text>
<text xml:space="preserve" text-anchor="middle" x="498" y="-399.5" font-family="Helvetica,sans-Serif" font-size="10.00" fill="#0f172a">mistakes_resolve</text>
</g>
<!-- Mrec&#45;&gt;Fmem -->
<g id="edge7" class="edge">
<title>Mrec&#45;&gt;Fmem</title>
<path fill="none" stroke="#fbbf24" stroke-width="1.3" stroke-dasharray="5,2" d="M513.46,-390.57C528.59,-374.16 552.82,-349.56 577,-332 583.11,-327.56 585.63,-328.06 592,-324 607.56,-314.07 623.98,-302.02 637.86,-291.31"/>
<polygon fill="#fbbf24" stroke="#fbbf24" stroke-width="1.3" points="639.57,-293.52 644.16,-286.39 636.13,-289.1 639.57,-293.52"/>
<text xml:space="preserve" text-anchor="middle" x="610" y="-339.2" font-family="Helvetica,sans-Serif" font-size="9.00" fill="#cbd5e1">resolve→lesson</text>
</g>
<!-- Fmis -->
<g id="node10" class="node">
<title>Fmis</title>
<path fill="#fcd34d" stroke="#334155" stroke-width="1.3" d="M571.88,-280.75C571.88,-282.96 540.56,-284.75 502,-284.75 463.44,-284.75 432.12,-282.96 432.12,-280.75 432.12,-280.75 432.12,-244.75 432.12,-244.75 432.12,-242.54 463.44,-240.75 502,-240.75 540.56,-240.75 571.88,-242.54 571.88,-244.75 571.88,-244.75 571.88,-280.75 571.88,-280.75"/>
<path fill="none" stroke="#334155" stroke-width="1.3" d="M571.88,-280.75C571.88,-278.54 540.56,-276.75 502,-276.75 463.44,-276.75 432.12,-278.54 432.12,-280.75"/>
<text xml:space="preserve" text-anchor="middle" x="502" y="-265.25" font-family="Helvetica,sans-Serif" font-size="10.00" fill="#0f172a">mistakes.json</text>
<text xml:space="preserve" text-anchor="middle" x="502" y="-253.25" font-family="Helvetica,sans-Serif" font-size="10.00" fill="#0f172a">sig → count · fix · regressed</text>
</g>
<!-- Mrec&#45;&gt;Fmis -->
<g id="edge6" class="edge">
<title>Mrec&#45;&gt;Fmis</title>
<path fill="none" stroke="#f59e0b" stroke-width="1.3" d="M498.48,-390.6C499.14,-366.87 500.33,-323.97 501.14,-294.69"/>
<polygon fill="#f59e0b" stroke="#f59e0b" stroke-width="1.3" points="503.93,-295 501.36,-286.92 498.34,-294.84 503.93,-295"/>
</g>
<!-- Rec -->
<g id="node11" class="node">
<title>Rec</title>
<path fill="#c4b5fd" stroke="#334155" stroke-width="1.3" d="M622.88,-158.5C622.88,-158.5 567.12,-158.5 567.12,-158.5 561.12,-158.5 555.12,-152.5 555.12,-146.5 555.12,-146.5 555.12,-134.5 555.12,-134.5 555.12,-128.5 561.12,-122.5 567.12,-122.5 567.12,-122.5 622.88,-122.5 622.88,-122.5 628.88,-122.5 634.88,-128.5 634.88,-134.5 634.88,-134.5 634.88,-146.5 634.88,-146.5 634.88,-152.5 628.88,-158.5 622.88,-158.5"/>
<text xml:space="preserve" text-anchor="middle" x="595" y="-137" font-family="Helvetica,sans-Serif" font-size="10.00" fill="#0f172a">memory_recall</text>
</g>
<!-- Fmem&#45;&gt;Rec -->
<g id="edge8" class="edge">
<title>Fmem&#45;&gt;Rec</title>
<path fill="none" stroke="#a78bfa" stroke-width="1.3" d="M658.23,-240.25C645.1,-219.74 625.3,-188.82 611.36,-167.05"/>
<polygon fill="#a78bfa" stroke="#a78bfa" stroke-width="1.3" points="613.88,-165.8 607.21,-160.57 609.17,-168.82 613.88,-165.8"/>
</g>
<!-- ReVal -->
<g id="node17" class="node">
<title>ReVal</title>
<path fill="#fcd34d" stroke="#334155" stroke-width="1.3" d="M903.12,-431C903.12,-431 800.88,-431 800.88,-431 794.88,-431 788.88,-425 788.88,-419 788.88,-419 788.88,-399 788.88,-399 788.88,-393 794.88,-387 800.88,-387 800.88,-387 903.12,-387 903.12,-387 909.12,-387 915.12,-393 915.12,-399 915.12,-399 915.12,-419 915.12,-419 915.12,-425 909.12,-431 903.12,-431"/>
<text xml:space="preserve" text-anchor="middle" x="852" y="-417.5" font-family="Helvetica,sans-Serif" font-size="10.00" fill="#0f172a">Extrospection.verify</text>
<text xml:space="preserve" text-anchor="middle" x="852" y="-405.5" font-family="Helvetica,sans-Serif" font-size="10.00" fill="#0f172a">revalidate_memory (cron)</text>
<text xml:space="preserve" text-anchor="middle" x="852" y="-393.5" font-family="Helvetica,sans-Serif" font-size="10.00" fill="#0f172a">browser&#45;backed GC</text>
</g>
<!-- Fmem&#45;&gt;ReVal -->
<g id="edge19" class="edge">
<title>Fmem&#45;&gt;ReVal</title>
<path fill="none" stroke="#94a3b8" stroke-width="1.3" stroke-dasharray="5,2" d="M677,-285.21C682.68,-305.19 693.78,-334.58 713.25,-353 731.53,-370.29 755.91,-382.38 779.12,-390.72"/>
<polygon fill="#94a3b8" stroke="#94a3b8" stroke-width="1.3" points="777.95,-393.28 786.43,-393.21 779.76,-387.98 777.95,-393.28"/>
<text xml:space="preserve" text-anchor="middle" x="755.62" y="-339.2" font-family="Helvetica,sans-Serif" font-size="9.00" fill="#cbd5e1">:fact w/ CVE|ver|URL</text>
</g>
<!-- Skv -->
<g id="node12" class="node">
<title>Skv</title>
<path fill="#c4b5fd" stroke="#334155" stroke-width="1.3" d="M253.25,-158.5C253.25,-158.5 196.75,-158.5 196.75,-158.5 190.75,-158.5 184.75,-152.5 184.75,-146.5 184.75,-146.5 184.75,-134.5 184.75,-134.5 184.75,-128.5 190.75,-122.5 196.75,-122.5 196.75,-122.5 253.25,-122.5 253.25,-122.5 259.25,-122.5 265.25,-128.5 265.25,-134.5 265.25,-134.5 265.25,-146.5 265.25,-146.5 265.25,-152.5 259.25,-158.5 253.25,-158.5"/>
<text xml:space="preserve" text-anchor="middle" x="225" y="-137" font-family="Helvetica,sans-Serif" font-size="10.00" fill="#0f172a">skill_list · view</text>
</g>
<!-- Fskl&#45;&gt;Skv -->
<g id="edge9" class="edge">
<title>Fskl&#45;&gt;Skv</title>
<path fill="none" stroke="#a78bfa" stroke-width="1.3" d="M213.5,-240.25C215.83,-220.28 219.3,-190.45 221.82,-168.8"/>
<polygon fill="#a78bfa" stroke="#a78bfa" stroke-width="1.3" points="224.6,-169.14 222.75,-160.87 219.04,-168.49 224.6,-169.14"/>
</g>
<!-- Out -->
<g id="node13" class="node">
<title>Out</title>
<path fill="#c4b5fd" stroke="#334155" stroke-width="1.3" d="M132.88,-158.5C132.88,-158.5 59.12,-158.5 59.12,-158.5 53.12,-158.5 47.12,-152.5 47.12,-146.5 47.12,-146.5 47.12,-134.5 47.12,-134.5 47.12,-128.5 53.12,-122.5 59.12,-122.5 59.12,-122.5 132.88,-122.5 132.88,-122.5 138.88,-122.5 144.88,-128.5 144.88,-134.5 144.88,-134.5 144.88,-146.5 144.88,-146.5 144.88,-152.5 138.88,-158.5 132.88,-158.5"/>
<text xml:space="preserve" text-anchor="middle" x="96" y="-143" font-family="Helvetica,sans-Serif" font-size="10.00" fill="#0f172a">learning_outcomes</text>
<text xml:space="preserve" text-anchor="middle" x="96" y="-131" font-family="Helvetica,sans-Serif" font-size="10.00" fill="#0f172a">learning_stats</text>
</g>
<!-- Flrn&#45;&gt;Out -->
<g id="edge10" class="edge">
<title>Flrn&#45;&gt;Out</title>
<path fill="none" stroke="#a78bfa" stroke-width="1.3" d="M81.22,-240.25C84.22,-220.19 88.71,-190.18 91.96,-168.51"/>
<polygon fill="#a78bfa" stroke="#a78bfa" stroke-width="1.3" points="94.69,-169.19 93.1,-160.86 89.15,-168.36 94.69,-169.19"/>
</g>
<!-- Sesv -->
<g id="node14" class="node">
<title>Sesv</title>
<path fill="#c4b5fd" stroke="#334155" stroke-width="1.3" d="M383.12,-158.5C383.12,-158.5 316.88,-158.5 316.88,-158.5 310.88,-158.5 304.88,-152.5 304.88,-146.5 304.88,-146.5 304.88,-134.5 304.88,-134.5 304.88,-128.5 310.88,-122.5 316.88,-122.5 316.88,-122.5 383.12,-122.5 383.12,-122.5 389.12,-122.5 395.12,-128.5 395.12,-134.5 395.12,-134.5 395.12,-146.5 395.12,-146.5 395.12,-152.5 389.12,-158.5 383.12,-158.5"/>
<text xml:space="preserve" text-anchor="middle" x="350" y="-143" font-family="Helvetica,sans-Serif" font-size="10.00" fill="#0f172a">sessions_view</text>
<text xml:space="preserve" text-anchor="middle" x="350" y="-131" font-family="Helvetica,sans-Serif" font-size="10.00" fill="#0f172a">sessions_current</text>
</g>
<!-- Fses&#45;&gt;Sesv -->
<g id="edge11" class="edge">
<title>Fses&#45;&gt;Sesv</title>
<path fill="none" stroke="#a78bfa" stroke-width="1.3" d="M350,-240.25C350,-220.28 350,-190.45 350,-168.8"/>
<polygon fill="#a78bfa" stroke="#a78bfa" stroke-width="1.3" points="352.8,-168.88 350,-160.88 347.2,-168.88 352.8,-168.88"/>
</g>
<!-- Mlst -->
<g id="node15" class="node">
<title>Mlst</title>
<path fill="#c4b5fd" stroke="#334155" stroke-width="1.3" d="M502.88,-158.5C502.88,-158.5 447.12,-158.5 447.12,-158.5 441.12,-158.5 435.12,-152.5 435.12,-146.5 435.12,-146.5 435.12,-134.5 435.12,-134.5 435.12,-128.5 441.12,-122.5 447.12,-122.5 447.12,-122.5 502.88,-122.5 502.88,-122.5 508.88,-122.5 514.88,-128.5 514.88,-134.5 514.88,-134.5 514.88,-146.5 514.88,-146.5 514.88,-152.5 508.88,-158.5 502.88,-158.5"/>
<text xml:space="preserve" text-anchor="middle" x="475" y="-143" font-family="Helvetica,sans-Serif" font-size="10.00" fill="#0f172a">mistakes_list</text>
<text xml:space="preserve" text-anchor="middle" x="475" y="-131" font-family="Helvetica,sans-Serif" font-size="10.00" fill="#0f172a">correction_hint</text>
</g>
<!-- Fmis&#45;&gt;Mlst -->
<g id="edge12" class="edge">
<title>Fmis&#45;&gt;Mlst</title>
<path fill="none" stroke="#a78bfa" stroke-width="1.3" d="M497.17,-240.25C492.67,-220.19 485.93,-190.18 481.06,-168.51"/>
<polygon fill="#a78bfa" stroke="#a78bfa" stroke-width="1.3" points="483.83,-168.03 479.34,-160.83 478.36,-169.25 483.83,-168.03"/>
</g>
<!-- Prompt -->
<g id="node16" class="node">
<title>Prompt</title>
<path fill="#7dd3fc" stroke="#334155" stroke-width="2" d="M436.75,-44C436.75,-44 263.25,-44 263.25,-44 257.25,-44 251.25,-38 251.25,-32 251.25,-32 251.25,-12 251.25,-12 251.25,-6 257.25,0 263.25,0 263.25,0 436.75,0 436.75,0 442.75,0 448.75,-6 448.75,-12 448.75,-12 448.75,-32 448.75,-32 448.75,-38 442.75,-44 436.75,-44"/>
<text xml:space="preserve" text-anchor="middle" x="350" y="-30.5" font-family="Helvetica,sans-Serif" font-size="10.00" fill="#0f172a">PromptBuilder</text>
<text xml:space="preserve" text-anchor="middle" x="350" y="-18.5" font-family="Helvetica,sans-Serif" font-size="10.00" fill="#0f172a">MEMORY + SKILLS + LEARNING</text>
<text xml:space="preserve" text-anchor="middle" x="350" y="-6.5" font-family="Helvetica,sans-Serif" font-size="10.00" fill="#0f172a">+ KNOWN MISTAKES / KNOWN FIXES</text>
</g>
<!-- Rec&#45;&gt;Prompt -->
<g id="edge13" class="edge">
<title>Rec&#45;&gt;Prompt</title>
<path fill="none" stroke="#38bdf8" stroke-width="1.3" d="M568.01,-122.12C547.17,-109.09 517.37,-91.29 490,-78 468.01,-67.32 443.39,-57.1 420.99,-48.43"/>
<polygon fill="#38bdf8" stroke="#38bdf8" stroke-width="1.3" points="422.18,-45.89 413.71,-45.64 420.18,-51.11 422.18,-45.89"/>
</g>
<!-- Skv&#45;&gt;Prompt -->
<g id="edge14" class="edge">
<title>Skv&#45;&gt;Prompt</title>
<path fill="none" stroke="#38bdf8" stroke-width="1.3" d="M243.71,-122.06C263.71,-103.42 295.73,-73.58 319.4,-51.52"/>
<polygon fill="#38bdf8" stroke="#38bdf8" stroke-width="1.3" points="321.08,-53.78 325.02,-46.28 317.26,-49.69 321.08,-53.78"/>
</g>
<!-- Out&#45;&gt;Prompt -->
<g id="edge15" class="edge">
<title>Out&#45;&gt;Prompt</title>
<path fill="none" stroke="#38bdf8" stroke-width="1.3" d="M134.3,-121.93C176.57,-102.54 245.03,-71.15 293.47,-48.93"/>
<polygon fill="#38bdf8" stroke="#38bdf8" stroke-width="1.3" points="294.38,-51.59 300.49,-45.71 292.05,-46.5 294.38,-51.59"/>
</g>
<!-- Sesv&#45;&gt;Prompt -->
<g id="edge16" class="edge">
<title>Sesv&#45;&gt;Prompt</title>
<path fill="none" stroke="#38bdf8" stroke-width="1.3" d="M350,-122.06C350,-104.3 350,-76.39 350,-54.71"/>
<polygon fill="#38bdf8" stroke="#38bdf8" stroke-width="1.3" points="352.8,-54.91 350,-46.91 347.2,-54.91 352.8,-54.91"/>
</g>
<!-- Mlst&#45;&gt;Prompt -->
<g id="edge17" class="edge">
<title>Mlst&#45;&gt;Prompt</title>
<path fill="none" stroke="#fb7185" stroke-width="2" d="M456.29,-122.06C436.55,-103.66 405.1,-74.35 381.52,-52.38"/>
<polygon fill="#fb7185" stroke="#fb7185" stroke-width="2" points="383.52,-50.41 375.76,-47 379.7,-54.51 383.52,-50.41"/>
<text xml:space="preserve" text-anchor="middle" x="449.98" y="-79.95" font-family="Helvetica,sans-Serif" font-size="9.00" fill="#cbd5e1">do NOT repeat</text>
</g>
<!-- ReVal&#45;&gt;Fmem -->
<g id="edge18" class="edge">
<title>ReVal&#45;&gt;Fmem</title>
<path fill="none" stroke="#fb7185" stroke-width="2" stroke-dasharray="5,2" d="M843.58,-386.42C836.24,-369.84 824.2,-347.26 808,-332 788.4,-313.53 762.84,-298.95 739.18,-288.09"/>
<polygon fill="#fb7185" stroke="#fb7185" stroke-width="2" points="740.4,-285.57 731.95,-284.89 738.13,-290.69 740.4,-285.57"/>
<text xml:space="preserve" text-anchor="middle" x="880.36" y="-344.45" font-family="Helvetica,sans-Serif" font-size="9.00" fill="#cbd5e1">[UNVERIFIED yyyy&#45;mm&#45;dd]</text>
<text xml:space="preserve" text-anchor="middle" x="880.36" y="-333.95" font-family="Helvetica,sans-Serif" font-size="9.00" fill="#cbd5e1">prefix stale :fact</text>
</g>
</g>
</svg>
