<?xml version="1.0" encoding="UTF-8" standalone="no"?>
<!DOCTYPE svg PUBLIC "-//W3C//DTD SVG 1.1//EN"
 "http://www.w3.org/Graphics/SVG/1.1/DTD/svg11.dtd">
<!-- Generated by graphviz version 14.1.2 (0)
 -->
<!-- Title: PWN_MemorySkills Pages: 1 -->
<svg width="1882pt" height="752pt"
 viewBox="0.00 0.00 1882.00 752.00" xmlns="http://www.w3.org/2000/svg" xmlns:xlink="http://www.w3.org/1999/xlink">
<g id="graph0" class="graph" transform="scale(1 1) rotate(0) translate(43.2 709.2)">
<title>PWN_MemorySkills</title>
<polygon fill="#0f172a" stroke="none" points="-43.2,43.2 -43.2,-709.2 1838.83,-709.2 1838.83,43.2 -43.2,43.2"/>
<text xml:space="preserve" text-anchor="start" x="524.69" y="-644" font-family="sans-Serif" font-weight="bold" font-size="20.00" fill="#e2e8f0">Persistent Knowledge &#45; Memory · Skills · Learning · Mistakes · Policy · Sessions</text>
<text xml:space="preserve" text-anchor="start" x="772.56" y="-632.55" font-family="sans-Serif" font-size="11.00" fill="#94a3b8">everything under ~/.pwn/ that shapes future prompts</text>
<g id="clust1" class="cluster">
<title>cluster_write</title>
<path fill="#022c22" stroke="#047857" d="M20,-504.5C20,-504.5 1226,-504.5 1226,-504.5 1232,-504.5 1238,-510.5 1238,-516.5 1238,-516.5 1238,-607 1238,-607 1238,-613 1232,-619 1226,-619 1226,-619 20,-619 20,-619 14,-619 8,-613 8,-607 8,-607 8,-516.5 8,-516.5 8,-510.5 14,-504.5 20,-504.5"/>
<text xml:space="preserve" text-anchor="middle" x="623" y="-596" font-family="sans-Serif" font-size="20.00" fill="#a7f3d0">Write&#45;Side Tools</text>
</g>
<g id="clust3" class="cluster">
<title>cluster_files</title>
<path fill="#422006" stroke="#a16207" d="M135,-306.5C135,-306.5 1705,-306.5 1705,-306.5 1711,-306.5 1717,-312.5 1717,-318.5 1717,-318.5 1717,-433.5 1717,-433.5 1717,-439.5 1711,-445.5 1705,-445.5 1705,-445.5 135,-445.5 135,-445.5 129,-445.5 123,-439.5 123,-433.5 123,-433.5 123,-318.5 123,-318.5 123,-312.5 129,-306.5 135,-306.5"/>
<text xml:space="preserve" text-anchor="middle" x="920" y="-422.5" font-family="sans-Serif" font-size="20.00" fill="#fde68a">~/.pwn/</text>
</g>
<g id="clust5" class="cluster">
<title>cluster_read</title>
<path fill="#2e1065" stroke="#6d28d9" d="M386,-149C386,-149 1402,-149 1402,-149 1408,-149 1414,-155 1414,-161 1414,-161 1414,-259.5 1414,-259.5 1414,-265.5 1408,-271.5 1402,-271.5 1402,-271.5 386,-271.5 386,-271.5 380,-271.5 374,-265.5 374,-259.5 374,-259.5 374,-161 374,-161 374,-155 380,-149 386,-149"/>
<text xml:space="preserve" text-anchor="middle" x="894" y="-248.5" font-family="sans-Serif" font-size="20.00" fill="#ddd6fe">Read&#45;Side / Injection</text>
</g>
<!-- Rem -->
<g id="node1" class="node">
<title>Rem</title>
<path fill="#6ee7b7" stroke="#334155" stroke-width="1.3" d="M1034.5,-548.5C1034.5,-548.5 931.5,-548.5 931.5,-548.5 925.5,-548.5 919.5,-542.5 919.5,-536.5 919.5,-536.5 919.5,-524.5 919.5,-524.5 919.5,-518.5 925.5,-512.5 931.5,-512.5 931.5,-512.5 1034.5,-512.5 1034.5,-512.5 1040.5,-512.5 1046.5,-518.5 1046.5,-524.5 1046.5,-524.5 1046.5,-536.5 1046.5,-536.5 1046.5,-542.5 1040.5,-548.5 1034.5,-548.5"/>
<text xml:space="preserve" text-anchor="middle" x="983" y="-533" font-family="sans-Serif" font-size="10.00" fill="#0f172a">memory_remember · lean</text>
<text xml:space="preserve" text-anchor="middle" x="983" y="-521" font-family="sans-Serif" font-size="10.00" fill="#0f172a">key · value · category</text>
</g>
<!-- Fmem -->
<g id="node9" class="node">
<title>Fmem</title>
<path fill="#fcd34d" stroke="#334155" stroke-width="1.3" d="M1343.12,-362.75C1343.12,-364.96 1316.18,-366.75 1283,-366.75 1249.82,-366.75 1222.88,-364.96 1222.88,-362.75 1222.88,-362.75 1222.88,-326.75 1222.88,-326.75 1222.88,-324.54 1249.82,-322.75 1283,-322.75 1316.18,-322.75 1343.12,-324.54 1343.12,-326.75 1343.12,-326.75 1343.12,-362.75 1343.12,-362.75"/>
<path fill="none" stroke="#334155" stroke-width="1.3" d="M1343.12,-362.75C1343.12,-360.54 1316.18,-358.75 1283,-358.75 1249.82,-358.75 1222.88,-360.54 1222.88,-362.75"/>
<text xml:space="preserve" text-anchor="middle" x="1283" y="-347.25" font-family="sans-Serif" font-size="10.00" fill="#0f172a">memory.json</text>
<text xml:space="preserve" text-anchor="middle" x="1283" y="-335.25" font-family="sans-Serif" font-size="10.00" fill="#0f172a">fact · pref · lesson · env</text>
</g>
<!-- Rem&#45;&gt;Fmem -->
<g id="edge1" class="edge">
<title>Rem&#45;&gt;Fmem</title>
<path fill="none" stroke="#f59e0b" stroke-width="1.3" d="M1014.36,-511.95C1050.88,-491.8 1109.23,-460.63 1133,-453.5 1162.99,-444.5 1175.58,-460.63 1203,-445.5 1231.78,-429.62 1254.03,-398.73 1267.68,-375.52"/>
<polygon fill="#f59e0b" stroke="#f59e0b" stroke-width="1.3" points="1270,-377.09 1271.51,-368.75 1265.13,-374.33 1270,-377.09"/>
</g>
<!-- Fidx -->
<g id="node10" class="node">
<title>Fidx</title>
<path fill="#fcd34d" stroke="#334155" stroke-width="1.3" d="M1182.75,-369.5C1182.75,-372.53 1162.69,-375 1138,-375 1113.31,-375 1093.25,-372.53 1093.25,-369.5 1093.25,-369.5 1093.25,-320 1093.25,-320 1093.25,-316.97 1113.31,-314.5 1138,-314.5 1162.69,-314.5 1182.75,-316.97 1182.75,-320 1182.75,-320 1182.75,-369.5 1182.75,-369.5"/>
<path fill="none" stroke="#334155" stroke-width="1.3" d="M1182.75,-369.5C1182.75,-366.47 1162.69,-364 1138,-364 1113.31,-364 1093.25,-366.47 1093.25,-369.5"/>
<text xml:space="preserve" text-anchor="middle" x="1138" y="-353.25" font-family="sans-Serif" font-size="10.00" fill="#0f172a">memory.idx</text>
<text xml:space="preserve" text-anchor="middle" x="1138" y="-341.25" font-family="sans-Serif" font-size="10.00" fill="#0f172a">embedding index</text>
<text xml:space="preserve" text-anchor="middle" x="1138" y="-329.25" font-family="sans-Serif" font-size="10.00" fill="#0f172a">(sha → vec)</text>
</g>
<!-- Rem&#45;&gt;Fidx -->
<g id="edge18" class="edge">
<title>Rem&#45;&gt;Fidx</title>
<path fill="none" stroke="#fbbf24" stroke-width="1.3" stroke-dasharray="5,2" d="M988.73,-512.02C995.47,-494.34 1008.42,-467.67 1029,-453.5 1045.37,-442.22 1056.45,-456.5 1073,-445.5 1095.14,-430.78 1111.44,-405.67 1122.18,-384.33"/>
<polygon fill="#fbbf24" stroke="#fbbf24" stroke-width="1.3" points="1124.65,-385.65 1125.59,-377.23 1119.61,-383.23 1124.65,-385.65"/>
<text xml:space="preserve" text-anchor="middle" x="1053" y="-465.95" font-family="sans-Serif" font-size="9.00" fill="#cbd5e1">incremental</text>
<text xml:space="preserve" text-anchor="middle" x="1053" y="-455.45" font-family="sans-Serif" font-size="9.00" fill="#cbd5e1">re&#45;embed</text>
</g>
<!-- Skc -->
<g id="node2" class="node">
<title>Skc</title>
<path fill="#6ee7b7" stroke="#334155" stroke-width="1.3" d="M104,-548.5C104,-548.5 28,-548.5 28,-548.5 22,-548.5 16,-542.5 16,-536.5 16,-536.5 16,-524.5 16,-524.5 16,-518.5 22,-512.5 28,-512.5 28,-512.5 104,-512.5 104,-512.5 110,-512.5 116,-518.5 116,-524.5 116,-524.5 116,-536.5 116,-536.5 116,-542.5 110,-548.5 104,-548.5"/>
<text xml:space="preserve" text-anchor="middle" x="66" y="-533" font-family="sans-Serif" font-size="10.00" fill="#0f172a">skill_create</text>
<text xml:space="preserve" text-anchor="middle" x="66" y="-521" font-family="sans-Serif" font-size="10.00" fill="#0f172a">skill_add_reference</text>
</g>
<!-- Fskl -->
<g id="node11" class="node">
<title>Fskl</title>
<path fill="#fcd34d" stroke="#334155" stroke-width="1.3" d="M259.25,-369.5C259.25,-372.53 230.45,-375 195,-375 159.55,-375 130.75,-372.53 130.75,-369.5 130.75,-369.5 130.75,-320 130.75,-320 130.75,-316.97 159.55,-314.5 195,-314.5 230.45,-314.5 259.25,-316.97 259.25,-320 259.25,-320 259.25,-369.5 259.25,-369.5"/>
<path fill="none" stroke="#334155" stroke-width="1.3" d="M259.25,-369.5C259.25,-366.47 230.45,-364 195,-364 159.55,-364 130.75,-366.47 130.75,-369.5"/>
<text xml:space="preserve" text-anchor="middle" x="195" y="-353.25" font-family="sans-Serif" font-size="10.00" fill="#0f172a">skills/&lt;n&gt;/SKILL.md</text>
<text xml:space="preserve" text-anchor="middle" x="195" y="-341.25" font-family="sans-Serif" font-size="10.00" fill="#0f172a">YAML front&#45;matter + refs</text>
<text xml:space="preserve" text-anchor="middle" x="195" y="-329.25" font-family="sans-Serif" font-size="10.00" fill="#0f172a">(+ etc/default_skills seed)</text>
</g>
<!-- Skc&#45;&gt;Fskl -->
<g id="edge2" class="edge">
<title>Skc&#45;&gt;Fskl</title>
<path fill="none" stroke="#f59e0b" stroke-width="1.3" d="M78.37,-511.88C99.03,-482.45 141.02,-422.64 168.57,-383.39"/>
<polygon fill="#f59e0b" stroke="#f59e0b" stroke-width="1.3" points="170.79,-385.11 173.09,-376.96 166.2,-381.9 170.79,-385.11"/>
</g>
<!-- Note -->
<g id="node3" class="node">
<title>Note</title>
<path fill="#6ee7b7" stroke="#334155" stroke-width="1.3" d="M563.25,-548.5C563.25,-548.5 470.75,-548.5 470.75,-548.5 464.75,-548.5 458.75,-542.5 458.75,-536.5 458.75,-536.5 458.75,-524.5 458.75,-524.5 458.75,-518.5 464.75,-512.5 470.75,-512.5 470.75,-512.5 563.25,-512.5 563.25,-512.5 569.25,-512.5 575.25,-518.5 575.25,-524.5 575.25,-524.5 575.25,-536.5 575.25,-536.5 575.25,-542.5 569.25,-548.5 563.25,-548.5"/>
<text xml:space="preserve" text-anchor="middle" x="517" y="-533" font-family="sans-Serif" font-size="10.00" fill="#0f172a">learning_note_outcome</text>
<text xml:space="preserve" text-anchor="middle" x="517" y="-521" font-family="sans-Serif" font-size="10.00" fill="#0f172a">learning_reflect</text>
</g>
<!-- Flrn -->
<g id="node12" class="node">
<title>Flrn</title>
<path fill="#fcd34d" stroke="#334155" stroke-width="1.3" d="M684.5,-362.75C684.5,-364.96 668.14,-366.75 648,-366.75 627.86,-366.75 611.5,-364.96 611.5,-362.75 611.5,-362.75 611.5,-326.75 611.5,-326.75 611.5,-324.54 627.86,-322.75 648,-322.75 668.14,-322.75 684.5,-324.54 684.5,-326.75 684.5,-326.75 684.5,-362.75 684.5,-362.75"/>
<path fill="none" stroke="#334155" stroke-width="1.3" d="M684.5,-362.75C684.5,-360.54 668.14,-358.75 648,-358.75 627.86,-358.75 611.5,-360.54 611.5,-362.75"/>
<text xml:space="preserve" text-anchor="middle" x="648" y="-347.25" font-family="sans-Serif" font-size="10.00" fill="#0f172a">learning.jsonl</text>
<text xml:space="preserve" text-anchor="middle" x="648" y="-335.25" font-family="sans-Serif" font-size="10.00" fill="#0f172a">outcome log</text>
</g>
<!-- Note&#45;&gt;Flrn -->
<g id="edge3" class="edge">
<title>Note&#45;&gt;Flrn</title>
<path fill="none" stroke="#f59e0b" stroke-width="1.3" d="M517.24,-511.89C518.48,-494.38 523.26,-468.07 540,-453.5 557.31,-438.44 572.11,-458.52 591,-445.5 614.85,-429.06 629.99,-399.16 638.62,-376.37"/>
<polygon fill="#f59e0b" stroke="#f59e0b" stroke-width="1.3" points="641.21,-377.43 641.26,-368.95 635.94,-375.55 641.21,-377.43"/>
</g>
<!-- Dist -->
<g id="node4" class="node">
<title>Dist</title>
<path fill="#6ee7b7" stroke="#334155" stroke-width="1.3" d="M244,-548.5C244,-548.5 168,-548.5 168,-548.5 162,-548.5 156,-542.5 156,-536.5 156,-536.5 156,-524.5 156,-524.5 156,-518.5 162,-512.5 168,-512.5 168,-512.5 244,-512.5 244,-512.5 250,-512.5 256,-518.5 256,-524.5 256,-524.5 256,-536.5 256,-536.5 256,-542.5 250,-548.5 244,-548.5"/>
<text xml:space="preserve" text-anchor="middle" x="206" y="-533" font-family="sans-Serif" font-size="10.00" fill="#0f172a">learning_distill_skill</text>
<text xml:space="preserve" text-anchor="middle" x="206" y="-521" font-family="sans-Serif" font-size="10.00" fill="#0f172a">(session → skill)</text>
</g>
<!-- Dist&#45;&gt;Fskl -->
<g id="edge4" class="edge">
<title>Dist&#45;&gt;Fskl</title>
<path fill="none" stroke="#f59e0b" stroke-width="1.3" d="M188.25,-511.89C179.41,-501.86 169.65,-488.52 165,-474.5 155.19,-444.91 164.23,-410.48 174.88,-384.67"/>
<polygon fill="#f59e0b" stroke="#f59e0b" stroke-width="1.3" points="177.43,-385.83 178.06,-377.38 172.3,-383.59 177.43,-385.83"/>
</g>
<!-- Fses -->
<g id="node13" class="node">
<title>Fses</title>
<path fill="#fcd34d" stroke="#334155" stroke-width="1.3" d="M396.88,-362.75C396.88,-364.96 374.97,-366.75 348,-366.75 321.03,-366.75 299.12,-364.96 299.12,-362.75 299.12,-362.75 299.12,-326.75 299.12,-326.75 299.12,-324.54 321.03,-322.75 348,-322.75 374.97,-322.75 396.88,-324.54 396.88,-326.75 396.88,-326.75 396.88,-362.75 396.88,-362.75"/>
<path fill="none" stroke="#334155" stroke-width="1.3" d="M396.88,-362.75C396.88,-360.54 374.97,-358.75 348,-358.75 321.03,-358.75 299.12,-360.54 299.12,-362.75"/>
<text xml:space="preserve" text-anchor="middle" x="348" y="-347.25" font-family="sans-Serif" font-size="10.00" fill="#0f172a">sessions/*.jsonl</text>
<text xml:space="preserve" text-anchor="middle" x="348" y="-335.25" font-family="sans-Serif" font-size="10.00" fill="#0f172a">transcripts (+ lean)</text>
</g>
<!-- Dist&#45;&gt;Fses -->
<g id="edge5" class="edge">
<title>Dist&#45;&gt;Fses</title>
<path fill="none" stroke="#fbbf24" stroke-width="1.3" stroke-dasharray="5,2" d="M208.33,-502.17C211.22,-485.66 217.61,-465.55 231.75,-453.5 247.96,-439.68 261.03,-456.93 279,-445.5 308.49,-426.73 328.75,-390.36 339.35,-367.11"/>
<polygon fill="#fbbf24" stroke="#fbbf24" stroke-width="1.3" points="205.58,-501.62 207.23,-509.93 211.13,-502.41 205.58,-501.62"/>
<text xml:space="preserve" text-anchor="middle" x="241.88" y="-460.7" font-family="sans-Serif" font-size="9.00" fill="#cbd5e1">mine</text>
</g>
<!-- Mrec -->
<g id="node5" class="node">
<title>Mrec</title>
<path fill="#6ee7b7" stroke="#334155" stroke-width="1.3" d="M867.25,-548.5C867.25,-548.5 798.75,-548.5 798.75,-548.5 792.75,-548.5 786.75,-542.5 786.75,-536.5 786.75,-536.5 786.75,-524.5 786.75,-524.5 786.75,-518.5 792.75,-512.5 798.75,-512.5 798.75,-512.5 867.25,-512.5 867.25,-512.5 873.25,-512.5 879.25,-518.5 879.25,-524.5 879.25,-524.5 879.25,-536.5 879.25,-536.5 879.25,-542.5 873.25,-548.5 867.25,-548.5"/>
<text xml:space="preserve" text-anchor="middle" x="833" y="-533" font-family="sans-Serif" font-size="10.00" fill="#0f172a">mistakes_record</text>
<text xml:space="preserve" text-anchor="middle" x="833" y="-521" font-family="sans-Serif" font-size="10.00" fill="#0f172a">mistakes_resolve</text>
</g>
<!-- Mrec&#45;&gt;Fmem -->
<g id="edge7" class="edge">
<title>Mrec&#45;&gt;Fmem</title>
<path fill="none" stroke="#fbbf24" stroke-width="1.3" stroke-dasharray="5,2" d="M849.06,-512.06C867.34,-493.6 899.08,-465.49 933,-453.5 961.3,-443.5 1176.14,-458.88 1203,-445.5 1232.6,-430.75 1254.84,-399.39 1268.26,-375.75"/>
<polygon fill="#fbbf24" stroke="#fbbf24" stroke-width="1.3" points="1270.66,-377.2 1272.03,-368.84 1265.74,-374.52 1270.66,-377.2"/>
<text xml:space="preserve" text-anchor="middle" x="966" y="-460.7" font-family="sans-Serif" font-size="9.00" fill="#cbd5e1">resolve→lesson</text>
</g>
<!-- Fmis -->
<g id="node14" class="node">
<title>Fmis</title>
<path fill="#fcd34d" stroke="#334155" stroke-width="1.3" d="M1052.88,-362.75C1052.88,-364.96 1021.56,-366.75 983,-366.75 944.44,-366.75 913.12,-364.96 913.12,-362.75 913.12,-362.75 913.12,-326.75 913.12,-326.75 913.12,-324.54 944.44,-322.75 983,-322.75 1021.56,-322.75 1052.88,-324.54 1052.88,-326.75 1052.88,-326.75 1052.88,-362.75 1052.88,-362.75"/>
<path fill="none" stroke="#334155" stroke-width="1.3" d="M1052.88,-362.75C1052.88,-360.54 1021.56,-358.75 983,-358.75 944.44,-358.75 913.12,-360.54 913.12,-362.75"/>
<text xml:space="preserve" text-anchor="middle" x="983" y="-347.25" font-family="sans-Serif" font-size="10.00" fill="#0f172a">mistakes.json</text>
<text xml:space="preserve" text-anchor="middle" x="983" y="-335.25" font-family="sans-Serif" font-size="10.00" fill="#0f172a">sig → count · fix · regressed</text>
</g>
<!-- Mrec&#45;&gt;Fmis -->
<g id="edge6" class="edge">
<title>Mrec&#45;&gt;Fmis</title>
<path fill="none" stroke="#f59e0b" stroke-width="1.3" d="M834.48,-512.11C836.89,-494.76 843.26,-468.59 860,-453.5 871.21,-443.4 880.03,-453.22 893,-445.5 922.45,-427.96 947.74,-397.69 963.95,-375.08"/>
<polygon fill="#f59e0b" stroke="#f59e0b" stroke-width="1.3" points="966.09,-376.91 968.37,-368.75 961.5,-373.7 966.09,-376.91"/>
</g>
<!-- Fprf -->
<g id="node17" class="node">
<title>Fprf</title>
<path fill="#fcd34d" stroke="#334155" stroke-width="1.3" d="M873.38,-362.75C873.38,-364.96 840.04,-366.75 799,-366.75 757.96,-366.75 724.62,-364.96 724.62,-362.75 724.62,-362.75 724.62,-326.75 724.62,-326.75 724.62,-324.54 757.96,-322.75 799,-322.75 840.04,-322.75 873.38,-324.54 873.38,-326.75 873.38,-326.75 873.38,-362.75 873.38,-362.75"/>
<path fill="none" stroke="#334155" stroke-width="1.3" d="M873.38,-362.75C873.38,-360.54 840.04,-358.75 799,-358.75 757.96,-358.75 724.62,-360.54 724.62,-362.75"/>
<text xml:space="preserve" text-anchor="middle" x="799" y="-347.25" font-family="sans-Serif" font-size="10.00" fill="#0f172a">preferences.jsonl</text>
<text xml:space="preserve" text-anchor="middle" x="799" y="-335.25" font-family="sans-Serif" font-size="10.00" fill="#0f172a">DPO (prompt,rejected,chosen)</text>
</g>
<!-- Mrec&#45;&gt;Fprf -->
<g id="edge37" class="edge">
<title>Mrec&#45;&gt;Fprf</title>
<path fill="none" stroke="#fbbf24" stroke-width="1.3" stroke-dasharray="5,2" d="M789.81,-511.9C781.97,-509.14 773.81,-506.53 766,-504.5 723.09,-493.36 597.65,-508.13 568.75,-474.5 562.67,-467.42 562.35,-460.29 568.75,-453.5 579.15,-442.47 691.26,-451.92 705,-445.5 737.4,-430.37 764.16,-398.63 780.73,-374.99"/>
<polygon fill="#fbbf24" stroke="#fbbf24" stroke-width="1.3" points="782.86,-376.83 785.05,-368.64 778.23,-373.68 782.86,-376.83"/>
<text xml:space="preserve" text-anchor="middle" x="598.38" y="-460.7" font-family="sans-Serif" font-size="9.00" fill="#cbd5e1">resolve → pair</text>
</g>
<!-- Xft -->
<g id="node6" class="node">
<title>Xft</title>
<path fill="#6ee7b7" stroke="#334155" stroke-width="1.3" d="M406.25,-548.5C406.25,-548.5 307.75,-548.5 307.75,-548.5 301.75,-548.5 295.75,-542.5 295.75,-536.5 295.75,-536.5 295.75,-524.5 295.75,-524.5 295.75,-518.5 301.75,-512.5 307.75,-512.5 307.75,-512.5 406.25,-512.5 406.25,-512.5 412.25,-512.5 418.25,-518.5 418.25,-524.5 418.25,-524.5 418.25,-536.5 418.25,-536.5 418.25,-542.5 412.25,-548.5 406.25,-548.5"/>
<text xml:space="preserve" text-anchor="middle" x="357" y="-533" font-family="sans-Serif" font-size="10.00" fill="#0f172a">Learning.export_finetune</text>
<text xml:space="preserve" text-anchor="middle" x="357" y="-521" font-family="sans-Serif" font-size="10.00" fill="#0f172a">(sessions → dataset)</text>
</g>
<!-- Xft&#45;&gt;Flrn -->
<g id="edge21" class="edge">
<title>Xft&#45;&gt;Flrn</title>
<path fill="none" stroke="#fbbf24" stroke-width="1.3" stroke-dasharray="5,2" d="M382.44,-505.4C402.98,-487.58 433.55,-464.57 465,-453.5 491.47,-444.19 567.19,-460.34 591,-445.5 619.27,-427.88 634.91,-390.8 642.37,-367.15"/>
<polygon fill="#fbbf24" stroke="#fbbf24" stroke-width="1.3" points="380.67,-503.23 376.55,-510.64 384.39,-507.42 380.67,-503.23"/>
<text xml:space="preserve" text-anchor="middle" x="490.5" y="-460.7" font-family="sans-Serif" font-size="9.00" fill="#cbd5e1">success:true</text>
</g>
<!-- Xft&#45;&gt;Fses -->
<g id="edge20" class="edge">
<title>Xft&#45;&gt;Fses</title>
<path fill="none" stroke="#fbbf24" stroke-width="1.3" stroke-dasharray="5,2" d="M300.13,-507.31C286.48,-499.13 273.59,-488.37 265.75,-474.5 261.16,-466.37 261.16,-461.63 265.75,-453.5 269.13,-447.51 273.99,-450.21 279,-445.5 303.7,-422.28 324.63,-388.81 336.75,-367.17"/>
<polygon fill="#fbbf24" stroke="#fbbf24" stroke-width="1.3" points="298.63,-509.68 306.98,-511.11 301.35,-504.78 298.63,-509.68"/>
<text xml:space="preserve" text-anchor="middle" x="275.88" y="-460.7" font-family="sans-Serif" font-size="9.00" fill="#cbd5e1">mine</text>
</g>
<!-- Fftn -->
<g id="node16" class="node">
<title>Fftn</title>
<path fill="#fcd34d" stroke="#334155" stroke-width="1.3" d="M571.25,-362.75C571.25,-364.96 541.11,-366.75 504,-366.75 466.89,-366.75 436.75,-364.96 436.75,-362.75 436.75,-362.75 436.75,-326.75 436.75,-326.75 436.75,-324.54 466.89,-322.75 504,-322.75 541.11,-322.75 571.25,-324.54 571.25,-326.75 571.25,-326.75 571.25,-362.75 571.25,-362.75"/>
<path fill="none" stroke="#334155" stroke-width="1.3" d="M571.25,-362.75C571.25,-360.54 541.11,-358.75 504,-358.75 466.89,-358.75 436.75,-360.54 436.75,-362.75"/>
<text xml:space="preserve" text-anchor="middle" x="504" y="-347.25" font-family="sans-Serif" font-size="10.00" fill="#0f172a">finetune/*.jsonl</text>
<text xml:space="preserve" text-anchor="middle" x="504" y="-335.25" font-family="sans-Serif" font-size="10.00" fill="#0f172a">ShareGPT / OpenAI / DPO</text>
</g>
<!-- Xft&#45;&gt;Fftn -->
<g id="edge19" class="edge">
<title>Xft&#45;&gt;Fftn</title>
<path fill="none" stroke="#f59e0b" stroke-width="1.3" d="M346.01,-511.88C336.95,-494.87 327.7,-469.4 342,-453.5 353.21,-441.04 402.13,-453.24 417,-445.5 447.32,-429.72 471.77,-398.61 486.95,-375.3"/>
<polygon fill="#f59e0b" stroke="#f59e0b" stroke-width="1.3" points="489.16,-377.04 491.06,-368.78 484.42,-374.05 489.16,-377.04"/>
</g>
<!-- Rdpo -->
<g id="node7" class="node">
<title>Rdpo</title>
<path fill="#6ee7b7" stroke="#334155" stroke-width="1.3" d="M734.38,-548.5C734.38,-548.5 627.62,-548.5 627.62,-548.5 621.62,-548.5 615.62,-542.5 615.62,-536.5 615.62,-536.5 615.62,-524.5 615.62,-524.5 615.62,-518.5 621.62,-512.5 627.62,-512.5 627.62,-512.5 734.38,-512.5 734.38,-512.5 740.38,-512.5 746.38,-518.5 746.38,-524.5 746.38,-524.5 746.38,-536.5 746.38,-536.5 746.38,-542.5 740.38,-548.5 734.38,-548.5"/>
<text xml:space="preserve" text-anchor="middle" x="681" y="-533" font-family="sans-Serif" font-size="10.00" fill="#0f172a">Reward.record_preference</text>
<text xml:space="preserve" text-anchor="middle" x="681" y="-521" font-family="sans-Serif" font-size="10.00" fill="#0f172a">export_dpo</text>
</g>
<!-- Rdpo&#45;&gt;Fprf -->
<g id="edge36" class="edge">
<title>Rdpo&#45;&gt;Fprf</title>
<path fill="none" stroke="#f59e0b" stroke-width="1.3" d="M624.52,-511.89C594.69,-501.32 562.51,-487.45 554,-474.5 548.88,-466.7 547.58,-460.27 554,-453.5 565.56,-441.31 689.76,-452.56 705,-445.5 737.44,-430.46 764.19,-398.71 780.75,-375.04"/>
<polygon fill="#f59e0b" stroke="#f59e0b" stroke-width="1.3" points="782.89,-376.87 785.07,-368.68 778.26,-373.72 782.89,-376.87"/>
</g>
<!-- PolW -->
<g id="node8" class="node">
<title>PolW</title>
<path fill="#6ee7b7" stroke="#334155" stroke-width="1.3" d="M1217.75,-548.5C1217.75,-548.5 1098.25,-548.5 1098.25,-548.5 1092.25,-548.5 1086.25,-542.5 1086.25,-536.5 1086.25,-536.5 1086.25,-524.5 1086.25,-524.5 1086.25,-518.5 1092.25,-512.5 1098.25,-512.5 1098.25,-512.5 1217.75,-512.5 1217.75,-512.5 1223.75,-512.5 1229.75,-518.5 1229.75,-524.5 1229.75,-524.5 1229.75,-536.5 1229.75,-536.5 1229.75,-542.5 1223.75,-548.5 1217.75,-548.5"/>
<text xml:space="preserve" text-anchor="middle" x="1158" y="-533" font-family="sans-Serif" font-size="10.00" fill="#0f172a">Policy.begin / observe / finish</text>
<text xml:space="preserve" text-anchor="middle" x="1158" y="-521" font-family="sans-Serif" font-size="10.00" fill="#0f172a">(Q + REINFORCE)</text>
</g>
<!-- Fpol -->
<g id="node18" class="node">
<title>Fpol</title>
<path fill="#fcd34d" stroke="#334155" stroke-width="1.3" d="M1546.88,-362.75C1546.88,-364.96 1510.18,-366.75 1465,-366.75 1419.82,-366.75 1383.12,-364.96 1383.12,-362.75 1383.12,-362.75 1383.12,-326.75 1383.12,-326.75 1383.12,-324.54 1419.82,-322.75 1465,-322.75 1510.18,-322.75 1546.88,-324.54 1546.88,-326.75 1546.88,-326.75 1546.88,-362.75 1546.88,-362.75"/>
<path fill="none" stroke="#334155" stroke-width="1.3" d="M1546.88,-362.75C1546.88,-360.54 1510.18,-358.75 1465,-358.75 1419.82,-358.75 1383.12,-360.54 1383.12,-362.75"/>
<text xml:space="preserve" text-anchor="middle" x="1465" y="-347.25" font-family="sans-Serif" font-size="10.00" fill="#0f172a">policy.json + policy_traj.jsonl</text>
<text xml:space="preserve" text-anchor="middle" x="1465" y="-335.25" font-family="sans-Serif" font-size="10.00" fill="#0f172a">Q table · REINFORCE · MDP log</text>
</g>
<!-- PolW&#45;&gt;Fpol -->
<g id="edge33" class="edge">
<title>PolW&#45;&gt;Fpol</title>
<path fill="none" stroke="#f59e0b" stroke-width="1.3" d="M1166.84,-512.02C1177.11,-493.79 1195.91,-466.17 1221,-453.5 1249.21,-439.26 1334.08,-458.25 1363,-445.5 1397.21,-430.42 1426.54,-398.44 1444.85,-374.74"/>
<polygon fill="#f59e0b" stroke="#f59e0b" stroke-width="1.3" points="1446.87,-376.71 1449.44,-368.63 1442.4,-373.34 1446.87,-376.71"/>
</g>
<!-- Rec -->
<g id="node19" class="node">
<title>Rec</title>
<path fill="#c4b5fd" stroke="#334155" stroke-width="1.3" d="M1239.88,-197C1239.88,-197 1184.12,-197 1184.12,-197 1178.12,-197 1172.12,-191 1172.12,-185 1172.12,-185 1172.12,-173 1172.12,-173 1172.12,-167 1178.12,-161 1184.12,-161 1184.12,-161 1239.88,-161 1239.88,-161 1245.88,-161 1251.88,-167 1251.88,-173 1251.88,-173 1251.88,-185 1251.88,-185 1251.88,-191 1245.88,-197 1239.88,-197"/>
<text xml:space="preserve" text-anchor="middle" x="1212" y="-175.5" font-family="sans-Serif" font-size="10.00" fill="#0f172a">memory_recall</text>
</g>
<!-- Fmem&#45;&gt;Rec -->
<g id="edge8" class="edge">
<title>Fmem&#45;&gt;Rec</title>
<path fill="none" stroke="#a78bfa" stroke-width="1.3" d="M1273.72,-322.34C1260.79,-292.52 1237.37,-238.5 1223.39,-206.28"/>
<polygon fill="#a78bfa" stroke="#a78bfa" stroke-width="1.3" points="1226.08,-205.44 1220.33,-199.22 1220.95,-207.67 1226.08,-205.44"/>
</g>
<!-- Midx -->
<g id="node20" class="node">
<title>Midx</title>
<path fill="#c4b5fd" stroke="#334155" stroke-width="2" d="M1120.12,-201C1120.12,-201 1059.88,-201 1059.88,-201 1053.88,-201 1047.88,-195 1047.88,-189 1047.88,-189 1047.88,-169 1047.88,-169 1047.88,-163 1053.88,-157 1059.88,-157 1059.88,-157 1120.12,-157 1120.12,-157 1126.12,-157 1132.12,-163 1132.12,-169 1132.12,-169 1132.12,-189 1132.12,-189 1132.12,-195 1126.12,-201 1120.12,-201"/>
<text xml:space="preserve" text-anchor="middle" x="1090" y="-187.5" font-family="sans-Serif" font-size="10.00" fill="#0f172a">MemoryIndex</text>
<text xml:space="preserve" text-anchor="middle" x="1090" y="-175.5" font-family="sans-Serif" font-size="10.00" fill="#0f172a">recall_semantic</text>
<text xml:space="preserve" text-anchor="middle" x="1090" y="-163.5" font-family="sans-Serif" font-size="10.00" fill="#0f172a">(cosine top&#45;K)</text>
</g>
<!-- Fmem&#45;&gt;Midx -->
<g id="edge23" class="edge">
<title>Fmem&#45;&gt;Midx</title>
<path fill="none" stroke="#a78bfa" stroke-width="1.3" stroke-dasharray="5,2" d="M1239.98,-322.77C1207.48,-306.43 1166.15,-284.41 1152,-271.5 1132.91,-254.08 1116.75,-229.67 1105.71,-210.44"/>
<polygon fill="#a78bfa" stroke="#a78bfa" stroke-width="1.3" points="1108.17,-209.09 1101.83,-203.46 1103.27,-211.81 1108.17,-209.09"/>
</g>
<!-- ReVal -->
<g id="node28" class="node">
<title>ReVal</title>
<path fill="#fcd34d" stroke="#334155" stroke-width="1.3" d="M1483.12,-552.5C1483.12,-552.5 1380.88,-552.5 1380.88,-552.5 1374.88,-552.5 1368.88,-546.5 1368.88,-540.5 1368.88,-540.5 1368.88,-520.5 1368.88,-520.5 1368.88,-514.5 1374.88,-508.5 1380.88,-508.5 1380.88,-508.5 1483.12,-508.5 1483.12,-508.5 1489.12,-508.5 1495.12,-514.5 1495.12,-520.5 1495.12,-520.5 1495.12,-540.5 1495.12,-540.5 1495.12,-546.5 1489.12,-552.5 1483.12,-552.5"/>
<text xml:space="preserve" text-anchor="middle" x="1432" y="-539" font-family="sans-Serif" font-size="10.00" fill="#0f172a">Extrospection.verify</text>
<text xml:space="preserve" text-anchor="middle" x="1432" y="-527" font-family="sans-Serif" font-size="10.00" fill="#0f172a">revalidate_memory (cron)</text>
<text xml:space="preserve" text-anchor="middle" x="1432" y="-515" font-family="sans-Serif" font-size="10.00" fill="#0f172a">browser&#45;backed GC</text>
</g>
<!-- Fmem&#45;&gt;ReVal -->
<g id="edge30" class="edge">
<title>Fmem&#45;&gt;ReVal</title>
<path fill="none" stroke="#94a3b8" stroke-width="1.3" stroke-dasharray="5,2" d="M1264.43,-367.29C1243.28,-394.56 1214.65,-441.9 1239.25,-474.5 1253.96,-493.99 1310.46,-508.64 1358.52,-517.9"/>
<polygon fill="#94a3b8" stroke="#94a3b8" stroke-width="1.3" points="1358,-520.65 1366.38,-519.37 1359.03,-515.15 1358,-520.65"/>
<text xml:space="preserve" text-anchor="middle" x="1281.62" y="-460.7" font-family="sans-Serif" font-size="9.00" fill="#cbd5e1">:fact w/ CVE|ver|URL</text>
</g>
<!-- Fidx&#45;&gt;Midx -->
<g id="edge22" class="edge">
<title>Fidx&#45;&gt;Midx</title>
<path fill="none" stroke="#a78bfa" stroke-width="1.3" d="M1129.31,-314.1C1120.76,-284.95 1107.78,-240.65 1099.1,-211.03"/>
<polygon fill="#a78bfa" stroke="#a78bfa" stroke-width="1.3" points="1101.82,-210.37 1096.88,-203.49 1096.45,-211.95 1101.82,-210.37"/>
</g>
<!-- Skv -->
<g id="node21" class="node">
<title>Skv</title>
<path fill="#c4b5fd" stroke="#334155" stroke-width="1.3" d="M450.25,-197C450.25,-197 393.75,-197 393.75,-197 387.75,-197 381.75,-191 381.75,-185 381.75,-185 381.75,-173 381.75,-173 381.75,-167 387.75,-161 393.75,-161 393.75,-161 450.25,-161 450.25,-161 456.25,-161 462.25,-167 462.25,-173 462.25,-173 462.25,-185 462.25,-185 462.25,-191 456.25,-197 450.25,-197"/>
<text xml:space="preserve" text-anchor="middle" x="422" y="-175.5" font-family="sans-Serif" font-size="10.00" fill="#0f172a">skill_list · view</text>
</g>
<!-- Fskl&#45;&gt;Skv -->
<g id="edge9" class="edge">
<title>Fskl&#45;&gt;Skv</title>
<path fill="none" stroke="#a78bfa" stroke-width="1.3" d="M235.58,-314.47C279.73,-282.63 349.39,-232.38 389.89,-203.16"/>
<polygon fill="#a78bfa" stroke="#a78bfa" stroke-width="1.3" points="391.38,-205.54 396.23,-198.59 388.1,-201 391.38,-205.54"/>
</g>
<!-- Out -->
<g id="node22" class="node">
<title>Out</title>
<path fill="#c4b5fd" stroke="#334155" stroke-width="1.3" d="M875.88,-197C875.88,-197 802.12,-197 802.12,-197 796.12,-197 790.12,-191 790.12,-185 790.12,-185 790.12,-173 790.12,-173 790.12,-167 796.12,-161 802.12,-161 802.12,-161 875.88,-161 875.88,-161 881.88,-161 887.88,-167 887.88,-173 887.88,-173 887.88,-185 887.88,-185 887.88,-191 881.88,-197 875.88,-197"/>
<text xml:space="preserve" text-anchor="middle" x="839" y="-181.5" font-family="sans-Serif" font-size="10.00" fill="#0f172a">learning_outcomes</text>
<text xml:space="preserve" text-anchor="middle" x="839" y="-169.5" font-family="sans-Serif" font-size="10.00" fill="#0f172a">learning_stats</text>
</g>
<!-- Flrn&#45;&gt;Out -->
<g id="edge10" class="edge">
<title>Flrn&#45;&gt;Out</title>
<path fill="none" stroke="#a78bfa" stroke-width="1.3" d="M678.17,-323.35C686.74,-317.74 696.16,-311.76 705,-306.5 733.2,-289.73 745.1,-292.87 770,-271.5 791.96,-252.65 811.25,-225.68 823.8,-205.9"/>
<polygon fill="#a78bfa" stroke="#a78bfa" stroke-width="1.3" points="826.05,-207.59 827.88,-199.31 821.29,-204.64 826.05,-207.59"/>
</g>
<!-- Exem -->
<g id="node25" class="node">
<title>Exem</title>
<path fill="#c4b5fd" stroke="#334155" stroke-width="1.3" d="M737.62,-197C737.62,-197 644.38,-197 644.38,-197 638.38,-197 632.38,-191 632.38,-185 632.38,-185 632.38,-173 632.38,-173 632.38,-167 638.38,-161 644.38,-161 644.38,-161 737.62,-161 737.62,-161 743.62,-161 749.62,-167 749.62,-173 749.62,-173 749.62,-185 749.62,-185 749.62,-191 743.62,-197 737.62,-197"/>
<text xml:space="preserve" text-anchor="middle" x="691" y="-181.5" font-family="sans-Serif" font-size="10.00" fill="#0f172a">Learning.exemplars_for</text>
<text xml:space="preserve" text-anchor="middle" x="691" y="-169.5" font-family="sans-Serif" font-size="10.00" fill="#0f172a">(few&#45;shot trace)</text>
</g>
<!-- Flrn&#45;&gt;Exem -->
<g id="edge24" class="edge">
<title>Flrn&#45;&gt;Exem</title>
<path fill="none" stroke="#a78bfa" stroke-width="1.3" d="M653.62,-322.34C661.42,-292.65 675.52,-238.97 683.99,-206.69"/>
<polygon fill="#a78bfa" stroke="#a78bfa" stroke-width="1.3" points="686.6,-207.76 685.93,-199.32 681.19,-206.34 686.6,-207.76"/>
</g>
<!-- Sesv -->
<g id="node23" class="node">
<title>Sesv</title>
<path fill="#c4b5fd" stroke="#334155" stroke-width="1.3" d="M580.12,-197C580.12,-197 513.88,-197 513.88,-197 507.88,-197 501.88,-191 501.88,-185 501.88,-185 501.88,-173 501.88,-173 501.88,-167 507.88,-161 513.88,-161 513.88,-161 580.12,-161 580.12,-161 586.12,-161 592.12,-167 592.12,-173 592.12,-173 592.12,-185 592.12,-185 592.12,-191 586.12,-197 580.12,-197"/>
<text xml:space="preserve" text-anchor="middle" x="547" y="-181.5" font-family="sans-Serif" font-size="10.00" fill="#0f172a">sessions_view</text>
<text xml:space="preserve" text-anchor="middle" x="547" y="-169.5" font-family="sans-Serif" font-size="10.00" fill="#0f172a">sessions_current</text>
</g>
<!-- Fses&#45;&gt;Sesv -->
<g id="edge11" class="edge">
<title>Fses&#45;&gt;Sesv</title>
<path fill="none" stroke="#a78bfa" stroke-width="1.3" d="M386.32,-323.05C396.3,-317.66 407.05,-311.86 417,-306.5 445.88,-290.93 457.41,-293.22 482,-271.5 503.28,-252.71 521.39,-225.67 533.05,-205.86"/>
<polygon fill="#a78bfa" stroke="#a78bfa" stroke-width="1.3" points="535.41,-207.36 536.96,-199.03 530.55,-204.58 535.41,-207.36"/>
</g>
<!-- Fses&#45;&gt;Exem -->
<g id="edge25" class="edge">
<title>Fses&#45;&gt;Exem</title>
<path fill="none" stroke="#a78bfa" stroke-width="1.3" stroke-dasharray="5,2" d="M381.76,-322.76C392.67,-316.74 405.05,-310.68 417,-306.5 500.12,-277.44 535.5,-315.1 612,-271.5 639.56,-255.79 662.12,-226.73 675.97,-205.56"/>
<polygon fill="#a78bfa" stroke="#a78bfa" stroke-width="1.3" points="678.23,-207.23 680.14,-198.98 673.5,-204.24 678.23,-207.23"/>
</g>
<!-- Teach -->
<g id="node29" class="node">
<title>Teach</title>
<path fill="#fda4af" stroke="#334155" stroke-width="2" d="M1783.62,-552.5C1783.62,-552.5 1690.38,-552.5 1690.38,-552.5 1684.38,-552.5 1678.38,-546.5 1678.38,-540.5 1678.38,-540.5 1678.38,-520.5 1678.38,-520.5 1678.38,-514.5 1684.38,-508.5 1690.38,-508.5 1690.38,-508.5 1783.62,-508.5 1783.62,-508.5 1789.62,-508.5 1795.62,-514.5 1795.62,-520.5 1795.62,-520.5 1795.62,-540.5 1795.62,-540.5 1795.62,-546.5 1789.62,-552.5 1783.62,-552.5"/>
<text xml:space="preserve" text-anchor="middle" x="1737" y="-539" font-family="sans-Serif" font-size="10.00" fill="#0f172a">Reflect.on</text>
<text xml:space="preserve" text-anchor="middle" x="1737" y="-527" font-family="sans-Serif" font-size="10.00" fill="#0f172a">(engine: reflect_engine)</text>
<text xml:space="preserve" text-anchor="middle" x="1737" y="-515" font-family="sans-Serif" font-size="10.00" fill="#0f172a">teacher&#45;student</text>
</g>
<!-- Fses&#45;&gt;Teach -->
<g id="edge31" class="edge">
<title>Fses&#45;&gt;Teach</title>
<path fill="none" stroke="#94a3b8" stroke-width="1.3" stroke-dasharray="5,2" d="M355.77,-367.15C365.78,-391.18 385.72,-428.97 417,-445.5 446.3,-460.98 1578.09,-444.57 1610,-453.5 1610.59,-453.67 1655.69,-480.69 1691.98,-502.47"/>
<polygon fill="#94a3b8" stroke="#94a3b8" stroke-width="1.3" points="1690.52,-504.86 1698.82,-506.57 1693.4,-500.06 1690.52,-504.86"/>
<text xml:space="preserve" text-anchor="middle" x="1663.25" y="-460.7" font-family="sans-Serif" font-size="9.00" fill="#cbd5e1">transcript</text>
</g>
<!-- Mlst -->
<g id="node24" class="node">
<title>Mlst</title>
<path fill="#c4b5fd" stroke="#334155" stroke-width="1.3" d="M995.88,-197C995.88,-197 940.12,-197 940.12,-197 934.12,-197 928.12,-191 928.12,-185 928.12,-185 928.12,-173 928.12,-173 928.12,-167 934.12,-161 940.12,-161 940.12,-161 995.88,-161 995.88,-161 1001.88,-161 1007.88,-167 1007.88,-173 1007.88,-173 1007.88,-185 1007.88,-185 1007.88,-191 1001.88,-197 995.88,-197"/>
<text xml:space="preserve" text-anchor="middle" x="968" y="-181.5" font-family="sans-Serif" font-size="10.00" fill="#0f172a">mistakes_list</text>
<text xml:space="preserve" text-anchor="middle" x="968" y="-169.5" font-family="sans-Serif" font-size="10.00" fill="#0f172a">correction_hint</text>
</g>
<!-- Fmis&#45;&gt;Mlst -->
<g id="edge12" class="edge">
<title>Fmis&#45;&gt;Mlst</title>
<path fill="none" stroke="#a78bfa" stroke-width="1.3" d="M981.04,-322.34C978.33,-292.77 973.44,-239.43 970.48,-207.11"/>
<polygon fill="#a78bfa" stroke="#a78bfa" stroke-width="1.3" points="973.29,-207.08 969.77,-199.37 967.72,-207.59 973.29,-207.08"/>
</g>
<!-- Fext -->
<g id="node15" class="node">
<title>Fext</title>
<path fill="#fcd34d" stroke="#334155" stroke-width="1.3" d="M1709.25,-362.75C1709.25,-364.96 1681.8,-366.75 1648,-366.75 1614.2,-366.75 1586.75,-364.96 1586.75,-362.75 1586.75,-362.75 1586.75,-326.75 1586.75,-326.75 1586.75,-324.54 1614.2,-322.75 1648,-322.75 1681.8,-322.75 1709.25,-324.54 1709.25,-326.75 1709.25,-326.75 1709.25,-362.75 1709.25,-362.75"/>
<path fill="none" stroke="#334155" stroke-width="1.3" d="M1709.25,-362.75C1709.25,-360.54 1681.8,-358.75 1648,-358.75 1614.2,-358.75 1586.75,-360.54 1586.75,-362.75"/>
<text xml:space="preserve" text-anchor="middle" x="1648" y="-347.25" font-family="sans-Serif" font-size="10.00" fill="#0f172a">extrospection.json</text>
<text xml:space="preserve" text-anchor="middle" x="1648" y="-335.25" font-family="sans-Serif" font-size="10.00" fill="#0f172a">snapshot · rf · web · obs</text>
</g>
<!-- Fprf&#45;&gt;Fftn -->
<g id="edge38" class="edge">
<title>Fprf&#45;&gt;Fftn</title>
<path fill="none" stroke="#fbbf24" stroke-width="1.3" stroke-dasharray="5,2" d="M784.57,-367.3C768.38,-390.28 739.79,-424.53 705,-438.96 658.61,-458.2 638.07,-458.96 592,-438.96 562.33,-426.07 538.11,-397.71 522.65,-375.45"/>
<polygon fill="#fbbf24" stroke="#fbbf24" stroke-width="1.3" points="525.03,-373.98 518.25,-368.9 520.38,-377.1 525.03,-373.98"/>
<text xml:space="preserve" text-anchor="middle" x="661" y="-460.7" font-family="sans-Serif" font-size="9.00" fill="#cbd5e1">export_dpo</text>
</g>
<!-- PolR -->
<g id="node26" class="node">
<title>PolR</title>
<path fill="#c4b5fd" stroke="#334155" stroke-width="1.3" d="M1394.12,-197C1394.12,-197 1303.88,-197 1303.88,-197 1297.88,-197 1291.88,-191 1291.88,-185 1291.88,-185 1291.88,-173 1291.88,-173 1291.88,-167 1297.88,-161 1303.88,-161 1303.88,-161 1394.12,-161 1394.12,-161 1400.12,-161 1406.12,-167 1406.12,-173 1406.12,-173 1406.12,-185 1406.12,-185 1406.12,-191 1400.12,-197 1394.12,-197"/>
<text xml:space="preserve" text-anchor="middle" x="1349" y="-181.5" font-family="sans-Serif" font-size="10.00" fill="#0f172a">policy_stats · evaluate</text>
<text xml:space="preserve" text-anchor="middle" x="1349" y="-169.5" font-family="sans-Serif" font-size="10.00" fill="#0f172a">policy_recommend</text>
</g>
<!-- Fpol&#45;&gt;PolR -->
<g id="edge34" class="edge">
<title>Fpol&#45;&gt;PolR</title>
<path fill="none" stroke="#a78bfa" stroke-width="1.3" d="M1449.84,-322.34C1428.53,-292.26 1389.79,-237.57 1367.03,-205.45"/>
<polygon fill="#a78bfa" stroke="#a78bfa" stroke-width="1.3" points="1369.38,-203.93 1362.47,-199.02 1364.81,-207.16 1369.38,-203.93"/>
</g>
<!-- Prompt -->
<g id="node27" class="node">
<title>Prompt</title>
<path fill="#7dd3fc" stroke="#334155" stroke-width="2" d="M997,-68C997,-68 801,-68 801,-68 795,-68 789,-62 789,-56 789,-56 789,-12 789,-12 789,-6 795,0 801,0 801,0 997,0 997,0 1003,0 1009,-6 1009,-12 1009,-12 1009,-56 1009,-56 1009,-62 1003,-68 997,-68"/>
<text xml:space="preserve" text-anchor="middle" x="899" y="-54.5" font-family="sans-Serif" font-size="10.00" fill="#0f172a">PromptBuilder.build(request:)</text>
<text xml:space="preserve" text-anchor="middle" x="899" y="-42.5" font-family="sans-Serif" font-size="10.00" fill="#0f172a">engine&#45;aware .budget</text>
<text xml:space="preserve" text-anchor="middle" x="899" y="-30.5" font-family="sans-Serif" font-size="10.00" fill="#0f172a">MEMORY (relevance&#45;ranked) + SKILLS</text>
<text xml:space="preserve" text-anchor="middle" x="899" y="-18.5" font-family="sans-Serif" font-size="10.00" fill="#0f172a">+ LEARNING + KNOWN MISTAKES/FIXES</text>
<text xml:space="preserve" text-anchor="middle" x="899" y="-6.5" font-family="sans-Serif" font-size="10.00" fill="#0f172a">+ METRICS (per&#45;engine) + POLICY + EXTRO</text>
</g>
<!-- Rec&#45;&gt;Prompt -->
<g id="edge13" class="edge">
<title>Rec&#45;&gt;Prompt</title>
<path fill="none" stroke="#38bdf8" stroke-width="1.3" d="M1193.07,-160.4C1173.91,-143.39 1142.8,-117.93 1112,-102 1083.09,-87.05 1050.23,-74.7 1019.12,-64.85"/>
<polygon fill="#38bdf8" stroke="#38bdf8" stroke-width="1.3" points="1020.32,-62.29 1011.85,-62.59 1018.66,-67.64 1020.32,-62.29"/>
</g>
<!-- Midx&#45;&gt;Prompt -->
<g id="edge26" class="edge">
<title>Midx&#45;&gt;Prompt</title>
<path fill="none" stroke="#38bdf8" stroke-width="2" d="M1069.41,-156.02C1053.88,-140.07 1031.63,-118.49 1010,-102 997.49,-92.46 983.54,-83.14 969.87,-74.63"/>
<polygon fill="#38bdf8" stroke="#38bdf8" stroke-width="2" points="971.34,-72.24 963.05,-70.45 968.41,-77.02 971.34,-72.24"/>
<text xml:space="preserve" text-anchor="middle" x="1067.8" y="-114.45" font-family="sans-Serif" font-size="9.00" fill="#cbd5e1">MEMORY block</text>
<text xml:space="preserve" text-anchor="middle" x="1067.8" y="-103.95" font-family="sans-Serif" font-size="9.00" fill="#cbd5e1">(top&#45;K by cosine)</text>
</g>
<!-- Skv&#45;&gt;Prompt -->
<g id="edge14" class="edge">
<title>Skv&#45;&gt;Prompt</title>
<path fill="none" stroke="#38bdf8" stroke-width="1.3" d="M455.48,-160.48C464,-156.4 473.22,-152.29 482,-149 579.79,-112.36 694.46,-81.87 778.78,-61.67"/>
<polygon fill="#38bdf8" stroke="#38bdf8" stroke-width="1.3" points="779.34,-64.41 786.47,-59.84 778.04,-58.97 779.34,-64.41"/>
</g>
<!-- Out&#45;&gt;Prompt -->
<g id="edge15" class="edge">
<title>Out&#45;&gt;Prompt</title>
<path fill="none" stroke="#38bdf8" stroke-width="1.3" d="M846.36,-160.47C854.93,-140.03 869.41,-105.53 881.01,-77.87"/>
<polygon fill="#38bdf8" stroke="#38bdf8" stroke-width="1.3" points="883.55,-79.06 884.06,-70.6 878.39,-76.9 883.55,-79.06"/>
</g>
<!-- Sesv&#45;&gt;Prompt -->
<g id="edge16" class="edge">
<title>Sesv&#45;&gt;Prompt</title>
<path fill="none" stroke="#38bdf8" stroke-width="1.3" d="M585.72,-160.41C594.34,-156.58 603.46,-152.6 612,-149 674.71,-122.57 745.79,-94.32 801.53,-72.56"/>
<polygon fill="#38bdf8" stroke="#38bdf8" stroke-width="1.3" points="802.42,-75.22 808.86,-69.7 800.38,-70 802.42,-75.22"/>
</g>
<!-- Mlst&#45;&gt;Prompt -->
<g id="edge17" class="edge">
<title>Mlst&#45;&gt;Prompt</title>
<path fill="none" stroke="#fb7185" stroke-width="2" d="M959.54,-160.47C949.76,-140.21 933.32,-106.13 920.04,-78.6"/>
<polygon fill="#fb7185" stroke="#fb7185" stroke-width="2" points="922.62,-77.5 916.62,-71.51 917.57,-79.94 922.62,-77.5"/>
<text xml:space="preserve" text-anchor="middle" x="969.68" y="-109.2" font-family="sans-Serif" font-size="9.00" fill="#cbd5e1">do NOT repeat</text>
</g>
<!-- Exem&#45;&gt;Prompt -->
<g id="edge27" class="edge">
<title>Exem&#45;&gt;Prompt</title>
<path fill="none" stroke="#38bdf8" stroke-width="1.3" d="M714.4,-160.43C735.4,-144.78 767.2,-121.43 795.5,-102 808.92,-92.78 823.51,-83.13 837.38,-74.11"/>
<polygon fill="#38bdf8" stroke="#38bdf8" stroke-width="1.3" points="838.61,-76.65 843.8,-69.95 835.56,-71.95 838.61,-76.65"/>
<text xml:space="preserve" text-anchor="middle" x="824.75" y="-114.45" font-family="sans-Serif" font-size="9.00" fill="#cbd5e1">few&#45;shot msgs</text>
<text xml:space="preserve" text-anchor="middle" x="824.75" y="-103.95" font-family="sans-Serif" font-size="9.00" fill="#cbd5e1">(local only)</text>
</g>
<!-- PolR&#45;&gt;Prompt -->
<g id="edge35" class="edge">
<title>PolR&#45;&gt;Prompt</title>
<path fill="none" stroke="#38bdf8" stroke-width="1.3" d="M1309.52,-160.48C1271.46,-144.01 1212.01,-119.35 1159,-102 1114.01,-87.27 1063.81,-73.69 1019.6,-62.66"/>
<polygon fill="#38bdf8" stroke="#38bdf8" stroke-width="1.3" points="1020.32,-59.95 1011.88,-60.74 1018.97,-65.38 1020.32,-59.95"/>
<text xml:space="preserve" text-anchor="middle" x="1245.75" y="-114.45" font-family="sans-Serif" font-size="9.00" fill="#cbd5e1">POLICY block</text>
<text xml:space="preserve" text-anchor="middle" x="1245.75" y="-103.95" font-family="sans-Serif" font-size="9.00" fill="#cbd5e1">advisory only</text>
</g>
<!-- ReVal&#45;&gt;Fmem -->
<g id="edge28" class="edge">
<title>ReVal&#45;&gt;Fmem</title>
<path fill="none" stroke="#fb7185" stroke-width="2" stroke-dasharray="5,2" d="M1390.79,-508.01C1376.32,-499.04 1360.75,-487.64 1349,-474.5 1323.31,-445.78 1304.71,-405.25 1293.93,-377.37"/>
<polygon fill="#fb7185" stroke="#fb7185" stroke-width="2" points="1296.67,-376.71 1291.24,-370.2 1291.42,-378.67 1296.67,-376.71"/>
<text xml:space="preserve" text-anchor="middle" x="1404.5" y="-465.95" font-family="sans-Serif" font-size="9.00" fill="#cbd5e1">[UNVERIFIED yyyy&#45;mm&#45;dd]</text>
<text xml:space="preserve" text-anchor="middle" x="1404.5" y="-455.45" font-family="sans-Serif" font-size="9.00" fill="#cbd5e1">prefix stale :fact</text>
</g>
<!-- ReVal&#45;&gt;Fext -->
<g id="edge29" class="edge">
<title>ReVal&#45;&gt;Fext</title>
<path fill="none" stroke="#f59e0b" stroke-width="1.3" stroke-dasharray="5,2" d="M1446.32,-507.91C1459.37,-490.14 1480.33,-465.94 1505,-453.5 1529.81,-440.99 1542.73,-459.03 1567,-445.5 1595.68,-429.51 1618.16,-398.93 1632.09,-375.83"/>
<polygon fill="#f59e0b" stroke="#f59e0b" stroke-width="1.3" points="1634.41,-377.41 1636.01,-369.08 1629.57,-374.59 1634.41,-377.41"/>
<text xml:space="preserve" text-anchor="middle" x="1554.5" y="-465.95" font-family="sans-Serif" font-size="9.00" fill="#cbd5e1">:confirmed → :intel obs</text>
<text xml:space="preserve" text-anchor="middle" x="1554.5" y="-455.45" font-family="sans-Serif" font-size="9.00" fill="#cbd5e1">:refuted → observe stale</text>
</g>
<!-- Teach&#45;&gt;Fmem -->
<g id="edge32" class="edge">
<title>Teach&#45;&gt;Fmem</title>
<path fill="none" stroke="#fb7185" stroke-width="2" d="M1730.86,-507.56C1724.55,-489.57 1712.8,-465.24 1693,-453.5 1661.45,-434.8 1395.87,-461.77 1363,-445.5 1333.75,-431.03 1311.72,-400.28 1298.25,-376.73"/>
<polygon fill="#fb7185" stroke="#fb7185" stroke-width="2" points="1300.76,-375.48 1294.46,-369.8 1295.84,-378.16 1300.76,-375.48"/>
<text xml:space="preserve" text-anchor="middle" x="1747.47" y="-465.95" font-family="sans-Serif" font-size="9.00" fill="#cbd5e1">frontier&#45;authored</text>
<text xml:space="preserve" text-anchor="middle" x="1747.47" y="-455.45" font-family="sans-Serif" font-size="9.00" fill="#cbd5e1">:lesson</text>
</g>
</g>
</svg>
