<?xml version="1.0" encoding="UTF-8" standalone="no"?>
<!DOCTYPE svg PUBLIC "-//W3C//DTD SVG 1.1//EN"
 "http://www.w3.org/Graphics/SVG/1.1/DTD/svg11.dtd">
<!-- Generated by graphviz version 14.1.2 (0)
 -->
<!-- Title: PWN_MemorySkills Pages: 1 -->
<svg width="1755pt" height="752pt"
 viewBox="0.00 0.00 1755.00 752.00" xmlns="http://www.w3.org/2000/svg" xmlns:xlink="http://www.w3.org/1999/xlink">
<g id="graph0" class="graph" transform="scale(1 1) rotate(0) translate(43.2 709.2)">
<title>PWN_MemorySkills</title>
<polygon fill="#0f172a" stroke="none" points="-43.2,43.2 -43.2,-709.2 1711.83,-709.2 1711.83,43.2 -43.2,43.2"/>
<text xml:space="preserve" text-anchor="start" x="498.31" y="-644" font-family="sans-Serif" font-weight="bold" font-size="20.00" fill="#e2e8f0">Persistent Knowledge &#45; Memory · Skills · Learning · Mistakes · Sessions</text>
<text xml:space="preserve" text-anchor="start" x="709.06" y="-632.55" font-family="sans-Serif" font-size="11.00" fill="#94a3b8">everything under ~/.pwn/ that shapes future prompts</text>
<g id="clust1" class="cluster">
<title>cluster_write</title>
<path fill="#022c22" stroke="#047857" d="M20,-504.5C20,-504.5 1026,-504.5 1026,-504.5 1032,-504.5 1038,-510.5 1038,-516.5 1038,-516.5 1038,-607 1038,-607 1038,-613 1032,-619 1026,-619 1026,-619 20,-619 20,-619 14,-619 8,-613 8,-607 8,-607 8,-516.5 8,-516.5 8,-510.5 14,-504.5 20,-504.5"/>
<text xml:space="preserve" text-anchor="middle" x="523" y="-596" font-family="sans-Serif" font-size="20.00" fill="#a7f3d0">Write&#45;Side Tools</text>
</g>
<g id="clust3" class="cluster">
<title>cluster_files</title>
<path fill="#422006" stroke="#a16207" d="M23,-306.5C23,-306.5 1362,-306.5 1362,-306.5 1368,-306.5 1374,-312.5 1374,-318.5 1374,-318.5 1374,-433.5 1374,-433.5 1374,-439.5 1368,-445.5 1362,-445.5 1362,-445.5 23,-445.5 23,-445.5 17,-445.5 11,-439.5 11,-433.5 11,-433.5 11,-318.5 11,-318.5 11,-312.5 17,-306.5 23,-306.5"/>
<text xml:space="preserve" text-anchor="middle" x="692.5" y="-422.5" font-family="sans-Serif" font-size="20.00" fill="#fde68a">~/.pwn/</text>
</g>
<g id="clust5" class="cluster">
<title>cluster_read</title>
<path fill="#2e1065" stroke="#6d28d9" d="M40,-149C40,-149 902,-149 902,-149 908,-149 914,-155 914,-161 914,-161 914,-259.5 914,-259.5 914,-265.5 908,-271.5 902,-271.5 902,-271.5 40,-271.5 40,-271.5 34,-271.5 28,-265.5 28,-259.5 28,-259.5 28,-161 28,-161 28,-155 34,-149 40,-149"/>
<text xml:space="preserve" text-anchor="middle" x="471" y="-248.5" font-family="sans-Serif" font-size="20.00" fill="#ddd6fe">Read&#45;Side / Injection</text>
</g>
<!-- Rem -->
<g id="node1" class="node">
<title>Rem</title>
<path fill="#6ee7b7" stroke="#334155" stroke-width="1.3" d="M714.25,-548.5C714.25,-548.5 627.75,-548.5 627.75,-548.5 621.75,-548.5 615.75,-542.5 615.75,-536.5 615.75,-536.5 615.75,-524.5 615.75,-524.5 615.75,-518.5 621.75,-512.5 627.75,-512.5 627.75,-512.5 714.25,-512.5 714.25,-512.5 720.25,-512.5 726.25,-518.5 726.25,-524.5 726.25,-524.5 726.25,-536.5 726.25,-536.5 726.25,-542.5 720.25,-548.5 714.25,-548.5"/>
<text xml:space="preserve" text-anchor="middle" x="671" y="-533" font-family="sans-Serif" font-size="10.00" fill="#0f172a">memory_remember</text>
<text xml:space="preserve" text-anchor="middle" x="671" y="-521" font-family="sans-Serif" font-size="10.00" fill="#0f172a">key · value · category</text>
</g>
<!-- Fmem -->
<g id="node8" class="node">
<title>Fmem</title>
<path fill="#fcd34d" stroke="#334155" stroke-width="1.3" d="M1204.12,-362.75C1204.12,-364.96 1177.18,-366.75 1144,-366.75 1110.82,-366.75 1083.88,-364.96 1083.88,-362.75 1083.88,-362.75 1083.88,-326.75 1083.88,-326.75 1083.88,-324.54 1110.82,-322.75 1144,-322.75 1177.18,-322.75 1204.12,-324.54 1204.12,-326.75 1204.12,-326.75 1204.12,-362.75 1204.12,-362.75"/>
<path fill="none" stroke="#334155" stroke-width="1.3" d="M1204.12,-362.75C1204.12,-360.54 1177.18,-358.75 1144,-358.75 1110.82,-358.75 1083.88,-360.54 1083.88,-362.75"/>
<text xml:space="preserve" text-anchor="middle" x="1144" y="-347.25" font-family="sans-Serif" font-size="10.00" fill="#0f172a">memory.json</text>
<text xml:space="preserve" text-anchor="middle" x="1144" y="-335.25" font-family="sans-Serif" font-size="10.00" fill="#0f172a">fact · pref · lesson · env</text>
</g>
<!-- Rem&#45;&gt;Fmem -->
<g id="edge1" class="edge">
<title>Rem&#45;&gt;Fmem</title>
<path fill="none" stroke="#f59e0b" stroke-width="1.3" d="M671.3,-512.03C672.64,-494.1 677.8,-466.97 696,-453.5 712.39,-441.36 1044.68,-454.47 1063,-445.5 1092.85,-430.89 1115.39,-399.5 1129.01,-375.82"/>
<polygon fill="#f59e0b" stroke="#f59e0b" stroke-width="1.3" points="1131.43,-377.24 1132.85,-368.89 1126.52,-374.53 1131.43,-377.24"/>
</g>
<!-- Fidx -->
<g id="node9" class="node">
<title>Fidx</title>
<path fill="#fcd34d" stroke="#334155" stroke-width="1.3" d="M674.75,-369.5C674.75,-372.53 654.69,-375 630,-375 605.31,-375 585.25,-372.53 585.25,-369.5 585.25,-369.5 585.25,-320 585.25,-320 585.25,-316.97 605.31,-314.5 630,-314.5 654.69,-314.5 674.75,-316.97 674.75,-320 674.75,-320 674.75,-369.5 674.75,-369.5"/>
<path fill="none" stroke="#334155" stroke-width="1.3" d="M674.75,-369.5C674.75,-366.47 654.69,-364 630,-364 605.31,-364 585.25,-366.47 585.25,-369.5"/>
<text xml:space="preserve" text-anchor="middle" x="630" y="-353.25" font-family="sans-Serif" font-size="10.00" fill="#0f172a">memory.idx</text>
<text xml:space="preserve" text-anchor="middle" x="630" y="-341.25" font-family="sans-Serif" font-size="10.00" fill="#0f172a">embedding index</text>
<text xml:space="preserve" text-anchor="middle" x="630" y="-329.25" font-family="sans-Serif" font-size="10.00" fill="#0f172a">(sha → vec)</text>
</g>
<!-- Rem&#45;&gt;Fidx -->
<g id="edge18" class="edge">
<title>Rem&#45;&gt;Fidx</title>
<path fill="none" stroke="#fbbf24" stroke-width="1.3" stroke-dasharray="5,2" d="M631.11,-511.89C616.01,-503.01 600.43,-490.65 592,-474.5 577.07,-445.92 589.38,-410.62 603.84,-384.22"/>
<polygon fill="#fbbf24" stroke="#fbbf24" stroke-width="1.3" points="606.24,-385.66 607.81,-377.33 601.39,-382.87 606.24,-385.66"/>
<text xml:space="preserve" text-anchor="middle" x="616" y="-465.95" font-family="sans-Serif" font-size="9.00" fill="#cbd5e1">incremental</text>
<text xml:space="preserve" text-anchor="middle" x="616" y="-455.45" font-family="sans-Serif" font-size="9.00" fill="#cbd5e1">re&#45;embed</text>
</g>
<!-- Skc -->
<g id="node2" class="node">
<title>Skc</title>
<path fill="#6ee7b7" stroke="#334155" stroke-width="1.3" d="M104,-548.5C104,-548.5 28,-548.5 28,-548.5 22,-548.5 16,-542.5 16,-536.5 16,-536.5 16,-524.5 16,-524.5 16,-518.5 22,-512.5 28,-512.5 28,-512.5 104,-512.5 104,-512.5 110,-512.5 116,-518.5 116,-524.5 116,-524.5 116,-536.5 116,-536.5 116,-542.5 110,-548.5 104,-548.5"/>
<text xml:space="preserve" text-anchor="middle" x="66" y="-533" font-family="sans-Serif" font-size="10.00" fill="#0f172a">skill_create</text>
<text xml:space="preserve" text-anchor="middle" x="66" y="-521" font-family="sans-Serif" font-size="10.00" fill="#0f172a">skill_add_reference</text>
</g>
<!-- Fskl -->
<g id="node10" class="node">
<title>Fskl</title>
<path fill="#fcd34d" stroke="#334155" stroke-width="1.3" d="M132.75,-362.75C132.75,-364.96 107.31,-366.75 76,-366.75 44.69,-366.75 19.25,-364.96 19.25,-362.75 19.25,-362.75 19.25,-326.75 19.25,-326.75 19.25,-324.54 44.69,-322.75 76,-322.75 107.31,-322.75 132.75,-324.54 132.75,-326.75 132.75,-326.75 132.75,-362.75 132.75,-362.75"/>
<path fill="none" stroke="#334155" stroke-width="1.3" d="M132.75,-362.75C132.75,-360.54 107.31,-358.75 76,-358.75 44.69,-358.75 19.25,-360.54 19.25,-362.75"/>
<text xml:space="preserve" text-anchor="middle" x="76" y="-347.25" font-family="sans-Serif" font-size="10.00" fill="#0f172a">skills/&lt;n&gt;/SKILL.md</text>
<text xml:space="preserve" text-anchor="middle" x="76" y="-335.25" font-family="sans-Serif" font-size="10.00" fill="#0f172a">YAML front&#45;matter refs</text>
</g>
<!-- Skc&#45;&gt;Fskl -->
<g id="edge2" class="edge">
<title>Skc&#45;&gt;Fskl</title>
<path fill="none" stroke="#f59e0b" stroke-width="1.3" d="M66.96,-511.88C68.65,-480.79 72.19,-415.83 74.3,-376.99"/>
<polygon fill="#f59e0b" stroke="#f59e0b" stroke-width="1.3" points="77.08,-377.35 74.72,-369.21 71.49,-377.05 77.08,-377.35"/>
</g>
<!-- Note -->
<g id="node3" class="node">
<title>Note</title>
<path fill="#6ee7b7" stroke="#334155" stroke-width="1.3" d="M400.25,-548.5C400.25,-548.5 307.75,-548.5 307.75,-548.5 301.75,-548.5 295.75,-542.5 295.75,-536.5 295.75,-536.5 295.75,-524.5 295.75,-524.5 295.75,-518.5 301.75,-512.5 307.75,-512.5 307.75,-512.5 400.25,-512.5 400.25,-512.5 406.25,-512.5 412.25,-518.5 412.25,-524.5 412.25,-524.5 412.25,-536.5 412.25,-536.5 412.25,-542.5 406.25,-548.5 400.25,-548.5"/>
<text xml:space="preserve" text-anchor="middle" x="354" y="-533" font-family="sans-Serif" font-size="10.00" fill="#0f172a">learning_note_outcome</text>
<text xml:space="preserve" text-anchor="middle" x="354" y="-521" font-family="sans-Serif" font-size="10.00" fill="#0f172a">learning_reflect</text>
</g>
<!-- Flrn -->
<g id="node11" class="node">
<title>Flrn</title>
<path fill="#fcd34d" stroke="#334155" stroke-width="1.3" d="M370.5,-362.75C370.5,-364.96 354.14,-366.75 334,-366.75 313.86,-366.75 297.5,-364.96 297.5,-362.75 297.5,-362.75 297.5,-326.75 297.5,-326.75 297.5,-324.54 313.86,-322.75 334,-322.75 354.14,-322.75 370.5,-324.54 370.5,-326.75 370.5,-326.75 370.5,-362.75 370.5,-362.75"/>
<path fill="none" stroke="#334155" stroke-width="1.3" d="M370.5,-362.75C370.5,-360.54 354.14,-358.75 334,-358.75 313.86,-358.75 297.5,-360.54 297.5,-362.75"/>
<text xml:space="preserve" text-anchor="middle" x="334" y="-347.25" font-family="sans-Serif" font-size="10.00" fill="#0f172a">learning.jsonl</text>
<text xml:space="preserve" text-anchor="middle" x="334" y="-335.25" font-family="sans-Serif" font-size="10.00" fill="#0f172a">outcome log</text>
</g>
<!-- Note&#45;&gt;Flrn -->
<g id="edge3" class="edge">
<title>Note&#45;&gt;Flrn</title>
<path fill="none" stroke="#f59e0b" stroke-width="1.3" d="M348.1,-511.89C344.79,-501.2 340.95,-487.22 339,-474.5 333.93,-441.51 333.07,-403.25 333.24,-377.06"/>
<polygon fill="#f59e0b" stroke="#f59e0b" stroke-width="1.3" points="336.03,-377.31 333.33,-369.27 330.43,-377.24 336.03,-377.31"/>
</g>
<!-- Dist -->
<g id="node4" class="node">
<title>Dist</title>
<path fill="#6ee7b7" stroke="#334155" stroke-width="1.3" d="M244,-548.5C244,-548.5 168,-548.5 168,-548.5 162,-548.5 156,-542.5 156,-536.5 156,-536.5 156,-524.5 156,-524.5 156,-518.5 162,-512.5 168,-512.5 168,-512.5 244,-512.5 244,-512.5 250,-512.5 256,-518.5 256,-524.5 256,-524.5 256,-536.5 256,-536.5 256,-542.5 250,-548.5 244,-548.5"/>
<text xml:space="preserve" text-anchor="middle" x="206" y="-533" font-family="sans-Serif" font-size="10.00" fill="#0f172a">learning_distill_skill</text>
<text xml:space="preserve" text-anchor="middle" x="206" y="-521" font-family="sans-Serif" font-size="10.00" fill="#0f172a">(session → skill)</text>
</g>
<!-- Dist&#45;&gt;Fskl -->
<g id="edge4" class="edge">
<title>Dist&#45;&gt;Fskl</title>
<path fill="none" stroke="#f59e0b" stroke-width="1.3" d="M193.54,-511.88C171.17,-480.27 124.01,-413.61 96.71,-375.03"/>
<polygon fill="#f59e0b" stroke="#f59e0b" stroke-width="1.3" points="99.25,-373.77 92.34,-368.85 94.68,-377 99.25,-373.77"/>
</g>
<!-- Fses -->
<g id="node12" class="node">
<title>Fses</title>
<path fill="#fcd34d" stroke="#334155" stroke-width="1.3" d="M257.5,-362.75C257.5,-364.96 238.45,-366.75 215,-366.75 191.55,-366.75 172.5,-364.96 172.5,-362.75 172.5,-362.75 172.5,-326.75 172.5,-326.75 172.5,-324.54 191.55,-322.75 215,-322.75 238.45,-322.75 257.5,-324.54 257.5,-326.75 257.5,-326.75 257.5,-362.75 257.5,-362.75"/>
<path fill="none" stroke="#334155" stroke-width="1.3" d="M257.5,-362.75C257.5,-360.54 238.45,-358.75 215,-358.75 191.55,-358.75 172.5,-360.54 172.5,-362.75"/>
<text xml:space="preserve" text-anchor="middle" x="215" y="-347.25" font-family="sans-Serif" font-size="10.00" fill="#0f172a">sessions/*.jsonl</text>
<text xml:space="preserve" text-anchor="middle" x="215" y="-335.25" font-family="sans-Serif" font-size="10.00" fill="#0f172a">transcripts</text>
</g>
<!-- Dist&#45;&gt;Fses -->
<g id="edge5" class="edge">
<title>Dist&#45;&gt;Fses</title>
<path fill="none" stroke="#fbbf24" stroke-width="1.3" stroke-dasharray="5,2" d="M207.33,-502.31C209.13,-465.56 212.3,-400.8 213.95,-367.25"/>
<polygon fill="#fbbf24" stroke="#fbbf24" stroke-width="1.3" points="204.55,-501.79 206.96,-509.92 210.15,-502.06 204.55,-501.79"/>
<text xml:space="preserve" text-anchor="middle" x="219.82" y="-460.7" font-family="sans-Serif" font-size="9.00" fill="#cbd5e1">mine</text>
</g>
<!-- Mrec -->
<g id="node5" class="node">
<title>Mrec</title>
<path fill="#6ee7b7" stroke="#334155" stroke-width="1.3" d="M847.25,-548.5C847.25,-548.5 778.75,-548.5 778.75,-548.5 772.75,-548.5 766.75,-542.5 766.75,-536.5 766.75,-536.5 766.75,-524.5 766.75,-524.5 766.75,-518.5 772.75,-512.5 778.75,-512.5 778.75,-512.5 847.25,-512.5 847.25,-512.5 853.25,-512.5 859.25,-518.5 859.25,-524.5 859.25,-524.5 859.25,-536.5 859.25,-536.5 859.25,-542.5 853.25,-548.5 847.25,-548.5"/>
<text xml:space="preserve" text-anchor="middle" x="813" y="-533" font-family="sans-Serif" font-size="10.00" fill="#0f172a">mistakes_record</text>
<text xml:space="preserve" text-anchor="middle" x="813" y="-521" font-family="sans-Serif" font-size="10.00" fill="#0f172a">mistakes_resolve</text>
</g>
<!-- Mrec&#45;&gt;Fmem -->
<g id="edge7" class="edge">
<title>Mrec&#45;&gt;Fmem</title>
<path fill="none" stroke="#fbbf24" stroke-width="1.3" stroke-dasharray="5,2" d="M859.83,-511.93C866.59,-509.42 873.47,-506.88 880,-504.5 943.39,-481.37 957.97,-471.5 1023,-453.5 1040.47,-448.66 1047.48,-454.87 1063,-445.5 1090.94,-428.63 1113.4,-398.46 1127.52,-375.71"/>
<polygon fill="#fbbf24" stroke="#fbbf24" stroke-width="1.3" points="1129.78,-377.38 1131.5,-369.08 1124.98,-374.49 1129.78,-377.38"/>
<text xml:space="preserve" text-anchor="middle" x="1056" y="-460.7" font-family="sans-Serif" font-size="9.00" fill="#cbd5e1">resolve→lesson</text>
</g>
<!-- Fmis -->
<g id="node13" class="node">
<title>Fmis</title>
<path fill="#fcd34d" stroke="#334155" stroke-width="1.3" d="M854.88,-362.75C854.88,-364.96 823.56,-366.75 785,-366.75 746.44,-366.75 715.12,-364.96 715.12,-362.75 715.12,-362.75 715.12,-326.75 715.12,-326.75 715.12,-324.54 746.44,-322.75 785,-322.75 823.56,-322.75 854.88,-324.54 854.88,-326.75 854.88,-326.75 854.88,-362.75 854.88,-362.75"/>
<path fill="none" stroke="#334155" stroke-width="1.3" d="M854.88,-362.75C854.88,-360.54 823.56,-358.75 785,-358.75 746.44,-358.75 715.12,-360.54 715.12,-362.75"/>
<text xml:space="preserve" text-anchor="middle" x="785" y="-347.25" font-family="sans-Serif" font-size="10.00" fill="#0f172a">mistakes.json</text>
<text xml:space="preserve" text-anchor="middle" x="785" y="-335.25" font-family="sans-Serif" font-size="10.00" fill="#0f172a">sig → count · fix · regressed</text>
</g>
<!-- Mrec&#45;&gt;Fmis -->
<g id="edge6" class="edge">
<title>Mrec&#45;&gt;Fmis</title>
<path fill="none" stroke="#f59e0b" stroke-width="1.3" d="M805.63,-512C801.48,-501.35 796.62,-487.37 794,-474.5 787.32,-441.74 785.37,-403.44 784.9,-377.18"/>
<polygon fill="#f59e0b" stroke="#f59e0b" stroke-width="1.3" points="787.71,-377.33 784.81,-369.36 782.11,-377.4 787.71,-377.33"/>
</g>
<!-- Fprf -->
<g id="node16" class="node">
<title>Fprf</title>
<path fill="#fcd34d" stroke="#334155" stroke-width="1.3" d="M1043.38,-362.75C1043.38,-364.96 1010.04,-366.75 969,-366.75 927.96,-366.75 894.62,-364.96 894.62,-362.75 894.62,-362.75 894.62,-326.75 894.62,-326.75 894.62,-324.54 927.96,-322.75 969,-322.75 1010.04,-322.75 1043.38,-324.54 1043.38,-326.75 1043.38,-326.75 1043.38,-362.75 1043.38,-362.75"/>
<path fill="none" stroke="#334155" stroke-width="1.3" d="M1043.38,-362.75C1043.38,-360.54 1010.04,-358.75 969,-358.75 927.96,-358.75 894.62,-360.54 894.62,-362.75"/>
<text xml:space="preserve" text-anchor="middle" x="969" y="-347.25" font-family="sans-Serif" font-size="10.00" fill="#0f172a">preferences.jsonl</text>
<text xml:space="preserve" text-anchor="middle" x="969" y="-335.25" font-family="sans-Serif" font-size="10.00" fill="#0f172a">DPO (prompt,rejected,chosen)</text>
</g>
<!-- Mrec&#45;&gt;Fprf -->
<g id="edge34" class="edge">
<title>Mrec&#45;&gt;Fprf</title>
<path fill="none" stroke="#fbbf24" stroke-width="1.3" stroke-dasharray="5,2" d="M811.72,-512.09C811.47,-494.73 814.05,-468.56 829.75,-453.5 844.49,-439.36 857.03,-455.2 875,-445.5 905.96,-428.79 932.51,-398.11 949.42,-375.17"/>
<polygon fill="#fbbf24" stroke="#fbbf24" stroke-width="1.3" points="951.67,-376.84 954.06,-368.71 947.12,-373.58 951.67,-376.84"/>
<text xml:space="preserve" text-anchor="middle" x="859.38" y="-460.7" font-family="sans-Serif" font-size="9.00" fill="#cbd5e1">resolve → pair</text>
</g>
<!-- Xft -->
<g id="node6" class="node">
<title>Xft</title>
<path fill="#6ee7b7" stroke="#334155" stroke-width="1.3" d="M563.25,-548.5C563.25,-548.5 464.75,-548.5 464.75,-548.5 458.75,-548.5 452.75,-542.5 452.75,-536.5 452.75,-536.5 452.75,-524.5 452.75,-524.5 452.75,-518.5 458.75,-512.5 464.75,-512.5 464.75,-512.5 563.25,-512.5 563.25,-512.5 569.25,-512.5 575.25,-518.5 575.25,-524.5 575.25,-524.5 575.25,-536.5 575.25,-536.5 575.25,-542.5 569.25,-548.5 563.25,-548.5"/>
<text xml:space="preserve" text-anchor="middle" x="514" y="-533" font-family="sans-Serif" font-size="10.00" fill="#0f172a">Learning.export_finetune</text>
<text xml:space="preserve" text-anchor="middle" x="514" y="-521" font-family="sans-Serif" font-size="10.00" fill="#0f172a">(sessions → dataset)</text>
</g>
<!-- Xft&#45;&gt;Flrn -->
<g id="edge21" class="edge">
<title>Xft&#45;&gt;Flrn</title>
<path fill="none" stroke="#fbbf24" stroke-width="1.3" stroke-dasharray="5,2" d="M479.66,-506.6C444.54,-483.1 394.61,-449.41 391,-445.5 369.22,-421.9 352.29,-388.53 342.72,-367.02"/>
<polygon fill="#fbbf24" stroke="#fbbf24" stroke-width="1.3" points="477.95,-508.82 486.15,-510.94 481.06,-504.17 477.95,-508.82"/>
<text xml:space="preserve" text-anchor="middle" x="455.33" y="-460.7" font-family="sans-Serif" font-size="9.00" fill="#cbd5e1">success:true</text>
</g>
<!-- Xft&#45;&gt;Fses -->
<g id="edge20" class="edge">
<title>Xft&#45;&gt;Fses</title>
<path fill="none" stroke="#fbbf24" stroke-width="1.3" stroke-dasharray="5,2" d="M449.22,-508.86C384.25,-487.77 291.88,-456.6 278,-445.5 251.77,-424.52 233.29,-389.48 223.4,-367.01"/>
<polygon fill="#fbbf24" stroke="#fbbf24" stroke-width="1.3" points="448.25,-511.49 456.72,-511.29 449.97,-506.16 448.25,-511.49"/>
<text xml:space="preserve" text-anchor="middle" x="354.81" y="-460.7" font-family="sans-Serif" font-size="9.00" fill="#cbd5e1">mine</text>
</g>
<!-- Fftn -->
<g id="node15" class="node">
<title>Fftn</title>
<path fill="#fcd34d" stroke="#334155" stroke-width="1.3" d="M545.25,-362.75C545.25,-364.96 515.11,-366.75 478,-366.75 440.89,-366.75 410.75,-364.96 410.75,-362.75 410.75,-362.75 410.75,-326.75 410.75,-326.75 410.75,-324.54 440.89,-322.75 478,-322.75 515.11,-322.75 545.25,-324.54 545.25,-326.75 545.25,-326.75 545.25,-362.75 545.25,-362.75"/>
<path fill="none" stroke="#334155" stroke-width="1.3" d="M545.25,-362.75C545.25,-360.54 515.11,-358.75 478,-358.75 440.89,-358.75 410.75,-360.54 410.75,-362.75"/>
<text xml:space="preserve" text-anchor="middle" x="478" y="-347.25" font-family="sans-Serif" font-size="10.00" fill="#0f172a">finetune/*.jsonl</text>
<text xml:space="preserve" text-anchor="middle" x="478" y="-335.25" font-family="sans-Serif" font-size="10.00" fill="#0f172a">ShareGPT / OpenAI / DPO</text>
</g>
<!-- Xft&#45;&gt;Fftn -->
<g id="edge19" class="edge">
<title>Xft&#45;&gt;Fftn</title>
<path fill="none" stroke="#f59e0b" stroke-width="1.3" d="M510.55,-511.88C504.46,-480.79 491.73,-415.83 484.12,-376.99"/>
<polygon fill="#f59e0b" stroke="#f59e0b" stroke-width="1.3" points="486.88,-376.49 482.59,-369.18 481.38,-377.57 486.88,-376.49"/>
</g>
<!-- Rdpo -->
<g id="node7" class="node">
<title>Rdpo</title>
<path fill="#6ee7b7" stroke="#334155" stroke-width="1.3" d="M1018.38,-548.5C1018.38,-548.5 911.62,-548.5 911.62,-548.5 905.62,-548.5 899.62,-542.5 899.62,-536.5 899.62,-536.5 899.62,-524.5 899.62,-524.5 899.62,-518.5 905.62,-512.5 911.62,-512.5 911.62,-512.5 1018.38,-512.5 1018.38,-512.5 1024.38,-512.5 1030.38,-518.5 1030.38,-524.5 1030.38,-524.5 1030.38,-536.5 1030.38,-536.5 1030.38,-542.5 1024.38,-548.5 1018.38,-548.5"/>
<text xml:space="preserve" text-anchor="middle" x="965" y="-533" font-family="sans-Serif" font-size="10.00" fill="#0f172a">Reward.record_preference</text>
<text xml:space="preserve" text-anchor="middle" x="965" y="-521" font-family="sans-Serif" font-size="10.00" fill="#0f172a">export_dpo</text>
</g>
<!-- Rdpo&#45;&gt;Fprf -->
<g id="edge33" class="edge">
<title>Rdpo&#45;&gt;Fprf</title>
<path fill="none" stroke="#f59e0b" stroke-width="1.3" d="M982.75,-511.89C991.59,-501.86 1001.35,-488.52 1006,-474.5 1017.12,-440.98 1002.03,-401.93 987.91,-375.7"/>
<polygon fill="#f59e0b" stroke="#f59e0b" stroke-width="1.3" points="990.53,-374.64 984.17,-369.04 985.65,-377.39 990.53,-374.64"/>
</g>
<!-- Rec -->
<g id="node17" class="node">
<title>Rec</title>
<path fill="#c4b5fd" stroke="#334155" stroke-width="1.3" d="M893.88,-197C893.88,-197 838.12,-197 838.12,-197 832.12,-197 826.12,-191 826.12,-185 826.12,-185 826.12,-173 826.12,-173 826.12,-167 832.12,-161 838.12,-161 838.12,-161 893.88,-161 893.88,-161 899.88,-161 905.88,-167 905.88,-173 905.88,-173 905.88,-185 905.88,-185 905.88,-191 899.88,-197 893.88,-197"/>
<text xml:space="preserve" text-anchor="middle" x="866" y="-175.5" font-family="sans-Serif" font-size="10.00" fill="#0f172a">memory_recall</text>
</g>
<!-- Fmem&#45;&gt;Rec -->
<g id="edge8" class="edge">
<title>Fmem&#45;&gt;Rec</title>
<path fill="none" stroke="#a78bfa" stroke-width="1.3" d="M1107.66,-322.34C1054.96,-291.3 957.78,-234.06 904.11,-202.45"/>
<polygon fill="#a78bfa" stroke="#a78bfa" stroke-width="1.3" points="905.57,-200.06 897.26,-198.41 902.73,-204.88 905.57,-200.06"/>
</g>
<!-- Midx -->
<g id="node18" class="node">
<title>Midx</title>
<path fill="#c4b5fd" stroke="#334155" stroke-width="2" d="M774.12,-201C774.12,-201 713.88,-201 713.88,-201 707.88,-201 701.88,-195 701.88,-189 701.88,-189 701.88,-169 701.88,-169 701.88,-163 707.88,-157 713.88,-157 713.88,-157 774.12,-157 774.12,-157 780.12,-157 786.12,-163 786.12,-169 786.12,-169 786.12,-189 786.12,-189 786.12,-195 780.12,-201 774.12,-201"/>
<text xml:space="preserve" text-anchor="middle" x="744" y="-187.5" font-family="sans-Serif" font-size="10.00" fill="#0f172a">MemoryIndex</text>
<text xml:space="preserve" text-anchor="middle" x="744" y="-175.5" font-family="sans-Serif" font-size="10.00" fill="#0f172a">recall_semantic</text>
<text xml:space="preserve" text-anchor="middle" x="744" y="-163.5" font-family="sans-Serif" font-size="10.00" fill="#0f172a">(cosine top&#45;K)</text>
</g>
<!-- Fmem&#45;&gt;Midx -->
<g id="edge23" class="edge">
<title>Fmem&#45;&gt;Midx</title>
<path fill="none" stroke="#a78bfa" stroke-width="1.3" stroke-dasharray="5,2" d="M1104.11,-322.57C1091.29,-316.54 1076.82,-310.52 1063,-306.5 952.32,-274.29 903.95,-332.27 806,-271.5 783.13,-257.31 766.71,-231.21 756.54,-210.5"/>
<polygon fill="#a78bfa" stroke="#a78bfa" stroke-width="1.3" points="759.19,-209.56 753.27,-203.5 754.12,-211.94 759.19,-209.56"/>
</g>
<!-- ReVal -->
<g id="node25" class="node">
<title>ReVal</title>
<path fill="#fcd34d" stroke="#334155" stroke-width="1.3" d="M1356.12,-552.5C1356.12,-552.5 1253.88,-552.5 1253.88,-552.5 1247.88,-552.5 1241.88,-546.5 1241.88,-540.5 1241.88,-540.5 1241.88,-520.5 1241.88,-520.5 1241.88,-514.5 1247.88,-508.5 1253.88,-508.5 1253.88,-508.5 1356.12,-508.5 1356.12,-508.5 1362.12,-508.5 1368.12,-514.5 1368.12,-520.5 1368.12,-520.5 1368.12,-540.5 1368.12,-540.5 1368.12,-546.5 1362.12,-552.5 1356.12,-552.5"/>
<text xml:space="preserve" text-anchor="middle" x="1305" y="-539" font-family="sans-Serif" font-size="10.00" fill="#0f172a">Extrospection.verify</text>
<text xml:space="preserve" text-anchor="middle" x="1305" y="-527" font-family="sans-Serif" font-size="10.00" fill="#0f172a">revalidate_memory (cron)</text>
<text xml:space="preserve" text-anchor="middle" x="1305" y="-515" font-family="sans-Serif" font-size="10.00" fill="#0f172a">browser&#45;backed GC</text>
</g>
<!-- Fmem&#45;&gt;ReVal -->
<g id="edge30" class="edge">
<title>Fmem&#45;&gt;ReVal</title>
<path fill="none" stroke="#94a3b8" stroke-width="1.3" stroke-dasharray="5,2" d="M1127.57,-367C1108.55,-394.39 1082.78,-442.3 1107.25,-474.5 1122.59,-494.68 1181.95,-509.42 1231.67,-518.53"/>
<polygon fill="#94a3b8" stroke="#94a3b8" stroke-width="1.3" points="1231.16,-521.28 1239.53,-519.93 1232.14,-515.77 1231.16,-521.28"/>
<text xml:space="preserve" text-anchor="middle" x="1149.62" y="-460.7" font-family="sans-Serif" font-size="9.00" fill="#cbd5e1">:fact w/ CVE|ver|URL</text>
</g>
<!-- Fidx&#45;&gt;Midx -->
<g id="edge22" class="edge">
<title>Fidx&#45;&gt;Midx</title>
<path fill="none" stroke="#a78bfa" stroke-width="1.3" d="M651.7,-314.01C661.1,-301.01 672.18,-285.56 682,-271.5 696.29,-251.04 712.07,-227.75 724.13,-209.78"/>
<polygon fill="#a78bfa" stroke="#a78bfa" stroke-width="1.3" points="726.17,-211.77 728.29,-203.57 721.51,-208.65 726.17,-211.77"/>
</g>
<!-- Skv -->
<g id="node19" class="node">
<title>Skv</title>
<path fill="#c4b5fd" stroke="#334155" stroke-width="1.3" d="M104.25,-197C104.25,-197 47.75,-197 47.75,-197 41.75,-197 35.75,-191 35.75,-185 35.75,-185 35.75,-173 35.75,-173 35.75,-167 41.75,-161 47.75,-161 47.75,-161 104.25,-161 104.25,-161 110.25,-161 116.25,-167 116.25,-173 116.25,-173 116.25,-185 116.25,-185 116.25,-191 110.25,-197 104.25,-197"/>
<text xml:space="preserve" text-anchor="middle" x="76" y="-175.5" font-family="sans-Serif" font-size="10.00" fill="#0f172a">skill_list · view</text>
</g>
<!-- Fskl&#45;&gt;Skv -->
<g id="edge9" class="edge">
<title>Fskl&#45;&gt;Skv</title>
<path fill="none" stroke="#a78bfa" stroke-width="1.3" d="M76,-322.34C76,-292.77 76,-239.43 76,-207.11"/>
<polygon fill="#a78bfa" stroke="#a78bfa" stroke-width="1.3" points="78.8,-207.38 76,-199.38 73.2,-207.38 78.8,-207.38"/>
</g>
<!-- Out -->
<g id="node20" class="node">
<title>Out</title>
<path fill="#c4b5fd" stroke="#334155" stroke-width="1.3" d="M529.88,-197C529.88,-197 456.12,-197 456.12,-197 450.12,-197 444.12,-191 444.12,-185 444.12,-185 444.12,-173 444.12,-173 444.12,-167 450.12,-161 456.12,-161 456.12,-161 529.88,-161 529.88,-161 535.88,-161 541.88,-167 541.88,-173 541.88,-173 541.88,-185 541.88,-185 541.88,-191 535.88,-197 529.88,-197"/>
<text xml:space="preserve" text-anchor="middle" x="493" y="-181.5" font-family="sans-Serif" font-size="10.00" fill="#0f172a">learning_outcomes</text>
<text xml:space="preserve" text-anchor="middle" x="493" y="-169.5" font-family="sans-Serif" font-size="10.00" fill="#0f172a">learning_stats</text>
</g>
<!-- Flrn&#45;&gt;Out -->
<g id="edge10" class="edge">
<title>Flrn&#45;&gt;Out</title>
<path fill="none" stroke="#a78bfa" stroke-width="1.3" d="M363.1,-323.29C381.52,-309.66 405.3,-290.77 424,-271.5 443.82,-251.07 463.04,-224.89 476.14,-205.77"/>
<polygon fill="#a78bfa" stroke="#a78bfa" stroke-width="1.3" points="478.45,-207.36 480.61,-199.16 473.81,-204.23 478.45,-207.36"/>
</g>
<!-- Exem -->
<g id="node23" class="node">
<title>Exem</title>
<path fill="#c4b5fd" stroke="#334155" stroke-width="1.3" d="M391.62,-197C391.62,-197 298.38,-197 298.38,-197 292.38,-197 286.38,-191 286.38,-185 286.38,-185 286.38,-173 286.38,-173 286.38,-167 292.38,-161 298.38,-161 298.38,-161 391.62,-161 391.62,-161 397.62,-161 403.62,-167 403.62,-173 403.62,-173 403.62,-185 403.62,-185 403.62,-191 397.62,-197 391.62,-197"/>
<text xml:space="preserve" text-anchor="middle" x="345" y="-181.5" font-family="sans-Serif" font-size="10.00" fill="#0f172a">Learning.exemplars_for</text>
<text xml:space="preserve" text-anchor="middle" x="345" y="-169.5" font-family="sans-Serif" font-size="10.00" fill="#0f172a">(few&#45;shot trace)</text>
</g>
<!-- Flrn&#45;&gt;Exem -->
<g id="edge24" class="edge">
<title>Flrn&#45;&gt;Exem</title>
<path fill="none" stroke="#a78bfa" stroke-width="1.3" d="M335.44,-322.34C337.42,-292.77 341.01,-239.43 343.18,-207.11"/>
<polygon fill="#a78bfa" stroke="#a78bfa" stroke-width="1.3" points="345.96,-207.55 343.7,-199.38 340.37,-207.17 345.96,-207.55"/>
</g>
<!-- Sesv -->
<g id="node21" class="node">
<title>Sesv</title>
<path fill="#c4b5fd" stroke="#334155" stroke-width="1.3" d="M234.12,-197C234.12,-197 167.88,-197 167.88,-197 161.88,-197 155.88,-191 155.88,-185 155.88,-185 155.88,-173 155.88,-173 155.88,-167 161.88,-161 167.88,-161 167.88,-161 234.12,-161 234.12,-161 240.12,-161 246.12,-167 246.12,-173 246.12,-173 246.12,-185 246.12,-185 246.12,-191 240.12,-197 234.12,-197"/>
<text xml:space="preserve" text-anchor="middle" x="201" y="-181.5" font-family="sans-Serif" font-size="10.00" fill="#0f172a">sessions_view</text>
<text xml:space="preserve" text-anchor="middle" x="201" y="-169.5" font-family="sans-Serif" font-size="10.00" fill="#0f172a">sessions_current</text>
</g>
<!-- Fses&#45;&gt;Sesv -->
<g id="edge11" class="edge">
<title>Fses&#45;&gt;Sesv</title>
<path fill="none" stroke="#a78bfa" stroke-width="1.3" d="M213.17,-322.34C210.64,-292.77 206.08,-239.43 203.32,-207.11"/>
<polygon fill="#a78bfa" stroke="#a78bfa" stroke-width="1.3" points="206.13,-207.11 202.66,-199.37 200.55,-207.58 206.13,-207.11"/>
</g>
<!-- Fses&#45;&gt;Exem -->
<g id="edge25" class="edge">
<title>Fses&#45;&gt;Exem</title>
<path fill="none" stroke="#a78bfa" stroke-width="1.3" stroke-dasharray="5,2" d="M232,-322.34C255.98,-292.13 299.66,-237.11 325.12,-205.04"/>
<polygon fill="#a78bfa" stroke="#a78bfa" stroke-width="1.3" points="327.17,-206.96 329.95,-198.95 322.79,-203.48 327.17,-206.96"/>
</g>
<!-- Teach -->
<g id="node26" class="node">
<title>Teach</title>
<path fill="#fda4af" stroke="#334155" stroke-width="2" d="M1656.62,-552.5C1656.62,-552.5 1563.38,-552.5 1563.38,-552.5 1557.38,-552.5 1551.38,-546.5 1551.38,-540.5 1551.38,-540.5 1551.38,-520.5 1551.38,-520.5 1551.38,-514.5 1557.38,-508.5 1563.38,-508.5 1563.38,-508.5 1656.62,-508.5 1656.62,-508.5 1662.62,-508.5 1668.62,-514.5 1668.62,-520.5 1668.62,-520.5 1668.62,-540.5 1668.62,-540.5 1668.62,-546.5 1662.62,-552.5 1656.62,-552.5"/>
<text xml:space="preserve" text-anchor="middle" x="1610" y="-539" font-family="sans-Serif" font-size="10.00" fill="#0f172a">Reflect.on</text>
<text xml:space="preserve" text-anchor="middle" x="1610" y="-527" font-family="sans-Serif" font-size="10.00" fill="#0f172a">(engine: reflect_engine)</text>
<text xml:space="preserve" text-anchor="middle" x="1610" y="-515" font-family="sans-Serif" font-size="10.00" fill="#0f172a">teacher&#45;student</text>
</g>
<!-- Fses&#45;&gt;Teach -->
<g id="edge31" class="edge">
<title>Fses&#45;&gt;Teach</title>
<path fill="none" stroke="#94a3b8" stroke-width="1.3" stroke-dasharray="5,2" d="M221.55,-367.08C230.19,-391.05 247.92,-428.79 278,-445.5 306.48,-461.33 1419.25,-446.19 1451,-453.5 1492.7,-463.1 1536.29,-484.89 1567.26,-502.69"/>
<polygon fill="#94a3b8" stroke="#94a3b8" stroke-width="1.3" points="1565.63,-504.98 1573.95,-506.6 1568.45,-500.15 1565.63,-504.98"/>
<text xml:space="preserve" text-anchor="middle" x="1529.01" y="-460.7" font-family="sans-Serif" font-size="9.00" fill="#cbd5e1">transcript</text>
</g>
<!-- Mlst -->
<g id="node22" class="node">
<title>Mlst</title>
<path fill="#c4b5fd" stroke="#334155" stroke-width="1.3" d="M649.88,-197C649.88,-197 594.12,-197 594.12,-197 588.12,-197 582.12,-191 582.12,-185 582.12,-185 582.12,-173 582.12,-173 582.12,-167 588.12,-161 594.12,-161 594.12,-161 649.88,-161 649.88,-161 655.88,-161 661.88,-167 661.88,-173 661.88,-173 661.88,-185 661.88,-185 661.88,-191 655.88,-197 649.88,-197"/>
<text xml:space="preserve" text-anchor="middle" x="622" y="-181.5" font-family="sans-Serif" font-size="10.00" fill="#0f172a">mistakes_list</text>
<text xml:space="preserve" text-anchor="middle" x="622" y="-169.5" font-family="sans-Serif" font-size="10.00" fill="#0f172a">correction_hint</text>
</g>
<!-- Fmis&#45;&gt;Mlst -->
<g id="edge12" class="edge">
<title>Fmis&#45;&gt;Mlst</title>
<path fill="none" stroke="#a78bfa" stroke-width="1.3" d="M747.6,-322.38C726.81,-309.36 701.31,-291.42 682,-271.5 663.05,-251.95 646.52,-225.62 635.63,-206.22"/>
<polygon fill="#a78bfa" stroke="#a78bfa" stroke-width="1.3" points="638.14,-204.97 631.84,-199.3 633.23,-207.67 638.14,-204.97"/>
</g>
<!-- Fext -->
<g id="node14" class="node">
<title>Fext</title>
<path fill="#fcd34d" stroke="#334155" stroke-width="1.3" d="M1366.25,-362.75C1366.25,-364.96 1338.8,-366.75 1305,-366.75 1271.2,-366.75 1243.75,-364.96 1243.75,-362.75 1243.75,-362.75 1243.75,-326.75 1243.75,-326.75 1243.75,-324.54 1271.2,-322.75 1305,-322.75 1338.8,-322.75 1366.25,-324.54 1366.25,-326.75 1366.25,-326.75 1366.25,-362.75 1366.25,-362.75"/>
<path fill="none" stroke="#334155" stroke-width="1.3" d="M1366.25,-362.75C1366.25,-360.54 1338.8,-358.75 1305,-358.75 1271.2,-358.75 1243.75,-360.54 1243.75,-362.75"/>
<text xml:space="preserve" text-anchor="middle" x="1305" y="-347.25" font-family="sans-Serif" font-size="10.00" fill="#0f172a">extrospection.json</text>
<text xml:space="preserve" text-anchor="middle" x="1305" y="-335.25" font-family="sans-Serif" font-size="10.00" fill="#0f172a">snapshot · rf · web · obs</text>
</g>
<!-- Fprf&#45;&gt;Fftn -->
<g id="edge35" class="edge">
<title>Fprf&#45;&gt;Fftn</title>
<path fill="none" stroke="#fbbf24" stroke-width="1.3" stroke-dasharray="5,2" d="M954.57,-367.3C938.38,-390.28 909.79,-424.53 875,-438.96 811.37,-465.36 628.11,-466.58 565,-438.96 535.52,-426.06 511.6,-397.69 496.35,-375.44"/>
<polygon fill="#fbbf24" stroke="#fbbf24" stroke-width="1.3" points="498.77,-374.02 492.03,-368.9 494.1,-377.11 498.77,-374.02"/>
<text xml:space="preserve" text-anchor="middle" x="720" y="-460.7" font-family="sans-Serif" font-size="9.00" fill="#cbd5e1">export_dpo</text>
</g>
<!-- Prompt -->
<g id="node24" class="node">
<title>Prompt</title>
<path fill="#7dd3fc" stroke="#334155" stroke-width="2" d="M587.62,-68C587.62,-68 398.38,-68 398.38,-68 392.38,-68 386.38,-62 386.38,-56 386.38,-56 386.38,-12 386.38,-12 386.38,-6 392.38,0 398.38,0 398.38,0 587.62,0 587.62,0 593.62,0 599.62,-6 599.62,-12 599.62,-12 599.62,-56 599.62,-56 599.62,-62 593.62,-68 587.62,-68"/>
<text xml:space="preserve" text-anchor="middle" x="493" y="-54.5" font-family="sans-Serif" font-size="10.00" fill="#0f172a">PromptBuilder.build(request:)</text>
<text xml:space="preserve" text-anchor="middle" x="493" y="-42.5" font-family="sans-Serif" font-size="10.00" fill="#0f172a">engine&#45;aware .budget</text>
<text xml:space="preserve" text-anchor="middle" x="493" y="-30.5" font-family="sans-Serif" font-size="10.00" fill="#0f172a">MEMORY (relevance&#45;ranked) + SKILLS</text>
<text xml:space="preserve" text-anchor="middle" x="493" y="-18.5" font-family="sans-Serif" font-size="10.00" fill="#0f172a">+ LEARNING + KNOWN MISTAKES/FIXES</text>
<text xml:space="preserve" text-anchor="middle" x="493" y="-6.5" font-family="sans-Serif" font-size="10.00" fill="#0f172a">+ METRICS (per&#45;engine) + EXTRO</text>
</g>
<!-- Rec&#45;&gt;Prompt -->
<g id="edge13" class="edge">
<title>Rec&#45;&gt;Prompt</title>
<path fill="none" stroke="#38bdf8" stroke-width="1.3" d="M843.72,-160.58C820.86,-143.47 783.69,-117.7 748,-102 704.48,-82.85 654.29,-68.21 610.01,-57.57"/>
<polygon fill="#38bdf8" stroke="#38bdf8" stroke-width="1.3" points="610.71,-54.86 602.28,-55.74 609.42,-60.31 610.71,-54.86"/>
</g>
<!-- Midx&#45;&gt;Prompt -->
<g id="edge26" class="edge">
<title>Midx&#45;&gt;Prompt</title>
<path fill="none" stroke="#38bdf8" stroke-width="2" d="M716.93,-156.13C696.3,-140.04 666.79,-118.22 639,-102 621.75,-91.93 602.72,-82.25 584.26,-73.53"/>
<polygon fill="#38bdf8" stroke="#38bdf8" stroke-width="2" points="585.56,-71.04 577.12,-70.2 583.19,-76.12 585.56,-71.04"/>
<text xml:space="preserve" text-anchor="middle" x="703.52" y="-114.45" font-family="sans-Serif" font-size="9.00" fill="#cbd5e1">MEMORY block</text>
<text xml:space="preserve" text-anchor="middle" x="703.52" y="-103.95" font-family="sans-Serif" font-size="9.00" fill="#cbd5e1">(top&#45;K by cosine)</text>
</g>
<!-- Skv&#45;&gt;Prompt -->
<g id="edge14" class="edge">
<title>Skv&#45;&gt;Prompt</title>
<path fill="none" stroke="#38bdf8" stroke-width="1.3" d="M110.21,-160.44C118.55,-156.45 127.51,-152.39 136,-149 214.65,-117.62 305.61,-88.68 376.03,-67.81"/>
<polygon fill="#38bdf8" stroke="#38bdf8" stroke-width="1.3" points="376.62,-70.55 383.5,-65.6 375.03,-65.18 376.62,-70.55"/>
</g>
<!-- Out&#45;&gt;Prompt -->
<g id="edge15" class="edge">
<title>Out&#45;&gt;Prompt</title>
<path fill="none" stroke="#38bdf8" stroke-width="1.3" d="M493,-160.47C493,-140.21 493,-106.13 493,-78.6"/>
<polygon fill="#38bdf8" stroke="#38bdf8" stroke-width="1.3" points="495.8,-78.75 493,-70.75 490.2,-78.75 495.8,-78.75"/>
</g>
<!-- Sesv&#45;&gt;Prompt -->
<g id="edge16" class="edge">
<title>Sesv&#45;&gt;Prompt</title>
<path fill="none" stroke="#38bdf8" stroke-width="1.3" d="M236.8,-160.47C280.91,-138.86 357.1,-101.55 414.96,-73.22"/>
<polygon fill="#38bdf8" stroke="#38bdf8" stroke-width="1.3" points="416,-75.83 421.95,-69.79 413.54,-70.8 416,-75.83"/>
</g>
<!-- Mlst&#45;&gt;Prompt -->
<g id="edge17" class="edge">
<title>Mlst&#45;&gt;Prompt</title>
<path fill="none" stroke="#fb7185" stroke-width="2" d="M606.18,-160.47C587.51,-139.76 555.81,-104.63 530.7,-76.79"/>
<polygon fill="#fb7185" stroke="#fb7185" stroke-width="2" points="532.94,-75.1 525.51,-71.03 528.79,-78.85 532.94,-75.1"/>
<text xml:space="preserve" text-anchor="middle" x="599.05" y="-109.2" font-family="sans-Serif" font-size="9.00" fill="#cbd5e1">do NOT repeat</text>
</g>
<!-- Exem&#45;&gt;Prompt -->
<g id="edge27" class="edge">
<title>Exem&#45;&gt;Prompt</title>
<path fill="none" stroke="#38bdf8" stroke-width="1.3" d="M363.15,-160.47C384.94,-139.41 422.19,-103.42 451.22,-75.37"/>
<polygon fill="#38bdf8" stroke="#38bdf8" stroke-width="1.3" points="452.81,-77.73 456.62,-70.15 448.92,-73.7 452.81,-77.73"/>
<text xml:space="preserve" text-anchor="middle" x="452.69" y="-114.45" font-family="sans-Serif" font-size="9.00" fill="#cbd5e1">few&#45;shot msgs</text>
<text xml:space="preserve" text-anchor="middle" x="452.69" y="-103.95" font-family="sans-Serif" font-size="9.00" fill="#cbd5e1">(local only)</text>
</g>
<!-- ReVal&#45;&gt;Fmem -->
<g id="edge28" class="edge">
<title>ReVal&#45;&gt;Fmem</title>
<path fill="none" stroke="#fb7185" stroke-width="2" stroke-dasharray="5,2" d="M1262.12,-508.02C1246.99,-499.06 1230.61,-487.66 1218,-474.5 1190.47,-445.79 1169.25,-404.92 1156.72,-376.97"/>
<polygon fill="#fb7185" stroke="#fb7185" stroke-width="2" points="1159.33,-375.94 1153.57,-369.72 1154.19,-378.18 1159.33,-375.94"/>
<text xml:space="preserve" text-anchor="middle" x="1273.5" y="-465.95" font-family="sans-Serif" font-size="9.00" fill="#cbd5e1">[UNVERIFIED yyyy&#45;mm&#45;dd]</text>
<text xml:space="preserve" text-anchor="middle" x="1273.5" y="-455.45" font-family="sans-Serif" font-size="9.00" fill="#cbd5e1">prefix stale :fact</text>
</g>
<!-- ReVal&#45;&gt;Fext -->
<g id="edge29" class="edge">
<title>ReVal&#45;&gt;Fext</title>
<path fill="none" stroke="#f59e0b" stroke-width="1.3" stroke-dasharray="5,2" d="M1322.09,-508.09C1328.75,-498.42 1335.59,-486.49 1339,-474.5 1348.55,-440.88 1334.97,-402.07 1322.24,-375.92"/>
<polygon fill="#f59e0b" stroke="#f59e0b" stroke-width="1.3" points="1324.83,-374.84 1318.7,-368.98 1319.84,-377.38 1324.83,-374.84"/>
<text xml:space="preserve" text-anchor="middle" x="1391.66" y="-465.95" font-family="sans-Serif" font-size="9.00" fill="#cbd5e1">:confirmed → :intel obs</text>
<text xml:space="preserve" text-anchor="middle" x="1391.66" y="-455.45" font-family="sans-Serif" font-size="9.00" fill="#cbd5e1">:refuted → observe stale</text>
</g>
<!-- Teach&#45;&gt;Fmem -->
<g id="edge32" class="edge">
<title>Teach&#45;&gt;Fmem</title>
<path fill="none" stroke="#fb7185" stroke-width="2" d="M1603.86,-507.55C1597.56,-489.56 1585.81,-465.23 1566,-453.5 1533.29,-434.13 1258.07,-462.34 1224,-445.5 1194.75,-431.04 1172.71,-400.3 1159.25,-376.74"/>
<polygon fill="#fb7185" stroke="#fb7185" stroke-width="2" points="1161.75,-375.48 1155.46,-369.8 1156.84,-378.17 1161.75,-375.48"/>
<text xml:space="preserve" text-anchor="middle" x="1620.48" y="-465.95" font-family="sans-Serif" font-size="9.00" fill="#cbd5e1">frontier&#45;authored</text>
<text xml:space="preserve" text-anchor="middle" x="1620.48" y="-455.45" font-family="sans-Serif" font-size="9.00" fill="#cbd5e1">:lesson</text>
</g>
</g>
</svg>
