<?xml version="1.0" encoding="UTF-8" standalone="no"?>
<!DOCTYPE svg PUBLIC "-//W3C//DTD SVG 1.1//EN"
 "http://www.w3.org/Graphics/SVG/1.1/DTD/svg11.dtd">
<!-- Generated by graphviz version 14.1.2 (0)
 -->
<!-- Title: PWN_MemorySkills Pages: 1 -->
<svg width="1147pt" height="612pt"
 viewBox="0.00 0.00 1147.00 612.00" xmlns="http://www.w3.org/2000/svg" xmlns:xlink="http://www.w3.org/1999/xlink">
<g id="graph0" class="graph" transform="scale(1 1) rotate(0) translate(43.2 568.45)">
<title>PWN_MemorySkills</title>
<polygon fill="#0f172a" stroke="none" points="-43.2,43.2 -43.2,-568.45 1104.26,-568.45 1104.26,43.2 -43.2,43.2"/>
<text xml:space="preserve" text-anchor="start" x="187.78" y="-503.25" font-family="sans-Serif" font-weight="bold" font-size="20.00" fill="#e2e8f0">Persistent Knowledge — Memory · Skills · Learning · Mistakes · Sessions</text>
<text xml:space="preserve" text-anchor="start" x="405.28" y="-491.8" font-family="sans-Serif" font-size="11.00" fill="#94a3b8">everything under ~/.pwn/ that shapes future prompts</text>
<g id="clust1" class="cluster">
<title>cluster_write</title>
<path fill="#022c22" stroke="#047857" d="M20,-395C20,-395 692,-395 692,-395 698,-395 704,-401 704,-407 704,-407 704,-466.25 704,-466.25 704,-472.25 698,-478.25 692,-478.25 692,-478.25 20,-478.25 20,-478.25 14,-478.25 8,-472.25 8,-466.25 8,-466.25 8,-407 8,-407 8,-401 14,-395 20,-395"/>
<text xml:space="preserve" text-anchor="middle" x="356" y="-455.25" font-family="sans-Serif" font-size="20.00" fill="#a7f3d0">Write&#45;Side Tools</text>
</g>
<g id="clust3" class="cluster">
<title>cluster_files</title>
<path fill="#422006" stroke="#a16207" d="M44,-244.75C44,-244.75 890,-244.75 890,-244.75 896,-244.75 902,-250.75 902,-256.75 902,-256.75 902,-324 902,-324 902,-330 896,-336 890,-336 890,-336 44,-336 44,-336 38,-336 32,-330 32,-324 32,-324 32,-256.75 32,-256.75 32,-250.75 38,-244.75 44,-244.75"/>
<text xml:space="preserve" text-anchor="middle" x="467" y="-313" font-family="sans-Serif" font-size="20.00" fill="#fde68a">~/.pwn/</text>
</g>
<g id="clust5" class="cluster">
<title>cluster_read</title>
<path fill="#2e1065" stroke="#6d28d9" d="M68,-126.5C68,-126.5 648,-126.5 648,-126.5 654,-126.5 660,-132.5 660,-138.5 660,-138.5 660,-197.75 660,-197.75 660,-203.75 654,-209.75 648,-209.75 648,-209.75 68,-209.75 68,-209.75 62,-209.75 56,-203.75 56,-197.75 56,-197.75 56,-138.5 56,-138.5 56,-132.5 62,-126.5 68,-126.5"/>
<text xml:space="preserve" text-anchor="middle" x="358" y="-186.75" font-family="sans-Serif" font-size="20.00" fill="#ddd6fe">Read&#45;Side / Injection</text>
</g>
<!-- Rem -->
<g id="node1" class="node">
<title>Rem</title>
<path fill="#6ee7b7" stroke="#334155" stroke-width="1.3" d="M551.25,-439C551.25,-439 464.75,-439 464.75,-439 458.75,-439 452.75,-433 452.75,-427 452.75,-427 452.75,-415 452.75,-415 452.75,-409 458.75,-403 464.75,-403 464.75,-403 551.25,-403 551.25,-403 557.25,-403 563.25,-409 563.25,-415 563.25,-415 563.25,-427 563.25,-427 563.25,-433 557.25,-439 551.25,-439"/>
<text xml:space="preserve" text-anchor="middle" x="508" y="-423.5" font-family="sans-Serif" font-size="10.00" fill="#0f172a">memory_remember</text>
<text xml:space="preserve" text-anchor="middle" x="508" y="-411.5" font-family="sans-Serif" font-size="10.00" fill="#0f172a">key · value · category</text>
</g>
<!-- Fmem -->
<g id="node6" class="node">
<title>Fmem</title>
<path fill="#fcd34d" stroke="#334155" stroke-width="1.3" d="M552.12,-292.75C552.12,-294.96 525.18,-296.75 492,-296.75 458.82,-296.75 431.88,-294.96 431.88,-292.75 431.88,-292.75 431.88,-256.75 431.88,-256.75 431.88,-254.54 458.82,-252.75 492,-252.75 525.18,-252.75 552.12,-254.54 552.12,-256.75 552.12,-256.75 552.12,-292.75 552.12,-292.75"/>
<path fill="none" stroke="#334155" stroke-width="1.3" d="M552.12,-292.75C552.12,-290.54 525.18,-288.75 492,-288.75 458.82,-288.75 431.88,-290.54 431.88,-292.75"/>
<text xml:space="preserve" text-anchor="middle" x="492" y="-277.25" font-family="sans-Serif" font-size="10.00" fill="#0f172a">memory.json</text>
<text xml:space="preserve" text-anchor="middle" x="492" y="-265.25" font-family="sans-Serif" font-size="10.00" fill="#0f172a">fact · pref · lesson · env</text>
</g>
<!-- Rem&#45;&gt;Fmem -->
<g id="edge1" class="edge">
<title>Rem&#45;&gt;Fmem</title>
<path fill="none" stroke="#f59e0b" stroke-width="1.3" d="M506.07,-402.6C503.44,-378.87 498.68,-335.97 495.43,-306.69"/>
<polygon fill="#f59e0b" stroke="#f59e0b" stroke-width="1.3" points="498.23,-306.55 494.57,-298.91 492.67,-307.17 498.23,-306.55"/>
</g>
<!-- Skc -->
<g id="node2" class="node">
<title>Skc</title>
<path fill="#6ee7b7" stroke="#334155" stroke-width="1.3" d="M104,-439C104,-439 28,-439 28,-439 22,-439 16,-433 16,-427 16,-427 16,-415 16,-415 16,-409 22,-403 28,-403 28,-403 104,-403 104,-403 110,-403 116,-409 116,-415 116,-415 116,-427 116,-427 116,-433 110,-439 104,-439"/>
<text xml:space="preserve" text-anchor="middle" x="66" y="-423.5" font-family="sans-Serif" font-size="10.00" fill="#0f172a">skill_create</text>
<text xml:space="preserve" text-anchor="middle" x="66" y="-411.5" font-family="sans-Serif" font-size="10.00" fill="#0f172a">skill_add_reference</text>
</g>
<!-- Fskl -->
<g id="node7" class="node">
<title>Fskl</title>
<path fill="#fcd34d" stroke="#334155" stroke-width="1.3" d="M153.75,-292.75C153.75,-294.96 128.31,-296.75 97,-296.75 65.69,-296.75 40.25,-294.96 40.25,-292.75 40.25,-292.75 40.25,-256.75 40.25,-256.75 40.25,-254.54 65.69,-252.75 97,-252.75 128.31,-252.75 153.75,-254.54 153.75,-256.75 153.75,-256.75 153.75,-292.75 153.75,-292.75"/>
<path fill="none" stroke="#334155" stroke-width="1.3" d="M153.75,-292.75C153.75,-290.54 128.31,-288.75 97,-288.75 65.69,-288.75 40.25,-290.54 40.25,-292.75"/>
<text xml:space="preserve" text-anchor="middle" x="97" y="-277.25" font-family="sans-Serif" font-size="10.00" fill="#0f172a">skills/*.md</text>
<text xml:space="preserve" text-anchor="middle" x="97" y="-265.25" font-family="sans-Serif" font-size="10.00" fill="#0f172a">YAML front&#45;matter refs</text>
</g>
<!-- Skc&#45;&gt;Fskl -->
<g id="edge2" class="edge">
<title>Skc&#45;&gt;Fskl</title>
<path fill="none" stroke="#f59e0b" stroke-width="1.3" d="M69.74,-402.6C74.84,-378.87 84.06,-335.97 90.35,-306.69"/>
<polygon fill="#f59e0b" stroke="#f59e0b" stroke-width="1.3" points="93.09,-307.29 92.03,-298.88 87.61,-306.11 93.09,-307.29"/>
</g>
<!-- Note -->
<g id="node3" class="node">
<title>Note</title>
<path fill="#6ee7b7" stroke="#334155" stroke-width="1.3" d="M400.25,-439C400.25,-439 307.75,-439 307.75,-439 301.75,-439 295.75,-433 295.75,-427 295.75,-427 295.75,-415 295.75,-415 295.75,-409 301.75,-403 307.75,-403 307.75,-403 400.25,-403 400.25,-403 406.25,-403 412.25,-409 412.25,-415 412.25,-415 412.25,-427 412.25,-427 412.25,-433 406.25,-439 400.25,-439"/>
<text xml:space="preserve" text-anchor="middle" x="354" y="-423.5" font-family="sans-Serif" font-size="10.00" fill="#0f172a">learning_note_outcome</text>
<text xml:space="preserve" text-anchor="middle" x="354" y="-411.5" font-family="sans-Serif" font-size="10.00" fill="#0f172a">learning_reflect</text>
</g>
<!-- Flrn -->
<g id="node8" class="node">
<title>Flrn</title>
<path fill="#fcd34d" stroke="#334155" stroke-width="1.3" d="M391.5,-292.75C391.5,-294.96 375.14,-296.75 355,-296.75 334.86,-296.75 318.5,-294.96 318.5,-292.75 318.5,-292.75 318.5,-256.75 318.5,-256.75 318.5,-254.54 334.86,-252.75 355,-252.75 375.14,-252.75 391.5,-254.54 391.5,-256.75 391.5,-256.75 391.5,-292.75 391.5,-292.75"/>
<path fill="none" stroke="#334155" stroke-width="1.3" d="M391.5,-292.75C391.5,-290.54 375.14,-288.75 355,-288.75 334.86,-288.75 318.5,-290.54 318.5,-292.75"/>
<text xml:space="preserve" text-anchor="middle" x="355" y="-277.25" font-family="sans-Serif" font-size="10.00" fill="#0f172a">learning.jsonl</text>
<text xml:space="preserve" text-anchor="middle" x="355" y="-265.25" font-family="sans-Serif" font-size="10.00" fill="#0f172a">outcome log</text>
</g>
<!-- Note&#45;&gt;Flrn -->
<g id="edge3" class="edge">
<title>Note&#45;&gt;Flrn</title>
<path fill="none" stroke="#f59e0b" stroke-width="1.3" d="M354.12,-402.6C354.29,-378.87 354.58,-335.97 354.79,-306.69"/>
<polygon fill="#f59e0b" stroke="#f59e0b" stroke-width="1.3" points="357.58,-306.94 354.84,-298.92 351.98,-306.9 357.58,-306.94"/>
</g>
<!-- Dist -->
<g id="node4" class="node">
<title>Dist</title>
<path fill="#6ee7b7" stroke="#334155" stroke-width="1.3" d="M244,-439C244,-439 168,-439 168,-439 162,-439 156,-433 156,-427 156,-427 156,-415 156,-415 156,-409 162,-403 168,-403 168,-403 244,-403 244,-403 250,-403 256,-409 256,-415 256,-415 256,-427 256,-427 256,-433 250,-439 244,-439"/>
<text xml:space="preserve" text-anchor="middle" x="206" y="-423.5" font-family="sans-Serif" font-size="10.00" fill="#0f172a">learning_distill_skill</text>
<text xml:space="preserve" text-anchor="middle" x="206" y="-411.5" font-family="sans-Serif" font-size="10.00" fill="#0f172a">(session → skill)</text>
</g>
<!-- Dist&#45;&gt;Fskl -->
<g id="edge4" class="edge">
<title>Dist&#45;&gt;Fskl</title>
<path fill="none" stroke="#f59e0b" stroke-width="1.3" d="M192.85,-402.6C174.53,-378.35 141.08,-334.09 118.95,-304.79"/>
<polygon fill="#f59e0b" stroke="#f59e0b" stroke-width="1.3" points="121.27,-303.22 114.21,-298.53 116.8,-306.6 121.27,-303.22"/>
</g>
<!-- Fses -->
<g id="node9" class="node">
<title>Fses</title>
<path fill="#fcd34d" stroke="#334155" stroke-width="1.3" d="M278.5,-292.75C278.5,-294.96 259.45,-296.75 236,-296.75 212.55,-296.75 193.5,-294.96 193.5,-292.75 193.5,-292.75 193.5,-256.75 193.5,-256.75 193.5,-254.54 212.55,-252.75 236,-252.75 259.45,-252.75 278.5,-254.54 278.5,-256.75 278.5,-256.75 278.5,-292.75 278.5,-292.75"/>
<path fill="none" stroke="#334155" stroke-width="1.3" d="M278.5,-292.75C278.5,-290.54 259.45,-288.75 236,-288.75 212.55,-288.75 193.5,-290.54 193.5,-292.75"/>
<text xml:space="preserve" text-anchor="middle" x="236" y="-277.25" font-family="sans-Serif" font-size="10.00" fill="#0f172a">sessions/*.jsonl</text>
<text xml:space="preserve" text-anchor="middle" x="236" y="-265.25" font-family="sans-Serif" font-size="10.00" fill="#0f172a">transcripts</text>
</g>
<!-- Dist&#45;&gt;Fses -->
<g id="edge5" class="edge">
<title>Dist&#45;&gt;Fses</title>
<path fill="none" stroke="#fbbf24" stroke-width="1.3" stroke-dasharray="5,2" d="M211.6,-393.1C217.38,-365.29 226.29,-322.46 231.59,-296.96"/>
<polygon fill="#fbbf24" stroke="#fbbf24" stroke-width="1.3" points="208.91,-392.27 210.02,-400.67 214.39,-393.41 208.91,-392.27"/>
<text xml:space="preserve" text-anchor="middle" x="231.12" y="-351.2" font-family="sans-Serif" font-size="9.00" fill="#cbd5e1">mine</text>
</g>
<!-- Mrec -->
<g id="node5" class="node">
<title>Mrec</title>
<path fill="#6ee7b7" stroke="#334155" stroke-width="1.3" d="M684.25,-439C684.25,-439 615.75,-439 615.75,-439 609.75,-439 603.75,-433 603.75,-427 603.75,-427 603.75,-415 603.75,-415 603.75,-409 609.75,-403 615.75,-403 615.75,-403 684.25,-403 684.25,-403 690.25,-403 696.25,-409 696.25,-415 696.25,-415 696.25,-427 696.25,-427 696.25,-433 690.25,-439 684.25,-439"/>
<text xml:space="preserve" text-anchor="middle" x="650" y="-423.5" font-family="sans-Serif" font-size="10.00" fill="#0f172a">mistakes_record</text>
<text xml:space="preserve" text-anchor="middle" x="650" y="-411.5" font-family="sans-Serif" font-size="10.00" fill="#0f172a">mistakes_resolve</text>
</g>
<!-- Mrec&#45;&gt;Fmem -->
<g id="edge7" class="edge">
<title>Mrec&#45;&gt;Fmem</title>
<path fill="none" stroke="#fbbf24" stroke-width="1.3" stroke-dasharray="5,2" d="M625.67,-402.47C611.64,-392.04 593.89,-378.29 579,-365 557.34,-345.67 534.48,-322.08 517.63,-304.01"/>
<polygon fill="#fbbf24" stroke="#fbbf24" stroke-width="1.3" points="520.09,-302.54 512.6,-298.57 515.98,-306.34 520.09,-302.54"/>
<text xml:space="preserve" text-anchor="middle" x="612" y="-351.2" font-family="sans-Serif" font-size="9.00" fill="#cbd5e1">resolve→lesson</text>
</g>
<!-- Fmis -->
<g id="node10" class="node">
<title>Fmis</title>
<path fill="#fcd34d" stroke="#334155" stroke-width="1.3" d="M731.88,-292.75C731.88,-294.96 700.56,-296.75 662,-296.75 623.44,-296.75 592.12,-294.96 592.12,-292.75 592.12,-292.75 592.12,-256.75 592.12,-256.75 592.12,-254.54 623.44,-252.75 662,-252.75 700.56,-252.75 731.88,-254.54 731.88,-256.75 731.88,-256.75 731.88,-292.75 731.88,-292.75"/>
<path fill="none" stroke="#334155" stroke-width="1.3" d="M731.88,-292.75C731.88,-290.54 700.56,-288.75 662,-288.75 623.44,-288.75 592.12,-290.54 592.12,-292.75"/>
<text xml:space="preserve" text-anchor="middle" x="662" y="-277.25" font-family="sans-Serif" font-size="10.00" fill="#0f172a">mistakes.json</text>
<text xml:space="preserve" text-anchor="middle" x="662" y="-265.25" font-family="sans-Serif" font-size="10.00" fill="#0f172a">sig → count · fix · regressed</text>
</g>
<!-- Mrec&#45;&gt;Fmis -->
<g id="edge6" class="edge">
<title>Mrec&#45;&gt;Fmis</title>
<path fill="none" stroke="#f59e0b" stroke-width="1.3" d="M651.45,-402.6C653.42,-378.87 656.99,-335.97 659.43,-306.69"/>
<polygon fill="#f59e0b" stroke="#f59e0b" stroke-width="1.3" points="662.2,-307.12 660.07,-298.92 656.62,-306.66 662.2,-307.12"/>
</g>
<!-- Rec -->
<g id="node12" class="node">
<title>Rec</title>
<path fill="#c4b5fd" stroke="#334155" stroke-width="1.3" d="M519.88,-170.5C519.88,-170.5 464.12,-170.5 464.12,-170.5 458.12,-170.5 452.12,-164.5 452.12,-158.5 452.12,-158.5 452.12,-146.5 452.12,-146.5 452.12,-140.5 458.12,-134.5 464.12,-134.5 464.12,-134.5 519.88,-134.5 519.88,-134.5 525.88,-134.5 531.88,-140.5 531.88,-146.5 531.88,-146.5 531.88,-158.5 531.88,-158.5 531.88,-164.5 525.88,-170.5 519.88,-170.5"/>
<text xml:space="preserve" text-anchor="middle" x="492" y="-149" font-family="sans-Serif" font-size="10.00" fill="#0f172a">memory_recall</text>
</g>
<!-- Fmem&#45;&gt;Rec -->
<g id="edge8" class="edge">
<title>Fmem&#45;&gt;Rec</title>
<path fill="none" stroke="#a78bfa" stroke-width="1.3" d="M492,-252.25C492,-232.28 492,-202.45 492,-180.8"/>
<polygon fill="#a78bfa" stroke="#a78bfa" stroke-width="1.3" points="494.8,-180.88 492,-172.88 489.2,-180.88 494.8,-180.88"/>
</g>
<!-- ReVal -->
<g id="node18" class="node">
<title>ReVal</title>
<path fill="#fcd34d" stroke="#334155" stroke-width="1.3" d="M975.12,-443C975.12,-443 872.88,-443 872.88,-443 866.88,-443 860.88,-437 860.88,-431 860.88,-431 860.88,-411 860.88,-411 860.88,-405 866.88,-399 872.88,-399 872.88,-399 975.12,-399 975.12,-399 981.12,-399 987.12,-405 987.12,-411 987.12,-411 987.12,-431 987.12,-431 987.12,-437 981.12,-443 975.12,-443"/>
<text xml:space="preserve" text-anchor="middle" x="924" y="-429.5" font-family="sans-Serif" font-size="10.00" fill="#0f172a">Extrospection.verify</text>
<text xml:space="preserve" text-anchor="middle" x="924" y="-417.5" font-family="sans-Serif" font-size="10.00" fill="#0f172a">revalidate_memory (cron)</text>
<text xml:space="preserve" text-anchor="middle" x="924" y="-405.5" font-family="sans-Serif" font-size="10.00" fill="#0f172a">browser&#45;backed GC</text>
</g>
<!-- Fmem&#45;&gt;ReVal -->
<g id="edge20" class="edge">
<title>Fmem&#45;&gt;ReVal</title>
<path fill="none" stroke="#94a3b8" stroke-width="1.3" stroke-dasharray="5,2" d="M513.4,-297.11C528.45,-310.72 549.8,-327.37 572,-336 606.54,-349.43 618.99,-335.22 655,-344 679.32,-349.93 683.46,-357.24 707.25,-365 754.33,-380.36 808.31,-394.07 850.62,-403.96"/>
<polygon fill="#94a3b8" stroke="#94a3b8" stroke-width="1.3" points="849.95,-406.67 858.37,-405.75 851.21,-401.22 849.95,-406.67"/>
<text xml:space="preserve" text-anchor="middle" x="749.62" y="-351.2" font-family="sans-Serif" font-size="9.00" fill="#cbd5e1">:fact w/ CVE|ver|URL</text>
</g>
<!-- Skv -->
<g id="node13" class="node">
<title>Skv</title>
<path fill="#c4b5fd" stroke="#334155" stroke-width="1.3" d="M132.25,-170.5C132.25,-170.5 75.75,-170.5 75.75,-170.5 69.75,-170.5 63.75,-164.5 63.75,-158.5 63.75,-158.5 63.75,-146.5 63.75,-146.5 63.75,-140.5 69.75,-134.5 75.75,-134.5 75.75,-134.5 132.25,-134.5 132.25,-134.5 138.25,-134.5 144.25,-140.5 144.25,-146.5 144.25,-146.5 144.25,-158.5 144.25,-158.5 144.25,-164.5 138.25,-170.5 132.25,-170.5"/>
<text xml:space="preserve" text-anchor="middle" x="104" y="-149" font-family="sans-Serif" font-size="10.00" fill="#0f172a">skill_list · view</text>
</g>
<!-- Fskl&#45;&gt;Skv -->
<g id="edge9" class="edge">
<title>Fskl&#45;&gt;Skv</title>
<path fill="none" stroke="#a78bfa" stroke-width="1.3" d="M98.25,-252.25C99.41,-232.28 101.15,-202.45 102.41,-180.8"/>
<polygon fill="#a78bfa" stroke="#a78bfa" stroke-width="1.3" points="105.2,-181.03 102.87,-172.88 99.61,-180.7 105.2,-181.03"/>
</g>
<!-- Out -->
<g id="node14" class="node">
<title>Out</title>
<path fill="#c4b5fd" stroke="#334155" stroke-width="1.3" d="M399.88,-170.5C399.88,-170.5 326.12,-170.5 326.12,-170.5 320.12,-170.5 314.12,-164.5 314.12,-158.5 314.12,-158.5 314.12,-146.5 314.12,-146.5 314.12,-140.5 320.12,-134.5 326.12,-134.5 326.12,-134.5 399.88,-134.5 399.88,-134.5 405.88,-134.5 411.88,-140.5 411.88,-146.5 411.88,-146.5 411.88,-158.5 411.88,-158.5 411.88,-164.5 405.88,-170.5 399.88,-170.5"/>
<text xml:space="preserve" text-anchor="middle" x="363" y="-155" font-family="sans-Serif" font-size="10.00" fill="#0f172a">learning_outcomes</text>
<text xml:space="preserve" text-anchor="middle" x="363" y="-143" font-family="sans-Serif" font-size="10.00" fill="#0f172a">learning_stats</text>
</g>
<!-- Flrn&#45;&gt;Out -->
<g id="edge10" class="edge">
<title>Flrn&#45;&gt;Out</title>
<path fill="none" stroke="#a78bfa" stroke-width="1.3" d="M356.43,-252.25C357.76,-232.28 359.74,-202.45 361.18,-180.8"/>
<polygon fill="#a78bfa" stroke="#a78bfa" stroke-width="1.3" points="363.97,-181.04 361.71,-172.88 358.39,-180.67 363.97,-181.04"/>
</g>
<!-- Sesv -->
<g id="node15" class="node">
<title>Sesv</title>
<path fill="#c4b5fd" stroke="#334155" stroke-width="1.3" d="M262.12,-170.5C262.12,-170.5 195.88,-170.5 195.88,-170.5 189.88,-170.5 183.88,-164.5 183.88,-158.5 183.88,-158.5 183.88,-146.5 183.88,-146.5 183.88,-140.5 189.88,-134.5 195.88,-134.5 195.88,-134.5 262.12,-134.5 262.12,-134.5 268.12,-134.5 274.12,-140.5 274.12,-146.5 274.12,-146.5 274.12,-158.5 274.12,-158.5 274.12,-164.5 268.12,-170.5 262.12,-170.5"/>
<text xml:space="preserve" text-anchor="middle" x="229" y="-155" font-family="sans-Serif" font-size="10.00" fill="#0f172a">sessions_view</text>
<text xml:space="preserve" text-anchor="middle" x="229" y="-143" font-family="sans-Serif" font-size="10.00" fill="#0f172a">sessions_current</text>
</g>
<!-- Fses&#45;&gt;Sesv -->
<g id="edge11" class="edge">
<title>Fses&#45;&gt;Sesv</title>
<path fill="none" stroke="#a78bfa" stroke-width="1.3" d="M234.75,-252.25C233.59,-232.28 231.85,-202.45 230.59,-180.8"/>
<polygon fill="#a78bfa" stroke="#a78bfa" stroke-width="1.3" points="233.39,-180.7 230.13,-172.88 227.8,-181.03 233.39,-180.7"/>
</g>
<!-- Mlst -->
<g id="node16" class="node">
<title>Mlst</title>
<path fill="#c4b5fd" stroke="#334155" stroke-width="1.3" d="M639.88,-170.5C639.88,-170.5 584.12,-170.5 584.12,-170.5 578.12,-170.5 572.12,-164.5 572.12,-158.5 572.12,-158.5 572.12,-146.5 572.12,-146.5 572.12,-140.5 578.12,-134.5 584.12,-134.5 584.12,-134.5 639.88,-134.5 639.88,-134.5 645.88,-134.5 651.88,-140.5 651.88,-146.5 651.88,-146.5 651.88,-158.5 651.88,-158.5 651.88,-164.5 645.88,-170.5 639.88,-170.5"/>
<text xml:space="preserve" text-anchor="middle" x="612" y="-155" font-family="sans-Serif" font-size="10.00" fill="#0f172a">mistakes_list</text>
<text xml:space="preserve" text-anchor="middle" x="612" y="-143" font-family="sans-Serif" font-size="10.00" fill="#0f172a">correction_hint</text>
</g>
<!-- Fmis&#45;&gt;Mlst -->
<g id="edge12" class="edge">
<title>Fmis&#45;&gt;Mlst</title>
<path fill="none" stroke="#a78bfa" stroke-width="1.3" d="M653.06,-252.25C644.64,-232.01 632.01,-201.63 622.99,-179.92"/>
<polygon fill="#a78bfa" stroke="#a78bfa" stroke-width="1.3" points="625.65,-179.04 620,-172.73 620.48,-181.19 625.65,-179.04"/>
</g>
<!-- Fext -->
<g id="node11" class="node">
<title>Fext</title>
<path fill="#fcd34d" stroke="#334155" stroke-width="1.3" d="M894.25,-292.75C894.25,-294.96 866.8,-296.75 833,-296.75 799.2,-296.75 771.75,-294.96 771.75,-292.75 771.75,-292.75 771.75,-256.75 771.75,-256.75 771.75,-254.54 799.2,-252.75 833,-252.75 866.8,-252.75 894.25,-254.54 894.25,-256.75 894.25,-256.75 894.25,-292.75 894.25,-292.75"/>
<path fill="none" stroke="#334155" stroke-width="1.3" d="M894.25,-292.75C894.25,-290.54 866.8,-288.75 833,-288.75 799.2,-288.75 771.75,-290.54 771.75,-292.75"/>
<text xml:space="preserve" text-anchor="middle" x="833" y="-277.25" font-family="sans-Serif" font-size="10.00" fill="#0f172a">extrospection.json</text>
<text xml:space="preserve" text-anchor="middle" x="833" y="-265.25" font-family="sans-Serif" font-size="10.00" fill="#0f172a">snapshot · rf · web · obs</text>
</g>
<!-- Prompt -->
<g id="node17" class="node">
<title>Prompt</title>
<path fill="#7dd3fc" stroke="#334155" stroke-width="2" d="M436.25,-56C436.25,-56 289.75,-56 289.75,-56 283.75,-56 277.75,-50 277.75,-44 277.75,-44 277.75,-12 277.75,-12 277.75,-6 283.75,0 289.75,0 289.75,0 436.25,0 436.25,0 442.25,0 448.25,-6 448.25,-12 448.25,-12 448.25,-44 448.25,-44 448.25,-50 442.25,-56 436.25,-56"/>
<text xml:space="preserve" text-anchor="middle" x="363" y="-42.5" font-family="sans-Serif" font-size="10.00" fill="#0f172a">PromptBuilder</text>
<text xml:space="preserve" text-anchor="middle" x="363" y="-30.5" font-family="sans-Serif" font-size="10.00" fill="#0f172a">MEMORY + SKILLS + LEARNING</text>
<text xml:space="preserve" text-anchor="middle" x="363" y="-18.5" font-family="sans-Serif" font-size="10.00" fill="#0f172a">+ KNOWN MISTAKES / FIXES</text>
<text xml:space="preserve" text-anchor="middle" x="363" y="-6.5" font-family="sans-Serif" font-size="10.00" fill="#0f172a">+ METRICS + EXTROSPECTION</text>
</g>
<!-- Rec&#45;&gt;Prompt -->
<g id="edge13" class="edge">
<title>Rec&#45;&gt;Prompt</title>
<path fill="none" stroke="#38bdf8" stroke-width="1.3" d="M473.52,-133.95C454.24,-115.64 423.52,-86.47 399.36,-63.53"/>
<polygon fill="#38bdf8" stroke="#38bdf8" stroke-width="1.3" points="401.57,-61.76 393.84,-58.29 397.71,-65.83 401.57,-61.76"/>
</g>
<!-- Skv&#45;&gt;Prompt -->
<g id="edge14" class="edge">
<title>Skv&#45;&gt;Prompt</title>
<path fill="none" stroke="#38bdf8" stroke-width="1.3" d="M141.11,-133.95C181.14,-115.02 245.75,-84.46 294.95,-61.19"/>
<polygon fill="#38bdf8" stroke="#38bdf8" stroke-width="1.3" points="296.13,-63.72 302.17,-57.77 293.74,-58.66 296.13,-63.72"/>
</g>
<!-- Out&#45;&gt;Prompt -->
<g id="edge15" class="edge">
<title>Out&#45;&gt;Prompt</title>
<path fill="none" stroke="#38bdf8" stroke-width="1.3" d="M363,-133.95C363,-116.51 363,-89.2 363,-66.82"/>
<polygon fill="#38bdf8" stroke="#38bdf8" stroke-width="1.3" points="365.8,-66.9 363,-58.9 360.2,-66.9 365.8,-66.9"/>
</g>
<!-- Sesv&#45;&gt;Prompt -->
<g id="edge16" class="edge">
<title>Sesv&#45;&gt;Prompt</title>
<path fill="none" stroke="#38bdf8" stroke-width="1.3" d="M248.2,-133.95C268.22,-115.64 300.13,-86.47 325.23,-63.53"/>
<polygon fill="#38bdf8" stroke="#38bdf8" stroke-width="1.3" points="326.98,-65.72 330.99,-58.26 323.2,-61.59 326.98,-65.72"/>
</g>
<!-- Mlst&#45;&gt;Prompt -->
<g id="edge17" class="edge">
<title>Mlst&#45;&gt;Prompt</title>
<path fill="none" stroke="#fb7185" stroke-width="2" d="M576.32,-133.95C538.16,-115.17 476.76,-84.96 429.61,-61.77"/>
<polygon fill="#fb7185" stroke="#fb7185" stroke-width="2" points="430.91,-59.29 422.49,-58.27 428.43,-64.31 430.91,-59.29"/>
<text xml:space="preserve" text-anchor="middle" x="532.41" y="-91.95" font-family="sans-Serif" font-size="9.00" fill="#cbd5e1">do NOT repeat</text>
</g>
<!-- ReVal&#45;&gt;Fmem -->
<g id="edge18" class="edge">
<title>ReVal&#45;&gt;Fmem</title>
<path fill="none" stroke="#fb7185" stroke-width="2" stroke-dasharray="5,2" d="M889.97,-398.5C854.73,-376.3 804.47,-344.75 802,-344 753.08,-329.08 620.21,-353.06 572,-336 553.09,-329.31 534.98,-316.41 520.79,-304.26"/>
<polygon fill="#fb7185" stroke="#fb7185" stroke-width="2" points="523,-302.49 515.17,-299.26 519.28,-306.67 523,-302.49"/>
<text xml:space="preserve" text-anchor="middle" x="891.92" y="-356.45" font-family="sans-Serif" font-size="9.00" fill="#cbd5e1">[UNVERIFIED yyyy&#45;mm&#45;dd]</text>
<text xml:space="preserve" text-anchor="middle" x="891.92" y="-345.95" font-family="sans-Serif" font-size="9.00" fill="#cbd5e1">prefix stale :fact</text>
</g>
<!-- ReVal&#45;&gt;Fext -->
<g id="edge19" class="edge">
<title>ReVal&#45;&gt;Fext</title>
<path fill="none" stroke="#f59e0b" stroke-width="1.3" stroke-dasharray="5,2" d="M944.72,-398.38C957.03,-382.8 968.4,-361.53 958,-344 945.75,-323.35 924.8,-308.54 903.52,-298.12"/>
<polygon fill="#f59e0b" stroke="#f59e0b" stroke-width="1.3" points="904.95,-295.7 896.51,-294.88 902.6,-300.78 904.95,-295.7"/>
<text xml:space="preserve" text-anchor="middle" x="1011.56" y="-356.45" font-family="sans-Serif" font-size="9.00" fill="#cbd5e1">:confirmed → :intel obs</text>
<text xml:space="preserve" text-anchor="middle" x="1011.56" y="-345.95" font-family="sans-Serif" font-size="9.00" fill="#cbd5e1">:refuted → observe stale</text>
</g>
</g>
</svg>
