<?xml version="1.0" encoding="UTF-8" standalone="no"?>
<!DOCTYPE svg PUBLIC "-//W3C//DTD SVG 1.1//EN"
 "http://www.w3.org/Graphics/SVG/1.1/DTD/svg11.dtd">
<!-- Generated by graphviz version 14.1.2 (0)
 -->
<!-- Title: PWN_MemorySkills Pages: 1 -->
<svg width="1627pt" height="659pt"
 viewBox="0.00 0.00 1627.00 659.00" xmlns="http://www.w3.org/2000/svg" xmlns:xlink="http://www.w3.org/1999/xlink">
<g id="graph0" class="graph" transform="scale(1 1) rotate(0) translate(43.2 615.45)">
<title>PWN_MemorySkills</title>
<polygon fill="#0f172a" stroke="none" points="-43.2,43.2 -43.2,-615.45 1583.83,-615.45 1583.83,43.2 -43.2,43.2"/>
<text xml:space="preserve" text-anchor="start" x="434.31" y="-550.25" font-family="sans-Serif" font-weight="bold" font-size="20.00" fill="#e2e8f0">Persistent Knowledge &#45; Memory · Skills · Learning · Mistakes · Sessions</text>
<text xml:space="preserve" text-anchor="start" x="645.06" y="-538.8" font-family="sans-Serif" font-size="11.00" fill="#94a3b8">everything under ~/.pwn/ that shapes future prompts</text>
<g id="clust1" class="cluster">
<title>cluster_write</title>
<path fill="#022c22" stroke="#047857" d="M20,-442C20,-442 855,-442 855,-442 861,-442 867,-448 867,-454 867,-454 867,-513.25 867,-513.25 867,-519.25 861,-525.25 855,-525.25 855,-525.25 20,-525.25 20,-525.25 14,-525.25 8,-519.25 8,-513.25 8,-513.25 8,-454 8,-454 8,-448 14,-442 20,-442"/>
<text xml:space="preserve" text-anchor="middle" x="437.5" y="-502.25" font-family="sans-Serif" font-size="20.00" fill="#a7f3d0">Write&#45;Side Tools</text>
</g>
<g id="clust3" class="cluster">
<title>cluster_files</title>
<path fill="#422006" stroke="#a16207" d="M109,-275.25C109,-275.25 1228,-275.25 1228,-275.25 1234,-275.25 1240,-281.25 1240,-287.25 1240,-287.25 1240,-371 1240,-371 1240,-377 1234,-383 1228,-383 1228,-383 109,-383 109,-383 103,-383 97,-377 97,-371 97,-371 97,-287.25 97,-287.25 97,-281.25 103,-275.25 109,-275.25"/>
<text xml:space="preserve" text-anchor="middle" x="668.5" y="-360" font-family="sans-Serif" font-size="20.00" fill="#fde68a">~/.pwn/</text>
</g>
<g id="clust5" class="cluster">
<title>cluster_read</title>
<path fill="#2e1065" stroke="#6d28d9" d="M126,-149C126,-149 988,-149 988,-149 994,-149 1000,-155 1000,-161 1000,-161 1000,-228.25 1000,-228.25 1000,-234.25 994,-240.25 988,-240.25 988,-240.25 126,-240.25 126,-240.25 120,-240.25 114,-234.25 114,-228.25 114,-228.25 114,-161 114,-161 114,-155 120,-149 126,-149"/>
<text xml:space="preserve" text-anchor="middle" x="557" y="-217.25" font-family="sans-Serif" font-size="20.00" fill="#ddd6fe">Read&#45;Side / Injection</text>
</g>
<!-- Rem -->
<g id="node1" class="node">
<title>Rem</title>
<path fill="#6ee7b7" stroke="#334155" stroke-width="1.3" d="M714.25,-486C714.25,-486 627.75,-486 627.75,-486 621.75,-486 615.75,-480 615.75,-474 615.75,-474 615.75,-462 615.75,-462 615.75,-456 621.75,-450 627.75,-450 627.75,-450 714.25,-450 714.25,-450 720.25,-450 726.25,-456 726.25,-462 726.25,-462 726.25,-474 726.25,-474 726.25,-480 720.25,-486 714.25,-486"/>
<text xml:space="preserve" text-anchor="middle" x="671" y="-470.5" font-family="sans-Serif" font-size="10.00" fill="#0f172a">memory_remember</text>
<text xml:space="preserve" text-anchor="middle" x="671" y="-458.5" font-family="sans-Serif" font-size="10.00" fill="#0f172a">key · value · category</text>
</g>
<!-- Fmem -->
<g id="node7" class="node">
<title>Fmem</title>
<path fill="#fcd34d" stroke="#334155" stroke-width="1.3" d="M1070.12,-331.5C1070.12,-333.71 1043.18,-335.5 1010,-335.5 976.82,-335.5 949.88,-333.71 949.88,-331.5 949.88,-331.5 949.88,-295.5 949.88,-295.5 949.88,-293.29 976.82,-291.5 1010,-291.5 1043.18,-291.5 1070.12,-293.29 1070.12,-295.5 1070.12,-295.5 1070.12,-331.5 1070.12,-331.5"/>
<path fill="none" stroke="#334155" stroke-width="1.3" d="M1070.12,-331.5C1070.12,-329.29 1043.18,-327.5 1010,-327.5 976.82,-327.5 949.88,-329.29 949.88,-331.5"/>
<text xml:space="preserve" text-anchor="middle" x="1010" y="-316" font-family="sans-Serif" font-size="10.00" fill="#0f172a">memory.json</text>
<text xml:space="preserve" text-anchor="middle" x="1010" y="-304" font-family="sans-Serif" font-size="10.00" fill="#0f172a">fact · pref · lesson · env</text>
</g>
<!-- Rem&#45;&gt;Fmem -->
<g id="edge1" class="edge">
<title>Rem&#45;&gt;Fmem</title>
<path fill="none" stroke="#f59e0b" stroke-width="1.3" d="M704.52,-449.49C740.28,-431.66 799.08,-404.74 853,-391 886.34,-382.5 898.39,-396.58 930,-383 950.93,-374.01 970.44,-357.54 984.95,-343"/>
<polygon fill="#f59e0b" stroke="#f59e0b" stroke-width="1.3" points="986.75,-345.18 990.29,-337.48 982.72,-341.28 986.75,-345.18"/>
</g>
<!-- Fidx -->
<g id="node8" class="node">
<title>Fidx</title>
<path fill="#fcd34d" stroke="#334155" stroke-width="1.3" d="M729.75,-338.25C729.75,-341.28 709.69,-343.75 685,-343.75 660.31,-343.75 640.25,-341.28 640.25,-338.25 640.25,-338.25 640.25,-288.75 640.25,-288.75 640.25,-285.72 660.31,-283.25 685,-283.25 709.69,-283.25 729.75,-285.72 729.75,-288.75 729.75,-288.75 729.75,-338.25 729.75,-338.25"/>
<path fill="none" stroke="#334155" stroke-width="1.3" d="M729.75,-338.25C729.75,-335.22 709.69,-332.75 685,-332.75 660.31,-332.75 640.25,-335.22 640.25,-338.25"/>
<text xml:space="preserve" text-anchor="middle" x="685" y="-322" font-family="sans-Serif" font-size="10.00" fill="#0f172a">memory.idx</text>
<text xml:space="preserve" text-anchor="middle" x="685" y="-310" font-family="sans-Serif" font-size="10.00" fill="#0f172a">embedding index</text>
<text xml:space="preserve" text-anchor="middle" x="685" y="-298" font-family="sans-Serif" font-size="10.00" fill="#0f172a">(sha → vec)</text>
</g>
<!-- Rem&#45;&gt;Fidx -->
<g id="edge18" class="edge">
<title>Rem&#45;&gt;Fidx</title>
<path fill="none" stroke="#fbbf24" stroke-width="1.3" stroke-dasharray="5,2" d="M669.02,-449.69C667.88,-438.87 666.57,-424.64 666,-412 665.58,-402.68 664.87,-400.26 666,-391 667.49,-378.8 670.28,-365.74 673.26,-353.92"/>
<polygon fill="#fbbf24" stroke="#fbbf24" stroke-width="1.3" points="675.96,-354.69 675.29,-346.24 670.54,-353.26 675.96,-354.69"/>
<text xml:space="preserve" text-anchor="middle" x="690" y="-403.45" font-family="sans-Serif" font-size="9.00" fill="#cbd5e1">incremental</text>
<text xml:space="preserve" text-anchor="middle" x="690" y="-392.95" font-family="sans-Serif" font-size="9.00" fill="#cbd5e1">re&#45;embed</text>
</g>
<!-- Skc -->
<g id="node2" class="node">
<title>Skc</title>
<path fill="#6ee7b7" stroke="#334155" stroke-width="1.3" d="M104,-486C104,-486 28,-486 28,-486 22,-486 16,-480 16,-474 16,-474 16,-462 16,-462 16,-456 22,-450 28,-450 28,-450 104,-450 104,-450 110,-450 116,-456 116,-462 116,-462 116,-474 116,-474 116,-480 110,-486 104,-486"/>
<text xml:space="preserve" text-anchor="middle" x="66" y="-470.5" font-family="sans-Serif" font-size="10.00" fill="#0f172a">skill_create</text>
<text xml:space="preserve" text-anchor="middle" x="66" y="-458.5" font-family="sans-Serif" font-size="10.00" fill="#0f172a">skill_add_reference</text>
</g>
<!-- Fskl -->
<g id="node9" class="node">
<title>Fskl</title>
<path fill="#fcd34d" stroke="#334155" stroke-width="1.3" d="M218.75,-331.5C218.75,-333.71 193.31,-335.5 162,-335.5 130.69,-335.5 105.25,-333.71 105.25,-331.5 105.25,-331.5 105.25,-295.5 105.25,-295.5 105.25,-293.29 130.69,-291.5 162,-291.5 193.31,-291.5 218.75,-293.29 218.75,-295.5 218.75,-295.5 218.75,-331.5 218.75,-331.5"/>
<path fill="none" stroke="#334155" stroke-width="1.3" d="M218.75,-331.5C218.75,-329.29 193.31,-327.5 162,-327.5 130.69,-327.5 105.25,-329.29 105.25,-331.5"/>
<text xml:space="preserve" text-anchor="middle" x="162" y="-316" font-family="sans-Serif" font-size="10.00" fill="#0f172a">skills/*.md</text>
<text xml:space="preserve" text-anchor="middle" x="162" y="-304" font-family="sans-Serif" font-size="10.00" fill="#0f172a">YAML front&#45;matter refs</text>
</g>
<!-- Skc&#45;&gt;Fskl -->
<g id="edge2" class="edge">
<title>Skc&#45;&gt;Fskl</title>
<path fill="none" stroke="#f59e0b" stroke-width="1.3" d="M77.01,-449.51C93.17,-423.83 123.53,-375.61 143.25,-344.29"/>
<polygon fill="#f59e0b" stroke="#f59e0b" stroke-width="1.3" points="145.56,-345.87 147.46,-337.6 140.82,-342.88 145.56,-345.87"/>
</g>
<!-- Note -->
<g id="node3" class="node">
<title>Note</title>
<path fill="#6ee7b7" stroke="#334155" stroke-width="1.3" d="M400.25,-486C400.25,-486 307.75,-486 307.75,-486 301.75,-486 295.75,-480 295.75,-474 295.75,-474 295.75,-462 295.75,-462 295.75,-456 301.75,-450 307.75,-450 307.75,-450 400.25,-450 400.25,-450 406.25,-450 412.25,-456 412.25,-462 412.25,-462 412.25,-474 412.25,-474 412.25,-480 406.25,-486 400.25,-486"/>
<text xml:space="preserve" text-anchor="middle" x="354" y="-470.5" font-family="sans-Serif" font-size="10.00" fill="#0f172a">learning_note_outcome</text>
<text xml:space="preserve" text-anchor="middle" x="354" y="-458.5" font-family="sans-Serif" font-size="10.00" fill="#0f172a">learning_reflect</text>
</g>
<!-- Flrn -->
<g id="node10" class="node">
<title>Flrn</title>
<path fill="#fcd34d" stroke="#334155" stroke-width="1.3" d="M456.5,-331.5C456.5,-333.71 440.14,-335.5 420,-335.5 399.86,-335.5 383.5,-333.71 383.5,-331.5 383.5,-331.5 383.5,-295.5 383.5,-295.5 383.5,-293.29 399.86,-291.5 420,-291.5 440.14,-291.5 456.5,-293.29 456.5,-295.5 456.5,-295.5 456.5,-331.5 456.5,-331.5"/>
<path fill="none" stroke="#334155" stroke-width="1.3" d="M456.5,-331.5C456.5,-329.29 440.14,-327.5 420,-327.5 399.86,-327.5 383.5,-329.29 383.5,-331.5"/>
<text xml:space="preserve" text-anchor="middle" x="420" y="-316" font-family="sans-Serif" font-size="10.00" fill="#0f172a">learning.jsonl</text>
<text xml:space="preserve" text-anchor="middle" x="420" y="-304" font-family="sans-Serif" font-size="10.00" fill="#0f172a">outcome log</text>
</g>
<!-- Note&#45;&gt;Flrn -->
<g id="edge3" class="edge">
<title>Note&#45;&gt;Flrn</title>
<path fill="none" stroke="#f59e0b" stroke-width="1.3" d="M356.46,-449.59C359.06,-433.85 363.94,-410.26 372,-391 378.87,-374.59 389.08,-357.7 398.32,-343.98"/>
<polygon fill="#f59e0b" stroke="#f59e0b" stroke-width="1.3" points="400.55,-345.67 402.79,-337.5 395.94,-342.49 400.55,-345.67"/>
</g>
<!-- Dist -->
<g id="node4" class="node">
<title>Dist</title>
<path fill="#6ee7b7" stroke="#334155" stroke-width="1.3" d="M244,-486C244,-486 168,-486 168,-486 162,-486 156,-480 156,-474 156,-474 156,-462 156,-462 156,-456 162,-450 168,-450 168,-450 244,-450 244,-450 250,-450 256,-456 256,-462 256,-462 256,-474 256,-474 256,-480 250,-486 244,-486"/>
<text xml:space="preserve" text-anchor="middle" x="206" y="-470.5" font-family="sans-Serif" font-size="10.00" fill="#0f172a">learning_distill_skill</text>
<text xml:space="preserve" text-anchor="middle" x="206" y="-458.5" font-family="sans-Serif" font-size="10.00" fill="#0f172a">(session → skill)</text>
</g>
<!-- Dist&#45;&gt;Fskl -->
<g id="edge4" class="edge">
<title>Dist&#45;&gt;Fskl</title>
<path fill="none" stroke="#f59e0b" stroke-width="1.3" d="M200.95,-449.51C193.64,-424.16 179.99,-376.84 170.95,-345.5"/>
<polygon fill="#f59e0b" stroke="#f59e0b" stroke-width="1.3" points="173.64,-344.74 168.73,-337.83 168.26,-346.29 173.64,-344.74"/>
</g>
<!-- Fses -->
<g id="node11" class="node">
<title>Fses</title>
<path fill="#fcd34d" stroke="#334155" stroke-width="1.3" d="M343.5,-331.5C343.5,-333.71 324.45,-335.5 301,-335.5 277.55,-335.5 258.5,-333.71 258.5,-331.5 258.5,-331.5 258.5,-295.5 258.5,-295.5 258.5,-293.29 277.55,-291.5 301,-291.5 324.45,-291.5 343.5,-293.29 343.5,-295.5 343.5,-295.5 343.5,-331.5 343.5,-331.5"/>
<path fill="none" stroke="#334155" stroke-width="1.3" d="M343.5,-331.5C343.5,-329.29 324.45,-327.5 301,-327.5 277.55,-327.5 258.5,-329.29 258.5,-331.5"/>
<text xml:space="preserve" text-anchor="middle" x="301" y="-316" font-family="sans-Serif" font-size="10.00" fill="#0f172a">sessions/*.jsonl</text>
<text xml:space="preserve" text-anchor="middle" x="301" y="-304" font-family="sans-Serif" font-size="10.00" fill="#0f172a">transcripts</text>
</g>
<!-- Dist&#45;&gt;Fses -->
<g id="edge5" class="edge">
<title>Dist&#45;&gt;Fses</title>
<path fill="none" stroke="#fbbf24" stroke-width="1.3" stroke-dasharray="5,2" d="M222,-441.32C240.44,-411.72 270.4,-363.61 287.65,-335.94"/>
<polygon fill="#fbbf24" stroke="#fbbf24" stroke-width="1.3" points="219.79,-439.57 217.94,-447.84 224.54,-442.53 219.79,-439.57"/>
<text xml:space="preserve" text-anchor="middle" x="260.78" y="-398.2" font-family="sans-Serif" font-size="9.00" fill="#cbd5e1">mine</text>
</g>
<!-- Mrec -->
<g id="node5" class="node">
<title>Mrec</title>
<path fill="#6ee7b7" stroke="#334155" stroke-width="1.3" d="M847.25,-486C847.25,-486 778.75,-486 778.75,-486 772.75,-486 766.75,-480 766.75,-474 766.75,-474 766.75,-462 766.75,-462 766.75,-456 772.75,-450 778.75,-450 778.75,-450 847.25,-450 847.25,-450 853.25,-450 859.25,-456 859.25,-462 859.25,-462 859.25,-474 859.25,-474 859.25,-480 853.25,-486 847.25,-486"/>
<text xml:space="preserve" text-anchor="middle" x="813" y="-470.5" font-family="sans-Serif" font-size="10.00" fill="#0f172a">mistakes_record</text>
<text xml:space="preserve" text-anchor="middle" x="813" y="-458.5" font-family="sans-Serif" font-size="10.00" fill="#0f172a">mistakes_resolve</text>
</g>
<!-- Mrec&#45;&gt;Fmem -->
<g id="edge7" class="edge">
<title>Mrec&#45;&gt;Fmem</title>
<path fill="none" stroke="#fbbf24" stroke-width="1.3" stroke-dasharray="5,2" d="M826.11,-449.62C840.35,-432.03 864.75,-405.42 892,-391 907.25,-382.93 914.52,-390.63 930,-383 950.16,-373.07 969.4,-356.89 983.95,-342.74"/>
<polygon fill="#fbbf24" stroke="#fbbf24" stroke-width="1.3" points="985.63,-345.03 989.32,-337.39 981.68,-341.06 985.63,-345.03"/>
<text xml:space="preserve" text-anchor="middle" x="925" y="-398.2" font-family="sans-Serif" font-size="9.00" fill="#cbd5e1">resolve→lesson</text>
</g>
<!-- Fmis -->
<g id="node12" class="node">
<title>Fmis</title>
<path fill="#fcd34d" stroke="#334155" stroke-width="1.3" d="M909.88,-331.5C909.88,-333.71 878.56,-335.5 840,-335.5 801.44,-335.5 770.12,-333.71 770.12,-331.5 770.12,-331.5 770.12,-295.5 770.12,-295.5 770.12,-293.29 801.44,-291.5 840,-291.5 878.56,-291.5 909.88,-293.29 909.88,-295.5 909.88,-295.5 909.88,-331.5 909.88,-331.5"/>
<path fill="none" stroke="#334155" stroke-width="1.3" d="M909.88,-331.5C909.88,-329.29 878.56,-327.5 840,-327.5 801.44,-327.5 770.12,-329.29 770.12,-331.5"/>
<text xml:space="preserve" text-anchor="middle" x="840" y="-316" font-family="sans-Serif" font-size="10.00" fill="#0f172a">mistakes.json</text>
<text xml:space="preserve" text-anchor="middle" x="840" y="-304" font-family="sans-Serif" font-size="10.00" fill="#0f172a">sig → count · fix · regressed</text>
</g>
<!-- Mrec&#45;&gt;Fmis -->
<g id="edge6" class="edge">
<title>Mrec&#45;&gt;Fmis</title>
<path fill="none" stroke="#f59e0b" stroke-width="1.3" d="M812.74,-449.36C812.79,-433.87 813.56,-410.79 817,-391 819.69,-375.57 824.48,-358.86 829,-345.01"/>
<polygon fill="#f59e0b" stroke="#f59e0b" stroke-width="1.3" points="831.53,-346.27 831.42,-337.8 826.22,-344.49 831.53,-346.27"/>
</g>
<!-- Xft -->
<g id="node6" class="node">
<title>Xft</title>
<path fill="#6ee7b7" stroke="#334155" stroke-width="1.3" d="M563.25,-486C563.25,-486 464.75,-486 464.75,-486 458.75,-486 452.75,-480 452.75,-474 452.75,-474 452.75,-462 452.75,-462 452.75,-456 458.75,-450 464.75,-450 464.75,-450 563.25,-450 563.25,-450 569.25,-450 575.25,-456 575.25,-462 575.25,-462 575.25,-474 575.25,-474 575.25,-480 569.25,-486 563.25,-486"/>
<text xml:space="preserve" text-anchor="middle" x="514" y="-470.5" font-family="sans-Serif" font-size="10.00" fill="#0f172a">Learning.export_finetune</text>
<text xml:space="preserve" text-anchor="middle" x="514" y="-458.5" font-family="sans-Serif" font-size="10.00" fill="#0f172a">(sessions → dataset)</text>
</g>
<!-- Xft&#45;&gt;Flrn -->
<g id="edge21" class="edge">
<title>Xft&#45;&gt;Flrn</title>
<path fill="none" stroke="#fbbf24" stroke-width="1.3" stroke-dasharray="5,2" d="M491.49,-441.87C483.89,-432.79 475.65,-422.25 469,-412 452.81,-387.05 438.05,-356.03 429.05,-335.77"/>
<polygon fill="#fbbf24" stroke="#fbbf24" stroke-width="1.3" points="489.34,-443.68 496.67,-447.94 493.6,-440.04 489.34,-443.68"/>
<text xml:space="preserve" text-anchor="middle" x="494.5" y="-398.2" font-family="sans-Serif" font-size="9.00" fill="#cbd5e1">success:true</text>
</g>
<!-- Xft&#45;&gt;Fses -->
<g id="edge20" class="edge">
<title>Xft&#45;&gt;Fses</title>
<path fill="none" stroke="#fbbf24" stroke-width="1.3" stroke-dasharray="5,2" d="M466.13,-445.09C435.42,-429.88 395.54,-407.93 364,-383 346.51,-369.17 329.57,-350.35 317.67,-335.93"/>
<polygon fill="#fbbf24" stroke="#fbbf24" stroke-width="1.3" points="464.75,-447.53 473.17,-448.53 467.21,-442.5 464.75,-447.53"/>
<text xml:space="preserve" text-anchor="middle" x="412.74" y="-398.2" font-family="sans-Serif" font-size="9.00" fill="#cbd5e1">mine</text>
</g>
<!-- Fftn -->
<g id="node14" class="node">
<title>Fftn</title>
<path fill="#fcd34d" stroke="#334155" stroke-width="1.3" d="M599.88,-331.5C599.88,-333.71 576.62,-335.5 548,-335.5 519.38,-335.5 496.12,-333.71 496.12,-331.5 496.12,-331.5 496.12,-295.5 496.12,-295.5 496.12,-293.29 519.38,-291.5 548,-291.5 576.62,-291.5 599.88,-293.29 599.88,-295.5 599.88,-295.5 599.88,-331.5 599.88,-331.5"/>
<path fill="none" stroke="#334155" stroke-width="1.3" d="M599.88,-331.5C599.88,-329.29 576.62,-327.5 548,-327.5 519.38,-327.5 496.12,-329.29 496.12,-331.5"/>
<text xml:space="preserve" text-anchor="middle" x="548" y="-316" font-family="sans-Serif" font-size="10.00" fill="#0f172a">finetune/*.jsonl</text>
<text xml:space="preserve" text-anchor="middle" x="548" y="-304" font-family="sans-Serif" font-size="10.00" fill="#0f172a">ShareGPT / OpenAI</text>
</g>
<!-- Xft&#45;&gt;Fftn -->
<g id="edge19" class="edge">
<title>Xft&#45;&gt;Fftn</title>
<path fill="none" stroke="#f59e0b" stroke-width="1.3" d="M519.49,-449.78C522.81,-439 526.97,-424.77 530,-412 535.22,-389.99 539.82,-364.89 543.07,-345.67"/>
<polygon fill="#f59e0b" stroke="#f59e0b" stroke-width="1.3" points="545.81,-346.22 544.36,-337.87 540.29,-345.31 545.81,-346.22"/>
</g>
<!-- Rec -->
<g id="node15" class="node">
<title>Rec</title>
<path fill="#c4b5fd" stroke="#334155" stroke-width="1.3" d="M979.88,-197C979.88,-197 924.12,-197 924.12,-197 918.12,-197 912.12,-191 912.12,-185 912.12,-185 912.12,-173 912.12,-173 912.12,-167 918.12,-161 924.12,-161 924.12,-161 979.88,-161 979.88,-161 985.88,-161 991.88,-167 991.88,-173 991.88,-173 991.88,-185 991.88,-185 991.88,-191 985.88,-197 979.88,-197"/>
<text xml:space="preserve" text-anchor="middle" x="952" y="-175.5" font-family="sans-Serif" font-size="10.00" fill="#0f172a">memory_recall</text>
</g>
<!-- Fmem&#45;&gt;Rec -->
<g id="edge8" class="edge">
<title>Fmem&#45;&gt;Rec</title>
<path fill="none" stroke="#a78bfa" stroke-width="1.3" d="M1000.55,-290.92C990.42,-267.77 974.33,-231 963.47,-206.21"/>
<polygon fill="#a78bfa" stroke="#a78bfa" stroke-width="1.3" points="966.15,-205.35 960.38,-199.15 961.02,-207.6 966.15,-205.35"/>
</g>
<!-- Midx -->
<g id="node16" class="node">
<title>Midx</title>
<path fill="#c4b5fd" stroke="#334155" stroke-width="2" d="M860.12,-201C860.12,-201 799.88,-201 799.88,-201 793.88,-201 787.88,-195 787.88,-189 787.88,-189 787.88,-169 787.88,-169 787.88,-163 793.88,-157 799.88,-157 799.88,-157 860.12,-157 860.12,-157 866.12,-157 872.12,-163 872.12,-169 872.12,-169 872.12,-189 872.12,-189 872.12,-195 866.12,-201 860.12,-201"/>
<text xml:space="preserve" text-anchor="middle" x="830" y="-187.5" font-family="sans-Serif" font-size="10.00" fill="#0f172a">MemoryIndex</text>
<text xml:space="preserve" text-anchor="middle" x="830" y="-175.5" font-family="sans-Serif" font-size="10.00" fill="#0f172a">recall_semantic</text>
<text xml:space="preserve" text-anchor="middle" x="830" y="-163.5" font-family="sans-Serif" font-size="10.00" fill="#0f172a">(cosine top&#45;K)</text>
</g>
<!-- Fmem&#45;&gt;Midx -->
<g id="edge23" class="edge">
<title>Fmem&#45;&gt;Midx</title>
<path fill="none" stroke="#a78bfa" stroke-width="1.3" stroke-dasharray="5,2" d="M970.58,-291.29C946.94,-277.88 916.76,-259.48 892,-240.25 879.86,-230.83 867.52,-219.3 857.07,-208.87"/>
<polygon fill="#a78bfa" stroke="#a78bfa" stroke-width="1.3" points="859.16,-207 851.55,-203.26 855.17,-210.93 859.16,-207"/>
</g>
<!-- ReVal -->
<g id="node23" class="node">
<title>ReVal</title>
<path fill="#fcd34d" stroke="#334155" stroke-width="1.3" d="M1228.12,-490C1228.12,-490 1125.88,-490 1125.88,-490 1119.88,-490 1113.88,-484 1113.88,-478 1113.88,-478 1113.88,-458 1113.88,-458 1113.88,-452 1119.88,-446 1125.88,-446 1125.88,-446 1228.12,-446 1228.12,-446 1234.12,-446 1240.12,-452 1240.12,-458 1240.12,-458 1240.12,-478 1240.12,-478 1240.12,-484 1234.12,-490 1228.12,-490"/>
<text xml:space="preserve" text-anchor="middle" x="1177" y="-476.5" font-family="sans-Serif" font-size="10.00" fill="#0f172a">Extrospection.verify</text>
<text xml:space="preserve" text-anchor="middle" x="1177" y="-464.5" font-family="sans-Serif" font-size="10.00" fill="#0f172a">revalidate_memory (cron)</text>
<text xml:space="preserve" text-anchor="middle" x="1177" y="-452.5" font-family="sans-Serif" font-size="10.00" fill="#0f172a">browser&#45;backed GC</text>
</g>
<!-- Fmem&#45;&gt;ReVal -->
<g id="edge30" class="edge">
<title>Fmem&#45;&gt;ReVal</title>
<path fill="none" stroke="#94a3b8" stroke-width="1.3" stroke-dasharray="5,2" d="M991.34,-336.11C975.51,-357.18 957.91,-389.29 975.25,-412 991.06,-432.7 1052.54,-447.48 1103.52,-456.46"/>
<polygon fill="#94a3b8" stroke="#94a3b8" stroke-width="1.3" points="1102.93,-459.2 1111.29,-457.8 1103.88,-453.68 1102.93,-459.2"/>
<text xml:space="preserve" text-anchor="middle" x="1017.62" y="-398.2" font-family="sans-Serif" font-size="9.00" fill="#cbd5e1">:fact w/ CVE|ver|URL</text>
</g>
<!-- Fidx&#45;&gt;Midx -->
<g id="edge22" class="edge">
<title>Fidx&#45;&gt;Midx</title>
<path fill="none" stroke="#a78bfa" stroke-width="1.3" d="M718.89,-283.73C734.08,-270.65 752.11,-254.86 768,-240.25 779.04,-230.1 790.91,-218.69 801.28,-208.55"/>
<polygon fill="#a78bfa" stroke="#a78bfa" stroke-width="1.3" points="803.03,-210.75 806.78,-203.15 799.11,-206.75 803.03,-210.75"/>
</g>
<!-- Skv -->
<g id="node17" class="node">
<title>Skv</title>
<path fill="#c4b5fd" stroke="#334155" stroke-width="1.3" d="M190.25,-197C190.25,-197 133.75,-197 133.75,-197 127.75,-197 121.75,-191 121.75,-185 121.75,-185 121.75,-173 121.75,-173 121.75,-167 127.75,-161 133.75,-161 133.75,-161 190.25,-161 190.25,-161 196.25,-161 202.25,-167 202.25,-173 202.25,-173 202.25,-185 202.25,-185 202.25,-191 196.25,-197 190.25,-197"/>
<text xml:space="preserve" text-anchor="middle" x="162" y="-175.5" font-family="sans-Serif" font-size="10.00" fill="#0f172a">skill_list · view</text>
</g>
<!-- Fskl&#45;&gt;Skv -->
<g id="edge9" class="edge">
<title>Fskl&#45;&gt;Skv</title>
<path fill="none" stroke="#a78bfa" stroke-width="1.3" d="M162,-290.92C162,-268.07 162,-231.97 162,-207.2"/>
<polygon fill="#a78bfa" stroke="#a78bfa" stroke-width="1.3" points="164.8,-207.31 162,-199.31 159.2,-207.31 164.8,-207.31"/>
</g>
<!-- Out -->
<g id="node18" class="node">
<title>Out</title>
<path fill="#c4b5fd" stroke="#334155" stroke-width="1.3" d="M615.88,-197C615.88,-197 542.12,-197 542.12,-197 536.12,-197 530.12,-191 530.12,-185 530.12,-185 530.12,-173 530.12,-173 530.12,-167 536.12,-161 542.12,-161 542.12,-161 615.88,-161 615.88,-161 621.88,-161 627.88,-167 627.88,-173 627.88,-173 627.88,-185 627.88,-185 627.88,-191 621.88,-197 615.88,-197"/>
<text xml:space="preserve" text-anchor="middle" x="579" y="-181.5" font-family="sans-Serif" font-size="10.00" fill="#0f172a">learning_outcomes</text>
<text xml:space="preserve" text-anchor="middle" x="579" y="-169.5" font-family="sans-Serif" font-size="10.00" fill="#0f172a">learning_stats</text>
</g>
<!-- Flrn&#45;&gt;Out -->
<g id="edge10" class="edge">
<title>Flrn&#45;&gt;Out</title>
<path fill="none" stroke="#a78bfa" stroke-width="1.3" d="M446.62,-291.6C464.66,-277.33 488.95,-257.87 510,-240.25 524.07,-228.47 539.47,-215.07 552.14,-203.91"/>
<polygon fill="#a78bfa" stroke="#a78bfa" stroke-width="1.3" points="553.64,-206.32 557.78,-198.92 549.94,-202.12 553.64,-206.32"/>
</g>
<!-- Exem -->
<g id="node21" class="node">
<title>Exem</title>
<path fill="#c4b5fd" stroke="#334155" stroke-width="1.3" d="M477.62,-197C477.62,-197 384.38,-197 384.38,-197 378.38,-197 372.38,-191 372.38,-185 372.38,-185 372.38,-173 372.38,-173 372.38,-167 378.38,-161 384.38,-161 384.38,-161 477.62,-161 477.62,-161 483.62,-161 489.62,-167 489.62,-173 489.62,-173 489.62,-185 489.62,-185 489.62,-191 483.62,-197 477.62,-197"/>
<text xml:space="preserve" text-anchor="middle" x="431" y="-181.5" font-family="sans-Serif" font-size="10.00" fill="#0f172a">Learning.exemplars_for</text>
<text xml:space="preserve" text-anchor="middle" x="431" y="-169.5" font-family="sans-Serif" font-size="10.00" fill="#0f172a">(few&#45;shot trace)</text>
</g>
<!-- Flrn&#45;&gt;Exem -->
<g id="edge24" class="edge">
<title>Flrn&#45;&gt;Exem</title>
<path fill="none" stroke="#a78bfa" stroke-width="1.3" d="M421.79,-290.92C423.69,-268.07 426.69,-231.97 428.74,-207.2"/>
<polygon fill="#a78bfa" stroke="#a78bfa" stroke-width="1.3" points="431.53,-207.51 429.4,-199.31 425.94,-207.05 431.53,-207.51"/>
</g>
<!-- Sesv -->
<g id="node19" class="node">
<title>Sesv</title>
<path fill="#c4b5fd" stroke="#334155" stroke-width="1.3" d="M320.12,-197C320.12,-197 253.88,-197 253.88,-197 247.88,-197 241.88,-191 241.88,-185 241.88,-185 241.88,-173 241.88,-173 241.88,-167 247.88,-161 253.88,-161 253.88,-161 320.12,-161 320.12,-161 326.12,-161 332.12,-167 332.12,-173 332.12,-173 332.12,-185 332.12,-185 332.12,-191 326.12,-197 320.12,-197"/>
<text xml:space="preserve" text-anchor="middle" x="287" y="-181.5" font-family="sans-Serif" font-size="10.00" fill="#0f172a">sessions_view</text>
<text xml:space="preserve" text-anchor="middle" x="287" y="-169.5" font-family="sans-Serif" font-size="10.00" fill="#0f172a">sessions_current</text>
</g>
<!-- Fses&#45;&gt;Sesv -->
<g id="edge11" class="edge">
<title>Fses&#45;&gt;Sesv</title>
<path fill="none" stroke="#a78bfa" stroke-width="1.3" d="M298.72,-290.92C296.31,-268.07 292.49,-231.97 289.87,-207.2"/>
<polygon fill="#a78bfa" stroke="#a78bfa" stroke-width="1.3" points="292.66,-206.96 289.04,-199.3 287.1,-207.55 292.66,-206.96"/>
</g>
<!-- Fses&#45;&gt;Exem -->
<g id="edge25" class="edge">
<title>Fses&#45;&gt;Exem</title>
<path fill="none" stroke="#a78bfa" stroke-width="1.3" stroke-dasharray="5,2" d="M322.18,-290.92C345.49,-267.16 382.88,-229.05 407.19,-204.27"/>
<polygon fill="#a78bfa" stroke="#a78bfa" stroke-width="1.3" points="409,-206.42 412.6,-198.75 405,-202.5 409,-206.42"/>
</g>
<!-- Teach -->
<g id="node24" class="node">
<title>Teach</title>
<path fill="#fda4af" stroke="#334155" stroke-width="2" d="M1528.62,-490C1528.62,-490 1435.38,-490 1435.38,-490 1429.38,-490 1423.38,-484 1423.38,-478 1423.38,-478 1423.38,-458 1423.38,-458 1423.38,-452 1429.38,-446 1435.38,-446 1435.38,-446 1528.62,-446 1528.62,-446 1534.62,-446 1540.62,-452 1540.62,-458 1540.62,-458 1540.62,-478 1540.62,-478 1540.62,-484 1534.62,-490 1528.62,-490"/>
<text xml:space="preserve" text-anchor="middle" x="1482" y="-476.5" font-family="sans-Serif" font-size="10.00" fill="#0f172a">Reflect.on</text>
<text xml:space="preserve" text-anchor="middle" x="1482" y="-464.5" font-family="sans-Serif" font-size="10.00" fill="#0f172a">(engine: reflect_engine)</text>
<text xml:space="preserve" text-anchor="middle" x="1482" y="-452.5" font-family="sans-Serif" font-size="10.00" fill="#0f172a">teacher&#45;student</text>
</g>
<!-- Fses&#45;&gt;Teach -->
<g id="edge31" class="edge">
<title>Fses&#45;&gt;Teach</title>
<path fill="none" stroke="#94a3b8" stroke-width="1.3" stroke-dasharray="5,2" d="M313.73,-335.94C324.74,-352.21 342.29,-373.36 364,-383 388.3,-393.79 1295.08,-385.08 1321,-391 1363.14,-400.63 1407.29,-422.42 1438.67,-440.21"/>
<polygon fill="#94a3b8" stroke="#94a3b8" stroke-width="1.3" points="1437.14,-442.56 1445.47,-444.13 1439.93,-437.71 1437.14,-442.56"/>
<text xml:space="preserve" text-anchor="middle" x="1399.69" y="-398.2" font-family="sans-Serif" font-size="9.00" fill="#cbd5e1">transcript</text>
</g>
<!-- Mlst -->
<g id="node20" class="node">
<title>Mlst</title>
<path fill="#c4b5fd" stroke="#334155" stroke-width="1.3" d="M735.88,-197C735.88,-197 680.12,-197 680.12,-197 674.12,-197 668.12,-191 668.12,-185 668.12,-185 668.12,-173 668.12,-173 668.12,-167 674.12,-161 680.12,-161 680.12,-161 735.88,-161 735.88,-161 741.88,-161 747.88,-167 747.88,-173 747.88,-173 747.88,-185 747.88,-185 747.88,-191 741.88,-197 735.88,-197"/>
<text xml:space="preserve" text-anchor="middle" x="708" y="-181.5" font-family="sans-Serif" font-size="10.00" fill="#0f172a">mistakes_list</text>
<text xml:space="preserve" text-anchor="middle" x="708" y="-169.5" font-family="sans-Serif" font-size="10.00" fill="#0f172a">correction_hint</text>
</g>
<!-- Fmis&#45;&gt;Mlst -->
<g id="edge12" class="edge">
<title>Fmis&#45;&gt;Mlst</title>
<path fill="none" stroke="#a78bfa" stroke-width="1.3" d="M818.5,-290.92C794.83,-267.16 756.86,-229.05 732.18,-204.27"/>
<polygon fill="#a78bfa" stroke="#a78bfa" stroke-width="1.3" points="734.3,-202.43 726.67,-198.74 730.33,-206.38 734.3,-202.43"/>
</g>
<!-- Fext -->
<g id="node13" class="node">
<title>Fext</title>
<path fill="#fcd34d" stroke="#334155" stroke-width="1.3" d="M1232.25,-331.5C1232.25,-333.71 1204.8,-335.5 1171,-335.5 1137.2,-335.5 1109.75,-333.71 1109.75,-331.5 1109.75,-331.5 1109.75,-295.5 1109.75,-295.5 1109.75,-293.29 1137.2,-291.5 1171,-291.5 1204.8,-291.5 1232.25,-293.29 1232.25,-295.5 1232.25,-295.5 1232.25,-331.5 1232.25,-331.5"/>
<path fill="none" stroke="#334155" stroke-width="1.3" d="M1232.25,-331.5C1232.25,-329.29 1204.8,-327.5 1171,-327.5 1137.2,-327.5 1109.75,-329.29 1109.75,-331.5"/>
<text xml:space="preserve" text-anchor="middle" x="1171" y="-316" font-family="sans-Serif" font-size="10.00" fill="#0f172a">extrospection.json</text>
<text xml:space="preserve" text-anchor="middle" x="1171" y="-304" font-family="sans-Serif" font-size="10.00" fill="#0f172a">snapshot · rf · web · obs</text>
</g>
<!-- Prompt -->
<g id="node22" class="node">
<title>Prompt</title>
<path fill="#7dd3fc" stroke="#334155" stroke-width="2" d="M673.62,-68C673.62,-68 484.38,-68 484.38,-68 478.38,-68 472.38,-62 472.38,-56 472.38,-56 472.38,-12 472.38,-12 472.38,-6 478.38,0 484.38,0 484.38,0 673.62,0 673.62,0 679.62,0 685.62,-6 685.62,-12 685.62,-12 685.62,-56 685.62,-56 685.62,-62 679.62,-68 673.62,-68"/>
<text xml:space="preserve" text-anchor="middle" x="579" y="-54.5" font-family="sans-Serif" font-size="10.00" fill="#0f172a">PromptBuilder.build(request:)</text>
<text xml:space="preserve" text-anchor="middle" x="579" y="-42.5" font-family="sans-Serif" font-size="10.00" fill="#0f172a">engine&#45;aware .budget</text>
<text xml:space="preserve" text-anchor="middle" x="579" y="-30.5" font-family="sans-Serif" font-size="10.00" fill="#0f172a">MEMORY (relevance&#45;ranked) + SKILLS</text>
<text xml:space="preserve" text-anchor="middle" x="579" y="-18.5" font-family="sans-Serif" font-size="10.00" fill="#0f172a">+ LEARNING + KNOWN MISTAKES/FIXES</text>
<text xml:space="preserve" text-anchor="middle" x="579" y="-6.5" font-family="sans-Serif" font-size="10.00" fill="#0f172a">+ METRICS (per&#45;engine) + EXTRO</text>
</g>
<!-- Rec&#45;&gt;Prompt -->
<g id="edge13" class="edge">
<title>Rec&#45;&gt;Prompt</title>
<path fill="none" stroke="#38bdf8" stroke-width="1.3" d="M929.72,-160.58C906.86,-143.47 869.69,-117.7 834,-102 790.48,-82.85 740.29,-68.21 696.01,-57.57"/>
<polygon fill="#38bdf8" stroke="#38bdf8" stroke-width="1.3" points="696.71,-54.86 688.28,-55.74 695.42,-60.31 696.71,-54.86"/>
</g>
<!-- Midx&#45;&gt;Prompt -->
<g id="edge26" class="edge">
<title>Midx&#45;&gt;Prompt</title>
<path fill="none" stroke="#38bdf8" stroke-width="2" d="M802.93,-156.13C782.3,-140.04 752.79,-118.22 725,-102 707.75,-91.93 688.72,-82.25 670.26,-73.53"/>
<polygon fill="#38bdf8" stroke="#38bdf8" stroke-width="2" points="671.56,-71.04 663.12,-70.2 669.19,-76.12 671.56,-71.04"/>
<text xml:space="preserve" text-anchor="middle" x="789.52" y="-114.45" font-family="sans-Serif" font-size="9.00" fill="#cbd5e1">MEMORY block</text>
<text xml:space="preserve" text-anchor="middle" x="789.52" y="-103.95" font-family="sans-Serif" font-size="9.00" fill="#cbd5e1">(top&#45;K by cosine)</text>
</g>
<!-- Skv&#45;&gt;Prompt -->
<g id="edge14" class="edge">
<title>Skv&#45;&gt;Prompt</title>
<path fill="none" stroke="#38bdf8" stroke-width="1.3" d="M196.21,-160.44C204.55,-156.45 213.51,-152.39 222,-149 300.65,-117.62 391.61,-88.68 462.03,-67.81"/>
<polygon fill="#38bdf8" stroke="#38bdf8" stroke-width="1.3" points="462.62,-70.55 469.5,-65.6 461.03,-65.18 462.62,-70.55"/>
</g>
<!-- Out&#45;&gt;Prompt -->
<g id="edge15" class="edge">
<title>Out&#45;&gt;Prompt</title>
<path fill="none" stroke="#38bdf8" stroke-width="1.3" d="M579,-160.47C579,-140.21 579,-106.13 579,-78.6"/>
<polygon fill="#38bdf8" stroke="#38bdf8" stroke-width="1.3" points="581.8,-78.75 579,-70.75 576.2,-78.75 581.8,-78.75"/>
</g>
<!-- Sesv&#45;&gt;Prompt -->
<g id="edge16" class="edge">
<title>Sesv&#45;&gt;Prompt</title>
<path fill="none" stroke="#38bdf8" stroke-width="1.3" d="M322.8,-160.47C366.91,-138.86 443.1,-101.55 500.96,-73.22"/>
<polygon fill="#38bdf8" stroke="#38bdf8" stroke-width="1.3" points="502,-75.83 507.95,-69.79 499.54,-70.8 502,-75.83"/>
</g>
<!-- Mlst&#45;&gt;Prompt -->
<g id="edge17" class="edge">
<title>Mlst&#45;&gt;Prompt</title>
<path fill="none" stroke="#fb7185" stroke-width="2" d="M692.18,-160.47C673.51,-139.76 641.81,-104.63 616.7,-76.79"/>
<polygon fill="#fb7185" stroke="#fb7185" stroke-width="2" points="618.94,-75.1 611.51,-71.03 614.79,-78.85 618.94,-75.1"/>
<text xml:space="preserve" text-anchor="middle" x="685.05" y="-109.2" font-family="sans-Serif" font-size="9.00" fill="#cbd5e1">do NOT repeat</text>
</g>
<!-- Exem&#45;&gt;Prompt -->
<g id="edge27" class="edge">
<title>Exem&#45;&gt;Prompt</title>
<path fill="none" stroke="#38bdf8" stroke-width="1.3" d="M449.15,-160.47C470.94,-139.41 508.19,-103.42 537.22,-75.37"/>
<polygon fill="#38bdf8" stroke="#38bdf8" stroke-width="1.3" points="538.81,-77.73 542.62,-70.15 534.92,-73.7 538.81,-77.73"/>
<text xml:space="preserve" text-anchor="middle" x="538.69" y="-114.45" font-family="sans-Serif" font-size="9.00" fill="#cbd5e1">few&#45;shot msgs</text>
<text xml:space="preserve" text-anchor="middle" x="538.69" y="-103.95" font-family="sans-Serif" font-size="9.00" fill="#cbd5e1">(local only)</text>
</g>
<!-- ReVal&#45;&gt;Fmem -->
<g id="edge28" class="edge">
<title>ReVal&#45;&gt;Fmem</title>
<path fill="none" stroke="#fb7185" stroke-width="2" stroke-dasharray="5,2" d="M1137.01,-445.4C1121.55,-436.13 1104.19,-424.54 1090,-412 1067.38,-392.01 1045.92,-365.27 1030.93,-344.85"/>
<polygon fill="#fb7185" stroke="#fb7185" stroke-width="2" points="1033.24,-343.26 1026.29,-338.41 1028.7,-346.54 1033.24,-343.26"/>
<text xml:space="preserve" text-anchor="middle" x="1145.5" y="-403.45" font-family="sans-Serif" font-size="9.00" fill="#cbd5e1">[UNVERIFIED yyyy&#45;mm&#45;dd]</text>
<text xml:space="preserve" text-anchor="middle" x="1145.5" y="-392.95" font-family="sans-Serif" font-size="9.00" fill="#cbd5e1">prefix stale :fact</text>
</g>
<!-- ReVal&#45;&gt;Fext -->
<g id="edge29" class="edge">
<title>ReVal&#45;&gt;Fext</title>
<path fill="none" stroke="#f59e0b" stroke-width="1.3" stroke-dasharray="5,2" d="M1195.27,-445.47C1205.65,-430.64 1215.72,-410.23 1211,-391 1207.01,-374.76 1198.9,-358.15 1191.02,-344.57"/>
<polygon fill="#f59e0b" stroke="#f59e0b" stroke-width="1.3" points="1193.47,-343.21 1186.94,-337.81 1188.68,-346.1 1193.47,-343.21"/>
<text xml:space="preserve" text-anchor="middle" x="1261.69" y="-403.45" font-family="sans-Serif" font-size="9.00" fill="#cbd5e1">:confirmed → :intel obs</text>
<text xml:space="preserve" text-anchor="middle" x="1261.69" y="-392.95" font-family="sans-Serif" font-size="9.00" fill="#cbd5e1">:refuted → observe stale</text>
</g>
<!-- Teach&#45;&gt;Fmem -->
<g id="edge32" class="edge">
<title>Teach&#45;&gt;Fmem</title>
<path fill="none" stroke="#fb7185" stroke-width="2" d="M1475.86,-445.05C1469.56,-427.06 1457.81,-402.73 1438,-391 1404.72,-371.3 1126.12,-396.83 1090,-383 1068.82,-374.89 1049.38,-358.56 1034.97,-343.88"/>
<polygon fill="#fb7185" stroke="#fb7185" stroke-width="2" points="1037.11,-342.06 1029.58,-338.16 1033.03,-345.9 1037.11,-342.06"/>
<text xml:space="preserve" text-anchor="middle" x="1492.48" y="-403.45" font-family="sans-Serif" font-size="9.00" fill="#cbd5e1">frontier&#45;authored</text>
<text xml:space="preserve" text-anchor="middle" x="1492.48" y="-392.95" font-family="sans-Serif" font-size="9.00" fill="#cbd5e1">:lesson</text>
</g>
</g>
</svg>
