<?xml version="1.0" encoding="UTF-8" standalone="no"?>
<!DOCTYPE svg PUBLIC "-//W3C//DTD SVG 1.1//EN"
 "http://www.w3.org/Graphics/SVG/1.1/DTD/svg11.dtd">
<!-- Generated by graphviz version 14.1.2 (0)
 -->
<!-- Title: PWN_MemorySkills Pages: 1 -->
<svg width="847pt" height="585pt"
 viewBox="0.00 0.00 847.00 585.00" xmlns="http://www.w3.org/2000/svg" xmlns:xlink="http://www.w3.org/1999/xlink">
<g id="graph0" class="graph" transform="scale(1 1) rotate(0) translate(43.2 541.95)">
<title>PWN_MemorySkills</title>
<polygon fill="#0f172a" stroke="none" points="-43.2,43.2 -43.2,-541.95 804.2,-541.95 804.2,43.2 -43.2,43.2"/>
<text xml:space="preserve" text-anchor="start" x="37.75" y="-476.75" font-family="sans-Serif" font-weight="bold" font-size="20.00" fill="#e2e8f0">Persistent Knowledge — Memory · Skills · Learning · Mistakes · Sessions</text>
<text xml:space="preserve" text-anchor="start" x="255.25" y="-465.3" font-family="sans-Serif" font-size="11.00" fill="#94a3b8">everything under ~/.pwn/ that shapes future prompts</text>
<g id="clust1" class="cluster">
<title>cluster_write</title>
<path fill="#022c22" stroke="#047857" d="M20,-368.5C20,-368.5 691,-368.5 691,-368.5 697,-368.5 703,-374.5 703,-380.5 703,-380.5 703,-439.75 703,-439.75 703,-445.75 697,-451.75 691,-451.75 691,-451.75 20,-451.75 20,-451.75 14,-451.75 8,-445.75 8,-439.75 8,-439.75 8,-380.5 8,-380.5 8,-374.5 14,-368.5 20,-368.5"/>
<text xml:space="preserve" text-anchor="middle" x="355.5" y="-428.75" font-family="sans-Serif" font-size="20.00" fill="#a7f3d0">Write&#45;Side Tools</text>
</g>
<g id="clust3" class="cluster">
<title>cluster_files</title>
<path fill="#422006" stroke="#a16207" d="M57,-232.75C57,-232.75 741,-232.75 741,-232.75 747,-232.75 753,-238.75 753,-244.75 753,-244.75 753,-312 753,-312 753,-318 747,-324 741,-324 741,-324 57,-324 57,-324 51,-324 45,-318 45,-312 45,-312 45,-244.75 45,-244.75 45,-238.75 51,-232.75 57,-232.75"/>
<text xml:space="preserve" text-anchor="middle" x="399" y="-301" font-family="sans-Serif" font-size="20.00" fill="#fde68a">~/.pwn/</text>
</g>
<g id="clust5" class="cluster">
<title>cluster_read</title>
<path fill="#2e1065" stroke="#6d28d9" d="M63,-114.5C63,-114.5 643,-114.5 643,-114.5 649,-114.5 655,-120.5 655,-126.5 655,-126.5 655,-185.75 655,-185.75 655,-191.75 649,-197.75 643,-197.75 643,-197.75 63,-197.75 63,-197.75 57,-197.75 51,-191.75 51,-185.75 51,-185.75 51,-126.5 51,-126.5 51,-120.5 57,-114.5 63,-114.5"/>
<text xml:space="preserve" text-anchor="middle" x="353" y="-174.75" font-family="sans-Serif" font-size="20.00" fill="#ddd6fe">Read&#45;Side / Injection</text>
</g>
<!-- Rem -->
<g id="node1" class="node">
<title>Rem</title>
<path fill="#6ee7b7" stroke="#334155" stroke-width="1.3" d="M550.25,-412.5C550.25,-412.5 463.75,-412.5 463.75,-412.5 457.75,-412.5 451.75,-406.5 451.75,-400.5 451.75,-400.5 451.75,-388.5 451.75,-388.5 451.75,-382.5 457.75,-376.5 463.75,-376.5 463.75,-376.5 550.25,-376.5 550.25,-376.5 556.25,-376.5 562.25,-382.5 562.25,-388.5 562.25,-388.5 562.25,-400.5 562.25,-400.5 562.25,-406.5 556.25,-412.5 550.25,-412.5"/>
<text xml:space="preserve" text-anchor="middle" x="507" y="-397" font-family="sans-Serif" font-size="10.00" fill="#0f172a">memory_remember</text>
<text xml:space="preserve" text-anchor="middle" x="507" y="-385" font-family="sans-Serif" font-size="10.00" fill="#0f172a">key · value · category</text>
</g>
<!-- Fmem -->
<g id="node6" class="node">
<title>Fmem</title>
<path fill="#fcd34d" stroke="#334155" stroke-width="1.3" d="M565.12,-280.75C565.12,-282.96 538.18,-284.75 505,-284.75 471.82,-284.75 444.88,-282.96 444.88,-280.75 444.88,-280.75 444.88,-244.75 444.88,-244.75 444.88,-242.54 471.82,-240.75 505,-240.75 538.18,-240.75 565.12,-242.54 565.12,-244.75 565.12,-244.75 565.12,-280.75 565.12,-280.75"/>
<path fill="none" stroke="#334155" stroke-width="1.3" d="M565.12,-280.75C565.12,-278.54 538.18,-276.75 505,-276.75 471.82,-276.75 444.88,-278.54 444.88,-280.75"/>
<text xml:space="preserve" text-anchor="middle" x="505" y="-265.25" font-family="sans-Serif" font-size="10.00" fill="#0f172a">memory.json</text>
<text xml:space="preserve" text-anchor="middle" x="505" y="-253.25" font-family="sans-Serif" font-size="10.00" fill="#0f172a">fact · pref · lesson · env</text>
</g>
<!-- Rem&#45;&gt;Fmem -->
<g id="edge1" class="edge">
<title>Rem&#45;&gt;Fmem</title>
<path fill="none" stroke="#f59e0b" stroke-width="1.3" d="M506.73,-376C506.41,-355.33 505.88,-320.55 505.48,-295.17"/>
<polygon fill="#f59e0b" stroke="#f59e0b" stroke-width="1.3" points="508.29,-295.2 505.36,-287.25 502.69,-295.29 508.29,-295.2"/>
</g>
<!-- Skc -->
<g id="node2" class="node">
<title>Skc</title>
<path fill="#6ee7b7" stroke="#334155" stroke-width="1.3" d="M260,-412.5C260,-412.5 184,-412.5 184,-412.5 178,-412.5 172,-406.5 172,-400.5 172,-400.5 172,-388.5 172,-388.5 172,-382.5 178,-376.5 184,-376.5 184,-376.5 260,-376.5 260,-376.5 266,-376.5 272,-382.5 272,-388.5 272,-388.5 272,-400.5 272,-400.5 272,-406.5 266,-412.5 260,-412.5"/>
<text xml:space="preserve" text-anchor="middle" x="222" y="-397" font-family="sans-Serif" font-size="10.00" fill="#0f172a">skill_create</text>
<text xml:space="preserve" text-anchor="middle" x="222" y="-385" font-family="sans-Serif" font-size="10.00" fill="#0f172a">skill_add_reference</text>
</g>
<!-- Fskl -->
<g id="node7" class="node">
<title>Fskl</title>
<path fill="#fcd34d" stroke="#334155" stroke-width="1.3" d="M279.75,-280.75C279.75,-282.96 254.31,-284.75 223,-284.75 191.69,-284.75 166.25,-282.96 166.25,-280.75 166.25,-280.75 166.25,-244.75 166.25,-244.75 166.25,-242.54 191.69,-240.75 223,-240.75 254.31,-240.75 279.75,-242.54 279.75,-244.75 279.75,-244.75 279.75,-280.75 279.75,-280.75"/>
<path fill="none" stroke="#334155" stroke-width="1.3" d="M279.75,-280.75C279.75,-278.54 254.31,-276.75 223,-276.75 191.69,-276.75 166.25,-278.54 166.25,-280.75"/>
<text xml:space="preserve" text-anchor="middle" x="223" y="-265.25" font-family="sans-Serif" font-size="10.00" fill="#0f172a">skills/*.md</text>
<text xml:space="preserve" text-anchor="middle" x="223" y="-253.25" font-family="sans-Serif" font-size="10.00" fill="#0f172a">YAML front&#45;matter refs</text>
</g>
<!-- Skc&#45;&gt;Fskl -->
<g id="edge2" class="edge">
<title>Skc&#45;&gt;Fskl</title>
<path fill="none" stroke="#f59e0b" stroke-width="1.3" d="M222.13,-376C222.29,-355.33 222.56,-320.55 222.76,-295.17"/>
<polygon fill="#f59e0b" stroke="#f59e0b" stroke-width="1.3" points="225.56,-295.27 222.82,-287.25 219.96,-295.23 225.56,-295.27"/>
</g>
<!-- Note -->
<g id="node3" class="node">
<title>Note</title>
<path fill="#6ee7b7" stroke="#334155" stroke-width="1.3" d="M120.25,-412.5C120.25,-412.5 27.75,-412.5 27.75,-412.5 21.75,-412.5 15.75,-406.5 15.75,-400.5 15.75,-400.5 15.75,-388.5 15.75,-388.5 15.75,-382.5 21.75,-376.5 27.75,-376.5 27.75,-376.5 120.25,-376.5 120.25,-376.5 126.25,-376.5 132.25,-382.5 132.25,-388.5 132.25,-388.5 132.25,-400.5 132.25,-400.5 132.25,-406.5 126.25,-412.5 120.25,-412.5"/>
<text xml:space="preserve" text-anchor="middle" x="74" y="-397" font-family="sans-Serif" font-size="10.00" fill="#0f172a">learning_note_outcome</text>
<text xml:space="preserve" text-anchor="middle" x="74" y="-385" font-family="sans-Serif" font-size="10.00" fill="#0f172a">learning_reflect</text>
</g>
<!-- Flrn -->
<g id="node8" class="node">
<title>Flrn</title>
<path fill="#fcd34d" stroke="#334155" stroke-width="1.3" d="M126.5,-280.75C126.5,-282.96 110.14,-284.75 90,-284.75 69.86,-284.75 53.5,-282.96 53.5,-280.75 53.5,-280.75 53.5,-244.75 53.5,-244.75 53.5,-242.54 69.86,-240.75 90,-240.75 110.14,-240.75 126.5,-242.54 126.5,-244.75 126.5,-244.75 126.5,-280.75 126.5,-280.75"/>
<path fill="none" stroke="#334155" stroke-width="1.3" d="M126.5,-280.75C126.5,-278.54 110.14,-276.75 90,-276.75 69.86,-276.75 53.5,-278.54 53.5,-280.75"/>
<text xml:space="preserve" text-anchor="middle" x="90" y="-265.25" font-family="sans-Serif" font-size="10.00" fill="#0f172a">learning.jsonl</text>
<text xml:space="preserve" text-anchor="middle" x="90" y="-253.25" font-family="sans-Serif" font-size="10.00" fill="#0f172a">outcome log</text>
</g>
<!-- Note&#45;&gt;Flrn -->
<g id="edge3" class="edge">
<title>Note&#45;&gt;Flrn</title>
<path fill="none" stroke="#f59e0b" stroke-width="1.3" d="M76.16,-376C78.71,-355.33 83,-320.55 86.13,-295.17"/>
<polygon fill="#f59e0b" stroke="#f59e0b" stroke-width="1.3" points="88.9,-295.52 87.1,-287.23 83.35,-294.83 88.9,-295.52"/>
</g>
<!-- Dist -->
<g id="node4" class="node">
<title>Dist</title>
<path fill="#6ee7b7" stroke="#334155" stroke-width="1.3" d="M400,-412.5C400,-412.5 324,-412.5 324,-412.5 318,-412.5 312,-406.5 312,-400.5 312,-400.5 312,-388.5 312,-388.5 312,-382.5 318,-376.5 324,-376.5 324,-376.5 400,-376.5 400,-376.5 406,-376.5 412,-382.5 412,-388.5 412,-388.5 412,-400.5 412,-400.5 412,-406.5 406,-412.5 400,-412.5"/>
<text xml:space="preserve" text-anchor="middle" x="362" y="-397" font-family="sans-Serif" font-size="10.00" fill="#0f172a">learning_distill_skill</text>
<text xml:space="preserve" text-anchor="middle" x="362" y="-385" font-family="sans-Serif" font-size="10.00" fill="#0f172a">(session → skill)</text>
</g>
<!-- Dist&#45;&gt;Fskl -->
<g id="edge4" class="edge">
<title>Dist&#45;&gt;Fskl</title>
<path fill="none" stroke="#f59e0b" stroke-width="1.3" d="M343.25,-376C320.13,-354.41 280.51,-317.43 253.1,-291.85"/>
<polygon fill="#f59e0b" stroke="#f59e0b" stroke-width="1.3" points="255.26,-290.03 247.5,-286.62 251.44,-294.13 255.26,-290.03"/>
</g>
<!-- Fses -->
<g id="node9" class="node">
<title>Fses</title>
<path fill="#fcd34d" stroke="#334155" stroke-width="1.3" d="M404.5,-280.75C404.5,-282.96 385.45,-284.75 362,-284.75 338.55,-284.75 319.5,-282.96 319.5,-280.75 319.5,-280.75 319.5,-244.75 319.5,-244.75 319.5,-242.54 338.55,-240.75 362,-240.75 385.45,-240.75 404.5,-242.54 404.5,-244.75 404.5,-244.75 404.5,-280.75 404.5,-280.75"/>
<path fill="none" stroke="#334155" stroke-width="1.3" d="M404.5,-280.75C404.5,-278.54 385.45,-276.75 362,-276.75 338.55,-276.75 319.5,-278.54 319.5,-280.75"/>
<text xml:space="preserve" text-anchor="middle" x="362" y="-265.25" font-family="sans-Serif" font-size="10.00" fill="#0f172a">sessions/*.jsonl</text>
<text xml:space="preserve" text-anchor="middle" x="362" y="-253.25" font-family="sans-Serif" font-size="10.00" fill="#0f172a">transcripts</text>
</g>
<!-- Dist&#45;&gt;Fses -->
<g id="edge5" class="edge">
<title>Dist&#45;&gt;Fses</title>
<path fill="none" stroke="#fbbf24" stroke-width="1.3" stroke-dasharray="5,2" d="M362,-366.07C362,-341.98 362,-307.42 362,-285.28"/>
<polygon fill="#fbbf24" stroke="#fbbf24" stroke-width="1.3" points="359.2,-366.03 362,-374.03 364.8,-366.03 359.2,-366.03"/>
<text xml:space="preserve" text-anchor="middle" x="372.12" y="-333.95" font-family="sans-Serif" font-size="9.00" fill="#cbd5e1">mine</text>
</g>
<!-- Mrec -->
<g id="node5" class="node">
<title>Mrec</title>
<path fill="#6ee7b7" stroke="#334155" stroke-width="1.3" d="M683.25,-412.5C683.25,-412.5 614.75,-412.5 614.75,-412.5 608.75,-412.5 602.75,-406.5 602.75,-400.5 602.75,-400.5 602.75,-388.5 602.75,-388.5 602.75,-382.5 608.75,-376.5 614.75,-376.5 614.75,-376.5 683.25,-376.5 683.25,-376.5 689.25,-376.5 695.25,-382.5 695.25,-388.5 695.25,-388.5 695.25,-400.5 695.25,-400.5 695.25,-406.5 689.25,-412.5 683.25,-412.5"/>
<text xml:space="preserve" text-anchor="middle" x="649" y="-397" font-family="sans-Serif" font-size="10.00" fill="#0f172a">mistakes_record</text>
<text xml:space="preserve" text-anchor="middle" x="649" y="-385" font-family="sans-Serif" font-size="10.00" fill="#0f172a">mistakes_resolve</text>
</g>
<!-- Mrec&#45;&gt;Fmem -->
<g id="edge7" class="edge">
<title>Mrec&#45;&gt;Fmem</title>
<path fill="none" stroke="#fbbf24" stroke-width="1.3" stroke-dasharray="5,2" d="M625.29,-375.98C612.73,-366.42 597.21,-354.19 584,-342.5 565.89,-326.47 546.65,-307.34 531.69,-291.95"/>
<polygon fill="#fbbf24" stroke="#fbbf24" stroke-width="1.3" points="534.08,-290.39 526.51,-286.58 530.05,-294.28 534.08,-290.39"/>
<text xml:space="preserve" text-anchor="middle" x="617" y="-333.95" font-family="sans-Serif" font-size="9.00" fill="#cbd5e1">resolve→lesson</text>
</g>
<!-- Fmis -->
<g id="node10" class="node">
<title>Fmis</title>
<path fill="#fcd34d" stroke="#334155" stroke-width="1.3" d="M744.88,-280.75C744.88,-282.96 713.56,-284.75 675,-284.75 636.44,-284.75 605.12,-282.96 605.12,-280.75 605.12,-280.75 605.12,-244.75 605.12,-244.75 605.12,-242.54 636.44,-240.75 675,-240.75 713.56,-240.75 744.88,-242.54 744.88,-244.75 744.88,-244.75 744.88,-280.75 744.88,-280.75"/>
<path fill="none" stroke="#334155" stroke-width="1.3" d="M744.88,-280.75C744.88,-278.54 713.56,-276.75 675,-276.75 636.44,-276.75 605.12,-278.54 605.12,-280.75"/>
<text xml:space="preserve" text-anchor="middle" x="675" y="-265.25" font-family="sans-Serif" font-size="10.00" fill="#0f172a">mistakes.json</text>
<text xml:space="preserve" text-anchor="middle" x="675" y="-253.25" font-family="sans-Serif" font-size="10.00" fill="#0f172a">sig → count · fix · regressed</text>
</g>
<!-- Mrec&#45;&gt;Fmis -->
<g id="edge6" class="edge">
<title>Mrec&#45;&gt;Fmis</title>
<path fill="none" stroke="#f59e0b" stroke-width="1.3" d="M652.51,-376C656.67,-355.24 663.68,-320.24 668.77,-294.84"/>
<polygon fill="#f59e0b" stroke="#f59e0b" stroke-width="1.3" points="671.47,-295.6 670.3,-287.21 665.98,-294.5 671.47,-295.6"/>
</g>
<!-- Rec -->
<g id="node11" class="node">
<title>Rec</title>
<path fill="#c4b5fd" stroke="#334155" stroke-width="1.3" d="M514.88,-158.5C514.88,-158.5 459.12,-158.5 459.12,-158.5 453.12,-158.5 447.12,-152.5 447.12,-146.5 447.12,-146.5 447.12,-134.5 447.12,-134.5 447.12,-128.5 453.12,-122.5 459.12,-122.5 459.12,-122.5 514.88,-122.5 514.88,-122.5 520.88,-122.5 526.88,-128.5 526.88,-134.5 526.88,-134.5 526.88,-146.5 526.88,-146.5 526.88,-152.5 520.88,-158.5 514.88,-158.5"/>
<text xml:space="preserve" text-anchor="middle" x="487" y="-137" font-family="sans-Serif" font-size="10.00" fill="#0f172a">memory_recall</text>
</g>
<!-- Fmem&#45;&gt;Rec -->
<g id="edge8" class="edge">
<title>Fmem&#45;&gt;Rec</title>
<path fill="none" stroke="#a78bfa" stroke-width="1.3" d="M501.78,-240.25C498.78,-220.19 494.29,-190.18 491.04,-168.51"/>
<polygon fill="#a78bfa" stroke="#a78bfa" stroke-width="1.3" points="493.85,-168.36 489.9,-160.86 488.31,-169.19 493.85,-168.36"/>
</g>
<!-- Skv -->
<g id="node12" class="node">
<title>Skv</title>
<path fill="#c4b5fd" stroke="#334155" stroke-width="1.3" d="M265.25,-158.5C265.25,-158.5 208.75,-158.5 208.75,-158.5 202.75,-158.5 196.75,-152.5 196.75,-146.5 196.75,-146.5 196.75,-134.5 196.75,-134.5 196.75,-128.5 202.75,-122.5 208.75,-122.5 208.75,-122.5 265.25,-122.5 265.25,-122.5 271.25,-122.5 277.25,-128.5 277.25,-134.5 277.25,-134.5 277.25,-146.5 277.25,-146.5 277.25,-152.5 271.25,-158.5 265.25,-158.5"/>
<text xml:space="preserve" text-anchor="middle" x="237" y="-137" font-family="sans-Serif" font-size="10.00" fill="#0f172a">skill_list · view</text>
</g>
<!-- Fskl&#45;&gt;Skv -->
<g id="edge9" class="edge">
<title>Fskl&#45;&gt;Skv</title>
<path fill="none" stroke="#a78bfa" stroke-width="1.3" d="M225.5,-240.25C227.83,-220.28 231.3,-190.45 233.82,-168.8"/>
<polygon fill="#a78bfa" stroke="#a78bfa" stroke-width="1.3" points="236.6,-169.14 234.75,-160.87 231.04,-168.49 236.6,-169.14"/>
</g>
<!-- Out -->
<g id="node13" class="node">
<title>Out</title>
<path fill="#c4b5fd" stroke="#334155" stroke-width="1.3" d="M144.88,-158.5C144.88,-158.5 71.12,-158.5 71.12,-158.5 65.12,-158.5 59.12,-152.5 59.12,-146.5 59.12,-146.5 59.12,-134.5 59.12,-134.5 59.12,-128.5 65.12,-122.5 71.12,-122.5 71.12,-122.5 144.88,-122.5 144.88,-122.5 150.88,-122.5 156.88,-128.5 156.88,-134.5 156.88,-134.5 156.88,-146.5 156.88,-146.5 156.88,-152.5 150.88,-158.5 144.88,-158.5"/>
<text xml:space="preserve" text-anchor="middle" x="108" y="-143" font-family="sans-Serif" font-size="10.00" fill="#0f172a">learning_outcomes</text>
<text xml:space="preserve" text-anchor="middle" x="108" y="-131" font-family="sans-Serif" font-size="10.00" fill="#0f172a">learning_stats</text>
</g>
<!-- Flrn&#45;&gt;Out -->
<g id="edge10" class="edge">
<title>Flrn&#45;&gt;Out</title>
<path fill="none" stroke="#a78bfa" stroke-width="1.3" d="M93.22,-240.25C96.22,-220.19 100.71,-190.18 103.96,-168.51"/>
<polygon fill="#a78bfa" stroke="#a78bfa" stroke-width="1.3" points="106.69,-169.19 105.1,-160.86 101.15,-168.36 106.69,-169.19"/>
</g>
<!-- Sesv -->
<g id="node14" class="node">
<title>Sesv</title>
<path fill="#c4b5fd" stroke="#334155" stroke-width="1.3" d="M395.12,-158.5C395.12,-158.5 328.88,-158.5 328.88,-158.5 322.88,-158.5 316.88,-152.5 316.88,-146.5 316.88,-146.5 316.88,-134.5 316.88,-134.5 316.88,-128.5 322.88,-122.5 328.88,-122.5 328.88,-122.5 395.12,-122.5 395.12,-122.5 401.12,-122.5 407.12,-128.5 407.12,-134.5 407.12,-134.5 407.12,-146.5 407.12,-146.5 407.12,-152.5 401.12,-158.5 395.12,-158.5"/>
<text xml:space="preserve" text-anchor="middle" x="362" y="-143" font-family="sans-Serif" font-size="10.00" fill="#0f172a">sessions_view</text>
<text xml:space="preserve" text-anchor="middle" x="362" y="-131" font-family="sans-Serif" font-size="10.00" fill="#0f172a">sessions_current</text>
</g>
<!-- Fses&#45;&gt;Sesv -->
<g id="edge11" class="edge">
<title>Fses&#45;&gt;Sesv</title>
<path fill="none" stroke="#a78bfa" stroke-width="1.3" d="M362,-240.25C362,-220.28 362,-190.45 362,-168.8"/>
<polygon fill="#a78bfa" stroke="#a78bfa" stroke-width="1.3" points="364.8,-168.88 362,-160.88 359.2,-168.88 364.8,-168.88"/>
</g>
<!-- Mlst -->
<g id="node15" class="node">
<title>Mlst</title>
<path fill="#c4b5fd" stroke="#334155" stroke-width="1.3" d="M634.88,-158.5C634.88,-158.5 579.12,-158.5 579.12,-158.5 573.12,-158.5 567.12,-152.5 567.12,-146.5 567.12,-146.5 567.12,-134.5 567.12,-134.5 567.12,-128.5 573.12,-122.5 579.12,-122.5 579.12,-122.5 634.88,-122.5 634.88,-122.5 640.88,-122.5 646.88,-128.5 646.88,-134.5 646.88,-134.5 646.88,-146.5 646.88,-146.5 646.88,-152.5 640.88,-158.5 634.88,-158.5"/>
<text xml:space="preserve" text-anchor="middle" x="607" y="-143" font-family="sans-Serif" font-size="10.00" fill="#0f172a">mistakes_list</text>
<text xml:space="preserve" text-anchor="middle" x="607" y="-131" font-family="sans-Serif" font-size="10.00" fill="#0f172a">correction_hint</text>
</g>
<!-- Fmis&#45;&gt;Mlst -->
<g id="edge12" class="edge">
<title>Fmis&#45;&gt;Mlst</title>
<path fill="none" stroke="#a78bfa" stroke-width="1.3" d="M662.84,-240.25C651.29,-219.83 633.91,-189.09 621.61,-167.34"/>
<polygon fill="#a78bfa" stroke="#a78bfa" stroke-width="1.3" points="624.19,-166.21 617.82,-160.63 619.32,-168.97 624.19,-166.21"/>
</g>
<!-- Prompt -->
<g id="node16" class="node">
<title>Prompt</title>
<path fill="#7dd3fc" stroke="#334155" stroke-width="2" d="M448.75,-44C448.75,-44 275.25,-44 275.25,-44 269.25,-44 263.25,-38 263.25,-32 263.25,-32 263.25,-12 263.25,-12 263.25,-6 269.25,0 275.25,0 275.25,0 448.75,0 448.75,0 454.75,0 460.75,-6 460.75,-12 460.75,-12 460.75,-32 460.75,-32 460.75,-38 454.75,-44 448.75,-44"/>
<text xml:space="preserve" text-anchor="middle" x="362" y="-30.5" font-family="sans-Serif" font-size="10.00" fill="#0f172a">PromptBuilder</text>
<text xml:space="preserve" text-anchor="middle" x="362" y="-18.5" font-family="sans-Serif" font-size="10.00" fill="#0f172a">MEMORY + SKILLS + LEARNING</text>
<text xml:space="preserve" text-anchor="middle" x="362" y="-6.5" font-family="sans-Serif" font-size="10.00" fill="#0f172a">+ KNOWN MISTAKES / KNOWN FIXES</text>
</g>
<!-- Rec&#45;&gt;Prompt -->
<g id="edge13" class="edge">
<title>Rec&#45;&gt;Prompt</title>
<path fill="none" stroke="#38bdf8" stroke-width="1.3" d="M468.29,-122.06C448.29,-103.42 416.27,-73.58 392.6,-51.52"/>
<polygon fill="#38bdf8" stroke="#38bdf8" stroke-width="1.3" points="394.74,-49.69 386.98,-46.28 390.92,-53.78 394.74,-49.69"/>
</g>
<!-- Skv&#45;&gt;Prompt -->
<g id="edge14" class="edge">
<title>Skv&#45;&gt;Prompt</title>
<path fill="none" stroke="#38bdf8" stroke-width="1.3" d="M255.71,-122.06C275.71,-103.42 307.73,-73.58 331.4,-51.52"/>
<polygon fill="#38bdf8" stroke="#38bdf8" stroke-width="1.3" points="333.08,-53.78 337.02,-46.28 329.26,-49.69 333.08,-53.78"/>
</g>
<!-- Out&#45;&gt;Prompt -->
<g id="edge15" class="edge">
<title>Out&#45;&gt;Prompt</title>
<path fill="none" stroke="#38bdf8" stroke-width="1.3" d="M146.3,-121.93C188.57,-102.54 257.03,-71.15 305.47,-48.93"/>
<polygon fill="#38bdf8" stroke="#38bdf8" stroke-width="1.3" points="306.38,-51.59 312.49,-45.71 304.05,-46.5 306.38,-51.59"/>
</g>
<!-- Sesv&#45;&gt;Prompt -->
<g id="edge16" class="edge">
<title>Sesv&#45;&gt;Prompt</title>
<path fill="none" stroke="#38bdf8" stroke-width="1.3" d="M362,-122.06C362,-104.3 362,-76.39 362,-54.71"/>
<polygon fill="#38bdf8" stroke="#38bdf8" stroke-width="1.3" points="364.8,-54.91 362,-46.91 359.2,-54.91 364.8,-54.91"/>
</g>
<!-- Mlst&#45;&gt;Prompt -->
<g id="edge17" class="edge">
<title>Mlst&#45;&gt;Prompt</title>
<path fill="none" stroke="#fb7185" stroke-width="2" d="M570.06,-121.93C529.7,-102.75 464.62,-71.8 417.99,-49.62"/>
<polygon fill="#fb7185" stroke="#fb7185" stroke-width="2" points="419.2,-47.1 410.77,-46.19 416.79,-52.15 419.2,-47.1"/>
<text xml:space="preserve" text-anchor="middle" x="529.17" y="-79.95" font-family="sans-Serif" font-size="9.00" fill="#cbd5e1">do NOT repeat</text>
</g>
</g>
</svg>
