<?xml version="1.0" encoding="UTF-8" standalone="no"?>
<!DOCTYPE svg PUBLIC "-//W3C//DTD SVG 1.1//EN"
 "http://www.w3.org/Graphics/SVG/1.1/DTD/svg11.dtd">
<!-- Generated by graphviz version 14.1.2 (0)
 -->
<!-- Title: PWN Memory &amp; Skills Detailed Data Flow Pages: 1 -->
<svg width="368pt" height="624pt"
 viewBox="0.00 0.00 368.00 624.00" xmlns="http://www.w3.org/2000/svg" xmlns:xlink="http://www.w3.org/1999/xlink">
<g id="graph0" class="graph" transform="scale(1 1) rotate(0) translate(4 619.81)">
<title>PWN Memory &amp; Skills Detailed Data Flow</title>
<polygon fill="white" stroke="none" points="-4,4 -4,-619.81 363.73,-619.81 363.73,4 -4,4"/>
<!-- Input -->
<g id="node1" class="node">
<title>Input</title>
<path fill="none" stroke="black" d="M245.62,-615.81C245.62,-615.81 180.88,-615.81 180.88,-615.81 174.88,-615.81 168.88,-609.81 168.88,-603.81 168.88,-603.81 168.88,-591.81 168.88,-591.81 168.88,-585.81 174.88,-579.81 180.88,-579.81 180.88,-579.81 245.62,-579.81 245.62,-579.81 251.62,-579.81 257.62,-585.81 257.62,-591.81 257.62,-591.81 257.62,-603.81 257.62,-603.81 257.62,-609.81 251.62,-615.81 245.62,-615.81"/>
<text xml:space="preserve" text-anchor="middle" x="213.25" y="-599.76" font-family="Arial" font-size="9.00">Successful Task</text>
<text xml:space="preserve" text-anchor="middle" x="213.25" y="-589.26" font-family="Arial" font-size="9.00">Outcome in Agent</text>
</g>
<!-- Learn -->
<g id="node2" class="node">
<title>Learn</title>
<path fill="none" stroke="black" d="M198,-527.31C198,-527.31 102.5,-527.31 102.5,-527.31 96.5,-527.31 90.5,-521.31 90.5,-515.31 90.5,-515.31 90.5,-503.31 90.5,-503.31 90.5,-497.31 96.5,-491.31 102.5,-491.31 102.5,-491.31 198,-491.31 198,-491.31 204,-491.31 210,-497.31 210,-503.31 210,-503.31 210,-515.31 210,-515.31 210,-521.31 204,-527.31 198,-527.31"/>
<text xml:space="preserve" text-anchor="middle" x="150.25" y="-511.26" font-family="Arial" font-size="9.00">PWN::AI::Agent::Learning</text>
<text xml:space="preserve" text-anchor="middle" x="150.25" y="-500.76" font-family="Arial" font-size="9.00">note_outcome</text>
</g>
<!-- Input&#45;&gt;Learn -->
<g id="edge1" class="edge">
<title>Input&#45;&gt;Learn</title>
<path fill="none" stroke="black" d="M200.8,-579.72C191.89,-567.48 179.71,-550.76 169.54,-536.8"/>
<polygon fill="black" stroke="black" points="172.49,-534.91 163.78,-528.89 166.84,-539.03 172.49,-534.91"/>
</g>
<!-- MemStore -->
<g id="node8" class="node">
<title>MemStore</title>
<path fill="none" stroke="black" d="M326.12,-524.04C326.12,-525.85 304.22,-527.31 277.25,-527.31 250.28,-527.31 228.38,-525.85 228.38,-524.04 228.38,-524.04 228.38,-494.59 228.38,-494.59 228.38,-492.78 250.28,-491.31 277.25,-491.31 304.22,-491.31 326.12,-492.78 326.12,-494.59 326.12,-494.59 326.12,-524.04 326.12,-524.04"/>
<path fill="none" stroke="black" d="M326.12,-524.04C326.12,-522.23 304.22,-520.77 277.25,-520.77 250.28,-520.77 228.38,-522.23 228.38,-524.04"/>
<text xml:space="preserve" text-anchor="middle" x="277.25" y="-506.01" font-family="Arial" font-size="9.00">~/.pwn/memory.json</text>
</g>
<!-- Input&#45;&gt;MemStore -->
<g id="edge9" class="edge">
<title>Input&#45;&gt;MemStore</title>
<path fill="none" stroke="black" d="M225.89,-579.72C234.95,-567.48 247.32,-550.76 257.65,-536.8"/>
<polygon fill="black" stroke="black" points="260.38,-539 263.51,-528.88 254.75,-534.84 260.38,-539"/>
<text xml:space="preserve" text-anchor="middle" x="305.36" y="-548.51" font-family="Times,serif" font-size="14.00">remember key facts</text>
</g>
<!-- Metrics -->
<g id="node3" class="node">
<title>Metrics</title>
<path fill="none" stroke="black" d="M110.5,-454.31C110.5,-454.31 12,-454.31 12,-454.31 6,-454.31 0,-448.31 0,-442.31 0,-442.31 0,-430.31 0,-430.31 0,-424.31 6,-418.31 12,-418.31 12,-418.31 110.5,-418.31 110.5,-418.31 116.5,-418.31 122.5,-424.31 122.5,-430.31 122.5,-430.31 122.5,-442.31 122.5,-442.31 122.5,-448.31 116.5,-454.31 110.5,-454.31"/>
<text xml:space="preserve" text-anchor="middle" x="61.25" y="-433.01" font-family="Arial" font-size="9.00">Metrics (success/duration)</text>
</g>
<!-- Learn&#45;&gt;Metrics -->
<g id="edge2" class="edge">
<title>Learn&#45;&gt;Metrics</title>
<path fill="none" stroke="black" d="M128.71,-491.13C117.64,-482.3 103.96,-471.38 91.82,-461.7"/>
<polygon fill="black" stroke="black" points="94.09,-459.03 84.09,-455.53 89.72,-464.5 94.09,-459.03"/>
</g>
<!-- Introspect -->
<g id="node4" class="node">
<title>Introspect</title>
<path fill="none" stroke="black" d="M224.38,-454.31C224.38,-454.31 152.12,-454.31 152.12,-454.31 146.12,-454.31 140.12,-448.31 140.12,-442.31 140.12,-442.31 140.12,-430.31 140.12,-430.31 140.12,-424.31 146.12,-418.31 152.12,-418.31 152.12,-418.31 224.38,-418.31 224.38,-418.31 230.38,-418.31 236.38,-424.31 236.38,-430.31 236.38,-430.31 236.38,-442.31 236.38,-442.31 236.38,-448.31 230.38,-454.31 224.38,-454.31"/>
<text xml:space="preserve" text-anchor="middle" x="188.25" y="-438.26" font-family="Arial" font-size="9.00">learning_reflect</text>
<text xml:space="preserve" text-anchor="middle" x="188.25" y="-427.76" font-family="Arial" font-size="9.00">+ LLM introspection</text>
</g>
<!-- Learn&#45;&gt;Introspect -->
<g id="edge3" class="edge">
<title>Learn&#45;&gt;Introspect</title>
<path fill="none" stroke="black" d="M159.45,-491.13C163.74,-483.1 168.96,-473.36 173.76,-464.38"/>
<polygon fill="black" stroke="black" points="176.79,-466.14 178.42,-455.68 170.62,-462.84 176.79,-466.14"/>
</g>
<!-- Distill -->
<g id="node5" class="node">
<title>Distill</title>
<path fill="none" stroke="black" d="M224.75,-346.31C224.75,-346.31 151.75,-346.31 151.75,-346.31 145.75,-346.31 139.75,-340.31 139.75,-334.31 139.75,-334.31 139.75,-322.31 139.75,-322.31 139.75,-316.31 145.75,-310.31 151.75,-310.31 151.75,-310.31 224.75,-310.31 224.75,-310.31 230.75,-310.31 236.75,-316.31 236.75,-322.31 236.75,-322.31 236.75,-334.31 236.75,-334.31 236.75,-340.31 230.75,-346.31 224.75,-346.31"/>
<text xml:space="preserve" text-anchor="middle" x="188.25" y="-325.01" font-family="Arial" font-size="9.00">learning_distill_skill</text>
</g>
<!-- Introspect&#45;&gt;Distill -->
<g id="edge4" class="edge">
<title>Introspect&#45;&gt;Distill</title>
<path fill="none" stroke="black" d="M188.25,-418.28C188.25,-402.07 188.25,-377.37 188.25,-358.1"/>
<polygon fill="black" stroke="black" points="191.75,-358.17 188.25,-348.17 184.75,-358.17 191.75,-358.17"/>
</g>
<!-- SkillCreate -->
<g id="node6" class="node">
<title>SkillCreate</title>
<path fill="none" stroke="black" d="M218.38,-273.31C218.38,-273.31 158.12,-273.31 158.12,-273.31 152.12,-273.31 146.12,-267.31 146.12,-261.31 146.12,-261.31 146.12,-249.31 146.12,-249.31 146.12,-243.31 152.12,-237.31 158.12,-237.31 158.12,-237.31 218.38,-237.31 218.38,-237.31 224.38,-237.31 230.38,-243.31 230.38,-249.31 230.38,-249.31 230.38,-261.31 230.38,-261.31 230.38,-267.31 224.38,-273.31 218.38,-273.31"/>
<text xml:space="preserve" text-anchor="middle" x="188.25" y="-252.01" font-family="Arial" font-size="9.00">skill_create / edit</text>
</g>
<!-- Distill&#45;&gt;SkillCreate -->
<g id="edge5" class="edge">
<title>Distill&#45;&gt;SkillCreate</title>
<path fill="none" stroke="black" d="M188.25,-310.13C188.25,-302.54 188.25,-293.41 188.25,-284.85"/>
<polygon fill="black" stroke="black" points="191.75,-284.85 188.25,-274.85 184.75,-284.85 191.75,-284.85"/>
</g>
<!-- SkillStore -->
<g id="node7" class="node">
<title>SkillStore</title>
<path fill="none" stroke="black" d="M249.5,-195.38C249.5,-198.1 222.05,-200.31 188.25,-200.31 154.45,-200.31 127,-198.1 127,-195.38 127,-195.38 127,-150.94 127,-150.94 127,-148.21 154.45,-146 188.25,-146 222.05,-146 249.5,-148.21 249.5,-150.94 249.5,-150.94 249.5,-195.38 249.5,-195.38"/>
<path fill="none" stroke="black" d="M249.5,-195.38C249.5,-192.65 222.05,-190.44 188.25,-190.44 154.45,-190.44 127,-192.65 127,-195.38"/>
<text xml:space="preserve" text-anchor="middle" x="188.25" y="-180.36" font-family="Arial" font-size="9.00">~/.pwn/skills/*.md</text>
<text xml:space="preserve" text-anchor="middle" x="188.25" y="-169.86" font-family="Arial" font-size="9.00">(YAML frontmatter</text>
<text xml:space="preserve" text-anchor="middle" x="188.25" y="-159.36" font-family="Arial" font-size="9.00">+ markdown + references)</text>
</g>
<!-- SkillCreate&#45;&gt;SkillStore -->
<g id="edge6" class="edge">
<title>SkillCreate&#45;&gt;SkillStore</title>
<path fill="none" stroke="black" d="M188.25,-236.92C188.25,-229.56 188.25,-220.67 188.25,-211.93"/>
<polygon fill="black" stroke="black" points="191.75,-212.18 188.25,-202.18 184.75,-212.18 191.75,-212.18"/>
</g>
<!-- SkillList -->
<g id="node9" class="node">
<title>SkillList</title>
<path fill="none" stroke="black" d="M234.62,-109C234.62,-109 163.88,-109 163.88,-109 157.88,-109 151.88,-103 151.88,-97 151.88,-97 151.88,-85 151.88,-85 151.88,-79 157.88,-73 163.88,-73 163.88,-73 234.62,-73 234.62,-73 240.62,-73 246.62,-79 246.62,-85 246.62,-85 246.62,-97 246.62,-97 246.62,-103 240.62,-109 234.62,-109"/>
<text xml:space="preserve" text-anchor="middle" x="199.25" y="-87.7" font-family="Arial" font-size="9.00">skill_list / skill_view</text>
</g>
<!-- SkillStore&#45;&gt;SkillList -->
<g id="edge7" class="edge">
<title>SkillStore&#45;&gt;SkillList</title>
<path fill="none" stroke="black" d="M191.85,-145.91C192.96,-137.81 194.19,-128.85 195.32,-120.6"/>
<polygon fill="black" stroke="black" points="198.79,-121.09 196.68,-110.71 191.86,-120.14 198.79,-121.09"/>
</g>
<!-- Recall -->
<g id="node11" class="node">
<title>Recall</title>
<path fill="none" stroke="black" d="M303.62,-400.31C303.62,-400.31 250.88,-400.31 250.88,-400.31 244.88,-400.31 238.88,-394.31 238.88,-388.31 238.88,-388.31 238.88,-376.31 238.88,-376.31 238.88,-370.31 244.88,-364.31 250.88,-364.31 250.88,-364.31 303.62,-364.31 303.62,-364.31 309.62,-364.31 315.62,-370.31 315.62,-376.31 315.62,-376.31 315.62,-388.31 315.62,-388.31 315.62,-394.31 309.62,-400.31 303.62,-400.31"/>
<text xml:space="preserve" text-anchor="middle" x="277.25" y="-379.01" font-family="Arial" font-size="9.00">memory_recall</text>
</g>
<!-- MemStore&#45;&gt;Recall -->
<g id="edge11" class="edge">
<title>MemStore&#45;&gt;Recall</title>
<path fill="none" stroke="black" d="M277.25,-490.93C277.25,-470.5 277.25,-436.3 277.25,-411.94"/>
<polygon fill="black" stroke="black" points="280.75,-412.06 277.25,-402.06 273.75,-412.06 280.75,-412.06"/>
</g>
<!-- AgentPrompt -->
<g id="node10" class="node">
<title>AgentPrompt</title>
<path fill="none" stroke="black" d="M283,-36C283,-36 193.5,-36 193.5,-36 187.5,-36 181.5,-30 181.5,-24 181.5,-24 181.5,-12 181.5,-12 181.5,-6 187.5,0 193.5,0 193.5,0 283,0 283,0 289,0 295,-6 295,-12 295,-12 295,-24 295,-24 295,-30 289,-36 283,-36"/>
<text xml:space="preserve" text-anchor="middle" x="238.25" y="-19.95" font-family="Arial" font-size="9.00">Agent System Prompt</text>
<text xml:space="preserve" text-anchor="middle" x="238.25" y="-9.45" font-family="Arial" font-size="9.00">(injects skills + memory)</text>
</g>
<!-- SkillList&#45;&gt;AgentPrompt -->
<g id="edge8" class="edge">
<title>SkillList&#45;&gt;AgentPrompt</title>
<path fill="none" stroke="black" d="M208.69,-72.81C213.1,-64.79 218.45,-55.05 223.38,-46.07"/>
<polygon fill="black" stroke="black" points="226.42,-47.81 228.17,-37.36 220.29,-44.44 226.42,-47.81"/>
</g>
<!-- Recall&#45;&gt;AgentPrompt -->
<g id="edge10" class="edge">
<title>Recall&#45;&gt;AgentPrompt</title>
<path fill="none" stroke="black" d="M277.25,-363.92C277.25,-345.98 277.25,-317.19 277.25,-292.31 277.25,-292.31 277.25,-292.31 277.25,-90 277.25,-73.86 269.41,-57.93 260.77,-45.25"/>
<polygon fill="black" stroke="black" points="263.77,-43.43 255.01,-37.47 258.14,-47.59 263.77,-43.43"/>
</g>
</g>
</svg>
