<?xml version="1.0" encoding="UTF-8" standalone="no"?>
<!DOCTYPE svg PUBLIC "-//W3C//DTD SVG 1.1//EN"
 "http://www.w3.org/Graphics/SVG/1.1/DTD/svg11.dtd">
<!-- Generated by graphviz version 14.1.2 (0)
 -->
<!-- Title: PWN_Mistakes_Negative_Feedback Pages: 1 -->
<svg width="1042pt" height="908pt"
 viewBox="0.00 0.00 1042.00 908.00" xmlns="http://www.w3.org/2000/svg" xmlns:xlink="http://www.w3.org/1999/xlink">
<g id="graph0" class="graph" transform="scale(1 1) rotate(0) translate(43.2 864.64)">
<title>PWN_Mistakes_Negative_Feedback</title>
<polygon fill="#0f172a" stroke="none" points="-43.2,43.2 -43.2,-864.64 999.2,-864.64 999.2,43.2 -43.2,43.2"/>
<text xml:space="preserve" text-anchor="start" x="221.12" y="-799.44" font-family="sans-Serif" font-weight="bold" font-size="20.00" fill="#e2e8f0">PWN::AI::Agent::Mistakes — Negative&#45;Feedback Loop</text>
<text xml:space="preserve" text-anchor="start" x="301.75" y="-787.99" font-family="sans-Serif" font-size="11.00" fill="#94a3b8">learn from mistakes · do NOT repeat them · cross&#45;session · self&#45;correcting</text>
<g id="clust1" class="cluster">
<title>cluster_in</title>
<path fill="#450a0a" stroke="#b91c1c" stroke-dasharray="5,2" d="M20,-678.69C20,-678.69 936,-678.69 936,-678.69 942,-678.69 948,-684.69 948,-690.69 948,-690.69 948,-762.44 948,-762.44 948,-768.44 942,-774.44 936,-774.44 936,-774.44 20,-774.44 20,-774.44 14,-774.44 8,-768.44 8,-762.44 8,-762.44 8,-690.69 8,-690.69 8,-684.69 14,-678.69 20,-678.69"/>
<text xml:space="preserve" text-anchor="middle" x="478" y="-751.44" font-family="sans-Serif" font-size="20.00" fill="#fecaca">Five ingest paths</text>
</g>
<g id="clust3" class="cluster">
<title>cluster_fp</title>
<path fill="#022c22" stroke="#047857" stroke-width="2" d="M185,-536.44C185,-536.44 605,-536.44 605,-536.44 611,-536.44 617,-542.44 617,-548.44 617,-548.44 617,-620.19 617,-620.19 617,-626.19 611,-632.19 605,-632.19 605,-632.19 185,-632.19 185,-632.19 179,-632.19 173,-626.19 173,-620.19 173,-620.19 173,-548.44 173,-548.44 173,-542.44 179,-536.44 185,-536.44"/>
<text xml:space="preserve" text-anchor="middle" x="395" y="-609.19" font-family="sans-Serif" font-size="20.00" fill="#a7f3d0">Fingerprint &#160;(stable across sessions)</text>
</g>
<g id="clust5" class="cluster">
<title>cluster_react</title>
<path fill="#2e1065" stroke="#6d28d9" stroke-width="2" d="M310,-230.75C310,-230.75 868,-230.75 868,-230.75 874,-230.75 880,-236.75 880,-242.75 880,-242.75 880,-328 880,-328 880,-334 874,-340 868,-340 868,-340 310,-340 310,-340 304,-340 298,-334 298,-328 298,-328 298,-242.75 298,-242.75 298,-236.75 304,-230.75 310,-230.75"/>
<text xml:space="preserve" text-anchor="middle" x="589" y="-317" font-family="sans-Serif" font-size="20.00" fill="#ddd6fe">Reactions inside Loop.run</text>
</g>
<g id="clust7" class="cluster">
<title>cluster_out</title>
<path fill="#422006" stroke="#a16207" stroke-width="2" d="M177,-110.5C177,-110.5 668,-110.5 668,-110.5 674,-110.5 680,-116.5 680,-122.5 680,-122.5 680,-181.75 680,-181.75 680,-187.75 674,-193.75 668,-193.75 668,-193.75 177,-193.75 177,-193.75 171,-193.75 165,-187.75 165,-181.75 165,-181.75 165,-122.5 165,-122.5 165,-116.5 171,-110.5 177,-110.5"/>
<text xml:space="preserve" text-anchor="middle" x="422.5" y="-170.75" font-family="sans-Serif" font-size="20.00" fill="#fde68a">Injected into every future prompt</text>
</g>
<!-- ToolFail -->
<g id="node1" class="node">
<title>ToolFail</title>
<path fill="#fda4af" stroke="#334155" stroke-width="1.4" d="M143.5,-728.94C143.5,-728.94 28.5,-728.94 28.5,-728.94 22.5,-728.94 16.5,-722.94 16.5,-716.94 16.5,-716.94 16.5,-704.94 16.5,-704.94 16.5,-698.94 22.5,-692.94 28.5,-692.94 28.5,-692.94 143.5,-692.94 143.5,-692.94 149.5,-692.94 155.5,-698.94 155.5,-704.94 155.5,-704.94 155.5,-716.94 155.5,-716.94 155.5,-722.94 149.5,-728.94 143.5,-728.94"/>
<text xml:space="preserve" text-anchor="middle" x="86" y="-713.99" font-family="sans-Serif" font-size="11.00" fill="#0f172a">:tool</text>
<text xml:space="preserve" text-anchor="middle" x="86" y="-700.49" font-family="sans-Serif" font-size="11.00" fill="#0f172a">Dispatch → success:false</text>
</g>
<!-- Norm -->
<g id="node6" class="node">
<title>Norm</title>
<path fill="#6ee7b7" stroke="#334155" stroke-width="1.4" d="M347,-592.94C347,-592.94 193,-592.94 193,-592.94 187,-592.94 181,-586.94 181,-580.94 181,-580.94 181,-556.44 181,-556.44 181,-550.44 187,-544.44 193,-544.44 193,-544.44 347,-544.44 347,-544.44 353,-544.44 359,-550.44 359,-556.44 359,-556.44 359,-580.94 359,-580.94 359,-586.94 353,-592.94 347,-592.94"/>
<text xml:space="preserve" text-anchor="middle" x="270" y="-578.49" font-family="sans-Serif" font-size="11.00" fill="#0f172a">normalize_error()</text>
<text xml:space="preserve" text-anchor="middle" x="270" y="-564.99" font-family="sans-Serif" font-size="11.00" fill="#0f172a">strip paths · :LINE · 0xADDR</text>
<text xml:space="preserve" text-anchor="middle" x="270" y="-551.49" font-family="sans-Serif" font-size="11.00" fill="#0f172a">port N · TIMESTAMP · UUID · pid</text>
</g>
<!-- ToolFail&#45;&gt;Norm -->
<g id="edge1" class="edge">
<title>ToolFail&#45;&gt;Norm</title>
<path fill="none" stroke="#fb7185" stroke-width="1.3" d="M108.93,-692.46C139.51,-669.15 194.08,-627.55 231.14,-599.31"/>
<polygon fill="#fb7185" stroke="#fb7185" stroke-width="1.3" points="232.54,-601.76 237.21,-594.68 229.15,-597.31 232.54,-601.76"/>
<text xml:space="preserve" text-anchor="middle" x="188.61" y="-642.14" font-family="sans-Serif" font-size="9.00" fill="#cbd5e1">record()</text>
</g>
<!-- LoopFail -->
<g id="node2" class="node">
<title>LoopFail</title>
<path fill="#fda4af" stroke="#334155" stroke-width="1.4" d="M329.38,-728.94C329.38,-728.94 210.62,-728.94 210.62,-728.94 204.62,-728.94 198.62,-722.94 198.62,-716.94 198.62,-716.94 198.62,-704.94 198.62,-704.94 198.62,-698.94 204.62,-692.94 210.62,-692.94 210.62,-692.94 329.38,-692.94 329.38,-692.94 335.38,-692.94 341.38,-698.94 341.38,-704.94 341.38,-704.94 341.38,-716.94 341.38,-716.94 341.38,-722.94 335.38,-728.94 329.38,-728.94"/>
<text xml:space="preserve" text-anchor="middle" x="270" y="-713.99" font-family="sans-Serif" font-size="11.00" fill="#0f172a">:loop</text>
<text xml:space="preserve" text-anchor="middle" x="270" y="-700.49" font-family="sans-Serif" font-size="11.00" fill="#0f172a">iteration budget exhausted</text>
</g>
<!-- LoopFail&#45;&gt;Norm -->
<g id="edge2" class="edge">
<title>LoopFail&#45;&gt;Norm</title>
<path fill="none" stroke="#fb7185" stroke-width="1.3" d="M270,-692.46C270,-670.22 270,-631.34 270,-603.29"/>
<polygon fill="#fb7185" stroke="#fb7185" stroke-width="1.3" points="272.8,-603.46 270,-595.46 267.2,-603.46 272.8,-603.46"/>
</g>
<!-- UserCorr -->
<g id="node3" class="node">
<title>UserCorr</title>
<path fill="#fda4af" stroke="#334155" stroke-width="1.4" d="M928.25,-728.94C928.25,-728.94 787.75,-728.94 787.75,-728.94 781.75,-728.94 775.75,-722.94 775.75,-716.94 775.75,-716.94 775.75,-704.94 775.75,-704.94 775.75,-698.94 781.75,-692.94 787.75,-692.94 787.75,-692.94 928.25,-692.94 928.25,-692.94 934.25,-692.94 940.25,-698.94 940.25,-704.94 940.25,-704.94 940.25,-716.94 940.25,-716.94 940.25,-722.94 934.25,-728.94 928.25,-728.94"/>
<text xml:space="preserve" text-anchor="middle" x="858" y="-713.99" font-family="sans-Serif" font-size="11.00" fill="#0f172a">:user_correction</text>
<text xml:space="preserve" text-anchor="middle" x="858" y="-700.49" font-family="sans-Serif" font-size="11.00" fill="#0f172a">&quot;no that&#39;s wrong&quot; / &quot;still broken&quot;</text>
</g>
<!-- Sig -->
<g id="node7" class="node">
<title>Sig</title>
<path fill="#6ee7b7" stroke="#334155" stroke-width="2" d="M597.25,-586.69C597.25,-586.69 456.75,-586.69 456.75,-586.69 450.75,-586.69 444.75,-580.69 444.75,-574.69 444.75,-574.69 444.75,-562.69 444.75,-562.69 444.75,-556.69 450.75,-550.69 456.75,-550.69 456.75,-550.69 597.25,-550.69 597.25,-550.69 603.25,-550.69 609.25,-556.69 609.25,-562.69 609.25,-562.69 609.25,-574.69 609.25,-574.69 609.25,-580.69 603.25,-586.69 597.25,-586.69"/>
<text xml:space="preserve" text-anchor="middle" x="527" y="-571.74" font-family="sans-Serif" font-size="11.00" fill="#0f172a">signature = sha12(tool + norm)</text>
<text xml:space="preserve" text-anchor="middle" x="527" y="-558.24" font-family="sans-Serif" font-size="11.00" fill="#0f172a">count++ &#160;(cross&#45;session)</text>
</g>
<!-- UserCorr&#45;&gt;Sig -->
<g id="edge3" class="edge">
<title>UserCorr&#45;&gt;Sig</title>
<path fill="none" stroke="#fb7185" stroke-width="1.3" d="M816.41,-692.32C755.97,-666.7 643.92,-619.23 578.39,-591.46"/>
<polygon fill="#fb7185" stroke="#fb7185" stroke-width="1.3" points="579.73,-588.99 571.27,-588.45 577.55,-594.15 579.73,-588.99"/>
<text xml:space="preserve" text-anchor="middle" x="752.07" y="-642.14" font-family="sans-Serif" font-size="9.00" fill="#cbd5e1">+ flip_last_outcome</text>
</g>
<!-- ModelRec -->
<g id="node4" class="node">
<title>ModelRec</title>
<path fill="#fda4af" stroke="#334155" stroke-width="1.4" d="M521.38,-728.94C521.38,-728.94 396.62,-728.94 396.62,-728.94 390.62,-728.94 384.62,-722.94 384.62,-716.94 384.62,-716.94 384.62,-704.94 384.62,-704.94 384.62,-698.94 390.62,-692.94 396.62,-692.94 396.62,-692.94 521.38,-692.94 521.38,-692.94 527.38,-692.94 533.38,-698.94 533.38,-704.94 533.38,-704.94 533.38,-716.94 533.38,-716.94 533.38,-722.94 527.38,-728.94 521.38,-728.94"/>
<text xml:space="preserve" text-anchor="middle" x="459" y="-713.99" font-family="sans-Serif" font-size="11.00" fill="#0f172a">:model</text>
<text xml:space="preserve" text-anchor="middle" x="459" y="-700.49" font-family="sans-Serif" font-size="11.00" fill="#0f172a">mistakes_record(tool, error)</text>
</g>
<!-- ModelRec&#45;&gt;Sig -->
<g id="edge4" class="edge">
<title>ModelRec&#45;&gt;Sig</title>
<path fill="none" stroke="#fb7185" stroke-width="1.3" d="M467.47,-692.46C479.18,-668.31 500.4,-624.54 514.09,-596.31"/>
<polygon fill="#fb7185" stroke="#fb7185" stroke-width="1.3" points="516.59,-597.58 517.56,-589.16 511.55,-595.13 516.59,-597.58"/>
</g>
<!-- Verify -->
<g id="node5" class="node">
<title>Verify</title>
<path fill="#fda4af" stroke="#334155" stroke-width="2" d="M721.12,-735.19C721.12,-735.19 588.88,-735.19 588.88,-735.19 582.88,-735.19 576.88,-729.19 576.88,-723.19 576.88,-723.19 576.88,-698.69 576.88,-698.69 576.88,-692.69 582.88,-686.69 588.88,-686.69 588.88,-686.69 721.12,-686.69 721.12,-686.69 727.12,-686.69 733.12,-692.69 733.12,-698.69 733.12,-698.69 733.12,-723.19 733.12,-723.19 733.12,-729.19 727.12,-735.19 721.12,-735.19"/>
<text xml:space="preserve" text-anchor="middle" x="655" y="-720.74" font-family="sans-Serif" font-size="11.00" fill="#0f172a">:model (proactive)</text>
<text xml:space="preserve" text-anchor="middle" x="655" y="-707.24" font-family="sans-Serif" font-size="11.00" fill="#0f172a">extro_verify → :refuted</text>
<text xml:space="preserve" text-anchor="middle" x="655" y="-693.74" font-family="sans-Serif" font-size="11.00" fill="#0f172a">(browser&#45;caught assumption)</text>
</g>
<!-- Verify&#45;&gt;Sig -->
<g id="edge5" class="edge">
<title>Verify&#45;&gt;Sig</title>
<path fill="none" stroke="#fb7185" stroke-width="2" d="M633,-685.83C609.91,-660.53 573.76,-620.92 550.22,-595.13"/>
<polygon fill="#fb7185" stroke="#fb7185" stroke-width="2" points="552.56,-593.54 545.09,-589.51 548.42,-597.31 552.56,-593.54"/>
<text xml:space="preserve" text-anchor="middle" x="622.29" y="-642.14" font-family="sans-Serif" font-size="9.00" fill="#cbd5e1">assumption</text>
</g>
<!-- Norm&#45;&gt;Sig -->
<g id="edge6" class="edge">
<title>Norm&#45;&gt;Sig</title>
<path fill="none" stroke="#34d399" stroke-width="1.3" d="M359.6,-568.69C384.42,-568.69 409.24,-568.69 434.07,-568.69"/>
<polygon fill="#34d399" stroke="#34d399" stroke-width="1.3" points="433.99,-571.49 441.99,-568.69 433.99,-565.89 433.99,-571.49"/>
</g>
<!-- Store -->
<g id="node8" class="node">
<title>Store</title>
<path fill="#fcd34d" stroke="#334155" stroke-width="2" d="M606.25,-455.88C606.25,-459.22 570.73,-461.94 527,-461.94 483.27,-461.94 447.75,-459.22 447.75,-455.88 447.75,-455.88 447.75,-401.31 447.75,-401.31 447.75,-397.97 483.27,-395.25 527,-395.25 570.73,-395.25 606.25,-397.97 606.25,-401.31 606.25,-401.31 606.25,-455.88 606.25,-455.88"/>
<path fill="none" stroke="#334155" stroke-width="2" d="M606.25,-455.88C606.25,-452.53 570.73,-449.81 527,-449.81 483.27,-449.81 447.75,-452.53 447.75,-455.88"/>
<text xml:space="preserve" text-anchor="middle" x="527" y="-438.39" font-family="sans-Serif" font-size="11.00" fill="#0f172a">~/.pwn/mistakes.json</text>
<text xml:space="preserve" text-anchor="middle" x="527" y="-424.89" font-family="sans-Serif" font-size="11.00" fill="#0f172a">{sig → tool·error·count·fix</text>
<text xml:space="preserve" text-anchor="middle" x="527" y="-411.39" font-family="sans-Serif" font-size="11.00" fill="#0f172a"> resolved·regressed·sessions}</text>
</g>
<!-- Sig&#45;&gt;Store -->
<g id="edge7" class="edge">
<title>Sig&#45;&gt;Store</title>
<path fill="none" stroke="#f59e0b" stroke-width="2" d="M527,-549.92C527,-530.73 527,-499.44 527,-473.58"/>
<polygon fill="#f59e0b" stroke="#f59e0b" stroke-width="2" points="529.8,-473.91 527,-465.91 524.2,-473.91 529.8,-473.91"/>
<text xml:space="preserve" text-anchor="middle" x="540.5" y="-499.89" font-family="sans-Serif" font-size="9.00" fill="#cbd5e1">persist</text>
</g>
<!-- Guard -->
<g id="node9" class="node">
<title>Guard</title>
<path fill="#c4b5fd" stroke="#334155" stroke-width="1.4" d="M860.12,-300.75C860.12,-300.75 697.88,-300.75 697.88,-300.75 691.88,-300.75 685.88,-294.75 685.88,-288.75 685.88,-288.75 685.88,-250.75 685.88,-250.75 685.88,-244.75 691.88,-238.75 697.88,-238.75 697.88,-238.75 860.12,-238.75 860.12,-238.75 866.12,-238.75 872.12,-244.75 872.12,-250.75 872.12,-250.75 872.12,-288.75 872.12,-288.75 872.12,-294.75 866.12,-300.75 860.12,-300.75"/>
<text xml:space="preserve" text-anchor="middle" x="779" y="-286.3" font-family="sans-Serif" font-size="11.00" fill="#0f172a">guard_repeated_failure</text>
<text xml:space="preserve" text-anchor="middle" x="779" y="-272.8" font-family="sans-Serif" font-size="11.00" fill="#0f172a">max(turn, PERSISTENT count) ≥ 3</text>
<text xml:space="preserve" text-anchor="middle" x="779" y="-259.3" font-family="sans-Serif" font-size="11.00" fill="#0f172a">→ trips on 1st recurrence</text>
<text xml:space="preserve" text-anchor="middle" x="779" y="-245.8" font-family="sans-Serif" font-size="11.00" fill="#0f172a">in a new session</text>
</g>
<!-- Store&#45;&gt;Guard -->
<g id="edge8" class="edge">
<title>Store&#45;&gt;Guard</title>
<path fill="none" stroke="#a78bfa" stroke-width="1.3" d="M579.21,-395.1C620.71,-369.27 678.68,-333.19 721.5,-306.54"/>
<polygon fill="#a78bfa" stroke="#a78bfa" stroke-width="1.3" points="722.87,-308.99 728.18,-302.38 719.91,-304.23 722.87,-308.99"/>
<text xml:space="preserve" text-anchor="middle" x="664.25" y="-350.32" font-family="sans-Serif" font-size="9.00" fill="#cbd5e1">count</text>
</g>
<!-- Hint -->
<g id="node10" class="node">
<title>Hint</title>
<path fill="#c4b5fd" stroke="#334155" stroke-width="1.4" d="M482.25,-300.75C482.25,-300.75 317.75,-300.75 317.75,-300.75 311.75,-300.75 305.75,-294.75 305.75,-288.75 305.75,-288.75 305.75,-250.75 305.75,-250.75 305.75,-244.75 311.75,-238.75 317.75,-238.75 317.75,-238.75 482.25,-238.75 482.25,-238.75 488.25,-238.75 494.25,-244.75 494.25,-250.75 494.25,-250.75 494.25,-288.75 494.25,-288.75 494.25,-294.75 488.25,-300.75 482.25,-300.75"/>
<text xml:space="preserve" text-anchor="middle" x="400" y="-286.3" font-family="sans-Serif" font-size="11.00" fill="#0f172a">correction_hint</text>
<text xml:space="preserve" text-anchor="middle" x="400" y="-272.8" font-family="sans-Serif" font-size="11.00" fill="#0f172a">append to failed result:</text>
<text xml:space="preserve" text-anchor="middle" x="400" y="-259.3" font-family="sans-Serif" font-size="11.00" fill="#0f172a">&quot;seen N×, sig=…, KNOWN FIX: …&quot;</text>
<text xml:space="preserve" text-anchor="middle" x="400" y="-245.8" font-family="sans-Serif" font-size="11.00" fill="#0f172a">→ self&#45;correct NEXT iter</text>
</g>
<!-- Store&#45;&gt;Hint -->
<g id="edge9" class="edge">
<title>Store&#45;&gt;Hint</title>
<path fill="none" stroke="#a78bfa" stroke-width="1.3" d="M500.07,-394.33C479.79,-369.29 451.96,-334.92 430.8,-308.79"/>
<polygon fill="#a78bfa" stroke="#a78bfa" stroke-width="1.3" points="433.19,-307.29 425.98,-302.83 428.84,-310.81 433.19,-307.29"/>
<text xml:space="preserve" text-anchor="middle" x="478.23" y="-350.32" font-family="sans-Serif" font-size="9.00" fill="#cbd5e1">fix?</text>
</g>
<!-- Regr -->
<g id="node11" class="node">
<title>Regr</title>
<path fill="#c4b5fd" stroke="#334155" stroke-width="1.4" d="M631,-294C631,-294 549,-294 549,-294 543,-294 537,-288 537,-282 537,-282 537,-257.5 537,-257.5 537,-251.5 543,-245.5 549,-245.5 549,-245.5 631,-245.5 631,-245.5 637,-245.5 643,-251.5 643,-257.5 643,-257.5 643,-282 643,-282 643,-288 637,-294 631,-294"/>
<text xml:space="preserve" text-anchor="middle" x="590" y="-279.55" font-family="sans-Serif" font-size="11.00" fill="#0f172a">[REGRESSED]</text>
<text xml:space="preserve" text-anchor="middle" x="590" y="-266.05" font-family="sans-Serif" font-size="11.00" fill="#0f172a">resolved sig recurs</text>
<text xml:space="preserve" text-anchor="middle" x="590" y="-252.55" font-family="sans-Serif" font-size="11.00" fill="#0f172a">→ reopen + tag</text>
</g>
<!-- Store&#45;&gt;Regr -->
<g id="edge10" class="edge">
<title>Store&#45;&gt;Regr</title>
<path fill="none" stroke="#a78bfa" stroke-width="1.3" d="M540.36,-394.33C551.15,-367.46 566.25,-329.87 576.96,-303.22"/>
<polygon fill="#a78bfa" stroke="#a78bfa" stroke-width="1.3" points="579.43,-304.58 579.81,-296.11 574.23,-302.49 579.43,-304.58"/>
<text xml:space="preserve" text-anchor="middle" x="591.12" y="-350.7" font-family="sans-Serif" font-size="9.00" fill="#cbd5e1">resolved∧recur</text>
</g>
<!-- KMist -->
<g id="node12" class="node">
<title>KMist</title>
<path fill="#fcd34d" stroke="#334155" stroke-width="1.4" d="M659.5,-154.5C659.5,-154.5 514.5,-154.5 514.5,-154.5 508.5,-154.5 502.5,-148.5 502.5,-142.5 502.5,-142.5 502.5,-130.5 502.5,-130.5 502.5,-124.5 508.5,-118.5 514.5,-118.5 514.5,-118.5 659.5,-118.5 659.5,-118.5 665.5,-118.5 671.5,-124.5 671.5,-130.5 671.5,-130.5 671.5,-142.5 671.5,-142.5 671.5,-148.5 665.5,-154.5 659.5,-154.5"/>
<text xml:space="preserve" text-anchor="middle" x="587" y="-139.55" font-family="sans-Serif" font-size="11.00" fill="#0f172a">KNOWN MISTAKES</text>
<text xml:space="preserve" text-anchor="middle" x="587" y="-126.05" font-family="sans-Serif" font-size="11.00" fill="#0f172a">✗ [sig] tool ×N [REPEATING]…</text>
</g>
<!-- Guard&#45;&gt;KMist -->
<g id="edge11" class="edge">
<title>Guard&#45;&gt;KMist</title>
<path fill="none" stroke="#f59e0b" stroke-width="1.3" d="M734.47,-238.31C699.79,-214.6 652.39,-182.2 620.79,-160.6"/>
<polygon fill="#f59e0b" stroke="#f59e0b" stroke-width="1.3" points="622.53,-158.4 614.34,-156.19 619.37,-163.02 622.53,-158.4"/>
</g>
<!-- KFix -->
<g id="node13" class="node">
<title>KFix</title>
<path fill="#fcd34d" stroke="#334155" stroke-width="1.4" d="M447.75,-154.5C447.75,-154.5 352.25,-154.5 352.25,-154.5 346.25,-154.5 340.25,-148.5 340.25,-142.5 340.25,-142.5 340.25,-130.5 340.25,-130.5 340.25,-124.5 346.25,-118.5 352.25,-118.5 352.25,-118.5 447.75,-118.5 447.75,-118.5 453.75,-118.5 459.75,-124.5 459.75,-130.5 459.75,-130.5 459.75,-142.5 459.75,-142.5 459.75,-148.5 453.75,-154.5 447.75,-154.5"/>
<text xml:space="preserve" text-anchor="middle" x="400" y="-139.55" font-family="sans-Serif" font-size="11.00" fill="#0f172a">KNOWN FIXES</text>
<text xml:space="preserve" text-anchor="middle" x="400" y="-126.05" font-family="sans-Serif" font-size="11.00" fill="#0f172a">✓ [sig] tool — FIX: …</text>
</g>
<!-- Hint&#45;&gt;KFix -->
<!-- Regr&#45;&gt;KMist -->
<g id="edge13" class="edge">
<title>Regr&#45;&gt;KMist</title>
<path fill="none" stroke="#f59e0b" stroke-width="1.3" d="M589.46,-244.98C588.94,-222.33 588.16,-188.26 587.62,-164.57"/>
<polygon fill="#f59e0b" stroke="#f59e0b" stroke-width="1.3" points="590.42,-164.71 587.44,-156.78 584.82,-164.84 590.42,-164.71"/>
</g>
<!-- Prompt -->
<g id="node15" class="node">
<title>Prompt</title>
<path fill="#7dd3fc" stroke="#334155" stroke-width="2" d="M431.25,-36C431.25,-36 368.75,-36 368.75,-36 362.75,-36 356.75,-30 356.75,-24 356.75,-24 356.75,-12 356.75,-12 356.75,-6 362.75,0 368.75,0 368.75,0 431.25,0 431.25,0 437.25,0 443.25,-6 443.25,-12 443.25,-12 443.25,-24 443.25,-24 443.25,-30 437.25,-36 431.25,-36"/>
<text xml:space="preserve" text-anchor="middle" x="400" y="-21.05" font-family="sans-Serif" font-size="11.00" fill="#0f172a">PromptBuilder</text>
<text xml:space="preserve" text-anchor="middle" x="400" y="-7.55" font-family="sans-Serif" font-size="11.00" fill="#0f172a">system prompt</text>
</g>
<!-- KMist&#45;&gt;Prompt -->
<g id="edge17" class="edge">
<title>KMist&#45;&gt;Prompt</title>
<path fill="none" stroke="#fb7185" stroke-width="2" stroke-dasharray="5,2" d="M518.87,-117.86C506.34,-115.07 493.32,-112.46 481,-110.5 444.11,-104.64 171.29,-109.99 146,-82.5 117.58,-51.61 262.4,-32.24 345.26,-23.84"/>
<polygon fill="#fb7185" stroke="#fb7185" stroke-width="2" points="345.33,-26.65 353.02,-23.08 344.78,-21.08 345.33,-26.65"/>
<text xml:space="preserve" text-anchor="middle" x="176" y="-73.95" font-family="sans-Serif" font-size="9.00" fill="#cbd5e1">do NOT repeat</text>
</g>
<!-- KMist&#45;&gt;Prompt -->
<!-- KFix&#45;&gt;Prompt -->
<g id="edge18" class="edge">
<title>KFix&#45;&gt;Prompt</title>
<path fill="none" stroke="#fbbf24" stroke-width="2" stroke-dasharray="5,2" d="M339.56,-119.66C312.76,-109.32 289.88,-93.67 302.75,-72 312.43,-55.69 329.09,-44.08 345.92,-35.97"/>
<polygon fill="#fbbf24" stroke="#fbbf24" stroke-width="2" points="346.84,-38.62 353.02,-32.82 344.57,-33.51 346.84,-38.62"/>
<text xml:space="preserve" text-anchor="middle" x="335.38" y="-73.95" font-family="sans-Serif" font-size="9.00" fill="#cbd5e1">do THIS instead</text>
</g>
<!-- KFix&#45;&gt;Prompt -->
<!-- Mem -->
<g id="node14" class="node">
<title>Mem</title>
<path fill="#fcd34d" stroke="#334155" stroke-width="1.4" d="M285,-154.5C285,-154.5 185,-154.5 185,-154.5 179,-154.5 173,-148.5 173,-142.5 173,-142.5 173,-130.5 173,-130.5 173,-124.5 179,-118.5 185,-118.5 185,-118.5 285,-118.5 285,-118.5 291,-118.5 297,-124.5 297,-130.5 297,-130.5 297,-142.5 297,-142.5 297,-148.5 291,-154.5 285,-154.5"/>
<text xml:space="preserve" text-anchor="middle" x="235" y="-139.55" font-family="sans-Serif" font-size="11.00" fill="#0f172a">PWN::Memory :lesson</text>
<text xml:space="preserve" text-anchor="middle" x="235" y="-126.05" font-family="sans-Serif" font-size="11.00" fill="#0f172a">&quot;AVOID X — FIX: Y&quot;</text>
</g>
<!-- Mem&#45;&gt;Prompt -->
<g id="edge19" class="edge">
<title>Mem&#45;&gt;Prompt</title>
<path fill="none" stroke="#fbbf24" stroke-width="1.3" stroke-dasharray="5,2" d="M289.34,-117.85C326.92,-105.23 371.33,-89.31 378,-82.5 387.53,-72.76 392.94,-58.7 396.01,-46.27"/>
<polygon fill="#fbbf24" stroke="#fbbf24" stroke-width="1.3" points="398.7,-47.11 397.6,-38.71 393.22,-45.96 398.7,-47.11"/>
<text xml:space="preserve" text-anchor="middle" x="417.91" y="-73.95" font-family="sans-Serif" font-size="9.00" fill="#cbd5e1">MEMORY block</text>
</g>
<!-- Mem&#45;&gt;Prompt -->
<!-- Resolve -->
<g id="node16" class="node">
<title>Resolve</title>
<path fill="#6ee7b7" stroke="#334155" stroke-width="2" d="M278.25,-446.59C278.25,-446.59 203.75,-446.59 203.75,-446.59 197.75,-446.59 191.75,-440.59 191.75,-434.59 191.75,-434.59 191.75,-422.59 191.75,-422.59 191.75,-416.59 197.75,-410.59 203.75,-410.59 203.75,-410.59 278.25,-410.59 278.25,-410.59 284.25,-410.59 290.25,-416.59 290.25,-422.59 290.25,-422.59 290.25,-434.59 290.25,-434.59 290.25,-440.59 284.25,-446.59 278.25,-446.59"/>
<text xml:space="preserve" text-anchor="middle" x="241" y="-431.64" font-family="sans-Serif" font-size="11.00" fill="#0f172a">mistakes_resolve</text>
<text xml:space="preserve" text-anchor="middle" x="241" y="-418.14" font-family="sans-Serif" font-size="11.00" fill="#0f172a">(signature, fix)</text>
</g>
<!-- Resolve&#45;&gt;Store -->
<g id="edge14" class="edge">
<title>Resolve&#45;&gt;Store</title>
<path fill="none" stroke="#34d399" stroke-width="2" d="M291.14,-428.59C331.05,-428.59 387.95,-428.59 435.87,-428.59"/>
<polygon fill="#34d399" stroke="#34d399" stroke-width="2" points="435.86,-431.39 443.86,-428.59 435.86,-425.79 435.86,-431.39"/>
<text xml:space="preserve" text-anchor="middle" x="369" y="-444.04" font-family="sans-Serif" font-size="9.00" fill="#cbd5e1">resolved:true</text>
<text xml:space="preserve" text-anchor="middle" x="369" y="-433.54" font-family="sans-Serif" font-size="9.00" fill="#cbd5e1">fix:…</text>
</g>
<!-- Resolve&#45;&gt;KFix -->
<g id="edge15" class="edge">
<title>Resolve&#45;&gt;KFix</title>
<path fill="none" stroke="#f59e0b" stroke-width="1.3" d="M241.55,-409.87C243.43,-373.56 251.69,-289.26 288,-230.75 306.16,-201.49 336.67,-176.98 361.27,-160.45"/>
<polygon fill="#f59e0b" stroke="#f59e0b" stroke-width="1.3" points="362.55,-162.95 367.71,-156.23 359.48,-158.27 362.55,-162.95"/>
</g>
<!-- Resolve&#45;&gt;Mem -->
<g id="edge16" class="edge">
<title>Resolve&#45;&gt;Mem</title>
<path fill="none" stroke="#f59e0b" stroke-width="1.3" d="M222.1,-409.87C206.14,-393.5 184.46,-367.6 175.25,-340 159.89,-293.94 161.6,-277.35 175.25,-230.75 182.7,-205.31 199.46,-180.22 213.34,-162.49"/>
<polygon fill="#f59e0b" stroke="#f59e0b" stroke-width="1.3" points="215.39,-164.4 218.23,-156.41 211.03,-160.89 215.39,-164.4"/>
<text xml:space="preserve" text-anchor="middle" x="192.12" y="-266.45" font-family="sans-Serif" font-size="9.00" fill="#cbd5e1">promote</text>
</g>
</g>
</svg>
