<?xml version="1.0" encoding="UTF-8" standalone="no"?>
<!DOCTYPE svg PUBLIC "-//W3C//DTD SVG 1.1//EN"
 "http://www.w3.org/Graphics/SVG/1.1/DTD/svg11.dtd">
<!-- Generated by graphviz version 14.1.2 (0)
 -->
<!-- Title: PWN_Overall_Architecture Pages: 1 -->
<svg width="1249pt" height="784pt"
 viewBox="0.00 0.00 1249.00 784.00" xmlns="http://www.w3.org/2000/svg" xmlns:xlink="http://www.w3.org/1999/xlink">
<g id="graph0" class="graph" transform="scale(1 1) rotate(0) translate(43.2 740.7)">
<title>PWN_Overall_Architecture</title>
<polygon fill="#0f172a" stroke="none" points="-43.2,43.2 -43.2,-740.7 1205.66,-740.7 1205.66,43.2 -43.2,43.2"/>
<text xml:space="preserve" text-anchor="start" x="317.23" y="-673.6" font-family="sans-Serif" font-weight="bold" font-size="22.00" fill="#e2e8f0">PWN — Offensive Security Automation Framework</text>
<text xml:space="preserve" text-anchor="start" x="509.23" y="-662.05" font-family="sans-Serif" font-size="11.00" fill="#94a3b8">Overall Architecture · lib/pwn/*</text>
<g id="clust1" class="cluster">
<title>cluster_actors</title>
<path fill="#1e293b" stroke="#334155" stroke-dasharray="5,2" d="M300,-550.5C300,-550.5 885,-550.5 885,-550.5 891,-550.5 897,-556.5 897,-562.5 897,-562.5 897,-636.5 897,-636.5 897,-642.5 891,-648.5 885,-648.5 885,-648.5 300,-648.5 300,-648.5 294,-648.5 288,-642.5 288,-636.5 288,-636.5 288,-562.5 288,-562.5 288,-556.5 294,-550.5 300,-550.5"/>
<text xml:space="preserve" text-anchor="middle" x="592.5" y="-623.6" font-family="sans-Serif" font-size="22.00" fill="#94a3b8">Actors</text>
</g>
<g id="clust3" class="cluster">
<title>cluster_entry</title>
<path fill="#0c4a6e" stroke="#0369a1" stroke-width="2" d="M166,-412.5C166,-412.5 684,-412.5 684,-412.5 690,-412.5 696,-418.5 696,-424.5 696,-424.5 696,-486 696,-486 696,-492 690,-498 684,-498 684,-498 166,-498 166,-498 160,-498 154,-492 154,-486 154,-486 154,-424.5 154,-424.5 154,-418.5 160,-412.5 166,-412.5"/>
<text xml:space="preserve" text-anchor="middle" x="425" y="-473.1" font-family="sans-Serif" font-size="22.00" fill="#7dd3fc">Entry Points &#160;(bin/)</text>
</g>
<g id="clust5" class="cluster">
<title>cluster_agent</title>
<path fill="#2e1065" stroke="#6d28d9" stroke-width="2" d="M130,-274.5C130,-274.5 799,-274.5 799,-274.5 805,-274.5 811,-280.5 811,-286.5 811,-286.5 811,-348 811,-348 811,-354 805,-360 799,-360 799,-360 130,-360 130,-360 124,-360 118,-354 118,-348 118,-348 118,-286.5 118,-286.5 118,-280.5 124,-274.5 130,-274.5"/>
<text xml:space="preserve" text-anchor="middle" x="464.5" y="-335.1" font-family="sans-Serif" font-size="22.00" fill="#ddd6fe">PWN::AI::Agent</text>
</g>
<g id="clust7" class="cluster">
<title>cluster_caps</title>
<path fill="#022c22" stroke="#047857" stroke-width="2" d="M32,-136.5C32,-136.5 949,-136.5 949,-136.5 955,-136.5 961,-142.5 961,-148.5 961,-148.5 961,-210 961,-210 961,-216 955,-222 949,-222 949,-222 32,-222 32,-222 26,-222 20,-216 20,-210 20,-210 20,-148.5 20,-148.5 20,-142.5 26,-136.5 32,-136.5"/>
<text xml:space="preserve" text-anchor="middle" x="490.5" y="-197.1" font-family="sans-Serif" font-size="22.00" fill="#a7f3d0">Capability Namespaces &#160;(lib/pwn/*)</text>
</g>
<g id="clust9" class="cluster">
<title>cluster_persist</title>
<path fill="#422006" stroke="#a16207" stroke-width="2" d="M20,-8C20,-8 959,-8 959,-8 965,-8 971,-14 971,-20 971,-20 971,-81.5 971,-81.5 971,-87.5 965,-93.5 959,-93.5 959,-93.5 20,-93.5 20,-93.5 14,-93.5 8,-87.5 8,-81.5 8,-81.5 8,-20 8,-20 8,-14 14,-8 20,-8"/>
<text xml:space="preserve" text-anchor="middle" x="489.5" y="-68.6" font-family="sans-Serif" font-size="22.00" fill="#fde68a">Persistence &#160;~/.pwn/</text>
</g>
<!-- User -->
<g id="node1" class="node">
<title>User</title>
<path fill="#7dd3fc" stroke="#334155" stroke-width="1.4" d="M414,-600.75C414,-600.75 308,-600.75 308,-600.75 302,-600.75 296,-594.75 296,-588.75 296,-588.75 296,-576.75 296,-576.75 296,-570.75 302,-564.75 308,-564.75 308,-564.75 414,-564.75 414,-564.75 420,-564.75 426,-570.75 426,-576.75 426,-576.75 426,-588.75 426,-588.75 426,-594.75 420,-600.75 414,-600.75"/>
<text xml:space="preserve" text-anchor="middle" x="361" y="-585.8" font-family="sans-Serif" font-size="11.00" fill="#0f172a">👤 &#160;Researcher</text>
<text xml:space="preserve" text-anchor="middle" x="361" y="-572.3" font-family="sans-Serif" font-size="11.00" fill="#0f172a">Red Team · Bug Hunter</text>
</g>
<!-- REPL -->
<g id="node5" class="node">
<title>REPL</title>
<path fill="#7dd3fc" stroke="#334155" stroke-width="1.4" d="M266.25,-456.5C266.25,-456.5 173.75,-456.5 173.75,-456.5 167.75,-456.5 161.75,-450.5 161.75,-444.5 161.75,-444.5 161.75,-432.5 161.75,-432.5 161.75,-426.5 167.75,-420.5 173.75,-420.5 173.75,-420.5 266.25,-420.5 266.25,-420.5 272.25,-420.5 278.25,-426.5 278.25,-432.5 278.25,-432.5 278.25,-444.5 278.25,-444.5 278.25,-450.5 272.25,-456.5 266.25,-456.5"/>
<text xml:space="preserve" text-anchor="middle" x="220" y="-441.55" font-family="sans-Serif" font-size="11.00" fill="#0f172a">🐚 &#160;pwn REPL</text>
<text xml:space="preserve" text-anchor="middle" x="220" y="-428.05" font-family="sans-Serif" font-size="11.00" fill="#0f172a">Pry + PWN:: preload</text>
</g>
<!-- User&#45;&gt;REPL -->
<g id="edge1" class="edge">
<title>User&#45;&gt;REPL</title>
<path fill="none" stroke="#38bdf8" stroke-width="1.3" d="M343.71,-564.31C318.76,-539.14 272.56,-492.53 244.23,-463.94"/>
<polygon fill="#38bdf8" stroke="#38bdf8" stroke-width="1.3" points="246.44,-462.19 238.82,-458.48 242.46,-466.14 246.44,-462.19"/>
</g>
<!-- PwnAI -->
<g id="node6" class="node">
<title>PwnAI</title>
<path fill="#7dd3fc" stroke="#334155" stroke-width="1.4" d="M419.75,-456.5C419.75,-456.5 330.25,-456.5 330.25,-456.5 324.25,-456.5 318.25,-450.5 318.25,-444.5 318.25,-444.5 318.25,-432.5 318.25,-432.5 318.25,-426.5 324.25,-420.5 330.25,-420.5 330.25,-420.5 419.75,-420.5 419.75,-420.5 425.75,-420.5 431.75,-426.5 431.75,-432.5 431.75,-432.5 431.75,-444.5 431.75,-444.5 431.75,-450.5 425.75,-456.5 419.75,-456.5"/>
<text xml:space="preserve" text-anchor="middle" x="375" y="-441.55" font-family="sans-Serif" font-size="11.00" fill="#0f172a">✨ &#160;pwn&#45;ai</text>
<text xml:space="preserve" text-anchor="middle" x="375" y="-428.05" font-family="sans-Serif" font-size="11.00" fill="#0f172a">Agent TUI · pwn &#45;&#45;ai</text>
</g>
<!-- User&#45;&gt;PwnAI -->
<g id="edge2" class="edge">
<title>User&#45;&gt;PwnAI</title>
<path fill="none" stroke="#38bdf8" stroke-width="1.3" d="M362.72,-564.31C365.11,-539.99 369.47,-495.66 372.3,-466.91"/>
<polygon fill="#38bdf8" stroke="#38bdf8" stroke-width="1.3" points="375.08,-467.28 373.08,-459.04 369.51,-466.73 375.08,-467.28"/>
</g>
<!-- CI -->
<g id="node2" class="node">
<title>CI</title>
<path fill="#7dd3fc" stroke="#334155" stroke-width="1.4" d="M560,-600.75C560,-600.75 478,-600.75 478,-600.75 472,-600.75 466,-594.75 466,-588.75 466,-588.75 466,-576.75 466,-576.75 466,-570.75 472,-564.75 478,-564.75 478,-564.75 560,-564.75 560,-564.75 566,-564.75 572,-570.75 572,-576.75 572,-576.75 572,-588.75 572,-588.75 572,-594.75 566,-600.75 560,-600.75"/>
<text xml:space="preserve" text-anchor="middle" x="519" y="-585.8" font-family="sans-Serif" font-size="11.00" fill="#0f172a">⚙️ &#160;CI / CD</text>
<text xml:space="preserve" text-anchor="middle" x="519" y="-572.3" font-family="sans-Serif" font-size="11.00" fill="#0f172a">Headless pipelines</text>
</g>
<!-- CLI -->
<g id="node7" class="node">
<title>CLI</title>
<path fill="#7dd3fc" stroke="#334155" stroke-width="1.4" d="M543.75,-456.5C543.75,-456.5 484.25,-456.5 484.25,-456.5 478.25,-456.5 472.25,-450.5 472.25,-444.5 472.25,-444.5 472.25,-432.5 472.25,-432.5 472.25,-426.5 478.25,-420.5 484.25,-420.5 484.25,-420.5 543.75,-420.5 543.75,-420.5 549.75,-420.5 555.75,-426.5 555.75,-432.5 555.75,-432.5 555.75,-444.5 555.75,-444.5 555.75,-450.5 549.75,-456.5 543.75,-456.5"/>
<text xml:space="preserve" text-anchor="middle" x="514" y="-441.55" font-family="sans-Serif" font-size="11.00" fill="#0f172a">📜 &#160;bin/pwn_*</text>
<text xml:space="preserve" text-anchor="middle" x="514" y="-428.05" font-family="sans-Serif" font-size="11.00" fill="#0f172a">52 CLI drivers</text>
</g>
<!-- CI&#45;&gt;CLI -->
<g id="edge3" class="edge">
<title>CI&#45;&gt;CLI</title>
<path fill="none" stroke="#38bdf8" stroke-width="1.3" d="M518.39,-564.31C517.53,-539.99 515.97,-495.66 514.96,-466.91"/>
<polygon fill="#38bdf8" stroke="#38bdf8" stroke-width="1.3" points="517.77,-466.95 514.69,-459.05 512.17,-467.15 517.77,-466.95"/>
</g>
<!-- Cronb -->
<g id="node8" class="node">
<title>Cronb</title>
<path fill="#7dd3fc" stroke="#334155" stroke-width="1.4" d="M675.88,-456.5C675.88,-456.5 608.12,-456.5 608.12,-456.5 602.12,-456.5 596.12,-450.5 596.12,-444.5 596.12,-444.5 596.12,-432.5 596.12,-432.5 596.12,-426.5 602.12,-420.5 608.12,-420.5 608.12,-420.5 675.88,-420.5 675.88,-420.5 681.88,-420.5 687.88,-426.5 687.88,-432.5 687.88,-432.5 687.88,-444.5 687.88,-444.5 687.88,-450.5 681.88,-456.5 675.88,-456.5"/>
<text xml:space="preserve" text-anchor="middle" x="642" y="-441.55" font-family="sans-Serif" font-size="11.00" fill="#0f172a">⏱ &#160;PWN::Cron</text>
<text xml:space="preserve" text-anchor="middle" x="642" y="-428.05" font-family="sans-Serif" font-size="11.00" fill="#0f172a">Scheduled jobs</text>
</g>
<!-- CI&#45;&gt;Cronb -->
<g id="edge4" class="edge">
<title>CI&#45;&gt;Cronb</title>
<path fill="none" stroke="#38bdf8" stroke-width="1.3" d="M534.08,-564.31C555.75,-539.25 595.81,-492.92 620.55,-464.31"/>
<polygon fill="#38bdf8" stroke="#38bdf8" stroke-width="1.3" points="622.39,-466.46 625.51,-458.57 618.16,-462.79 622.39,-466.46"/>
<text xml:space="preserve" text-anchor="middle" x="599.56" y="-507.95" font-family="sans-Serif" font-size="9.00" fill="#cbd5e1">crontab</text>
</g>
<!-- LLM -->
<g id="node3" class="node">
<title>LLM</title>
<path fill="#c4b5fd" stroke="#334155" stroke-width="1.4" d="M724.38,-607C724.38,-607 623.62,-607 623.62,-607 617.62,-607 611.62,-601 611.62,-595 611.62,-595 611.62,-570.5 611.62,-570.5 611.62,-564.5 617.62,-558.5 623.62,-558.5 623.62,-558.5 724.38,-558.5 724.38,-558.5 730.38,-558.5 736.38,-564.5 736.38,-570.5 736.38,-570.5 736.38,-595 736.38,-595 736.38,-601 730.38,-607 724.38,-607"/>
<text xml:space="preserve" text-anchor="middle" x="674" y="-592.55" font-family="sans-Serif" font-size="11.00" fill="#0f172a">🤖 &#160;LLM Providers</text>
<text xml:space="preserve" text-anchor="middle" x="674" y="-579.05" font-family="sans-Serif" font-size="11.00" fill="#0f172a">OpenAI · Anthropic</text>
<text xml:space="preserve" text-anchor="middle" x="674" y="-565.55" font-family="sans-Serif" font-size="11.00" fill="#0f172a">Grok · Gemini · Ollama</text>
</g>
<!-- Target -->
<g id="node4" class="node">
<title>Target</title>
<path fill="#fda4af" stroke="#334155" stroke-width="1.4" d="M877.38,-607C877.38,-607 788.62,-607 788.62,-607 782.62,-607 776.62,-601 776.62,-595 776.62,-595 776.62,-570.5 776.62,-570.5 776.62,-564.5 782.62,-558.5 788.62,-558.5 788.62,-558.5 877.38,-558.5 877.38,-558.5 883.38,-558.5 889.38,-564.5 889.38,-570.5 889.38,-570.5 889.38,-595 889.38,-595 889.38,-601 883.38,-607 877.38,-607"/>
<text xml:space="preserve" text-anchor="middle" x="833" y="-592.55" font-family="sans-Serif" font-size="11.00" fill="#0f172a">🎯 &#160;Attack Surface</text>
<text xml:space="preserve" text-anchor="middle" x="833" y="-579.05" font-family="sans-Serif" font-size="11.00" fill="#0f172a">Hosts · Web · Cloud</text>
<text xml:space="preserve" text-anchor="middle" x="833" y="-565.55" font-family="sans-Serif" font-size="11.00" fill="#0f172a">Radio · Hardware</text>
</g>
<!-- Loop -->
<g id="node9" class="node">
<title>Loop</title>
<path fill="#c4b5fd" stroke="#334155" stroke-width="1.4" d="M262.38,-318.5C262.38,-318.5 137.62,-318.5 137.62,-318.5 131.62,-318.5 125.62,-312.5 125.62,-306.5 125.62,-306.5 125.62,-294.5 125.62,-294.5 125.62,-288.5 131.62,-282.5 137.62,-282.5 137.62,-282.5 262.38,-282.5 262.38,-282.5 268.38,-282.5 274.38,-288.5 274.38,-294.5 274.38,-294.5 274.38,-306.5 274.38,-306.5 274.38,-312.5 268.38,-318.5 262.38,-318.5"/>
<text xml:space="preserve" text-anchor="middle" x="200" y="-303.55" font-family="sans-Serif" font-size="11.00" fill="#0f172a">Loop</text>
<text xml:space="preserve" text-anchor="middle" x="200" y="-290.05" font-family="sans-Serif" font-size="11.00" fill="#0f172a">plan → dispatch → observe</text>
</g>
<!-- REPL&#45;&gt;Loop -->
<g id="edge5" class="edge">
<title>REPL&#45;&gt;Loop</title>
<path fill="none" stroke="#a78bfa" stroke-width="1.3" d="M217.43,-420C214.02,-396.84 207.98,-355.79 203.99,-328.61"/>
<polygon fill="#a78bfa" stroke="#a78bfa" stroke-width="1.3" points="206.78,-328.39 202.85,-320.88 201.24,-329.2 206.78,-328.39"/>
</g>
<!-- PwnAI&#45;&gt;Loop -->
<g id="edge6" class="edge">
<title>PwnAI&#45;&gt;Loop</title>
<path fill="none" stroke="#a78bfa" stroke-width="2" d="M350.72,-419.95C334.81,-408.36 313.64,-392.73 295.25,-378.5 273.03,-361.32 248.39,-341.37 229.73,-326.08"/>
<polygon fill="#a78bfa" stroke="#a78bfa" stroke-width="2" points="231.65,-324.03 223.69,-321.12 228.1,-328.36 231.65,-324.03"/>
<text xml:space="preserve" text-anchor="middle" x="330.12" y="-369.95" font-family="sans-Serif" font-size="9.00" fill="#cbd5e1">natural language</text>
</g>
<!-- Registry -->
<g id="node10" class="node">
<title>Registry</title>
<path fill="#c4b5fd" stroke="#334155" stroke-width="1.4" d="M423.5,-318.5C423.5,-318.5 326.5,-318.5 326.5,-318.5 320.5,-318.5 314.5,-312.5 314.5,-306.5 314.5,-306.5 314.5,-294.5 314.5,-294.5 314.5,-288.5 320.5,-282.5 326.5,-282.5 326.5,-282.5 423.5,-282.5 423.5,-282.5 429.5,-282.5 435.5,-288.5 435.5,-294.5 435.5,-294.5 435.5,-306.5 435.5,-306.5 435.5,-312.5 429.5,-318.5 423.5,-318.5"/>
<text xml:space="preserve" text-anchor="middle" x="375" y="-303.55" font-family="sans-Serif" font-size="11.00" fill="#0f172a">Registry</text>
<text xml:space="preserve" text-anchor="middle" x="375" y="-290.05" font-family="sans-Serif" font-size="11.00" fill="#0f172a">10 toolsets · 45+ tools</text>
</g>
<!-- PwnAI&#45;&gt;Registry -->
<g id="edge7" class="edge">
<title>PwnAI&#45;&gt;Registry</title>
<path fill="none" stroke="#a78bfa" stroke-width="1.3" d="M375,-420C375,-396.84 375,-355.79 375,-328.61"/>
<polygon fill="#a78bfa" stroke="#a78bfa" stroke-width="1.3" points="377.8,-328.9 375,-320.9 372.2,-328.9 377.8,-328.9"/>
</g>
<!-- Swarm -->
<g id="node11" class="node">
<title>Swarm</title>
<path fill="#c4b5fd" stroke="#334155" stroke-width="1.4" d="M592.25,-318.5C592.25,-318.5 487.75,-318.5 487.75,-318.5 481.75,-318.5 475.75,-312.5 475.75,-306.5 475.75,-306.5 475.75,-294.5 475.75,-294.5 475.75,-288.5 481.75,-282.5 487.75,-282.5 487.75,-282.5 592.25,-282.5 592.25,-282.5 598.25,-282.5 604.25,-288.5 604.25,-294.5 604.25,-294.5 604.25,-306.5 604.25,-306.5 604.25,-312.5 598.25,-318.5 592.25,-318.5"/>
<text xml:space="preserve" text-anchor="middle" x="540" y="-303.55" font-family="sans-Serif" font-size="11.00" fill="#0f172a">Swarm</text>
<text xml:space="preserve" text-anchor="middle" x="540" y="-290.05" font-family="sans-Serif" font-size="11.00" fill="#0f172a">personas · debate · bus</text>
</g>
<!-- CLI&#45;&gt;Swarm -->
<!-- Plugins -->
<g id="node13" class="node">
<title>Plugins</title>
<path fill="#6ee7b7" stroke="#334155" stroke-width="1.4" d="M87.75,-180.5C87.75,-180.5 40.25,-180.5 40.25,-180.5 34.25,-180.5 28.25,-174.5 28.25,-168.5 28.25,-168.5 28.25,-156.5 28.25,-156.5 28.25,-150.5 34.25,-144.5 40.25,-144.5 40.25,-144.5 87.75,-144.5 87.75,-144.5 93.75,-144.5 99.75,-150.5 99.75,-156.5 99.75,-156.5 99.75,-168.5 99.75,-168.5 99.75,-174.5 93.75,-180.5 87.75,-180.5"/>
<text xml:space="preserve" text-anchor="middle" x="64" y="-165.55" font-family="sans-Serif" font-size="11.00" fill="#0f172a">Plugins</text>
<text xml:space="preserve" text-anchor="middle" x="64" y="-152.05" font-family="sans-Serif" font-size="11.00" fill="#0f172a">66 modules</text>
</g>
<!-- CLI&#45;&gt;Plugins -->
<g id="edge18" class="edge">
<title>CLI&#45;&gt;Plugins</title>
<path fill="none" stroke="#34d399" stroke-width="1.3" d="M555,-419.82C561.94,-417.16 569.12,-414.61 576,-412.5 589.31,-408.42 812.25,-370.83 821,-360 844.89,-330.45 846.85,-302.36 821,-274.5 794.44,-245.87 155.32,-238.67 120,-222 104.46,-214.67 90.99,-201 81.16,-188.72"/>
<polygon fill="#34d399" stroke="#34d399" stroke-width="1.3" points="83.5,-187.17 76.43,-182.5 79.04,-190.56 83.5,-187.17"/>
</g>
<!-- Prompt -->
<g id="node12" class="node">
<title>Prompt</title>
<path fill="#c4b5fd" stroke="#334155" stroke-width="1.4" d="M791.25,-318.5C791.25,-318.5 656.75,-318.5 656.75,-318.5 650.75,-318.5 644.75,-312.5 644.75,-306.5 644.75,-306.5 644.75,-294.5 644.75,-294.5 644.75,-288.5 650.75,-282.5 656.75,-282.5 656.75,-282.5 791.25,-282.5 791.25,-282.5 797.25,-282.5 803.25,-288.5 803.25,-294.5 803.25,-294.5 803.25,-306.5 803.25,-306.5 803.25,-312.5 797.25,-318.5 791.25,-318.5"/>
<text xml:space="preserve" text-anchor="middle" x="724" y="-303.55" font-family="sans-Serif" font-size="11.00" fill="#0f172a">PromptBuilder</text>
<text xml:space="preserve" text-anchor="middle" x="724" y="-290.05" font-family="sans-Serif" font-size="11.00" fill="#0f172a">MEMORY · SKILLS · EXTRO</text>
</g>
<!-- Cronb&#45;&gt;Prompt -->
<!-- Loop&#45;&gt;LLM -->
<g id="edge27" class="edge">
<title>Loop&#45;&gt;LLM</title>
<path fill="none" stroke="#c4b5fd" stroke-width="2" d="M221.96,-319.05C240.33,-332.71 267.84,-350.82 295,-360 328.85,-371.44 339.51,-363.84 375,-368 448.71,-376.64 657.14,-356.63 706,-412.5 738.98,-450.21 715.09,-511.05 694.64,-548.59"/>
<polygon fill="#c4b5fd" stroke="#c4b5fd" stroke-width="2" points="692.27,-547.09 690.77,-555.43 697.15,-549.85 692.27,-547.09"/>
<text xml:space="preserve" text-anchor="middle" x="747.07" y="-435.2" font-family="sans-Serif" font-size="9.00" fill="#cbd5e1">tool&#45;use API</text>
</g>
<!-- Loop&#45;&gt;Plugins -->
<g id="edge10" class="edge">
<title>Loop&#45;&gt;Plugins</title>
<path fill="none" stroke="#34d399" stroke-width="2" d="M179.38,-281.93C166.17,-270.46 148.84,-254.97 134.25,-240.5 117.56,-223.94 99.71,-204.36 86.18,-189.08"/>
<polygon fill="#34d399" stroke="#34d399" stroke-width="2" points="88.53,-187.51 81.15,-183.36 84.33,-191.21 88.53,-187.51"/>
<text xml:space="preserve" text-anchor="middle" x="154.12" y="-231.95" font-family="sans-Serif" font-size="9.00" fill="#cbd5e1">pwn_eval</text>
</g>
<!-- SAST -->
<g id="node14" class="node">
<title>SAST</title>
<path fill="#6ee7b7" stroke="#334155" stroke-width="1.4" d="M182.12,-180.5C182.12,-180.5 151.88,-180.5 151.88,-180.5 145.88,-180.5 139.88,-174.5 139.88,-168.5 139.88,-168.5 139.88,-156.5 139.88,-156.5 139.88,-150.5 145.88,-144.5 151.88,-144.5 151.88,-144.5 182.12,-144.5 182.12,-144.5 188.12,-144.5 194.12,-150.5 194.12,-156.5 194.12,-156.5 194.12,-168.5 194.12,-168.5 194.12,-174.5 188.12,-180.5 182.12,-180.5"/>
<text xml:space="preserve" text-anchor="middle" x="167" y="-165.55" font-family="sans-Serif" font-size="11.00" fill="#0f172a">SAST</text>
<text xml:space="preserve" text-anchor="middle" x="167" y="-152.05" font-family="sans-Serif" font-size="11.00" fill="#0f172a">48 rules</text>
</g>
<!-- Loop&#45;&gt;SAST -->
<g id="edge11" class="edge">
<title>Loop&#45;&gt;SAST</title>
<path fill="none" stroke="#34d399" stroke-width="1.3" d="M195.75,-282C190.13,-258.84 180.17,-217.79 173.58,-190.61"/>
<polygon fill="#34d399" stroke="#34d399" stroke-width="1.3" points="176.3,-189.96 171.69,-182.85 170.86,-191.28 176.3,-189.96"/>
</g>
<!-- WWW -->
<g id="node15" class="node">
<title>WWW</title>
<path fill="#6ee7b7" stroke="#334155" stroke-width="1.4" d="M305.38,-180.5C305.38,-180.5 246.62,-180.5 246.62,-180.5 240.62,-180.5 234.62,-174.5 234.62,-168.5 234.62,-168.5 234.62,-156.5 234.62,-156.5 234.62,-150.5 240.62,-144.5 246.62,-144.5 246.62,-144.5 305.38,-144.5 305.38,-144.5 311.38,-144.5 317.38,-150.5 317.38,-156.5 317.38,-156.5 317.38,-168.5 317.38,-168.5 317.38,-174.5 311.38,-180.5 305.38,-180.5"/>
<text xml:space="preserve" text-anchor="middle" x="276" y="-165.55" font-family="sans-Serif" font-size="11.00" fill="#0f172a">WWW</text>
<text xml:space="preserve" text-anchor="middle" x="276" y="-152.05" font-family="sans-Serif" font-size="11.00" fill="#0f172a">21 site drivers</text>
</g>
<!-- Registry&#45;&gt;WWW -->
<g id="edge12" class="edge">
<title>Registry&#45;&gt;WWW</title>
<path fill="none" stroke="#34d399" stroke-width="1.3" d="M362.26,-282C345.03,-258.33 314.2,-215.97 294.44,-188.83"/>
<polygon fill="#34d399" stroke="#34d399" stroke-width="1.3" points="296.82,-187.34 289.85,-182.52 292.29,-190.64 296.82,-187.34"/>
</g>
<!-- AWS -->
<g id="node16" class="node">
<title>AWS</title>
<path fill="#6ee7b7" stroke="#334155" stroke-width="1.4" d="M415,-180.5C415,-180.5 369,-180.5 369,-180.5 363,-180.5 357,-174.5 357,-168.5 357,-168.5 357,-156.5 357,-156.5 357,-150.5 363,-144.5 369,-144.5 369,-144.5 415,-144.5 415,-144.5 421,-144.5 427,-150.5 427,-156.5 427,-156.5 427,-168.5 427,-168.5 427,-174.5 421,-180.5 415,-180.5"/>
<text xml:space="preserve" text-anchor="middle" x="392" y="-165.55" font-family="sans-Serif" font-size="11.00" fill="#0f172a">AWS</text>
<text xml:space="preserve" text-anchor="middle" x="392" y="-152.05" font-family="sans-Serif" font-size="11.00" fill="#0f172a">90 services</text>
</g>
<!-- Registry&#45;&gt;AWS -->
<g id="edge13" class="edge">
<title>Registry&#45;&gt;AWS</title>
<path fill="none" stroke="#34d399" stroke-width="1.3" d="M377.19,-282C380.08,-258.84 385.21,-217.79 388.61,-190.61"/>
<polygon fill="#34d399" stroke="#34d399" stroke-width="1.3" points="391.36,-191.17 389.58,-182.89 385.81,-190.48 391.36,-191.17"/>
</g>
<!-- SDR -->
<g id="node17" class="node">
<title>SDR</title>
<path fill="#6ee7b7" stroke="#334155" stroke-width="1.4" d="M580.75,-180.5C580.75,-180.5 479.25,-180.5 479.25,-180.5 473.25,-180.5 467.25,-174.5 467.25,-168.5 467.25,-168.5 467.25,-156.5 467.25,-156.5 467.25,-150.5 473.25,-144.5 479.25,-144.5 479.25,-144.5 580.75,-144.5 580.75,-144.5 586.75,-144.5 592.75,-150.5 592.75,-156.5 592.75,-156.5 592.75,-168.5 592.75,-168.5 592.75,-174.5 586.75,-180.5 580.75,-180.5"/>
<text xml:space="preserve" text-anchor="middle" x="530" y="-165.55" font-family="sans-Serif" font-size="11.00" fill="#0f172a">SDR</text>
<text xml:space="preserve" text-anchor="middle" x="530" y="-152.05" font-family="sans-Serif" font-size="11.00" fill="#0f172a">GQRX · Flipper · RFID</text>
</g>
<!-- Swarm&#45;&gt;SDR -->
<g id="edge14" class="edge">
<title>Swarm&#45;&gt;SDR</title>
<path fill="none" stroke="#34d399" stroke-width="1.3" d="M538.71,-282C537.01,-258.84 533.99,-217.79 531.99,-190.61"/>
<polygon fill="#34d399" stroke="#34d399" stroke-width="1.3" points="534.81,-190.67 531.43,-182.9 529.22,-191.08 534.81,-190.67"/>
</g>
<!-- Chain -->
<g id="node18" class="node">
<title>Chain</title>
<path fill="#6ee7b7" stroke="#334155" stroke-width="1.4" d="M691,-180.5C691,-180.5 645,-180.5 645,-180.5 639,-180.5 633,-174.5 633,-168.5 633,-168.5 633,-156.5 633,-156.5 633,-150.5 639,-144.5 645,-144.5 645,-144.5 691,-144.5 691,-144.5 697,-144.5 703,-150.5 703,-156.5 703,-156.5 703,-168.5 703,-168.5 703,-174.5 697,-180.5 691,-180.5"/>
<text xml:space="preserve" text-anchor="middle" x="668" y="-165.55" font-family="sans-Serif" font-size="11.00" fill="#0f172a">Blockchain</text>
<text xml:space="preserve" text-anchor="middle" x="668" y="-152.05" font-family="sans-Serif" font-size="11.00" fill="#0f172a">BTC · ETH</text>
</g>
<!-- Swarm&#45;&gt;Chain -->
<g id="edge15" class="edge">
<title>Swarm&#45;&gt;Chain</title>
<path fill="none" stroke="#34d399" stroke-width="1.3" d="M556.53,-281.96C571.33,-266.26 593.62,-242.6 613,-222 623.38,-210.97 634.85,-198.77 644.62,-188.37"/>
<polygon fill="#34d399" stroke="#34d399" stroke-width="1.3" points="646.61,-190.35 650.05,-182.6 642.53,-186.51 646.61,-190.35"/>
</g>
<!-- Bounty -->
<g id="node19" class="node">
<title>Bounty</title>
<path fill="#6ee7b7" stroke="#334155" stroke-width="1.4" d="M816.88,-180.5C816.88,-180.5 755.12,-180.5 755.12,-180.5 749.12,-180.5 743.12,-174.5 743.12,-168.5 743.12,-168.5 743.12,-156.5 743.12,-156.5 743.12,-150.5 749.12,-144.5 755.12,-144.5 755.12,-144.5 816.88,-144.5 816.88,-144.5 822.88,-144.5 828.88,-150.5 828.88,-156.5 828.88,-156.5 828.88,-168.5 828.88,-168.5 828.88,-174.5 822.88,-180.5 816.88,-180.5"/>
<text xml:space="preserve" text-anchor="middle" x="786" y="-165.55" font-family="sans-Serif" font-size="11.00" fill="#0f172a">Bounty</text>
<text xml:space="preserve" text-anchor="middle" x="786" y="-152.05" font-family="sans-Serif" font-size="11.00" fill="#0f172a">lifecycle replay</text>
</g>
<!-- Prompt&#45;&gt;Bounty -->
<!-- Reports -->
<g id="node20" class="node">
<title>Reports</title>
<path fill="#6ee7b7" stroke="#334155" stroke-width="1.4" d="M941.12,-180.5C941.12,-180.5 880.88,-180.5 880.88,-180.5 874.88,-180.5 868.88,-174.5 868.88,-168.5 868.88,-168.5 868.88,-156.5 868.88,-156.5 868.88,-150.5 874.88,-144.5 880.88,-144.5 880.88,-144.5 941.12,-144.5 941.12,-144.5 947.12,-144.5 953.12,-150.5 953.12,-156.5 953.12,-156.5 953.12,-168.5 953.12,-168.5 953.12,-174.5 947.12,-180.5 941.12,-180.5"/>
<text xml:space="preserve" text-anchor="middle" x="911" y="-165.55" font-family="sans-Serif" font-size="11.00" fill="#0f172a">Reports</text>
<text xml:space="preserve" text-anchor="middle" x="911" y="-152.05" font-family="sans-Serif" font-size="11.00" fill="#0f172a">HTML · JSON</text>
</g>
<!-- Prompt&#45;&gt;Reports -->
<!-- Memory -->
<g id="node21" class="node">
<title>Memory</title>
<path fill="#fcd34d" stroke="#334155" stroke-width="1.4" d="M93.75,-48.73C93.75,-50.53 76.38,-52 55,-52 33.62,-52 16.25,-50.53 16.25,-48.73 16.25,-48.73 16.25,-19.27 16.25,-19.27 16.25,-17.47 33.62,-16 55,-16 76.38,-16 93.75,-17.47 93.75,-19.27 93.75,-19.27 93.75,-48.73 93.75,-48.73"/>
<path fill="none" stroke="#334155" stroke-width="1.4" d="M93.75,-48.73C93.75,-46.92 76.38,-45.45 55,-45.45 33.62,-45.45 16.25,-46.92 16.25,-48.73"/>
<text xml:space="preserve" text-anchor="middle" x="55" y="-30.3" font-family="sans-Serif" font-size="11.00" fill="#0f172a">memory.json</text>
</g>
<!-- Prompt&#45;&gt;Memory -->
<g id="edge29" class="edge">
<title>Prompt&#45;&gt;Memory</title>
<path fill="none" stroke="#fbbf24" stroke-width="1.3" stroke-dasharray="5,2" d="M813.43,-296.69C868.46,-289.75 935.12,-270.87 971,-222 993.49,-191.37 997.19,-164.04 971,-136.5 905.29,-67.41 201.22,-132 114,-93.5 94.34,-84.82 77.58,-66.43 67,-52.57"/>
<polygon fill="#fbbf24" stroke="#fbbf24" stroke-width="1.3" points="813.24,-293.89 805.61,-297.59 813.88,-299.45 813.24,-293.89"/>
<text xml:space="preserve" text-anchor="middle" x="1000.16" y="-159.2" font-family="sans-Serif" font-size="9.00" fill="#cbd5e1">inject</text>
</g>
<!-- Plugins&#45;&gt;Target -->
<g id="edge28" class="edge">
<title>Plugins&#45;&gt;Target</title>
<path fill="none" stroke="#fb7185" stroke-width="2" d="M75.16,-181.11C85.06,-194.99 100.9,-213.4 120,-222 140.68,-231.32 301.36,-228.62 324,-230 383.76,-233.65 820.45,-230.45 861,-274.5 930.76,-350.28 879.92,-485.57 850.3,-548.22"/>
<polygon fill="#fb7185" stroke="#fb7185" stroke-width="2" points="847.86,-546.84 846.89,-555.26 852.9,-549.28 847.86,-546.84"/>
<text xml:space="preserve" text-anchor="middle" x="908.09" y="-369.95" font-family="sans-Serif" font-size="9.00" fill="#cbd5e1">attack</text>
</g>
<!-- Plugins&#45;&gt;Memory -->
<g id="edge19" class="edge">
<title>Plugins&#45;&gt;Memory</title>
<path fill="none" stroke="#f59e0b" stroke-width="1.3" d="M62.75,-143.91C61.24,-122.76 58.7,-87.04 56.94,-62.3"/>
<polygon fill="#f59e0b" stroke="#f59e0b" stroke-width="1.3" points="59.74,-62.18 56.38,-54.4 54.16,-62.58 59.74,-62.18"/>
</g>
<!-- Skills -->
<g id="node22" class="node">
<title>Skills</title>
<path fill="#fcd34d" stroke="#334155" stroke-width="1.4" d="M198,-48.73C198,-50.53 183.66,-52 166,-52 148.34,-52 134,-50.53 134,-48.73 134,-48.73 134,-19.27 134,-19.27 134,-17.47 148.34,-16 166,-16 183.66,-16 198,-17.47 198,-19.27 198,-19.27 198,-48.73 198,-48.73"/>
<path fill="none" stroke="#334155" stroke-width="1.4" d="M198,-48.73C198,-46.92 183.66,-45.45 166,-45.45 148.34,-45.45 134,-46.92 134,-48.73"/>
<text xml:space="preserve" text-anchor="middle" x="166" y="-30.3" font-family="sans-Serif" font-size="11.00" fill="#0f172a">skills/*.md</text>
</g>
<!-- SAST&#45;&gt;Skills -->
<g id="edge20" class="edge">
<title>SAST&#45;&gt;Skills</title>
<path fill="none" stroke="#f59e0b" stroke-width="1.3" d="M166.86,-143.91C166.69,-122.76 166.41,-87.04 166.22,-62.3"/>
<polygon fill="#f59e0b" stroke="#f59e0b" stroke-width="1.3" points="169.02,-62.39 166.15,-54.41 163.42,-62.43 169.02,-62.39"/>
</g>
<!-- Learn -->
<g id="node23" class="node">
<title>Learn</title>
<path fill="#fcd34d" stroke="#334155" stroke-width="1.4" d="M317.5,-48.73C317.5,-50.53 299.8,-52 278,-52 256.2,-52 238.5,-50.53 238.5,-48.73 238.5,-48.73 238.5,-19.27 238.5,-19.27 238.5,-17.47 256.2,-16 278,-16 299.8,-16 317.5,-17.47 317.5,-19.27 317.5,-19.27 317.5,-48.73 317.5,-48.73"/>
<path fill="none" stroke="#334155" stroke-width="1.4" d="M317.5,-48.73C317.5,-46.92 299.8,-45.45 278,-45.45 256.2,-45.45 238.5,-46.92 238.5,-48.73"/>
<text xml:space="preserve" text-anchor="middle" x="278" y="-30.3" font-family="sans-Serif" font-size="11.00" fill="#0f172a">learning.jsonl</text>
</g>
<!-- WWW&#45;&gt;Learn -->
<g id="edge21" class="edge">
<title>WWW&#45;&gt;Learn</title>
<path fill="none" stroke="#f59e0b" stroke-width="1.3" d="M276.28,-143.91C276.61,-122.76 277.18,-87.04 277.57,-62.3"/>
<polygon fill="#f59e0b" stroke="#f59e0b" stroke-width="1.3" points="280.37,-62.45 277.69,-54.41 274.77,-62.36 280.37,-62.45"/>
</g>
<!-- Metrics -->
<g id="node24" class="node">
<title>Metrics</title>
<path fill="#fcd34d" stroke="#334155" stroke-width="1.4" d="M430.5,-48.73C430.5,-50.53 414.14,-52 394,-52 373.86,-52 357.5,-50.53 357.5,-48.73 357.5,-48.73 357.5,-19.27 357.5,-19.27 357.5,-17.47 373.86,-16 394,-16 414.14,-16 430.5,-17.47 430.5,-19.27 430.5,-19.27 430.5,-48.73 430.5,-48.73"/>
<path fill="none" stroke="#334155" stroke-width="1.4" d="M430.5,-48.73C430.5,-46.92 414.14,-45.45 394,-45.45 373.86,-45.45 357.5,-46.92 357.5,-48.73"/>
<text xml:space="preserve" text-anchor="middle" x="394" y="-30.3" font-family="sans-Serif" font-size="11.00" fill="#0f172a">metrics.json</text>
</g>
<!-- AWS&#45;&gt;Metrics -->
<g id="edge22" class="edge">
<title>AWS&#45;&gt;Metrics</title>
<path fill="none" stroke="#f59e0b" stroke-width="1.3" d="M392.28,-143.91C392.61,-122.76 393.18,-87.04 393.57,-62.3"/>
<polygon fill="#f59e0b" stroke="#f59e0b" stroke-width="1.3" points="396.37,-62.45 393.69,-54.41 390.77,-62.36 396.37,-62.45"/>
</g>
<!-- Extro -->
<g id="node25" class="node">
<title>Extro</title>
<path fill="#fcd34d" stroke="#334155" stroke-width="1.4" d="M573.12,-48.73C573.12,-50.53 550.21,-52 522,-52 493.79,-52 470.88,-50.53 470.88,-48.73 470.88,-48.73 470.88,-19.27 470.88,-19.27 470.88,-17.47 493.79,-16 522,-16 550.21,-16 573.12,-17.47 573.12,-19.27 573.12,-19.27 573.12,-48.73 573.12,-48.73"/>
<path fill="none" stroke="#334155" stroke-width="1.4" d="M573.12,-48.73C573.12,-46.92 550.21,-45.45 522,-45.45 493.79,-45.45 470.88,-46.92 470.88,-48.73"/>
<text xml:space="preserve" text-anchor="middle" x="522" y="-30.3" font-family="sans-Serif" font-size="11.00" fill="#0f172a">extrospection.json</text>
</g>
<!-- SDR&#45;&gt;Extro -->
<g id="edge23" class="edge">
<title>SDR&#45;&gt;Extro</title>
<path fill="none" stroke="#f59e0b" stroke-width="1.3" d="M528.89,-143.91C527.55,-122.76 525.29,-87.04 523.73,-62.3"/>
<polygon fill="#f59e0b" stroke="#f59e0b" stroke-width="1.3" points="526.53,-62.21 523.23,-54.4 520.94,-62.56 526.53,-62.21"/>
</g>
<!-- Sessions -->
<g id="node26" class="node">
<title>Sessions</title>
<path fill="#fcd34d" stroke="#334155" stroke-width="1.4" d="M702.75,-48.73C702.75,-50.53 682.69,-52 658,-52 633.31,-52 613.25,-50.53 613.25,-48.73 613.25,-48.73 613.25,-19.27 613.25,-19.27 613.25,-17.47 633.31,-16 658,-16 682.69,-16 702.75,-17.47 702.75,-19.27 702.75,-19.27 702.75,-48.73 702.75,-48.73"/>
<path fill="none" stroke="#334155" stroke-width="1.4" d="M702.75,-48.73C702.75,-46.92 682.69,-45.45 658,-45.45 633.31,-45.45 613.25,-46.92 613.25,-48.73"/>
<text xml:space="preserve" text-anchor="middle" x="658" y="-30.3" font-family="sans-Serif" font-size="11.00" fill="#0f172a">sessions/*.jsonl</text>
</g>
<!-- Chain&#45;&gt;Sessions -->
<g id="edge24" class="edge">
<title>Chain&#45;&gt;Sessions</title>
<path fill="none" stroke="#f59e0b" stroke-width="1.3" d="M666.61,-143.91C664.94,-122.76 662.11,-87.04 660.16,-62.3"/>
<polygon fill="#f59e0b" stroke="#f59e0b" stroke-width="1.3" points="662.96,-62.16 659.53,-54.4 657.37,-62.6 662.96,-62.16"/>
</g>
<!-- SwarmB -->
<g id="node27" class="node">
<title>SwarmB</title>
<path fill="#fcd34d" stroke="#334155" stroke-width="1.4" d="M843.38,-48.73C843.38,-50.53 820.8,-52 793,-52 765.2,-52 742.62,-50.53 742.62,-48.73 742.62,-48.73 742.62,-19.27 742.62,-19.27 742.62,-17.47 765.2,-16 793,-16 820.8,-16 843.38,-17.47 843.38,-19.27 843.38,-19.27 843.38,-48.73 843.38,-48.73"/>
<path fill="none" stroke="#334155" stroke-width="1.4" d="M843.38,-48.73C843.38,-46.92 820.8,-45.45 793,-45.45 765.2,-45.45 742.62,-46.92 742.62,-48.73"/>
<text xml:space="preserve" text-anchor="middle" x="793" y="-30.3" font-family="sans-Serif" font-size="11.00" fill="#0f172a">swarm/*/bus.jsonl</text>
</g>
<!-- Bounty&#45;&gt;SwarmB -->
<g id="edge25" class="edge">
<title>Bounty&#45;&gt;SwarmB</title>
<path fill="none" stroke="#f59e0b" stroke-width="1.3" d="M786.97,-143.91C788.14,-122.76 790.12,-87.04 791.49,-62.3"/>
<polygon fill="#f59e0b" stroke="#f59e0b" stroke-width="1.3" points="794.28,-62.55 791.93,-54.4 788.69,-62.24 794.28,-62.55"/>
</g>
<!-- Reports&#45;&gt;User -->
<g id="edge30" class="edge">
<title>Reports&#45;&gt;User</title>
<path fill="none" stroke="#38bdf8" stroke-width="2" d="M920.53,-181.03C929.12,-194.86 943.12,-213.24 961,-222 977.78,-230.22 1114.82,-217.83 1129,-230 1172.94,-267.73 1170.73,-312.22 1138,-360 957.75,-623.19 754.79,-470.45 446,-550.5 435.5,-553.22 424.48,-556.75 413.99,-560.44"/>
<polygon fill="#38bdf8" stroke="#38bdf8" stroke-width="2" points="413.13,-557.78 406.56,-563.14 415.04,-563.04 413.13,-557.78"/>
<text xml:space="preserve" text-anchor="middle" x="1145.79" y="-369.95" font-family="sans-Serif" font-size="9.00" fill="#cbd5e1">findings</text>
</g>
<!-- CronF -->
<g id="node28" class="node">
<title>CronF</title>
<path fill="#fcd34d" stroke="#334155" stroke-width="1.4" d="M962.5,-48.73C962.5,-50.53 944.8,-52 923,-52 901.2,-52 883.5,-50.53 883.5,-48.73 883.5,-48.73 883.5,-19.27 883.5,-19.27 883.5,-17.47 901.2,-16 923,-16 944.8,-16 962.5,-17.47 962.5,-19.27 962.5,-19.27 962.5,-48.73 962.5,-48.73"/>
<path fill="none" stroke="#334155" stroke-width="1.4" d="M962.5,-48.73C962.5,-46.92 944.8,-45.45 923,-45.45 901.2,-45.45 883.5,-46.92 883.5,-48.73"/>
<text xml:space="preserve" text-anchor="middle" x="923" y="-30.3" font-family="sans-Serif" font-size="11.00" fill="#0f172a">cron/jobs.yml</text>
</g>
<!-- Reports&#45;&gt;CronF -->
<g id="edge26" class="edge">
<title>Reports&#45;&gt;CronF</title>
<path fill="none" stroke="#f59e0b" stroke-width="1.3" d="M912.67,-143.91C914.67,-122.76 918.06,-87.04 920.41,-62.3"/>
<polygon fill="#f59e0b" stroke="#f59e0b" stroke-width="1.3" points="923.19,-62.63 921.16,-54.4 917.62,-62.1 923.19,-62.63"/>
</g>
</g>
</svg>
