<?xml version="1.0" encoding="UTF-8" standalone="no"?>
<!DOCTYPE svg PUBLIC "-//W3C//DTD SVG 1.1//EN"
 "http://www.w3.org/Graphics/SVG/1.1/DTD/svg11.dtd">
<!-- Generated by graphviz version 14.1.2 (0)
 -->
<!-- Title: PWN_Overall_Architecture Pages: 1 -->
<svg width="1205pt" height="821pt"
 viewBox="0.00 0.00 1205.00 821.00" xmlns="http://www.w3.org/2000/svg" xmlns:xlink="http://www.w3.org/1999/xlink">
<g id="graph0" class="graph" transform="scale(1 1) rotate(0) translate(43.2 777.83)">
<title>PWN_Overall_Architecture</title>
<polygon fill="#0f172a" stroke="none" points="-43.2,43.2 -43.2,-777.83 1162.2,-777.83 1162.2,43.2 -43.2,43.2"/>
<text xml:space="preserve" text-anchor="start" x="295.5" y="-710.73" font-family="sans-Serif" font-weight="bold" font-size="22.00" fill="#e2e8f0">PWN — Offensive Security Automation Framework</text>
<text xml:space="preserve" text-anchor="start" x="487.5" y="-699.18" font-family="sans-Serif" font-size="11.00" fill="#94a3b8">Overall Architecture · lib/pwn/*</text>
<g id="clust1" class="cluster">
<title>cluster_actors</title>
<path fill="#1e293b" stroke="#334155" stroke-dasharray="5,2" d="M310,-587.62C310,-587.62 895,-587.62 895,-587.62 901,-587.62 907,-593.62 907,-599.62 907,-599.62 907,-673.62 907,-673.62 907,-679.62 901,-685.62 895,-685.62 895,-685.62 310,-685.62 310,-685.62 304,-685.62 298,-679.62 298,-673.62 298,-673.62 298,-599.62 298,-599.62 298,-593.62 304,-587.62 310,-587.62"/>
<text xml:space="preserve" text-anchor="middle" x="602.5" y="-660.73" font-family="sans-Serif" font-size="22.00" fill="#94a3b8">Actors</text>
</g>
<g id="clust3" class="cluster">
<title>cluster_entry</title>
<path fill="#0c4a6e" stroke="#0369a1" stroke-width="2" d="M176,-449.62C176,-449.62 694,-449.62 694,-449.62 700,-449.62 706,-455.62 706,-461.62 706,-461.62 706,-523.12 706,-523.12 706,-529.12 700,-535.12 694,-535.12 694,-535.12 176,-535.12 176,-535.12 170,-535.12 164,-529.12 164,-523.12 164,-523.12 164,-461.62 164,-461.62 164,-455.62 170,-449.62 176,-449.62"/>
<text xml:space="preserve" text-anchor="middle" x="435" y="-510.23" font-family="sans-Serif" font-size="22.00" fill="#7dd3fc">Entry Points &#160;(bin/)</text>
</g>
<g id="clust5" class="cluster">
<title>cluster_agent</title>
<path fill="#2e1065" stroke="#6d28d9" stroke-width="2" d="M143,-299.12C143,-299.12 824,-299.12 824,-299.12 830,-299.12 836,-305.12 836,-311.12 836,-311.12 836,-385.12 836,-385.12 836,-391.12 830,-397.12 824,-397.12 824,-397.12 143,-397.12 143,-397.12 137,-397.12 131,-391.12 131,-385.12 131,-385.12 131,-311.12 131,-311.12 131,-305.12 137,-299.12 143,-299.12"/>
<text xml:space="preserve" text-anchor="middle" x="483.5" y="-372.23" font-family="sans-Serif" font-size="22.00" fill="#ddd6fe">PWN::AI::Agent</text>
</g>
<g id="clust7" class="cluster">
<title>cluster_caps</title>
<path fill="#022c22" stroke="#047857" stroke-width="2" d="M34,-148.62C34,-148.62 951,-148.62 951,-148.62 957,-148.62 963,-154.62 963,-160.62 963,-160.62 963,-234.62 963,-234.62 963,-240.62 957,-246.62 951,-246.62 951,-246.62 34,-246.62 34,-246.62 28,-246.62 22,-240.62 22,-234.62 22,-234.62 22,-160.62 22,-160.62 22,-154.62 28,-148.62 34,-148.62"/>
<text xml:space="preserve" text-anchor="middle" x="492.5" y="-221.72" font-family="sans-Serif" font-size="22.00" fill="#a7f3d0">Capability Namespaces &#160;(lib/pwn/*)</text>
</g>
<g id="clust9" class="cluster">
<title>cluster_persist</title>
<path fill="#422006" stroke="#a16207" stroke-width="2" d="M20,-8C20,-8 1099,-8 1099,-8 1105,-8 1111,-14 1111,-20 1111,-20 1111,-93.62 1111,-93.62 1111,-99.62 1105,-105.62 1099,-105.62 1099,-105.62 20,-105.62 20,-105.62 14,-105.62 8,-99.62 8,-93.62 8,-93.62 8,-20 8,-20 8,-14 14,-8 20,-8"/>
<text xml:space="preserve" text-anchor="middle" x="559.5" y="-80.72" font-family="sans-Serif" font-size="22.00" fill="#fde68a">Persistence &#160;~/.pwn/</text>
</g>
<!-- User -->
<g id="node1" class="node">
<title>User</title>
<path fill="#7dd3fc" stroke="#334155" stroke-width="1.4" d="M424,-637.88C424,-637.88 318,-637.88 318,-637.88 312,-637.88 306,-631.88 306,-625.88 306,-625.88 306,-613.88 306,-613.88 306,-607.88 312,-601.88 318,-601.88 318,-601.88 424,-601.88 424,-601.88 430,-601.88 436,-607.88 436,-613.88 436,-613.88 436,-625.88 436,-625.88 436,-631.88 430,-637.88 424,-637.88"/>
<text xml:space="preserve" text-anchor="middle" x="371" y="-622.92" font-family="sans-Serif" font-size="11.00" fill="#0f172a">👤 &#160;Researcher</text>
<text xml:space="preserve" text-anchor="middle" x="371" y="-609.42" font-family="sans-Serif" font-size="11.00" fill="#0f172a">Red Team · Bug Hunter</text>
</g>
<!-- REPL -->
<g id="node5" class="node">
<title>REPL</title>
<path fill="#7dd3fc" stroke="#334155" stroke-width="1.4" d="M276.25,-493.62C276.25,-493.62 183.75,-493.62 183.75,-493.62 177.75,-493.62 171.75,-487.62 171.75,-481.62 171.75,-481.62 171.75,-469.62 171.75,-469.62 171.75,-463.62 177.75,-457.62 183.75,-457.62 183.75,-457.62 276.25,-457.62 276.25,-457.62 282.25,-457.62 288.25,-463.62 288.25,-469.62 288.25,-469.62 288.25,-481.62 288.25,-481.62 288.25,-487.62 282.25,-493.62 276.25,-493.62"/>
<text xml:space="preserve" text-anchor="middle" x="230" y="-478.68" font-family="sans-Serif" font-size="11.00" fill="#0f172a">🐚 &#160;pwn REPL</text>
<text xml:space="preserve" text-anchor="middle" x="230" y="-465.18" font-family="sans-Serif" font-size="11.00" fill="#0f172a">Pry + PWN:: preload</text>
</g>
<!-- User&#45;&gt;REPL -->
<g id="edge1" class="edge">
<title>User&#45;&gt;REPL</title>
<path fill="none" stroke="#38bdf8" stroke-width="1.3" d="M353.71,-601.43C328.76,-576.26 282.56,-529.65 254.23,-501.07"/>
<polygon fill="#38bdf8" stroke="#38bdf8" stroke-width="1.3" points="256.44,-499.32 248.82,-495.61 252.46,-503.26 256.44,-499.32"/>
</g>
<!-- PwnAI -->
<g id="node6" class="node">
<title>PwnAI</title>
<path fill="#7dd3fc" stroke="#334155" stroke-width="1.4" d="M429.75,-493.62C429.75,-493.62 340.25,-493.62 340.25,-493.62 334.25,-493.62 328.25,-487.62 328.25,-481.62 328.25,-481.62 328.25,-469.62 328.25,-469.62 328.25,-463.62 334.25,-457.62 340.25,-457.62 340.25,-457.62 429.75,-457.62 429.75,-457.62 435.75,-457.62 441.75,-463.62 441.75,-469.62 441.75,-469.62 441.75,-481.62 441.75,-481.62 441.75,-487.62 435.75,-493.62 429.75,-493.62"/>
<text xml:space="preserve" text-anchor="middle" x="385" y="-478.68" font-family="sans-Serif" font-size="11.00" fill="#0f172a">✨ &#160;pwn&#45;ai</text>
<text xml:space="preserve" text-anchor="middle" x="385" y="-465.18" font-family="sans-Serif" font-size="11.00" fill="#0f172a">Agent TUI · pwn &#45;&#45;ai</text>
</g>
<!-- User&#45;&gt;PwnAI -->
<g id="edge2" class="edge">
<title>User&#45;&gt;PwnAI</title>
<path fill="none" stroke="#38bdf8" stroke-width="1.3" d="M372.72,-601.43C375.11,-577.12 379.47,-532.79 382.3,-504.03"/>
<polygon fill="#38bdf8" stroke="#38bdf8" stroke-width="1.3" points="385.08,-504.4 383.08,-496.17 379.51,-503.86 385.08,-504.4"/>
</g>
<!-- CI -->
<g id="node2" class="node">
<title>CI</title>
<path fill="#7dd3fc" stroke="#334155" stroke-width="1.4" d="M570,-637.88C570,-637.88 488,-637.88 488,-637.88 482,-637.88 476,-631.88 476,-625.88 476,-625.88 476,-613.88 476,-613.88 476,-607.88 482,-601.88 488,-601.88 488,-601.88 570,-601.88 570,-601.88 576,-601.88 582,-607.88 582,-613.88 582,-613.88 582,-625.88 582,-625.88 582,-631.88 576,-637.88 570,-637.88"/>
<text xml:space="preserve" text-anchor="middle" x="529" y="-622.92" font-family="sans-Serif" font-size="11.00" fill="#0f172a">⚙️ &#160;CI / CD</text>
<text xml:space="preserve" text-anchor="middle" x="529" y="-609.42" font-family="sans-Serif" font-size="11.00" fill="#0f172a">Headless pipelines</text>
</g>
<!-- CLI -->
<g id="node7" class="node">
<title>CLI</title>
<path fill="#7dd3fc" stroke="#334155" stroke-width="1.4" d="M553.75,-493.62C553.75,-493.62 494.25,-493.62 494.25,-493.62 488.25,-493.62 482.25,-487.62 482.25,-481.62 482.25,-481.62 482.25,-469.62 482.25,-469.62 482.25,-463.62 488.25,-457.62 494.25,-457.62 494.25,-457.62 553.75,-457.62 553.75,-457.62 559.75,-457.62 565.75,-463.62 565.75,-469.62 565.75,-469.62 565.75,-481.62 565.75,-481.62 565.75,-487.62 559.75,-493.62 553.75,-493.62"/>
<text xml:space="preserve" text-anchor="middle" x="524" y="-478.68" font-family="sans-Serif" font-size="11.00" fill="#0f172a">📜 &#160;bin/pwn_*</text>
<text xml:space="preserve" text-anchor="middle" x="524" y="-465.18" font-family="sans-Serif" font-size="11.00" fill="#0f172a">52 CLI drivers</text>
</g>
<!-- CI&#45;&gt;CLI -->
<g id="edge3" class="edge">
<title>CI&#45;&gt;CLI</title>
<path fill="none" stroke="#38bdf8" stroke-width="1.3" d="M528.39,-601.43C527.53,-577.12 525.97,-532.79 524.96,-504.03"/>
<polygon fill="#38bdf8" stroke="#38bdf8" stroke-width="1.3" points="527.77,-504.07 524.69,-496.18 522.17,-504.27 527.77,-504.07"/>
</g>
<!-- Cronb -->
<g id="node8" class="node">
<title>Cronb</title>
<path fill="#7dd3fc" stroke="#334155" stroke-width="1.4" d="M685.88,-493.62C685.88,-493.62 618.12,-493.62 618.12,-493.62 612.12,-493.62 606.12,-487.62 606.12,-481.62 606.12,-481.62 606.12,-469.62 606.12,-469.62 606.12,-463.62 612.12,-457.62 618.12,-457.62 618.12,-457.62 685.88,-457.62 685.88,-457.62 691.88,-457.62 697.88,-463.62 697.88,-469.62 697.88,-469.62 697.88,-481.62 697.88,-481.62 697.88,-487.62 691.88,-493.62 685.88,-493.62"/>
<text xml:space="preserve" text-anchor="middle" x="652" y="-478.68" font-family="sans-Serif" font-size="11.00" fill="#0f172a">⏱ &#160;PWN::Cron</text>
<text xml:space="preserve" text-anchor="middle" x="652" y="-465.18" font-family="sans-Serif" font-size="11.00" fill="#0f172a">Scheduled jobs</text>
</g>
<!-- CI&#45;&gt;Cronb -->
<g id="edge4" class="edge">
<title>CI&#45;&gt;Cronb</title>
<path fill="none" stroke="#38bdf8" stroke-width="1.3" d="M544.08,-601.43C565.75,-576.37 605.81,-530.05 630.55,-501.43"/>
<polygon fill="#38bdf8" stroke="#38bdf8" stroke-width="1.3" points="632.39,-503.58 635.51,-495.7 628.16,-499.92 632.39,-503.58"/>
<text xml:space="preserve" text-anchor="middle" x="609.56" y="-545.08" font-family="sans-Serif" font-size="9.00" fill="#cbd5e1">crontab</text>
</g>
<!-- LLM -->
<g id="node3" class="node">
<title>LLM</title>
<path fill="#c4b5fd" stroke="#334155" stroke-width="1.4" d="M734.38,-644.12C734.38,-644.12 633.62,-644.12 633.62,-644.12 627.62,-644.12 621.62,-638.12 621.62,-632.12 621.62,-632.12 621.62,-607.62 621.62,-607.62 621.62,-601.62 627.62,-595.62 633.62,-595.62 633.62,-595.62 734.38,-595.62 734.38,-595.62 740.38,-595.62 746.38,-601.62 746.38,-607.62 746.38,-607.62 746.38,-632.12 746.38,-632.12 746.38,-638.12 740.38,-644.12 734.38,-644.12"/>
<text xml:space="preserve" text-anchor="middle" x="684" y="-629.67" font-family="sans-Serif" font-size="11.00" fill="#0f172a">🤖 &#160;LLM Providers</text>
<text xml:space="preserve" text-anchor="middle" x="684" y="-616.17" font-family="sans-Serif" font-size="11.00" fill="#0f172a">OpenAI · Anthropic</text>
<text xml:space="preserve" text-anchor="middle" x="684" y="-602.67" font-family="sans-Serif" font-size="11.00" fill="#0f172a">Grok · Gemini · Ollama</text>
</g>
<!-- Target -->
<g id="node4" class="node">
<title>Target</title>
<path fill="#fda4af" stroke="#334155" stroke-width="1.4" d="M887.38,-644.12C887.38,-644.12 798.62,-644.12 798.62,-644.12 792.62,-644.12 786.62,-638.12 786.62,-632.12 786.62,-632.12 786.62,-607.62 786.62,-607.62 786.62,-601.62 792.62,-595.62 798.62,-595.62 798.62,-595.62 887.38,-595.62 887.38,-595.62 893.38,-595.62 899.38,-601.62 899.38,-607.62 899.38,-607.62 899.38,-632.12 899.38,-632.12 899.38,-638.12 893.38,-644.12 887.38,-644.12"/>
<text xml:space="preserve" text-anchor="middle" x="843" y="-629.67" font-family="sans-Serif" font-size="11.00" fill="#0f172a">🎯 &#160;Attack Surface</text>
<text xml:space="preserve" text-anchor="middle" x="843" y="-616.17" font-family="sans-Serif" font-size="11.00" fill="#0f172a">Hosts · Web · Cloud</text>
<text xml:space="preserve" text-anchor="middle" x="843" y="-602.67" font-family="sans-Serif" font-size="11.00" fill="#0f172a">Radio · Hardware</text>
</g>
<!-- Loop -->
<g id="node9" class="node">
<title>Loop</title>
<path fill="#c4b5fd" stroke="#334155" stroke-width="1.4" d="M275.38,-349.38C275.38,-349.38 150.62,-349.38 150.62,-349.38 144.62,-349.38 138.62,-343.38 138.62,-337.38 138.62,-337.38 138.62,-325.38 138.62,-325.38 138.62,-319.38 144.62,-313.38 150.62,-313.38 150.62,-313.38 275.38,-313.38 275.38,-313.38 281.38,-313.38 287.38,-319.38 287.38,-325.38 287.38,-325.38 287.38,-337.38 287.38,-337.38 287.38,-343.38 281.38,-349.38 275.38,-349.38"/>
<text xml:space="preserve" text-anchor="middle" x="213" y="-334.43" font-family="sans-Serif" font-size="11.00" fill="#0f172a">Loop</text>
<text xml:space="preserve" text-anchor="middle" x="213" y="-320.93" font-family="sans-Serif" font-size="11.00" fill="#0f172a">plan → dispatch → observe</text>
</g>
<!-- REPL&#45;&gt;Loop -->
<g id="edge5" class="edge">
<title>REPL&#45;&gt;Loop</title>
<path fill="none" stroke="#a78bfa" stroke-width="1.3" d="M227.92,-457.18C225.01,-432.87 219.71,-388.54 216.28,-359.78"/>
<polygon fill="#a78bfa" stroke="#a78bfa" stroke-width="1.3" points="219.06,-359.53 215.34,-351.91 213.5,-360.19 219.06,-359.53"/>
</g>
<!-- PwnAI&#45;&gt;Loop -->
<g id="edge6" class="edge">
<title>PwnAI&#45;&gt;Loop</title>
<path fill="none" stroke="#a78bfa" stroke-width="2" d="M360.1,-457.15C344.13,-445.72 323.11,-430.24 305.25,-415.62 282.23,-396.79 257.24,-374.1 239.09,-357.16"/>
<polygon fill="#a78bfa" stroke="#a78bfa" stroke-width="2" points="241.22,-355.32 233.47,-351.89 237.39,-359.41 241.22,-355.32"/>
<text xml:space="preserve" text-anchor="middle" x="340.12" y="-407.07" font-family="sans-Serif" font-size="9.00" fill="#cbd5e1">natural language</text>
</g>
<!-- Registry -->
<g id="node10" class="node">
<title>Registry</title>
<path fill="#c4b5fd" stroke="#334155" stroke-width="1.4" d="M430.12,-349.38C430.12,-349.38 339.88,-349.38 339.88,-349.38 333.88,-349.38 327.88,-343.38 327.88,-337.38 327.88,-337.38 327.88,-325.38 327.88,-325.38 327.88,-319.38 333.88,-313.38 339.88,-313.38 339.88,-313.38 430.12,-313.38 430.12,-313.38 436.12,-313.38 442.12,-319.38 442.12,-325.38 442.12,-325.38 442.12,-337.38 442.12,-337.38 442.12,-343.38 436.12,-349.38 430.12,-349.38"/>
<text xml:space="preserve" text-anchor="middle" x="385" y="-334.43" font-family="sans-Serif" font-size="11.00" fill="#0f172a">Registry</text>
<text xml:space="preserve" text-anchor="middle" x="385" y="-320.93" font-family="sans-Serif" font-size="11.00" fill="#0f172a">10 toolsets · 55 tools</text>
</g>
<!-- PwnAI&#45;&gt;Registry -->
<g id="edge7" class="edge">
<title>PwnAI&#45;&gt;Registry</title>
<path fill="none" stroke="#a78bfa" stroke-width="1.3" d="M385,-457.18C385,-432.87 385,-388.54 385,-359.78"/>
<polygon fill="#a78bfa" stroke="#a78bfa" stroke-width="1.3" points="387.8,-359.93 385,-351.93 382.2,-359.93 387.8,-359.93"/>
</g>
<!-- Swarm -->
<g id="node11" class="node">
<title>Swarm</title>
<path fill="#c4b5fd" stroke="#334155" stroke-width="1.4" d="M598.25,-349.38C598.25,-349.38 493.75,-349.38 493.75,-349.38 487.75,-349.38 481.75,-343.38 481.75,-337.38 481.75,-337.38 481.75,-325.38 481.75,-325.38 481.75,-319.38 487.75,-313.38 493.75,-313.38 493.75,-313.38 598.25,-313.38 598.25,-313.38 604.25,-313.38 610.25,-319.38 610.25,-325.38 610.25,-325.38 610.25,-337.38 610.25,-337.38 610.25,-343.38 604.25,-349.38 598.25,-349.38"/>
<text xml:space="preserve" text-anchor="middle" x="546" y="-334.43" font-family="sans-Serif" font-size="11.00" fill="#0f172a">Swarm</text>
<text xml:space="preserve" text-anchor="middle" x="546" y="-320.93" font-family="sans-Serif" font-size="11.00" fill="#0f172a">personas · debate · bus</text>
</g>
<!-- CLI&#45;&gt;Swarm -->
<!-- Plugins -->
<g id="node13" class="node">
<title>Plugins</title>
<path fill="#6ee7b7" stroke="#334155" stroke-width="1.4" d="M89.75,-198.88C89.75,-198.88 42.25,-198.88 42.25,-198.88 36.25,-198.88 30.25,-192.88 30.25,-186.88 30.25,-186.88 30.25,-174.88 30.25,-174.88 30.25,-168.88 36.25,-162.88 42.25,-162.88 42.25,-162.88 89.75,-162.88 89.75,-162.88 95.75,-162.88 101.75,-168.88 101.75,-174.88 101.75,-174.88 101.75,-186.88 101.75,-186.88 101.75,-192.88 95.75,-198.88 89.75,-198.88"/>
<text xml:space="preserve" text-anchor="middle" x="66" y="-183.93" font-family="sans-Serif" font-size="11.00" fill="#0f172a">Plugins</text>
<text xml:space="preserve" text-anchor="middle" x="66" y="-170.43" font-family="sans-Serif" font-size="11.00" fill="#0f172a">66 modules</text>
</g>
<!-- CLI&#45;&gt;Plugins -->
<g id="edge18" class="edge">
<title>CLI&#45;&gt;Plugins</title>
<path fill="none" stroke="#34d399" stroke-width="1.3" d="M564.64,-457C571.68,-454.3 579,-451.72 586,-449.62 587.76,-449.1 844.83,-398.55 846,-397.12 873.58,-363.42 875.66,-331.02 846,-299.12 832.27,-284.36 140.02,-255.67 122,-246.62 104.79,-237.99 90.65,-221.51 80.89,-207.33"/>
<polygon fill="#34d399" stroke="#34d399" stroke-width="1.3" points="83.46,-206.14 76.73,-200.98 78.77,-209.21 83.46,-206.14"/>
</g>
<!-- Prompt -->
<g id="node12" class="node">
<title>Prompt</title>
<path fill="#c4b5fd" stroke="#334155" stroke-width="1.4" d="M815.62,-355.62C815.62,-355.62 662.38,-355.62 662.38,-355.62 656.38,-355.62 650.38,-349.62 650.38,-343.62 650.38,-343.62 650.38,-319.12 650.38,-319.12 650.38,-313.12 656.38,-307.12 662.38,-307.12 662.38,-307.12 815.62,-307.12 815.62,-307.12 821.62,-307.12 827.62,-313.12 827.62,-319.12 827.62,-319.12 827.62,-343.62 827.62,-343.62 827.62,-349.62 821.62,-355.62 815.62,-355.62"/>
<text xml:space="preserve" text-anchor="middle" x="739" y="-341.18" font-family="sans-Serif" font-size="11.00" fill="#0f172a">PromptBuilder</text>
<text xml:space="preserve" text-anchor="middle" x="739" y="-327.68" font-family="sans-Serif" font-size="11.00" fill="#0f172a">MEMORY · SKILLS · LEARNING</text>
<text xml:space="preserve" text-anchor="middle" x="739" y="-314.18" font-family="sans-Serif" font-size="11.00" fill="#0f172a">MISTAKES · METRICS · EXTRO</text>
</g>
<!-- Cronb&#45;&gt;Prompt -->
<!-- Loop&#45;&gt;LLM -->
<g id="edge28" class="edge">
<title>Loop&#45;&gt;LLM</title>
<path fill="none" stroke="#c4b5fd" stroke-width="2" d="M232.48,-349.99C250.62,-365.27 279.14,-386.56 308,-397.12 340.31,-408.95 350.84,-401.05 385,-405.12 458.7,-413.91 667.14,-393.76 716,-449.62 748.98,-487.34 725.09,-548.17 704.64,-585.72"/>
<polygon fill="#c4b5fd" stroke="#c4b5fd" stroke-width="2" points="702.27,-584.21 700.77,-592.56 707.15,-586.97 702.27,-584.21"/>
<text xml:space="preserve" text-anchor="middle" x="757.07" y="-472.32" font-family="sans-Serif" font-size="9.00" fill="#cbd5e1">tool&#45;use API</text>
</g>
<!-- Loop&#45;&gt;Plugins -->
<g id="edge10" class="edge">
<title>Loop&#45;&gt;Plugins</title>
<path fill="none" stroke="#34d399" stroke-width="2" d="M192.38,-312.83C173.44,-296.38 144.91,-270.77 122,-246.62 110.23,-234.22 97.72,-219.88 87.53,-207.86"/>
<polygon fill="#34d399" stroke="#34d399" stroke-width="2" points="89.79,-206.21 82.5,-201.89 85.51,-209.81 89.79,-206.21"/>
<text xml:space="preserve" text-anchor="middle" x="158.48" y="-256.57" font-family="sans-Serif" font-size="9.00" fill="#cbd5e1">pwn_eval</text>
</g>
<!-- SAST -->
<g id="node14" class="node">
<title>SAST</title>
<path fill="#6ee7b7" stroke="#334155" stroke-width="1.4" d="M184.12,-198.88C184.12,-198.88 153.88,-198.88 153.88,-198.88 147.88,-198.88 141.88,-192.88 141.88,-186.88 141.88,-186.88 141.88,-174.88 141.88,-174.88 141.88,-168.88 147.88,-162.88 153.88,-162.88 153.88,-162.88 184.12,-162.88 184.12,-162.88 190.12,-162.88 196.12,-168.88 196.12,-174.88 196.12,-174.88 196.12,-186.88 196.12,-186.88 196.12,-192.88 190.12,-198.88 184.12,-198.88"/>
<text xml:space="preserve" text-anchor="middle" x="169" y="-183.93" font-family="sans-Serif" font-size="11.00" fill="#0f172a">SAST</text>
<text xml:space="preserve" text-anchor="middle" x="169" y="-170.43" font-family="sans-Serif" font-size="11.00" fill="#0f172a">48 rules</text>
</g>
<!-- Loop&#45;&gt;SAST -->
<g id="edge11" class="edge">
<title>Loop&#45;&gt;SAST</title>
<path fill="none" stroke="#34d399" stroke-width="1.3" d="M207.78,-312.76C200.17,-287.08 185.97,-239.15 177.03,-208.97"/>
<polygon fill="#34d399" stroke="#34d399" stroke-width="1.3" points="179.73,-208.23 174.77,-201.36 174.36,-209.82 179.73,-208.23"/>
</g>
<!-- WWW -->
<g id="node15" class="node">
<title>WWW</title>
<path fill="#6ee7b7" stroke="#334155" stroke-width="1.4" d="M307.38,-198.88C307.38,-198.88 248.62,-198.88 248.62,-198.88 242.62,-198.88 236.62,-192.88 236.62,-186.88 236.62,-186.88 236.62,-174.88 236.62,-174.88 236.62,-168.88 242.62,-162.88 248.62,-162.88 248.62,-162.88 307.38,-162.88 307.38,-162.88 313.38,-162.88 319.38,-168.88 319.38,-174.88 319.38,-174.88 319.38,-186.88 319.38,-186.88 319.38,-192.88 313.38,-198.88 307.38,-198.88"/>
<text xml:space="preserve" text-anchor="middle" x="278" y="-183.93" font-family="sans-Serif" font-size="11.00" fill="#0f172a">WWW</text>
<text xml:space="preserve" text-anchor="middle" x="278" y="-170.43" font-family="sans-Serif" font-size="11.00" fill="#0f172a">21 site drivers</text>
</g>
<!-- Registry&#45;&gt;WWW -->
<g id="edge12" class="edge">
<title>Registry&#45;&gt;WWW</title>
<path fill="none" stroke="#34d399" stroke-width="1.3" d="M372.31,-312.76C353.48,-286.63 318.07,-237.48 296.4,-207.41"/>
<polygon fill="#34d399" stroke="#34d399" stroke-width="1.3" points="298.78,-205.92 291.83,-201.07 294.23,-209.19 298.78,-205.92"/>
</g>
<!-- AWS -->
<g id="node16" class="node">
<title>AWS</title>
<path fill="#6ee7b7" stroke="#334155" stroke-width="1.4" d="M417,-198.88C417,-198.88 371,-198.88 371,-198.88 365,-198.88 359,-192.88 359,-186.88 359,-186.88 359,-174.88 359,-174.88 359,-168.88 365,-162.88 371,-162.88 371,-162.88 417,-162.88 417,-162.88 423,-162.88 429,-168.88 429,-174.88 429,-174.88 429,-186.88 429,-186.88 429,-192.88 423,-198.88 417,-198.88"/>
<text xml:space="preserve" text-anchor="middle" x="394" y="-183.93" font-family="sans-Serif" font-size="11.00" fill="#0f172a">AWS</text>
<text xml:space="preserve" text-anchor="middle" x="394" y="-170.43" font-family="sans-Serif" font-size="11.00" fill="#0f172a">90 services</text>
</g>
<!-- Registry&#45;&gt;AWS -->
<g id="edge13" class="edge">
<title>Registry&#45;&gt;AWS</title>
<path fill="none" stroke="#34d399" stroke-width="1.3" d="M386.07,-312.76C387.62,-287.19 390.5,-239.57 392.33,-209.36"/>
<polygon fill="#34d399" stroke="#34d399" stroke-width="1.3" points="395.13,-209.59 392.81,-201.43 389.54,-209.25 395.13,-209.59"/>
</g>
<!-- SDR -->
<g id="node17" class="node">
<title>SDR</title>
<path fill="#6ee7b7" stroke="#334155" stroke-width="1.4" d="M582.75,-205.12C582.75,-205.12 481.25,-205.12 481.25,-205.12 475.25,-205.12 469.25,-199.12 469.25,-193.12 469.25,-193.12 469.25,-168.62 469.25,-168.62 469.25,-162.62 475.25,-156.62 481.25,-156.62 481.25,-156.62 582.75,-156.62 582.75,-156.62 588.75,-156.62 594.75,-162.62 594.75,-168.62 594.75,-168.62 594.75,-193.12 594.75,-193.12 594.75,-199.12 588.75,-205.12 582.75,-205.12"/>
<text xml:space="preserve" text-anchor="middle" x="532" y="-190.68" font-family="sans-Serif" font-size="11.00" fill="#0f172a">SDR</text>
<text xml:space="preserve" text-anchor="middle" x="532" y="-177.18" font-family="sans-Serif" font-size="11.00" fill="#0f172a">GQRX · Flipper · RFID</text>
<text xml:space="preserve" text-anchor="middle" x="532" y="-163.68" font-family="sans-Serif" font-size="11.00" fill="#0f172a">Decoder::* (20)</text>
</g>
<!-- Swarm&#45;&gt;SDR -->
<g id="edge14" class="edge">
<title>Swarm&#45;&gt;SDR</title>
<path fill="none" stroke="#34d399" stroke-width="1.3" d="M544.34,-312.76C542.08,-288.81 538,-245.5 535.15,-215.28"/>
<polygon fill="#34d399" stroke="#34d399" stroke-width="1.3" points="537.96,-215.25 534.42,-207.55 532.38,-215.77 537.96,-215.25"/>
</g>
<!-- Chain -->
<g id="node18" class="node">
<title>Chain</title>
<path fill="#6ee7b7" stroke="#334155" stroke-width="1.4" d="M693,-198.88C693,-198.88 647,-198.88 647,-198.88 641,-198.88 635,-192.88 635,-186.88 635,-186.88 635,-174.88 635,-174.88 635,-168.88 641,-162.88 647,-162.88 647,-162.88 693,-162.88 693,-162.88 699,-162.88 705,-168.88 705,-174.88 705,-174.88 705,-186.88 705,-186.88 705,-192.88 699,-198.88 693,-198.88"/>
<text xml:space="preserve" text-anchor="middle" x="670" y="-183.93" font-family="sans-Serif" font-size="11.00" fill="#0f172a">Blockchain</text>
<text xml:space="preserve" text-anchor="middle" x="670" y="-170.43" font-family="sans-Serif" font-size="11.00" fill="#0f172a">BTC · ETH</text>
</g>
<!-- Swarm&#45;&gt;Chain -->
<g id="edge15" class="edge">
<title>Swarm&#45;&gt;Chain</title>
<path fill="none" stroke="#34d399" stroke-width="1.3" d="M560.71,-312.76C582.62,-286.52 623.92,-237.06 649,-207.03"/>
<polygon fill="#34d399" stroke="#34d399" stroke-width="1.3" points="651.07,-208.92 654.05,-200.98 646.77,-205.33 651.07,-208.92"/>
</g>
<!-- Bounty -->
<g id="node19" class="node">
<title>Bounty</title>
<path fill="#6ee7b7" stroke="#334155" stroke-width="1.4" d="M818.88,-198.88C818.88,-198.88 757.12,-198.88 757.12,-198.88 751.12,-198.88 745.12,-192.88 745.12,-186.88 745.12,-186.88 745.12,-174.88 745.12,-174.88 745.12,-168.88 751.12,-162.88 757.12,-162.88 757.12,-162.88 818.88,-162.88 818.88,-162.88 824.88,-162.88 830.88,-168.88 830.88,-174.88 830.88,-174.88 830.88,-186.88 830.88,-186.88 830.88,-192.88 824.88,-198.88 818.88,-198.88"/>
<text xml:space="preserve" text-anchor="middle" x="788" y="-183.93" font-family="sans-Serif" font-size="11.00" fill="#0f172a">Bounty</text>
<text xml:space="preserve" text-anchor="middle" x="788" y="-170.43" font-family="sans-Serif" font-size="11.00" fill="#0f172a">lifecycle replay</text>
</g>
<!-- Prompt&#45;&gt;Bounty -->
<!-- Reports -->
<g id="node20" class="node">
<title>Reports</title>
<path fill="#6ee7b7" stroke="#334155" stroke-width="1.4" d="M943.12,-198.88C943.12,-198.88 882.88,-198.88 882.88,-198.88 876.88,-198.88 870.88,-192.88 870.88,-186.88 870.88,-186.88 870.88,-174.88 870.88,-174.88 870.88,-168.88 876.88,-162.88 882.88,-162.88 882.88,-162.88 943.12,-162.88 943.12,-162.88 949.12,-162.88 955.12,-168.88 955.12,-174.88 955.12,-174.88 955.12,-186.88 955.12,-186.88 955.12,-192.88 949.12,-198.88 943.12,-198.88"/>
<text xml:space="preserve" text-anchor="middle" x="913" y="-183.93" font-family="sans-Serif" font-size="11.00" fill="#0f172a">Reports</text>
<text xml:space="preserve" text-anchor="middle" x="913" y="-170.43" font-family="sans-Serif" font-size="11.00" fill="#0f172a">HTML · JSON</text>
</g>
<!-- Prompt&#45;&gt;Reports -->
<!-- Memory -->
<g id="node21" class="node">
<title>Memory</title>
<path fill="#fcd34d" stroke="#334155" stroke-width="1.4" d="M93.75,-54.79C93.75,-56.6 76.38,-58.06 55,-58.06 33.62,-58.06 16.25,-56.6 16.25,-54.79 16.25,-54.79 16.25,-25.34 16.25,-25.34 16.25,-23.53 33.62,-22.06 55,-22.06 76.38,-22.06 93.75,-23.53 93.75,-25.34 93.75,-25.34 93.75,-54.79 93.75,-54.79"/>
<path fill="none" stroke="#334155" stroke-width="1.4" d="M93.75,-54.79C93.75,-52.98 76.38,-51.52 55,-51.52 33.62,-51.52 16.25,-52.98 16.25,-54.79"/>
<text xml:space="preserve" text-anchor="middle" x="55" y="-36.36" font-family="sans-Serif" font-size="11.00" fill="#0f172a">memory.json</text>
</g>
<!-- Prompt&#45;&gt;Memory -->
<g id="edge30" class="edge">
<title>Prompt&#45;&gt;Memory</title>
<path fill="none" stroke="#fbbf24" stroke-width="1.3" stroke-dasharray="5,2" d="M838.05,-321.2C887.19,-311.06 942.43,-290.03 973,-246.62 998.08,-211.01 1003.02,-180.18 973,-148.62 907.14,-79.38 200.45,-146.35 114,-105.62 92.71,-95.6 75.57,-74.04 65.36,-58.6"/>
<polygon fill="#fbbf24" stroke="#fbbf24" stroke-width="1.3" points="837.57,-318.44 830.25,-322.71 838.63,-323.94 837.57,-318.44"/>
<text xml:space="preserve" text-anchor="middle" x="1004.58" y="-177.57" font-family="sans-Serif" font-size="9.00" fill="#cbd5e1">inject</text>
</g>
<!-- Plugins&#45;&gt;Target -->
<g id="edge29" class="edge">
<title>Plugins&#45;&gt;Target</title>
<path fill="none" stroke="#fb7185" stroke-width="2" d="M75.58,-199.5C85.09,-215.01 101.24,-236.64 122,-246.62 142.54,-256.51 304.24,-253.28 327,-254.62 389.42,-258.32 845.57,-253.2 888,-299.12 961.81,-379.02 897.88,-521.5 862.6,-585.79"/>
<polygon fill="#fb7185" stroke="#fb7185" stroke-width="2" points="860.36,-584.06 858.9,-592.41 865.25,-586.8 860.36,-584.06"/>
<text xml:space="preserve" text-anchor="middle" x="933.69" y="-407.07" font-family="sans-Serif" font-size="9.00" fill="#cbd5e1">attack</text>
</g>
<!-- Plugins&#45;&gt;Memory -->
<g id="edge19" class="edge">
<title>Plugins&#45;&gt;Memory</title>
<path fill="none" stroke="#f59e0b" stroke-width="1.3" d="M64.61,-162.29C62.73,-138.62 59.37,-96.25 57.17,-68.4"/>
<polygon fill="#f59e0b" stroke="#f59e0b" stroke-width="1.3" points="59.96,-68.22 56.54,-60.46 54.38,-68.66 59.96,-68.22"/>
</g>
<!-- Skills -->
<g id="node22" class="node">
<title>Skills</title>
<path fill="#fcd34d" stroke="#334155" stroke-width="1.4" d="M198,-54.79C198,-56.6 183.66,-58.06 166,-58.06 148.34,-58.06 134,-56.6 134,-54.79 134,-54.79 134,-25.34 134,-25.34 134,-23.53 148.34,-22.06 166,-22.06 183.66,-22.06 198,-23.53 198,-25.34 198,-25.34 198,-54.79 198,-54.79"/>
<path fill="none" stroke="#334155" stroke-width="1.4" d="M198,-54.79C198,-52.98 183.66,-51.52 166,-51.52 148.34,-51.52 134,-52.98 134,-54.79"/>
<text xml:space="preserve" text-anchor="middle" x="166" y="-36.36" font-family="sans-Serif" font-size="11.00" fill="#0f172a">skills/*.md</text>
</g>
<!-- SAST&#45;&gt;Skills -->
<g id="edge20" class="edge">
<title>SAST&#45;&gt;Skills</title>
<path fill="none" stroke="#f59e0b" stroke-width="1.3" d="M168.62,-162.29C168.11,-138.62 167.19,-96.25 166.59,-68.4"/>
<polygon fill="#f59e0b" stroke="#f59e0b" stroke-width="1.3" points="169.39,-68.41 166.42,-60.47 163.79,-68.53 169.39,-68.41"/>
</g>
<!-- Learn -->
<g id="node23" class="node">
<title>Learn</title>
<path fill="#fcd34d" stroke="#334155" stroke-width="1.4" d="M317.5,-54.79C317.5,-56.6 299.8,-58.06 278,-58.06 256.2,-58.06 238.5,-56.6 238.5,-54.79 238.5,-54.79 238.5,-25.34 238.5,-25.34 238.5,-23.53 256.2,-22.06 278,-22.06 299.8,-22.06 317.5,-23.53 317.5,-25.34 317.5,-25.34 317.5,-54.79 317.5,-54.79"/>
<path fill="none" stroke="#334155" stroke-width="1.4" d="M317.5,-54.79C317.5,-52.98 299.8,-51.52 278,-51.52 256.2,-51.52 238.5,-52.98 238.5,-54.79"/>
<text xml:space="preserve" text-anchor="middle" x="278" y="-36.36" font-family="sans-Serif" font-size="11.00" fill="#0f172a">learning.jsonl</text>
</g>
<!-- WWW&#45;&gt;Learn -->
<g id="edge21" class="edge">
<title>WWW&#45;&gt;Learn</title>
<path fill="none" stroke="#f59e0b" stroke-width="1.3" d="M278,-162.29C278,-138.62 278,-96.25 278,-68.4"/>
<polygon fill="#f59e0b" stroke="#f59e0b" stroke-width="1.3" points="280.8,-68.47 278,-60.47 275.2,-68.47 280.8,-68.47"/>
</g>
<!-- Metrics -->
<g id="node24" class="node">
<title>Metrics</title>
<path fill="#fcd34d" stroke="#334155" stroke-width="1.4" d="M430.5,-54.79C430.5,-56.6 414.14,-58.06 394,-58.06 373.86,-58.06 357.5,-56.6 357.5,-54.79 357.5,-54.79 357.5,-25.34 357.5,-25.34 357.5,-23.53 373.86,-22.06 394,-22.06 414.14,-22.06 430.5,-23.53 430.5,-25.34 430.5,-25.34 430.5,-54.79 430.5,-54.79"/>
<path fill="none" stroke="#334155" stroke-width="1.4" d="M430.5,-54.79C430.5,-52.98 414.14,-51.52 394,-51.52 373.86,-51.52 357.5,-52.98 357.5,-54.79"/>
<text xml:space="preserve" text-anchor="middle" x="394" y="-36.36" font-family="sans-Serif" font-size="11.00" fill="#0f172a">metrics.json</text>
</g>
<!-- AWS&#45;&gt;Metrics -->
<g id="edge22" class="edge">
<title>AWS&#45;&gt;Metrics</title>
<path fill="none" stroke="#f59e0b" stroke-width="1.3" d="M394,-162.29C394,-138.62 394,-96.25 394,-68.4"/>
<polygon fill="#f59e0b" stroke="#f59e0b" stroke-width="1.3" points="396.8,-68.47 394,-60.47 391.2,-68.47 396.8,-68.47"/>
</g>
<!-- MistF -->
<g id="node25" class="node">
<title>MistF</title>
<path fill="#fcd34d" stroke="#334155" stroke-width="1.4" d="M551.25,-54.79C551.25,-56.6 533.21,-58.06 511,-58.06 488.79,-58.06 470.75,-56.6 470.75,-54.79 470.75,-54.79 470.75,-25.34 470.75,-25.34 470.75,-23.53 488.79,-22.06 511,-22.06 533.21,-22.06 551.25,-23.53 551.25,-25.34 551.25,-25.34 551.25,-54.79 551.25,-54.79"/>
<path fill="none" stroke="#334155" stroke-width="1.4" d="M551.25,-54.79C551.25,-52.98 533.21,-51.52 511,-51.52 488.79,-51.52 470.75,-52.98 470.75,-54.79"/>
<text xml:space="preserve" text-anchor="middle" x="511" y="-36.36" font-family="sans-Serif" font-size="11.00" fill="#0f172a">mistakes.json</text>
</g>
<!-- SDR&#45;&gt;MistF -->
<!-- Extro -->
<g id="node26" class="node">
<title>Extro</title>
<path fill="#fcd34d" stroke="#334155" stroke-width="1.4" d="M712.88,-59.75C712.88,-62.16 685.59,-64.12 652,-64.12 618.41,-64.12 591.12,-62.16 591.12,-59.75 591.12,-59.75 591.12,-20.38 591.12,-20.38 591.12,-17.96 618.41,-16 652,-16 685.59,-16 712.88,-17.96 712.88,-20.38 712.88,-20.38 712.88,-59.75 712.88,-59.75"/>
<path fill="none" stroke="#334155" stroke-width="1.4" d="M712.88,-59.75C712.88,-57.34 685.59,-55.38 652,-55.38 618.41,-55.38 591.12,-57.34 591.12,-59.75"/>
<text xml:space="preserve" text-anchor="middle" x="652" y="-43.11" font-family="sans-Serif" font-size="11.00" fill="#0f172a">extrospection.json</text>
<text xml:space="preserve" text-anchor="middle" x="652" y="-29.61" font-family="sans-Serif" font-size="11.00" fill="#0f172a">rf · web · observations</text>
</g>
<!-- SDR&#45;&gt;Extro -->
<g id="edge24" class="edge">
<title>SDR&#45;&gt;Extro</title>
<path fill="none" stroke="#f59e0b" stroke-width="1.3" d="M552.63,-156.01C572.67,-132.83 603.2,-97.51 625.13,-72.14"/>
<polygon fill="#f59e0b" stroke="#f59e0b" stroke-width="1.3" points="627.24,-73.99 630.35,-66.1 623,-70.32 627.24,-73.99"/>
</g>
<!-- Sessions -->
<g id="node27" class="node">
<title>Sessions</title>
<path fill="#fcd34d" stroke="#334155" stroke-width="1.4" d="M842.75,-54.79C842.75,-56.6 822.69,-58.06 798,-58.06 773.31,-58.06 753.25,-56.6 753.25,-54.79 753.25,-54.79 753.25,-25.34 753.25,-25.34 753.25,-23.53 773.31,-22.06 798,-22.06 822.69,-22.06 842.75,-23.53 842.75,-25.34 842.75,-25.34 842.75,-54.79 842.75,-54.79"/>
<path fill="none" stroke="#334155" stroke-width="1.4" d="M842.75,-54.79C842.75,-52.98 822.69,-51.52 798,-51.52 773.31,-51.52 753.25,-52.98 753.25,-54.79"/>
<text xml:space="preserve" text-anchor="middle" x="798" y="-36.36" font-family="sans-Serif" font-size="11.00" fill="#0f172a">sessions/*.jsonl</text>
</g>
<!-- Chain&#45;&gt;Sessions -->
<g id="edge25" class="edge">
<title>Chain&#45;&gt;Sessions</title>
<path fill="none" stroke="#f59e0b" stroke-width="1.3" d="M686.21,-162.29C708.81,-137.78 749.89,-93.24 775.46,-65.51"/>
<polygon fill="#f59e0b" stroke="#f59e0b" stroke-width="1.3" points="777.22,-67.73 780.59,-59.95 773.1,-63.93 777.22,-67.73"/>
</g>
<!-- SwarmB -->
<g id="node28" class="node">
<title>SwarmB</title>
<path fill="#fcd34d" stroke="#334155" stroke-width="1.4" d="M983.38,-54.79C983.38,-56.6 960.8,-58.06 933,-58.06 905.2,-58.06 882.62,-56.6 882.62,-54.79 882.62,-54.79 882.62,-25.34 882.62,-25.34 882.62,-23.53 905.2,-22.06 933,-22.06 960.8,-22.06 983.38,-23.53 983.38,-25.34 983.38,-25.34 983.38,-54.79 983.38,-54.79"/>
<path fill="none" stroke="#334155" stroke-width="1.4" d="M983.38,-54.79C983.38,-52.98 960.8,-51.52 933,-51.52 905.2,-51.52 882.62,-52.98 882.62,-54.79"/>
<text xml:space="preserve" text-anchor="middle" x="933" y="-36.36" font-family="sans-Serif" font-size="11.00" fill="#0f172a">swarm/*/bus.jsonl</text>
</g>
<!-- Bounty&#45;&gt;SwarmB -->
<g id="edge26" class="edge">
<title>Bounty&#45;&gt;SwarmB</title>
<path fill="none" stroke="#f59e0b" stroke-width="1.3" d="M806.36,-162.29C832.08,-137.68 878.9,-92.86 907.84,-65.15"/>
<polygon fill="#f59e0b" stroke="#f59e0b" stroke-width="1.3" points="909.52,-67.42 913.36,-59.86 905.65,-63.37 909.52,-67.42"/>
</g>
<!-- Reports&#45;&gt;User -->
<g id="edge31" class="edge">
<title>Reports&#45;&gt;User</title>
<path fill="none" stroke="#38bdf8" stroke-width="2" d="M922.82,-199.45C931.67,-213.88 945.89,-233.93 963,-246.62 971.02,-252.58 976.87,-247.64 984,-254.62 1029.6,-299.3 1032.31,-340.94 1002,-397.12 879.98,-623.32 704.79,-523.13 456,-587.62 445.5,-590.35 434.48,-593.87 423.99,-597.57"/>
<polygon fill="#38bdf8" stroke="#38bdf8" stroke-width="2" points="423.13,-594.91 416.56,-600.27 425.04,-600.17 423.13,-594.91"/>
<text xml:space="preserve" text-anchor="middle" x="1012.46" y="-407.07" font-family="sans-Serif" font-size="9.00" fill="#cbd5e1">findings</text>
</g>
<!-- CronF -->
<g id="node29" class="node">
<title>CronF</title>
<path fill="#fcd34d" stroke="#334155" stroke-width="1.4" d="M1102.5,-54.79C1102.5,-56.6 1084.8,-58.06 1063,-58.06 1041.2,-58.06 1023.5,-56.6 1023.5,-54.79 1023.5,-54.79 1023.5,-25.34 1023.5,-25.34 1023.5,-23.53 1041.2,-22.06 1063,-22.06 1084.8,-22.06 1102.5,-23.53 1102.5,-25.34 1102.5,-25.34 1102.5,-54.79 1102.5,-54.79"/>
<path fill="none" stroke="#334155" stroke-width="1.4" d="M1102.5,-54.79C1102.5,-52.98 1084.8,-51.52 1063,-51.52 1041.2,-51.52 1023.5,-52.98 1023.5,-54.79"/>
<text xml:space="preserve" text-anchor="middle" x="1063" y="-36.36" font-family="sans-Serif" font-size="11.00" fill="#0f172a">cron/jobs.yml</text>
</g>
<!-- Reports&#45;&gt;CronF -->
<g id="edge27" class="edge">
<title>Reports&#45;&gt;CronF</title>
<path fill="none" stroke="#f59e0b" stroke-width="1.3" d="M935.89,-162.36C954.51,-147.79 981.19,-126.19 1003,-105.62 1016.28,-93.11 1030.2,-78.24 1041.29,-65.93"/>
<polygon fill="#f59e0b" stroke="#f59e0b" stroke-width="1.3" points="1043.25,-67.94 1046.49,-60.11 1039.08,-64.22 1043.25,-67.94"/>
</g>
</g>
</svg>
