<?xml version="1.0" encoding="UTF-8" standalone="no"?>
<!DOCTYPE svg PUBLIC "-//W3C//DTD SVG 1.1//EN"
 "http://www.w3.org/Graphics/SVG/1.1/DTD/svg11.dtd">
<!-- Generated by graphviz version 14.1.2 (0)
 -->
<!-- Title: PWN Overall Architecture Pages: 1 -->
<svg width="596pt" height="473pt"
 viewBox="0.00 0.00 596.00 473.00" xmlns="http://www.w3.org/2000/svg" xmlns:xlink="http://www.w3.org/1999/xlink">
<g id="graph0" class="graph" transform="scale(1 1) rotate(0) translate(4 469.4)">
<title>PWN Overall Architecture</title>
<polygon fill="white" stroke="none" points="-4,4 -4,-469.4 592.25,-469.4 592.25,4 -4,4"/>
<g id="clust1" class="cluster">
<title>cluster_core</title>
<polygon fill="none" stroke="darkblue" points="82,-65 82,-166 559,-166 559,-65 82,-65"/>
<text xml:space="preserve" text-anchor="middle" x="320.5" y="-148.7" font-family="Times,serif" font-size="14.00">Core PWN</text>
</g>
<g id="clust2" class="cluster">
<title>cluster_persistent</title>
<polygon fill="none" stroke="darkgreen" points="8,-290.83 8,-457.4 291,-457.4 291,-290.83 8,-290.83"/>
<text xml:space="preserve" text-anchor="middle" x="149.5" y="-440.1" font-family="Times,serif" font-size="14.00">Persistent Layer</text>
</g>
<!-- User -->
<g id="node1" class="node">
<title>User</title>
<path fill="none" stroke="black" d="M411.12,-422.96C411.12,-422.96 332.88,-422.96 332.88,-422.96 326.88,-422.96 320.88,-416.96 320.88,-410.96 320.88,-410.96 320.88,-398.96 320.88,-398.96 320.88,-392.96 326.88,-386.96 332.88,-386.96 332.88,-386.96 411.12,-386.96 411.12,-386.96 417.12,-386.96 423.12,-392.96 423.12,-398.96 423.12,-398.96 423.12,-410.96 423.12,-410.96 423.12,-416.96 417.12,-422.96 411.12,-422.96"/>
<text xml:space="preserve" text-anchor="middle" x="372" y="-406.91" font-family="Arial" font-size="9.00">End User</text>
<text xml:space="preserve" text-anchor="middle" x="372" y="-396.41" font-family="Arial" font-size="9.00">(Researcher, pwn&#45;ai)</text>
</g>
<!-- REPL -->
<g id="node2" class="node">
<title>REPL</title>
<ellipse fill="lightgreen" stroke="black" cx="361" cy="-318.77" rx="44.72" ry="20.51"/>
<text xml:space="preserve" text-anchor="middle" x="361" y="-320.72" font-family="Arial" font-size="9.00">PWN REPL</text>
<text xml:space="preserve" text-anchor="middle" x="361" y="-310.22" font-family="Arial" font-size="9.00">(pry + pwn)</text>
</g>
<!-- User&#45;&gt;REPL -->
<g id="edge1" class="edge">
<title>User&#45;&gt;REPL</title>
<path fill="none" stroke="black" d="M369.72,-386.52C368.37,-376.15 366.61,-362.71 365.03,-350.6"/>
<polygon fill="black" stroke="black" points="368.55,-350.51 363.78,-341.05 361.61,-351.42 368.55,-350.51"/>
<text xml:space="preserve" text-anchor="middle" x="390.03" y="-359.42" font-family="Arial" font-size="8.00">pwn / pwn&#45;ai</text>
</g>
<!-- AI -->
<g id="node3" class="node">
<title>AI</title>
<ellipse fill="lightblue" stroke="black" cx="173" cy="-232.01" rx="67" ry="20.51"/>
<text xml:space="preserve" text-anchor="middle" x="173" y="-233.96" font-family="Arial" font-size="9.00">PWN::AI</text>
<text xml:space="preserve" text-anchor="middle" x="173" y="-223.46" font-family="Arial" font-size="9.00">(Agent + Providers)</text>
</g>
<!-- REPL&#45;&gt;AI -->
<g id="edge2" class="edge">
<title>REPL&#45;&gt;AI</title>
<path fill="none" stroke="black" d="M330.68,-303.46C319.66,-298.78 306.97,-293.98 295,-290.83 259.25,-281.42 244.92,-298.02 212.5,-280.26 204.32,-275.78 197.13,-268.88 191.21,-261.71"/>
<polygon fill="black" stroke="black" points="194.12,-259.76 185.31,-253.87 188.53,-263.97 194.12,-259.76"/>
<text xml:space="preserve" text-anchor="middle" x="237.25" y="-272.66" font-family="Arial" font-size="8.00">launch pwn&#45;ai</text>
</g>
<!-- Plugins -->
<g id="node4" class="node">
<title>Plugins</title>
<path fill="none" stroke="black" d="M187.5,-133.5C187.5,-133.5 102.5,-133.5 102.5,-133.5 96.5,-133.5 90.5,-127.5 90.5,-121.5 90.5,-121.5 90.5,-85 90.5,-85 90.5,-79 96.5,-73 102.5,-73 102.5,-73 187.5,-73 187.5,-73 193.5,-73 199.5,-79 199.5,-85 199.5,-85 199.5,-121.5 199.5,-121.5 199.5,-127.5 193.5,-133.5 187.5,-133.5"/>
<text xml:space="preserve" text-anchor="middle" x="145" y="-120.95" font-family="Arial" font-size="9.00">PWN::Plugins</text>
<text xml:space="preserve" text-anchor="middle" x="145" y="-110.45" font-family="Arial" font-size="9.00">(67+ modules:</text>
<text xml:space="preserve" text-anchor="middle" x="145" y="-99.95" font-family="Arial" font-size="9.00">Burp, NmapIt,</text>
<text xml:space="preserve" text-anchor="middle" x="145" y="-89.45" font-family="Arial" font-size="9.00">Metasploit, Fuzz,</text>
<text xml:space="preserve" text-anchor="middle" x="145" y="-78.95" font-family="Arial" font-size="9.00">TransparentBrowser...)</text>
</g>
<!-- REPL&#45;&gt;Plugins -->
<g id="edge3" class="edge">
<title>REPL&#45;&gt;Plugins</title>
<path fill="none" stroke="black" d="M331.97,-302.94C313,-291.7 289.34,-274.45 276,-252.51 257.59,-222.23 287.39,-198.73 262,-174 244.93,-157.38 230.36,-176.55 209,-166 197.11,-160.13 186,-151.25 176.48,-142.05"/>
<polygon fill="black" stroke="black" points="179.1,-139.72 169.61,-135.02 174.1,-144.61 179.1,-139.72"/>
<text xml:space="preserve" text-anchor="middle" x="304.5" y="-229.28" font-family="Arial" font-size="8.00">direct invocation</text>
</g>
<!-- SAST -->
<g id="node5" class="node">
<title>SAST</title>
<path fill="none" stroke="black" d="M454.38,-121.25C454.38,-121.25 413.62,-121.25 413.62,-121.25 407.62,-121.25 401.62,-115.25 401.62,-109.25 401.62,-109.25 401.62,-97.25 401.62,-97.25 401.62,-91.25 407.62,-85.25 413.62,-85.25 413.62,-85.25 454.38,-85.25 454.38,-85.25 460.38,-85.25 466.38,-91.25 466.38,-97.25 466.38,-97.25 466.38,-109.25 466.38,-109.25 466.38,-115.25 460.38,-121.25 454.38,-121.25"/>
<text xml:space="preserve" text-anchor="middle" x="434" y="-99.95" font-family="Arial" font-size="9.00">PWN::SAST</text>
</g>
<!-- REPL&#45;&gt;SAST -->
<g id="edge4" class="edge">
<title>REPL&#45;&gt;SAST</title>
<path fill="none" stroke="black" d="M377.69,-299.32C382.22,-293.54 386.77,-286.93 390,-280.26 413.71,-231.37 425.45,-168.45 430.58,-132.61"/>
<polygon fill="black" stroke="black" points="434,-133.43 431.87,-123.05 427.06,-132.49 434,-133.43"/>
</g>
<!-- Reports -->
<g id="node6" class="node">
<title>Reports</title>
<path fill="none" stroke="black" d="M371.88,-121.25C371.88,-121.25 322.12,-121.25 322.12,-121.25 316.12,-121.25 310.12,-115.25 310.12,-109.25 310.12,-109.25 310.12,-97.25 310.12,-97.25 310.12,-91.25 316.12,-85.25 322.12,-85.25 322.12,-85.25 371.88,-85.25 371.88,-85.25 377.88,-85.25 383.88,-91.25 383.88,-97.25 383.88,-97.25 383.88,-109.25 383.88,-109.25 383.88,-115.25 377.88,-121.25 371.88,-121.25"/>
<text xml:space="preserve" text-anchor="middle" x="347" y="-99.95" font-family="Arial" font-size="9.00">PWN::Reports</text>
</g>
<!-- REPL&#45;&gt;Reports -->
<g id="edge5" class="edge">
<title>REPL&#45;&gt;Reports</title>
<path fill="none" stroke="black" d="M369.77,-298.29C371.92,-292.59 373.91,-286.28 375,-280.26 383.39,-233.79 383.96,-220.37 375,-174 372.22,-159.63 366.51,-144.47 360.96,-131.96"/>
<polygon fill="black" stroke="black" points="364.23,-130.7 356.84,-123.11 357.89,-133.66 364.23,-130.7"/>
</g>
<!-- Driver -->
<g id="node7" class="node">
<title>Driver</title>
<path fill="none" stroke="black" d="M539.12,-121.25C539.12,-121.25 496.88,-121.25 496.88,-121.25 490.88,-121.25 484.88,-115.25 484.88,-109.25 484.88,-109.25 484.88,-97.25 484.88,-97.25 484.88,-91.25 490.88,-85.25 496.88,-85.25 496.88,-85.25 539.12,-85.25 539.12,-85.25 545.12,-85.25 551.12,-91.25 551.12,-97.25 551.12,-97.25 551.12,-109.25 551.12,-109.25 551.12,-115.25 545.12,-121.25 539.12,-121.25"/>
<text xml:space="preserve" text-anchor="middle" x="518" y="-99.95" font-family="Arial" font-size="9.00">PWN::Driver</text>
</g>
<!-- REPL&#45;&gt;Driver -->
<g id="edge6" class="edge">
<title>REPL&#45;&gt;Driver</title>
<path fill="none" stroke="black" d="M383.74,-301.1C391.28,-295 399.42,-287.75 406,-280.26 447.91,-232.61 484.91,-167.74 504.1,-131.54"/>
<polygon fill="black" stroke="black" points="507.01,-133.53 508.54,-123.04 500.81,-130.28 507.01,-133.53"/>
</g>
<!-- Memory -->
<g id="node8" class="node">
<title>Memory</title>
<path fill="none" stroke="black" d="M280.25,-121.25C280.25,-121.25 229.75,-121.25 229.75,-121.25 223.75,-121.25 217.75,-115.25 217.75,-109.25 217.75,-109.25 217.75,-97.25 217.75,-97.25 217.75,-91.25 223.75,-85.25 229.75,-85.25 229.75,-85.25 280.25,-85.25 280.25,-85.25 286.25,-85.25 292.25,-91.25 292.25,-97.25 292.25,-97.25 292.25,-109.25 292.25,-109.25 292.25,-115.25 286.25,-121.25 280.25,-121.25"/>
<text xml:space="preserve" text-anchor="middle" x="255" y="-99.95" font-family="Arial" font-size="9.00">PWN::Memory</text>
</g>
<!-- REPL&#45;&gt;Memory -->
<g id="edge9" class="edge">
<title>REPL&#45;&gt;Memory</title>
<path fill="none" stroke="black" d="M359.21,-298.1C356.61,-276.1 350.54,-239.83 337,-211.5 325.88,-188.23 316.7,-186.45 301,-166 292.18,-154.52 282.6,-141.7 274.47,-130.73"/>
<polygon fill="black" stroke="black" points="277.41,-128.83 268.65,-122.87 271.78,-132.99 277.41,-128.83"/>
</g>
<!-- BinDrivers -->
<g id="node13" class="node">
<title>BinDrivers</title>
<path fill="none" stroke="black" d="M576.25,-36C576.25,-36 519.75,-36 519.75,-36 513.75,-36 507.75,-30 507.75,-24 507.75,-24 507.75,-12 507.75,-12 507.75,-6 513.75,0 519.75,0 519.75,0 576.25,0 576.25,0 582.25,0 588.25,-6 588.25,-12 588.25,-12 588.25,-24 588.25,-24 588.25,-30 582.25,-36 576.25,-36"/>
<text xml:space="preserve" text-anchor="middle" x="548" y="-19.95" font-family="Arial" font-size="9.00">/opt/pwn/bin/</text>
<text xml:space="preserve" text-anchor="middle" x="548" y="-9.45" font-family="Arial" font-size="9.00">(Drivers &amp; CLIs)</text>
</g>
<!-- REPL&#45;&gt;BinDrivers -->
<g id="edge10" class="edge">
<title>REPL&#45;&gt;BinDrivers</title>
<path fill="none" stroke="black" d="M394.13,-304.81C442.17,-283.94 529.12,-237.81 563,-166 581.05,-127.73 569.62,-77.76 559.2,-47.05"/>
<polygon fill="black" stroke="black" points="562.52,-45.93 555.83,-37.71 555.93,-48.3 562.52,-45.93"/>
</g>
<!-- AI&#45;&gt;Plugins -->
<g id="edge7" class="edge">
<title>AI&#45;&gt;Plugins</title>
<path fill="none" stroke="black" d="M156.11,-212C152.11,-206.41 148.39,-200.04 146.25,-193.5 141.25,-178.25 140.09,-160.72 140.48,-145.26"/>
<polygon fill="black" stroke="black" points="143.97,-145.59 140.97,-135.43 136.98,-145.24 143.97,-145.59"/>
<text xml:space="preserve" text-anchor="middle" x="163.12" y="-185.9" font-family="Arial" font-size="8.00">tool calls</text>
<text xml:space="preserve" text-anchor="middle" x="163.12" y="-176.15" font-family="Arial" font-size="8.00">pwn_eval</text>
</g>
<!-- AI&#45;&gt;Memory -->
<g id="edge8" class="edge">
<title>AI&#45;&gt;Memory</title>
<path fill="none" stroke="black" d="M185.63,-211.48C199.55,-189.97 222.02,-155.24 237.59,-131.16"/>
<polygon fill="black" stroke="black" points="240.49,-133.13 242.98,-122.83 234.61,-129.32 240.49,-133.13"/>
<text xml:space="preserve" text-anchor="middle" x="238.34" y="-181.03" font-family="Arial" font-size="8.00">remember/recall</text>
</g>
<!-- Learn -->
<g id="node12" class="node">
<title>Learn</title>
<path fill="none" stroke="black" d="M106.12,-421.27C106.12,-423.27 85.9,-424.9 61,-424.9 36.1,-424.9 15.88,-423.27 15.88,-421.27 15.88,-421.27 15.88,-388.65 15.88,-388.65 15.88,-386.65 36.1,-385.02 61,-385.02 85.9,-385.02 106.12,-386.65 106.12,-388.65 106.12,-388.65 106.12,-421.27 106.12,-421.27"/>
<path fill="none" stroke="black" d="M106.12,-421.27C106.12,-419.27 85.9,-417.65 61,-417.65 36.1,-417.65 15.88,-419.27 15.88,-421.27"/>
<text xml:space="preserve" text-anchor="middle" x="61" y="-406.91" font-family="Arial" font-size="9.00">Learning</text>
<text xml:space="preserve" text-anchor="middle" x="61" y="-396.41" font-family="Arial" font-size="9.00">(Metrics + JSONL)</text>
</g>
<!-- AI&#45;&gt;Learn -->
<g id="edge13" class="edge">
<title>AI&#45;&gt;Learn</title>
<path fill="none" stroke="black" d="M171.47,-252.98C168.34,-281.33 158.93,-333.49 131,-367.02 126.77,-372.1 121.67,-376.57 116.16,-380.48"/>
<polygon fill="black" stroke="black" points="114.45,-377.43 107.88,-385.74 118.2,-383.33 114.45,-377.43"/>
<text xml:space="preserve" text-anchor="middle" x="182.2" y="-316.04" font-family="Arial" font-size="8.00">distill skills</text>
</g>
<!-- Plugins&#45;&gt;Learn -->
<g id="edge12" class="edge">
<title>Plugins&#45;&gt;Learn</title>
<path fill="none" stroke="black" d="M127.8,-133.6C116.56,-154.53 102.92,-183.77 97,-211.5 93.19,-229.33 94.08,-234.52 97,-252.51 98.35,-260.84 101.65,-262.19 103,-270.51 109.87,-312.85 120.68,-327.94 103,-367.02 101.48,-370.39 99.48,-373.56 97.19,-376.54"/>
<polygon fill="black" stroke="black" points="94.79,-373.98 90.61,-383.72 99.95,-378.71 94.79,-373.98"/>
</g>
<!-- Driver&#45;&gt;BinDrivers -->
<g id="edge11" class="edge">
<title>Driver&#45;&gt;BinDrivers</title>
<path fill="none" stroke="black" d="M524.22,-85C528.2,-73.95 533.46,-59.36 538.01,-46.71"/>
<polygon fill="black" stroke="black" points="541.18,-48.25 541.28,-37.65 534.6,-45.87 541.18,-48.25"/>
</g>
<!-- Skills -->
<g id="node9" class="node">
<title>Skills</title>
<path fill="none" stroke="black" d="M87.75,-335.08C87.75,-337.08 71.73,-338.71 52,-338.71 32.27,-338.71 16.25,-337.08 16.25,-335.08 16.25,-335.08 16.25,-302.46 16.25,-302.46 16.25,-300.46 32.27,-298.83 52,-298.83 71.73,-298.83 87.75,-300.46 87.75,-302.46 87.75,-302.46 87.75,-335.08 87.75,-335.08"/>
<path fill="none" stroke="black" d="M87.75,-335.08C87.75,-333.08 71.73,-331.46 52,-331.46 32.27,-331.46 16.25,-333.08 16.25,-335.08"/>
<text xml:space="preserve" text-anchor="middle" x="52" y="-320.72" font-family="Arial" font-size="9.00">PWN::Skills</text>
<text xml:space="preserve" text-anchor="middle" x="52" y="-310.22" font-family="Arial" font-size="9.00">(~/.pwn/skills)</text>
</g>
<!-- Skills&#45;&gt;REPL -->
<g id="edge16" class="edge">
<title>Skills&#45;&gt;REPL</title>
<path fill="none" stroke="black" d="M85.29,-337.67C103.73,-347.05 127.43,-357.38 150,-362.15 209.14,-374.65 227.62,-377.82 286,-362.15 300.79,-358.18 315.67,-350.51 328.24,-342.71"/>
<polygon fill="black" stroke="black" points="330.04,-345.71 336.51,-337.32 326.22,-339.85 330.04,-345.71"/>
</g>
<!-- Skills&#45;&gt;AI -->
<g id="edge15" class="edge">
<title>Skills&#45;&gt;AI</title>
<path fill="none" stroke="black" d="M65.51,-298.57C72.79,-289.23 82.39,-278.36 92.75,-270.51 101.39,-263.97 111.36,-258.18 121.27,-253.23"/>
<polygon fill="black" stroke="black" points="122.61,-256.47 130.15,-249.03 119.62,-250.14 122.61,-256.47"/>
<text xml:space="preserve" text-anchor="middle" x="120.88" y="-272.66" font-family="Arial" font-size="8.00">context injection</text>
</g>
<!-- Sess -->
<g id="node10" class="node">
<title>Sess</title>
<path fill="none" stroke="black" d="M203.5,-419.69C203.5,-421.49 185.8,-422.96 164,-422.96 142.2,-422.96 124.5,-421.49 124.5,-419.69 124.5,-419.69 124.5,-390.23 124.5,-390.23 124.5,-388.43 142.2,-386.96 164,-386.96 185.8,-386.96 203.5,-388.43 203.5,-390.23 203.5,-390.23 203.5,-419.69 203.5,-419.69"/>
<path fill="none" stroke="black" d="M203.5,-419.69C203.5,-417.88 185.8,-416.42 164,-416.42 142.2,-416.42 124.5,-417.88 124.5,-419.69"/>
<text xml:space="preserve" text-anchor="middle" x="164" y="-401.66" font-family="Arial" font-size="9.00">PWN::Sessions</text>
</g>
<!-- Sess&#45;&gt;REPL -->
<g id="edge18" class="edge">
<title>Sess&#45;&gt;REPL</title>
<path fill="none" stroke="black" d="M180.75,-386.54C191.22,-376.59 205.5,-364.67 220.25,-357.27 250.8,-341.97 261.99,-348.12 295,-339.27 300.99,-337.67 307.26,-335.91 313.45,-334.14"/>
<polygon fill="black" stroke="black" points="314.36,-337.52 322.99,-331.36 312.41,-330.8 314.36,-337.52"/>
<text xml:space="preserve" text-anchor="middle" x="243.12" y="-359.42" font-family="Arial" font-size="8.00">replay / audit</text>
</g>
<!-- Cron -->
<g id="node11" class="node">
<title>Cron</title>
<path fill="none" stroke="black" d="M282.88,-419.69C282.88,-421.49 269.04,-422.96 252,-422.96 234.96,-422.96 221.12,-421.49 221.12,-419.69 221.12,-419.69 221.12,-390.23 221.12,-390.23 221.12,-388.43 234.96,-386.96 252,-386.96 269.04,-386.96 282.88,-388.43 282.88,-390.23 282.88,-390.23 282.88,-419.69 282.88,-419.69"/>
<path fill="none" stroke="black" d="M282.88,-419.69C282.88,-417.88 269.04,-416.42 252,-416.42 234.96,-416.42 221.12,-417.88 221.12,-419.69"/>
<text xml:space="preserve" text-anchor="middle" x="252" y="-401.66" font-family="Arial" font-size="9.00">PWN::Cron</text>
</g>
<!-- Cron&#45;&gt;REPL -->
<g id="edge17" class="edge">
<title>Cron&#45;&gt;REPL</title>
<path fill="none" stroke="black" d="M258.44,-386.65C262.76,-376.98 269.26,-365.31 278,-357.27 288.18,-347.91 301.1,-340.56 313.7,-334.95"/>
<polygon fill="black" stroke="black" points="314.83,-338.27 322.73,-331.22 312.16,-331.8 314.83,-338.27"/>
<text xml:space="preserve" text-anchor="middle" x="320" y="-359.42" font-family="Arial" font-size="8.00">schedule drivers/agents</text>
</g>
<!-- Learn&#45;&gt;Skills -->
<g id="edge14" class="edge">
<title>Learn&#45;&gt;Skills</title>
<path fill="none" stroke="black" d="M44.09,-384.87C40.28,-379.46 36.76,-373.32 34.75,-367.02 32.94,-361.35 33.32,-355.34 34.85,-349.58"/>
<polygon fill="black" stroke="black" points="38.07,-350.96 38.4,-340.37 31.54,-348.44 38.07,-350.96"/>
<text xml:space="preserve" text-anchor="middle" x="68.88" y="-359.42" font-family="Arial" font-size="8.00">promote successful</text>
</g>
</g>
</svg>
