<?xml version="1.0" encoding="UTF-8" standalone="no"?>
<!DOCTYPE svg PUBLIC "-//W3C//DTD SVG 1.1//EN"
 "http://www.w3.org/Graphics/SVG/1.1/DTD/svg11.dtd">
<!-- Generated by graphviz version 14.1.2 (0)
 -->
<!-- Title: PWN_Overall_Architecture Pages: 1 -->
<svg width="1456pt" height="821pt"
 viewBox="0.00 0.00 1456.00 821.00" xmlns="http://www.w3.org/2000/svg" xmlns:xlink="http://www.w3.org/1999/xlink">
<g id="graph0" class="graph" transform="scale(1 1) rotate(0) translate(43.2 777.83)">
<title>PWN_Overall_Architecture</title>
<polygon fill="#0f172a" stroke="none" points="-43.2,43.2 -43.2,-777.83 1413.2,-777.83 1413.2,43.2 -43.2,43.2"/>
<text xml:space="preserve" text-anchor="start" x="421" y="-710.73" font-family="sans-Serif" font-weight="bold" font-size="22.00" fill="#e2e8f0">PWN — Offensive Security Automation Framework</text>
<text xml:space="preserve" text-anchor="start" x="613" y="-699.18" font-family="sans-Serif" font-size="11.00" fill="#94a3b8">Overall Architecture · lib/pwn/*</text>
<g id="clust1" class="cluster">
<title>cluster_actors</title>
<path fill="#1e293b" stroke="#334155" stroke-dasharray="5,2" d="M430,-587.62C430,-587.62 1015,-587.62 1015,-587.62 1021,-587.62 1027,-593.62 1027,-599.62 1027,-599.62 1027,-673.62 1027,-673.62 1027,-679.62 1021,-685.62 1015,-685.62 1015,-685.62 430,-685.62 430,-685.62 424,-685.62 418,-679.62 418,-673.62 418,-673.62 418,-599.62 418,-599.62 418,-593.62 424,-587.62 430,-587.62"/>
<text xml:space="preserve" text-anchor="middle" x="722.5" y="-660.73" font-family="sans-Serif" font-size="22.00" fill="#94a3b8">Actors</text>
</g>
<g id="clust3" class="cluster">
<title>cluster_entry</title>
<path fill="#0c4a6e" stroke="#0369a1" stroke-width="2" d="M296,-449.62C296,-449.62 814,-449.62 814,-449.62 820,-449.62 826,-455.62 826,-461.62 826,-461.62 826,-523.12 826,-523.12 826,-529.12 820,-535.12 814,-535.12 814,-535.12 296,-535.12 296,-535.12 290,-535.12 284,-529.12 284,-523.12 284,-523.12 284,-461.62 284,-461.62 284,-455.62 290,-449.62 296,-449.62"/>
<text xml:space="preserve" text-anchor="middle" x="555" y="-510.23" font-family="sans-Serif" font-size="22.00" fill="#7dd3fc">Entry Points &#160;(bin/)</text>
</g>
<g id="clust5" class="cluster">
<title>cluster_agent</title>
<path fill="#2e1065" stroke="#6d28d9" stroke-width="2" d="M273,-299.12C273,-299.12 961,-299.12 961,-299.12 967,-299.12 973,-305.12 973,-311.12 973,-311.12 973,-385.12 973,-385.12 973,-391.12 967,-397.12 961,-397.12 961,-397.12 273,-397.12 273,-397.12 267,-397.12 261,-391.12 261,-385.12 261,-385.12 261,-311.12 261,-311.12 261,-305.12 267,-299.12 273,-299.12"/>
<text xml:space="preserve" text-anchor="middle" x="617" y="-372.23" font-family="sans-Serif" font-size="22.00" fill="#ddd6fe">PWN::AI::Agent</text>
</g>
<g id="clust7" class="cluster">
<title>cluster_caps</title>
<path fill="#022c22" stroke="#047857" stroke-width="2" d="M159,-148.62C159,-148.62 1076,-148.62 1076,-148.62 1082,-148.62 1088,-154.62 1088,-160.62 1088,-160.62 1088,-234.62 1088,-234.62 1088,-240.62 1082,-246.62 1076,-246.62 1076,-246.62 159,-246.62 159,-246.62 153,-246.62 147,-240.62 147,-234.62 147,-234.62 147,-160.62 147,-160.62 147,-154.62 153,-148.62 159,-148.62"/>
<text xml:space="preserve" text-anchor="middle" x="617.5" y="-221.72" font-family="sans-Serif" font-size="22.00" fill="#a7f3d0">Capability Namespaces &#160;(lib/pwn/*)</text>
</g>
<g id="clust9" class="cluster">
<title>cluster_persist</title>
<path fill="#422006" stroke="#a16207" stroke-width="2" d="M20,-8C20,-8 1350,-8 1350,-8 1356,-8 1362,-14 1362,-20 1362,-20 1362,-93.62 1362,-93.62 1362,-99.62 1356,-105.62 1350,-105.62 1350,-105.62 20,-105.62 20,-105.62 14,-105.62 8,-99.62 8,-93.62 8,-93.62 8,-20 8,-20 8,-14 14,-8 20,-8"/>
<text xml:space="preserve" text-anchor="middle" x="685" y="-80.72" font-family="sans-Serif" font-size="22.00" fill="#fde68a">Persistence &#160;~/.pwn/</text>
</g>
<!-- User -->
<g id="node1" class="node">
<title>User</title>
<path fill="#7dd3fc" stroke="#334155" stroke-width="1.4" d="M544,-637.88C544,-637.88 438,-637.88 438,-637.88 432,-637.88 426,-631.88 426,-625.88 426,-625.88 426,-613.88 426,-613.88 426,-607.88 432,-601.88 438,-601.88 438,-601.88 544,-601.88 544,-601.88 550,-601.88 556,-607.88 556,-613.88 556,-613.88 556,-625.88 556,-625.88 556,-631.88 550,-637.88 544,-637.88"/>
<text xml:space="preserve" text-anchor="middle" x="491" y="-622.92" font-family="sans-Serif" font-size="11.00" fill="#0f172a">👤 &#160;Researcher</text>
<text xml:space="preserve" text-anchor="middle" x="491" y="-609.42" font-family="sans-Serif" font-size="11.00" fill="#0f172a">Red Team · Bug Hunter</text>
</g>
<!-- REPL -->
<g id="node5" class="node">
<title>REPL</title>
<path fill="#7dd3fc" stroke="#334155" stroke-width="1.4" d="M396.25,-493.62C396.25,-493.62 303.75,-493.62 303.75,-493.62 297.75,-493.62 291.75,-487.62 291.75,-481.62 291.75,-481.62 291.75,-469.62 291.75,-469.62 291.75,-463.62 297.75,-457.62 303.75,-457.62 303.75,-457.62 396.25,-457.62 396.25,-457.62 402.25,-457.62 408.25,-463.62 408.25,-469.62 408.25,-469.62 408.25,-481.62 408.25,-481.62 408.25,-487.62 402.25,-493.62 396.25,-493.62"/>
<text xml:space="preserve" text-anchor="middle" x="350" y="-478.68" font-family="sans-Serif" font-size="11.00" fill="#0f172a">🐚 &#160;pwn REPL</text>
<text xml:space="preserve" text-anchor="middle" x="350" y="-465.18" font-family="sans-Serif" font-size="11.00" fill="#0f172a">Pry + PWN:: preload</text>
</g>
<!-- User&#45;&gt;REPL -->
<g id="edge1" class="edge">
<title>User&#45;&gt;REPL</title>
<path fill="none" stroke="#38bdf8" stroke-width="1.3" d="M473.71,-601.43C448.76,-576.26 402.56,-529.65 374.23,-501.07"/>
<polygon fill="#38bdf8" stroke="#38bdf8" stroke-width="1.3" points="376.44,-499.32 368.82,-495.61 372.46,-503.26 376.44,-499.32"/>
</g>
<!-- PwnAI -->
<g id="node6" class="node">
<title>PwnAI</title>
<path fill="#7dd3fc" stroke="#334155" stroke-width="1.4" d="M549.75,-493.62C549.75,-493.62 460.25,-493.62 460.25,-493.62 454.25,-493.62 448.25,-487.62 448.25,-481.62 448.25,-481.62 448.25,-469.62 448.25,-469.62 448.25,-463.62 454.25,-457.62 460.25,-457.62 460.25,-457.62 549.75,-457.62 549.75,-457.62 555.75,-457.62 561.75,-463.62 561.75,-469.62 561.75,-469.62 561.75,-481.62 561.75,-481.62 561.75,-487.62 555.75,-493.62 549.75,-493.62"/>
<text xml:space="preserve" text-anchor="middle" x="505" y="-478.68" font-family="sans-Serif" font-size="11.00" fill="#0f172a">✨ &#160;pwn&#45;ai</text>
<text xml:space="preserve" text-anchor="middle" x="505" y="-465.18" font-family="sans-Serif" font-size="11.00" fill="#0f172a">Agent TUI · pwn &#45;&#45;ai</text>
</g>
<!-- User&#45;&gt;PwnAI -->
<g id="edge2" class="edge">
<title>User&#45;&gt;PwnAI</title>
<path fill="none" stroke="#38bdf8" stroke-width="1.3" d="M492.72,-601.43C495.11,-577.12 499.47,-532.79 502.3,-504.03"/>
<polygon fill="#38bdf8" stroke="#38bdf8" stroke-width="1.3" points="505.08,-504.4 503.08,-496.17 499.51,-503.86 505.08,-504.4"/>
</g>
<!-- CI -->
<g id="node2" class="node">
<title>CI</title>
<path fill="#7dd3fc" stroke="#334155" stroke-width="1.4" d="M690,-637.88C690,-637.88 608,-637.88 608,-637.88 602,-637.88 596,-631.88 596,-625.88 596,-625.88 596,-613.88 596,-613.88 596,-607.88 602,-601.88 608,-601.88 608,-601.88 690,-601.88 690,-601.88 696,-601.88 702,-607.88 702,-613.88 702,-613.88 702,-625.88 702,-625.88 702,-631.88 696,-637.88 690,-637.88"/>
<text xml:space="preserve" text-anchor="middle" x="649" y="-622.92" font-family="sans-Serif" font-size="11.00" fill="#0f172a">⚙️ &#160;CI / CD</text>
<text xml:space="preserve" text-anchor="middle" x="649" y="-609.42" font-family="sans-Serif" font-size="11.00" fill="#0f172a">Headless pipelines</text>
</g>
<!-- CLI -->
<g id="node7" class="node">
<title>CLI</title>
<path fill="#7dd3fc" stroke="#334155" stroke-width="1.4" d="M673.75,-493.62C673.75,-493.62 614.25,-493.62 614.25,-493.62 608.25,-493.62 602.25,-487.62 602.25,-481.62 602.25,-481.62 602.25,-469.62 602.25,-469.62 602.25,-463.62 608.25,-457.62 614.25,-457.62 614.25,-457.62 673.75,-457.62 673.75,-457.62 679.75,-457.62 685.75,-463.62 685.75,-469.62 685.75,-469.62 685.75,-481.62 685.75,-481.62 685.75,-487.62 679.75,-493.62 673.75,-493.62"/>
<text xml:space="preserve" text-anchor="middle" x="644" y="-478.68" font-family="sans-Serif" font-size="11.00" fill="#0f172a">📜 &#160;bin/pwn_*</text>
<text xml:space="preserve" text-anchor="middle" x="644" y="-465.18" font-family="sans-Serif" font-size="11.00" fill="#0f172a">52 CLI drivers</text>
</g>
<!-- CI&#45;&gt;CLI -->
<g id="edge3" class="edge">
<title>CI&#45;&gt;CLI</title>
<path fill="none" stroke="#38bdf8" stroke-width="1.3" d="M648.39,-601.43C647.53,-577.12 645.97,-532.79 644.96,-504.03"/>
<polygon fill="#38bdf8" stroke="#38bdf8" stroke-width="1.3" points="647.77,-504.07 644.69,-496.18 642.17,-504.27 647.77,-504.07"/>
</g>
<!-- Cronb -->
<g id="node8" class="node">
<title>Cronb</title>
<path fill="#7dd3fc" stroke="#334155" stroke-width="1.4" d="M805.88,-493.62C805.88,-493.62 738.12,-493.62 738.12,-493.62 732.12,-493.62 726.12,-487.62 726.12,-481.62 726.12,-481.62 726.12,-469.62 726.12,-469.62 726.12,-463.62 732.12,-457.62 738.12,-457.62 738.12,-457.62 805.88,-457.62 805.88,-457.62 811.88,-457.62 817.88,-463.62 817.88,-469.62 817.88,-469.62 817.88,-481.62 817.88,-481.62 817.88,-487.62 811.88,-493.62 805.88,-493.62"/>
<text xml:space="preserve" text-anchor="middle" x="772" y="-478.68" font-family="sans-Serif" font-size="11.00" fill="#0f172a">⏱ &#160;PWN::Cron</text>
<text xml:space="preserve" text-anchor="middle" x="772" y="-465.18" font-family="sans-Serif" font-size="11.00" fill="#0f172a">Scheduled jobs</text>
</g>
<!-- CI&#45;&gt;Cronb -->
<g id="edge4" class="edge">
<title>CI&#45;&gt;Cronb</title>
<path fill="none" stroke="#38bdf8" stroke-width="1.3" d="M664.08,-601.43C685.75,-576.37 725.81,-530.05 750.55,-501.43"/>
<polygon fill="#38bdf8" stroke="#38bdf8" stroke-width="1.3" points="752.39,-503.58 755.51,-495.7 748.16,-499.92 752.39,-503.58"/>
<text xml:space="preserve" text-anchor="middle" x="729.56" y="-545.08" font-family="sans-Serif" font-size="9.00" fill="#cbd5e1">crontab</text>
</g>
<!-- LLM -->
<g id="node3" class="node">
<title>LLM</title>
<path fill="#c4b5fd" stroke="#334155" stroke-width="1.4" d="M854.38,-644.12C854.38,-644.12 753.62,-644.12 753.62,-644.12 747.62,-644.12 741.62,-638.12 741.62,-632.12 741.62,-632.12 741.62,-607.62 741.62,-607.62 741.62,-601.62 747.62,-595.62 753.62,-595.62 753.62,-595.62 854.38,-595.62 854.38,-595.62 860.38,-595.62 866.38,-601.62 866.38,-607.62 866.38,-607.62 866.38,-632.12 866.38,-632.12 866.38,-638.12 860.38,-644.12 854.38,-644.12"/>
<text xml:space="preserve" text-anchor="middle" x="804" y="-629.67" font-family="sans-Serif" font-size="11.00" fill="#0f172a">🤖 &#160;LLM Providers</text>
<text xml:space="preserve" text-anchor="middle" x="804" y="-616.17" font-family="sans-Serif" font-size="11.00" fill="#0f172a">OpenAI · Anthropic</text>
<text xml:space="preserve" text-anchor="middle" x="804" y="-602.67" font-family="sans-Serif" font-size="11.00" fill="#0f172a">Grok · Gemini · Ollama</text>
</g>
<!-- Target -->
<g id="node4" class="node">
<title>Target</title>
<path fill="#fda4af" stroke="#334155" stroke-width="1.4" d="M1007.38,-644.12C1007.38,-644.12 918.62,-644.12 918.62,-644.12 912.62,-644.12 906.62,-638.12 906.62,-632.12 906.62,-632.12 906.62,-607.62 906.62,-607.62 906.62,-601.62 912.62,-595.62 918.62,-595.62 918.62,-595.62 1007.38,-595.62 1007.38,-595.62 1013.38,-595.62 1019.38,-601.62 1019.38,-607.62 1019.38,-607.62 1019.38,-632.12 1019.38,-632.12 1019.38,-638.12 1013.38,-644.12 1007.38,-644.12"/>
<text xml:space="preserve" text-anchor="middle" x="963" y="-629.67" font-family="sans-Serif" font-size="11.00" fill="#0f172a">🎯 &#160;Attack Surface</text>
<text xml:space="preserve" text-anchor="middle" x="963" y="-616.17" font-family="sans-Serif" font-size="11.00" fill="#0f172a">Hosts · Web · Cloud</text>
<text xml:space="preserve" text-anchor="middle" x="963" y="-602.67" font-family="sans-Serif" font-size="11.00" fill="#0f172a">Radio · Hardware</text>
</g>
<!-- Loop -->
<g id="node9" class="node">
<title>Loop</title>
<path fill="#c4b5fd" stroke="#334155" stroke-width="1.4" d="M382.75,-355.62C382.75,-355.62 281.25,-355.62 281.25,-355.62 275.25,-355.62 269.25,-349.62 269.25,-343.62 269.25,-343.62 269.25,-319.12 269.25,-319.12 269.25,-313.12 275.25,-307.12 281.25,-307.12 281.25,-307.12 382.75,-307.12 382.75,-307.12 388.75,-307.12 394.75,-313.12 394.75,-319.12 394.75,-319.12 394.75,-343.62 394.75,-343.62 394.75,-349.62 388.75,-355.62 382.75,-355.62"/>
<text xml:space="preserve" text-anchor="middle" x="332" y="-341.18" font-family="sans-Serif" font-size="11.00" fill="#0f172a">Loop</text>
<text xml:space="preserve" text-anchor="middle" x="332" y="-327.68" font-family="sans-Serif" font-size="11.00" fill="#0f172a">plan_first → dispatch</text>
<text xml:space="preserve" text-anchor="middle" x="332" y="-314.18" font-family="sans-Serif" font-size="11.00" fill="#0f172a">→ observe → escalate</text>
</g>
<!-- REPL&#45;&gt;Loop -->
<g id="edge5" class="edge">
<title>REPL&#45;&gt;Loop</title>
<path fill="none" stroke="#a78bfa" stroke-width="1.3" d="M347.79,-457.18C344.92,-434.49 339.84,-394.35 336.22,-365.72"/>
<polygon fill="#a78bfa" stroke="#a78bfa" stroke-width="1.3" points="339.03,-365.66 335.25,-358.08 333.48,-366.36 339.03,-365.66"/>
</g>
<!-- PwnAI&#45;&gt;Loop -->
<g id="edge6" class="edge">
<title>PwnAI&#45;&gt;Loop</title>
<path fill="none" stroke="#a78bfa" stroke-width="2" d="M480.12,-457.12C464.16,-445.67 443.15,-430.19 425.25,-415.62 404.66,-398.88 382.47,-379.14 364.9,-363.08"/>
<polygon fill="#a78bfa" stroke="#a78bfa" stroke-width="2" points="367.19,-361.39 359.41,-358.04 363.4,-365.51 367.19,-361.39"/>
<text xml:space="preserve" text-anchor="middle" x="460.12" y="-407.07" font-family="sans-Serif" font-size="9.00" fill="#cbd5e1">natural language</text>
</g>
<!-- Registry -->
<g id="node10" class="node">
<title>Registry</title>
<path fill="#c4b5fd" stroke="#334155" stroke-width="1.4" d="M562.88,-355.62C562.88,-355.62 447.12,-355.62 447.12,-355.62 441.12,-355.62 435.12,-349.62 435.12,-343.62 435.12,-343.62 435.12,-319.12 435.12,-319.12 435.12,-313.12 441.12,-307.12 447.12,-307.12 447.12,-307.12 562.88,-307.12 562.88,-307.12 568.88,-307.12 574.88,-313.12 574.88,-319.12 574.88,-319.12 574.88,-343.62 574.88,-343.62 574.88,-349.62 568.88,-355.62 562.88,-355.62"/>
<text xml:space="preserve" text-anchor="middle" x="505" y="-341.18" font-family="sans-Serif" font-size="11.00" fill="#0f172a">Registry</text>
<text xml:space="preserve" text-anchor="middle" x="505" y="-327.68" font-family="sans-Serif" font-size="11.00" fill="#0f172a">10 toolsets · 61 tools</text>
<text xml:space="preserve" text-anchor="middle" x="505" y="-314.18" font-family="sans-Serif" font-size="11.00" fill="#0f172a">tool_router (CORE+topK)</text>
</g>
<!-- PwnAI&#45;&gt;Registry -->
<g id="edge7" class="edge">
<title>PwnAI&#45;&gt;Registry</title>
<path fill="none" stroke="#a78bfa" stroke-width="1.3" d="M505,-457.18C505,-434.49 505,-394.35 505,-365.72"/>
<polygon fill="#a78bfa" stroke="#a78bfa" stroke-width="1.3" points="507.8,-366.09 505,-358.09 502.2,-366.09 507.8,-366.09"/>
</g>
<!-- Swarm -->
<g id="node11" class="node">
<title>Swarm</title>
<path fill="#c4b5fd" stroke="#334155" stroke-width="1.4" d="M731.25,-349.38C731.25,-349.38 626.75,-349.38 626.75,-349.38 620.75,-349.38 614.75,-343.38 614.75,-337.38 614.75,-337.38 614.75,-325.38 614.75,-325.38 614.75,-319.38 620.75,-313.38 626.75,-313.38 626.75,-313.38 731.25,-313.38 731.25,-313.38 737.25,-313.38 743.25,-319.38 743.25,-325.38 743.25,-325.38 743.25,-337.38 743.25,-337.38 743.25,-343.38 737.25,-349.38 731.25,-349.38"/>
<text xml:space="preserve" text-anchor="middle" x="679" y="-334.43" font-family="sans-Serif" font-size="11.00" fill="#0f172a">Swarm</text>
<text xml:space="preserve" text-anchor="middle" x="679" y="-320.93" font-family="sans-Serif" font-size="11.00" fill="#0f172a">personas · debate · bus</text>
</g>
<!-- CLI&#45;&gt;Swarm -->
<!-- Plugins -->
<g id="node13" class="node">
<title>Plugins</title>
<path fill="#6ee7b7" stroke="#334155" stroke-width="1.4" d="M214.75,-198.88C214.75,-198.88 167.25,-198.88 167.25,-198.88 161.25,-198.88 155.25,-192.88 155.25,-186.88 155.25,-186.88 155.25,-174.88 155.25,-174.88 155.25,-168.88 161.25,-162.88 167.25,-162.88 167.25,-162.88 214.75,-162.88 214.75,-162.88 220.75,-162.88 226.75,-168.88 226.75,-174.88 226.75,-174.88 226.75,-186.88 226.75,-186.88 226.75,-192.88 220.75,-198.88 214.75,-198.88"/>
<text xml:space="preserve" text-anchor="middle" x="191" y="-183.93" font-family="sans-Serif" font-size="11.00" fill="#0f172a">Plugins</text>
<text xml:space="preserve" text-anchor="middle" x="191" y="-170.43" font-family="sans-Serif" font-size="11.00" fill="#0f172a">66 modules</text>
</g>
<!-- CLI&#45;&gt;Plugins -->
<g id="edge18" class="edge">
<title>CLI&#45;&gt;Plugins</title>
<path fill="none" stroke="#34d399" stroke-width="1.3" d="M684.64,-456.98C691.68,-454.29 698.99,-451.71 706,-449.62 803.27,-420.63 830.01,-422.59 930,-405.12 941.73,-403.08 975.23,-406.15 983,-397.12 1011.41,-364.11 1012.68,-331 983,-299.12 969.03,-284.13 265.32,-255.81 247,-246.62 229.78,-238 215.65,-221.52 205.89,-207.34"/>
<polygon fill="#34d399" stroke="#34d399" stroke-width="1.3" points="208.45,-206.15 201.73,-200.99 203.77,-209.21 208.45,-206.15"/>
</g>
<!-- Prompt -->
<g id="node12" class="node">
<title>Prompt</title>
<path fill="#c4b5fd" stroke="#334155" stroke-width="1.4" d="M952.88,-355.62C952.88,-355.62 795.12,-355.62 795.12,-355.62 789.12,-355.62 783.12,-349.62 783.12,-343.62 783.12,-343.62 783.12,-319.12 783.12,-319.12 783.12,-313.12 789.12,-307.12 795.12,-307.12 795.12,-307.12 952.88,-307.12 952.88,-307.12 958.88,-307.12 964.88,-313.12 964.88,-319.12 964.88,-319.12 964.88,-343.62 964.88,-343.62 964.88,-349.62 958.88,-355.62 952.88,-355.62"/>
<text xml:space="preserve" text-anchor="middle" x="874" y="-341.18" font-family="sans-Serif" font-size="11.00" fill="#0f172a">PromptBuilder</text>
<text xml:space="preserve" text-anchor="middle" x="874" y="-327.68" font-family="sans-Serif" font-size="11.00" fill="#0f172a">engine&#45;budgeted blocks</text>
<text xml:space="preserve" text-anchor="middle" x="874" y="-314.18" font-family="sans-Serif" font-size="11.00" fill="#0f172a">MemoryIndex → relevance&#45;ranked</text>
</g>
<!-- Cronb&#45;&gt;Prompt -->
<!-- Loop&#45;&gt;LLM -->
<g id="edge28" class="edge">
<title>Loop&#45;&gt;LLM</title>
<path fill="none" stroke="#c4b5fd" stroke-width="2" d="M354.72,-356.03C370.22,-370.56 392.05,-388.07 415,-397.12 452.36,-411.86 465.09,-400.67 505,-405.12 578.76,-413.36 787.14,-393.76 836,-449.62 868.98,-487.34 845.09,-548.17 824.64,-585.72"/>
<polygon fill="#c4b5fd" stroke="#c4b5fd" stroke-width="2" points="822.27,-584.21 820.77,-592.56 827.15,-586.97 822.27,-584.21"/>
<text xml:space="preserve" text-anchor="middle" x="877.07" y="-472.32" font-family="sans-Serif" font-size="9.00" fill="#cbd5e1">tool&#45;use API</text>
</g>
<!-- Loop&#45;&gt;Plugins -->
<g id="edge10" class="edge">
<title>Loop&#45;&gt;Plugins</title>
<path fill="none" stroke="#34d399" stroke-width="2" d="M305.67,-306.44C292.64,-294.33 276.83,-279.24 263.25,-265.12 255.66,-257.24 254.19,-254.87 247,-246.62 235.84,-233.82 223.49,-219.55 213.23,-207.67"/>
<polygon fill="#34d399" stroke="#34d399" stroke-width="2" points="215.5,-206.01 208.15,-201.79 211.26,-209.67 215.5,-206.01"/>
<text xml:space="preserve" text-anchor="middle" x="283.12" y="-256.57" font-family="sans-Serif" font-size="9.00" fill="#cbd5e1">pwn_eval</text>
</g>
<!-- SAST -->
<g id="node14" class="node">
<title>SAST</title>
<path fill="#6ee7b7" stroke="#334155" stroke-width="1.4" d="M309.12,-198.88C309.12,-198.88 278.88,-198.88 278.88,-198.88 272.88,-198.88 266.88,-192.88 266.88,-186.88 266.88,-186.88 266.88,-174.88 266.88,-174.88 266.88,-168.88 272.88,-162.88 278.88,-162.88 278.88,-162.88 309.12,-162.88 309.12,-162.88 315.12,-162.88 321.12,-168.88 321.12,-174.88 321.12,-174.88 321.12,-186.88 321.12,-186.88 321.12,-192.88 315.12,-198.88 309.12,-198.88"/>
<text xml:space="preserve" text-anchor="middle" x="294" y="-183.93" font-family="sans-Serif" font-size="11.00" fill="#0f172a">SAST</text>
<text xml:space="preserve" text-anchor="middle" x="294" y="-170.43" font-family="sans-Serif" font-size="11.00" fill="#0f172a">48 rules</text>
</g>
<!-- Loop&#45;&gt;SAST -->
<g id="edge11" class="edge">
<title>Loop&#45;&gt;SAST</title>
<path fill="none" stroke="#34d399" stroke-width="1.3" d="M325.89,-306.52C319.06,-279.79 308,-236.57 300.86,-208.7"/>
<polygon fill="#34d399" stroke="#34d399" stroke-width="1.3" points="303.61,-208.14 298.92,-201.09 298.19,-209.53 303.61,-208.14"/>
</g>
<!-- WWW -->
<g id="node15" class="node">
<title>WWW</title>
<path fill="#6ee7b7" stroke="#334155" stroke-width="1.4" d="M432.38,-198.88C432.38,-198.88 373.62,-198.88 373.62,-198.88 367.62,-198.88 361.62,-192.88 361.62,-186.88 361.62,-186.88 361.62,-174.88 361.62,-174.88 361.62,-168.88 367.62,-162.88 373.62,-162.88 373.62,-162.88 432.38,-162.88 432.38,-162.88 438.38,-162.88 444.38,-168.88 444.38,-174.88 444.38,-174.88 444.38,-186.88 444.38,-186.88 444.38,-192.88 438.38,-198.88 432.38,-198.88"/>
<text xml:space="preserve" text-anchor="middle" x="403" y="-183.93" font-family="sans-Serif" font-size="11.00" fill="#0f172a">WWW</text>
<text xml:space="preserve" text-anchor="middle" x="403" y="-170.43" font-family="sans-Serif" font-size="11.00" fill="#0f172a">21 site drivers</text>
</g>
<!-- Registry&#45;&gt;WWW -->
<g id="edge12" class="edge">
<title>Registry&#45;&gt;WWW</title>
<path fill="none" stroke="#34d399" stroke-width="1.3" d="M488.61,-306.52C469.93,-279.32 439.53,-235.05 420.43,-207.24"/>
<polygon fill="#34d399" stroke="#34d399" stroke-width="1.3" points="422.84,-205.81 416,-200.8 418.22,-208.98 422.84,-205.81"/>
</g>
<!-- AWS -->
<g id="node16" class="node">
<title>AWS</title>
<path fill="#6ee7b7" stroke="#334155" stroke-width="1.4" d="M542,-198.88C542,-198.88 496,-198.88 496,-198.88 490,-198.88 484,-192.88 484,-186.88 484,-186.88 484,-174.88 484,-174.88 484,-168.88 490,-162.88 496,-162.88 496,-162.88 542,-162.88 542,-162.88 548,-162.88 554,-168.88 554,-174.88 554,-174.88 554,-186.88 554,-186.88 554,-192.88 548,-198.88 542,-198.88"/>
<text xml:space="preserve" text-anchor="middle" x="519" y="-183.93" font-family="sans-Serif" font-size="11.00" fill="#0f172a">AWS</text>
<text xml:space="preserve" text-anchor="middle" x="519" y="-170.43" font-family="sans-Serif" font-size="11.00" fill="#0f172a">90 services</text>
</g>
<!-- Registry&#45;&gt;AWS -->
<g id="edge13" class="edge">
<title>Registry&#45;&gt;AWS</title>
<path fill="none" stroke="#34d399" stroke-width="1.3" d="M507.25,-306.52C509.76,-279.91 513.81,-236.95 516.44,-209.06"/>
<polygon fill="#34d399" stroke="#34d399" stroke-width="1.3" points="519.22,-209.37 517.18,-201.14 513.65,-208.84 519.22,-209.37"/>
</g>
<!-- SDR -->
<g id="node17" class="node">
<title>SDR</title>
<path fill="#6ee7b7" stroke="#334155" stroke-width="1.4" d="M707.75,-205.12C707.75,-205.12 606.25,-205.12 606.25,-205.12 600.25,-205.12 594.25,-199.12 594.25,-193.12 594.25,-193.12 594.25,-168.62 594.25,-168.62 594.25,-162.62 600.25,-156.62 606.25,-156.62 606.25,-156.62 707.75,-156.62 707.75,-156.62 713.75,-156.62 719.75,-162.62 719.75,-168.62 719.75,-168.62 719.75,-193.12 719.75,-193.12 719.75,-199.12 713.75,-205.12 707.75,-205.12"/>
<text xml:space="preserve" text-anchor="middle" x="657" y="-190.68" font-family="sans-Serif" font-size="11.00" fill="#0f172a">SDR</text>
<text xml:space="preserve" text-anchor="middle" x="657" y="-177.18" font-family="sans-Serif" font-size="11.00" fill="#0f172a">GQRX · Flipper · RFID</text>
<text xml:space="preserve" text-anchor="middle" x="657" y="-163.68" font-family="sans-Serif" font-size="11.00" fill="#0f172a">Decoder::* (20)</text>
</g>
<!-- Swarm&#45;&gt;SDR -->
<g id="edge14" class="edge">
<title>Swarm&#45;&gt;SDR</title>
<path fill="none" stroke="#34d399" stroke-width="1.3" d="M676.39,-312.76C672.84,-288.81 666.43,-245.5 661.95,-215.28"/>
<polygon fill="#34d399" stroke="#34d399" stroke-width="1.3" points="664.74,-215.04 660.8,-207.53 659.2,-215.86 664.74,-215.04"/>
</g>
<!-- Chain -->
<g id="node18" class="node">
<title>Chain</title>
<path fill="#6ee7b7" stroke="#334155" stroke-width="1.4" d="M818,-198.88C818,-198.88 772,-198.88 772,-198.88 766,-198.88 760,-192.88 760,-186.88 760,-186.88 760,-174.88 760,-174.88 760,-168.88 766,-162.88 772,-162.88 772,-162.88 818,-162.88 818,-162.88 824,-162.88 830,-168.88 830,-174.88 830,-174.88 830,-186.88 830,-186.88 830,-192.88 824,-198.88 818,-198.88"/>
<text xml:space="preserve" text-anchor="middle" x="795" y="-183.93" font-family="sans-Serif" font-size="11.00" fill="#0f172a">Blockchain</text>
<text xml:space="preserve" text-anchor="middle" x="795" y="-170.43" font-family="sans-Serif" font-size="11.00" fill="#0f172a">BTC · ETH</text>
</g>
<!-- Swarm&#45;&gt;Chain -->
<g id="edge15" class="edge">
<title>Swarm&#45;&gt;Chain</title>
<path fill="none" stroke="#34d399" stroke-width="1.3" d="M692.76,-312.76C713.26,-286.52 751.89,-237.06 775.35,-207.03"/>
<polygon fill="#34d399" stroke="#34d399" stroke-width="1.3" points="777.33,-209.05 780.04,-201.02 772.91,-205.6 777.33,-209.05"/>
</g>
<!-- Bounty -->
<g id="node19" class="node">
<title>Bounty</title>
<path fill="#6ee7b7" stroke="#334155" stroke-width="1.4" d="M943.88,-198.88C943.88,-198.88 882.12,-198.88 882.12,-198.88 876.12,-198.88 870.12,-192.88 870.12,-186.88 870.12,-186.88 870.12,-174.88 870.12,-174.88 870.12,-168.88 876.12,-162.88 882.12,-162.88 882.12,-162.88 943.88,-162.88 943.88,-162.88 949.88,-162.88 955.88,-168.88 955.88,-174.88 955.88,-174.88 955.88,-186.88 955.88,-186.88 955.88,-192.88 949.88,-198.88 943.88,-198.88"/>
<text xml:space="preserve" text-anchor="middle" x="913" y="-183.93" font-family="sans-Serif" font-size="11.00" fill="#0f172a">Bounty</text>
<text xml:space="preserve" text-anchor="middle" x="913" y="-170.43" font-family="sans-Serif" font-size="11.00" fill="#0f172a">lifecycle replay</text>
</g>
<!-- Prompt&#45;&gt;Bounty -->
<!-- Reports -->
<g id="node20" class="node">
<title>Reports</title>
<path fill="#6ee7b7" stroke="#334155" stroke-width="1.4" d="M1068.12,-198.88C1068.12,-198.88 1007.88,-198.88 1007.88,-198.88 1001.88,-198.88 995.88,-192.88 995.88,-186.88 995.88,-186.88 995.88,-174.88 995.88,-174.88 995.88,-168.88 1001.88,-162.88 1007.88,-162.88 1007.88,-162.88 1068.12,-162.88 1068.12,-162.88 1074.12,-162.88 1080.12,-168.88 1080.12,-174.88 1080.12,-174.88 1080.12,-186.88 1080.12,-186.88 1080.12,-192.88 1074.12,-198.88 1068.12,-198.88"/>
<text xml:space="preserve" text-anchor="middle" x="1038" y="-183.93" font-family="sans-Serif" font-size="11.00" fill="#0f172a">Reports</text>
<text xml:space="preserve" text-anchor="middle" x="1038" y="-170.43" font-family="sans-Serif" font-size="11.00" fill="#0f172a">HTML · JSON</text>
</g>
<!-- Prompt&#45;&gt;Reports -->
<!-- Memory -->
<g id="node21" class="node">
<title>Memory</title>
<path fill="#fcd34d" stroke="#334155" stroke-width="1.4" d="M93.75,-54.79C93.75,-56.6 76.38,-58.06 55,-58.06 33.62,-58.06 16.25,-56.6 16.25,-54.79 16.25,-54.79 16.25,-25.34 16.25,-25.34 16.25,-23.53 33.62,-22.06 55,-22.06 76.38,-22.06 93.75,-23.53 93.75,-25.34 93.75,-25.34 93.75,-54.79 93.75,-54.79"/>
<path fill="none" stroke="#334155" stroke-width="1.4" d="M93.75,-54.79C93.75,-52.98 76.38,-51.52 55,-51.52 33.62,-51.52 16.25,-52.98 16.25,-54.79"/>
<text xml:space="preserve" text-anchor="middle" x="55" y="-36.36" font-family="sans-Serif" font-size="11.00" fill="#0f172a">memory.json</text>
</g>
<!-- Prompt&#45;&gt;Memory -->
<g id="edge30" class="edge">
<title>Prompt&#45;&gt;Memory</title>
<path fill="none" stroke="#fbbf24" stroke-width="1.3" stroke-dasharray="5,2" d="M975.18,-318.59C1020.61,-307.69 1070.16,-286.75 1098,-246.62 1122.83,-210.84 1128.12,-180.09 1098,-148.62 1060.16,-109.1 163.58,-128.78 114,-105.62 92.68,-95.66 75.55,-74.1 65.35,-58.63"/>
<polygon fill="#fbbf24" stroke="#fbbf24" stroke-width="1.3" points="974.66,-315.84 967.48,-320.34 975.9,-321.3 974.66,-315.84"/>
<text xml:space="preserve" text-anchor="middle" x="1129.53" y="-177.57" font-family="sans-Serif" font-size="9.00" fill="#cbd5e1">inject</text>
</g>
<!-- Plugins&#45;&gt;Target -->
<g id="edge29" class="edge">
<title>Plugins&#45;&gt;Target</title>
<path fill="none" stroke="#fb7185" stroke-width="2" d="M200.58,-199.5C210.09,-215.01 226.24,-236.64 247,-246.62 267.84,-256.65 431.91,-253.28 455,-254.62 518.42,-258.32 981.86,-252.49 1025,-299.12 1099.5,-379.67 1025.45,-521.82 985.23,-585.9"/>
<polygon fill="#fb7185" stroke="#fb7185" stroke-width="2" points="982.91,-584.34 980.96,-592.59 987.63,-587.35 982.91,-584.34"/>
<text xml:space="preserve" text-anchor="middle" x="1068.07" y="-407.07" font-family="sans-Serif" font-size="9.00" fill="#cbd5e1">attack</text>
</g>
<!-- Plugins&#45;&gt;Memory -->
<g id="edge19" class="edge">
<title>Plugins&#45;&gt;Memory</title>
<path fill="none" stroke="#f59e0b" stroke-width="1.3" d="M172.01,-162.2C156.22,-147.35 133.3,-125.45 114,-105.62 101.46,-92.74 87.89,-77.96 76.94,-65.8"/>
<polygon fill="#f59e0b" stroke="#f59e0b" stroke-width="1.3" points="79.22,-64.15 71.8,-60.07 75.05,-67.89 79.22,-64.15"/>
</g>
<!-- Skills -->
<g id="node23" class="node">
<title>Skills</title>
<path fill="#fcd34d" stroke="#334155" stroke-width="1.4" d="M323,-54.79C323,-56.6 308.66,-58.06 291,-58.06 273.34,-58.06 259,-56.6 259,-54.79 259,-54.79 259,-25.34 259,-25.34 259,-23.53 273.34,-22.06 291,-22.06 308.66,-22.06 323,-23.53 323,-25.34 323,-25.34 323,-54.79 323,-54.79"/>
<path fill="none" stroke="#334155" stroke-width="1.4" d="M323,-54.79C323,-52.98 308.66,-51.52 291,-51.52 273.34,-51.52 259,-52.98 259,-54.79"/>
<text xml:space="preserve" text-anchor="middle" x="291" y="-36.36" font-family="sans-Serif" font-size="11.00" fill="#0f172a">skills/*.md</text>
</g>
<!-- SAST&#45;&gt;Skills -->
<g id="edge20" class="edge">
<title>SAST&#45;&gt;Skills</title>
<path fill="none" stroke="#f59e0b" stroke-width="1.3" d="M293.62,-162.29C293.11,-138.62 292.19,-96.25 291.59,-68.4"/>
<polygon fill="#f59e0b" stroke="#f59e0b" stroke-width="1.3" points="294.39,-68.41 291.42,-60.47 288.79,-68.53 294.39,-68.41"/>
</g>
<!-- Learn -->
<g id="node24" class="node">
<title>Learn</title>
<path fill="#fcd34d" stroke="#334155" stroke-width="1.4" d="M442.5,-54.79C442.5,-56.6 424.8,-58.06 403,-58.06 381.2,-58.06 363.5,-56.6 363.5,-54.79 363.5,-54.79 363.5,-25.34 363.5,-25.34 363.5,-23.53 381.2,-22.06 403,-22.06 424.8,-22.06 442.5,-23.53 442.5,-25.34 442.5,-25.34 442.5,-54.79 442.5,-54.79"/>
<path fill="none" stroke="#334155" stroke-width="1.4" d="M442.5,-54.79C442.5,-52.98 424.8,-51.52 403,-51.52 381.2,-51.52 363.5,-52.98 363.5,-54.79"/>
<text xml:space="preserve" text-anchor="middle" x="403" y="-36.36" font-family="sans-Serif" font-size="11.00" fill="#0f172a">learning.jsonl</text>
</g>
<!-- WWW&#45;&gt;Learn -->
<g id="edge21" class="edge">
<title>WWW&#45;&gt;Learn</title>
<path fill="none" stroke="#f59e0b" stroke-width="1.3" d="M403,-162.29C403,-138.62 403,-96.25 403,-68.4"/>
<polygon fill="#f59e0b" stroke="#f59e0b" stroke-width="1.3" points="405.8,-68.47 403,-60.47 400.2,-68.47 405.8,-68.47"/>
</g>
<!-- Metrics -->
<g id="node25" class="node">
<title>Metrics</title>
<path fill="#fcd34d" stroke="#334155" stroke-width="1.4" d="M555.5,-54.79C555.5,-56.6 539.14,-58.06 519,-58.06 498.86,-58.06 482.5,-56.6 482.5,-54.79 482.5,-54.79 482.5,-25.34 482.5,-25.34 482.5,-23.53 498.86,-22.06 519,-22.06 539.14,-22.06 555.5,-23.53 555.5,-25.34 555.5,-25.34 555.5,-54.79 555.5,-54.79"/>
<path fill="none" stroke="#334155" stroke-width="1.4" d="M555.5,-54.79C555.5,-52.98 539.14,-51.52 519,-51.52 498.86,-51.52 482.5,-52.98 482.5,-54.79"/>
<text xml:space="preserve" text-anchor="middle" x="519" y="-36.36" font-family="sans-Serif" font-size="11.00" fill="#0f172a">metrics.json</text>
</g>
<!-- AWS&#45;&gt;Metrics -->
<g id="edge22" class="edge">
<title>AWS&#45;&gt;Metrics</title>
<path fill="none" stroke="#f59e0b" stroke-width="1.3" d="M519,-162.29C519,-138.62 519,-96.25 519,-68.4"/>
<polygon fill="#f59e0b" stroke="#f59e0b" stroke-width="1.3" points="521.8,-68.47 519,-60.47 516.2,-68.47 521.8,-68.47"/>
</g>
<!-- MistF -->
<g id="node26" class="node">
<title>MistF</title>
<path fill="#fcd34d" stroke="#334155" stroke-width="1.4" d="M676.25,-54.79C676.25,-56.6 658.21,-58.06 636,-58.06 613.79,-58.06 595.75,-56.6 595.75,-54.79 595.75,-54.79 595.75,-25.34 595.75,-25.34 595.75,-23.53 613.79,-22.06 636,-22.06 658.21,-22.06 676.25,-23.53 676.25,-25.34 676.25,-25.34 676.25,-54.79 676.25,-54.79"/>
<path fill="none" stroke="#334155" stroke-width="1.4" d="M676.25,-54.79C676.25,-52.98 658.21,-51.52 636,-51.52 613.79,-51.52 595.75,-52.98 595.75,-54.79"/>
<text xml:space="preserve" text-anchor="middle" x="636" y="-36.36" font-family="sans-Serif" font-size="11.00" fill="#0f172a">mistakes.json</text>
</g>
<!-- SDR&#45;&gt;MistF -->
<!-- Extro -->
<g id="node27" class="node">
<title>Extro</title>
<path fill="#fcd34d" stroke="#334155" stroke-width="1.4" d="M837.88,-59.75C837.88,-62.16 810.59,-64.12 777,-64.12 743.41,-64.12 716.12,-62.16 716.12,-59.75 716.12,-59.75 716.12,-20.38 716.12,-20.38 716.12,-17.96 743.41,-16 777,-16 810.59,-16 837.88,-17.96 837.88,-20.38 837.88,-20.38 837.88,-59.75 837.88,-59.75"/>
<path fill="none" stroke="#334155" stroke-width="1.4" d="M837.88,-59.75C837.88,-57.34 810.59,-55.38 777,-55.38 743.41,-55.38 716.12,-57.34 716.12,-59.75"/>
<text xml:space="preserve" text-anchor="middle" x="777" y="-43.11" font-family="sans-Serif" font-size="11.00" fill="#0f172a">extrospection.json</text>
<text xml:space="preserve" text-anchor="middle" x="777" y="-29.61" font-family="sans-Serif" font-size="11.00" fill="#0f172a">rf · web · observations</text>
</g>
<!-- SDR&#45;&gt;Extro -->
<g id="edge24" class="edge">
<title>SDR&#45;&gt;Extro</title>
<path fill="none" stroke="#f59e0b" stroke-width="1.3" d="M677.63,-156.01C697.67,-132.83 728.2,-97.51 750.13,-72.14"/>
<polygon fill="#f59e0b" stroke="#f59e0b" stroke-width="1.3" points="752.24,-73.99 755.35,-66.1 748,-70.32 752.24,-73.99"/>
</g>
<!-- Sessions -->
<g id="node28" class="node">
<title>Sessions</title>
<path fill="#fcd34d" stroke="#334155" stroke-width="1.4" d="M967.75,-54.79C967.75,-56.6 947.69,-58.06 923,-58.06 898.31,-58.06 878.25,-56.6 878.25,-54.79 878.25,-54.79 878.25,-25.34 878.25,-25.34 878.25,-23.53 898.31,-22.06 923,-22.06 947.69,-22.06 967.75,-23.53 967.75,-25.34 967.75,-25.34 967.75,-54.79 967.75,-54.79"/>
<path fill="none" stroke="#334155" stroke-width="1.4" d="M967.75,-54.79C967.75,-52.98 947.69,-51.52 923,-51.52 898.31,-51.52 878.25,-52.98 878.25,-54.79"/>
<text xml:space="preserve" text-anchor="middle" x="923" y="-36.36" font-family="sans-Serif" font-size="11.00" fill="#0f172a">sessions/*.jsonl</text>
</g>
<!-- Chain&#45;&gt;Sessions -->
<g id="edge25" class="edge">
<title>Chain&#45;&gt;Sessions</title>
<path fill="none" stroke="#f59e0b" stroke-width="1.3" d="M811.21,-162.29C833.81,-137.78 874.89,-93.24 900.46,-65.51"/>
<polygon fill="#f59e0b" stroke="#f59e0b" stroke-width="1.3" points="902.22,-67.73 905.59,-59.95 898.1,-63.93 902.22,-67.73"/>
</g>
<!-- SwarmB -->
<g id="node29" class="node">
<title>SwarmB</title>
<path fill="#fcd34d" stroke="#334155" stroke-width="1.4" d="M1108.38,-54.79C1108.38,-56.6 1085.8,-58.06 1058,-58.06 1030.2,-58.06 1007.62,-56.6 1007.62,-54.79 1007.62,-54.79 1007.62,-25.34 1007.62,-25.34 1007.62,-23.53 1030.2,-22.06 1058,-22.06 1085.8,-22.06 1108.38,-23.53 1108.38,-25.34 1108.38,-25.34 1108.38,-54.79 1108.38,-54.79"/>
<path fill="none" stroke="#334155" stroke-width="1.4" d="M1108.38,-54.79C1108.38,-52.98 1085.8,-51.52 1058,-51.52 1030.2,-51.52 1007.62,-52.98 1007.62,-54.79"/>
<text xml:space="preserve" text-anchor="middle" x="1058" y="-36.36" font-family="sans-Serif" font-size="11.00" fill="#0f172a">swarm/*/bus.jsonl</text>
</g>
<!-- Bounty&#45;&gt;SwarmB -->
<g id="edge26" class="edge">
<title>Bounty&#45;&gt;SwarmB</title>
<path fill="none" stroke="#f59e0b" stroke-width="1.3" d="M931.36,-162.29C957.08,-137.68 1003.9,-92.86 1032.84,-65.15"/>
<polygon fill="#f59e0b" stroke="#f59e0b" stroke-width="1.3" points="1034.52,-67.42 1038.36,-59.86 1030.65,-63.37 1034.52,-67.42"/>
</g>
<!-- Reports&#45;&gt;User -->
<g id="edge31" class="edge">
<title>Reports&#45;&gt;User</title>
<path fill="none" stroke="#38bdf8" stroke-width="2" d="M1047.08,-199.43C1055.66,-214.25 1069.89,-234.87 1088,-246.62 1100.66,-254.84 1109.58,-244.76 1121,-254.62 1169.32,-296.34 1170.29,-341.48 1139,-397.12 1009.52,-627.37 831.71,-521.34 576,-587.62 565.5,-590.35 554.48,-593.87 543.99,-597.57"/>
<polygon fill="#38bdf8" stroke="#38bdf8" stroke-width="2" points="543.13,-594.91 536.56,-600.27 545.04,-600.17 543.13,-594.91"/>
<text xml:space="preserve" text-anchor="middle" x="1149.11" y="-407.07" font-family="sans-Serif" font-size="9.00" fill="#cbd5e1">findings</text>
</g>
<!-- CronF -->
<g id="node30" class="node">
<title>CronF</title>
<path fill="#fcd34d" stroke="#334155" stroke-width="1.4" d="M1227.5,-54.79C1227.5,-56.6 1209.8,-58.06 1188,-58.06 1166.2,-58.06 1148.5,-56.6 1148.5,-54.79 1148.5,-54.79 1148.5,-25.34 1148.5,-25.34 1148.5,-23.53 1166.2,-22.06 1188,-22.06 1209.8,-22.06 1227.5,-23.53 1227.5,-25.34 1227.5,-25.34 1227.5,-54.79 1227.5,-54.79"/>
<path fill="none" stroke="#334155" stroke-width="1.4" d="M1227.5,-54.79C1227.5,-52.98 1209.8,-51.52 1188,-51.52 1166.2,-51.52 1148.5,-52.98 1148.5,-54.79"/>
<text xml:space="preserve" text-anchor="middle" x="1188" y="-36.36" font-family="sans-Serif" font-size="11.00" fill="#0f172a">cron/jobs.yml</text>
</g>
<!-- Reports&#45;&gt;CronF -->
<g id="edge27" class="edge">
<title>Reports&#45;&gt;CronF</title>
<path fill="none" stroke="#f59e0b" stroke-width="1.3" d="M1060.89,-162.36C1079.51,-147.79 1106.19,-126.19 1128,-105.62 1141.28,-93.11 1155.2,-78.24 1166.29,-65.93"/>
<polygon fill="#f59e0b" stroke="#f59e0b" stroke-width="1.3" points="1168.25,-67.94 1171.49,-60.11 1164.08,-64.22 1168.25,-67.94"/>
</g>
<!-- MemIdx -->
<g id="node22" class="node">
<title>MemIdx</title>
<path fill="#fcd34d" stroke="#334155" stroke-width="1.4" d="M218.5,-59.75C218.5,-62.16 199.45,-64.12 176,-64.12 152.55,-64.12 133.5,-62.16 133.5,-59.75 133.5,-59.75 133.5,-20.38 133.5,-20.38 133.5,-17.96 152.55,-16 176,-16 199.45,-16 218.5,-17.96 218.5,-20.38 218.5,-20.38 218.5,-59.75 218.5,-59.75"/>
<path fill="none" stroke="#334155" stroke-width="1.4" d="M218.5,-59.75C218.5,-57.34 199.45,-55.38 176,-55.38 152.55,-55.38 133.5,-57.34 133.5,-59.75"/>
<text xml:space="preserve" text-anchor="middle" x="176" y="-43.11" font-family="sans-Serif" font-size="11.00" fill="#0f172a">memory.idx</text>
<text xml:space="preserve" text-anchor="middle" x="176" y="-29.61" font-family="sans-Serif" font-size="11.00" fill="#0f172a">(embed index)</text>
</g>
<!-- Finetune -->
<g id="node31" class="node">
<title>Finetune</title>
<path fill="#fcd34d" stroke="#334155" stroke-width="1.4" d="M1354.25,-54.79C1354.25,-56.6 1334.86,-58.06 1311,-58.06 1287.14,-58.06 1267.75,-56.6 1267.75,-54.79 1267.75,-54.79 1267.75,-25.34 1267.75,-25.34 1267.75,-23.53 1287.14,-22.06 1311,-22.06 1334.86,-22.06 1354.25,-23.53 1354.25,-25.34 1354.25,-25.34 1354.25,-54.79 1354.25,-54.79"/>
<path fill="none" stroke="#334155" stroke-width="1.4" d="M1354.25,-54.79C1354.25,-52.98 1334.86,-51.52 1311,-51.52 1287.14,-51.52 1267.75,-52.98 1267.75,-54.79"/>
<text xml:space="preserve" text-anchor="middle" x="1311" y="-36.36" font-family="sans-Serif" font-size="11.00" fill="#0f172a">finetune/*.jsonl</text>
</g>
</g>
</svg>
