<?xml version="1.0" encoding="UTF-8" standalone="no"?>
<!DOCTYPE svg PUBLIC "-//W3C//DTD SVG 1.1//EN"
 "http://www.w3.org/Graphics/SVG/1.1/DTD/svg11.dtd">
<!-- Generated by graphviz version 14.1.2 (0)
 -->
<!-- Title: PWN_Overall_Architecture Pages: 1 -->
<svg width="1504pt" height="821pt"
 viewBox="0.00 0.00 1504.00 821.00" xmlns="http://www.w3.org/2000/svg" xmlns:xlink="http://www.w3.org/1999/xlink">
<g id="graph0" class="graph" transform="scale(1 1) rotate(0) translate(43.2 777.83)">
<title>PWN_Overall_Architecture</title>
<polygon fill="#0f172a" stroke="none" points="-43.2,43.2 -43.2,-777.83 1461.2,-777.83 1461.2,43.2 -43.2,43.2"/>
<text xml:space="preserve" text-anchor="start" x="452.12" y="-710.73" font-family="sans-Serif" font-weight="bold" font-size="22.00" fill="#e2e8f0">PWN &#45; Offensive Security Automation Framework</text>
<text xml:space="preserve" text-anchor="start" x="637" y="-699.18" font-family="sans-Serif" font-size="11.00" fill="#94a3b8">Overall Architecture · lib/pwn/*</text>
<g id="clust1" class="cluster">
<title>cluster_actors</title>
<path fill="#1e293b" stroke="#334155" stroke-dasharray="5,2" d="M469,-587.62C469,-587.62 1054,-587.62 1054,-587.62 1060,-587.62 1066,-593.62 1066,-599.62 1066,-599.62 1066,-673.62 1066,-673.62 1066,-679.62 1060,-685.62 1054,-685.62 1054,-685.62 469,-685.62 469,-685.62 463,-685.62 457,-679.62 457,-673.62 457,-673.62 457,-599.62 457,-599.62 457,-593.62 463,-587.62 469,-587.62"/>
<text xml:space="preserve" text-anchor="middle" x="761.5" y="-660.73" font-family="sans-Serif" font-size="22.00" fill="#94a3b8">Actors</text>
</g>
<g id="clust3" class="cluster">
<title>cluster_entry</title>
<path fill="#0c4a6e" stroke="#0369a1" stroke-width="2" d="M335,-449.62C335,-449.62 853,-449.62 853,-449.62 859,-449.62 865,-455.62 865,-461.62 865,-461.62 865,-523.12 865,-523.12 865,-529.12 859,-535.12 853,-535.12 853,-535.12 335,-535.12 335,-535.12 329,-535.12 323,-529.12 323,-523.12 323,-523.12 323,-461.62 323,-461.62 323,-455.62 329,-449.62 335,-449.62"/>
<text xml:space="preserve" text-anchor="middle" x="594" y="-510.23" font-family="sans-Serif" font-size="22.00" fill="#7dd3fc">Entry Points &#160;(bin/)</text>
</g>
<g id="clust5" class="cluster">
<title>cluster_agent</title>
<path fill="#2e1065" stroke="#6d28d9" stroke-width="2" d="M312,-299.12C312,-299.12 1000,-299.12 1000,-299.12 1006,-299.12 1012,-305.12 1012,-311.12 1012,-311.12 1012,-385.12 1012,-385.12 1012,-391.12 1006,-397.12 1000,-397.12 1000,-397.12 312,-397.12 312,-397.12 306,-397.12 300,-391.12 300,-385.12 300,-385.12 300,-311.12 300,-311.12 300,-305.12 306,-299.12 312,-299.12"/>
<text xml:space="preserve" text-anchor="middle" x="656" y="-372.23" font-family="sans-Serif" font-size="22.00" fill="#ddd6fe">PWN::AI::Agent</text>
</g>
<g id="clust7" class="cluster">
<title>cluster_caps</title>
<path fill="#022c22" stroke="#047857" stroke-width="2" d="M207,-148.62C207,-148.62 1124,-148.62 1124,-148.62 1130,-148.62 1136,-154.62 1136,-160.62 1136,-160.62 1136,-234.62 1136,-234.62 1136,-240.62 1130,-246.62 1124,-246.62 1124,-246.62 207,-246.62 207,-246.62 201,-246.62 195,-240.62 195,-234.62 195,-234.62 195,-160.62 195,-160.62 195,-154.62 201,-148.62 207,-148.62"/>
<text xml:space="preserve" text-anchor="middle" x="665.5" y="-221.72" font-family="sans-Serif" font-size="22.00" fill="#a7f3d0">Capability Namespaces &#160;(lib/pwn/*)</text>
</g>
<g id="clust9" class="cluster">
<title>cluster_persist</title>
<path fill="#422006" stroke="#a16207" stroke-width="2" d="M20,-8C20,-8 1398,-8 1398,-8 1404,-8 1410,-14 1410,-20 1410,-20 1410,-93.62 1410,-93.62 1410,-99.62 1404,-105.62 1398,-105.62 1398,-105.62 20,-105.62 20,-105.62 14,-105.62 8,-99.62 8,-93.62 8,-93.62 8,-20 8,-20 8,-14 14,-8 20,-8"/>
<text xml:space="preserve" text-anchor="middle" x="709" y="-80.72" font-family="sans-Serif" font-size="22.00" fill="#fde68a">Persistence &#160;~/.pwn/</text>
</g>
<!-- User -->
<g id="node1" class="node">
<title>User</title>
<path fill="#7dd3fc" stroke="#334155" stroke-width="1.4" d="M583,-637.88C583,-637.88 477,-637.88 477,-637.88 471,-637.88 465,-631.88 465,-625.88 465,-625.88 465,-613.88 465,-613.88 465,-607.88 471,-601.88 477,-601.88 477,-601.88 583,-601.88 583,-601.88 589,-601.88 595,-607.88 595,-613.88 595,-613.88 595,-625.88 595,-625.88 595,-631.88 589,-637.88 583,-637.88"/>
<text xml:space="preserve" text-anchor="middle" x="530" y="-622.92" font-family="sans-Serif" font-size="11.00" fill="#0f172a">👤 &#160;Researcher</text>
<text xml:space="preserve" text-anchor="middle" x="530" y="-609.42" font-family="sans-Serif" font-size="11.00" fill="#0f172a">Red Team · Bug Hunter</text>
</g>
<!-- REPL -->
<g id="node5" class="node">
<title>REPL</title>
<path fill="#7dd3fc" stroke="#334155" stroke-width="1.4" d="M435.25,-493.62C435.25,-493.62 342.75,-493.62 342.75,-493.62 336.75,-493.62 330.75,-487.62 330.75,-481.62 330.75,-481.62 330.75,-469.62 330.75,-469.62 330.75,-463.62 336.75,-457.62 342.75,-457.62 342.75,-457.62 435.25,-457.62 435.25,-457.62 441.25,-457.62 447.25,-463.62 447.25,-469.62 447.25,-469.62 447.25,-481.62 447.25,-481.62 447.25,-487.62 441.25,-493.62 435.25,-493.62"/>
<text xml:space="preserve" text-anchor="middle" x="389" y="-478.68" font-family="sans-Serif" font-size="11.00" fill="#0f172a">🐚 &#160;pwn REPL</text>
<text xml:space="preserve" text-anchor="middle" x="389" y="-465.18" font-family="sans-Serif" font-size="11.00" fill="#0f172a">Pry + PWN:: preload</text>
</g>
<!-- User&#45;&gt;REPL -->
<g id="edge1" class="edge">
<title>User&#45;&gt;REPL</title>
<path fill="none" stroke="#38bdf8" stroke-width="1.3" d="M512.71,-601.43C487.76,-576.26 441.56,-529.65 413.23,-501.07"/>
<polygon fill="#38bdf8" stroke="#38bdf8" stroke-width="1.3" points="415.44,-499.32 407.82,-495.61 411.46,-503.26 415.44,-499.32"/>
</g>
<!-- PwnAI -->
<g id="node6" class="node">
<title>PwnAI</title>
<path fill="#7dd3fc" stroke="#334155" stroke-width="1.4" d="M588.75,-493.62C588.75,-493.62 499.25,-493.62 499.25,-493.62 493.25,-493.62 487.25,-487.62 487.25,-481.62 487.25,-481.62 487.25,-469.62 487.25,-469.62 487.25,-463.62 493.25,-457.62 499.25,-457.62 499.25,-457.62 588.75,-457.62 588.75,-457.62 594.75,-457.62 600.75,-463.62 600.75,-469.62 600.75,-469.62 600.75,-481.62 600.75,-481.62 600.75,-487.62 594.75,-493.62 588.75,-493.62"/>
<text xml:space="preserve" text-anchor="middle" x="544" y="-478.68" font-family="sans-Serif" font-size="11.00" fill="#0f172a">✨ &#160;pwn&#45;ai</text>
<text xml:space="preserve" text-anchor="middle" x="544" y="-465.18" font-family="sans-Serif" font-size="11.00" fill="#0f172a">Agent TUI · pwn &#45;&#45;ai</text>
</g>
<!-- User&#45;&gt;PwnAI -->
<g id="edge2" class="edge">
<title>User&#45;&gt;PwnAI</title>
<path fill="none" stroke="#38bdf8" stroke-width="1.3" d="M531.72,-601.43C534.11,-577.12 538.47,-532.79 541.3,-504.03"/>
<polygon fill="#38bdf8" stroke="#38bdf8" stroke-width="1.3" points="544.08,-504.4 542.08,-496.17 538.51,-503.86 544.08,-504.4"/>
</g>
<!-- CI -->
<g id="node2" class="node">
<title>CI</title>
<path fill="#7dd3fc" stroke="#334155" stroke-width="1.4" d="M729,-637.88C729,-637.88 647,-637.88 647,-637.88 641,-637.88 635,-631.88 635,-625.88 635,-625.88 635,-613.88 635,-613.88 635,-607.88 641,-601.88 647,-601.88 647,-601.88 729,-601.88 729,-601.88 735,-601.88 741,-607.88 741,-613.88 741,-613.88 741,-625.88 741,-625.88 741,-631.88 735,-637.88 729,-637.88"/>
<text xml:space="preserve" text-anchor="middle" x="688" y="-622.92" font-family="sans-Serif" font-size="11.00" fill="#0f172a">⚙️ &#160;CI / CD</text>
<text xml:space="preserve" text-anchor="middle" x="688" y="-609.42" font-family="sans-Serif" font-size="11.00" fill="#0f172a">Headless pipelines</text>
</g>
<!-- CLI -->
<g id="node7" class="node">
<title>CLI</title>
<path fill="#7dd3fc" stroke="#334155" stroke-width="1.4" d="M712.75,-493.62C712.75,-493.62 653.25,-493.62 653.25,-493.62 647.25,-493.62 641.25,-487.62 641.25,-481.62 641.25,-481.62 641.25,-469.62 641.25,-469.62 641.25,-463.62 647.25,-457.62 653.25,-457.62 653.25,-457.62 712.75,-457.62 712.75,-457.62 718.75,-457.62 724.75,-463.62 724.75,-469.62 724.75,-469.62 724.75,-481.62 724.75,-481.62 724.75,-487.62 718.75,-493.62 712.75,-493.62"/>
<text xml:space="preserve" text-anchor="middle" x="683" y="-478.68" font-family="sans-Serif" font-size="11.00" fill="#0f172a">📜 &#160;bin/pwn_*</text>
<text xml:space="preserve" text-anchor="middle" x="683" y="-465.18" font-family="sans-Serif" font-size="11.00" fill="#0f172a">52 CLI drivers</text>
</g>
<!-- CI&#45;&gt;CLI -->
<g id="edge3" class="edge">
<title>CI&#45;&gt;CLI</title>
<path fill="none" stroke="#38bdf8" stroke-width="1.3" d="M687.39,-601.43C686.53,-577.12 684.97,-532.79 683.96,-504.03"/>
<polygon fill="#38bdf8" stroke="#38bdf8" stroke-width="1.3" points="686.77,-504.07 683.69,-496.18 681.17,-504.27 686.77,-504.07"/>
</g>
<!-- Cronb -->
<g id="node8" class="node">
<title>Cronb</title>
<path fill="#7dd3fc" stroke="#334155" stroke-width="1.4" d="M844.88,-493.62C844.88,-493.62 777.12,-493.62 777.12,-493.62 771.12,-493.62 765.12,-487.62 765.12,-481.62 765.12,-481.62 765.12,-469.62 765.12,-469.62 765.12,-463.62 771.12,-457.62 777.12,-457.62 777.12,-457.62 844.88,-457.62 844.88,-457.62 850.88,-457.62 856.88,-463.62 856.88,-469.62 856.88,-469.62 856.88,-481.62 856.88,-481.62 856.88,-487.62 850.88,-493.62 844.88,-493.62"/>
<text xml:space="preserve" text-anchor="middle" x="811" y="-478.68" font-family="sans-Serif" font-size="11.00" fill="#0f172a">⏱ &#160;PWN::Cron</text>
<text xml:space="preserve" text-anchor="middle" x="811" y="-465.18" font-family="sans-Serif" font-size="11.00" fill="#0f172a">Scheduled jobs</text>
</g>
<!-- CI&#45;&gt;Cronb -->
<g id="edge4" class="edge">
<title>CI&#45;&gt;Cronb</title>
<path fill="none" stroke="#38bdf8" stroke-width="1.3" d="M703.08,-601.43C724.75,-576.37 764.81,-530.05 789.55,-501.43"/>
<polygon fill="#38bdf8" stroke="#38bdf8" stroke-width="1.3" points="791.39,-503.58 794.51,-495.7 787.16,-499.92 791.39,-503.58"/>
<text xml:space="preserve" text-anchor="middle" x="768.56" y="-545.08" font-family="sans-Serif" font-size="9.00" fill="#cbd5e1">crontab</text>
</g>
<!-- LLM -->
<g id="node3" class="node">
<title>LLM</title>
<path fill="#c4b5fd" stroke="#334155" stroke-width="1.4" d="M893.38,-644.12C893.38,-644.12 792.62,-644.12 792.62,-644.12 786.62,-644.12 780.62,-638.12 780.62,-632.12 780.62,-632.12 780.62,-607.62 780.62,-607.62 780.62,-601.62 786.62,-595.62 792.62,-595.62 792.62,-595.62 893.38,-595.62 893.38,-595.62 899.38,-595.62 905.38,-601.62 905.38,-607.62 905.38,-607.62 905.38,-632.12 905.38,-632.12 905.38,-638.12 899.38,-644.12 893.38,-644.12"/>
<text xml:space="preserve" text-anchor="middle" x="843" y="-629.67" font-family="sans-Serif" font-size="11.00" fill="#0f172a">🤖 &#160;LLM Providers</text>
<text xml:space="preserve" text-anchor="middle" x="843" y="-616.17" font-family="sans-Serif" font-size="11.00" fill="#0f172a">OpenAI · Anthropic</text>
<text xml:space="preserve" text-anchor="middle" x="843" y="-602.67" font-family="sans-Serif" font-size="11.00" fill="#0f172a">Grok · Gemini · Ollama</text>
</g>
<!-- Target -->
<g id="node4" class="node">
<title>Target</title>
<path fill="#fda4af" stroke="#334155" stroke-width="1.4" d="M1046.38,-644.12C1046.38,-644.12 957.62,-644.12 957.62,-644.12 951.62,-644.12 945.62,-638.12 945.62,-632.12 945.62,-632.12 945.62,-607.62 945.62,-607.62 945.62,-601.62 951.62,-595.62 957.62,-595.62 957.62,-595.62 1046.38,-595.62 1046.38,-595.62 1052.38,-595.62 1058.38,-601.62 1058.38,-607.62 1058.38,-607.62 1058.38,-632.12 1058.38,-632.12 1058.38,-638.12 1052.38,-644.12 1046.38,-644.12"/>
<text xml:space="preserve" text-anchor="middle" x="1002" y="-629.67" font-family="sans-Serif" font-size="11.00" fill="#0f172a">🎯 &#160;Attack Surface</text>
<text xml:space="preserve" text-anchor="middle" x="1002" y="-616.17" font-family="sans-Serif" font-size="11.00" fill="#0f172a">Hosts · Web · Cloud</text>
<text xml:space="preserve" text-anchor="middle" x="1002" y="-602.67" font-family="sans-Serif" font-size="11.00" fill="#0f172a">Radio · Hardware</text>
</g>
<!-- Loop -->
<g id="node9" class="node">
<title>Loop</title>
<path fill="#c4b5fd" stroke="#334155" stroke-width="1.4" d="M421.75,-355.62C421.75,-355.62 320.25,-355.62 320.25,-355.62 314.25,-355.62 308.25,-349.62 308.25,-343.62 308.25,-343.62 308.25,-319.12 308.25,-319.12 308.25,-313.12 314.25,-307.12 320.25,-307.12 320.25,-307.12 421.75,-307.12 421.75,-307.12 427.75,-307.12 433.75,-313.12 433.75,-319.12 433.75,-319.12 433.75,-343.62 433.75,-343.62 433.75,-349.62 427.75,-355.62 421.75,-355.62"/>
<text xml:space="preserve" text-anchor="middle" x="371" y="-341.18" font-family="sans-Serif" font-size="11.00" fill="#0f172a">Loop</text>
<text xml:space="preserve" text-anchor="middle" x="371" y="-327.68" font-family="sans-Serif" font-size="11.00" fill="#0f172a">plan_first → dispatch</text>
<text xml:space="preserve" text-anchor="middle" x="371" y="-314.18" font-family="sans-Serif" font-size="11.00" fill="#0f172a">→ observe → escalate</text>
</g>
<!-- REPL&#45;&gt;Loop -->
<g id="edge5" class="edge">
<title>REPL&#45;&gt;Loop</title>
<path fill="none" stroke="#a78bfa" stroke-width="1.3" d="M386.79,-457.18C383.92,-434.49 378.84,-394.35 375.22,-365.72"/>
<polygon fill="#a78bfa" stroke="#a78bfa" stroke-width="1.3" points="378.03,-365.66 374.25,-358.08 372.48,-366.36 378.03,-365.66"/>
</g>
<!-- PwnAI&#45;&gt;Loop -->
<g id="edge6" class="edge">
<title>PwnAI&#45;&gt;Loop</title>
<path fill="none" stroke="#a78bfa" stroke-width="2" d="M519.12,-457.12C503.16,-445.67 482.15,-430.19 464.25,-415.62 443.66,-398.88 421.47,-379.14 403.9,-363.08"/>
<polygon fill="#a78bfa" stroke="#a78bfa" stroke-width="2" points="406.19,-361.39 398.41,-358.04 402.4,-365.51 406.19,-361.39"/>
<text xml:space="preserve" text-anchor="middle" x="499.12" y="-407.07" font-family="sans-Serif" font-size="9.00" fill="#cbd5e1">natural language</text>
</g>
<!-- Registry -->
<g id="node10" class="node">
<title>Registry</title>
<path fill="#c4b5fd" stroke="#334155" stroke-width="1.4" d="M601.88,-355.62C601.88,-355.62 486.12,-355.62 486.12,-355.62 480.12,-355.62 474.12,-349.62 474.12,-343.62 474.12,-343.62 474.12,-319.12 474.12,-319.12 474.12,-313.12 480.12,-307.12 486.12,-307.12 486.12,-307.12 601.88,-307.12 601.88,-307.12 607.88,-307.12 613.88,-313.12 613.88,-319.12 613.88,-319.12 613.88,-343.62 613.88,-343.62 613.88,-349.62 607.88,-355.62 601.88,-355.62"/>
<text xml:space="preserve" text-anchor="middle" x="544" y="-341.18" font-family="sans-Serif" font-size="11.00" fill="#0f172a">Registry</text>
<text xml:space="preserve" text-anchor="middle" x="544" y="-327.68" font-family="sans-Serif" font-size="11.00" fill="#0f172a">10 toolsets · 71 tools</text>
<text xml:space="preserve" text-anchor="middle" x="544" y="-314.18" font-family="sans-Serif" font-size="11.00" fill="#0f172a">tool_router (CORE+topK)</text>
</g>
<!-- PwnAI&#45;&gt;Registry -->
<g id="edge7" class="edge">
<title>PwnAI&#45;&gt;Registry</title>
<path fill="none" stroke="#a78bfa" stroke-width="1.3" d="M544,-457.18C544,-434.49 544,-394.35 544,-365.72"/>
<polygon fill="#a78bfa" stroke="#a78bfa" stroke-width="1.3" points="546.8,-366.09 544,-358.09 541.2,-366.09 546.8,-366.09"/>
</g>
<!-- Swarm -->
<g id="node11" class="node">
<title>Swarm</title>
<path fill="#c4b5fd" stroke="#334155" stroke-width="1.4" d="M770.25,-349.38C770.25,-349.38 665.75,-349.38 665.75,-349.38 659.75,-349.38 653.75,-343.38 653.75,-337.38 653.75,-337.38 653.75,-325.38 653.75,-325.38 653.75,-319.38 659.75,-313.38 665.75,-313.38 665.75,-313.38 770.25,-313.38 770.25,-313.38 776.25,-313.38 782.25,-319.38 782.25,-325.38 782.25,-325.38 782.25,-337.38 782.25,-337.38 782.25,-343.38 776.25,-349.38 770.25,-349.38"/>
<text xml:space="preserve" text-anchor="middle" x="718" y="-334.43" font-family="sans-Serif" font-size="11.00" fill="#0f172a">Swarm</text>
<text xml:space="preserve" text-anchor="middle" x="718" y="-320.93" font-family="sans-Serif" font-size="11.00" fill="#0f172a">personas · debate · bus</text>
</g>
<!-- CLI&#45;&gt;Swarm -->
<!-- Plugins -->
<g id="node13" class="node">
<title>Plugins</title>
<path fill="#6ee7b7" stroke="#334155" stroke-width="1.4" d="M262.75,-198.88C262.75,-198.88 215.25,-198.88 215.25,-198.88 209.25,-198.88 203.25,-192.88 203.25,-186.88 203.25,-186.88 203.25,-174.88 203.25,-174.88 203.25,-168.88 209.25,-162.88 215.25,-162.88 215.25,-162.88 262.75,-162.88 262.75,-162.88 268.75,-162.88 274.75,-168.88 274.75,-174.88 274.75,-174.88 274.75,-186.88 274.75,-186.88 274.75,-192.88 268.75,-198.88 262.75,-198.88"/>
<text xml:space="preserve" text-anchor="middle" x="239" y="-183.93" font-family="sans-Serif" font-size="11.00" fill="#0f172a">Plugins</text>
<text xml:space="preserve" text-anchor="middle" x="239" y="-170.43" font-family="sans-Serif" font-size="11.00" fill="#0f172a">66 modules</text>
</g>
<!-- CLI&#45;&gt;Plugins -->
<g id="edge18" class="edge">
<title>CLI&#45;&gt;Plugins</title>
<path fill="none" stroke="#34d399" stroke-width="1.3" d="M723.64,-456.98C730.68,-454.29 737.99,-451.71 745,-449.62 842.27,-420.63 869.01,-422.59 969,-405.12 980.73,-403.08 1014.23,-406.15 1022,-397.12 1050.41,-364.11 1051.67,-331.01 1022,-299.12 994.42,-269.48 331.2,-264.78 295,-246.62 277.79,-237.99 263.65,-221.51 253.89,-207.34"/>
<polygon fill="#34d399" stroke="#34d399" stroke-width="1.3" points="256.46,-206.14 249.73,-200.98 251.77,-209.21 256.46,-206.14"/>
</g>
<!-- Prompt -->
<g id="node12" class="node">
<title>Prompt</title>
<path fill="#c4b5fd" stroke="#334155" stroke-width="1.4" d="M991.88,-355.62C991.88,-355.62 834.12,-355.62 834.12,-355.62 828.12,-355.62 822.12,-349.62 822.12,-343.62 822.12,-343.62 822.12,-319.12 822.12,-319.12 822.12,-313.12 828.12,-307.12 834.12,-307.12 834.12,-307.12 991.88,-307.12 991.88,-307.12 997.88,-307.12 1003.88,-313.12 1003.88,-319.12 1003.88,-319.12 1003.88,-343.62 1003.88,-343.62 1003.88,-349.62 997.88,-355.62 991.88,-355.62"/>
<text xml:space="preserve" text-anchor="middle" x="913" y="-341.18" font-family="sans-Serif" font-size="11.00" fill="#0f172a">PromptBuilder</text>
<text xml:space="preserve" text-anchor="middle" x="913" y="-327.68" font-family="sans-Serif" font-size="11.00" fill="#0f172a">engine&#45;budgeted blocks</text>
<text xml:space="preserve" text-anchor="middle" x="913" y="-314.18" font-family="sans-Serif" font-size="11.00" fill="#0f172a">MemoryIndex → relevance&#45;ranked</text>
</g>
<!-- Cronb&#45;&gt;Prompt -->
<!-- Loop&#45;&gt;LLM -->
<g id="edge28" class="edge">
<title>Loop&#45;&gt;LLM</title>
<path fill="none" stroke="#c4b5fd" stroke-width="2" d="M393.72,-356.03C409.22,-370.56 431.05,-388.07 454,-397.12 491.36,-411.86 504.09,-400.67 544,-405.12 617.76,-413.36 826.14,-393.76 875,-449.62 907.98,-487.34 884.09,-548.17 863.64,-585.72"/>
<polygon fill="#c4b5fd" stroke="#c4b5fd" stroke-width="2" points="861.27,-584.21 859.77,-592.56 866.15,-586.97 861.27,-584.21"/>
<text xml:space="preserve" text-anchor="middle" x="916.07" y="-472.32" font-family="sans-Serif" font-size="9.00" fill="#cbd5e1">tool&#45;use API</text>
</g>
<!-- Loop&#45;&gt;Plugins -->
<g id="edge10" class="edge">
<title>Loop&#45;&gt;Plugins</title>
<path fill="none" stroke="#34d399" stroke-width="2" d="M346.87,-306.68C334.73,-294.51 319.93,-279.28 307.25,-265.12 290.48,-246.39 272.48,-224.35 259.18,-207.66"/>
<polygon fill="#34d399" stroke="#34d399" stroke-width="2" points="261.73,-206.37 254.57,-201.83 257.34,-209.84 261.73,-206.37"/>
<text xml:space="preserve" text-anchor="middle" x="327.12" y="-256.57" font-family="sans-Serif" font-size="9.00" fill="#cbd5e1">pwn_eval</text>
</g>
<!-- SAST -->
<g id="node14" class="node">
<title>SAST</title>
<path fill="#6ee7b7" stroke="#334155" stroke-width="1.4" d="M357.12,-198.88C357.12,-198.88 326.88,-198.88 326.88,-198.88 320.88,-198.88 314.88,-192.88 314.88,-186.88 314.88,-186.88 314.88,-174.88 314.88,-174.88 314.88,-168.88 320.88,-162.88 326.88,-162.88 326.88,-162.88 357.12,-162.88 357.12,-162.88 363.12,-162.88 369.12,-168.88 369.12,-174.88 369.12,-174.88 369.12,-186.88 369.12,-186.88 369.12,-192.88 363.12,-198.88 357.12,-198.88"/>
<text xml:space="preserve" text-anchor="middle" x="342" y="-183.93" font-family="sans-Serif" font-size="11.00" fill="#0f172a">SAST</text>
<text xml:space="preserve" text-anchor="middle" x="342" y="-170.43" font-family="sans-Serif" font-size="11.00" fill="#0f172a">48 rules</text>
</g>
<!-- Loop&#45;&gt;SAST -->
<g id="edge11" class="edge">
<title>Loop&#45;&gt;SAST</title>
<path fill="none" stroke="#34d399" stroke-width="1.3" d="M366.34,-306.52C361.12,-279.79 352.68,-236.57 347.24,-208.7"/>
<polygon fill="#34d399" stroke="#34d399" stroke-width="1.3" points="350.04,-208.43 345.76,-201.11 344.54,-209.5 350.04,-208.43"/>
</g>
<!-- WWW -->
<g id="node15" class="node">
<title>WWW</title>
<path fill="#6ee7b7" stroke="#334155" stroke-width="1.4" d="M480.38,-198.88C480.38,-198.88 421.62,-198.88 421.62,-198.88 415.62,-198.88 409.62,-192.88 409.62,-186.88 409.62,-186.88 409.62,-174.88 409.62,-174.88 409.62,-168.88 415.62,-162.88 421.62,-162.88 421.62,-162.88 480.38,-162.88 480.38,-162.88 486.38,-162.88 492.38,-168.88 492.38,-174.88 492.38,-174.88 492.38,-186.88 492.38,-186.88 492.38,-192.88 486.38,-198.88 480.38,-198.88"/>
<text xml:space="preserve" text-anchor="middle" x="451" y="-183.93" font-family="sans-Serif" font-size="11.00" fill="#0f172a">WWW</text>
<text xml:space="preserve" text-anchor="middle" x="451" y="-170.43" font-family="sans-Serif" font-size="11.00" fill="#0f172a">21 site drivers</text>
</g>
<!-- Registry&#45;&gt;WWW -->
<g id="edge12" class="edge">
<title>Registry&#45;&gt;WWW</title>
<path fill="none" stroke="#34d399" stroke-width="1.3" d="M529.06,-306.52C512.1,-279.44 484.54,-235.43 467.11,-207.6"/>
<polygon fill="#34d399" stroke="#34d399" stroke-width="1.3" points="469.5,-206.14 462.88,-200.85 464.75,-209.11 469.5,-206.14"/>
</g>
<!-- AWS -->
<g id="node16" class="node">
<title>AWS</title>
<path fill="#6ee7b7" stroke="#334155" stroke-width="1.4" d="M590,-198.88C590,-198.88 544,-198.88 544,-198.88 538,-198.88 532,-192.88 532,-186.88 532,-186.88 532,-174.88 532,-174.88 532,-168.88 538,-162.88 544,-162.88 544,-162.88 590,-162.88 590,-162.88 596,-162.88 602,-168.88 602,-174.88 602,-174.88 602,-186.88 602,-186.88 602,-192.88 596,-198.88 590,-198.88"/>
<text xml:space="preserve" text-anchor="middle" x="567" y="-183.93" font-family="sans-Serif" font-size="11.00" fill="#0f172a">AWS</text>
<text xml:space="preserve" text-anchor="middle" x="567" y="-170.43" font-family="sans-Serif" font-size="11.00" fill="#0f172a">90 services</text>
</g>
<!-- Registry&#45;&gt;AWS -->
<g id="edge13" class="edge">
<title>Registry&#45;&gt;AWS</title>
<path fill="none" stroke="#34d399" stroke-width="1.3" d="M547.7,-306.52C551.83,-279.79 558.53,-236.57 562.85,-208.7"/>
<polygon fill="#34d399" stroke="#34d399" stroke-width="1.3" points="565.56,-209.46 564.02,-201.12 560.03,-208.6 565.56,-209.46"/>
</g>
<!-- SDR -->
<g id="node17" class="node">
<title>SDR</title>
<path fill="#6ee7b7" stroke="#334155" stroke-width="1.4" d="M755.75,-205.12C755.75,-205.12 654.25,-205.12 654.25,-205.12 648.25,-205.12 642.25,-199.12 642.25,-193.12 642.25,-193.12 642.25,-168.62 642.25,-168.62 642.25,-162.62 648.25,-156.62 654.25,-156.62 654.25,-156.62 755.75,-156.62 755.75,-156.62 761.75,-156.62 767.75,-162.62 767.75,-168.62 767.75,-168.62 767.75,-193.12 767.75,-193.12 767.75,-199.12 761.75,-205.12 755.75,-205.12"/>
<text xml:space="preserve" text-anchor="middle" x="705" y="-190.68" font-family="sans-Serif" font-size="11.00" fill="#0f172a">SDR</text>
<text xml:space="preserve" text-anchor="middle" x="705" y="-177.18" font-family="sans-Serif" font-size="11.00" fill="#0f172a">GQRX · Flipper · RFID</text>
<text xml:space="preserve" text-anchor="middle" x="705" y="-163.68" font-family="sans-Serif" font-size="11.00" fill="#0f172a">Decoder::* (20)</text>
</g>
<!-- Swarm&#45;&gt;SDR -->
<g id="edge14" class="edge">
<title>Swarm&#45;&gt;SDR</title>
<path fill="none" stroke="#34d399" stroke-width="1.3" d="M716.46,-312.76C714.36,-288.81 710.57,-245.5 707.92,-215.28"/>
<polygon fill="#34d399" stroke="#34d399" stroke-width="1.3" points="710.73,-215.27 707.25,-207.55 705.16,-215.76 710.73,-215.27"/>
</g>
<!-- Chain -->
<g id="node18" class="node">
<title>Chain</title>
<path fill="#6ee7b7" stroke="#334155" stroke-width="1.4" d="M866,-198.88C866,-198.88 820,-198.88 820,-198.88 814,-198.88 808,-192.88 808,-186.88 808,-186.88 808,-174.88 808,-174.88 808,-168.88 814,-162.88 820,-162.88 820,-162.88 866,-162.88 866,-162.88 872,-162.88 878,-168.88 878,-174.88 878,-174.88 878,-186.88 878,-186.88 878,-192.88 872,-198.88 866,-198.88"/>
<text xml:space="preserve" text-anchor="middle" x="843" y="-183.93" font-family="sans-Serif" font-size="11.00" fill="#0f172a">Blockchain</text>
<text xml:space="preserve" text-anchor="middle" x="843" y="-170.43" font-family="sans-Serif" font-size="11.00" fill="#0f172a">BTC · ETH</text>
</g>
<!-- Swarm&#45;&gt;Chain -->
<g id="edge15" class="edge">
<title>Swarm&#45;&gt;Chain</title>
<path fill="none" stroke="#34d399" stroke-width="1.3" d="M732.83,-312.76C754.91,-286.52 796.55,-237.06 821.83,-207.03"/>
<polygon fill="#34d399" stroke="#34d399" stroke-width="1.3" points="823.91,-208.9 826.92,-200.98 819.63,-205.29 823.91,-208.9"/>
</g>
<!-- Bounty -->
<g id="node19" class="node">
<title>Bounty</title>
<path fill="#6ee7b7" stroke="#334155" stroke-width="1.4" d="M991.88,-198.88C991.88,-198.88 930.12,-198.88 930.12,-198.88 924.12,-198.88 918.12,-192.88 918.12,-186.88 918.12,-186.88 918.12,-174.88 918.12,-174.88 918.12,-168.88 924.12,-162.88 930.12,-162.88 930.12,-162.88 991.88,-162.88 991.88,-162.88 997.88,-162.88 1003.88,-168.88 1003.88,-174.88 1003.88,-174.88 1003.88,-186.88 1003.88,-186.88 1003.88,-192.88 997.88,-198.88 991.88,-198.88"/>
<text xml:space="preserve" text-anchor="middle" x="961" y="-183.93" font-family="sans-Serif" font-size="11.00" fill="#0f172a">Bounty</text>
<text xml:space="preserve" text-anchor="middle" x="961" y="-170.43" font-family="sans-Serif" font-size="11.00" fill="#0f172a">lifecycle replay</text>
</g>
<!-- Prompt&#45;&gt;Bounty -->
<!-- Reports -->
<g id="node20" class="node">
<title>Reports</title>
<path fill="#6ee7b7" stroke="#334155" stroke-width="1.4" d="M1116.12,-198.88C1116.12,-198.88 1055.88,-198.88 1055.88,-198.88 1049.88,-198.88 1043.88,-192.88 1043.88,-186.88 1043.88,-186.88 1043.88,-174.88 1043.88,-174.88 1043.88,-168.88 1049.88,-162.88 1055.88,-162.88 1055.88,-162.88 1116.12,-162.88 1116.12,-162.88 1122.12,-162.88 1128.12,-168.88 1128.12,-174.88 1128.12,-174.88 1128.12,-186.88 1128.12,-186.88 1128.12,-192.88 1122.12,-198.88 1116.12,-198.88"/>
<text xml:space="preserve" text-anchor="middle" x="1086" y="-183.93" font-family="sans-Serif" font-size="11.00" fill="#0f172a">Reports</text>
<text xml:space="preserve" text-anchor="middle" x="1086" y="-170.43" font-family="sans-Serif" font-size="11.00" fill="#0f172a">HTML · JSON</text>
</g>
<!-- Prompt&#45;&gt;Reports -->
<!-- Memory -->
<g id="node21" class="node">
<title>Memory</title>
<path fill="#fcd34d" stroke="#334155" stroke-width="1.4" d="M93.75,-54.79C93.75,-56.6 76.38,-58.06 55,-58.06 33.62,-58.06 16.25,-56.6 16.25,-54.79 16.25,-54.79 16.25,-25.34 16.25,-25.34 16.25,-23.53 33.62,-22.06 55,-22.06 76.38,-22.06 93.75,-23.53 93.75,-25.34 93.75,-25.34 93.75,-54.79 93.75,-54.79"/>
<path fill="none" stroke="#334155" stroke-width="1.4" d="M93.75,-54.79C93.75,-52.98 76.38,-51.52 55,-51.52 33.62,-51.52 16.25,-52.98 16.25,-54.79"/>
<text xml:space="preserve" text-anchor="middle" x="55" y="-36.36" font-family="sans-Serif" font-size="11.00" fill="#0f172a">memory.json</text>
</g>
<!-- Prompt&#45;&gt;Memory -->
<g id="edge30" class="edge">
<title>Prompt&#45;&gt;Memory</title>
<path fill="none" stroke="#fbbf24" stroke-width="1.3" stroke-dasharray="5,2" d="M1013.88,-320.61C1062.24,-310.27 1116.04,-289.23 1146,-246.62 1171.05,-211 1176.15,-180.06 1146,-148.62 1106.28,-107.21 166.01,-129.86 114,-105.62 92.67,-95.69 75.54,-74.11 65.34,-58.64"/>
<polygon fill="#fbbf24" stroke="#fbbf24" stroke-width="1.3" points="1013.51,-317.83 1006.22,-322.15 1014.61,-323.32 1013.51,-317.83"/>
<text xml:space="preserve" text-anchor="middle" x="1177.62" y="-177.57" font-family="sans-Serif" font-size="9.00" fill="#cbd5e1">inject</text>
</g>
<!-- Plugins&#45;&gt;Target -->
<g id="edge29" class="edge">
<title>Plugins&#45;&gt;Target</title>
<path fill="none" stroke="#fb7185" stroke-width="2" d="M248.58,-199.49C258.09,-215 274.24,-236.63 295,-246.62 315.14,-256.32 473.69,-253.31 496,-254.62 559.19,-258.36 1021.02,-252.65 1064,-299.12 1138.49,-379.68 1064.44,-521.82 1024.23,-585.91"/>
<polygon fill="#fb7185" stroke="#fb7185" stroke-width="2" points="1021.91,-584.34 1019.96,-592.59 1026.63,-587.36 1021.91,-584.34"/>
<text xml:space="preserve" text-anchor="middle" x="1107.06" y="-407.07" font-family="sans-Serif" font-size="9.00" fill="#cbd5e1">attack</text>
</g>
<!-- Plugins&#45;&gt;Memory -->
<g id="edge19" class="edge">
<title>Plugins&#45;&gt;Memory</title>
<path fill="none" stroke="#f59e0b" stroke-width="1.3" d="M203.25,-162.28C177.22,-148.62 141.8,-128.25 114,-105.62 99.66,-93.96 85.62,-78.79 74.83,-66.08"/>
<polygon fill="#f59e0b" stroke="#f59e0b" stroke-width="1.3" points="77.09,-64.42 69.82,-60.06 72.79,-68 77.09,-64.42"/>
</g>
<!-- Skills -->
<g id="node23" class="node">
<title>Skills</title>
<path fill="#fcd34d" stroke="#334155" stroke-width="1.4" d="M371,-54.79C371,-56.6 345.9,-58.06 315,-58.06 284.1,-58.06 259,-56.6 259,-54.79 259,-54.79 259,-25.34 259,-25.34 259,-23.53 284.1,-22.06 315,-22.06 345.9,-22.06 371,-23.53 371,-25.34 371,-25.34 371,-54.79 371,-54.79"/>
<path fill="none" stroke="#334155" stroke-width="1.4" d="M371,-54.79C371,-52.98 345.9,-51.52 315,-51.52 284.1,-51.52 259,-52.98 259,-54.79"/>
<text xml:space="preserve" text-anchor="middle" x="315" y="-36.36" font-family="sans-Serif" font-size="11.00" fill="#0f172a">skills/&lt;n&gt;/SKILL.md</text>
</g>
<!-- SAST&#45;&gt;Skills -->
<g id="edge20" class="edge">
<title>SAST&#45;&gt;Skills</title>
<path fill="none" stroke="#f59e0b" stroke-width="1.3" d="M338.58,-162.29C333.95,-138.51 325.66,-95.87 320.24,-68.03"/>
<polygon fill="#f59e0b" stroke="#f59e0b" stroke-width="1.3" points="323.04,-67.75 318.77,-60.43 317.55,-68.82 323.04,-67.75"/>
</g>
<!-- Learn -->
<g id="node24" class="node">
<title>Learn</title>
<path fill="#fcd34d" stroke="#334155" stroke-width="1.4" d="M490.5,-54.79C490.5,-56.6 472.8,-58.06 451,-58.06 429.2,-58.06 411.5,-56.6 411.5,-54.79 411.5,-54.79 411.5,-25.34 411.5,-25.34 411.5,-23.53 429.2,-22.06 451,-22.06 472.8,-22.06 490.5,-23.53 490.5,-25.34 490.5,-25.34 490.5,-54.79 490.5,-54.79"/>
<path fill="none" stroke="#334155" stroke-width="1.4" d="M490.5,-54.79C490.5,-52.98 472.8,-51.52 451,-51.52 429.2,-51.52 411.5,-52.98 411.5,-54.79"/>
<text xml:space="preserve" text-anchor="middle" x="451" y="-36.36" font-family="sans-Serif" font-size="11.00" fill="#0f172a">learning.jsonl</text>
</g>
<!-- WWW&#45;&gt;Learn -->
<g id="edge21" class="edge">
<title>WWW&#45;&gt;Learn</title>
<path fill="none" stroke="#f59e0b" stroke-width="1.3" d="M451,-162.29C451,-138.62 451,-96.25 451,-68.4"/>
<polygon fill="#f59e0b" stroke="#f59e0b" stroke-width="1.3" points="453.8,-68.47 451,-60.47 448.2,-68.47 453.8,-68.47"/>
</g>
<!-- Metrics -->
<g id="node25" class="node">
<title>Metrics</title>
<path fill="#fcd34d" stroke="#334155" stroke-width="1.4" d="M603.5,-54.79C603.5,-56.6 587.14,-58.06 567,-58.06 546.86,-58.06 530.5,-56.6 530.5,-54.79 530.5,-54.79 530.5,-25.34 530.5,-25.34 530.5,-23.53 546.86,-22.06 567,-22.06 587.14,-22.06 603.5,-23.53 603.5,-25.34 603.5,-25.34 603.5,-54.79 603.5,-54.79"/>
<path fill="none" stroke="#334155" stroke-width="1.4" d="M603.5,-54.79C603.5,-52.98 587.14,-51.52 567,-51.52 546.86,-51.52 530.5,-52.98 530.5,-54.79"/>
<text xml:space="preserve" text-anchor="middle" x="567" y="-36.36" font-family="sans-Serif" font-size="11.00" fill="#0f172a">metrics.json</text>
</g>
<!-- AWS&#45;&gt;Metrics -->
<g id="edge22" class="edge">
<title>AWS&#45;&gt;Metrics</title>
<path fill="none" stroke="#f59e0b" stroke-width="1.3" d="M567,-162.29C567,-138.62 567,-96.25 567,-68.4"/>
<polygon fill="#f59e0b" stroke="#f59e0b" stroke-width="1.3" points="569.8,-68.47 567,-60.47 564.2,-68.47 569.8,-68.47"/>
</g>
<!-- MistF -->
<g id="node26" class="node">
<title>MistF</title>
<path fill="#fcd34d" stroke="#334155" stroke-width="1.4" d="M724.25,-54.79C724.25,-56.6 706.21,-58.06 684,-58.06 661.79,-58.06 643.75,-56.6 643.75,-54.79 643.75,-54.79 643.75,-25.34 643.75,-25.34 643.75,-23.53 661.79,-22.06 684,-22.06 706.21,-22.06 724.25,-23.53 724.25,-25.34 724.25,-25.34 724.25,-54.79 724.25,-54.79"/>
<path fill="none" stroke="#334155" stroke-width="1.4" d="M724.25,-54.79C724.25,-52.98 706.21,-51.52 684,-51.52 661.79,-51.52 643.75,-52.98 643.75,-54.79"/>
<text xml:space="preserve" text-anchor="middle" x="684" y="-36.36" font-family="sans-Serif" font-size="11.00" fill="#0f172a">mistakes.json</text>
</g>
<!-- SDR&#45;&gt;MistF -->
<!-- Extro -->
<g id="node27" class="node">
<title>Extro</title>
<path fill="#fcd34d" stroke="#334155" stroke-width="1.4" d="M885.88,-59.75C885.88,-62.16 858.59,-64.12 825,-64.12 791.41,-64.12 764.12,-62.16 764.12,-59.75 764.12,-59.75 764.12,-20.38 764.12,-20.38 764.12,-17.96 791.41,-16 825,-16 858.59,-16 885.88,-17.96 885.88,-20.38 885.88,-20.38 885.88,-59.75 885.88,-59.75"/>
<path fill="none" stroke="#334155" stroke-width="1.4" d="M885.88,-59.75C885.88,-57.34 858.59,-55.38 825,-55.38 791.41,-55.38 764.12,-57.34 764.12,-59.75"/>
<text xml:space="preserve" text-anchor="middle" x="825" y="-43.11" font-family="sans-Serif" font-size="11.00" fill="#0f172a">extrospection.json</text>
<text xml:space="preserve" text-anchor="middle" x="825" y="-29.61" font-family="sans-Serif" font-size="11.00" fill="#0f172a">rf · web · observations</text>
</g>
<!-- SDR&#45;&gt;Extro -->
<g id="edge24" class="edge">
<title>SDR&#45;&gt;Extro</title>
<path fill="none" stroke="#f59e0b" stroke-width="1.3" d="M725.63,-156.01C745.67,-132.83 776.2,-97.51 798.13,-72.14"/>
<polygon fill="#f59e0b" stroke="#f59e0b" stroke-width="1.3" points="800.24,-73.99 803.35,-66.1 796,-70.32 800.24,-73.99"/>
</g>
<!-- Sessions -->
<g id="node28" class="node">
<title>Sessions</title>
<path fill="#fcd34d" stroke="#334155" stroke-width="1.4" d="M1015.75,-54.79C1015.75,-56.6 995.69,-58.06 971,-58.06 946.31,-58.06 926.25,-56.6 926.25,-54.79 926.25,-54.79 926.25,-25.34 926.25,-25.34 926.25,-23.53 946.31,-22.06 971,-22.06 995.69,-22.06 1015.75,-23.53 1015.75,-25.34 1015.75,-25.34 1015.75,-54.79 1015.75,-54.79"/>
<path fill="none" stroke="#334155" stroke-width="1.4" d="M1015.75,-54.79C1015.75,-52.98 995.69,-51.52 971,-51.52 946.31,-51.52 926.25,-52.98 926.25,-54.79"/>
<text xml:space="preserve" text-anchor="middle" x="971" y="-36.36" font-family="sans-Serif" font-size="11.00" fill="#0f172a">sessions/*.jsonl</text>
</g>
<!-- Chain&#45;&gt;Sessions -->
<g id="edge25" class="edge">
<title>Chain&#45;&gt;Sessions</title>
<path fill="none" stroke="#f59e0b" stroke-width="1.3" d="M859.21,-162.29C881.81,-137.78 922.89,-93.24 948.46,-65.51"/>
<polygon fill="#f59e0b" stroke="#f59e0b" stroke-width="1.3" points="950.22,-67.73 953.59,-59.95 946.1,-63.93 950.22,-67.73"/>
</g>
<!-- SwarmB -->
<g id="node29" class="node">
<title>SwarmB</title>
<path fill="#fcd34d" stroke="#334155" stroke-width="1.4" d="M1156.38,-54.79C1156.38,-56.6 1133.8,-58.06 1106,-58.06 1078.2,-58.06 1055.62,-56.6 1055.62,-54.79 1055.62,-54.79 1055.62,-25.34 1055.62,-25.34 1055.62,-23.53 1078.2,-22.06 1106,-22.06 1133.8,-22.06 1156.38,-23.53 1156.38,-25.34 1156.38,-25.34 1156.38,-54.79 1156.38,-54.79"/>
<path fill="none" stroke="#334155" stroke-width="1.4" d="M1156.38,-54.79C1156.38,-52.98 1133.8,-51.52 1106,-51.52 1078.2,-51.52 1055.62,-52.98 1055.62,-54.79"/>
<text xml:space="preserve" text-anchor="middle" x="1106" y="-36.36" font-family="sans-Serif" font-size="11.00" fill="#0f172a">swarm/*/bus.jsonl</text>
</g>
<!-- Bounty&#45;&gt;SwarmB -->
<g id="edge26" class="edge">
<title>Bounty&#45;&gt;SwarmB</title>
<path fill="none" stroke="#f59e0b" stroke-width="1.3" d="M979.36,-162.29C1005.08,-137.68 1051.9,-92.86 1080.84,-65.15"/>
<polygon fill="#f59e0b" stroke="#f59e0b" stroke-width="1.3" points="1082.52,-67.42 1086.36,-59.86 1078.65,-63.37 1082.52,-67.42"/>
</g>
<!-- Reports&#45;&gt;User -->
<g id="edge31" class="edge">
<title>Reports&#45;&gt;User</title>
<path fill="none" stroke="#38bdf8" stroke-width="2" d="M1095.51,-199.35C1104.26,-213.91 1118.51,-234.21 1136,-246.62 1145.17,-253.14 1151.8,-246.93 1160,-254.62 1206.53,-298.33 1209.29,-341.48 1178,-397.12 1048.52,-627.37 870.71,-521.34 615,-587.62 604.5,-590.35 593.48,-593.87 582.99,-597.57"/>
<polygon fill="#38bdf8" stroke="#38bdf8" stroke-width="2" points="582.13,-594.91 575.56,-600.27 584.04,-600.17 582.13,-594.91"/>
<text xml:space="preserve" text-anchor="middle" x="1188.11" y="-407.07" font-family="sans-Serif" font-size="9.00" fill="#cbd5e1">findings</text>
</g>
<!-- CronF -->
<g id="node30" class="node">
<title>CronF</title>
<path fill="#fcd34d" stroke="#334155" stroke-width="1.4" d="M1275.5,-54.79C1275.5,-56.6 1257.8,-58.06 1236,-58.06 1214.2,-58.06 1196.5,-56.6 1196.5,-54.79 1196.5,-54.79 1196.5,-25.34 1196.5,-25.34 1196.5,-23.53 1214.2,-22.06 1236,-22.06 1257.8,-22.06 1275.5,-23.53 1275.5,-25.34 1275.5,-25.34 1275.5,-54.79 1275.5,-54.79"/>
<path fill="none" stroke="#334155" stroke-width="1.4" d="M1275.5,-54.79C1275.5,-52.98 1257.8,-51.52 1236,-51.52 1214.2,-51.52 1196.5,-52.98 1196.5,-54.79"/>
<text xml:space="preserve" text-anchor="middle" x="1236" y="-36.36" font-family="sans-Serif" font-size="11.00" fill="#0f172a">cron/jobs.yml</text>
</g>
<!-- Reports&#45;&gt;CronF -->
<g id="edge27" class="edge">
<title>Reports&#45;&gt;CronF</title>
<path fill="none" stroke="#f59e0b" stroke-width="1.3" d="M1108.89,-162.36C1127.51,-147.79 1154.19,-126.19 1176,-105.62 1189.28,-93.11 1203.2,-78.24 1214.29,-65.93"/>
<polygon fill="#f59e0b" stroke="#f59e0b" stroke-width="1.3" points="1216.25,-67.94 1219.49,-60.11 1212.08,-64.22 1216.25,-67.94"/>
</g>
<!-- MemIdx -->
<g id="node22" class="node">
<title>MemIdx</title>
<path fill="#fcd34d" stroke="#334155" stroke-width="1.4" d="M218.5,-59.75C218.5,-62.16 199.45,-64.12 176,-64.12 152.55,-64.12 133.5,-62.16 133.5,-59.75 133.5,-59.75 133.5,-20.38 133.5,-20.38 133.5,-17.96 152.55,-16 176,-16 199.45,-16 218.5,-17.96 218.5,-20.38 218.5,-20.38 218.5,-59.75 218.5,-59.75"/>
<path fill="none" stroke="#334155" stroke-width="1.4" d="M218.5,-59.75C218.5,-57.34 199.45,-55.38 176,-55.38 152.55,-55.38 133.5,-57.34 133.5,-59.75"/>
<text xml:space="preserve" text-anchor="middle" x="176" y="-43.11" font-family="sans-Serif" font-size="11.00" fill="#0f172a">memory.idx</text>
<text xml:space="preserve" text-anchor="middle" x="176" y="-29.61" font-family="sans-Serif" font-size="11.00" fill="#0f172a">(embed index)</text>
</g>
<!-- Finetune -->
<g id="node31" class="node">
<title>Finetune</title>
<path fill="#fcd34d" stroke="#334155" stroke-width="1.4" d="M1402.25,-54.79C1402.25,-56.6 1382.86,-58.06 1359,-58.06 1335.14,-58.06 1315.75,-56.6 1315.75,-54.79 1315.75,-54.79 1315.75,-25.34 1315.75,-25.34 1315.75,-23.53 1335.14,-22.06 1359,-22.06 1382.86,-22.06 1402.25,-23.53 1402.25,-25.34 1402.25,-25.34 1402.25,-54.79 1402.25,-54.79"/>
<path fill="none" stroke="#334155" stroke-width="1.4" d="M1402.25,-54.79C1402.25,-52.98 1382.86,-51.52 1359,-51.52 1335.14,-51.52 1315.75,-52.98 1315.75,-54.79"/>
<text xml:space="preserve" text-anchor="middle" x="1359" y="-36.36" font-family="sans-Serif" font-size="11.00" fill="#0f172a">finetune/*.jsonl</text>
</g>
</g>
</svg>
