<?xml version="1.0" encoding="UTF-8" standalone="no"?>
<!DOCTYPE svg PUBLIC "-//W3C//DTD SVG 1.1//EN"
 "http://www.w3.org/Graphics/SVG/1.1/DTD/svg11.dtd">
<!-- Generated by graphviz version 14.1.2 (0)
 -->
<!-- Title: PWN Penetration Testing Workflow Pages: 1 -->
<svg width="295pt" height="807pt"
 viewBox="0.00 0.00 295.00 807.00" xmlns="http://www.w3.org/2000/svg" xmlns:xlink="http://www.w3.org/1999/xlink">
<g id="graph0" class="graph" transform="scale(1 1) rotate(0) translate(4 802.91)">
<title>PWN Penetration Testing Workflow</title>
<polygon fill="white" stroke="none" points="-4,4 -4,-802.91 290.77,-802.91 290.77,4 -4,4"/>
<!-- Target -->
<g id="node1" class="node">
<title>Target</title>
<path fill="none" stroke="black" d="M224.77,-798.91C224.77,-798.91 148.77,-798.91 148.77,-798.91 142.77,-798.91 136.77,-792.91 136.77,-786.91 136.77,-786.91 136.77,-774.91 136.77,-774.91 136.77,-768.91 142.77,-762.91 148.77,-762.91 148.77,-762.91 224.77,-762.91 224.77,-762.91 230.77,-762.91 236.77,-768.91 236.77,-774.91 236.77,-774.91 236.77,-786.91 236.77,-786.91 236.77,-792.91 230.77,-798.91 224.77,-798.91"/>
<text xml:space="preserve" text-anchor="middle" x="186.77" y="-782.86" font-family="Arial" font-size="9.00">Target System</text>
<text xml:space="preserve" text-anchor="middle" x="186.77" y="-772.36" font-family="Arial" font-size="9.00">(Host, Network, App)</text>
</g>
<!-- Recon -->
<g id="node2" class="node">
<title>Recon</title>
<ellipse fill="none" stroke="black" cx="186.77" cy="-697.97" rx="61.7" ry="27.93"/>
<text xml:space="preserve" text-anchor="middle" x="186.77" y="-705.17" font-family="Arial" font-size="9.00">Recon</text>
<text xml:space="preserve" text-anchor="middle" x="186.77" y="-694.67" font-family="Arial" font-size="9.00">(NmapIt, Shodan,</text>
<text xml:space="preserve" text-anchor="middle" x="186.77" y="-684.17" font-family="Arial" font-size="9.00">IPInfo, crt.sh)</text>
</g>
<!-- Target&#45;&gt;Recon -->
<g id="edge1" class="edge">
<title>Target&#45;&gt;Recon</title>
<path fill="none" stroke="black" d="M186.77,-762.74C186.77,-755.39 186.77,-746.47 186.77,-737.67"/>
<polygon fill="black" stroke="black" points="190.27,-737.82 186.77,-727.82 183.27,-737.82 190.27,-737.82"/>
</g>
<!-- Scanning -->
<g id="node3" class="node">
<title>Scanning</title>
<ellipse fill="none" stroke="black" cx="136.77" cy="-605.11" rx="70.18" ry="27.93"/>
<text xml:space="preserve" text-anchor="middle" x="136.77" y="-612.31" font-family="Arial" font-size="9.00">Vuln Scanning</text>
<text xml:space="preserve" text-anchor="middle" x="136.77" y="-601.81" font-family="Arial" font-size="9.00">(OpenVAS, Nessus,</text>
<text xml:space="preserve" text-anchor="middle" x="136.77" y="-591.31" font-family="Arial" font-size="9.00">Nexpose, ZAP/Burp)</text>
</g>
<!-- Recon&#45;&gt;Scanning -->
<g id="edge2" class="edge">
<title>Recon&#45;&gt;Scanning</title>
<path fill="none" stroke="black" d="M172.31,-670.69C167.48,-661.92 162.01,-651.98 156.83,-642.57"/>
<polygon fill="black" stroke="black" points="159.99,-641.05 152.1,-633.98 153.86,-644.42 159.99,-641.05"/>
</g>
<!-- Web -->
<g id="node4" class="node">
<title>Web</title>
<ellipse fill="none" stroke="black" cx="130.77" cy="-504.83" rx="73.89" ry="35.36"/>
<text xml:space="preserve" text-anchor="middle" x="130.77" y="-517.28" font-family="Arial" font-size="9.00">Web App Testing</text>
<text xml:space="preserve" text-anchor="middle" x="130.77" y="-506.78" font-family="Arial" font-size="9.00">(TransparentBrowser,</text>
<text xml:space="preserve" text-anchor="middle" x="130.77" y="-496.28" font-family="Arial" font-size="9.00">BurpSuite, Zaproxy,</text>
<text xml:space="preserve" text-anchor="middle" x="130.77" y="-485.78" font-family="Arial" font-size="9.00">URI Buster)</text>
</g>
<!-- Scanning&#45;&gt;Web -->
<g id="edge3" class="edge">
<title>Scanning&#45;&gt;Web</title>
<path fill="none" stroke="black" d="M135.1,-576.73C134.63,-569 134.1,-560.37 133.58,-551.86"/>
<polygon fill="black" stroke="black" points="137.08,-551.71 132.98,-541.94 130.09,-552.14 137.08,-551.71"/>
</g>
<!-- Fuzz -->
<g id="node5" class="node">
<title>Fuzz</title>
<ellipse fill="none" stroke="black" cx="120.77" cy="-404.54" rx="87.15" ry="27.93"/>
<text xml:space="preserve" text-anchor="middle" x="120.77" y="-411.74" font-family="Arial" font-size="9.00">Fuzzing</text>
<text xml:space="preserve" text-anchor="middle" x="120.77" y="-401.24" font-family="Arial" font-size="9.00">(PWN::Plugins::Fuzz,</text>
<text xml:space="preserve" text-anchor="middle" x="120.77" y="-390.74" font-family="Arial" font-size="9.00">pwn_fuzz_net_app_proto)</text>
</g>
<!-- Web&#45;&gt;Fuzz -->
<g id="edge4" class="edge">
<title>Web&#45;&gt;Fuzz</title>
<path fill="none" stroke="black" d="M127.25,-469.17C126.42,-461.06 125.54,-452.37 124.69,-444.1"/>
<polygon fill="black" stroke="black" points="128.19,-443.88 123.7,-434.29 121.23,-444.59 128.19,-443.88"/>
</g>
<!-- Exploit -->
<g id="node6" class="node">
<title>Exploit</title>
<ellipse fill="none" stroke="black" cx="120.77" cy="-293.18" rx="67" ry="27.93"/>
<text xml:space="preserve" text-anchor="middle" x="120.77" y="-300.38" font-family="Arial" font-size="9.00">Exploitation</text>
<text xml:space="preserve" text-anchor="middle" x="120.77" y="-289.88" font-family="Arial" font-size="9.00">(Metasploit, custom</text>
<text xml:space="preserve" text-anchor="middle" x="120.77" y="-279.38" font-family="Arial" font-size="9.00">BeEF, Serial, etc.)</text>
</g>
<!-- Fuzz&#45;&gt;Exploit -->
<g id="edge5" class="edge">
<title>Fuzz&#45;&gt;Exploit</title>
<path fill="none" stroke="black" d="M120.77,-376.23C120.77,-363.05 120.77,-347.01 120.77,-332.62"/>
<polygon fill="black" stroke="black" points="124.27,-333.04 120.77,-323.04 117.27,-333.04 124.27,-333.04"/>
</g>
<!-- Post -->
<g id="node7" class="node">
<title>Post</title>
<ellipse fill="none" stroke="black" cx="71.77" cy="-200.32" rx="71.77" ry="27.93"/>
<text xml:space="preserve" text-anchor="middle" x="71.77" y="-207.52" font-family="Arial" font-size="9.00">Post&#45;Exploitation</text>
<text xml:space="preserve" text-anchor="middle" x="71.77" y="-197.02" font-family="Arial" font-size="9.00">(PS, FileFu, SSH,</text>
<text xml:space="preserve" text-anchor="middle" x="71.77" y="-186.52" font-family="Arial" font-size="9.00">credential extraction)</text>
</g>
<!-- Exploit&#45;&gt;Post -->
<g id="edge6" class="edge">
<title>Exploit&#45;&gt;Post</title>
<path fill="none" stroke="black" d="M106.33,-265.41C101.7,-256.81 96.48,-247.14 91.53,-237.96"/>
<polygon fill="black" stroke="black" points="94.65,-236.37 86.82,-229.23 88.49,-239.69 94.65,-236.37"/>
</g>
<!-- Report -->
<g id="node8" class="node">
<title>Report</title>
<ellipse fill="none" stroke="black" cx="83.77" cy="-106.13" rx="56.39" ry="20.51"/>
<text xml:space="preserve" text-anchor="middle" x="83.77" y="-108.08" font-family="Arial" font-size="9.00">Reporting</text>
<text xml:space="preserve" text-anchor="middle" x="83.77" y="-97.58" font-family="Arial" font-size="9.00">(PWN::Reports)</text>
</g>
<!-- Post&#45;&gt;Report -->
<g id="edge7" class="edge">
<title>Post&#45;&gt;Report</title>
<path fill="none" stroke="black" d="M75.31,-172.16C76.69,-161.55 78.28,-149.32 79.71,-138.35"/>
<polygon fill="black" stroke="black" points="83.16,-138.95 80.98,-128.58 76.22,-138.04 83.16,-138.95"/>
</g>
<!-- MemorySkills -->
<g id="node9" class="node">
<title>MemorySkills</title>
<path fill="none" stroke="black" d="M218.4,-36.25C218.4,-38.25 197.5,-39.88 171.77,-39.88 146.04,-39.88 125.15,-38.25 125.15,-36.25 125.15,-36.25 125.15,-3.62 125.15,-3.62 125.15,-1.62 146.04,0 171.77,0 197.5,0 218.4,-1.62 218.4,-3.62 218.4,-3.62 218.4,-36.25 218.4,-36.25"/>
<path fill="none" stroke="black" d="M218.4,-36.25C218.4,-34.25 197.5,-32.62 171.77,-32.62 146.04,-32.62 125.15,-34.25 125.15,-36.25"/>
<text xml:space="preserve" text-anchor="middle" x="171.77" y="-21.89" font-family="Arial" font-size="9.00">Memory + Skills</text>
<text xml:space="preserve" text-anchor="middle" x="171.77" y="-11.39" font-family="Arial" font-size="9.00">(persistent context)</text>
</g>
<!-- Report&#45;&gt;MemorySkills -->
<g id="edge8" class="edge">
<title>Report&#45;&gt;MemorySkills</title>
<path fill="none" stroke="black" d="M89.49,-85.55C92.93,-76.34 98.06,-65.69 105.27,-57.88 109.69,-53.09 114.87,-48.77 120.37,-44.93"/>
<polygon fill="black" stroke="black" points="121.99,-48.04 128.54,-39.71 118.23,-42.14 121.99,-48.04"/>
<text xml:space="preserve" text-anchor="middle" x="131.52" y="-60.02" font-family="Arial" font-size="8.00">note outcomes</text>
</g>
<!-- MemorySkills&#45;&gt;Recon -->
<g id="edge9" class="edge">
<title>MemorySkills&#45;&gt;Recon</title>
<path fill="none" stroke="black" d="M198.17,-40.32C215.8,-55.68 235.77,-78.88 235.77,-105.13 235.77,-606.11 235.77,-606.11 235.77,-606.11 235.77,-626.34 226.25,-646.39 215.6,-662.49"/>
<polygon fill="black" stroke="black" points="213.03,-660.05 210.14,-670.25 218.76,-664.09 213.03,-660.05"/>
<text xml:space="preserve" text-anchor="middle" x="261.27" y="-351.01" font-family="Arial" font-size="8.00">recall previous</text>
<text xml:space="preserve" text-anchor="middle" x="261.27" y="-341.26" font-family="Arial" font-size="8.00">findings</text>
</g>
<!-- MemorySkills&#45;&gt;Exploit -->
<g id="edge10" class="edge">
<title>MemorySkills&#45;&gt;Exploit</title>
<path fill="none" stroke="black" d="M172.36,-40.24C172.98,-77.4 171.9,-161.17 152.77,-228.25 150.16,-237.41 146.23,-246.83 142.02,-255.53"/>
<polygon fill="black" stroke="black" points="138.94,-253.87 137.5,-264.36 145.17,-257.06 138.94,-253.87"/>
<text xml:space="preserve" text-anchor="middle" x="192.21" y="-146.79" font-family="Arial" font-size="8.00">reuse exploits</text>
</g>
</g>
</svg>
