<?xml version="1.0" encoding="UTF-8" standalone="no"?>
<!DOCTYPE svg PUBLIC "-//W3C//DTD SVG 1.1//EN"
 "http://www.w3.org/Graphics/SVG/1.1/DTD/svg11.dtd">
<!-- Generated by graphviz version 14.1.2 (0)
 -->
<!-- Title: PWN_Persistence Pages: 1 -->
<svg width="591pt" height="1590pt"
 viewBox="0.00 0.00 591.00 1590.00" xmlns="http://www.w3.org/2000/svg" xmlns:xlink="http://www.w3.org/1999/xlink">
<g id="graph0" class="graph" transform="scale(1 1) rotate(0) translate(43.2 1546.45)">
<title>PWN_Persistence</title>
<polygon fill="#0f172a" stroke="none" points="-43.2,43.2 -43.2,-1546.45 547.45,-1546.45 547.45,43.2 -43.2,43.2"/>
<text xml:space="preserve" text-anchor="start" x="8" y="-1481.25" font-family="sans-Serif" font-weight="bold" font-size="20.00" fill="#e2e8f0">~/.pwn/ &#45; Everything PWN Persists Across Sessions</text>
<text xml:space="preserve" text-anchor="start" x="89.38" y="-1469.8" font-family="sans-Serif" font-size="11.00" fill="#94a3b8">verified / auto&#45;repaired by PWN::Migrate &#160;· &#160;pwn setup &#45;&#45;migrate &#45;&#45;fix</text>
<!-- Root -->
<g id="node1" class="node">
<title>Root</title>
<polygon fill="#7dd3fc" stroke="#334155" stroke-width="1.3" points="134.5,-708 131.5,-712 110.5,-712 107.5,-708 75,-708 75,-672 134.5,-672 134.5,-708"/>
<text xml:space="preserve" text-anchor="middle" x="104.75" y="-685.15" font-family="sans-Serif" font-size="13.00" fill="#0f172a">~/.pwn/</text>
</g>
<!-- cfg -->
<g id="node2" class="node">
<title>cfg</title>
<path fill="#fcd34d" stroke="#334155" stroke-width="1.3" d="M407.12,-1458.75C407.12,-1461.78 373.62,-1464.25 332.38,-1464.25 291.13,-1464.25 257.62,-1461.78 257.62,-1458.75 257.62,-1458.75 257.62,-1409.25 257.62,-1409.25 257.62,-1406.22 291.13,-1403.75 332.38,-1403.75 373.62,-1403.75 407.12,-1406.22 407.12,-1409.25 407.12,-1409.25 407.12,-1458.75 407.12,-1458.75"/>
<path fill="none" stroke="#334155" stroke-width="1.3" d="M407.12,-1458.75C407.12,-1455.72 373.62,-1453.25 332.38,-1453.25 291.13,-1453.25 257.62,-1455.72 257.62,-1458.75"/>
<text xml:space="preserve" text-anchor="middle" x="332.38" y="-1442.5" font-family="sans-Serif" font-size="10.00" fill="#0f172a">pwn.yaml (+ .decryptor)</text>
<text xml:space="preserve" text-anchor="middle" x="332.38" y="-1430.5" font-family="sans-Serif" font-size="10.00" fill="#0f172a">engines · vault&#45;encrypted keys</text>
<text xml:space="preserve" text-anchor="middle" x="332.38" y="-1418.5" font-family="sans-Serif" font-size="10.00" fill="#0f172a">agent opts</text>
</g>
<!-- Root&#45;&gt;cfg -->
<g id="edge1" class="edge">
<title>Root&#45;&gt;cfg</title>
<path fill="none" stroke="#94a3b8" stroke-width="1.1" d="M106.85,-708.39C113.15,-807.85 147.43,-1280.92 235.5,-1392 239.8,-1397.42 244.94,-1402.16 250.58,-1406.3"/>
<polygon fill="#94a3b8" stroke="#94a3b8" stroke-width="1.1" points="248.85,-1408.09 256.03,-1409.96 251.59,-1404.03 248.85,-1408.09"/>
</g>
<!-- schm -->
<g id="node3" class="node">
<title>schm</title>
<path fill="#fcd34d" stroke="#334155" stroke-width="1.3" d="M402.62,-1375.75C402.62,-1378.78 371.14,-1381.25 332.38,-1381.25 293.61,-1381.25 262.12,-1378.78 262.12,-1375.75 262.12,-1375.75 262.12,-1326.25 262.12,-1326.25 262.12,-1323.22 293.61,-1320.75 332.38,-1320.75 371.14,-1320.75 402.62,-1323.22 402.62,-1326.25 402.62,-1326.25 402.62,-1375.75 402.62,-1375.75"/>
<path fill="none" stroke="#334155" stroke-width="1.3" d="M402.62,-1375.75C402.62,-1372.72 371.14,-1370.25 332.38,-1370.25 293.61,-1370.25 262.12,-1372.72 262.12,-1375.75"/>
<text xml:space="preserve" text-anchor="middle" x="332.38" y="-1359.5" font-family="sans-Serif" font-size="10.00" fill="#0f172a">.schema</text>
<text xml:space="preserve" text-anchor="middle" x="332.38" y="-1347.5" font-family="sans-Serif" font-size="10.00" fill="#0f172a">{schema:, pwn_version:, at:}</text>
<text xml:space="preserve" text-anchor="middle" x="332.38" y="-1335.5" font-family="sans-Serif" font-size="10.00" fill="#0f172a">drives launch drift warning</text>
</g>
<!-- Root&#45;&gt;schm -->
<g id="edge2" class="edge">
<title>Root&#45;&gt;schm</title>
<path fill="none" stroke="#94a3b8" stroke-width="1.1" d="M107.32,-708.35C115.56,-800.64 156.39,-1213.46 235.5,-1310 240.84,-1316.51 247.4,-1322.01 254.56,-1326.65"/>
<polygon fill="#94a3b8" stroke="#94a3b8" stroke-width="1.1" points="253.2,-1328.69 260.47,-1330.16 255.7,-1324.48 253.2,-1328.69"/>
</g>
<!-- mem -->
<g id="node4" class="node">
<title>mem</title>
<path fill="#fcd34d" stroke="#334155" stroke-width="1.3" d="M400.38,-1295C400.38,-1297.21 369.9,-1299 332.38,-1299 294.85,-1299 264.38,-1297.21 264.38,-1295 264.38,-1295 264.38,-1259 264.38,-1259 264.38,-1256.79 294.85,-1255 332.38,-1255 369.9,-1255 400.38,-1256.79 400.38,-1259 400.38,-1259 400.38,-1295 400.38,-1295"/>
<path fill="none" stroke="#334155" stroke-width="1.3" d="M400.38,-1295C400.38,-1292.79 369.9,-1291 332.38,-1291 294.85,-1291 264.38,-1292.79 264.38,-1295"/>
<text xml:space="preserve" text-anchor="middle" x="332.38" y="-1279.5" font-family="sans-Serif" font-size="10.00" fill="#0f172a">memory.json</text>
<text xml:space="preserve" text-anchor="middle" x="332.38" y="-1267.5" font-family="sans-Serif" font-size="10.00" fill="#0f172a">facts · prefs · lessons · env</text>
</g>
<!-- Root&#45;&gt;mem -->
<g id="edge3" class="edge">
<title>Root&#45;&gt;mem</title>
<path fill="none" stroke="#94a3b8" stroke-width="1.1" d="M107.69,-708.49C117.13,-795.26 160.92,-1161.44 235.5,-1244 241.46,-1250.6 248.81,-1255.88 256.76,-1260.11"/>
<polygon fill="#94a3b8" stroke="#94a3b8" stroke-width="1.1" points="255.33,-1262.14 262.7,-1262.97 257.46,-1257.73 255.33,-1262.14"/>
</g>
<!-- midx -->
<g id="node5" class="node">
<title>midx</title>
<path fill="#fcd34d" stroke="#334155" stroke-width="1.3" d="M404.5,-1227.75C404.5,-1230.78 372.17,-1233.25 332.38,-1233.25 292.58,-1233.25 260.25,-1230.78 260.25,-1227.75 260.25,-1227.75 260.25,-1178.25 260.25,-1178.25 260.25,-1175.22 292.58,-1172.75 332.38,-1172.75 372.17,-1172.75 404.5,-1175.22 404.5,-1178.25 404.5,-1178.25 404.5,-1227.75 404.5,-1227.75"/>
<path fill="none" stroke="#334155" stroke-width="1.3" d="M404.5,-1227.75C404.5,-1224.72 372.17,-1222.25 332.38,-1222.25 292.58,-1222.25 260.25,-1224.72 260.25,-1227.75"/>
<text xml:space="preserve" text-anchor="middle" x="332.38" y="-1211.5" font-family="sans-Serif" font-size="10.00" fill="#0f172a">memory.idx</text>
<text xml:space="preserve" text-anchor="middle" x="332.38" y="-1199.5" font-family="sans-Serif" font-size="10.00" fill="#0f172a">local embedding index</text>
<text xml:space="preserve" text-anchor="middle" x="332.38" y="-1187.5" font-family="sans-Serif" font-size="10.00" fill="#0f172a">(relevance&#45;ranked MEMORY)</text>
</g>
<!-- Root&#45;&gt;midx -->
<g id="edge4" class="edge">
<title>Root&#45;&gt;midx</title>
<path fill="none" stroke="#94a3b8" stroke-width="1.1" d="M105.48,-708.34C105.45,-776.83 114.23,-1020.86 235.5,-1161 240.48,-1166.75 246.39,-1171.75 252.8,-1176.08"/>
<polygon fill="#94a3b8" stroke="#94a3b8" stroke-width="1.1" points="251.28,-1178.01 258.52,-1179.64 253.87,-1173.86 251.28,-1178.01"/>
</g>
<!-- skl -->
<g id="node6" class="node">
<title>skl</title>
<path fill="#fcd34d" stroke="#334155" stroke-width="1.3" d="M418.38,-1144.75C418.38,-1147.78 379.83,-1150.25 332.38,-1150.25 284.92,-1150.25 246.38,-1147.78 246.38,-1144.75 246.38,-1144.75 246.38,-1095.25 246.38,-1095.25 246.38,-1092.22 284.92,-1089.75 332.38,-1089.75 379.83,-1089.75 418.38,-1092.22 418.38,-1095.25 418.38,-1095.25 418.38,-1144.75 418.38,-1144.75"/>
<path fill="none" stroke="#334155" stroke-width="1.3" d="M418.38,-1144.75C418.38,-1141.72 379.83,-1139.25 332.38,-1139.25 284.92,-1139.25 246.38,-1141.72 246.38,-1144.75"/>
<text xml:space="preserve" text-anchor="middle" x="332.38" y="-1128.5" font-family="sans-Serif" font-size="10.00" fill="#0f172a">skills/&lt;name&gt;/SKILL.md</text>
<text xml:space="preserve" text-anchor="middle" x="332.38" y="-1116.5" font-family="sans-Serif" font-size="10.00" fill="#0f172a">agentskills.io spec</text>
<text xml:space="preserve" text-anchor="middle" x="332.38" y="-1104.5" font-family="sans-Serif" font-size="10.00" fill="#0f172a">name+description frontmatter + refs</text>
</g>
<!-- Root&#45;&gt;skl -->
<g id="edge5" class="edge">
<title>Root&#45;&gt;skl</title>
<path fill="none" stroke="#94a3b8" stroke-width="1.1" d="M106.72,-708.5C110.87,-769.48 132.05,-966.68 235.5,-1079 237.91,-1081.62 240.52,-1084.08 243.29,-1086.39"/>
<polygon fill="#94a3b8" stroke="#94a3b8" stroke-width="1.1" points="241.61,-1088.19 248.66,-1090.5 244.59,-1084.3 241.61,-1088.19"/>
</g>
<!-- lrn -->
<g id="node7" class="node">
<title>lrn</title>
<path fill="#fcd34d" stroke="#334155" stroke-width="1.3" d="M372.62,-1064C372.62,-1066.21 354.58,-1068 332.38,-1068 310.17,-1068 292.12,-1066.21 292.12,-1064 292.12,-1064 292.12,-1028 292.12,-1028 292.12,-1025.79 310.17,-1024 332.38,-1024 354.58,-1024 372.62,-1025.79 372.62,-1028 372.62,-1028 372.62,-1064 372.62,-1064"/>
<path fill="none" stroke="#334155" stroke-width="1.3" d="M372.62,-1064C372.62,-1061.79 354.58,-1060 332.38,-1060 310.17,-1060 292.12,-1061.79 292.12,-1064"/>
<text xml:space="preserve" text-anchor="middle" x="332.38" y="-1048.5" font-family="sans-Serif" font-size="10.00" fill="#0f172a">learning.jsonl</text>
<text xml:space="preserve" text-anchor="middle" x="332.38" y="-1036.5" font-family="sans-Serif" font-size="10.00" fill="#0f172a">task outcomes</text>
</g>
<!-- Root&#45;&gt;lrn -->
<g id="edge6" class="edge">
<title>Root&#45;&gt;lrn</title>
<path fill="none" stroke="#94a3b8" stroke-width="1.1" d="M107.8,-708.29C114.87,-762.69 143.09,-925.14 235.5,-1013 248.66,-1025.51 266.77,-1033.29 283.71,-1038.13"/>
<polygon fill="#94a3b8" stroke="#94a3b8" stroke-width="1.1" points="282.91,-1040.45 290.3,-1039.86 284.15,-1035.71 282.91,-1040.45"/>
</g>
<!-- prf -->
<g id="node8" class="node">
<title>prf</title>
<path fill="#fcd34d" stroke="#334155" stroke-width="1.3" d="M429.25,-996.75C429.25,-999.78 385.83,-1002.25 332.38,-1002.25 278.92,-1002.25 235.5,-999.78 235.5,-996.75 235.5,-996.75 235.5,-947.25 235.5,-947.25 235.5,-944.22 278.92,-941.75 332.38,-941.75 385.83,-941.75 429.25,-944.22 429.25,-947.25 429.25,-947.25 429.25,-996.75 429.25,-996.75"/>
<path fill="none" stroke="#334155" stroke-width="1.3" d="M429.25,-996.75C429.25,-993.72 385.83,-991.25 332.38,-991.25 278.92,-991.25 235.5,-993.72 235.5,-996.75"/>
<text xml:space="preserve" text-anchor="middle" x="332.38" y="-980.5" font-family="sans-Serif" font-size="10.00" fill="#0f172a">preferences.jsonl</text>
<text xml:space="preserve" text-anchor="middle" x="332.38" y="-968.5" font-family="sans-Serif" font-size="10.00" fill="#0f172a">DPO/KTO/ORPO pairs</text>
<text xml:space="preserve" text-anchor="middle" x="332.38" y="-956.5" font-family="sans-Serif" font-size="10.00" fill="#0f172a">user_correction · resolve · counterfactual</text>
</g>
<!-- Root&#45;&gt;prf -->
<g id="edge7" class="edge">
<title>Root&#45;&gt;prf</title>
<path fill="none" stroke="#94a3b8" stroke-width="1.1" d="M111.14,-708.55C124.82,-752.68 164.93,-865.04 235.5,-930 238.52,-932.78 241.75,-935.39 245.13,-937.85"/>
<polygon fill="#94a3b8" stroke="#94a3b8" stroke-width="1.1" points="243.71,-939.85 250.88,-941.74 246.46,-935.79 243.71,-939.85"/>
</g>
<!-- mis -->
<g id="node9" class="node">
<title>mis</title>
<path fill="#fcd34d" stroke="#334155" stroke-width="1.3" d="M411.62,-913.75C411.62,-916.78 376.1,-919.25 332.38,-919.25 288.65,-919.25 253.12,-916.78 253.12,-913.75 253.12,-913.75 253.12,-864.25 253.12,-864.25 253.12,-861.22 288.65,-858.75 332.38,-858.75 376.1,-858.75 411.62,-861.22 411.62,-864.25 411.62,-864.25 411.62,-913.75 411.62,-913.75"/>
<path fill="none" stroke="#334155" stroke-width="1.3" d="M411.62,-913.75C411.62,-910.72 376.1,-908.25 332.38,-908.25 288.65,-908.25 253.12,-910.72 253.12,-913.75"/>
<text xml:space="preserve" text-anchor="middle" x="332.38" y="-897.5" font-family="sans-Serif" font-size="10.00" fill="#0f172a">mistakes.json</text>
<text xml:space="preserve" text-anchor="middle" x="332.38" y="-885.5" font-family="sans-Serif" font-size="10.00" fill="#0f172a">failure fingerprints · fixes</text>
<text xml:space="preserve" text-anchor="middle" x="332.38" y="-873.5" font-family="sans-Serif" font-size="10.00" fill="#0f172a">[REPEATING] · [REGRESSED]</text>
</g>
<!-- Root&#45;&gt;mis -->
<g id="edge8" class="edge">
<title>Root&#45;&gt;mis</title>
<path fill="none" stroke="#94a3b8" stroke-width="1.1" d="M116.96,-708.61C137.1,-740.7 182.3,-806.85 235.5,-847 239.89,-850.31 244.57,-853.42 249.43,-856.34"/>
<polygon fill="#94a3b8" stroke="#94a3b8" stroke-width="1.1" points="247.91,-858.3 255.2,-859.65 250.35,-854.04 247.91,-858.3"/>
</g>
<!-- met -->
<g id="node10" class="node">
<title>met</title>
<path fill="#fcd34d" stroke="#334155" stroke-width="1.3" d="M405.25,-830.75C405.25,-833.78 372.59,-836.25 332.38,-836.25 292.16,-836.25 259.5,-833.78 259.5,-830.75 259.5,-830.75 259.5,-781.25 259.5,-781.25 259.5,-778.22 292.16,-775.75 332.38,-775.75 372.59,-775.75 405.25,-778.22 405.25,-781.25 405.25,-781.25 405.25,-830.75 405.25,-830.75"/>
<path fill="none" stroke="#334155" stroke-width="1.3" d="M405.25,-830.75C405.25,-827.72 372.59,-825.25 332.38,-825.25 292.16,-825.25 259.5,-827.72 259.5,-830.75"/>
<text xml:space="preserve" text-anchor="middle" x="332.38" y="-814.5" font-family="sans-Serif" font-size="10.00" fill="#0f172a">metrics.json</text>
<text xml:space="preserve" text-anchor="middle" x="332.38" y="-802.5" font-family="sans-Serif" font-size="10.00" fill="#0f172a">per&#45;tool · per&#45;engine telemetry</text>
<text xml:space="preserve" text-anchor="middle" x="332.38" y="-790.5" font-family="sans-Serif" font-size="10.00" fill="#0f172a">calibration</text>
</g>
<!-- Root&#45;&gt;met -->
<g id="edge9" class="edge">
<title>Root&#45;&gt;met</title>
<path fill="none" stroke="#94a3b8" stroke-width="1.1" d="M135.08,-708.31C161.02,-724.18 200.14,-747.3 235.5,-765 241.55,-768.03 247.88,-771.05 254.27,-773.99"/>
<polygon fill="#94a3b8" stroke="#94a3b8" stroke-width="1.1" points="252.89,-776.06 260.28,-776.73 254.92,-771.6 252.89,-776.06"/>
</g>
<!-- rws -->
<g id="node11" class="node">
<title>rws</title>
<path fill="#fcd34d" stroke="#334155" stroke-width="1.3" d="M411.25,-750C411.25,-752.21 375.9,-754 332.38,-754 288.85,-754 253.5,-752.21 253.5,-750 253.5,-750 253.5,-714 253.5,-714 253.5,-711.79 288.85,-710 332.38,-710 375.9,-710 411.25,-711.79 411.25,-714 411.25,-714 411.25,-750 411.25,-750"/>
<path fill="none" stroke="#334155" stroke-width="1.3" d="M411.25,-750C411.25,-747.79 375.9,-746 332.38,-746 288.85,-746 253.5,-747.79 253.5,-750"/>
<text xml:space="preserve" text-anchor="middle" x="332.38" y="-734.5" font-family="sans-Serif" font-size="10.00" fill="#0f172a">reward_sentinel.json</text>
<text xml:space="preserve" text-anchor="middle" x="332.38" y="-722.5" font-family="sans-Serif" font-size="10.00" fill="#0f172a">proxy vs judge vs correction gap</text>
</g>
<!-- Root&#45;&gt;rws -->
<g id="edge10" class="edge">
<title>Root&#45;&gt;rws</title>
<path fill="none" stroke="#94a3b8" stroke-width="1.1" d="M134.78,-695.4C162.56,-700.58 205.87,-708.64 244.77,-715.88"/>
<polygon fill="#94a3b8" stroke="#94a3b8" stroke-width="1.1" points="244.03,-718.23 251.36,-717.11 244.93,-713.42 244.03,-718.23"/>
</g>
<!-- ext -->
<g id="node12" class="node">
<title>ext</title>
<path fill="#fcd34d" stroke="#334155" stroke-width="1.3" d="M416.12,-680.5C416.12,-684.36 378.59,-687.5 332.38,-687.5 286.16,-687.5 248.62,-684.36 248.62,-680.5 248.62,-680.5 248.62,-617.5 248.62,-617.5 248.62,-613.64 286.16,-610.5 332.38,-610.5 378.59,-610.5 416.12,-613.64 416.12,-617.5 416.12,-617.5 416.12,-680.5 416.12,-680.5"/>
<path fill="none" stroke="#334155" stroke-width="1.3" d="M416.12,-680.5C416.12,-676.64 378.59,-673.5 332.38,-673.5 286.16,-673.5 248.62,-676.64 248.62,-680.5"/>
<text xml:space="preserve" text-anchor="middle" x="332.38" y="-663.5" font-family="sans-Serif" font-size="10.00" fill="#0f172a">extrospection.json</text>
<text xml:space="preserve" text-anchor="middle" x="332.38" y="-651.5" font-family="sans-Serif" font-size="10.00" fill="#0f172a">snapshot (host/net/tc/repo/env/</text>
<text xml:space="preserve" text-anchor="middle" x="332.38" y="-639.5" font-family="sans-Serif" font-size="10.00" fill="#0f172a">rf/web/osint/serial/telecomm/</text>
<text xml:space="preserve" text-anchor="middle" x="332.38" y="-627.5" font-family="sans-Serif" font-size="10.00" fill="#0f172a">packet/vision/voice) + prev + obs[]</text>
</g>
<!-- Root&#45;&gt;ext -->
<g id="edge11" class="edge">
<title>Root&#45;&gt;ext</title>
<path fill="none" stroke="#94a3b8" stroke-width="1.1" d="M134.78,-684.72C161.34,-679.9 202.09,-672.49 239.61,-665.68"/>
<polygon fill="#94a3b8" stroke="#94a3b8" stroke-width="1.1" points="239.97,-668.1 246.42,-664.44 239.1,-663.28 239.97,-668.1"/>
</g>
<!-- eart -->
<g id="node13" class="node">
<title>eart</title>
<path fill="#fcd34d" stroke="#334155" stroke-width="1.3" d="M415.75,-584C415.75,-586.21 378.38,-588 332.38,-588 286.37,-588 249,-586.21 249,-584 249,-584 249,-548 249,-548 249,-545.79 286.37,-544 332.38,-544 378.38,-544 415.75,-545.79 415.75,-548 415.75,-548 415.75,-584 415.75,-584"/>
<path fill="none" stroke="#334155" stroke-width="1.3" d="M415.75,-584C415.75,-581.79 378.38,-580 332.38,-580 286.37,-580 249,-581.79 249,-584"/>
<text xml:space="preserve" text-anchor="middle" x="332.38" y="-568.5" font-family="sans-Serif" font-size="10.00" fill="#0f172a">extrospection/{web,packet,voice}/*</text>
<text xml:space="preserve" text-anchor="middle" x="332.38" y="-556.5" font-family="sans-Serif" font-size="10.00" fill="#0f172a">screenshots · pcaps · wav/txt</text>
</g>
<!-- Root&#45;&gt;eart -->
<g id="edge12" class="edge">
<title>Root&#45;&gt;eart</title>
<path fill="none" stroke="#94a3b8" stroke-width="1.1" d="M128.48,-671.43C153.49,-651.68 195.49,-620.51 235.5,-600 242.02,-596.66 248.95,-593.51 255.98,-590.57"/>
<polygon fill="#94a3b8" stroke="#94a3b8" stroke-width="1.1" points="256.52,-592.99 262.08,-588.1 254.68,-588.45 256.52,-592.99"/>
</g>
<!-- ses -->
<g id="node14" class="node">
<title>ses</title>
<path fill="#fcd34d" stroke="#334155" stroke-width="1.3" d="M398.88,-518C398.88,-520.21 369.07,-522 332.38,-522 295.68,-522 265.88,-520.21 265.88,-518 265.88,-518 265.88,-482 265.88,-482 265.88,-479.79 295.68,-478 332.38,-478 369.07,-478 398.88,-479.79 398.88,-482 398.88,-482 398.88,-518 398.88,-518"/>
<path fill="none" stroke="#334155" stroke-width="1.3" d="M398.88,-518C398.88,-515.79 369.07,-514 332.38,-514 295.68,-514 265.88,-515.79 265.88,-518"/>
<text xml:space="preserve" text-anchor="middle" x="332.38" y="-502.5" font-family="sans-Serif" font-size="10.00" fill="#0f172a">sessions/*.jsonl</text>
<text xml:space="preserve" text-anchor="middle" x="332.38" y="-490.5" font-family="sans-Serif" font-size="10.00" fill="#0f172a">transcripts (+ step_reward)</text>
</g>
<!-- Root&#45;&gt;ses -->
<g id="edge13" class="edge">
<title>Root&#45;&gt;ses</title>
<path fill="none" stroke="#94a3b8" stroke-width="1.1" d="M116.32,-671.45C135.79,-638.85 180.42,-571.16 235.5,-533 242.28,-528.3 249.8,-524.22 257.55,-520.68"/>
<polygon fill="#94a3b8" stroke="#94a3b8" stroke-width="1.1" points="258.36,-523 263.83,-517.98 256.43,-518.49 258.36,-523"/>
</g>
<!-- crn -->
<g id="node15" class="node">
<title>crn</title>
<path fill="#fcd34d" stroke="#334155" stroke-width="1.3" d="M418.38,-450.75C418.38,-453.78 379.83,-456.25 332.38,-456.25 284.92,-456.25 246.38,-453.78 246.38,-450.75 246.38,-450.75 246.38,-401.25 246.38,-401.25 246.38,-398.22 284.92,-395.75 332.38,-395.75 379.83,-395.75 418.38,-398.22 418.38,-401.25 418.38,-401.25 418.38,-450.75 418.38,-450.75"/>
<path fill="none" stroke="#334155" stroke-width="1.3" d="M418.38,-450.75C418.38,-447.72 379.83,-445.25 332.38,-445.25 284.92,-445.25 246.38,-447.72 246.38,-450.75"/>
<text xml:space="preserve" text-anchor="middle" x="332.38" y="-434.5" font-family="sans-Serif" font-size="10.00" fill="#0f172a">cron/jobs.yml + log/</text>
<text xml:space="preserve" text-anchor="middle" x="332.38" y="-422.5" font-family="sans-Serif" font-size="10.00" fill="#0f172a">seeded: curriculum_practice_nightly</text>
<text xml:space="preserve" text-anchor="middle" x="332.38" y="-410.5" font-family="sans-Serif" font-size="10.00" fill="#0f172a">curriculum_train_weekly</text>
</g>
<!-- Root&#45;&gt;crn -->
<g id="edge14" class="edge">
<title>Root&#45;&gt;crn</title>
<path fill="none" stroke="#94a3b8" stroke-width="1.1" d="M111.91,-671.49C126.74,-629.58 168.22,-526.49 235.5,-467 238.56,-464.29 241.83,-461.75 245.24,-459.35"/>
<polygon fill="#94a3b8" stroke="#94a3b8" stroke-width="1.1" points="246.52,-461.44 251.03,-455.56 243.83,-457.34 246.52,-461.44"/>
</g>
<!-- agt -->
<g id="node16" class="node">
<title>agt</title>
<path fill="#fcd34d" stroke="#334155" stroke-width="1.3" d="M375.25,-370C375.25,-372.21 356.03,-374 332.38,-374 308.72,-374 289.5,-372.21 289.5,-370 289.5,-370 289.5,-334 289.5,-334 289.5,-331.79 308.72,-330 332.38,-330 356.03,-330 375.25,-331.79 375.25,-334 375.25,-334 375.25,-370 375.25,-370"/>
<path fill="none" stroke="#334155" stroke-width="1.3" d="M375.25,-370C375.25,-367.79 356.03,-366 332.38,-366 308.72,-366 289.5,-367.79 289.5,-370"/>
<text xml:space="preserve" text-anchor="middle" x="332.38" y="-354.5" font-family="sans-Serif" font-size="10.00" fill="#0f172a">agents.yml</text>
<text xml:space="preserve" text-anchor="middle" x="332.38" y="-342.5" font-family="sans-Serif" font-size="10.00" fill="#0f172a">persona registry</text>
</g>
<!-- Root&#45;&gt;agt -->
<g id="edge15" class="edge">
<title>Root&#45;&gt;agt</title>
<path fill="none" stroke="#94a3b8" stroke-width="1.1" d="M108.31,-671.6C116.56,-619.12 147.3,-467.18 235.5,-385 248,-373.35 264.81,-365.79 280.86,-360.89"/>
<polygon fill="#94a3b8" stroke="#94a3b8" stroke-width="1.1" points="281.47,-363.27 287.55,-359.02 280.15,-358.55 281.47,-363.27"/>
</g>
<!-- swm -->
<g id="node17" class="node">
<title>swm</title>
<path fill="#fcd34d" stroke="#334155" stroke-width="1.3" d="M387.25,-304C387.25,-306.21 362.65,-308 332.38,-308 302.1,-308 277.5,-306.21 277.5,-304 277.5,-304 277.5,-268 277.5,-268 277.5,-265.79 302.1,-264 332.38,-264 362.65,-264 387.25,-265.79 387.25,-268 387.25,-268 387.25,-304 387.25,-304"/>
<path fill="none" stroke="#334155" stroke-width="1.3" d="M387.25,-304C387.25,-301.79 362.65,-300 332.38,-300 302.1,-300 277.5,-301.79 277.5,-304"/>
<text xml:space="preserve" text-anchor="middle" x="332.38" y="-288.5" font-family="sans-Serif" font-size="10.00" fill="#0f172a">swarm/&lt;id&gt;/bus.jsonl</text>
<text xml:space="preserve" text-anchor="middle" x="332.38" y="-276.5" font-family="sans-Serif" font-size="10.00" fill="#0f172a">multi&#45;agent chat</text>
</g>
<!-- Root&#45;&gt;swm -->
<g id="edge16" class="edge">
<title>Root&#45;&gt;swm</title>
<path fill="none" stroke="#94a3b8" stroke-width="1.1" d="M106.72,-671.64C110.87,-612.05 131.99,-422 235.5,-319 244.71,-309.83 256.59,-303.21 268.82,-298.42"/>
<polygon fill="#94a3b8" stroke="#94a3b8" stroke-width="1.1" points="269.55,-300.76 275.32,-296.1 267.9,-296.15 269.55,-300.76"/>
</g>
<!-- cur -->
<g id="node18" class="node">
<title>cur</title>
<path fill="#fcd34d" stroke="#334155" stroke-width="1.3" d="M408.62,-238C408.62,-240.21 374.45,-242 332.38,-242 290.3,-242 256.12,-240.21 256.12,-238 256.12,-238 256.12,-202 256.12,-202 256.12,-199.79 290.3,-198 332.38,-198 374.45,-198 408.62,-199.79 408.62,-202 408.62,-202 408.62,-238 408.62,-238"/>
<path fill="none" stroke="#334155" stroke-width="1.3" d="M408.62,-238C408.62,-235.79 374.45,-234 332.38,-234 290.3,-234 256.12,-235.79 256.12,-238"/>
<text xml:space="preserve" text-anchor="middle" x="332.38" y="-222.5" font-family="sans-Serif" font-size="10.00" fill="#0f172a">curriculum/</text>
<text xml:space="preserve" text-anchor="middle" x="332.38" y="-210.5" font-family="sans-Serif" font-size="10.00" fill="#0f172a">self&#45;play reproducers · A/B eval</text>
</g>
<!-- Root&#45;&gt;cur -->
<g id="edge17" class="edge">
<title>Root&#45;&gt;cur</title>
<path fill="none" stroke="#94a3b8" stroke-width="1.1" d="M105.59,-671.76C106.02,-605.83 116.42,-377.3 235.5,-253 239.43,-248.9 243.89,-245.31 248.68,-242.17"/>
<polygon fill="#94a3b8" stroke="#94a3b8" stroke-width="1.1" points="249.72,-244.4 254.49,-238.72 247.22,-240.18 249.72,-244.4"/>
</g>
<!-- ftn -->
<g id="node19" class="node">
<title>ftn</title>
<path fill="#fcd34d" stroke="#334155" stroke-width="1.3" d="M412,-172C412,-174.21 376.31,-176 332.38,-176 288.44,-176 252.75,-174.21 252.75,-172 252.75,-172 252.75,-136 252.75,-136 252.75,-133.79 288.44,-132 332.38,-132 376.31,-132 412,-133.79 412,-136 412,-136 412,-172 412,-172"/>
<path fill="none" stroke="#334155" stroke-width="1.3" d="M412,-172C412,-169.79 376.31,-168 332.38,-168 288.44,-168 252.75,-169.79 252.75,-172"/>
<text xml:space="preserve" text-anchor="middle" x="332.38" y="-156.5" font-family="sans-Serif" font-size="10.00" fill="#0f172a">finetune/*.jsonl</text>
<text xml:space="preserve" text-anchor="middle" x="332.38" y="-144.5" font-family="sans-Serif" font-size="10.00" fill="#0f172a">ShareGPT / OpenAI SFT + DPO</text>
</g>
<!-- Root&#45;&gt;ftn -->
<g id="edge18" class="edge">
<title>Root&#45;&gt;ftn</title>
<path fill="none" stroke="#94a3b8" stroke-width="1.1" d="M108.15,-671.59C119.13,-589.92 167.03,-261.11 235.5,-187 238.48,-183.77 241.8,-180.86 245.35,-178.23"/>
<polygon fill="#94a3b8" stroke="#94a3b8" stroke-width="1.1" points="246.59,-180.35 251.07,-174.44 243.88,-176.26 246.59,-180.35"/>
</g>
<!-- bkp -->
<g id="node20" class="node">
<title>bkp</title>
<path fill="#fcd34d" stroke="#334155" stroke-width="1.3" d="M397.75,-106C397.75,-108.21 368.45,-110 332.38,-110 296.3,-110 267,-108.21 267,-106 267,-106 267,-70 267,-70 267,-67.79 296.3,-66 332.38,-66 368.45,-66 397.75,-67.79 397.75,-70 397.75,-70 397.75,-106 397.75,-106"/>
<path fill="none" stroke="#334155" stroke-width="1.3" d="M397.75,-106C397.75,-103.79 368.45,-102 332.38,-102 296.3,-102 267,-103.79 267,-106"/>
<text xml:space="preserve" text-anchor="middle" x="332.38" y="-90.5" font-family="sans-Serif" font-size="10.00" fill="#0f172a">backup/&lt;ts&gt;/ · quarantine/</text>
<text xml:space="preserve" text-anchor="middle" x="332.38" y="-78.5" font-family="sans-Serif" font-size="10.00" fill="#0f172a">Migrate autofix snapshots</text>
</g>
<!-- Root&#45;&gt;bkp -->
<g id="edge19" class="edge">
<title>Root&#45;&gt;bkp</title>
<path fill="none" stroke="#94a3b8" stroke-width="1.1" d="M107.56,-671.61C116.54,-583.58 159.08,-206.09 235.5,-121 241.96,-113.81 250.06,-108.18 258.8,-103.78"/>
<polygon fill="#94a3b8" stroke="#94a3b8" stroke-width="1.1" points="259.75,-106.04 265.1,-100.91 257.72,-101.58 259.75,-106.04"/>
</g>
<!-- hist -->
<g id="node21" class="node">
<title>hist</title>
<path fill="#fcd34d" stroke="#334155" stroke-width="1.3" d="M372.62,-40C372.62,-42.21 354.58,-44 332.38,-44 310.17,-44 292.12,-42.21 292.12,-40 292.12,-40 292.12,-4 292.12,-4 292.12,-1.79 310.17,0 332.38,0 354.58,0 372.62,-1.79 372.62,-4 372.62,-4 372.62,-40 372.62,-40"/>
<path fill="none" stroke="#334155" stroke-width="1.3" d="M372.62,-40C372.62,-37.79 354.58,-36 332.38,-36 310.17,-36 292.12,-37.79 292.12,-40"/>
<text xml:space="preserve" text-anchor="middle" x="332.38" y="-24.5" font-family="sans-Serif" font-size="10.00" fill="#0f172a">~/.pwn_history</text>
<text xml:space="preserve" text-anchor="middle" x="332.38" y="-12.5" font-family="sans-Serif" font-size="10.00" fill="#0f172a">REPL history</text>
</g>
<!-- Root&#45;&gt;hist -->
<g id="edge20" class="edge">
<title>Root&#45;&gt;hist</title>
<path fill="none" stroke="#94a3b8" stroke-width="1.1" d="M107.1,-671.41C114.31,-576.96 151.16,-151.08 235.5,-55 247.68,-41.13 265.96,-33.09 283.31,-28.42"/>
<polygon fill="#94a3b8" stroke="#94a3b8" stroke-width="1.1" points="283.87,-30.81 290.1,-26.78 282.72,-26.04 283.87,-30.81"/>
</g>
</g>
</svg>
