<?xml version="1.0" encoding="UTF-8" standalone="no"?>
<!DOCTYPE svg PUBLIC "-//W3C//DTD SVG 1.1//EN"
 "http://www.w3.org/Graphics/SVG/1.1/DTD/svg11.dtd">
<!-- Generated by graphviz version 14.1.2 (0)
 -->
<!-- Title: PWN_Persistence Pages: 1 -->
<svg width="604pt" height="920pt"
 viewBox="0.00 0.00 604.00 920.00" xmlns="http://www.w3.org/2000/svg" xmlns:xlink="http://www.w3.org/1999/xlink">
<g id="graph0" class="graph" transform="scale(1 1) rotate(0) translate(43.2 876.45)">
<title>PWN_Persistence</title>
<polygon fill="#0f172a" stroke="none" points="-43.2,43.2 -43.2,-876.45 560.95,-876.45 560.95,43.2 -43.2,43.2"/>
<text xml:space="preserve" text-anchor="start" x="8" y="-811.25" font-family="Helvetica,sans-Serif" font-weight="bold" font-size="20.00" fill="#e2e8f0">~/.pwn/ — Everything PWN Persists Across Sessions</text>
<!-- Root -->
<g id="node1" class="node">
<title>Root</title>
<polygon fill="#7dd3fc" stroke="#334155" stroke-width="1.3" points="158.88,-415 155.88,-419 134.88,-419 131.88,-415 99.38,-415 99.38,-379 158.88,-379 158.88,-415"/>
<text xml:space="preserve" text-anchor="middle" x="129.12" y="-392.15" font-family="Helvetica,sans-Serif" font-size="13.00" fill="#0f172a">~/.pwn/</text>
</g>
<!-- cfg -->
<g id="node2" class="node">
<title>cfg</title>
<path fill="#fcd34d" stroke="#334155" stroke-width="1.3" d="M437.12,-798C437.12,-800.21 406.98,-802 369.88,-802 332.77,-802 302.62,-800.21 302.62,-798 302.62,-798 302.62,-762 302.62,-762 302.62,-759.79 332.77,-758 369.88,-758 406.98,-758 437.12,-759.79 437.12,-762 437.12,-762 437.12,-798 437.12,-798"/>
<path fill="none" stroke="#334155" stroke-width="1.3" d="M437.12,-798C437.12,-795.79 406.98,-794 369.88,-794 332.77,-794 302.62,-795.79 302.62,-798"/>
<text xml:space="preserve" text-anchor="middle" x="369.88" y="-782.5" font-family="Helvetica,sans-Serif" font-size="10.00" fill="#0f172a">config.yml</text>
<text xml:space="preserve" text-anchor="middle" x="369.88" y="-770.5" font-family="Helvetica,sans-Serif" font-size="10.00" fill="#0f172a">engines · keys · agent opts</text>
</g>
<!-- Root&#45;&gt;cfg -->
<g id="edge1" class="edge">
<title>Root&#45;&gt;cfg</title>
<path fill="none" stroke="#94a3b8" stroke-width="1.1" d="M159.28,-405.7C170.11,-410.21 181.68,-416.77 189.62,-426 287.23,-539.32 189.97,-636.38 290.62,-747 293.03,-749.64 295.67,-752.07 298.49,-754.32"/>
<polygon fill="#94a3b8" stroke="#94a3b8" stroke-width="1.1" points="296.89,-756.18 304.01,-758.25 299.74,-752.19 296.89,-756.18"/>
</g>
<!-- mem -->
<g id="node3" class="node">
<title>mem</title>
<path fill="#fcd34d" stroke="#334155" stroke-width="1.3" d="M437.88,-732C437.88,-734.21 407.4,-736 369.88,-736 332.35,-736 301.88,-734.21 301.88,-732 301.88,-732 301.88,-696 301.88,-696 301.88,-693.79 332.35,-692 369.88,-692 407.4,-692 437.88,-693.79 437.88,-696 437.88,-696 437.88,-732 437.88,-732"/>
<path fill="none" stroke="#334155" stroke-width="1.3" d="M437.88,-732C437.88,-729.79 407.4,-728 369.88,-728 332.35,-728 301.88,-729.79 301.88,-732"/>
<text xml:space="preserve" text-anchor="middle" x="369.88" y="-716.5" font-family="Helvetica,sans-Serif" font-size="10.00" fill="#0f172a">memory.json</text>
<text xml:space="preserve" text-anchor="middle" x="369.88" y="-704.5" font-family="Helvetica,sans-Serif" font-size="10.00" fill="#0f172a">facts · prefs · lessons · env</text>
</g>
<!-- Root&#45;&gt;mem -->
<g id="edge2" class="edge">
<title>Root&#45;&gt;mem</title>
<path fill="none" stroke="#94a3b8" stroke-width="1.1" d="M159.25,-406.13C169.94,-410.68 181.43,-417.15 189.62,-426 272.47,-515.42 205.38,-593.86 290.62,-681 293.32,-683.75 296.28,-686.29 299.42,-688.62"/>
<polygon fill="#94a3b8" stroke="#94a3b8" stroke-width="1.1" points="297.55,-690.31 304.72,-692.2 300.29,-686.25 297.55,-690.31"/>
</g>
<!-- skl -->
<g id="node4" class="node">
<title>skl</title>
<path fill="#fcd34d" stroke="#334155" stroke-width="1.3" d="M436,-666C436,-668.21 406.36,-670 369.88,-670 333.39,-670 303.75,-668.21 303.75,-666 303.75,-666 303.75,-630 303.75,-630 303.75,-627.79 333.39,-626 369.88,-626 406.36,-626 436,-627.79 436,-630 436,-630 436,-666 436,-666"/>
<path fill="none" stroke="#334155" stroke-width="1.3" d="M436,-666C436,-663.79 406.36,-662 369.88,-662 333.39,-662 303.75,-663.79 303.75,-666"/>
<text xml:space="preserve" text-anchor="middle" x="369.88" y="-650.5" font-family="Helvetica,sans-Serif" font-size="10.00" fill="#0f172a">skills/*.md</text>
<text xml:space="preserve" text-anchor="middle" x="369.88" y="-638.5" font-family="Helvetica,sans-Serif" font-size="10.00" fill="#0f172a">reusable procedures + refs</text>
</g>
<!-- Root&#45;&gt;skl -->
<g id="edge3" class="edge">
<title>Root&#45;&gt;skl</title>
<path fill="none" stroke="#94a3b8" stroke-width="1.1" d="M159.35,-406.89C169.8,-411.49 181.1,-417.79 189.62,-426 258.21,-492.08 220.26,-550.81 290.62,-615 293.6,-617.71 296.83,-620.22 300.23,-622.54"/>
<polygon fill="#94a3b8" stroke="#94a3b8" stroke-width="1.1" points="298.77,-624.52 306,-626.16 301.37,-620.37 298.77,-624.52"/>
</g>
<!-- lrn -->
<g id="node5" class="node">
<title>lrn</title>
<path fill="#fcd34d" stroke="#334155" stroke-width="1.3" d="M410.12,-600C410.12,-602.21 392.08,-604 369.88,-604 347.67,-604 329.62,-602.21 329.62,-600 329.62,-600 329.62,-564 329.62,-564 329.62,-561.79 347.67,-560 369.88,-560 392.08,-560 410.12,-561.79 410.12,-564 410.12,-564 410.12,-600 410.12,-600"/>
<path fill="none" stroke="#334155" stroke-width="1.3" d="M410.12,-600C410.12,-597.79 392.08,-596 369.88,-596 347.67,-596 329.62,-597.79 329.62,-600"/>
<text xml:space="preserve" text-anchor="middle" x="369.88" y="-584.5" font-family="Helvetica,sans-Serif" font-size="10.00" fill="#0f172a">learning.jsonl</text>
<text xml:space="preserve" text-anchor="middle" x="369.88" y="-572.5" font-family="Helvetica,sans-Serif" font-size="10.00" fill="#0f172a">task outcomes</text>
</g>
<!-- Root&#45;&gt;lrn -->
<g id="edge4" class="edge">
<title>Root&#45;&gt;lrn</title>
<path fill="none" stroke="#94a3b8" stroke-width="1.1" d="M159.43,-408.25C169.55,-412.9 180.61,-418.88 189.62,-426 245.14,-469.84 233.94,-506.69 290.62,-549 299.85,-555.88 310.72,-561.64 321.38,-566.31"/>
<polygon fill="#94a3b8" stroke="#94a3b8" stroke-width="1.1" points="320.14,-568.45 327.54,-568.88 322.02,-563.92 320.14,-568.45"/>
</g>
<!-- mis -->
<g id="node6" class="node">
<title>mis</title>
<path fill="#fcd34d" stroke="#334155" stroke-width="1.3" d="M449.12,-532.75C449.12,-535.78 413.6,-538.25 369.88,-538.25 326.15,-538.25 290.62,-535.78 290.62,-532.75 290.62,-532.75 290.62,-483.25 290.62,-483.25 290.62,-480.22 326.15,-477.75 369.88,-477.75 413.6,-477.75 449.12,-480.22 449.12,-483.25 449.12,-483.25 449.12,-532.75 449.12,-532.75"/>
<path fill="none" stroke="#334155" stroke-width="1.3" d="M449.12,-532.75C449.12,-529.72 413.6,-527.25 369.88,-527.25 326.15,-527.25 290.62,-529.72 290.62,-532.75"/>
<text xml:space="preserve" text-anchor="middle" x="369.88" y="-516.5" font-family="Helvetica,sans-Serif" font-size="10.00" fill="#0f172a">mistakes.json</text>
<text xml:space="preserve" text-anchor="middle" x="369.88" y="-504.5" font-family="Helvetica,sans-Serif" font-size="10.00" fill="#0f172a">failure fingerprints · fixes</text>
<text xml:space="preserve" text-anchor="middle" x="369.88" y="-492.5" font-family="Helvetica,sans-Serif" font-size="10.00" fill="#0f172a">[REPEATING] · [REGRESSED]</text>
</g>
<!-- Root&#45;&gt;mis -->
<g id="edge5" class="edge">
<title>Root&#45;&gt;mis</title>
<path fill="none" stroke="#94a3b8" stroke-width="1.1" d="M159.4,-410.61C193.72,-426.57 251.81,-453.57 298.12,-475.1"/>
<polygon fill="#94a3b8" stroke="#94a3b8" stroke-width="1.1" points="296.85,-477.21 304.23,-477.94 298.91,-472.77 296.85,-477.21"/>
</g>
<!-- met -->
<g id="node7" class="node">
<title>met</title>
<path fill="#fcd34d" stroke="#334155" stroke-width="1.3" d="M415.75,-452C415.75,-454.21 395.19,-456 369.88,-456 344.56,-456 324,-454.21 324,-452 324,-452 324,-416 324,-416 324,-413.79 344.56,-412 369.88,-412 395.19,-412 415.75,-413.79 415.75,-416 415.75,-416 415.75,-452 415.75,-452"/>
<path fill="none" stroke="#334155" stroke-width="1.3" d="M415.75,-452C415.75,-449.79 395.19,-448 369.88,-448 344.56,-448 324,-449.79 324,-452"/>
<text xml:space="preserve" text-anchor="middle" x="369.88" y="-436.5" font-family="Helvetica,sans-Serif" font-size="10.00" fill="#0f172a">metrics.json</text>
<text xml:space="preserve" text-anchor="middle" x="369.88" y="-424.5" font-family="Helvetica,sans-Serif" font-size="10.00" fill="#0f172a">per&#45;tool telemetry</text>
</g>
<!-- Root&#45;&gt;met -->
<g id="edge6" class="edge">
<title>Root&#45;&gt;met</title>
<path fill="none" stroke="#94a3b8" stroke-width="1.1" d="M159.4,-401.54C198.05,-407.53 266.81,-418.18 314.98,-425.65"/>
<polygon fill="#94a3b8" stroke="#94a3b8" stroke-width="1.1" points="314.49,-428.05 321.78,-426.7 315.24,-423.21 314.49,-428.05"/>
</g>
<!-- ext -->
<g id="node8" class="node">
<title>ext</title>
<path fill="#fcd34d" stroke="#334155" stroke-width="1.3" d="M432.62,-384.75C432.62,-387.78 404.5,-390.25 369.88,-390.25 335.25,-390.25 307.12,-387.78 307.12,-384.75 307.12,-384.75 307.12,-335.25 307.12,-335.25 307.12,-332.22 335.25,-329.75 369.88,-329.75 404.5,-329.75 432.62,-332.22 432.62,-335.25 432.62,-335.25 432.62,-384.75 432.62,-384.75"/>
<path fill="none" stroke="#334155" stroke-width="1.3" d="M432.62,-384.75C432.62,-381.72 404.5,-379.25 369.88,-379.25 335.25,-379.25 307.12,-381.72 307.12,-384.75"/>
<text xml:space="preserve" text-anchor="middle" x="369.88" y="-368.5" font-family="Helvetica,sans-Serif" font-size="10.00" fill="#0f172a">extrospection.json</text>
<text xml:space="preserve" text-anchor="middle" x="369.88" y="-356.5" font-family="Helvetica,sans-Serif" font-size="10.00" fill="#0f172a">host snapshot + rf + web</text>
<text xml:space="preserve" text-anchor="middle" x="369.88" y="-344.5" font-family="Helvetica,sans-Serif" font-size="10.00" fill="#0f172a">+ observations</text>
</g>
<!-- Root&#45;&gt;ext -->
<g id="edge7" class="edge">
<title>Root&#45;&gt;ext</title>
<path fill="none" stroke="#94a3b8" stroke-width="1.1" d="M159.4,-392.46C193.75,-387.14 251.88,-378.13 298.21,-370.95"/>
<polygon fill="#94a3b8" stroke="#94a3b8" stroke-width="1.1" points="298.52,-373.38 305.07,-369.89 297.77,-368.54 298.52,-373.38"/>
</g>
<!-- ses -->
<g id="node10" class="node">
<title>ses</title>
<path fill="#fcd34d" stroke="#334155" stroke-width="1.3" d="M412.38,-304C412.38,-306.21 393.33,-308 369.88,-308 346.42,-308 327.38,-306.21 327.38,-304 327.38,-304 327.38,-268 327.38,-268 327.38,-265.79 346.42,-264 369.88,-264 393.33,-264 412.38,-265.79 412.38,-268 412.38,-268 412.38,-304 412.38,-304"/>
<path fill="none" stroke="#334155" stroke-width="1.3" d="M412.38,-304C412.38,-301.79 393.33,-300 369.88,-300 346.42,-300 327.38,-301.79 327.38,-304"/>
<text xml:space="preserve" text-anchor="middle" x="369.88" y="-288.5" font-family="Helvetica,sans-Serif" font-size="10.00" fill="#0f172a">sessions/*.jsonl</text>
<text xml:space="preserve" text-anchor="middle" x="369.88" y="-276.5" font-family="Helvetica,sans-Serif" font-size="10.00" fill="#0f172a">transcripts</text>
</g>
<!-- Root&#45;&gt;ses -->
<g id="edge8" class="edge">
<title>Root&#45;&gt;ses</title>
<path fill="none" stroke="#94a3b8" stroke-width="1.1" d="M159.48,-382.15C191.5,-366.09 244.35,-339.98 290.62,-319 299.75,-314.86 309.55,-310.59 319.01,-306.56"/>
<polygon fill="#94a3b8" stroke="#94a3b8" stroke-width="1.1" points="319.85,-308.87 325.33,-303.88 317.93,-304.36 319.85,-308.87"/>
</g>
<!-- crn -->
<g id="node11" class="node">
<title>crn</title>
<path fill="#fcd34d" stroke="#334155" stroke-width="1.3" d="M425.5,-238C425.5,-240.21 400.57,-242 369.88,-242 339.18,-242 314.25,-240.21 314.25,-238 314.25,-238 314.25,-202 314.25,-202 314.25,-199.79 339.18,-198 369.88,-198 400.57,-198 425.5,-199.79 425.5,-202 425.5,-202 425.5,-238 425.5,-238"/>
<path fill="none" stroke="#334155" stroke-width="1.3" d="M425.5,-238C425.5,-235.79 400.57,-234 369.88,-234 339.18,-234 314.25,-235.79 314.25,-238"/>
<text xml:space="preserve" text-anchor="middle" x="369.88" y="-222.5" font-family="Helvetica,sans-Serif" font-size="10.00" fill="#0f172a">cron/jobs.yml</text>
<text xml:space="preserve" text-anchor="middle" x="369.88" y="-210.5" font-family="Helvetica,sans-Serif" font-size="10.00" fill="#0f172a">scheduled jobs + logs</text>
</g>
<!-- Root&#45;&gt;crn -->
<g id="edge9" class="edge">
<title>Root&#45;&gt;crn</title>
<path fill="none" stroke="#94a3b8" stroke-width="1.1" d="M146.82,-378.47C174.37,-348.78 232.14,-290.09 290.62,-253 295.59,-249.85 300.91,-246.88 306.34,-244.12"/>
<polygon fill="#94a3b8" stroke="#94a3b8" stroke-width="1.1" points="307.1,-246.47 312.32,-241.2 304.95,-242.07 307.1,-246.47"/>
</g>
<!-- agt -->
<g id="node12" class="node">
<title>agt</title>
<path fill="#fcd34d" stroke="#334155" stroke-width="1.3" d="M412.75,-172C412.75,-174.21 393.53,-176 369.88,-176 346.22,-176 327,-174.21 327,-172 327,-172 327,-136 327,-136 327,-133.79 346.22,-132 369.88,-132 393.53,-132 412.75,-133.79 412.75,-136 412.75,-136 412.75,-172 412.75,-172"/>
<path fill="none" stroke="#334155" stroke-width="1.3" d="M412.75,-172C412.75,-169.79 393.53,-168 369.88,-168 346.22,-168 327,-169.79 327,-172"/>
<text xml:space="preserve" text-anchor="middle" x="369.88" y="-156.5" font-family="Helvetica,sans-Serif" font-size="10.00" fill="#0f172a">agents.yml</text>
<text xml:space="preserve" text-anchor="middle" x="369.88" y="-144.5" font-family="Helvetica,sans-Serif" font-size="10.00" fill="#0f172a">persona registry</text>
</g>
<!-- Root&#45;&gt;agt -->
<g id="edge10" class="edge">
<title>Root&#45;&gt;agt</title>
<path fill="none" stroke="#94a3b8" stroke-width="1.1" d="M139.88,-378.41C161.77,-338.3 218.59,-242.75 290.62,-187 299,-180.52 308.83,-175.08 318.64,-170.6"/>
<polygon fill="#94a3b8" stroke="#94a3b8" stroke-width="1.1" points="319.5,-172.9 324.95,-167.88 317.55,-168.41 319.5,-172.9"/>
</g>
<!-- swm -->
<g id="node13" class="node">
<title>swm</title>
<path fill="#fcd34d" stroke="#334155" stroke-width="1.3" d="M424.75,-106C424.75,-108.21 400.15,-110 369.88,-110 339.6,-110 315,-108.21 315,-106 315,-106 315,-70 315,-70 315,-67.79 339.6,-66 369.88,-66 400.15,-66 424.75,-67.79 424.75,-70 424.75,-70 424.75,-106 424.75,-106"/>
<path fill="none" stroke="#334155" stroke-width="1.3" d="M424.75,-106C424.75,-103.79 400.15,-102 369.88,-102 339.6,-102 315,-103.79 315,-106"/>
<text xml:space="preserve" text-anchor="middle" x="369.88" y="-90.5" font-family="Helvetica,sans-Serif" font-size="10.00" fill="#0f172a">swarm/&lt;id&gt;/bus.jsonl</text>
<text xml:space="preserve" text-anchor="middle" x="369.88" y="-78.5" font-family="Helvetica,sans-Serif" font-size="10.00" fill="#0f172a">multi&#45;agent chat</text>
</g>
<!-- Root&#45;&gt;swm -->
<g id="edge11" class="edge">
<title>Root&#45;&gt;swm</title>
<path fill="none" stroke="#94a3b8" stroke-width="1.1" d="M136.17,-378.51C152.96,-329.82 204.69,-196.61 290.62,-121 295.53,-116.69 301.08,-112.88 306.9,-109.53"/>
<polygon fill="#94a3b8" stroke="#94a3b8" stroke-width="1.1" points="307.91,-111.77 312.93,-106.31 305.6,-107.44 307.91,-111.77"/>
</g>
<!-- hist -->
<g id="node14" class="node">
<title>hist</title>
<path fill="#fcd34d" stroke="#334155" stroke-width="1.3" d="M410.12,-40C410.12,-42.21 392.08,-44 369.88,-44 347.67,-44 329.62,-42.21 329.62,-40 329.62,-40 329.62,-4 329.62,-4 329.62,-1.79 347.67,0 369.88,0 392.08,0 410.12,-1.79 410.12,-4 410.12,-4 410.12,-40 410.12,-40"/>
<path fill="none" stroke="#334155" stroke-width="1.3" d="M410.12,-40C410.12,-37.79 392.08,-36 369.88,-36 347.67,-36 329.62,-37.79 329.62,-40"/>
<text xml:space="preserve" text-anchor="middle" x="369.88" y="-24.5" font-family="Helvetica,sans-Serif" font-size="10.00" fill="#0f172a">~/.pwn_history</text>
<text xml:space="preserve" text-anchor="middle" x="369.88" y="-12.5" font-family="Helvetica,sans-Serif" font-size="10.00" fill="#0f172a">REPL history</text>
</g>
<!-- Root&#45;&gt;hist -->
<g id="edge12" class="edge">
<title>Root&#45;&gt;hist</title>
<path fill="none" stroke="#94a3b8" stroke-width="1.1" d="M133.83,-378.7C146.09,-322.66 190.37,-151.35 290.62,-55 299.26,-46.7 310.31,-40.34 321.35,-35.53"/>
<polygon fill="#94a3b8" stroke="#94a3b8" stroke-width="1.1" points="322.24,-37.81 327.82,-32.92 320.41,-33.27 322.24,-37.81"/>
</g>
<!-- ews -->
<g id="node9" class="node">
<title>ews</title>
<path fill="#fcd34d" stroke="#334155" stroke-width="1.3" d="M189.62,-477C189.62,-479.21 162.51,-481 129.12,-481 95.74,-481 68.62,-479.21 68.62,-477 68.62,-477 68.62,-441 68.62,-441 68.62,-438.79 95.74,-437 129.12,-437 162.51,-437 189.62,-438.79 189.62,-441 189.62,-441 189.62,-477 189.62,-477"/>
<path fill="none" stroke="#334155" stroke-width="1.3" d="M189.62,-477C189.62,-474.79 162.51,-473 129.12,-473 95.74,-473 68.62,-474.79 68.62,-477"/>
<text xml:space="preserve" text-anchor="middle" x="129.12" y="-461.5" font-family="Helvetica,sans-Serif" font-size="10.00" fill="#0f172a">extrospection/web/*.png</text>
<text xml:space="preserve" text-anchor="middle" x="129.12" y="-449.5" font-family="Helvetica,sans-Serif" font-size="10.00" fill="#0f172a">headless screenshots</text>
</g>
</g>
</svg>
