<?xml version="1.0" encoding="UTF-8" standalone="no"?>
<!DOCTYPE svg PUBLIC "-//W3C//DTD SVG 1.1//EN"
 "http://www.w3.org/Graphics/SVG/1.1/DTD/svg11.dtd">
<!-- Generated by graphviz version 14.1.2 (0)
 -->
<!-- Title: PWN_Persistence Pages: 1 -->
<svg width="604pt" height="986pt"
 viewBox="0.00 0.00 604.00 986.00" xmlns="http://www.w3.org/2000/svg" xmlns:xlink="http://www.w3.org/1999/xlink">
<g id="graph0" class="graph" transform="scale(1 1) rotate(0) translate(43.2 942.45)">
<title>PWN_Persistence</title>
<polygon fill="#0f172a" stroke="none" points="-43.2,43.2 -43.2,-942.45 560.95,-942.45 560.95,43.2 -43.2,43.2"/>
<text xml:space="preserve" text-anchor="start" x="8" y="-877.25" font-family="sans-Serif" font-weight="bold" font-size="20.00" fill="#e2e8f0">~/.pwn/ — Everything PWN Persists Across Sessions</text>
<!-- Root -->
<g id="node1" class="node">
<title>Root</title>
<polygon fill="#7dd3fc" stroke="#334155" stroke-width="1.3" points="147.25,-444 144.25,-448 123.25,-448 120.25,-444 87.75,-444 87.75,-408 147.25,-408 147.25,-444"/>
<text xml:space="preserve" text-anchor="middle" x="117.5" y="-421.15" font-family="sans-Serif" font-size="13.00" fill="#0f172a">~/.pwn/</text>
</g>
<!-- cfg -->
<g id="node2" class="node">
<title>cfg</title>
<path fill="#fcd34d" stroke="#334155" stroke-width="1.3" d="M406.38,-864C406.38,-866.21 376.23,-868 339.12,-868 302.02,-868 271.88,-866.21 271.88,-864 271.88,-864 271.88,-828 271.88,-828 271.88,-825.79 302.02,-824 339.12,-824 376.23,-824 406.38,-825.79 406.38,-828 406.38,-828 406.38,-864 406.38,-864"/>
<path fill="none" stroke="#334155" stroke-width="1.3" d="M406.38,-864C406.38,-861.79 376.23,-860 339.12,-860 302.02,-860 271.88,-861.79 271.88,-864"/>
<text xml:space="preserve" text-anchor="middle" x="339.12" y="-848.5" font-family="sans-Serif" font-size="10.00" fill="#0f172a">config.yml</text>
<text xml:space="preserve" text-anchor="middle" x="339.12" y="-836.5" font-family="sans-Serif" font-size="10.00" fill="#0f172a">engines · keys · agent opts</text>
</g>
<!-- Root&#45;&gt;cfg -->
<g id="edge1" class="edge">
<title>Root&#45;&gt;cfg</title>
<path fill="none" stroke="#94a3b8" stroke-width="1.1" d="M119.27,-444.62C122.81,-505.96 142.31,-704 248.25,-813 252.89,-817.78 258.29,-821.87 264.08,-825.37"/>
<polygon fill="#94a3b8" stroke="#94a3b8" stroke-width="1.1" points="262.83,-827.48 270.14,-828.69 265.18,-823.18 262.83,-827.48"/>
</g>
<!-- mem -->
<g id="node3" class="node">
<title>mem</title>
<path fill="#fcd34d" stroke="#334155" stroke-width="1.3" d="M407.12,-798C407.12,-800.21 376.65,-802 339.12,-802 301.6,-802 271.12,-800.21 271.12,-798 271.12,-798 271.12,-762 271.12,-762 271.12,-759.79 301.6,-758 339.12,-758 376.65,-758 407.12,-759.79 407.12,-762 407.12,-762 407.12,-798 407.12,-798"/>
<path fill="none" stroke="#334155" stroke-width="1.3" d="M407.12,-798C407.12,-795.79 376.65,-794 339.12,-794 301.6,-794 271.12,-795.79 271.12,-798"/>
<text xml:space="preserve" text-anchor="middle" x="339.12" y="-782.5" font-family="sans-Serif" font-size="10.00" fill="#0f172a">memory.json</text>
<text xml:space="preserve" text-anchor="middle" x="339.12" y="-770.5" font-family="sans-Serif" font-size="10.00" fill="#0f172a">facts · prefs · lessons · env</text>
</g>
<!-- Root&#45;&gt;mem -->
<g id="edge2" class="edge">
<title>Root&#45;&gt;mem</title>
<path fill="none" stroke="#94a3b8" stroke-width="1.1" d="M120.72,-444.47C128.21,-498.68 157.35,-658.98 248.25,-747 252.68,-751.29 257.72,-755.03 263.09,-758.29"/>
<polygon fill="#94a3b8" stroke="#94a3b8" stroke-width="1.1" points="261.84,-760.4 269.15,-761.64 264.21,-756.11 261.84,-760.4"/>
</g>
<!-- skl -->
<g id="node4" class="node">
<title>skl</title>
<path fill="#fcd34d" stroke="#334155" stroke-width="1.3" d="M405.25,-732C405.25,-734.21 375.61,-736 339.12,-736 302.64,-736 273,-734.21 273,-732 273,-732 273,-696 273,-696 273,-693.79 302.64,-692 339.12,-692 375.61,-692 405.25,-693.79 405.25,-696 405.25,-696 405.25,-732 405.25,-732"/>
<path fill="none" stroke="#334155" stroke-width="1.3" d="M405.25,-732C405.25,-729.79 375.61,-728 339.12,-728 302.64,-728 273,-729.79 273,-732"/>
<text xml:space="preserve" text-anchor="middle" x="339.12" y="-716.5" font-family="sans-Serif" font-size="10.00" fill="#0f172a">skills/*.md</text>
<text xml:space="preserve" text-anchor="middle" x="339.12" y="-704.5" font-family="sans-Serif" font-size="10.00" fill="#0f172a">reusable procedures + refs</text>
</g>
<!-- Root&#45;&gt;skl -->
<g id="edge3" class="edge">
<title>Root&#45;&gt;skl</title>
<path fill="none" stroke="#94a3b8" stroke-width="1.1" d="M122.92,-444.62C134.89,-491.14 172.29,-613.56 248.25,-681 253.23,-685.42 258.86,-689.27 264.8,-692.61"/>
<polygon fill="#94a3b8" stroke="#94a3b8" stroke-width="1.1" points="263.65,-694.78 271,-695.82 265.91,-690.43 263.65,-694.78"/>
</g>
<!-- lrn -->
<g id="node5" class="node">
<title>lrn</title>
<path fill="#fcd34d" stroke="#334155" stroke-width="1.3" d="M379.38,-666C379.38,-668.21 361.33,-670 339.12,-670 316.92,-670 298.88,-668.21 298.88,-666 298.88,-666 298.88,-630 298.88,-630 298.88,-627.79 316.92,-626 339.12,-626 361.33,-626 379.38,-627.79 379.38,-630 379.38,-630 379.38,-666 379.38,-666"/>
<path fill="none" stroke="#334155" stroke-width="1.3" d="M379.38,-666C379.38,-663.79 361.33,-662 339.12,-662 316.92,-662 298.88,-663.79 298.88,-666"/>
<text xml:space="preserve" text-anchor="middle" x="339.12" y="-650.5" font-family="sans-Serif" font-size="10.00" fill="#0f172a">learning.jsonl</text>
<text xml:space="preserve" text-anchor="middle" x="339.12" y="-638.5" font-family="sans-Serif" font-size="10.00" fill="#0f172a">task outcomes</text>
</g>
<!-- Root&#45;&gt;lrn -->
<g id="edge4" class="edge">
<title>Root&#45;&gt;lrn</title>
<path fill="none" stroke="#94a3b8" stroke-width="1.1" d="M126.39,-444.39C143.32,-481.78 186.65,-567.14 248.25,-615 260.54,-624.55 275.87,-631.53 290.37,-636.54"/>
<polygon fill="#94a3b8" stroke="#94a3b8" stroke-width="1.1" points="289.31,-638.78 296.73,-638.61 290.83,-634.12 289.31,-638.78"/>
</g>
<!-- mis -->
<g id="node6" class="node">
<title>mis</title>
<path fill="#fcd34d" stroke="#334155" stroke-width="1.3" d="M418.38,-598.75C418.38,-601.78 382.85,-604.25 339.12,-604.25 295.4,-604.25 259.88,-601.78 259.88,-598.75 259.88,-598.75 259.88,-549.25 259.88,-549.25 259.88,-546.22 295.4,-543.75 339.12,-543.75 382.85,-543.75 418.38,-546.22 418.38,-549.25 418.38,-549.25 418.38,-598.75 418.38,-598.75"/>
<path fill="none" stroke="#334155" stroke-width="1.3" d="M418.38,-598.75C418.38,-595.72 382.85,-593.25 339.12,-593.25 295.4,-593.25 259.88,-595.72 259.88,-598.75"/>
<text xml:space="preserve" text-anchor="middle" x="339.12" y="-582.5" font-family="sans-Serif" font-size="10.00" fill="#0f172a">mistakes.json</text>
<text xml:space="preserve" text-anchor="middle" x="339.12" y="-570.5" font-family="sans-Serif" font-size="10.00" fill="#0f172a">failure fingerprints · fixes</text>
<text xml:space="preserve" text-anchor="middle" x="339.12" y="-558.5" font-family="sans-Serif" font-size="10.00" fill="#0f172a">[REPEATING] · [REGRESSED]</text>
</g>
<!-- Root&#45;&gt;mis -->
<g id="edge5" class="edge">
<title>Root&#45;&gt;mis</title>
<path fill="none" stroke="#94a3b8" stroke-width="1.1" d="M137.49,-444.4C161.73,-467.23 205.67,-506.38 248.25,-533 252.64,-535.74 257.24,-538.41 261.95,-540.98"/>
<polygon fill="#94a3b8" stroke="#94a3b8" stroke-width="1.1" points="260.61,-543.05 267.95,-544.16 262.91,-538.72 260.61,-543.05"/>
</g>
<!-- met -->
<g id="node7" class="node">
<title>met</title>
<path fill="#fcd34d" stroke="#334155" stroke-width="1.3" d="M385,-518C385,-520.21 364.44,-522 339.12,-522 313.81,-522 293.25,-520.21 293.25,-518 293.25,-518 293.25,-482 293.25,-482 293.25,-479.79 313.81,-478 339.12,-478 364.44,-478 385,-479.79 385,-482 385,-482 385,-518 385,-518"/>
<path fill="none" stroke="#334155" stroke-width="1.3" d="M385,-518C385,-515.79 364.44,-514 339.12,-514 313.81,-514 293.25,-515.79 293.25,-518"/>
<text xml:space="preserve" text-anchor="middle" x="339.12" y="-502.5" font-family="sans-Serif" font-size="10.00" fill="#0f172a">metrics.json</text>
<text xml:space="preserve" text-anchor="middle" x="339.12" y="-490.5" font-family="sans-Serif" font-size="10.00" fill="#0f172a">per&#45;tool telemetry</text>
</g>
<!-- Root&#45;&gt;met -->
<g id="edge6" class="edge">
<title>Root&#45;&gt;met</title>
<path fill="none" stroke="#94a3b8" stroke-width="1.1" d="M147.66,-435.83C182.52,-447.57 241.55,-467.46 284.67,-481.99"/>
<polygon fill="#94a3b8" stroke="#94a3b8" stroke-width="1.1" points="283.8,-484.28 291.22,-484.2 285.37,-479.64 283.8,-484.28"/>
</g>
<!-- ext -->
<g id="node8" class="node">
<title>ext</title>
<path fill="#fcd34d" stroke="#334155" stroke-width="1.3" d="M430,-450.75C430,-453.78 389.27,-456.25 339.12,-456.25 288.98,-456.25 248.25,-453.78 248.25,-450.75 248.25,-450.75 248.25,-401.25 248.25,-401.25 248.25,-398.22 288.98,-395.75 339.12,-395.75 389.27,-395.75 430,-398.22 430,-401.25 430,-401.25 430,-450.75 430,-450.75"/>
<path fill="none" stroke="#334155" stroke-width="1.3" d="M430,-450.75C430,-447.72 389.27,-445.25 339.12,-445.25 288.98,-445.25 248.25,-447.72 248.25,-450.75"/>
<text xml:space="preserve" text-anchor="middle" x="339.12" y="-434.5" font-family="sans-Serif" font-size="10.00" fill="#0f172a">extrospection.json</text>
<text xml:space="preserve" text-anchor="middle" x="339.12" y="-422.5" font-family="sans-Serif" font-size="10.00" fill="#0f172a">snapshot (host/net/tc/repo/env/rf/web)</text>
<text xml:space="preserve" text-anchor="middle" x="339.12" y="-410.5" font-family="sans-Serif" font-size="10.00" fill="#0f172a">+ previous + observations[]</text>
</g>
<!-- Root&#45;&gt;ext -->
<g id="edge7" class="edge">
<title>Root&#45;&gt;ext</title>
<path fill="none" stroke="#94a3b8" stroke-width="1.1" d="M147.66,-426C171.33,-426 206.13,-426 239.53,-426"/>
<polygon fill="#94a3b8" stroke="#94a3b8" stroke-width="1.1" points="239.32,-428.45 246.32,-426 239.32,-423.55 239.32,-428.45"/>
</g>
<!-- ews -->
<g id="node9" class="node">
<title>ews</title>
<path fill="#fcd34d" stroke="#334155" stroke-width="1.3" d="M415.38,-370C415.38,-372.21 381.2,-374 339.12,-374 297.05,-374 262.88,-372.21 262.88,-370 262.88,-370 262.88,-334 262.88,-334 262.88,-331.79 297.05,-330 339.12,-330 381.2,-330 415.38,-331.79 415.38,-334 415.38,-334 415.38,-370 415.38,-370"/>
<path fill="none" stroke="#334155" stroke-width="1.3" d="M415.38,-370C415.38,-367.79 381.2,-366 339.12,-366 297.05,-366 262.88,-367.79 262.88,-370"/>
<text xml:space="preserve" text-anchor="middle" x="339.12" y="-354.5" font-family="sans-Serif" font-size="10.00" fill="#0f172a">extrospection/web/*.png</text>
<text xml:space="preserve" text-anchor="middle" x="339.12" y="-342.5" font-family="sans-Serif" font-size="10.00" fill="#0f172a">probe_web / extro_watch shots</text>
</g>
<!-- Root&#45;&gt;ews -->
<g id="edge8" class="edge">
<title>Root&#45;&gt;ews</title>
<path fill="none" stroke="#94a3b8" stroke-width="1.1" d="M147.66,-416.17C177.86,-406 226.18,-389.72 266.59,-376.1"/>
<polygon fill="#94a3b8" stroke="#94a3b8" stroke-width="1.1" points="267.13,-378.51 272.98,-373.95 265.57,-373.86 267.13,-378.51"/>
</g>
<!-- ses -->
<g id="node10" class="node">
<title>ses</title>
<path fill="#fcd34d" stroke="#334155" stroke-width="1.3" d="M381.62,-304C381.62,-306.21 362.58,-308 339.12,-308 315.67,-308 296.62,-306.21 296.62,-304 296.62,-304 296.62,-268 296.62,-268 296.62,-265.79 315.67,-264 339.12,-264 362.58,-264 381.62,-265.79 381.62,-268 381.62,-268 381.62,-304 381.62,-304"/>
<path fill="none" stroke="#334155" stroke-width="1.3" d="M381.62,-304C381.62,-301.79 362.58,-300 339.12,-300 315.67,-300 296.62,-301.79 296.62,-304"/>
<text xml:space="preserve" text-anchor="middle" x="339.12" y="-288.5" font-family="sans-Serif" font-size="10.00" fill="#0f172a">sessions/*.jsonl</text>
<text xml:space="preserve" text-anchor="middle" x="339.12" y="-276.5" font-family="sans-Serif" font-size="10.00" fill="#0f172a">transcripts</text>
</g>
<!-- Root&#45;&gt;ses -->
<g id="edge9" class="edge">
<title>Root&#45;&gt;ses</title>
<path fill="none" stroke="#94a3b8" stroke-width="1.1" d="M136.76,-407.48C160.58,-384.16 204.43,-344.13 248.25,-319 260.55,-311.95 274.63,-305.93 287.94,-301.04"/>
<polygon fill="#94a3b8" stroke="#94a3b8" stroke-width="1.1" points="288.76,-303.35 294.53,-298.7 287.12,-298.73 288.76,-303.35"/>
</g>
<!-- crn -->
<g id="node11" class="node">
<title>crn</title>
<path fill="#fcd34d" stroke="#334155" stroke-width="1.3" d="M394.75,-238C394.75,-240.21 369.82,-242 339.12,-242 308.43,-242 283.5,-240.21 283.5,-238 283.5,-238 283.5,-202 283.5,-202 283.5,-199.79 308.43,-198 339.12,-198 369.82,-198 394.75,-199.79 394.75,-202 394.75,-202 394.75,-238 394.75,-238"/>
<path fill="none" stroke="#334155" stroke-width="1.3" d="M394.75,-238C394.75,-235.79 369.82,-234 339.12,-234 308.43,-234 283.5,-235.79 283.5,-238"/>
<text xml:space="preserve" text-anchor="middle" x="339.12" y="-222.5" font-family="sans-Serif" font-size="10.00" fill="#0f172a">cron/jobs.yml</text>
<text xml:space="preserve" text-anchor="middle" x="339.12" y="-210.5" font-family="sans-Serif" font-size="10.00" fill="#0f172a">scheduled jobs + logs</text>
</g>
<!-- Root&#45;&gt;crn -->
<g id="edge10" class="edge">
<title>Root&#45;&gt;crn</title>
<path fill="none" stroke="#94a3b8" stroke-width="1.1" d="M127.64,-407.58C145.89,-372.62 190.11,-296.25 248.25,-253 256.46,-246.89 265.91,-241.82 275.54,-237.63"/>
<polygon fill="#94a3b8" stroke="#94a3b8" stroke-width="1.1" points="276.2,-240.01 281.74,-235.08 274.34,-235.47 276.2,-240.01"/>
</g>
<!-- agt -->
<g id="node12" class="node">
<title>agt</title>
<path fill="#fcd34d" stroke="#334155" stroke-width="1.3" d="M382,-172C382,-174.21 362.78,-176 339.12,-176 315.47,-176 296.25,-174.21 296.25,-172 296.25,-172 296.25,-136 296.25,-136 296.25,-133.79 315.47,-132 339.12,-132 362.78,-132 382,-133.79 382,-136 382,-136 382,-172 382,-172"/>
<path fill="none" stroke="#334155" stroke-width="1.3" d="M382,-172C382,-169.79 362.78,-168 339.12,-168 315.47,-168 296.25,-169.79 296.25,-172"/>
<text xml:space="preserve" text-anchor="middle" x="339.12" y="-156.5" font-family="sans-Serif" font-size="10.00" fill="#0f172a">agents.yml</text>
<text xml:space="preserve" text-anchor="middle" x="339.12" y="-144.5" font-family="sans-Serif" font-size="10.00" fill="#0f172a">persona registry</text>
</g>
<!-- Root&#45;&gt;agt -->
<g id="edge11" class="edge">
<title>Root&#45;&gt;agt</title>
<path fill="none" stroke="#94a3b8" stroke-width="1.1" d="M123.56,-407.57C136.64,-363.23 175.73,-249.67 248.25,-187 259.5,-177.28 273.86,-170.32 287.78,-165.39"/>
<polygon fill="#94a3b8" stroke="#94a3b8" stroke-width="1.1" points="288.44,-167.75 294.32,-163.23 286.91,-163.09 288.44,-167.75"/>
</g>
<!-- swm -->
<g id="node13" class="node">
<title>swm</title>
<path fill="#fcd34d" stroke="#334155" stroke-width="1.3" d="M394,-106C394,-108.21 369.4,-110 339.12,-110 308.85,-110 284.25,-108.21 284.25,-106 284.25,-106 284.25,-70 284.25,-70 284.25,-67.79 308.85,-66 339.12,-66 369.4,-66 394,-67.79 394,-70 394,-70 394,-106 394,-106"/>
<path fill="none" stroke="#334155" stroke-width="1.3" d="M394,-106C394,-103.79 369.4,-102 339.12,-102 308.85,-102 284.25,-103.79 284.25,-106"/>
<text xml:space="preserve" text-anchor="middle" x="339.12" y="-90.5" font-family="sans-Serif" font-size="10.00" fill="#0f172a">swarm/&lt;id&gt;/bus.jsonl</text>
<text xml:space="preserve" text-anchor="middle" x="339.12" y="-78.5" font-family="sans-Serif" font-size="10.00" fill="#0f172a">multi&#45;agent chat</text>
</g>
<!-- Root&#45;&gt;swm -->
<g id="edge12" class="edge">
<title>Root&#45;&gt;swm</title>
<path fill="none" stroke="#94a3b8" stroke-width="1.1" d="M121.14,-407.69C129.62,-355.44 160.89,-204.07 248.25,-121 256.12,-113.52 265.83,-107.7 275.92,-103.19"/>
<polygon fill="#94a3b8" stroke="#94a3b8" stroke-width="1.1" points="276.62,-105.56 282.16,-100.63 274.75,-101.03 276.62,-105.56"/>
</g>
<!-- hist -->
<g id="node14" class="node">
<title>hist</title>
<path fill="#fcd34d" stroke="#334155" stroke-width="1.3" d="M379.38,-40C379.38,-42.21 361.33,-44 339.12,-44 316.92,-44 298.88,-42.21 298.88,-40 298.88,-40 298.88,-4 298.88,-4 298.88,-1.79 316.92,0 339.12,0 361.33,0 379.38,-1.79 379.38,-4 379.38,-4 379.38,-40 379.38,-40"/>
<path fill="none" stroke="#334155" stroke-width="1.3" d="M379.38,-40C379.38,-37.79 361.33,-36 339.12,-36 316.92,-36 298.88,-37.79 298.88,-40"/>
<text xml:space="preserve" text-anchor="middle" x="339.12" y="-24.5" font-family="sans-Serif" font-size="10.00" fill="#0f172a">~/.pwn_history</text>
<text xml:space="preserve" text-anchor="middle" x="339.12" y="-12.5" font-family="sans-Serif" font-size="10.00" fill="#0f172a">REPL history</text>
</g>
<!-- Root&#45;&gt;hist -->
<g id="edge13" class="edge">
<title>Root&#45;&gt;hist</title>
<path fill="none" stroke="#94a3b8" stroke-width="1.1" d="M119.56,-407.72C123.96,-348.39 145.8,-159.05 248.25,-55 259.57,-43.51 275.22,-35.99 290.29,-31.08"/>
<polygon fill="#94a3b8" stroke="#94a3b8" stroke-width="1.1" points="290.97,-33.43 296.98,-29.08 289.57,-28.74 290.97,-33.43"/>
</g>
</g>
</svg>
