<?xml version="1.0" encoding="UTF-8" standalone="no"?>
<!DOCTYPE svg PUBLIC "-//W3C//DTD SVG 1.1//EN"
 "http://www.w3.org/Graphics/SVG/1.1/DTD/svg11.dtd">
<!-- Generated by graphviz version 14.1.2 (0)
 -->
<!-- Title: PWN_Persistence Pages: 1 -->
<svg width="604pt" height="904pt"
 viewBox="0.00 0.00 604.00 904.00" xmlns="http://www.w3.org/2000/svg" xmlns:xlink="http://www.w3.org/1999/xlink">
<g id="graph0" class="graph" transform="scale(1 1) rotate(0) translate(43.2 860.45)">
<title>PWN_Persistence</title>
<polygon fill="#0f172a" stroke="none" points="-43.2,43.2 -43.2,-860.45 560.95,-860.45 560.95,43.2 -43.2,43.2"/>
<text xml:space="preserve" text-anchor="start" x="8" y="-795.25" font-family="sans-Serif" font-weight="bold" font-size="20.00" fill="#e2e8f0">~/.pwn/ — Everything PWN Persists Across Sessions</text>
<!-- Root -->
<g id="node1" class="node">
<title>Root</title>
<polygon fill="#7dd3fc" stroke="#334155" stroke-width="1.3" points="156.62,-403 153.62,-407 132.62,-407 129.62,-403 97.12,-403 97.12,-367 156.62,-367 156.62,-403"/>
<text xml:space="preserve" text-anchor="middle" x="126.88" y="-380.15" font-family="sans-Serif" font-size="13.00" fill="#0f172a">~/.pwn/</text>
</g>
<!-- cfg -->
<g id="node2" class="node">
<title>cfg</title>
<path fill="#fcd34d" stroke="#334155" stroke-width="1.3" d="M406.38,-782C406.38,-784.21 376.23,-786 339.12,-786 302.02,-786 271.88,-784.21 271.88,-782 271.88,-782 271.88,-746 271.88,-746 271.88,-743.79 302.02,-742 339.12,-742 376.23,-742 406.38,-743.79 406.38,-746 406.38,-746 406.38,-782 406.38,-782"/>
<path fill="none" stroke="#334155" stroke-width="1.3" d="M406.38,-782C406.38,-779.79 376.23,-778 339.12,-778 302.02,-778 271.88,-779.79 271.88,-782"/>
<text xml:space="preserve" text-anchor="middle" x="339.12" y="-766.5" font-family="sans-Serif" font-size="10.00" fill="#0f172a">config.yml</text>
<text xml:space="preserve" text-anchor="middle" x="339.12" y="-754.5" font-family="sans-Serif" font-size="10.00" fill="#0f172a">engines · keys · agent opts</text>
</g>
<!-- Root&#45;&gt;cfg -->
<g id="edge1" class="edge">
<title>Root&#45;&gt;cfg</title>
<path fill="none" stroke="#94a3b8" stroke-width="1.1" d="M129.66,-403.5C136.09,-460.16 162.92,-633.38 257.62,-731 260.31,-733.77 263.26,-736.31 266.4,-738.65"/>
<polygon fill="#94a3b8" stroke="#94a3b8" stroke-width="1.1" points="264.52,-740.34 271.69,-742.23 267.26,-736.28 264.52,-740.34"/>
</g>
<!-- mem -->
<g id="node3" class="node">
<title>mem</title>
<path fill="#fcd34d" stroke="#334155" stroke-width="1.3" d="M407.12,-716C407.12,-718.21 376.65,-720 339.12,-720 301.6,-720 271.12,-718.21 271.12,-716 271.12,-716 271.12,-680 271.12,-680 271.12,-677.79 301.6,-676 339.12,-676 376.65,-676 407.12,-677.79 407.12,-680 407.12,-680 407.12,-716 407.12,-716"/>
<path fill="none" stroke="#334155" stroke-width="1.3" d="M407.12,-716C407.12,-713.79 376.65,-712 339.12,-712 301.6,-712 271.12,-713.79 271.12,-716"/>
<text xml:space="preserve" text-anchor="middle" x="339.12" y="-700.5" font-family="sans-Serif" font-size="10.00" fill="#0f172a">memory.json</text>
<text xml:space="preserve" text-anchor="middle" x="339.12" y="-688.5" font-family="sans-Serif" font-size="10.00" fill="#0f172a">facts · prefs · lessons · env</text>
</g>
<!-- Root&#45;&gt;mem -->
<g id="edge2" class="edge">
<title>Root&#45;&gt;mem</title>
<path fill="none" stroke="#94a3b8" stroke-width="1.1" d="M131.51,-403.42C142.1,-452.59 177.46,-588.36 257.62,-665 260.4,-667.66 263.42,-670.11 266.61,-672.37"/>
<polygon fill="#94a3b8" stroke="#94a3b8" stroke-width="1.1" points="265.22,-674.39 272.43,-676.13 267.88,-670.28 265.22,-674.39"/>
</g>
<!-- skl -->
<g id="node4" class="node">
<title>skl</title>
<path fill="#fcd34d" stroke="#334155" stroke-width="1.3" d="M405.25,-650C405.25,-652.21 375.61,-654 339.12,-654 302.64,-654 273,-652.21 273,-650 273,-650 273,-614 273,-614 273,-611.79 302.64,-610 339.12,-610 375.61,-610 405.25,-611.79 405.25,-614 405.25,-614 405.25,-650 405.25,-650"/>
<path fill="none" stroke="#334155" stroke-width="1.3" d="M405.25,-650C405.25,-647.79 375.61,-646 339.12,-646 302.64,-646 273,-647.79 273,-650"/>
<text xml:space="preserve" text-anchor="middle" x="339.12" y="-634.5" font-family="sans-Serif" font-size="10.00" fill="#0f172a">skills/*.md</text>
<text xml:space="preserve" text-anchor="middle" x="339.12" y="-622.5" font-family="sans-Serif" font-size="10.00" fill="#0f172a">reusable procedures + refs</text>
</g>
<!-- Root&#45;&gt;skl -->
<g id="edge3" class="edge">
<title>Root&#45;&gt;skl</title>
<path fill="none" stroke="#94a3b8" stroke-width="1.1" d="M134.42,-403.44C149.75,-444.17 191.74,-542.67 257.62,-599 260.91,-601.81 264.47,-604.41 268.2,-606.8"/>
<polygon fill="#94a3b8" stroke="#94a3b8" stroke-width="1.1" points="266.85,-608.85 274.13,-610.31 269.35,-604.63 266.85,-608.85"/>
</g>
<!-- lrn -->
<g id="node5" class="node">
<title>lrn</title>
<path fill="#fcd34d" stroke="#334155" stroke-width="1.3" d="M379.38,-584C379.38,-586.21 361.33,-588 339.12,-588 316.92,-588 298.88,-586.21 298.88,-584 298.88,-584 298.88,-548 298.88,-548 298.88,-545.79 316.92,-544 339.12,-544 361.33,-544 379.38,-545.79 379.38,-548 379.38,-548 379.38,-584 379.38,-584"/>
<path fill="none" stroke="#334155" stroke-width="1.3" d="M379.38,-584C379.38,-581.79 361.33,-580 339.12,-580 316.92,-580 298.88,-581.79 298.88,-584"/>
<text xml:space="preserve" text-anchor="middle" x="339.12" y="-568.5" font-family="sans-Serif" font-size="10.00" fill="#0f172a">learning.jsonl</text>
<text xml:space="preserve" text-anchor="middle" x="339.12" y="-556.5" font-family="sans-Serif" font-size="10.00" fill="#0f172a">task outcomes</text>
</g>
<!-- Root&#45;&gt;lrn -->
<g id="edge4" class="edge">
<title>Root&#45;&gt;lrn</title>
<path fill="none" stroke="#94a3b8" stroke-width="1.1" d="M139.74,-403.37C160.36,-434.01 205.62,-495.87 257.62,-533 267.61,-540.13 279.37,-546.06 290.77,-550.83"/>
<polygon fill="#94a3b8" stroke="#94a3b8" stroke-width="1.1" points="289.62,-553.01 297.03,-553.33 291.44,-548.46 289.62,-553.01"/>
</g>
<!-- mis -->
<g id="node6" class="node">
<title>mis</title>
<path fill="#fcd34d" stroke="#334155" stroke-width="1.3" d="M418.38,-516.75C418.38,-519.78 382.85,-522.25 339.12,-522.25 295.4,-522.25 259.88,-519.78 259.88,-516.75 259.88,-516.75 259.88,-467.25 259.88,-467.25 259.88,-464.22 295.4,-461.75 339.12,-461.75 382.85,-461.75 418.38,-464.22 418.38,-467.25 418.38,-467.25 418.38,-516.75 418.38,-516.75"/>
<path fill="none" stroke="#334155" stroke-width="1.3" d="M418.38,-516.75C418.38,-513.72 382.85,-511.25 339.12,-511.25 295.4,-511.25 259.88,-513.72 259.88,-516.75"/>
<text xml:space="preserve" text-anchor="middle" x="339.12" y="-500.5" font-family="sans-Serif" font-size="10.00" fill="#0f172a">mistakes.json</text>
<text xml:space="preserve" text-anchor="middle" x="339.12" y="-488.5" font-family="sans-Serif" font-size="10.00" fill="#0f172a">failure fingerprints · fixes</text>
<text xml:space="preserve" text-anchor="middle" x="339.12" y="-476.5" font-family="sans-Serif" font-size="10.00" fill="#0f172a">[REPEATING] · [REGRESSED]</text>
</g>
<!-- Root&#45;&gt;mis -->
<g id="edge5" class="edge">
<title>Root&#45;&gt;mis</title>
<path fill="none" stroke="#94a3b8" stroke-width="1.1" d="M157.11,-399.88C186.73,-414.95 233.56,-438.78 272.16,-458.43"/>
<polygon fill="#94a3b8" stroke="#94a3b8" stroke-width="1.1" points="270.93,-460.55 278.28,-461.55 273.16,-456.19 270.93,-460.55"/>
</g>
<!-- met -->
<g id="node7" class="node">
<title>met</title>
<path fill="#fcd34d" stroke="#334155" stroke-width="1.3" d="M385,-436C385,-438.21 364.44,-440 339.12,-440 313.81,-440 293.25,-438.21 293.25,-436 293.25,-436 293.25,-400 293.25,-400 293.25,-397.79 313.81,-396 339.12,-396 364.44,-396 385,-397.79 385,-400 385,-400 385,-436 385,-436"/>
<path fill="none" stroke="#334155" stroke-width="1.3" d="M385,-436C385,-433.79 364.44,-432 339.12,-432 313.81,-432 293.25,-433.79 293.25,-436"/>
<text xml:space="preserve" text-anchor="middle" x="339.12" y="-420.5" font-family="sans-Serif" font-size="10.00" fill="#0f172a">metrics.json</text>
<text xml:space="preserve" text-anchor="middle" x="339.12" y="-408.5" font-family="sans-Serif" font-size="10.00" fill="#0f172a">per&#45;tool telemetry</text>
</g>
<!-- Root&#45;&gt;met -->
<g id="edge6" class="edge">
<title>Root&#45;&gt;met</title>
<path fill="none" stroke="#94a3b8" stroke-width="1.1" d="M157.11,-389.59C189.98,-394.75 244.03,-403.23 284.53,-409.59"/>
<polygon fill="#94a3b8" stroke="#94a3b8" stroke-width="1.1" points="284.02,-411.99 291.31,-410.65 284.78,-407.15 284.02,-411.99"/>
</g>
<!-- ext -->
<g id="node8" class="node">
<title>ext</title>
<path fill="#fcd34d" stroke="#334155" stroke-width="1.3" d="M420.62,-370C420.62,-372.21 384.1,-374 339.12,-374 294.15,-374 257.62,-372.21 257.62,-370 257.62,-370 257.62,-334 257.62,-334 257.62,-331.79 294.15,-330 339.12,-330 384.1,-330 420.62,-331.79 420.62,-334 420.62,-334 420.62,-370 420.62,-370"/>
<path fill="none" stroke="#334155" stroke-width="1.3" d="M420.62,-370C420.62,-367.79 384.1,-366 339.12,-366 294.15,-366 257.62,-367.79 257.62,-370"/>
<text xml:space="preserve" text-anchor="middle" x="339.12" y="-354.5" font-family="sans-Serif" font-size="10.00" fill="#0f172a">extrospection.json</text>
<text xml:space="preserve" text-anchor="middle" x="339.12" y="-342.5" font-family="sans-Serif" font-size="10.00" fill="#0f172a">host snapshot + rf + observations</text>
</g>
<!-- Root&#45;&gt;ext -->
<g id="edge7" class="edge">
<title>Root&#45;&gt;ext</title>
<path fill="none" stroke="#94a3b8" stroke-width="1.1" d="M157.11,-380.41C180.93,-376.67 215.88,-371.19 248.73,-366.03"/>
<polygon fill="#94a3b8" stroke="#94a3b8" stroke-width="1.1" points="248.85,-368.49 255.39,-364.99 248.09,-363.65 248.85,-368.49"/>
</g>
<!-- ses -->
<g id="node9" class="node">
<title>ses</title>
<path fill="#fcd34d" stroke="#334155" stroke-width="1.3" d="M381.62,-304C381.62,-306.21 362.58,-308 339.12,-308 315.67,-308 296.62,-306.21 296.62,-304 296.62,-304 296.62,-268 296.62,-268 296.62,-265.79 315.67,-264 339.12,-264 362.58,-264 381.62,-265.79 381.62,-268 381.62,-268 381.62,-304 381.62,-304"/>
<path fill="none" stroke="#334155" stroke-width="1.3" d="M381.62,-304C381.62,-301.79 362.58,-300 339.12,-300 315.67,-300 296.62,-301.79 296.62,-304"/>
<text xml:space="preserve" text-anchor="middle" x="339.12" y="-288.5" font-family="sans-Serif" font-size="10.00" fill="#0f172a">sessions/*.jsonl</text>
<text xml:space="preserve" text-anchor="middle" x="339.12" y="-276.5" font-family="sans-Serif" font-size="10.00" fill="#0f172a">transcripts</text>
</g>
<!-- Root&#45;&gt;ses -->
<g id="edge8" class="edge">
<title>Root&#45;&gt;ses</title>
<path fill="none" stroke="#94a3b8" stroke-width="1.1" d="M157.17,-369.23C183.25,-355.41 222.59,-335.06 257.62,-319 267.47,-314.49 278.12,-309.91 288.35,-305.66"/>
<polygon fill="#94a3b8" stroke="#94a3b8" stroke-width="1.1" points="288.99,-308.05 294.53,-303.12 287.12,-303.52 288.99,-308.05"/>
</g>
<!-- crn -->
<g id="node10" class="node">
<title>crn</title>
<path fill="#fcd34d" stroke="#334155" stroke-width="1.3" d="M394.75,-238C394.75,-240.21 369.82,-242 339.12,-242 308.43,-242 283.5,-240.21 283.5,-238 283.5,-238 283.5,-202 283.5,-202 283.5,-199.79 308.43,-198 339.12,-198 369.82,-198 394.75,-199.79 394.75,-202 394.75,-202 394.75,-238 394.75,-238"/>
<path fill="none" stroke="#334155" stroke-width="1.3" d="M394.75,-238C394.75,-235.79 369.82,-234 339.12,-234 308.43,-234 283.5,-235.79 283.5,-238"/>
<text xml:space="preserve" text-anchor="middle" x="339.12" y="-222.5" font-family="sans-Serif" font-size="10.00" fill="#0f172a">cron/jobs.yml</text>
<text xml:space="preserve" text-anchor="middle" x="339.12" y="-210.5" font-family="sans-Serif" font-size="10.00" fill="#0f172a">scheduled jobs + logs</text>
</g>
<!-- Root&#45;&gt;crn -->
<g id="edge9" class="edge">
<title>Root&#45;&gt;crn</title>
<path fill="none" stroke="#94a3b8" stroke-width="1.1" d="M141.96,-366.46C163.98,-338.57 209.08,-285.61 257.62,-253 263.09,-249.33 269.03,-245.95 275.12,-242.87"/>
<polygon fill="#94a3b8" stroke="#94a3b8" stroke-width="1.1" points="276.15,-245.1 281.4,-239.86 274.02,-240.68 276.15,-245.1"/>
</g>
<!-- agt -->
<g id="node11" class="node">
<title>agt</title>
<path fill="#fcd34d" stroke="#334155" stroke-width="1.3" d="M382,-172C382,-174.21 362.78,-176 339.12,-176 315.47,-176 296.25,-174.21 296.25,-172 296.25,-172 296.25,-136 296.25,-136 296.25,-133.79 315.47,-132 339.12,-132 362.78,-132 382,-133.79 382,-136 382,-136 382,-172 382,-172"/>
<path fill="none" stroke="#334155" stroke-width="1.3" d="M382,-172C382,-169.79 362.78,-168 339.12,-168 315.47,-168 296.25,-169.79 296.25,-172"/>
<text xml:space="preserve" text-anchor="middle" x="339.12" y="-156.5" font-family="sans-Serif" font-size="10.00" fill="#0f172a">agents.yml</text>
<text xml:space="preserve" text-anchor="middle" x="339.12" y="-144.5" font-family="sans-Serif" font-size="10.00" fill="#0f172a">persona registry</text>
</g>
<!-- Root&#45;&gt;agt -->
<g id="edge10" class="edge">
<title>Root&#45;&gt;agt</title>
<path fill="none" stroke="#94a3b8" stroke-width="1.1" d="M135.42,-366.51C152,-328 195.18,-238.53 257.62,-187 266.53,-179.65 277.3,-173.75 288.02,-169.08"/>
<polygon fill="#94a3b8" stroke="#94a3b8" stroke-width="1.1" points="288.7,-171.45 294.25,-166.53 286.84,-166.92 288.7,-171.45"/>
</g>
<!-- swm -->
<g id="node12" class="node">
<title>swm</title>
<path fill="#fcd34d" stroke="#334155" stroke-width="1.3" d="M394,-106C394,-108.21 369.4,-110 339.12,-110 308.85,-110 284.25,-108.21 284.25,-106 284.25,-106 284.25,-70 284.25,-70 284.25,-67.79 308.85,-66 339.12,-66 369.4,-66 394,-67.79 394,-70 394,-70 394,-106 394,-106"/>
<path fill="none" stroke="#334155" stroke-width="1.3" d="M394,-106C394,-103.79 369.4,-102 339.12,-102 308.85,-102 284.25,-103.79 284.25,-106"/>
<text xml:space="preserve" text-anchor="middle" x="339.12" y="-90.5" font-family="sans-Serif" font-size="10.00" fill="#0f172a">swarm/&lt;id&gt;/bus.jsonl</text>
<text xml:space="preserve" text-anchor="middle" x="339.12" y="-78.5" font-family="sans-Serif" font-size="10.00" fill="#0f172a">multi&#45;agent chat</text>
</g>
<!-- Root&#45;&gt;swm -->
<g id="edge11" class="edge">
<title>Root&#45;&gt;swm</title>
<path fill="none" stroke="#94a3b8" stroke-width="1.1" d="M132.08,-366.6C143.76,-319.39 180.94,-192.65 257.62,-121 263.14,-115.85 269.56,-111.45 276.33,-107.71"/>
<polygon fill="#94a3b8" stroke="#94a3b8" stroke-width="1.1" points="277.19,-110.03 282.31,-104.66 274.96,-105.66 277.19,-110.03"/>
</g>
<!-- hist -->
<g id="node13" class="node">
<title>hist</title>
<path fill="#fcd34d" stroke="#334155" stroke-width="1.3" d="M379.38,-40C379.38,-42.21 361.33,-44 339.12,-44 316.92,-44 298.88,-42.21 298.88,-40 298.88,-40 298.88,-4 298.88,-4 298.88,-1.79 316.92,0 339.12,0 361.33,0 379.38,-1.79 379.38,-4 379.38,-4 379.38,-40 379.38,-40"/>
<path fill="none" stroke="#334155" stroke-width="1.3" d="M379.38,-40C379.38,-37.79 361.33,-36 339.12,-36 316.92,-36 298.88,-37.79 298.88,-40"/>
<text xml:space="preserve" text-anchor="middle" x="339.12" y="-24.5" font-family="sans-Serif" font-size="10.00" fill="#0f172a">~/.pwn_history</text>
<text xml:space="preserve" text-anchor="middle" x="339.12" y="-12.5" font-family="sans-Serif" font-size="10.00" fill="#0f172a">REPL history</text>
</g>
<!-- Root&#45;&gt;hist -->
<g id="edge12" class="edge">
<title>Root&#45;&gt;hist</title>
<path fill="none" stroke="#94a3b8" stroke-width="1.1" d="M130.04,-366.57C137.42,-311.7 166.44,-147.51 257.62,-55 266.67,-45.82 278.63,-39.1 290.55,-34.21"/>
<polygon fill="#94a3b8" stroke="#94a3b8" stroke-width="1.1" points="291.11,-36.61 296.79,-31.84 289.38,-32.03 291.11,-36.61"/>
</g>
</g>
</svg>
