<?xml version="1.0" encoding="UTF-8" standalone="no"?>
<!DOCTYPE svg PUBLIC "-//W3C//DTD SVG 1.1//EN"
 "http://www.w3.org/Graphics/SVG/1.1/DTD/svg11.dtd">
<!-- Generated by graphviz version 14.1.2 (0)
 -->
<!-- Title: PWN_Persistence Pages: 1 -->
<svg width="591pt" height="1167pt"
 viewBox="0.00 0.00 591.00 1167.00" xmlns="http://www.w3.org/2000/svg" xmlns:xlink="http://www.w3.org/1999/xlink">
<g id="graph0" class="graph" transform="scale(1 1) rotate(0) translate(43.2 1123.7)">
<title>PWN_Persistence</title>
<polygon fill="#0f172a" stroke="none" points="-43.2,43.2 -43.2,-1123.7 547.45,-1123.7 547.45,43.2 -43.2,43.2"/>
<text xml:space="preserve" text-anchor="start" x="8" y="-1058.5" font-family="sans-Serif" font-weight="bold" font-size="20.00" fill="#e2e8f0">~/.pwn/ &#45; Everything PWN Persists Across Sessions</text>
<!-- Root -->
<g id="node1" class="node">
<title>Root</title>
<polygon fill="#7dd3fc" stroke="#334155" stroke-width="1.3" points="140.5,-535 137.5,-539 116.5,-539 113.5,-535 81,-535 81,-499 140.5,-499 140.5,-535"/>
<text xml:space="preserve" text-anchor="middle" x="110.75" y="-512.15" font-family="sans-Serif" font-size="13.00" fill="#0f172a">~/.pwn/</text>
</g>
<!-- cfg -->
<g id="node2" class="node">
<title>cfg</title>
<path fill="#fcd34d" stroke="#334155" stroke-width="1.3" d="M407.12,-1043.75C407.12,-1046.78 373.62,-1049.25 332.38,-1049.25 291.13,-1049.25 257.62,-1046.78 257.62,-1043.75 257.62,-1043.75 257.62,-994.25 257.62,-994.25 257.62,-991.22 291.13,-988.75 332.38,-988.75 373.62,-988.75 407.12,-991.22 407.12,-994.25 407.12,-994.25 407.12,-1043.75 407.12,-1043.75"/>
<path fill="none" stroke="#334155" stroke-width="1.3" d="M407.12,-1043.75C407.12,-1040.72 373.62,-1038.25 332.38,-1038.25 291.13,-1038.25 257.62,-1040.72 257.62,-1043.75"/>
<text xml:space="preserve" text-anchor="middle" x="332.38" y="-1027.5" font-family="sans-Serif" font-size="10.00" fill="#0f172a">pwn.yaml (+ .decryptor)</text>
<text xml:space="preserve" text-anchor="middle" x="332.38" y="-1015.5" font-family="sans-Serif" font-size="10.00" fill="#0f172a">engines · vault&#45;encrypted keys</text>
<text xml:space="preserve" text-anchor="middle" x="332.38" y="-1003.5" font-family="sans-Serif" font-size="10.00" fill="#0f172a">agent opts</text>
</g>
<!-- Root&#45;&gt;cfg -->
<g id="edge1" class="edge">
<title>Root&#45;&gt;cfg</title>
<path fill="none" stroke="#94a3b8" stroke-width="1.1" d="M111.68,-535.36C112.39,-602.84 123.55,-840.38 241.5,-978 244.29,-981.25 247.39,-984.26 250.71,-987.04"/>
<polygon fill="#94a3b8" stroke="#94a3b8" stroke-width="1.1" points="248.99,-988.81 256.04,-991.11 251.96,-984.91 248.99,-988.81"/>
</g>
<!-- mem -->
<g id="node3" class="node">
<title>mem</title>
<path fill="#fcd34d" stroke="#334155" stroke-width="1.3" d="M400.38,-963C400.38,-965.21 369.9,-967 332.38,-967 294.85,-967 264.38,-965.21 264.38,-963 264.38,-963 264.38,-927 264.38,-927 264.38,-924.79 294.85,-923 332.38,-923 369.9,-923 400.38,-924.79 400.38,-927 400.38,-927 400.38,-963 400.38,-963"/>
<path fill="none" stroke="#334155" stroke-width="1.3" d="M400.38,-963C400.38,-960.79 369.9,-959 332.38,-959 294.85,-959 264.38,-960.79 264.38,-963"/>
<text xml:space="preserve" text-anchor="middle" x="332.38" y="-947.5" font-family="sans-Serif" font-size="10.00" fill="#0f172a">memory.json</text>
<text xml:space="preserve" text-anchor="middle" x="332.38" y="-935.5" font-family="sans-Serif" font-size="10.00" fill="#0f172a">facts · prefs · lessons · env</text>
</g>
<!-- Root&#45;&gt;mem -->
<g id="edge2" class="edge">
<title>Root&#45;&gt;mem</title>
<path fill="none" stroke="#94a3b8" stroke-width="1.1" d="M112.37,-535.56C115.44,-597.64 133.67,-800.39 241.5,-912 245.97,-916.62 251.13,-920.6 256.69,-924.03"/>
<polygon fill="#94a3b8" stroke="#94a3b8" stroke-width="1.1" points="255.15,-925.97 262.46,-927.26 257.55,-921.7 255.15,-925.97"/>
</g>
<!-- skl -->
<g id="node4" class="node">
<title>skl</title>
<path fill="#fcd34d" stroke="#334155" stroke-width="1.3" d="M398.5,-897C398.5,-899.21 368.86,-901 332.38,-901 295.89,-901 266.25,-899.21 266.25,-897 266.25,-897 266.25,-861 266.25,-861 266.25,-858.79 295.89,-857 332.38,-857 368.86,-857 398.5,-858.79 398.5,-861 398.5,-861 398.5,-897 398.5,-897"/>
<path fill="none" stroke="#334155" stroke-width="1.3" d="M398.5,-897C398.5,-894.79 368.86,-893 332.38,-893 295.89,-893 266.25,-894.79 266.25,-897"/>
<text xml:space="preserve" text-anchor="middle" x="332.38" y="-881.5" font-family="sans-Serif" font-size="10.00" fill="#0f172a">skills/*.md</text>
<text xml:space="preserve" text-anchor="middle" x="332.38" y="-869.5" font-family="sans-Serif" font-size="10.00" fill="#0f172a">reusable procedures + refs</text>
</g>
<!-- Root&#45;&gt;skl -->
<g id="edge3" class="edge">
<title>Root&#45;&gt;skl</title>
<path fill="none" stroke="#94a3b8" stroke-width="1.1" d="M113.78,-535.53C120.77,-590.68 148.81,-755.49 241.5,-846 246.46,-850.84 252.18,-854.98 258.3,-858.52"/>
<polygon fill="#94a3b8" stroke="#94a3b8" stroke-width="1.1" points="256.82,-860.51 264.16,-861.62 259.12,-856.18 256.82,-860.51"/>
</g>
<!-- lrn -->
<g id="node5" class="node">
<title>lrn</title>
<path fill="#fcd34d" stroke="#334155" stroke-width="1.3" d="M372.62,-831C372.62,-833.21 354.58,-835 332.38,-835 310.17,-835 292.12,-833.21 292.12,-831 292.12,-831 292.12,-795 292.12,-795 292.12,-792.79 310.17,-791 332.38,-791 354.58,-791 372.62,-792.79 372.62,-795 372.62,-795 372.62,-831 372.62,-831"/>
<path fill="none" stroke="#334155" stroke-width="1.3" d="M372.62,-831C372.62,-828.79 354.58,-827 332.38,-827 310.17,-827 292.12,-828.79 292.12,-831"/>
<text xml:space="preserve" text-anchor="middle" x="332.38" y="-815.5" font-family="sans-Serif" font-size="10.00" fill="#0f172a">learning.jsonl</text>
<text xml:space="preserve" text-anchor="middle" x="332.38" y="-803.5" font-family="sans-Serif" font-size="10.00" fill="#0f172a">task outcomes</text>
</g>
<!-- Root&#45;&gt;lrn -->
<g id="edge4" class="edge">
<title>Root&#45;&gt;lrn</title>
<path fill="none" stroke="#94a3b8" stroke-width="1.1" d="M115.82,-535.5C127.19,-582.93 163.69,-710.06 241.5,-780 253.29,-790.59 268.76,-797.87 283.54,-802.84"/>
<polygon fill="#94a3b8" stroke="#94a3b8" stroke-width="1.1" points="282.65,-805.13 290.06,-804.87 284.11,-800.45 282.65,-805.13"/>
</g>
<!-- mis -->
<g id="node6" class="node">
<title>mis</title>
<path fill="#fcd34d" stroke="#334155" stroke-width="1.3" d="M411.62,-763.75C411.62,-766.78 376.1,-769.25 332.38,-769.25 288.65,-769.25 253.12,-766.78 253.12,-763.75 253.12,-763.75 253.12,-714.25 253.12,-714.25 253.12,-711.22 288.65,-708.75 332.38,-708.75 376.1,-708.75 411.62,-711.22 411.62,-714.25 411.62,-714.25 411.62,-763.75 411.62,-763.75"/>
<path fill="none" stroke="#334155" stroke-width="1.3" d="M411.62,-763.75C411.62,-760.72 376.1,-758.25 332.38,-758.25 288.65,-758.25 253.12,-760.72 253.12,-763.75"/>
<text xml:space="preserve" text-anchor="middle" x="332.38" y="-747.5" font-family="sans-Serif" font-size="10.00" fill="#0f172a">mistakes.json</text>
<text xml:space="preserve" text-anchor="middle" x="332.38" y="-735.5" font-family="sans-Serif" font-size="10.00" fill="#0f172a">failure fingerprints · fixes</text>
<text xml:space="preserve" text-anchor="middle" x="332.38" y="-723.5" font-family="sans-Serif" font-size="10.00" fill="#0f172a">[REPEATING] · [REGRESSED]</text>
</g>
<!-- Root&#45;&gt;mis -->
<g id="edge5" class="edge">
<title>Root&#45;&gt;mis</title>
<path fill="none" stroke="#94a3b8" stroke-width="1.1" d="M120.84,-535.6C139.16,-571.38 183.72,-650.47 241.5,-698 244.81,-700.72 248.33,-703.3 251.98,-705.75"/>
<polygon fill="#94a3b8" stroke="#94a3b8" stroke-width="1.1" points="250.53,-707.73 257.76,-709.38 253.14,-703.58 250.53,-707.73"/>
</g>
<!-- met -->
<g id="node7" class="node">
<title>met</title>
<path fill="#fcd34d" stroke="#334155" stroke-width="1.3" d="M405.25,-683C405.25,-685.21 372.59,-687 332.38,-687 292.16,-687 259.5,-685.21 259.5,-683 259.5,-683 259.5,-647 259.5,-647 259.5,-644.79 292.16,-643 332.38,-643 372.59,-643 405.25,-644.79 405.25,-647 405.25,-647 405.25,-683 405.25,-683"/>
<path fill="none" stroke="#334155" stroke-width="1.3" d="M405.25,-683C405.25,-680.79 372.59,-679 332.38,-679 292.16,-679 259.5,-680.79 259.5,-683"/>
<text xml:space="preserve" text-anchor="middle" x="332.38" y="-667.5" font-family="sans-Serif" font-size="10.00" fill="#0f172a">metrics.json</text>
<text xml:space="preserve" text-anchor="middle" x="332.38" y="-655.5" font-family="sans-Serif" font-size="10.00" fill="#0f172a">per&#45;tool · per&#45;engine telemetry</text>
</g>
<!-- Root&#45;&gt;met -->
<g id="edge6" class="edge">
<title>Root&#45;&gt;met</title>
<path fill="none" stroke="#94a3b8" stroke-width="1.1" d="M128.13,-535.29C151.25,-560.16 195.76,-604.67 241.5,-632 246.6,-635.05 252.03,-637.89 257.6,-640.52"/>
<polygon fill="#94a3b8" stroke="#94a3b8" stroke-width="1.1" points="256.35,-642.64 263.74,-643.29 258.36,-638.18 256.35,-642.64"/>
</g>
<!-- ext -->
<g id="node8" class="node">
<title>ext</title>
<path fill="#fcd34d" stroke="#334155" stroke-width="1.3" d="M423.25,-615.75C423.25,-618.78 382.52,-621.25 332.38,-621.25 282.23,-621.25 241.5,-618.78 241.5,-615.75 241.5,-615.75 241.5,-566.25 241.5,-566.25 241.5,-563.22 282.23,-560.75 332.38,-560.75 382.52,-560.75 423.25,-563.22 423.25,-566.25 423.25,-566.25 423.25,-615.75 423.25,-615.75"/>
<path fill="none" stroke="#334155" stroke-width="1.3" d="M423.25,-615.75C423.25,-612.72 382.52,-610.25 332.38,-610.25 282.23,-610.25 241.5,-612.72 241.5,-615.75"/>
<text xml:space="preserve" text-anchor="middle" x="332.38" y="-599.5" font-family="sans-Serif" font-size="10.00" fill="#0f172a">extrospection.json</text>
<text xml:space="preserve" text-anchor="middle" x="332.38" y="-587.5" font-family="sans-Serif" font-size="10.00" fill="#0f172a">snapshot (host/net/tc/repo/env/rf/web)</text>
<text xml:space="preserve" text-anchor="middle" x="332.38" y="-575.5" font-family="sans-Serif" font-size="10.00" fill="#0f172a">+ previous + observations[]</text>
</g>
<!-- Root&#45;&gt;ext -->
<g id="edge7" class="edge">
<title>Root&#45;&gt;ext</title>
<path fill="none" stroke="#94a3b8" stroke-width="1.1" d="M140.91,-526.83C165.97,-535.27 203.52,-547.92 238.67,-559.76"/>
<polygon fill="#94a3b8" stroke="#94a3b8" stroke-width="1.1" points="237.6,-561.99 245.02,-561.9 239.17,-557.35 237.6,-561.99"/>
</g>
<!-- ews -->
<g id="node9" class="node">
<title>ews</title>
<path fill="#fcd34d" stroke="#334155" stroke-width="1.3" d="M408.62,-535C408.62,-537.21 374.45,-539 332.38,-539 290.3,-539 256.12,-537.21 256.12,-535 256.12,-535 256.12,-499 256.12,-499 256.12,-496.79 290.3,-495 332.38,-495 374.45,-495 408.62,-496.79 408.62,-499 408.62,-499 408.62,-535 408.62,-535"/>
<path fill="none" stroke="#334155" stroke-width="1.3" d="M408.62,-535C408.62,-532.79 374.45,-531 332.38,-531 290.3,-531 256.12,-532.79 256.12,-535"/>
<text xml:space="preserve" text-anchor="middle" x="332.38" y="-519.5" font-family="sans-Serif" font-size="10.00" fill="#0f172a">extrospection/web/*.png</text>
<text xml:space="preserve" text-anchor="middle" x="332.38" y="-507.5" font-family="sans-Serif" font-size="10.00" fill="#0f172a">probe_web / extro_watch shots</text>
</g>
<!-- Root&#45;&gt;ews -->
<g id="edge8" class="edge">
<title>Root&#45;&gt;ews</title>
<path fill="none" stroke="#94a3b8" stroke-width="1.1" d="M140.91,-517C168.03,-517 209.78,-517 247.28,-517"/>
<polygon fill="#94a3b8" stroke="#94a3b8" stroke-width="1.1" points="247.05,-519.45 254.05,-517 247.05,-514.55 247.05,-519.45"/>
</g>
<!-- ses -->
<g id="node10" class="node">
<title>ses</title>
<path fill="#fcd34d" stroke="#334155" stroke-width="1.3" d="M374.88,-469C374.88,-471.21 355.83,-473 332.38,-473 308.92,-473 289.88,-471.21 289.88,-469 289.88,-469 289.88,-433 289.88,-433 289.88,-430.79 308.92,-429 332.38,-429 355.83,-429 374.88,-430.79 374.88,-433 374.88,-433 374.88,-469 374.88,-469"/>
<path fill="none" stroke="#334155" stroke-width="1.3" d="M374.88,-469C374.88,-466.79 355.83,-465 332.38,-465 308.92,-465 289.88,-466.79 289.88,-469"/>
<text xml:space="preserve" text-anchor="middle" x="332.38" y="-453.5" font-family="sans-Serif" font-size="10.00" fill="#0f172a">sessions/*.jsonl</text>
<text xml:space="preserve" text-anchor="middle" x="332.38" y="-441.5" font-family="sans-Serif" font-size="10.00" fill="#0f172a">transcripts</text>
</g>
<!-- Root&#45;&gt;ses -->
<g id="edge9" class="edge">
<title>Root&#45;&gt;ses</title>
<path fill="none" stroke="#94a3b8" stroke-width="1.1" d="M140.91,-508.24C176.65,-497.5 237.78,-479.13 281.14,-466.1"/>
<polygon fill="#94a3b8" stroke="#94a3b8" stroke-width="1.1" points="281.7,-468.49 287.7,-464.13 280.29,-463.79 281.7,-468.49"/>
</g>
<!-- crn -->
<g id="node11" class="node">
<title>crn</title>
<path fill="#fcd34d" stroke="#334155" stroke-width="1.3" d="M388,-403C388,-405.21 363.07,-407 332.38,-407 301.68,-407 276.75,-405.21 276.75,-403 276.75,-403 276.75,-367 276.75,-367 276.75,-364.79 301.68,-363 332.38,-363 363.07,-363 388,-364.79 388,-367 388,-367 388,-403 388,-403"/>
<path fill="none" stroke="#334155" stroke-width="1.3" d="M388,-403C388,-400.79 363.07,-399 332.38,-399 301.68,-399 276.75,-400.79 276.75,-403"/>
<text xml:space="preserve" text-anchor="middle" x="332.38" y="-387.5" font-family="sans-Serif" font-size="10.00" fill="#0f172a">cron/jobs.yml</text>
<text xml:space="preserve" text-anchor="middle" x="332.38" y="-375.5" font-family="sans-Serif" font-size="10.00" fill="#0f172a">scheduled jobs + logs</text>
</g>
<!-- Root&#45;&gt;crn -->
<g id="edge10" class="edge">
<title>Root&#45;&gt;crn</title>
<path fill="none" stroke="#94a3b8" stroke-width="1.1" d="M131.98,-498.45C156.42,-476.8 199.52,-441.03 241.5,-418 250.04,-413.32 259.38,-409.05 268.7,-405.25"/>
<polygon fill="#94a3b8" stroke="#94a3b8" stroke-width="1.1" points="269.35,-407.63 274.96,-402.78 267.55,-403.07 269.35,-407.63"/>
</g>
<!-- agt -->
<g id="node12" class="node">
<title>agt</title>
<path fill="#fcd34d" stroke="#334155" stroke-width="1.3" d="M375.25,-337C375.25,-339.21 356.03,-341 332.38,-341 308.72,-341 289.5,-339.21 289.5,-337 289.5,-337 289.5,-301 289.5,-301 289.5,-298.79 308.72,-297 332.38,-297 356.03,-297 375.25,-298.79 375.25,-301 375.25,-301 375.25,-337 375.25,-337"/>
<path fill="none" stroke="#334155" stroke-width="1.3" d="M375.25,-337C375.25,-334.79 356.03,-333 332.38,-333 308.72,-333 289.5,-334.79 289.5,-337"/>
<text xml:space="preserve" text-anchor="middle" x="332.38" y="-321.5" font-family="sans-Serif" font-size="10.00" fill="#0f172a">agents.yml</text>
<text xml:space="preserve" text-anchor="middle" x="332.38" y="-309.5" font-family="sans-Serif" font-size="10.00" fill="#0f172a">persona registry</text>
</g>
<!-- Root&#45;&gt;agt -->
<g id="edge11" class="edge">
<title>Root&#45;&gt;agt</title>
<path fill="none" stroke="#94a3b8" stroke-width="1.1" d="M121.7,-498.4C140.68,-464.62 185.18,-392.9 241.5,-352 253.3,-343.43 267.58,-336.85 281.24,-331.92"/>
<polygon fill="#94a3b8" stroke="#94a3b8" stroke-width="1.1" points="281.79,-334.32 287.62,-329.73 280.2,-329.68 281.79,-334.32"/>
</g>
<!-- swm -->
<g id="node13" class="node">
<title>swm</title>
<path fill="#fcd34d" stroke="#334155" stroke-width="1.3" d="M387.25,-271C387.25,-273.21 362.65,-275 332.38,-275 302.1,-275 277.5,-273.21 277.5,-271 277.5,-271 277.5,-235 277.5,-235 277.5,-232.79 302.1,-231 332.38,-231 362.65,-231 387.25,-232.79 387.25,-235 387.25,-235 387.25,-271 387.25,-271"/>
<path fill="none" stroke="#334155" stroke-width="1.3" d="M387.25,-271C387.25,-268.79 362.65,-267 332.38,-267 302.1,-267 277.5,-268.79 277.5,-271"/>
<text xml:space="preserve" text-anchor="middle" x="332.38" y="-255.5" font-family="sans-Serif" font-size="10.00" fill="#0f172a">swarm/&lt;id&gt;/bus.jsonl</text>
<text xml:space="preserve" text-anchor="middle" x="332.38" y="-243.5" font-family="sans-Serif" font-size="10.00" fill="#0f172a">multi&#45;agent chat</text>
</g>
<!-- Root&#45;&gt;swm -->
<g id="edge12" class="edge">
<title>Root&#45;&gt;swm</title>
<path fill="none" stroke="#94a3b8" stroke-width="1.1" d="M117.19,-498.54C130.87,-455.24 170.76,-346.24 241.5,-286 249.59,-279.11 259.24,-273.61 269.17,-269.22"/>
<polygon fill="#94a3b8" stroke="#94a3b8" stroke-width="1.1" points="270.08,-271.5 275.63,-266.57 268.22,-266.96 270.08,-271.5"/>
</g>
<!-- midx -->
<g id="node14" class="node">
<title>midx</title>
<path fill="#fcd34d" stroke="#334155" stroke-width="1.3" d="M404.5,-203.75C404.5,-206.78 372.17,-209.25 332.38,-209.25 292.58,-209.25 260.25,-206.78 260.25,-203.75 260.25,-203.75 260.25,-154.25 260.25,-154.25 260.25,-151.22 292.58,-148.75 332.38,-148.75 372.17,-148.75 404.5,-151.22 404.5,-154.25 404.5,-154.25 404.5,-203.75 404.5,-203.75"/>
<path fill="none" stroke="#334155" stroke-width="1.3" d="M404.5,-203.75C404.5,-200.72 372.17,-198.25 332.38,-198.25 292.58,-198.25 260.25,-200.72 260.25,-203.75"/>
<text xml:space="preserve" text-anchor="middle" x="332.38" y="-187.5" font-family="sans-Serif" font-size="10.00" fill="#0f172a">memory.idx</text>
<text xml:space="preserve" text-anchor="middle" x="332.38" y="-175.5" font-family="sans-Serif" font-size="10.00" fill="#0f172a">local embedding index</text>
<text xml:space="preserve" text-anchor="middle" x="332.38" y="-163.5" font-family="sans-Serif" font-size="10.00" fill="#0f172a">(relevance&#45;ranked MEMORY)</text>
</g>
<!-- Root&#45;&gt;midx -->
<g id="edge13" class="edge">
<title>Root&#45;&gt;midx</title>
<path fill="none" stroke="#94a3b8" stroke-width="1.1" d="M115.07,-498.39C125.06,-447.35 159.41,-303.42 241.5,-220 244.97,-216.48 248.79,-213.23 252.85,-210.23"/>
<polygon fill="#94a3b8" stroke="#94a3b8" stroke-width="1.1" points="254.11,-212.34 258.51,-206.37 251.35,-208.29 254.11,-212.34"/>
</g>
<!-- ftn -->
<g id="node15" class="node">
<title>ftn</title>
<path fill="#fcd34d" stroke="#334155" stroke-width="1.3" d="M384.25,-120.75C384.25,-123.78 361,-126.25 332.38,-126.25 303.75,-126.25 280.5,-123.78 280.5,-120.75 280.5,-120.75 280.5,-71.25 280.5,-71.25 280.5,-68.22 303.75,-65.75 332.38,-65.75 361,-65.75 384.25,-68.22 384.25,-71.25 384.25,-71.25 384.25,-120.75 384.25,-120.75"/>
<path fill="none" stroke="#334155" stroke-width="1.3" d="M384.25,-120.75C384.25,-117.72 361,-115.25 332.38,-115.25 303.75,-115.25 280.5,-117.72 280.5,-120.75"/>
<text xml:space="preserve" text-anchor="middle" x="332.38" y="-104.5" font-family="sans-Serif" font-size="10.00" fill="#0f172a">finetune/*.jsonl</text>
<text xml:space="preserve" text-anchor="middle" x="332.38" y="-92.5" font-family="sans-Serif" font-size="10.00" fill="#0f172a">ShareGPT / OpenAI</text>
<text xml:space="preserve" text-anchor="middle" x="332.38" y="-80.5" font-family="sans-Serif" font-size="10.00" fill="#0f172a">supervised dataset</text>
</g>
<!-- Root&#45;&gt;ftn -->
<g id="edge14" class="edge">
<title>Root&#45;&gt;ftn</title>
<path fill="none" stroke="#94a3b8" stroke-width="1.1" d="M113.05,-498.68C118.2,-439.18 142.06,-248.73 241.5,-138 250,-128.54 261.07,-121.04 272.52,-115.16"/>
<polygon fill="#94a3b8" stroke="#94a3b8" stroke-width="1.1" points="273.33,-117.49 278.58,-112.25 271.21,-113.08 273.33,-117.49"/>
</g>
<!-- hist -->
<g id="node16" class="node">
<title>hist</title>
<path fill="#fcd34d" stroke="#334155" stroke-width="1.3" d="M372.62,-40C372.62,-42.21 354.58,-44 332.38,-44 310.17,-44 292.12,-42.21 292.12,-40 292.12,-40 292.12,-4 292.12,-4 292.12,-1.79 310.17,0 332.38,0 354.58,0 372.62,-1.79 372.62,-4 372.62,-4 372.62,-40 372.62,-40"/>
<path fill="none" stroke="#334155" stroke-width="1.3" d="M372.62,-40C372.62,-37.79 354.58,-36 332.38,-36 310.17,-36 292.12,-37.79 292.12,-40"/>
<text xml:space="preserve" text-anchor="middle" x="332.38" y="-24.5" font-family="sans-Serif" font-size="10.00" fill="#0f172a">~/.pwn_history</text>
<text xml:space="preserve" text-anchor="middle" x="332.38" y="-12.5" font-family="sans-Serif" font-size="10.00" fill="#0f172a">REPL history</text>
</g>
<!-- Root&#45;&gt;hist -->
<g id="edge15" class="edge">
<title>Root&#45;&gt;hist</title>
<path fill="none" stroke="#94a3b8" stroke-width="1.1" d="M111.33,-498.77C110.77,-430.72 117.9,-188.65 241.5,-55 252.65,-42.95 268.57,-35.28 283.93,-30.41"/>
<polygon fill="#94a3b8" stroke="#94a3b8" stroke-width="1.1" points="284.24,-32.87 290.28,-28.58 282.88,-28.17 284.24,-32.87"/>
</g>
</g>
</svg>
