<?xml version="1.0" encoding="UTF-8" standalone="no"?>
<!DOCTYPE svg PUBLIC "-//W3C//DTD SVG 1.1//EN"
 "http://www.w3.org/Graphics/SVG/1.1/DTD/svg11.dtd">
<!-- Generated by graphviz version 14.1.2 (0)
 -->
<!-- Title: PWN_Persistence Pages: 1 -->
<svg width="604pt" height="822pt"
 viewBox="0.00 0.00 604.00 822.00" xmlns="http://www.w3.org/2000/svg" xmlns:xlink="http://www.w3.org/1999/xlink">
<g id="graph0" class="graph" transform="scale(1 1) rotate(0) translate(43.2 778.45)">
<title>PWN_Persistence</title>
<polygon fill="#0f172a" stroke="none" points="-43.2,43.2 -43.2,-778.45 560.95,-778.45 560.95,43.2 -43.2,43.2"/>
<text xml:space="preserve" text-anchor="start" x="8" y="-713.25" font-family="sans-Serif" font-weight="bold" font-size="20.00" fill="#e2e8f0">~/.pwn/ — Everything PWN Persists Across Sessions</text>
<!-- Root -->
<g id="node1" class="node">
<title>Root</title>
<polygon fill="#7dd3fc" stroke="#334155" stroke-width="1.3" points="165.62,-370 162.62,-374 141.62,-374 138.62,-370 106.12,-370 106.12,-334 165.62,-334 165.62,-370"/>
<text xml:space="preserve" text-anchor="middle" x="135.88" y="-347.15" font-family="sans-Serif" font-size="13.00" fill="#0f172a">~/.pwn/</text>
</g>
<!-- cfg -->
<g id="node2" class="node">
<title>cfg</title>
<path fill="#fcd34d" stroke="#334155" stroke-width="1.3" d="M406.38,-700C406.38,-702.21 376.23,-704 339.12,-704 302.02,-704 271.88,-702.21 271.88,-700 271.88,-700 271.88,-664 271.88,-664 271.88,-661.79 302.02,-660 339.12,-660 376.23,-660 406.38,-661.79 406.38,-664 406.38,-664 406.38,-700 406.38,-700"/>
<path fill="none" stroke="#334155" stroke-width="1.3" d="M406.38,-700C406.38,-697.79 376.23,-696 339.12,-696 302.02,-696 271.88,-697.79 271.88,-700"/>
<text xml:space="preserve" text-anchor="middle" x="339.12" y="-684.5" font-family="sans-Serif" font-size="10.00" fill="#0f172a">config.yml</text>
<text xml:space="preserve" text-anchor="middle" x="339.12" y="-672.5" font-family="sans-Serif" font-size="10.00" fill="#0f172a">engines · keys · agent opts</text>
</g>
<!-- Root&#45;&gt;cfg -->
<g id="edge1" class="edge">
<title>Root&#45;&gt;cfg</title>
<path fill="none" stroke="#94a3b8" stroke-width="1.1" d="M140.21,-370.59C150.26,-421.58 184.72,-565.4 266.62,-649 269.05,-651.47 271.69,-653.78 274.48,-655.93"/>
<polygon fill="#94a3b8" stroke="#94a3b8" stroke-width="1.1" points="272.75,-657.7 279.89,-659.7 275.55,-653.68 272.75,-657.7"/>
</g>
<!-- mem -->
<g id="node3" class="node">
<title>mem</title>
<path fill="#fcd34d" stroke="#334155" stroke-width="1.3" d="M407.12,-634C407.12,-636.21 376.65,-638 339.12,-638 301.6,-638 271.12,-636.21 271.12,-634 271.12,-634 271.12,-598 271.12,-598 271.12,-595.79 301.6,-594 339.12,-594 376.65,-594 407.12,-595.79 407.12,-598 407.12,-598 407.12,-634 407.12,-634"/>
<path fill="none" stroke="#334155" stroke-width="1.3" d="M407.12,-634C407.12,-631.79 376.65,-630 339.12,-630 301.6,-630 271.12,-631.79 271.12,-634"/>
<text xml:space="preserve" text-anchor="middle" x="339.12" y="-618.5" font-family="sans-Serif" font-size="10.00" fill="#0f172a">memory.json</text>
<text xml:space="preserve" text-anchor="middle" x="339.12" y="-606.5" font-family="sans-Serif" font-size="10.00" fill="#0f172a">facts · prefs · lessons · env</text>
</g>
<!-- Root&#45;&gt;mem -->
<g id="edge2" class="edge">
<title>Root&#45;&gt;mem</title>
<path fill="none" stroke="#94a3b8" stroke-width="1.1" d="M142.76,-370.4C157.25,-413.11 198.54,-520.11 266.62,-583 269.28,-585.45 272.15,-587.75 275.16,-589.9"/>
<polygon fill="#94a3b8" stroke="#94a3b8" stroke-width="1.1" points="273.82,-591.95 281.02,-593.73 276.5,-587.85 273.82,-591.95"/>
</g>
<!-- skl -->
<g id="node4" class="node">
<title>skl</title>
<path fill="#fcd34d" stroke="#334155" stroke-width="1.3" d="M405.25,-568C405.25,-570.21 375.61,-572 339.12,-572 302.64,-572 273,-570.21 273,-568 273,-568 273,-532 273,-532 273,-529.79 302.64,-528 339.12,-528 375.61,-528 405.25,-529.79 405.25,-532 405.25,-532 405.25,-568 405.25,-568"/>
<path fill="none" stroke="#334155" stroke-width="1.3" d="M405.25,-568C405.25,-565.79 375.61,-564 339.12,-564 302.64,-564 273,-565.79 273,-568"/>
<text xml:space="preserve" text-anchor="middle" x="339.12" y="-552.5" font-family="sans-Serif" font-size="10.00" fill="#0f172a">skills/*.md</text>
<text xml:space="preserve" text-anchor="middle" x="339.12" y="-540.5" font-family="sans-Serif" font-size="10.00" fill="#0f172a">reusable procedures + refs</text>
</g>
<!-- Root&#45;&gt;skl -->
<g id="edge3" class="edge">
<title>Root&#45;&gt;skl</title>
<path fill="none" stroke="#94a3b8" stroke-width="1.1" d="M147.31,-370.43C166.9,-403.62 212.14,-473.98 266.62,-517 269.81,-519.52 273.22,-521.89 276.75,-524.13"/>
<polygon fill="#94a3b8" stroke="#94a3b8" stroke-width="1.1" points="275.46,-526.21 282.73,-527.67 277.96,-521.99 275.46,-526.21"/>
</g>
<!-- lrn -->
<g id="node5" class="node">
<title>lrn</title>
<path fill="#fcd34d" stroke="#334155" stroke-width="1.3" d="M379.38,-502C379.38,-504.21 361.33,-506 339.12,-506 316.92,-506 298.88,-504.21 298.88,-502 298.88,-502 298.88,-466 298.88,-466 298.88,-463.79 316.92,-462 339.12,-462 361.33,-462 379.38,-463.79 379.38,-466 379.38,-466 379.38,-502 379.38,-502"/>
<path fill="none" stroke="#334155" stroke-width="1.3" d="M379.38,-502C379.38,-499.79 361.33,-498 339.12,-498 316.92,-498 298.88,-499.79 298.88,-502"/>
<text xml:space="preserve" text-anchor="middle" x="339.12" y="-486.5" font-family="sans-Serif" font-size="10.00" fill="#0f172a">learning.jsonl</text>
<text xml:space="preserve" text-anchor="middle" x="339.12" y="-474.5" font-family="sans-Serif" font-size="10.00" fill="#0f172a">task outcomes</text>
</g>
<!-- Root&#45;&gt;lrn -->
<g id="edge4" class="edge">
<title>Root&#45;&gt;lrn</title>
<path fill="none" stroke="#94a3b8" stroke-width="1.1" d="M157.87,-370.35C182.71,-391.48 225.85,-426.44 266.62,-451 274.17,-455.54 282.44,-459.89 290.6,-463.85"/>
<polygon fill="#94a3b8" stroke="#94a3b8" stroke-width="1.1" points="289.48,-466.03 296.86,-466.81 291.58,-461.6 289.48,-466.03"/>
</g>
<!-- met -->
<g id="node6" class="node">
<title>met</title>
<path fill="#fcd34d" stroke="#334155" stroke-width="1.3" d="M385,-436C385,-438.21 364.44,-440 339.12,-440 313.81,-440 293.25,-438.21 293.25,-436 293.25,-436 293.25,-400 293.25,-400 293.25,-397.79 313.81,-396 339.12,-396 364.44,-396 385,-397.79 385,-400 385,-400 385,-436 385,-436"/>
<path fill="none" stroke="#334155" stroke-width="1.3" d="M385,-436C385,-433.79 364.44,-432 339.12,-432 313.81,-432 293.25,-433.79 293.25,-436"/>
<text xml:space="preserve" text-anchor="middle" x="339.12" y="-420.5" font-family="sans-Serif" font-size="10.00" fill="#0f172a">metrics.json</text>
<text xml:space="preserve" text-anchor="middle" x="339.12" y="-408.5" font-family="sans-Serif" font-size="10.00" fill="#0f172a">per&#45;tool telemetry</text>
</g>
<!-- Root&#45;&gt;met -->
<g id="edge5" class="edge">
<title>Root&#45;&gt;met</title>
<path fill="none" stroke="#94a3b8" stroke-width="1.1" d="M166.14,-361.6C197.18,-371.78 246.89,-388.08 284.9,-400.55"/>
<polygon fill="#94a3b8" stroke="#94a3b8" stroke-width="1.1" points="283.83,-402.77 291.24,-402.62 285.35,-398.12 283.83,-402.77"/>
</g>
<!-- ext -->
<g id="node7" class="node">
<title>ext</title>
<path fill="#fcd34d" stroke="#334155" stroke-width="1.3" d="M411.62,-370C411.62,-372.21 379.13,-374 339.12,-374 299.12,-374 266.62,-372.21 266.62,-370 266.62,-370 266.62,-334 266.62,-334 266.62,-331.79 299.12,-330 339.12,-330 379.13,-330 411.62,-331.79 411.62,-334 411.62,-334 411.62,-370 411.62,-370"/>
<path fill="none" stroke="#334155" stroke-width="1.3" d="M411.62,-370C411.62,-367.79 379.13,-366 339.12,-366 299.12,-366 266.62,-367.79 266.62,-370"/>
<text xml:space="preserve" text-anchor="middle" x="339.12" y="-354.5" font-family="sans-Serif" font-size="10.00" fill="#0f172a">extrospection.json</text>
<text xml:space="preserve" text-anchor="middle" x="339.12" y="-342.5" font-family="sans-Serif" font-size="10.00" fill="#0f172a">host snapshot + observations</text>
</g>
<!-- Root&#45;&gt;ext -->
<g id="edge6" class="edge">
<title>Root&#45;&gt;ext</title>
<path fill="none" stroke="#94a3b8" stroke-width="1.1" d="M166.14,-352C190.16,-352 225.35,-352 257.65,-352"/>
<polygon fill="#94a3b8" stroke="#94a3b8" stroke-width="1.1" points="257.57,-354.45 264.57,-352 257.57,-349.55 257.57,-354.45"/>
</g>
<!-- ses -->
<g id="node8" class="node">
<title>ses</title>
<path fill="#fcd34d" stroke="#334155" stroke-width="1.3" d="M381.62,-304C381.62,-306.21 362.58,-308 339.12,-308 315.67,-308 296.62,-306.21 296.62,-304 296.62,-304 296.62,-268 296.62,-268 296.62,-265.79 315.67,-264 339.12,-264 362.58,-264 381.62,-265.79 381.62,-268 381.62,-268 381.62,-304 381.62,-304"/>
<path fill="none" stroke="#334155" stroke-width="1.3" d="M381.62,-304C381.62,-301.79 362.58,-300 339.12,-300 315.67,-300 296.62,-301.79 296.62,-304"/>
<text xml:space="preserve" text-anchor="middle" x="339.12" y="-288.5" font-family="sans-Serif" font-size="10.00" fill="#0f172a">sessions/*.jsonl</text>
<text xml:space="preserve" text-anchor="middle" x="339.12" y="-276.5" font-family="sans-Serif" font-size="10.00" fill="#0f172a">transcripts</text>
</g>
<!-- Root&#45;&gt;ses -->
<g id="edge7" class="edge">
<title>Root&#45;&gt;ses</title>
<path fill="none" stroke="#94a3b8" stroke-width="1.1" d="M166.14,-342.4C198.1,-331.92 249.84,-314.95 288.24,-302.36"/>
<polygon fill="#94a3b8" stroke="#94a3b8" stroke-width="1.1" points="288.74,-304.77 294.63,-300.26 287.22,-300.12 288.74,-304.77"/>
</g>
<!-- crn -->
<g id="node9" class="node">
<title>crn</title>
<path fill="#fcd34d" stroke="#334155" stroke-width="1.3" d="M394.75,-238C394.75,-240.21 369.82,-242 339.12,-242 308.43,-242 283.5,-240.21 283.5,-238 283.5,-238 283.5,-202 283.5,-202 283.5,-199.79 308.43,-198 339.12,-198 369.82,-198 394.75,-199.79 394.75,-202 394.75,-202 394.75,-238 394.75,-238"/>
<path fill="none" stroke="#334155" stroke-width="1.3" d="M394.75,-238C394.75,-235.79 369.82,-234 339.12,-234 308.43,-234 283.5,-235.79 283.5,-238"/>
<text xml:space="preserve" text-anchor="middle" x="339.12" y="-222.5" font-family="sans-Serif" font-size="10.00" fill="#0f172a">cron/jobs.yml</text>
<text xml:space="preserve" text-anchor="middle" x="339.12" y="-210.5" font-family="sans-Serif" font-size="10.00" fill="#0f172a">scheduled jobs + logs</text>
</g>
<!-- Root&#45;&gt;crn -->
<g id="edge8" class="edge">
<title>Root&#45;&gt;crn</title>
<path fill="none" stroke="#94a3b8" stroke-width="1.1" d="M157.87,-333.65C182.71,-312.52 225.85,-277.56 266.62,-253 271.16,-250.27 275.96,-247.61 280.84,-245.06"/>
<polygon fill="#94a3b8" stroke="#94a3b8" stroke-width="1.1" points="281.92,-247.26 287.06,-241.91 279.71,-242.89 281.92,-247.26"/>
</g>
<!-- agt -->
<g id="node10" class="node">
<title>agt</title>
<path fill="#fcd34d" stroke="#334155" stroke-width="1.3" d="M382,-172C382,-174.21 362.78,-176 339.12,-176 315.47,-176 296.25,-174.21 296.25,-172 296.25,-172 296.25,-136 296.25,-136 296.25,-133.79 315.47,-132 339.12,-132 362.78,-132 382,-133.79 382,-136 382,-136 382,-172 382,-172"/>
<path fill="none" stroke="#334155" stroke-width="1.3" d="M382,-172C382,-169.79 362.78,-168 339.12,-168 315.47,-168 296.25,-169.79 296.25,-172"/>
<text xml:space="preserve" text-anchor="middle" x="339.12" y="-156.5" font-family="sans-Serif" font-size="10.00" fill="#0f172a">agents.yml</text>
<text xml:space="preserve" text-anchor="middle" x="339.12" y="-144.5" font-family="sans-Serif" font-size="10.00" fill="#0f172a">persona registry</text>
</g>
<!-- Root&#45;&gt;agt -->
<g id="edge9" class="edge">
<title>Root&#45;&gt;agt</title>
<path fill="none" stroke="#94a3b8" stroke-width="1.1" d="M147.31,-333.57C166.9,-300.38 212.14,-230.02 266.62,-187 273.14,-181.85 280.59,-177.29 288.17,-173.32"/>
<polygon fill="#94a3b8" stroke="#94a3b8" stroke-width="1.1" points="289.08,-175.61 294.26,-170.3 286.9,-171.22 289.08,-175.61"/>
</g>
<!-- swm -->
<g id="node11" class="node">
<title>swm</title>
<path fill="#fcd34d" stroke="#334155" stroke-width="1.3" d="M394,-106C394,-108.21 369.4,-110 339.12,-110 308.85,-110 284.25,-108.21 284.25,-106 284.25,-106 284.25,-70 284.25,-70 284.25,-67.79 308.85,-66 339.12,-66 369.4,-66 394,-67.79 394,-70 394,-70 394,-106 394,-106"/>
<path fill="none" stroke="#334155" stroke-width="1.3" d="M394,-106C394,-103.79 369.4,-102 339.12,-102 308.85,-102 284.25,-103.79 284.25,-106"/>
<text xml:space="preserve" text-anchor="middle" x="339.12" y="-90.5" font-family="sans-Serif" font-size="10.00" fill="#0f172a">swarm/&lt;id&gt;/bus.jsonl</text>
<text xml:space="preserve" text-anchor="middle" x="339.12" y="-78.5" font-family="sans-Serif" font-size="10.00" fill="#0f172a">multi&#45;agent chat</text>
</g>
<!-- Root&#45;&gt;swm -->
<g id="edge10" class="edge">
<title>Root&#45;&gt;swm</title>
<path fill="none" stroke="#94a3b8" stroke-width="1.1" d="M142.76,-333.6C157.25,-290.89 198.54,-183.89 266.62,-121 269.75,-118.12 273.16,-115.45 276.76,-112.98"/>
<polygon fill="#94a3b8" stroke="#94a3b8" stroke-width="1.1" points="277.85,-115.19 282.45,-109.38 275.23,-111.05 277.85,-115.19"/>
</g>
<!-- hist -->
<g id="node12" class="node">
<title>hist</title>
<path fill="#fcd34d" stroke="#334155" stroke-width="1.3" d="M379.38,-40C379.38,-42.21 361.33,-44 339.12,-44 316.92,-44 298.88,-42.21 298.88,-40 298.88,-40 298.88,-4 298.88,-4 298.88,-1.79 316.92,0 339.12,0 361.33,0 379.38,-1.79 379.38,-4 379.38,-4 379.38,-40 379.38,-40"/>
<path fill="none" stroke="#334155" stroke-width="1.3" d="M379.38,-40C379.38,-37.79 361.33,-36 339.12,-36 316.92,-36 298.88,-37.79 298.88,-40"/>
<text xml:space="preserve" text-anchor="middle" x="339.12" y="-24.5" font-family="sans-Serif" font-size="10.00" fill="#0f172a">~/.pwn_history</text>
<text xml:space="preserve" text-anchor="middle" x="339.12" y="-12.5" font-family="sans-Serif" font-size="10.00" fill="#0f172a">REPL history</text>
</g>
<!-- Root&#45;&gt;hist -->
<g id="edge11" class="edge">
<title>Root&#45;&gt;hist</title>
<path fill="none" stroke="#94a3b8" stroke-width="1.1" d="M140.21,-333.41C150.26,-282.42 184.72,-138.6 266.62,-55 273.43,-48.05 281.98,-42.42 290.77,-37.9"/>
<polygon fill="#94a3b8" stroke="#94a3b8" stroke-width="1.1" points="291.75,-40.15 297.02,-34.93 289.65,-35.72 291.75,-40.15"/>
</g>
</g>
</svg>
