<?xml version="1.0" encoding="UTF-8" standalone="no"?>
<!DOCTYPE svg PUBLIC "-//W3C//DTD SVG 1.1//EN"
 "http://www.w3.org/Graphics/SVG/1.1/DTD/svg11.dtd">
<!-- Generated by graphviz version 14.1.2 (0)
 -->
<!-- Title: PWN_Persistence Pages: 1 -->
<svg width="604pt" height="1151pt"
 viewBox="0.00 0.00 604.00 1151.00" xmlns="http://www.w3.org/2000/svg" xmlns:xlink="http://www.w3.org/1999/xlink">
<g id="graph0" class="graph" transform="scale(1 1) rotate(0) translate(43.2 1107.45)">
<title>PWN_Persistence</title>
<polygon fill="#0f172a" stroke="none" points="-43.2,43.2 -43.2,-1107.45 560.95,-1107.45 560.95,43.2 -43.2,43.2"/>
<text xml:space="preserve" text-anchor="start" x="8" y="-1042.25" font-family="sans-Serif" font-weight="bold" font-size="20.00" fill="#e2e8f0">~/.pwn/ — Everything PWN Persists Across Sessions</text>
<!-- Root -->
<g id="node1" class="node">
<title>Root</title>
<polygon fill="#7dd3fc" stroke="#334155" stroke-width="1.3" points="147.25,-535 144.25,-539 123.25,-539 120.25,-535 87.75,-535 87.75,-499 147.25,-499 147.25,-535"/>
<text xml:space="preserve" text-anchor="middle" x="117.5" y="-512.15" font-family="sans-Serif" font-size="13.00" fill="#0f172a">~/.pwn/</text>
</g>
<!-- cfg -->
<g id="node2" class="node">
<title>cfg</title>
<path fill="#fcd34d" stroke="#334155" stroke-width="1.3" d="M406.38,-1029C406.38,-1031.21 376.23,-1033 339.12,-1033 302.02,-1033 271.88,-1031.21 271.88,-1029 271.88,-1029 271.88,-993 271.88,-993 271.88,-990.79 302.02,-989 339.12,-989 376.23,-989 406.38,-990.79 406.38,-993 406.38,-993 406.38,-1029 406.38,-1029"/>
<path fill="none" stroke="#334155" stroke-width="1.3" d="M406.38,-1029C406.38,-1026.79 376.23,-1025 339.12,-1025 302.02,-1025 271.88,-1026.79 271.88,-1029"/>
<text xml:space="preserve" text-anchor="middle" x="339.12" y="-1013.5" font-family="sans-Serif" font-size="10.00" fill="#0f172a">config.yml</text>
<text xml:space="preserve" text-anchor="middle" x="339.12" y="-1001.5" font-family="sans-Serif" font-size="10.00" fill="#0f172a">engines · keys · agent opts</text>
</g>
<!-- Root&#45;&gt;cfg -->
<g id="edge1" class="edge">
<title>Root&#45;&gt;cfg</title>
<path fill="none" stroke="#94a3b8" stroke-width="1.1" d="M118.09,-535.19C117.58,-603.1 124.87,-844.66 248.25,-978 252.77,-982.89 258.09,-987.06 263.82,-990.61"/>
<polygon fill="#94a3b8" stroke="#94a3b8" stroke-width="1.1" points="262.54,-992.7 269.84,-993.97 264.93,-988.42 262.54,-992.7"/>
</g>
<!-- mem -->
<g id="node3" class="node">
<title>mem</title>
<path fill="#fcd34d" stroke="#334155" stroke-width="1.3" d="M407.12,-963C407.12,-965.21 376.65,-967 339.12,-967 301.6,-967 271.12,-965.21 271.12,-963 271.12,-963 271.12,-927 271.12,-927 271.12,-924.79 301.6,-923 339.12,-923 376.65,-923 407.12,-924.79 407.12,-927 407.12,-927 407.12,-963 407.12,-963"/>
<path fill="none" stroke="#334155" stroke-width="1.3" d="M407.12,-963C407.12,-960.79 376.65,-959 339.12,-959 301.6,-959 271.12,-960.79 271.12,-963"/>
<text xml:space="preserve" text-anchor="middle" x="339.12" y="-947.5" font-family="sans-Serif" font-size="10.00" fill="#0f172a">memory.json</text>
<text xml:space="preserve" text-anchor="middle" x="339.12" y="-935.5" font-family="sans-Serif" font-size="10.00" fill="#0f172a">facts · prefs · lessons · env</text>
</g>
<!-- Root&#45;&gt;mem -->
<g id="edge2" class="edge">
<title>Root&#45;&gt;mem</title>
<path fill="none" stroke="#94a3b8" stroke-width="1.1" d="M119.12,-535.56C122.19,-597.64 140.42,-800.39 248.25,-912 252.72,-916.62 257.88,-920.6 263.44,-924.03"/>
<polygon fill="#94a3b8" stroke="#94a3b8" stroke-width="1.1" points="261.9,-925.97 269.21,-927.26 264.3,-921.7 261.9,-925.97"/>
</g>
<!-- skl -->
<g id="node4" class="node">
<title>skl</title>
<path fill="#fcd34d" stroke="#334155" stroke-width="1.3" d="M405.25,-897C405.25,-899.21 375.61,-901 339.12,-901 302.64,-901 273,-899.21 273,-897 273,-897 273,-861 273,-861 273,-858.79 302.64,-857 339.12,-857 375.61,-857 405.25,-858.79 405.25,-861 405.25,-861 405.25,-897 405.25,-897"/>
<path fill="none" stroke="#334155" stroke-width="1.3" d="M405.25,-897C405.25,-894.79 375.61,-893 339.12,-893 302.64,-893 273,-894.79 273,-897"/>
<text xml:space="preserve" text-anchor="middle" x="339.12" y="-881.5" font-family="sans-Serif" font-size="10.00" fill="#0f172a">skills/*.md</text>
<text xml:space="preserve" text-anchor="middle" x="339.12" y="-869.5" font-family="sans-Serif" font-size="10.00" fill="#0f172a">reusable procedures + refs</text>
</g>
<!-- Root&#45;&gt;skl -->
<g id="edge3" class="edge">
<title>Root&#45;&gt;skl</title>
<path fill="none" stroke="#94a3b8" stroke-width="1.1" d="M120.53,-535.53C127.52,-590.68 155.56,-755.49 248.25,-846 253.21,-850.84 258.93,-854.98 265.05,-858.52"/>
<polygon fill="#94a3b8" stroke="#94a3b8" stroke-width="1.1" points="263.57,-860.51 270.91,-861.62 265.87,-856.18 263.57,-860.51"/>
</g>
<!-- lrn -->
<g id="node5" class="node">
<title>lrn</title>
<path fill="#fcd34d" stroke="#334155" stroke-width="1.3" d="M379.38,-831C379.38,-833.21 361.33,-835 339.12,-835 316.92,-835 298.88,-833.21 298.88,-831 298.88,-831 298.88,-795 298.88,-795 298.88,-792.79 316.92,-791 339.12,-791 361.33,-791 379.38,-792.79 379.38,-795 379.38,-795 379.38,-831 379.38,-831"/>
<path fill="none" stroke="#334155" stroke-width="1.3" d="M379.38,-831C379.38,-828.79 361.33,-827 339.12,-827 316.92,-827 298.88,-828.79 298.88,-831"/>
<text xml:space="preserve" text-anchor="middle" x="339.12" y="-815.5" font-family="sans-Serif" font-size="10.00" fill="#0f172a">learning.jsonl</text>
<text xml:space="preserve" text-anchor="middle" x="339.12" y="-803.5" font-family="sans-Serif" font-size="10.00" fill="#0f172a">task outcomes</text>
</g>
<!-- Root&#45;&gt;lrn -->
<g id="edge4" class="edge">
<title>Root&#45;&gt;lrn</title>
<path fill="none" stroke="#94a3b8" stroke-width="1.1" d="M122.57,-535.5C133.94,-582.93 170.44,-710.06 248.25,-780 260.04,-790.59 275.51,-797.87 290.29,-802.84"/>
<polygon fill="#94a3b8" stroke="#94a3b8" stroke-width="1.1" points="289.4,-805.13 296.81,-804.87 290.86,-800.45 289.4,-805.13"/>
</g>
<!-- mis -->
<g id="node6" class="node">
<title>mis</title>
<path fill="#fcd34d" stroke="#334155" stroke-width="1.3" d="M418.38,-763.75C418.38,-766.78 382.85,-769.25 339.12,-769.25 295.4,-769.25 259.88,-766.78 259.88,-763.75 259.88,-763.75 259.88,-714.25 259.88,-714.25 259.88,-711.22 295.4,-708.75 339.12,-708.75 382.85,-708.75 418.38,-711.22 418.38,-714.25 418.38,-714.25 418.38,-763.75 418.38,-763.75"/>
<path fill="none" stroke="#334155" stroke-width="1.3" d="M418.38,-763.75C418.38,-760.72 382.85,-758.25 339.12,-758.25 295.4,-758.25 259.88,-760.72 259.88,-763.75"/>
<text xml:space="preserve" text-anchor="middle" x="339.12" y="-747.5" font-family="sans-Serif" font-size="10.00" fill="#0f172a">mistakes.json</text>
<text xml:space="preserve" text-anchor="middle" x="339.12" y="-735.5" font-family="sans-Serif" font-size="10.00" fill="#0f172a">failure fingerprints · fixes</text>
<text xml:space="preserve" text-anchor="middle" x="339.12" y="-723.5" font-family="sans-Serif" font-size="10.00" fill="#0f172a">[REPEATING] · [REGRESSED]</text>
</g>
<!-- Root&#45;&gt;mis -->
<g id="edge5" class="edge">
<title>Root&#45;&gt;mis</title>
<path fill="none" stroke="#94a3b8" stroke-width="1.1" d="M127.59,-535.6C145.91,-571.38 190.47,-650.47 248.25,-698 251.56,-700.72 255.08,-703.3 258.73,-705.75"/>
<polygon fill="#94a3b8" stroke="#94a3b8" stroke-width="1.1" points="257.28,-707.73 264.51,-709.38 259.89,-703.58 257.28,-707.73"/>
</g>
<!-- met -->
<g id="node7" class="node">
<title>met</title>
<path fill="#fcd34d" stroke="#334155" stroke-width="1.3" d="M412,-683C412,-685.21 379.34,-687 339.12,-687 298.91,-687 266.25,-685.21 266.25,-683 266.25,-683 266.25,-647 266.25,-647 266.25,-644.79 298.91,-643 339.12,-643 379.34,-643 412,-644.79 412,-647 412,-647 412,-683 412,-683"/>
<path fill="none" stroke="#334155" stroke-width="1.3" d="M412,-683C412,-680.79 379.34,-679 339.12,-679 298.91,-679 266.25,-680.79 266.25,-683"/>
<text xml:space="preserve" text-anchor="middle" x="339.12" y="-667.5" font-family="sans-Serif" font-size="10.00" fill="#0f172a">metrics.json</text>
<text xml:space="preserve" text-anchor="middle" x="339.12" y="-655.5" font-family="sans-Serif" font-size="10.00" fill="#0f172a">per&#45;tool · per&#45;engine telemetry</text>
</g>
<!-- Root&#45;&gt;met -->
<g id="edge6" class="edge">
<title>Root&#45;&gt;met</title>
<path fill="none" stroke="#94a3b8" stroke-width="1.1" d="M134.88,-535.29C158,-560.16 202.51,-604.67 248.25,-632 253.35,-635.05 258.78,-637.89 264.35,-640.52"/>
<polygon fill="#94a3b8" stroke="#94a3b8" stroke-width="1.1" points="263.1,-642.64 270.49,-643.29 265.11,-638.18 263.1,-642.64"/>
</g>
<!-- ext -->
<g id="node8" class="node">
<title>ext</title>
<path fill="#fcd34d" stroke="#334155" stroke-width="1.3" d="M430,-615.75C430,-618.78 389.27,-621.25 339.12,-621.25 288.98,-621.25 248.25,-618.78 248.25,-615.75 248.25,-615.75 248.25,-566.25 248.25,-566.25 248.25,-563.22 288.98,-560.75 339.12,-560.75 389.27,-560.75 430,-563.22 430,-566.25 430,-566.25 430,-615.75 430,-615.75"/>
<path fill="none" stroke="#334155" stroke-width="1.3" d="M430,-615.75C430,-612.72 389.27,-610.25 339.12,-610.25 288.98,-610.25 248.25,-612.72 248.25,-615.75"/>
<text xml:space="preserve" text-anchor="middle" x="339.12" y="-599.5" font-family="sans-Serif" font-size="10.00" fill="#0f172a">extrospection.json</text>
<text xml:space="preserve" text-anchor="middle" x="339.12" y="-587.5" font-family="sans-Serif" font-size="10.00" fill="#0f172a">snapshot (host/net/tc/repo/env/rf/web)</text>
<text xml:space="preserve" text-anchor="middle" x="339.12" y="-575.5" font-family="sans-Serif" font-size="10.00" fill="#0f172a">+ previous + observations[]</text>
</g>
<!-- Root&#45;&gt;ext -->
<g id="edge7" class="edge">
<title>Root&#45;&gt;ext</title>
<path fill="none" stroke="#94a3b8" stroke-width="1.1" d="M147.66,-526.83C172.72,-535.27 210.27,-547.92 245.42,-559.76"/>
<polygon fill="#94a3b8" stroke="#94a3b8" stroke-width="1.1" points="244.35,-561.99 251.77,-561.9 245.92,-557.35 244.35,-561.99"/>
</g>
<!-- ews -->
<g id="node9" class="node">
<title>ews</title>
<path fill="#fcd34d" stroke="#334155" stroke-width="1.3" d="M415.38,-535C415.38,-537.21 381.2,-539 339.12,-539 297.05,-539 262.88,-537.21 262.88,-535 262.88,-535 262.88,-499 262.88,-499 262.88,-496.79 297.05,-495 339.12,-495 381.2,-495 415.38,-496.79 415.38,-499 415.38,-499 415.38,-535 415.38,-535"/>
<path fill="none" stroke="#334155" stroke-width="1.3" d="M415.38,-535C415.38,-532.79 381.2,-531 339.12,-531 297.05,-531 262.88,-532.79 262.88,-535"/>
<text xml:space="preserve" text-anchor="middle" x="339.12" y="-519.5" font-family="sans-Serif" font-size="10.00" fill="#0f172a">extrospection/web/*.png</text>
<text xml:space="preserve" text-anchor="middle" x="339.12" y="-507.5" font-family="sans-Serif" font-size="10.00" fill="#0f172a">probe_web / extro_watch shots</text>
</g>
<!-- Root&#45;&gt;ews -->
<g id="edge8" class="edge">
<title>Root&#45;&gt;ews</title>
<path fill="none" stroke="#94a3b8" stroke-width="1.1" d="M147.66,-517C174.78,-517 216.53,-517 254.03,-517"/>
<polygon fill="#94a3b8" stroke="#94a3b8" stroke-width="1.1" points="253.8,-519.45 260.8,-517 253.8,-514.55 253.8,-519.45"/>
</g>
<!-- ses -->
<g id="node10" class="node">
<title>ses</title>
<path fill="#fcd34d" stroke="#334155" stroke-width="1.3" d="M381.62,-469C381.62,-471.21 362.58,-473 339.12,-473 315.67,-473 296.62,-471.21 296.62,-469 296.62,-469 296.62,-433 296.62,-433 296.62,-430.79 315.67,-429 339.12,-429 362.58,-429 381.62,-430.79 381.62,-433 381.62,-433 381.62,-469 381.62,-469"/>
<path fill="none" stroke="#334155" stroke-width="1.3" d="M381.62,-469C381.62,-466.79 362.58,-465 339.12,-465 315.67,-465 296.62,-466.79 296.62,-469"/>
<text xml:space="preserve" text-anchor="middle" x="339.12" y="-453.5" font-family="sans-Serif" font-size="10.00" fill="#0f172a">sessions/*.jsonl</text>
<text xml:space="preserve" text-anchor="middle" x="339.12" y="-441.5" font-family="sans-Serif" font-size="10.00" fill="#0f172a">transcripts</text>
</g>
<!-- Root&#45;&gt;ses -->
<g id="edge9" class="edge">
<title>Root&#45;&gt;ses</title>
<path fill="none" stroke="#94a3b8" stroke-width="1.1" d="M147.66,-508.24C183.4,-497.5 244.53,-479.13 287.89,-466.1"/>
<polygon fill="#94a3b8" stroke="#94a3b8" stroke-width="1.1" points="288.45,-468.49 294.45,-464.13 287.04,-463.79 288.45,-468.49"/>
</g>
<!-- crn -->
<g id="node11" class="node">
<title>crn</title>
<path fill="#fcd34d" stroke="#334155" stroke-width="1.3" d="M394.75,-403C394.75,-405.21 369.82,-407 339.12,-407 308.43,-407 283.5,-405.21 283.5,-403 283.5,-403 283.5,-367 283.5,-367 283.5,-364.79 308.43,-363 339.12,-363 369.82,-363 394.75,-364.79 394.75,-367 394.75,-367 394.75,-403 394.75,-403"/>
<path fill="none" stroke="#334155" stroke-width="1.3" d="M394.75,-403C394.75,-400.79 369.82,-399 339.12,-399 308.43,-399 283.5,-400.79 283.5,-403"/>
<text xml:space="preserve" text-anchor="middle" x="339.12" y="-387.5" font-family="sans-Serif" font-size="10.00" fill="#0f172a">cron/jobs.yml</text>
<text xml:space="preserve" text-anchor="middle" x="339.12" y="-375.5" font-family="sans-Serif" font-size="10.00" fill="#0f172a">scheduled jobs + logs</text>
</g>
<!-- Root&#45;&gt;crn -->
<g id="edge10" class="edge">
<title>Root&#45;&gt;crn</title>
<path fill="none" stroke="#94a3b8" stroke-width="1.1" d="M138.73,-498.45C163.17,-476.8 206.27,-441.03 248.25,-418 256.79,-413.32 266.13,-409.05 275.45,-405.25"/>
<polygon fill="#94a3b8" stroke="#94a3b8" stroke-width="1.1" points="276.1,-407.63 281.71,-402.78 274.3,-403.07 276.1,-407.63"/>
</g>
<!-- agt -->
<g id="node12" class="node">
<title>agt</title>
<path fill="#fcd34d" stroke="#334155" stroke-width="1.3" d="M382,-337C382,-339.21 362.78,-341 339.12,-341 315.47,-341 296.25,-339.21 296.25,-337 296.25,-337 296.25,-301 296.25,-301 296.25,-298.79 315.47,-297 339.12,-297 362.78,-297 382,-298.79 382,-301 382,-301 382,-337 382,-337"/>
<path fill="none" stroke="#334155" stroke-width="1.3" d="M382,-337C382,-334.79 362.78,-333 339.12,-333 315.47,-333 296.25,-334.79 296.25,-337"/>
<text xml:space="preserve" text-anchor="middle" x="339.12" y="-321.5" font-family="sans-Serif" font-size="10.00" fill="#0f172a">agents.yml</text>
<text xml:space="preserve" text-anchor="middle" x="339.12" y="-309.5" font-family="sans-Serif" font-size="10.00" fill="#0f172a">persona registry</text>
</g>
<!-- Root&#45;&gt;agt -->
<g id="edge11" class="edge">
<title>Root&#45;&gt;agt</title>
<path fill="none" stroke="#94a3b8" stroke-width="1.1" d="M128.45,-498.4C147.43,-464.62 191.93,-392.9 248.25,-352 260.05,-343.43 274.33,-336.85 287.99,-331.92"/>
<polygon fill="#94a3b8" stroke="#94a3b8" stroke-width="1.1" points="288.54,-334.32 294.37,-329.73 286.95,-329.68 288.54,-334.32"/>
</g>
<!-- swm -->
<g id="node13" class="node">
<title>swm</title>
<path fill="#fcd34d" stroke="#334155" stroke-width="1.3" d="M394,-271C394,-273.21 369.4,-275 339.12,-275 308.85,-275 284.25,-273.21 284.25,-271 284.25,-271 284.25,-235 284.25,-235 284.25,-232.79 308.85,-231 339.12,-231 369.4,-231 394,-232.79 394,-235 394,-235 394,-271 394,-271"/>
<path fill="none" stroke="#334155" stroke-width="1.3" d="M394,-271C394,-268.79 369.4,-267 339.12,-267 308.85,-267 284.25,-268.79 284.25,-271"/>
<text xml:space="preserve" text-anchor="middle" x="339.12" y="-255.5" font-family="sans-Serif" font-size="10.00" fill="#0f172a">swarm/&lt;id&gt;/bus.jsonl</text>
<text xml:space="preserve" text-anchor="middle" x="339.12" y="-243.5" font-family="sans-Serif" font-size="10.00" fill="#0f172a">multi&#45;agent chat</text>
</g>
<!-- Root&#45;&gt;swm -->
<g id="edge12" class="edge">
<title>Root&#45;&gt;swm</title>
<path fill="none" stroke="#94a3b8" stroke-width="1.1" d="M123.94,-498.54C137.62,-455.24 177.51,-346.24 248.25,-286 256.34,-279.11 265.99,-273.61 275.92,-269.22"/>
<polygon fill="#94a3b8" stroke="#94a3b8" stroke-width="1.1" points="276.83,-271.5 282.38,-266.57 274.97,-266.96 276.83,-271.5"/>
</g>
<!-- midx -->
<g id="node14" class="node">
<title>midx</title>
<path fill="#fcd34d" stroke="#334155" stroke-width="1.3" d="M411.25,-203.75C411.25,-206.78 378.92,-209.25 339.12,-209.25 299.33,-209.25 267,-206.78 267,-203.75 267,-203.75 267,-154.25 267,-154.25 267,-151.22 299.33,-148.75 339.12,-148.75 378.92,-148.75 411.25,-151.22 411.25,-154.25 411.25,-154.25 411.25,-203.75 411.25,-203.75"/>
<path fill="none" stroke="#334155" stroke-width="1.3" d="M411.25,-203.75C411.25,-200.72 378.92,-198.25 339.12,-198.25 299.33,-198.25 267,-200.72 267,-203.75"/>
<text xml:space="preserve" text-anchor="middle" x="339.12" y="-187.5" font-family="sans-Serif" font-size="10.00" fill="#0f172a">memory.idx</text>
<text xml:space="preserve" text-anchor="middle" x="339.12" y="-175.5" font-family="sans-Serif" font-size="10.00" fill="#0f172a">local embedding index</text>
<text xml:space="preserve" text-anchor="middle" x="339.12" y="-163.5" font-family="sans-Serif" font-size="10.00" fill="#0f172a">(relevance&#45;ranked MEMORY)</text>
</g>
<!-- Root&#45;&gt;midx -->
<g id="edge13" class="edge">
<title>Root&#45;&gt;midx</title>
<path fill="none" stroke="#94a3b8" stroke-width="1.1" d="M121.82,-498.39C131.81,-447.35 166.16,-303.42 248.25,-220 251.72,-216.48 255.54,-213.23 259.6,-210.23"/>
<polygon fill="#94a3b8" stroke="#94a3b8" stroke-width="1.1" points="260.86,-212.34 265.26,-206.37 258.1,-208.29 260.86,-212.34"/>
</g>
<!-- ftn -->
<g id="node15" class="node">
<title>ftn</title>
<path fill="#fcd34d" stroke="#334155" stroke-width="1.3" d="M391,-120.75C391,-123.78 367.75,-126.25 339.12,-126.25 310.5,-126.25 287.25,-123.78 287.25,-120.75 287.25,-120.75 287.25,-71.25 287.25,-71.25 287.25,-68.22 310.5,-65.75 339.12,-65.75 367.75,-65.75 391,-68.22 391,-71.25 391,-71.25 391,-120.75 391,-120.75"/>
<path fill="none" stroke="#334155" stroke-width="1.3" d="M391,-120.75C391,-117.72 367.75,-115.25 339.12,-115.25 310.5,-115.25 287.25,-117.72 287.25,-120.75"/>
<text xml:space="preserve" text-anchor="middle" x="339.12" y="-104.5" font-family="sans-Serif" font-size="10.00" fill="#0f172a">finetune/*.jsonl</text>
<text xml:space="preserve" text-anchor="middle" x="339.12" y="-92.5" font-family="sans-Serif" font-size="10.00" fill="#0f172a">ShareGPT / OpenAI</text>
<text xml:space="preserve" text-anchor="middle" x="339.12" y="-80.5" font-family="sans-Serif" font-size="10.00" fill="#0f172a">supervised dataset</text>
</g>
<!-- Root&#45;&gt;ftn -->
<g id="edge14" class="edge">
<title>Root&#45;&gt;ftn</title>
<path fill="none" stroke="#94a3b8" stroke-width="1.1" d="M119.8,-498.68C124.95,-439.18 148.81,-248.73 248.25,-138 256.75,-128.54 267.82,-121.04 279.27,-115.16"/>
<polygon fill="#94a3b8" stroke="#94a3b8" stroke-width="1.1" points="280.08,-117.49 285.33,-112.25 277.96,-113.08 280.08,-117.49"/>
</g>
<!-- hist -->
<g id="node16" class="node">
<title>hist</title>
<path fill="#fcd34d" stroke="#334155" stroke-width="1.3" d="M379.38,-40C379.38,-42.21 361.33,-44 339.12,-44 316.92,-44 298.88,-42.21 298.88,-40 298.88,-40 298.88,-4 298.88,-4 298.88,-1.79 316.92,0 339.12,0 361.33,0 379.38,-1.79 379.38,-4 379.38,-4 379.38,-40 379.38,-40"/>
<path fill="none" stroke="#334155" stroke-width="1.3" d="M379.38,-40C379.38,-37.79 361.33,-36 339.12,-36 316.92,-36 298.88,-37.79 298.88,-40"/>
<text xml:space="preserve" text-anchor="middle" x="339.12" y="-24.5" font-family="sans-Serif" font-size="10.00" fill="#0f172a">~/.pwn_history</text>
<text xml:space="preserve" text-anchor="middle" x="339.12" y="-12.5" font-family="sans-Serif" font-size="10.00" fill="#0f172a">REPL history</text>
</g>
<!-- Root&#45;&gt;hist -->
<g id="edge15" class="edge">
<title>Root&#45;&gt;hist</title>
<path fill="none" stroke="#94a3b8" stroke-width="1.1" d="M118.08,-498.77C117.52,-430.72 124.65,-188.65 248.25,-55 259.4,-42.95 275.32,-35.28 290.68,-30.41"/>
<polygon fill="#94a3b8" stroke="#94a3b8" stroke-width="1.1" points="290.99,-32.87 297.03,-28.58 289.63,-28.17 290.99,-32.87"/>
</g>
</g>
</svg>
