<?xml version="1.0" encoding="UTF-8" standalone="no"?>
<!DOCTYPE svg PUBLIC "-//W3C//DTD SVG 1.1//EN"
 "http://www.w3.org/Graphics/SVG/1.1/DTD/svg11.dtd">
<!-- Generated by graphviz version 14.1.2 (0)
 -->
<!-- Title: PWN Plugin Ecosystem Pages: 1 -->
<svg width="888pt" height="220pt"
 viewBox="0.00 0.00 888.00 220.00" xmlns="http://www.w3.org/2000/svg" xmlns:xlink="http://www.w3.org/1999/xlink">
<g id="graph0" class="graph" transform="scale(1 1) rotate(0) translate(4 215.75)">
<title>PWN Plugin Ecosystem</title>
<polygon fill="white" stroke="none" points="-4,4 -4,-215.75 883.88,-215.75 883.88,4 -4,4"/>
<!-- Hub -->
<g id="node1" class="node">
<title>Hub</title>
<ellipse fill="none" stroke="black" cx="423.62" cy="-193.75" rx="37.21" ry="18"/>
<text xml:space="preserve" text-anchor="middle" x="423.62" y="-191.03" font-family="Arial" font-size="8.00">PWN::Plugins</text>
</g>
<!-- Recon -->
<g id="node2" class="node">
<title>Recon</title>
<path fill="none" stroke="black" d="M93.25,-130C93.25,-130 12,-130 12,-130 6,-130 0,-124 0,-118 0,-118 0,-104.75 0,-104.75 0,-98.75 6,-92.75 12,-92.75 12,-92.75 93.25,-92.75 93.25,-92.75 99.25,-92.75 105.25,-98.75 105.25,-104.75 105.25,-104.75 105.25,-118 105.25,-118 105.25,-124 99.25,-130 93.25,-130"/>
<text xml:space="preserve" text-anchor="middle" x="52.62" y="-118.4" font-family="Arial" font-size="8.00">Recon &amp; Discovery</text>
<text xml:space="preserve" text-anchor="middle" x="52.62" y="-108.65" font-family="Arial" font-size="8.00">(NmapIt, Shodan, IPInfo,</text>
<text xml:space="preserve" text-anchor="middle" x="52.62" y="-98.9" font-family="Arial" font-size="8.00">Hunter, crt.sh, Git)</text>
</g>
<!-- Hub&#45;&gt;Recon -->
<g id="edge1" class="edge">
<title>Hub&#45;&gt;Recon</title>
<path fill="none" stroke="black" d="M387.14,-189.52C328.47,-183.67 209.99,-169.09 113.62,-139.75 108.87,-138.3 104.01,-136.58 99.2,-134.7"/>
<polygon fill="black" stroke="black" points="100.8,-131.58 90.22,-130.99 98.13,-138.05 100.8,-131.58"/>
</g>
<!-- Web -->
<g id="node3" class="node">
<title>Web</title>
<path fill="none" stroke="black" d="M204.25,-134.88C204.25,-134.88 135,-134.88 135,-134.88 129,-134.88 123,-128.88 123,-122.88 123,-122.88 123,-99.88 123,-99.88 123,-93.88 129,-87.88 135,-87.88 135,-87.88 204.25,-87.88 204.25,-87.88 210.25,-87.88 216.25,-93.88 216.25,-99.88 216.25,-99.88 216.25,-122.88 216.25,-122.88 216.25,-128.88 210.25,-134.88 204.25,-134.88"/>
<text xml:space="preserve" text-anchor="middle" x="169.62" y="-123.28" font-family="Arial" font-size="8.00">Web &amp; Proxy</text>
<text xml:space="preserve" text-anchor="middle" x="169.62" y="-113.53" font-family="Arial" font-size="8.00">(TransparentBrowser,</text>
<text xml:space="preserve" text-anchor="middle" x="169.62" y="-103.78" font-family="Arial" font-size="8.00">BurpSuite, Zaproxy,</text>
<text xml:space="preserve" text-anchor="middle" x="169.62" y="-94.03" font-family="Arial" font-size="8.00">Spider, URI Buster)</text>
</g>
<!-- Hub&#45;&gt;Web -->
<g id="edge2" class="edge">
<title>Hub&#45;&gt;Web</title>
<path fill="none" stroke="black" d="M390.36,-185.26C351.51,-176.15 285.56,-159.49 230.62,-139.75 229.48,-139.34 228.32,-138.91 227.16,-138.48"/>
<polygon fill="black" stroke="black" points="228.61,-135.29 218.03,-134.88 226.05,-141.8 228.61,-135.29"/>
</g>
<!-- Vuln -->
<g id="node4" class="node">
<title>Vuln</title>
<path fill="none" stroke="black" d="M280,-47C280,-47 209.25,-47 209.25,-47 203.25,-47 197.25,-41 197.25,-35 197.25,-35 197.25,-12 197.25,-12 197.25,-6 203.25,0 209.25,0 209.25,0 280,0 280,0 286,0 292,-6 292,-12 292,-12 292,-35 292,-35 292,-41 286,-47 280,-47"/>
<text xml:space="preserve" text-anchor="middle" x="244.62" y="-35.4" font-family="Arial" font-size="8.00">Vulnerability</text>
<text xml:space="preserve" text-anchor="middle" x="244.62" y="-25.65" font-family="Arial" font-size="8.00">(Fuzz, Metasploit,</text>
<text xml:space="preserve" text-anchor="middle" x="244.62" y="-15.9" font-family="Arial" font-size="8.00">Nessus, OpenVAS,</text>
<text xml:space="preserve" text-anchor="middle" x="244.62" y="-6.15" font-family="Arial" font-size="8.00">Nexpose, DefectDojo)</text>
</g>
<!-- Hub&#45;&gt;Vuln -->
<g id="edge3" class="edge">
<title>Hub&#45;&gt;Vuln</title>
<path fill="none" stroke="black" d="M386.52,-191.07C349.63,-187.29 294.23,-175.57 263.62,-139.75 244.63,-117.52 241,-83.78 241.46,-58.54"/>
<polygon fill="black" stroke="black" points="244.95,-58.92 241.88,-48.78 237.95,-58.62 244.95,-58.92"/>
</g>
<!-- Auth -->
<g id="node5" class="node">
<title>Auth</title>
<path fill="none" stroke="black" d="M348.62,-130C348.62,-130 284.62,-130 284.62,-130 278.62,-130 272.62,-124 272.62,-118 272.62,-118 272.62,-104.75 272.62,-104.75 272.62,-98.75 278.62,-92.75 284.62,-92.75 284.62,-92.75 348.62,-92.75 348.62,-92.75 354.62,-92.75 360.62,-98.75 360.62,-104.75 360.62,-104.75 360.62,-118 360.62,-118 360.62,-124 354.62,-130 348.62,-130"/>
<text xml:space="preserve" text-anchor="middle" x="316.62" y="-118.4" font-family="Arial" font-size="8.00">Auth &amp; Access</text>
<text xml:space="preserve" text-anchor="middle" x="316.62" y="-108.65" font-family="Arial" font-size="8.00">(OAuth2, BasicAuth,</text>
<text xml:space="preserve" text-anchor="middle" x="316.62" y="-98.9" font-family="Arial" font-size="8.00">DAOs, Vault)</text>
</g>
<!-- Hub&#45;&gt;Auth -->
<g id="edge4" class="edge">
<title>Hub&#45;&gt;Auth</title>
<path fill="none" stroke="black" d="M404,-178.01C388.79,-166.58 367.38,-150.5 349.56,-137.12"/>
<polygon fill="black" stroke="black" points="351.93,-134.52 341.83,-131.31 347.72,-140.11 351.93,-134.52"/>
</g>
<!-- Infra -->
<g id="node6" class="node">
<title>Infra</title>
<path fill="none" stroke="black" d="M456.38,-130C456.38,-130 390.88,-130 390.88,-130 384.88,-130 378.88,-124 378.88,-118 378.88,-118 378.88,-104.75 378.88,-104.75 378.88,-98.75 384.88,-92.75 390.88,-92.75 390.88,-92.75 456.38,-92.75 456.38,-92.75 462.38,-92.75 468.38,-98.75 468.38,-104.75 468.38,-104.75 468.38,-118 468.38,-118 468.38,-124 462.38,-130 456.38,-130"/>
<text xml:space="preserve" text-anchor="middle" x="423.62" y="-118.4" font-family="Arial" font-size="8.00">Infrastructure</text>
<text xml:space="preserve" text-anchor="middle" x="423.62" y="-108.65" font-family="Arial" font-size="8.00">(Jenkins, AWS, Jira,</text>
<text xml:space="preserve" text-anchor="middle" x="423.62" y="-98.9" font-family="Arial" font-size="8.00">RabbitMQ, Vsphere)</text>
</g>
<!-- Hub&#45;&gt;Infra -->
<g id="edge5" class="edge">
<title>Hub&#45;&gt;Infra</title>
<path fill="none" stroke="black" d="M423.62,-175.31C423.62,-165.44 423.62,-152.84 423.62,-141.52"/>
<polygon fill="black" stroke="black" points="427.13,-141.85 423.63,-131.85 420.13,-141.85 427.13,-141.85"/>
</g>
<!-- LowLevel -->
<g id="node7" class="node">
<title>LowLevel</title>
<path fill="none" stroke="black" d="M559.12,-139.75C559.12,-139.75 498.12,-139.75 498.12,-139.75 492.12,-139.75 486.12,-133.75 486.12,-127.75 486.12,-127.75 486.12,-95 486.12,-95 486.12,-89 492.12,-83 498.12,-83 498.12,-83 559.12,-83 559.12,-83 565.12,-83 571.12,-89 571.12,-95 571.12,-95 571.12,-127.75 571.12,-127.75 571.12,-133.75 565.12,-139.75 559.12,-139.75"/>
<text xml:space="preserve" text-anchor="middle" x="528.62" y="-128.15" font-family="Arial" font-size="8.00">Low Level &amp;</text>
<text xml:space="preserve" text-anchor="middle" x="528.62" y="-118.4" font-family="Arial" font-size="8.00">Hardware</text>
<text xml:space="preserve" text-anchor="middle" x="528.62" y="-108.65" font-family="Arial" font-size="8.00">(Serial, BusPirate,</text>
<text xml:space="preserve" text-anchor="middle" x="528.62" y="-98.9" font-family="Arial" font-size="8.00">Packet, Sock, Tor,</text>
<text xml:space="preserve" text-anchor="middle" x="528.62" y="-89.15" font-family="Arial" font-size="8.00">Android, Assembly)</text>
</g>
<!-- Hub&#45;&gt;LowLevel -->
<g id="edge6" class="edge">
<title>Hub&#45;&gt;LowLevel</title>
<path fill="none" stroke="black" d="M442.88,-178.01C454.36,-169.23 469.43,-157.69 483.73,-146.74"/>
<polygon fill="black" stroke="black" points="485.48,-149.81 491.29,-140.95 481.22,-144.25 485.48,-149.81"/>
</g>
<!-- Util -->
<g id="node8" class="node">
<title>Util</title>
<path fill="none" stroke="black" d="M668.12,-130C668.12,-130 601.12,-130 601.12,-130 595.12,-130 589.12,-124 589.12,-118 589.12,-118 589.12,-104.75 589.12,-104.75 589.12,-98.75 595.12,-92.75 601.12,-92.75 601.12,-92.75 668.12,-92.75 668.12,-92.75 674.12,-92.75 680.12,-98.75 680.12,-104.75 680.12,-104.75 680.12,-118 680.12,-118 680.12,-124 674.12,-130 668.12,-130"/>
<text xml:space="preserve" text-anchor="middle" x="634.62" y="-118.4" font-family="Arial" font-size="8.00">Utilities</text>
<text xml:space="preserve" text-anchor="middle" x="634.62" y="-108.65" font-family="Arial" font-size="8.00">(FileFu, Char, XXD,</text>
<text xml:space="preserve" text-anchor="middle" x="634.62" y="-98.9" font-family="Arial" font-size="8.00">PS, Reports helpers)</text>
</g>
<!-- Hub&#45;&gt;Util -->
<g id="edge7" class="edge">
<title>Hub&#45;&gt;Util</title>
<path fill="none" stroke="black" d="M455.1,-183.59C487.15,-173.91 538.05,-157.62 580.62,-139.75 583.97,-138.35 587.39,-136.82 590.81,-135.24"/>
<polygon fill="black" stroke="black" points="592.12,-138.5 599.62,-131.02 589.09,-132.19 592.12,-138.5"/>
</g>
<!-- SDR -->
<g id="node9" class="node">
<title>SDR</title>
<path fill="none" stroke="black" d="M745.38,-129.38C745.38,-129.38 709.88,-129.38 709.88,-129.38 703.88,-129.38 697.88,-123.38 697.88,-117.38 697.88,-117.38 697.88,-105.38 697.88,-105.38 697.88,-99.38 703.88,-93.38 709.88,-93.38 709.88,-93.38 745.38,-93.38 745.38,-93.38 751.38,-93.38 757.38,-99.38 757.38,-105.38 757.38,-105.38 757.38,-117.38 757.38,-117.38 757.38,-123.38 751.38,-129.38 745.38,-129.38"/>
<text xml:space="preserve" text-anchor="middle" x="727.62" y="-113.53" font-family="Arial" font-size="8.00">SDR &amp; RF</text>
<text xml:space="preserve" text-anchor="middle" x="727.62" y="-103.78" font-family="Arial" font-size="8.00">(SDR, gqrx)</text>
</g>
<!-- Hub&#45;&gt;SDR -->
<g id="edge8" class="edge">
<title>Hub&#45;&gt;SDR</title>
<path fill="none" stroke="black" d="M460.37,-190.38C513.08,-185.9 612.34,-173.38 689.62,-139.75 692.23,-138.61 694.84,-137.28 697.4,-135.82"/>
<polygon fill="black" stroke="black" points="699.1,-138.88 705.62,-130.54 695.32,-132.99 699.1,-138.88"/>
</g>
<!-- Other -->
<g id="node10" class="node">
<title>Other</title>
<path fill="none" stroke="black" d="M867.88,-130C867.88,-130 787.38,-130 787.38,-130 781.38,-130 775.38,-124 775.38,-118 775.38,-118 775.38,-104.75 775.38,-104.75 775.38,-98.75 781.38,-92.75 787.38,-92.75 787.38,-92.75 867.88,-92.75 867.88,-92.75 873.88,-92.75 879.88,-98.75 879.88,-104.75 879.88,-104.75 879.88,-118 879.88,-118 879.88,-124 873.88,-130 867.88,-130"/>
<text xml:space="preserve" text-anchor="middle" x="827.62" y="-118.4" font-family="Arial" font-size="8.00">Misc</text>
<text xml:space="preserve" text-anchor="middle" x="827.62" y="-108.65" font-family="Arial" font-size="8.00">(BeEF, OCR, PDFParse,</text>
<text xml:space="preserve" text-anchor="middle" x="827.62" y="-98.9" font-family="Arial" font-size="8.00">ScannableCodes, etc.)</text>
</g>
<!-- Hub&#45;&gt;Other -->
<g id="edge9" class="edge">
<title>Hub&#45;&gt;Other</title>
<path fill="none" stroke="black" d="M460.63,-190.3C524.29,-185.37 658.14,-171.84 766.62,-139.75 771.45,-138.32 776.39,-136.59 781.27,-134.71"/>
<polygon fill="black" stroke="black" points="782.47,-138 790.38,-130.95 779.81,-131.52 782.47,-138"/>
</g>
<!-- Recon&#45;&gt;Vuln -->
<g id="edge10" class="edge">
<title>Recon&#45;&gt;Vuln</title>
<path fill="none" stroke="black" d="M92.98,-92.25C99.87,-89.16 106.95,-85.99 113.62,-83 137.47,-72.33 163.77,-60.58 186.5,-50.43"/>
<polygon fill="black" stroke="black" points="187.93,-53.63 195.63,-46.35 185.07,-47.23 187.93,-53.63"/>
</g>
<!-- Web&#45;&gt;Vuln -->
<g id="edge11" class="edge">
<title>Web&#45;&gt;Vuln</title>
<path fill="none" stroke="black" d="M189.33,-87.81C197.87,-78.03 208.02,-66.41 217.28,-55.81"/>
<polygon fill="black" stroke="black" points="219.85,-58.18 223.8,-48.35 214.58,-53.58 219.85,-58.18"/>
</g>
<!-- Auth&#45;&gt;Vuln -->
<g id="edge12" class="edge">
<title>Auth&#45;&gt;Vuln</title>
<path fill="none" stroke="black" d="M301.71,-92.58C292.89,-82.07 281.47,-68.44 271.16,-56.15"/>
<polygon fill="black" stroke="black" points="273.99,-54.07 264.88,-48.66 268.62,-58.57 273.99,-54.07"/>
</g>
<!-- Infra&#45;&gt;Vuln -->
<g id="edge13" class="edge">
<title>Infra&#45;&gt;Vuln</title>
<path fill="none" stroke="black" d="M388.27,-92.25C382.07,-89.13 375.67,-85.95 369.62,-83 347.88,-72.4 323.85,-61.07 302.72,-51.22"/>
<polygon fill="black" stroke="black" points="304.19,-48.05 293.65,-47.01 301.24,-54.4 304.19,-48.05"/>
</g>
</g>
</svg>
