<?xml version="1.0" encoding="UTF-8" standalone="no"?>
<!DOCTYPE svg PUBLIC "-//W3C//DTD SVG 1.1//EN"
 "http://www.w3.org/Graphics/SVG/1.1/DTD/svg11.dtd">
<!-- Generated by graphviz version 14.1.2 (0)
 -->
<!-- Title: PWN_AI_Feedback_Learning_Loop Pages: 1 -->
<svg width="1658pt" height="723pt"
 viewBox="0.00 0.00 1658.00 723.00" xmlns="http://www.w3.org/2000/svg" xmlns:xlink="http://www.w3.org/1999/xlink">
<g id="graph0" class="graph" transform="scale(1 1) rotate(0) translate(43.2 679.95)">
<title>PWN_AI_Feedback_Learning_Loop</title>
<polygon fill="#0f172a" stroke="none" points="-43.2,43.2 -43.2,-679.95 1614.99,-679.95 1614.99,43.2 -43.2,43.2"/>
<text xml:space="preserve" text-anchor="start" x="592.4" y="-614.75" font-family="sans-Serif" font-weight="bold" font-size="20.00" fill="#e2e8f0">pwn&#45;ai — Closed Self&#45;Improvement Loop</text>
<text xml:space="preserve" text-anchor="start" x="599.52" y="-603.3" font-family="sans-Serif" font-size="11.00" fill="#94a3b8">Introspection (self) &#160;⟷ &#160;Extrospection (world) &#160;· &#160;Mistakes (negative feedback)</text>
<g id="clust2" class="cluster">
<title>cluster_core</title>
<path fill="#2e1065" stroke="#6d28d9" stroke-width="2" d="M131.59,-424C131.59,-424 468.59,-424 468.59,-424 474.59,-424 480.59,-430 480.59,-436 480.59,-436 480.59,-495.25 480.59,-495.25 480.59,-501.25 474.59,-507.25 468.59,-507.25 468.59,-507.25 131.59,-507.25 131.59,-507.25 125.59,-507.25 119.59,-501.25 119.59,-495.25 119.59,-495.25 119.59,-436 119.59,-436 119.59,-430 125.59,-424 131.59,-424"/>
<text xml:space="preserve" text-anchor="middle" x="300.09" y="-484.25" font-family="sans-Serif" font-size="20.00" fill="#ddd6fe">PWN::AI::Agent::Loop</text>
</g>
<g id="clust4" class="cluster">
<title>cluster_intro</title>
<path fill="#022c22" stroke="#047857" stroke-width="2" d="M416.59,-257.75C416.59,-257.75 928.59,-257.75 928.59,-257.75 934.59,-257.75 940.59,-263.75 940.59,-269.75 940.59,-269.75 940.59,-355 940.59,-355 940.59,-361 934.59,-367 928.59,-367 928.59,-367 416.59,-367 416.59,-367 410.59,-367 404.59,-361 404.59,-355 404.59,-355 404.59,-269.75 404.59,-269.75 404.59,-263.75 410.59,-257.75 416.59,-257.75"/>
<text xml:space="preserve" text-anchor="middle" x="672.59" y="-344" font-family="sans-Serif" font-size="20.00" fill="#a7f3d0">INTROSPECTION &#160;(self)</text>
</g>
<g id="clust5" class="cluster">
<title>cluster_extro</title>
<path fill="#422006" stroke="#a16207" stroke-width="2" d="M106.59,-264.5C106.59,-264.5 365.59,-264.5 365.59,-264.5 371.59,-264.5 377.59,-270.5 377.59,-276.5 377.59,-276.5 377.59,-348.25 377.59,-348.25 377.59,-354.25 371.59,-360.25 365.59,-360.25 365.59,-360.25 106.59,-360.25 106.59,-360.25 100.59,-360.25 94.59,-354.25 94.59,-348.25 94.59,-348.25 94.59,-276.5 94.59,-276.5 94.59,-270.5 100.59,-264.5 106.59,-264.5"/>
<text xml:space="preserve" text-anchor="middle" x="236.09" y="-337.25" font-family="sans-Serif" font-size="20.00" fill="#fde68a">EXTROSPECTION &#160;(world)</text>
</g>
<g id="clust7" class="cluster">
<title>cluster_store</title>
<path fill="#1e293b" stroke="#334155" stroke-dasharray="5,2" d="M318.59,-8C318.59,-8 1002.59,-8 1002.59,-8 1008.59,-8 1014.59,-14 1014.59,-20 1014.59,-20 1014.59,-79.25 1014.59,-79.25 1014.59,-85.25 1008.59,-91.25 1002.59,-91.25 1002.59,-91.25 318.59,-91.25 318.59,-91.25 312.59,-91.25 306.59,-85.25 306.59,-79.25 306.59,-79.25 306.59,-20 306.59,-20 306.59,-14 312.59,-8 318.59,-8"/>
<text xml:space="preserve" text-anchor="middle" x="660.59" y="-68.25" font-family="sans-Serif" font-size="20.00" fill="#94a3b8">~/.pwn/</text>
</g>
<!-- User -->
<g id="node1" class="node">
<title>User</title>
<path fill="#7dd3fc" stroke="#334155" stroke-width="1.4" d="M329.47,-597.75C329.47,-597.75 261.72,-597.75 261.72,-597.75 255.72,-597.75 249.72,-591.75 249.72,-585.75 249.72,-585.75 249.72,-573.75 249.72,-573.75 249.72,-567.75 255.72,-561.75 261.72,-561.75 261.72,-561.75 329.47,-561.75 329.47,-561.75 335.47,-561.75 341.47,-567.75 341.47,-573.75 341.47,-573.75 341.47,-585.75 341.47,-585.75 341.47,-591.75 335.47,-597.75 329.47,-597.75"/>
<text xml:space="preserve" text-anchor="middle" x="295.59" y="-576.05" font-family="sans-Serif" font-size="11.00" fill="#0f172a">👤 &#160;Researcher</text>
</g>
<!-- Prompt -->
<g id="node4" class="node">
<title>Prompt</title>
<path fill="#c4b5fd" stroke="#334155" stroke-width="1.4" d="M317.09,-468C317.09,-468 256.09,-468 256.09,-468 250.09,-468 244.09,-462 244.09,-456 244.09,-456 244.09,-444 244.09,-444 244.09,-438 250.09,-432 256.09,-432 256.09,-432 317.09,-432 317.09,-432 323.09,-432 329.09,-438 329.09,-444 329.09,-444 329.09,-456 329.09,-456 329.09,-462 323.09,-468 317.09,-468"/>
<text xml:space="preserve" text-anchor="middle" x="286.59" y="-453.05" font-family="sans-Serif" font-size="11.00" fill="#0f172a">PromptBuilder</text>
<text xml:space="preserve" text-anchor="middle" x="286.59" y="-439.55" font-family="sans-Serif" font-size="11.00" fill="#0f172a">inject context</text>
</g>
<!-- User&#45;&gt;Prompt -->
<g id="edge1" class="edge">
<title>User&#45;&gt;Prompt</title>
<path fill="none" stroke="#38bdf8" stroke-width="2" d="M294.36,-561.25C292.87,-540.16 290.36,-504.42 288.59,-479.36"/>
<polygon fill="#38bdf8" stroke="#38bdf8" stroke-width="2" points="291.41,-479.5 288.05,-471.71 285.82,-479.89 291.41,-479.5"/>
<text xml:space="preserve" text-anchor="middle" x="299.88" y="-517.2" font-family="sans-Serif" font-size="9.00" fill="#cbd5e1">task</text>
</g>
<!-- Mistakes -->
<g id="node9" class="node">
<title>Mistakes</title>
<path fill="#6ee7b7" stroke="#334155" stroke-width="2" d="M751.84,-327.75C751.84,-327.75 605.34,-327.75 605.34,-327.75 599.34,-327.75 593.34,-321.75 593.34,-315.75 593.34,-315.75 593.34,-277.75 593.34,-277.75 593.34,-271.75 599.34,-265.75 605.34,-265.75 605.34,-265.75 751.84,-265.75 751.84,-265.75 757.84,-265.75 763.84,-271.75 763.84,-277.75 763.84,-277.75 763.84,-315.75 763.84,-315.75 763.84,-321.75 757.84,-327.75 751.84,-327.75"/>
<text xml:space="preserve" text-anchor="middle" x="678.59" y="-313.3" font-family="sans-Serif" font-size="11.00" fill="#0f172a">Mistakes</text>
<text xml:space="preserve" text-anchor="middle" x="678.59" y="-299.8" font-family="sans-Serif" font-size="11.00" fill="#0f172a">record · resolve</text>
<text xml:space="preserve" text-anchor="middle" x="678.59" y="-286.3" font-family="sans-Serif" font-size="11.00" fill="#0f172a">guard · correction_hint</text>
<text xml:space="preserve" text-anchor="middle" x="678.59" y="-272.8" font-family="sans-Serif" font-size="11.00" fill="#0f172a">[REPEATING] · [REGRESSED]</text>
</g>
<!-- User&#45;&gt;Mistakes -->
<g id="edge9" class="edge">
<title>User&#45;&gt;Mistakes</title>
<path fill="none" stroke="#fb7185" stroke-width="1.3" stroke-dasharray="5,2" d="M249.08,-567.02C169.94,-547.04 17.5,-508.42 16.59,-507.25 -6.09,-478.02 -4.75,-454.22 16.59,-424 54.13,-370.83 90.56,-386.66 154.59,-375 200.19,-366.7 527.28,-380.55 571.59,-367 594,-360.15 616.17,-347.12 634.47,-334.19"/>
<polygon fill="#fb7185" stroke="#fb7185" stroke-width="1.3" points="635.65,-336.8 640.48,-329.84 632.36,-332.27 635.65,-336.8"/>
<text xml:space="preserve" text-anchor="middle" x="63.09" y="-451.95" font-family="sans-Serif" font-size="9.00" fill="#cbd5e1">&quot;that&#39;s wrong&quot;</text>
<text xml:space="preserve" text-anchor="middle" x="63.09" y="-441.45" font-family="sans-Serif" font-size="9.00" fill="#cbd5e1">check_user_correction</text>
</g>
<!-- LLM -->
<g id="node2" class="node">
<title>LLM</title>
<path fill="#c4b5fd" stroke="#334155" stroke-width="1.4" d="M481.59,-597.75C481.59,-597.75 405.59,-597.75 405.59,-597.75 399.59,-597.75 393.59,-591.75 393.59,-585.75 393.59,-585.75 393.59,-573.75 393.59,-573.75 393.59,-567.75 399.59,-561.75 405.59,-561.75 405.59,-561.75 481.59,-561.75 481.59,-561.75 487.59,-561.75 493.59,-567.75 493.59,-573.75 493.59,-573.75 493.59,-585.75 493.59,-585.75 493.59,-591.75 487.59,-597.75 481.59,-597.75"/>
<text xml:space="preserve" text-anchor="middle" x="443.59" y="-576.05" font-family="sans-Serif" font-size="11.00" fill="#0f172a">🤖 &#160;LLM Provider</text>
</g>
<!-- Dispatch -->
<g id="node5" class="node">
<title>Dispatch</title>
<path fill="#c4b5fd" stroke="#334155" stroke-width="1.4" d="M460.59,-468C460.59,-468 426.59,-468 426.59,-468 420.59,-468 414.59,-462 414.59,-456 414.59,-456 414.59,-444 414.59,-444 414.59,-438 420.59,-432 426.59,-432 426.59,-432 460.59,-432 460.59,-432 466.59,-432 472.59,-438 472.59,-444 472.59,-444 472.59,-456 472.59,-456 472.59,-462 466.59,-468 460.59,-468"/>
<text xml:space="preserve" text-anchor="middle" x="443.59" y="-453.05" font-family="sans-Serif" font-size="11.00" fill="#0f172a">Dispatch</text>
<text xml:space="preserve" text-anchor="middle" x="443.59" y="-439.55" font-family="sans-Serif" font-size="11.00" fill="#0f172a">tool calls</text>
</g>
<!-- LLM&#45;&gt;Dispatch -->
<g id="edge2" class="edge">
<title>LLM&#45;&gt;Dispatch</title>
<path fill="none" stroke="#a78bfa" stroke-width="2" d="M440.4,-550.18C439.65,-542.28 438.97,-533.69 438.59,-525.75 437.87,-510.42 438.88,-493.35 440.17,-479.39"/>
<polygon fill="#a78bfa" stroke="#a78bfa" stroke-width="2" points="437.61,-550.42 441.21,-558.1 443.18,-549.86 437.61,-550.42"/>
<polygon fill="#a78bfa" stroke="#a78bfa" stroke-width="2" points="442.95,-479.77 440.98,-471.52 437.38,-479.19 442.95,-479.77"/>
<text xml:space="preserve" text-anchor="middle" x="458.09" y="-517.2" font-family="sans-Serif" font-size="9.00" fill="#cbd5e1">tool_calls</text>
</g>
<!-- World -->
<g id="node3" class="node">
<title>World</title>
<path fill="#fda4af" stroke="#334155" stroke-width="1.4" d="M194.34,-597.75C194.34,-597.75 98.84,-597.75 98.84,-597.75 92.84,-597.75 86.84,-591.75 86.84,-585.75 86.84,-585.75 86.84,-573.75 86.84,-573.75 86.84,-567.75 92.84,-561.75 98.84,-561.75 98.84,-561.75 194.34,-561.75 194.34,-561.75 200.34,-561.75 206.34,-567.75 206.34,-573.75 206.34,-573.75 206.34,-585.75 206.34,-585.75 206.34,-591.75 200.34,-597.75 194.34,-597.75"/>
<text xml:space="preserve" text-anchor="middle" x="146.59" y="-582.8" font-family="sans-Serif" font-size="11.00" fill="#0f172a">🌍 &#160;Host · Net · Repo</text>
<text xml:space="preserve" text-anchor="middle" x="146.59" y="-569.3" font-family="sans-Serif" font-size="11.00" fill="#0f172a">Toolchain · RF · Intel</text>
</g>
<!-- Result -->
<g id="node6" class="node">
<title>Result</title>
<path fill="#c4b5fd" stroke="#334155" stroke-width="1.4" d="M189.47,-468C189.47,-468 139.72,-468 139.72,-468 133.72,-468 127.72,-462 127.72,-456 127.72,-456 127.72,-444 127.72,-444 127.72,-438 133.72,-432 139.72,-432 139.72,-432 189.47,-432 189.47,-432 195.47,-432 201.47,-438 201.47,-444 201.47,-444 201.47,-456 201.47,-456 201.47,-462 195.47,-468 189.47,-468"/>
<text xml:space="preserve" text-anchor="middle" x="164.59" y="-453.05" font-family="sans-Serif" font-size="11.00" fill="#0f172a">Result</text>
<text xml:space="preserve" text-anchor="middle" x="164.59" y="-439.55" font-family="sans-Serif" font-size="11.00" fill="#0f172a">final answer</text>
</g>
<!-- World&#45;&gt;Result -->
<!-- Snapshot -->
<g id="node10" class="node">
<title>Snapshot</title>
<path fill="#fcd34d" stroke="#334155" stroke-width="1.4" d="M357.59,-321C357.59,-321 281.59,-321 281.59,-321 275.59,-321 269.59,-315 269.59,-309 269.59,-309 269.59,-284.5 269.59,-284.5 269.59,-278.5 275.59,-272.5 281.59,-272.5 281.59,-272.5 357.59,-272.5 357.59,-272.5 363.59,-272.5 369.59,-278.5 369.59,-284.5 369.59,-284.5 369.59,-309 369.59,-309 369.59,-315 363.59,-321 357.59,-321"/>
<text xml:space="preserve" text-anchor="middle" x="319.59" y="-306.55" font-family="sans-Serif" font-size="11.00" fill="#0f172a">snapshot · drift</text>
<text xml:space="preserve" text-anchor="middle" x="319.59" y="-293.05" font-family="sans-Serif" font-size="11.00" fill="#0f172a">host/net/toolchain</text>
<text xml:space="preserve" text-anchor="middle" x="319.59" y="-279.55" font-family="sans-Serif" font-size="11.00" fill="#0f172a">repo/env/rf</text>
</g>
<!-- World&#45;&gt;Snapshot -->
<g id="edge12" class="edge">
<title>World&#45;&gt;Snapshot</title>
<path fill="none" stroke="#fb7185" stroke-width="1.3" d="M206.94,-565.64C214.22,-564.24 221.56,-562.9 228.59,-561.75 294.2,-550.99 476.64,-570.73 525.59,-525.75 575.71,-479.7 599.49,-424.33 552.59,-375 540.48,-362.26 410.8,-373.81 394.59,-367 375.12,-358.81 357.52,-343.23 344.27,-328.92"/>
<polygon fill="#fb7185" stroke="#fb7185" stroke-width="1.3" points="346.47,-327.18 339.06,-323.07 342.28,-330.9 346.47,-327.18"/>
</g>
<!-- Observe -->
<g id="node11" class="node">
<title>Observe</title>
<path fill="#fcd34d" stroke="#334155" stroke-width="1.4" d="M214.97,-314.75C214.97,-314.75 114.22,-314.75 114.22,-314.75 108.22,-314.75 102.22,-308.75 102.22,-302.75 102.22,-302.75 102.22,-290.75 102.22,-290.75 102.22,-284.75 108.22,-278.75 114.22,-278.75 114.22,-278.75 214.97,-278.75 214.97,-278.75 220.97,-278.75 226.97,-284.75 226.97,-290.75 226.97,-290.75 226.97,-302.75 226.97,-302.75 226.97,-308.75 220.97,-314.75 214.97,-314.75"/>
<text xml:space="preserve" text-anchor="middle" x="164.59" y="-299.8" font-family="sans-Serif" font-size="11.00" fill="#0f172a">observe · intel</text>
<text xml:space="preserve" text-anchor="middle" x="164.59" y="-286.3" font-family="sans-Serif" font-size="11.00" fill="#0f172a">recon facts · CVE feed</text>
</g>
<!-- World&#45;&gt;Observe -->
<g id="edge13" class="edge">
<title>World&#45;&gt;Observe</title>
<path fill="none" stroke="#fb7185" stroke-width="1.3" d="M206.91,-565.44C214.19,-564.07 221.55,-562.8 228.59,-561.75 271.74,-555.31 590.19,-557.98 619.59,-525.75 635.69,-508.11 806.02,-559.02 601.59,-375 587.01,-361.88 266.98,-373.84 248.59,-367 224.01,-357.86 201.4,-338.28 185.85,-322.27"/>
<polygon fill="#fb7185" stroke="#fb7185" stroke-width="1.3" points="188.08,-320.56 180.56,-316.65 184,-324.39 188.08,-320.56"/>
</g>
<!-- Prompt&#45;&gt;Dispatch -->
<g id="edge4" class="edge">
<title>Prompt&#45;&gt;Dispatch</title>
<path fill="none" stroke="#a78bfa" stroke-width="1.3" d="M329.52,-450C354.44,-450 379.35,-450 404.26,-450"/>
<polygon fill="#a78bfa" stroke="#a78bfa" stroke-width="1.3" points="404.22,-452.8 412.22,-450 404.22,-447.2 404.22,-452.8"/>
</g>
<!-- Dispatch&#45;&gt;Result -->
<g id="edge5" class="edge">
<title>Dispatch&#45;&gt;Result</title>
<path fill="none" stroke="#a78bfa" stroke-width="1.3" d="M426.28,-468.49C405.51,-489.19 368.52,-521.53 329.09,-534.5 293.21,-546.31 278.77,-549.49 244.09,-534.5 217.08,-522.82 195,-496.95 181.03,-476.88"/>
<polygon fill="#a78bfa" stroke="#a78bfa" stroke-width="1.3" points="183.42,-475.42 176.64,-470.33 178.76,-478.54 183.42,-475.42"/>
</g>
<!-- Metrics -->
<g id="node7" class="node">
<title>Metrics</title>
<path fill="#6ee7b7" stroke="#334155" stroke-width="1.4" d="M538.34,-314.75C538.34,-314.75 424.84,-314.75 424.84,-314.75 418.84,-314.75 412.84,-308.75 412.84,-302.75 412.84,-302.75 412.84,-290.75 412.84,-290.75 412.84,-284.75 418.84,-278.75 424.84,-278.75 424.84,-278.75 538.34,-278.75 538.34,-278.75 544.34,-278.75 550.34,-284.75 550.34,-290.75 550.34,-290.75 550.34,-302.75 550.34,-302.75 550.34,-308.75 544.34,-314.75 538.34,-314.75"/>
<text xml:space="preserve" text-anchor="middle" x="481.59" y="-299.8" font-family="sans-Serif" font-size="11.00" fill="#0f172a">Metrics</text>
<text xml:space="preserve" text-anchor="middle" x="481.59" y="-286.3" font-family="sans-Serif" font-size="11.00" fill="#0f172a">per&#45;tool success · avg ms</text>
</g>
<!-- Dispatch&#45;&gt;Metrics -->
<g id="edge6" class="edge">
<title>Dispatch&#45;&gt;Metrics</title>
<path fill="none" stroke="#34d399" stroke-width="1.3" d="M422.8,-431.36C408.23,-416.73 392.77,-395.15 401.34,-375 410.6,-353.24 429.32,-334.64 446.36,-321.15"/>
<polygon fill="#34d399" stroke="#34d399" stroke-width="1.3" points="447.78,-323.58 452.46,-316.51 444.39,-319.13 447.78,-323.58"/>
<text xml:space="preserve" text-anchor="middle" x="417.47" y="-382.2" font-family="sans-Serif" font-size="9.00" fill="#cbd5e1">record()</text>
</g>
<!-- Dispatch&#45;&gt;Mistakes -->
<g id="edge8" class="edge">
<title>Dispatch&#45;&gt;Mistakes</title>
<path fill="none" stroke="#fb7185" stroke-width="2" d="M473.21,-448.45C542.47,-446.46 711.81,-437.4 746.59,-396 762.37,-377.23 749.08,-354.84 730.2,-336.18"/>
<polygon fill="#fb7185" stroke="#fb7185" stroke-width="2" points="732.12,-334.15 724.35,-330.76 728.31,-338.25 732.12,-334.15"/>
<text xml:space="preserve" text-anchor="middle" x="772.71" y="-387.45" font-family="sans-Serif" font-size="9.00" fill="#cbd5e1">on failure</text>
<text xml:space="preserve" text-anchor="middle" x="772.71" y="-376.95" font-family="sans-Serif" font-size="9.00" fill="#cbd5e1">record()</text>
</g>
<!-- Dispatch&#45;&gt;Snapshot -->
<g id="edge10" class="edge">
<title>Dispatch&#45;&gt;Snapshot</title>
<path fill="none" stroke="#f59e0b" stroke-width="1.3" d="M413.98,-434.36C397.73,-425.15 378.18,-411.98 364.59,-396 348.44,-377 336.92,-351.24 329.59,-330.86"/>
<polygon fill="#f59e0b" stroke="#f59e0b" stroke-width="1.3" points="332.31,-330.15 327.06,-323.49 327.01,-331.97 332.31,-330.15"/>
<text xml:space="preserve" text-anchor="middle" x="376.59" y="-382.2" font-family="sans-Serif" font-size="9.00" fill="#cbd5e1">probe</text>
</g>
<!-- Result&#45;&gt;User -->
<g id="edge33" class="edge">
<title>Result&#45;&gt;User</title>
<path fill="none" stroke="#38bdf8" stroke-width="2" d="M176.86,-468.54C187.3,-481.86 203.6,-499.21 222.59,-507.25 235.95,-512.9 473.49,-504.84 483.59,-515.25 486.84,-518.6 486.41,-522.03 483.59,-525.75 475.46,-536.5 404.87,-554.35 352.57,-566.33"/>
<polygon fill="#38bdf8" stroke="#38bdf8" stroke-width="2" points="352.18,-563.54 345,-568.05 353.42,-569.01 352.18,-563.54"/>
<text xml:space="preserve" text-anchor="middle" x="500.87" y="-517.2" font-family="sans-Serif" font-size="9.00" fill="#cbd5e1">answer</text>
</g>
<!-- Learning -->
<g id="node8" class="node">
<title>Learning</title>
<path fill="#6ee7b7" stroke="#334155" stroke-width="1.4" d="M920.34,-321C920.34,-321 818.84,-321 818.84,-321 812.84,-321 806.84,-315 806.84,-309 806.84,-309 806.84,-284.5 806.84,-284.5 806.84,-278.5 812.84,-272.5 818.84,-272.5 818.84,-272.5 920.34,-272.5 920.34,-272.5 926.34,-272.5 932.34,-278.5 932.34,-284.5 932.34,-284.5 932.34,-309 932.34,-309 932.34,-315 926.34,-321 920.34,-321"/>
<text xml:space="preserve" text-anchor="middle" x="869.59" y="-306.55" font-family="sans-Serif" font-size="11.00" fill="#0f172a">Learning</text>
<text xml:space="preserve" text-anchor="middle" x="869.59" y="-293.05" font-family="sans-Serif" font-size="11.00" fill="#0f172a">note_outcome · reflect</text>
<text xml:space="preserve" text-anchor="middle" x="869.59" y="-279.55" font-family="sans-Serif" font-size="11.00" fill="#0f172a">consolidate · distill_skill</text>
</g>
<!-- Result&#45;&gt;Learning -->
<g id="edge7" class="edge">
<title>Result&#45;&gt;Learning</title>
<path fill="none" stroke="#34d399" stroke-width="1.3" d="M200.45,-431.32C207.64,-428.42 215.24,-425.78 222.59,-424 400.11,-381.01 454.09,-434.7 632.59,-396 658.57,-390.37 662.66,-380.81 688.59,-375 730.8,-365.54 745.52,-383.28 785.59,-367 806.66,-358.44 826.48,-342.63 841.57,-328.28"/>
<polygon fill="#34d399" stroke="#34d399" stroke-width="1.3" points="843.44,-330.37 847.18,-322.77 839.51,-326.38 843.44,-330.37"/>
<text xml:space="preserve" text-anchor="middle" x="712.59" y="-382.2" font-family="sans-Serif" font-size="9.00" fill="#cbd5e1">auto_reflect</text>
</g>
<!-- Result&#45;&gt;Observe -->
<g id="edge11" class="edge">
<title>Result&#45;&gt;Observe</title>
<path fill="none" stroke="#f59e0b" stroke-width="1.3" d="M164.59,-431.35C164.59,-405.17 164.59,-355.81 164.59,-324.97"/>
<polygon fill="#f59e0b" stroke="#f59e0b" stroke-width="1.3" points="167.39,-325.25 164.59,-317.25 161.79,-325.25 167.39,-325.25"/>
<text xml:space="preserve" text-anchor="middle" x="197.22" y="-382.2" font-family="sans-Serif" font-size="9.00" fill="#cbd5e1">auto_extrospect</text>
</g>
<!-- Correlate -->
<g id="node12" class="node">
<title>Correlate</title>
<path fill="#fda4af" stroke="#334155" stroke-width="2" d="M435.47,-172.75C435.47,-172.75 235.72,-172.75 235.72,-172.75 229.72,-172.75 223.72,-166.75 223.72,-160.75 223.72,-160.75 223.72,-148.25 223.72,-148.25 223.72,-142.25 229.72,-136.25 235.72,-136.25 235.72,-136.25 435.47,-136.25 435.47,-136.25 441.47,-136.25 447.47,-142.25 447.47,-148.25 447.47,-148.25 447.47,-160.75 447.47,-160.75 447.47,-166.75 441.47,-172.75 435.47,-172.75"/>
<text xml:space="preserve" text-anchor="middle" x="335.59" y="-157.35" font-family="sans-Serif" font-size="12.00" fill="#0f172a">extro_correlate()</text>
<text xml:space="preserve" text-anchor="middle" x="335.59" y="-143.1" font-family="sans-Serif" font-size="12.00" fill="#0f172a">&quot;I did it wrong&quot; &#160;vs &#160;&quot;the world changed&quot;</text>
</g>
<!-- Metrics&#45;&gt;Correlate -->
<g id="edge14" class="edge">
<title>Metrics&#45;&gt;Correlate</title>
<path fill="none" stroke="#34d399" stroke-width="1.3" d="M463.4,-278.27C437.75,-253.63 390.82,-208.55 361.53,-180.41"/>
<polygon fill="#34d399" stroke="#34d399" stroke-width="1.3" points="363.61,-178.53 355.9,-175.01 359.73,-182.57 363.61,-178.53"/>
</g>
<!-- Fmet -->
<g id="node13" class="node">
<title>Fmet</title>
<path fill="#fcd34d" stroke="#334155" stroke-width="1.4" d="M533.09,-48.73C533.09,-50.53 516.73,-52 496.59,-52 476.45,-52 460.09,-50.53 460.09,-48.73 460.09,-48.73 460.09,-19.27 460.09,-19.27 460.09,-17.47 476.45,-16 496.59,-16 516.73,-16 533.09,-17.47 533.09,-19.27 533.09,-19.27 533.09,-48.73 533.09,-48.73"/>
<path fill="none" stroke="#334155" stroke-width="1.4" d="M533.09,-48.73C533.09,-46.92 516.73,-45.45 496.59,-45.45 476.45,-45.45 460.09,-46.92 460.09,-48.73"/>
<text xml:space="preserve" text-anchor="middle" x="496.59" y="-30.3" font-family="sans-Serif" font-size="11.00" fill="#0f172a">metrics.json</text>
</g>
<!-- Metrics&#45;&gt;Fmet -->
<g id="edge20" class="edge">
<title>Metrics&#45;&gt;Fmet</title>
<path fill="none" stroke="#94a3b8" stroke-width="1.3" d="M482.6,-278.24C485.16,-233.7 491.94,-115.88 495.03,-62.26"/>
<polygon fill="#94a3b8" stroke="#94a3b8" stroke-width="1.3" points="497.81,-62.55 495.48,-54.4 492.22,-62.23 497.81,-62.55"/>
</g>
<!-- Learning&#45;&gt;Correlate -->
<g id="edge15" class="edge">
<title>Learning&#45;&gt;Correlate</title>
<path fill="none" stroke="#34d399" stroke-width="1.3" d="M821.4,-271.95C809.85,-266.81 797.43,-261.73 785.59,-257.75 675.2,-220.66 545.09,-192.73 453.25,-175.51"/>
<polygon fill="#34d399" stroke="#34d399" stroke-width="1.3" points="453.96,-172.79 445.58,-174.08 452.93,-178.29 453.96,-172.79"/>
</g>
<!-- Flrn -->
<g id="node14" class="node">
<title>Flrn</title>
<path fill="#fcd34d" stroke="#334155" stroke-width="1.4" d="M899.09,-48.73C899.09,-50.53 881.39,-52 859.59,-52 837.8,-52 820.09,-50.53 820.09,-48.73 820.09,-48.73 820.09,-19.27 820.09,-19.27 820.09,-17.47 837.8,-16 859.59,-16 881.39,-16 899.09,-17.47 899.09,-19.27 899.09,-19.27 899.09,-48.73 899.09,-48.73"/>
<path fill="none" stroke="#334155" stroke-width="1.4" d="M899.09,-48.73C899.09,-46.92 881.39,-45.45 859.59,-45.45 837.8,-45.45 820.09,-46.92 820.09,-48.73"/>
<text xml:space="preserve" text-anchor="middle" x="859.59" y="-30.3" font-family="sans-Serif" font-size="11.00" fill="#0f172a">learning.jsonl</text>
</g>
<!-- Learning&#45;&gt;Flrn -->
<g id="edge21" class="edge">
<title>Learning&#45;&gt;Flrn</title>
<path fill="none" stroke="#94a3b8" stroke-width="1.3" d="M879.02,-271.98C883.55,-259.59 888.62,-244.06 891.59,-229.75 903.38,-172.96 908.63,-154.69 891.59,-99.25 887.58,-86.19 881.13,-72.52 875.07,-61.17"/>
<polygon fill="#94a3b8" stroke="#94a3b8" stroke-width="1.3" points="877.62,-59.99 871.3,-54.34 872.71,-62.7 877.62,-59.99"/>
</g>
<!-- Fmem -->
<g id="node16" class="node">
<title>Fmem</title>
<path fill="#fcd34d" stroke="#334155" stroke-width="1.4" d="M777.34,-48.73C777.34,-50.53 759.98,-52 738.59,-52 717.21,-52 699.84,-50.53 699.84,-48.73 699.84,-48.73 699.84,-19.27 699.84,-19.27 699.84,-17.47 717.21,-16 738.59,-16 759.98,-16 777.34,-17.47 777.34,-19.27 777.34,-19.27 777.34,-48.73 777.34,-48.73"/>
<path fill="none" stroke="#334155" stroke-width="1.4" d="M777.34,-48.73C777.34,-46.92 759.98,-45.45 738.59,-45.45 717.21,-45.45 699.84,-46.92 699.84,-48.73"/>
<text xml:space="preserve" text-anchor="middle" x="738.59" y="-30.3" font-family="sans-Serif" font-size="11.00" fill="#0f172a">memory.json</text>
</g>
<!-- Learning&#45;&gt;Fmem -->
<g id="edge24" class="edge">
<title>Learning&#45;&gt;Fmem</title>
<path fill="none" stroke="#94a3b8" stroke-width="1.3" d="M858.17,-271.87C843.14,-240.59 815.81,-184.1 791.59,-136.25 778.62,-110.61 763.36,-81.58 752.56,-61.2"/>
<polygon fill="#94a3b8" stroke="#94a3b8" stroke-width="1.3" points="755.08,-59.97 748.85,-54.22 750.13,-62.6 755.08,-59.97"/>
<text xml:space="preserve" text-anchor="middle" x="823.24" y="-151.2" font-family="sans-Serif" font-size="9.00" fill="#cbd5e1">lesson</text>
</g>
<!-- Fskl -->
<g id="node17" class="node">
<title>Fskl</title>
<path fill="#fcd34d" stroke="#334155" stroke-width="1.4" d="M1006.59,-48.73C1006.59,-50.53 992.25,-52 974.59,-52 956.94,-52 942.59,-50.53 942.59,-48.73 942.59,-48.73 942.59,-19.27 942.59,-19.27 942.59,-17.47 956.94,-16 974.59,-16 992.25,-16 1006.59,-17.47 1006.59,-19.27 1006.59,-19.27 1006.59,-48.73 1006.59,-48.73"/>
<path fill="none" stroke="#334155" stroke-width="1.4" d="M1006.59,-48.73C1006.59,-46.92 992.25,-45.45 974.59,-45.45 956.94,-45.45 942.59,-46.92 942.59,-48.73"/>
<text xml:space="preserve" text-anchor="middle" x="974.59" y="-30.3" font-family="sans-Serif" font-size="11.00" fill="#0f172a">skills/*.md</text>
</g>
<!-- Learning&#45;&gt;Fskl -->
<g id="edge25" class="edge">
<title>Learning&#45;&gt;Fskl</title>
<path fill="none" stroke="#94a3b8" stroke-width="1.3" d="M894.37,-272.03C905.38,-260.26 917.62,-245.25 925.59,-229.75 954.14,-174.25 966.72,-101.15 971.71,-62.19"/>
<polygon fill="#94a3b8" stroke="#94a3b8" stroke-width="1.3" points="974.45,-62.84 972.63,-54.56 968.89,-62.16 974.45,-62.84"/>
<text xml:space="preserve" text-anchor="middle" x="965.73" y="-151.2" font-family="sans-Serif" font-size="9.00" fill="#cbd5e1">skill</text>
</g>
<!-- Mistakes&#45;&gt;Dispatch -->
<g id="edge31" class="edge">
<title>Mistakes&#45;&gt;Dispatch</title>
<path fill="none" stroke="#fb7185" stroke-width="2" stroke-dasharray="5,2" d="M630.95,-328.65C612.43,-340.64 591.04,-354.48 571.59,-367 540.76,-386.85 505.7,-409.31 480.07,-425.69"/>
<polygon fill="#fb7185" stroke="#fb7185" stroke-width="2" points="478.87,-423.14 473.63,-429.81 481.88,-427.86 478.87,-423.14"/>
<text xml:space="preserve" text-anchor="middle" x="590.35" y="-387.45" font-family="sans-Serif" font-size="9.00" fill="#cbd5e1">correction_hint</text>
<text xml:space="preserve" text-anchor="middle" x="590.35" y="-376.95" font-family="sans-Serif" font-size="9.00" fill="#cbd5e1">(inline, next iter)</text>
</g>
<!-- Mistakes&#45;&gt;Correlate -->
<g id="edge16" class="edge">
<title>Mistakes&#45;&gt;Correlate</title>
<path fill="none" stroke="#34d399" stroke-width="1.3" d="M602.9,-264.8C538.1,-238.3 446.45,-200.83 389.05,-177.36"/>
<polygon fill="#34d399" stroke="#34d399" stroke-width="1.3" points="390.43,-174.9 381.96,-174.46 388.31,-180.08 390.43,-174.9"/>
</g>
<!-- Fmis -->
<g id="node15" class="node">
<title>Fmis</title>
<path fill="#fcd34d" stroke="#334155" stroke-width="1.4" d="M656.84,-48.73C656.84,-50.53 638.8,-52 616.59,-52 594.38,-52 576.34,-50.53 576.34,-48.73 576.34,-48.73 576.34,-19.27 576.34,-19.27 576.34,-17.47 594.38,-16 616.59,-16 638.8,-16 656.84,-17.47 656.84,-19.27 656.84,-19.27 656.84,-48.73 656.84,-48.73"/>
<path fill="none" stroke="#334155" stroke-width="1.4" d="M656.84,-48.73C656.84,-46.92 638.8,-45.45 616.59,-45.45 594.38,-45.45 576.34,-46.92 576.34,-48.73"/>
<text xml:space="preserve" text-anchor="middle" x="616.59" y="-30.3" font-family="sans-Serif" font-size="11.00" fill="#0f172a">mistakes.json</text>
</g>
<!-- Mistakes&#45;&gt;Fmis -->
<g id="edge22" class="edge">
<title>Mistakes&#45;&gt;Fmis</title>
<path fill="none" stroke="#94a3b8" stroke-width="1.3" d="M671.24,-264.81C658.99,-213.3 634.62,-110.8 623.02,-62.02"/>
<polygon fill="#94a3b8" stroke="#94a3b8" stroke-width="1.3" points="625.78,-61.51 621.2,-54.38 620.33,-62.81 625.78,-61.51"/>
</g>
<!-- Mistakes&#45;&gt;Fmem -->
<g id="edge23" class="edge">
<title>Mistakes&#45;&gt;Fmem</title>
<path fill="none" stroke="#94a3b8" stroke-width="1.3" d="M685.71,-264.81C697.56,-213.3 721.15,-110.8 732.38,-62.02"/>
<polygon fill="#94a3b8" stroke="#94a3b8" stroke-width="1.3" points="735.07,-62.8 734.13,-54.38 729.61,-61.55 735.07,-62.8"/>
<text xml:space="preserve" text-anchor="middle" x="748.29" y="-151.2" font-family="sans-Serif" font-size="9.00" fill="#cbd5e1">resolve→lesson</text>
</g>
<!-- Snapshot&#45;&gt;Correlate -->
<g id="edge17" class="edge">
<title>Snapshot&#45;&gt;Correlate</title>
<path fill="none" stroke="#f59e0b" stroke-width="1.3" d="M322.31,-271.96C325.11,-247.4 329.48,-209.11 332.43,-183.2"/>
<polygon fill="#f59e0b" stroke="#f59e0b" stroke-width="1.3" points="335.18,-183.82 333.31,-175.55 329.62,-183.18 335.18,-183.82"/>
</g>
<!-- Observe&#45;&gt;Correlate -->
<g id="edge18" class="edge">
<title>Observe&#45;&gt;Correlate</title>
<path fill="none" stroke="#f59e0b" stroke-width="1.3" d="M185.91,-278.27C216.2,-253.42 271.84,-207.79 306.09,-179.7"/>
<polygon fill="#f59e0b" stroke="#f59e0b" stroke-width="1.3" points="307.54,-182.13 311.95,-174.89 303.99,-177.8 307.54,-182.13"/>
</g>
<!-- Fext -->
<g id="node18" class="node">
<title>Fext</title>
<path fill="#fcd34d" stroke="#334155" stroke-width="1.4" d="M416.72,-48.73C416.72,-50.53 393.8,-52 365.59,-52 337.38,-52 314.47,-50.53 314.47,-48.73 314.47,-48.73 314.47,-19.27 314.47,-19.27 314.47,-17.47 337.38,-16 365.59,-16 393.8,-16 416.72,-17.47 416.72,-19.27 416.72,-19.27 416.72,-48.73 416.72,-48.73"/>
<path fill="none" stroke="#334155" stroke-width="1.4" d="M416.72,-48.73C416.72,-46.92 393.8,-45.45 365.59,-45.45 337.38,-45.45 314.47,-46.92 314.47,-48.73"/>
<text xml:space="preserve" text-anchor="middle" x="365.59" y="-30.3" font-family="sans-Serif" font-size="11.00" fill="#0f172a">extrospection.json</text>
</g>
<!-- Observe&#45;&gt;Fext -->
<g id="edge26" class="edge">
<title>Observe&#45;&gt;Fext</title>
<path fill="none" stroke="#94a3b8" stroke-width="1.3" d="M164.56,-278.16C165.36,-246.73 170.97,-180.13 202.59,-136.25 229.7,-98.63 275.53,-71.98 311.7,-55.5"/>
<polygon fill="#94a3b8" stroke="#94a3b8" stroke-width="1.3" points="312.69,-58.13 318.87,-52.33 310.42,-53.01 312.69,-58.13"/>
</g>
<!-- Correlate&#45;&gt;Prompt -->
<g id="edge32" class="edge">
<title>Correlate&#45;&gt;Prompt</title>
<path fill="none" stroke="#fb7185" stroke-width="2" stroke-dasharray="5,2" d="M448.33,-166.31C617.02,-183.66 918.83,-219.63 950.59,-257.75 981.67,-295.05 981.47,-329.53 950.59,-367 911.03,-415.01 455.12,-414.76 393.59,-424 376.02,-426.64 357.06,-430.67 340.06,-434.73"/>
<polygon fill="#fb7185" stroke="#fb7185" stroke-width="2" points="339.8,-431.91 332.7,-436.53 341.13,-437.35 339.8,-431.91"/>
<text xml:space="preserve" text-anchor="middle" x="1013.2" y="-293.45" font-family="sans-Serif" font-size="9.00" fill="#cbd5e1">findings → next run</text>
</g>
<!-- Correlate&#45;&gt;Fmet -->
<!-- Fmis&#45;&gt;Prompt -->
<g id="edge29" class="edge">
<title>Fmis&#45;&gt;Prompt</title>
<path fill="none" stroke="#fb7185" stroke-width="2" stroke-dasharray="5,2" d="M630.71,-52.47C642.18,-65.39 659.54,-82.24 678.59,-91.25 802.47,-149.82 868.26,-62.26 983.59,-136.25 1074.83,-194.78 1130.78,-282.74 1062.59,-367 1015.66,-424.99 467.46,-413.52 393.59,-424 376,-426.5 357.04,-430.49 340.04,-434.55"/>
<polygon fill="#fb7185" stroke="#fb7185" stroke-width="2" points="339.78,-431.74 332.67,-436.36 341.11,-437.17 339.78,-431.74"/>
<text xml:space="preserve" text-anchor="middle" x="1117.63" y="-221.2" font-family="sans-Serif" font-size="9.00" fill="#cbd5e1">KNOWN MISTAKES</text>
<text xml:space="preserve" text-anchor="middle" x="1117.63" y="-210.7" font-family="sans-Serif" font-size="9.00" fill="#cbd5e1">+ KNOWN FIXES</text>
</g>
<!-- Fmem&#45;&gt;Prompt -->
<g id="edge27" class="edge">
<title>Fmem&#45;&gt;Prompt</title>
<path fill="none" stroke="#fbbf24" stroke-width="1.3" stroke-dasharray="5,2" d="M752.47,-52.54C763.56,-65.32 780.26,-81.95 798.59,-91.25 952.48,-169.27 1081.22,-59.97 1168.59,-208.75 1206.61,-273.48 1162.46,-313.71 1109.59,-367 1087.03,-389.75 1074.8,-388.74 1043.59,-396 761.95,-461.51 680.07,-384.71 393.59,-424 375.65,-426.46 356.31,-430.53 339.06,-434.68"/>
<polygon fill="#fbbf24" stroke="#fbbf24" stroke-width="1.3" points="338.73,-431.88 331.63,-436.52 340.07,-437.32 338.73,-431.88"/>
<text xml:space="preserve" text-anchor="middle" x="1210.36" y="-215.95" font-family="sans-Serif" font-size="9.00" fill="#cbd5e1">MEMORY block</text>
</g>
<!-- Fskl&#45;&gt;Prompt -->
<g id="edge28" class="edge">
<title>Fskl&#45;&gt;Prompt</title>
<path fill="none" stroke="#fbbf24" stroke-width="1.3" stroke-dasharray="5,2" d="M1007.1,-43.55C1068.89,-61.81 1201.64,-111.12 1252.59,-208.75 1288.52,-277.58 1236.71,-315.52 1178.59,-367 1152.15,-390.42 1139.17,-388.76 1104.59,-396 795.06,-460.82 706.98,-381.61 393.59,-424 375.65,-426.43 356.3,-430.49 339.06,-434.65"/>
<polygon fill="#fbbf24" stroke="#fbbf24" stroke-width="1.3" points="338.72,-431.84 331.63,-436.48 340.06,-437.28 338.72,-431.84"/>
<text xml:space="preserve" text-anchor="middle" x="1288.2" y="-215.95" font-family="sans-Serif" font-size="9.00" fill="#cbd5e1">SKILLS block</text>
</g>
<!-- Fext&#45;&gt;Prompt -->
<g id="edge30" class="edge">
<title>Fext&#45;&gt;Prompt</title>
<path fill="none" stroke="#fbbf24" stroke-width="1.3" stroke-dasharray="5,2" d="M382.38,-52.56C396.13,-65.71 416.81,-82.81 438.59,-91.25 663.41,-178.31 1570.24,4.82 1514.59,-229.75 1498.83,-296.18 1497.91,-323.13 1445.59,-367 1411.11,-395.91 1393.02,-388.84 1348.59,-396 929.38,-463.61 814.67,-369.2 393.59,-424 375.64,-426.34 356.29,-430.38 339.04,-434.54"/>
<polygon fill="#fbbf24" stroke="#fbbf24" stroke-width="1.3" points="338.7,-431.74 331.61,-436.38 340.05,-437.17 338.7,-431.74"/>
<text xml:space="preserve" text-anchor="middle" x="1544.42" y="-215.95" font-family="sans-Serif" font-size="9.00" fill="#cbd5e1">EXTRO block</text>
</g>
</g>
</svg>
