<?xml version="1.0" encoding="UTF-8" standalone="no"?>
<!DOCTYPE svg PUBLIC "-//W3C//DTD SVG 1.1//EN"
 "http://www.w3.org/Graphics/SVG/1.1/DTD/svg11.dtd">
<!-- Generated by graphviz version 14.1.2 (0)
 -->
<!-- Title: PWN REPL Prototyping &amp; Development Pages: 1 -->
<svg width="820pt" height="382pt"
 viewBox="0.00 0.00 820.00 382.00" xmlns="http://www.w3.org/2000/svg" xmlns:xlink="http://www.w3.org/1999/xlink">
<g id="graph0" class="graph" transform="scale(1 1) rotate(0) translate(4 377.67)">
<title>PWN REPL Prototyping &amp; Development</title>
<polygon fill="white" stroke="none" points="-4,4 -4,-377.67 816.39,-377.67 816.39,4 -4,4"/>
<g id="clust1" class="cluster">
<title>cluster_pwn</title>
<polygon fill="none" stroke="navy" points="686.89,-54.67 686.89,-365.67 804.39,-365.67 804.39,-54.67 686.89,-54.67"/>
<text xml:space="preserve" text-anchor="middle" x="745.64" y="-348.37" font-family="Times,serif" font-size="14.00">PWN Namespace</text>
</g>
<!-- User -->
<g id="node1" class="node">
<title>User</title>
<path fill="none" stroke="black" d="M58,-159.67C58,-159.67 12,-159.67 12,-159.67 6,-159.67 0,-153.67 0,-147.67 0,-147.67 0,-135.67 0,-135.67 0,-129.67 6,-123.67 12,-123.67 12,-123.67 58,-123.67 58,-123.67 64,-123.67 70,-129.67 70,-135.67 70,-135.67 70,-147.67 70,-147.67 70,-153.67 64,-159.67 58,-159.67"/>
<text xml:space="preserve" text-anchor="middle" x="35" y="-143.62" font-family="Arial" font-size="9.00">User</text>
<text xml:space="preserve" text-anchor="middle" x="35" y="-133.12" font-family="Arial" font-size="9.00">(Researcher)</text>
</g>
<!-- Shell -->
<g id="node2" class="node">
<title>Shell</title>
<path fill="none" stroke="black" d="M212.75,-199.67C212.75,-199.67 133,-199.67 133,-199.67 127,-199.67 121,-193.67 121,-187.67 121,-187.67 121,-175.67 121,-175.67 121,-169.67 127,-163.67 133,-163.67 133,-163.67 212.75,-163.67 212.75,-163.67 218.75,-163.67 224.75,-169.67 224.75,-175.67 224.75,-175.67 224.75,-187.67 224.75,-187.67 224.75,-193.67 218.75,-199.67 212.75,-199.67"/>
<text xml:space="preserve" text-anchor="middle" x="172.88" y="-178.37" font-family="Arial" font-size="9.00">shell (pwn command)</text>
</g>
<!-- User&#45;&gt;Shell -->
<g id="edge1" class="edge">
<title>User&#45;&gt;Shell</title>
<path fill="none" stroke="black" d="M70.29,-151.76C82.32,-155.31 96.24,-159.4 109.84,-163.41"/>
<polygon fill="black" stroke="black" points="108.61,-166.69 119.19,-166.16 110.58,-159.98 108.61,-166.69"/>
<text xml:space="preserve" text-anchor="middle" x="95.5" y="-162.62" font-family="Arial" font-size="8.00">pwn</text>
</g>
<!-- Pry -->
<g id="node3" class="node">
<title>Pry</title>
<ellipse fill="lightgreen" stroke="black" cx="341.95" cy="-141.67" rx="61.7" ry="20.51"/>
<text xml:space="preserve" text-anchor="middle" x="341.95" y="-143.62" font-family="Arial" font-size="9.00">Pry REPL</text>
<text xml:space="preserve" text-anchor="middle" x="341.95" y="-133.12" font-family="Arial" font-size="9.00">(PWN preloaded)</text>
</g>
<!-- Shell&#45;&gt;Pry -->
<g id="edge2" class="edge">
<title>Shell&#45;&gt;Pry</title>
<path fill="none" stroke="black" d="M224.91,-169.45C242.31,-165.29 261.95,-160.58 280.05,-156.25"/>
<polygon fill="black" stroke="black" points="280.7,-159.69 289.61,-153.96 279.07,-152.89 280.7,-159.69"/>
<text xml:space="preserve" text-anchor="middle" x="252.5" y="-166.22" font-family="Arial" font-size="8.00">starts</text>
</g>
<!-- Pry&#45;&gt;User -->
<g id="edge12" class="edge">
<title>Pry&#45;&gt;User</title>
<path fill="none" stroke="black" d="M280.96,-137.67C262.9,-136.64 243.03,-135.68 224.75,-135.17 178.66,-133.88 167.08,-133.41 121,-135.17 108.2,-135.66 94.35,-136.56 81.61,-137.54"/>
<polygon fill="black" stroke="black" points="81.49,-134.04 71.8,-138.33 82.05,-141.01 81.49,-134.04"/>
<text xml:space="preserve" text-anchor="middle" x="172.88" y="-147.07" font-family="Arial" font-size="8.00">interactive results</text>
<text xml:space="preserve" text-anchor="middle" x="172.88" y="-137.32" font-family="Arial" font-size="8.00">inspect / pp / tab&#45;complete</text>
</g>
<!-- Plugins -->
<g id="node4" class="node">
<title>Plugins</title>
<path fill="none" stroke="black" d="M784.39,-332.67C784.39,-332.67 706.89,-332.67 706.89,-332.67 700.89,-332.67 694.89,-326.67 694.89,-320.67 694.89,-320.67 694.89,-294.67 694.89,-294.67 694.89,-288.67 700.89,-282.67 706.89,-282.67 706.89,-282.67 784.39,-282.67 784.39,-282.67 790.39,-282.67 796.39,-288.67 796.39,-294.67 796.39,-294.67 796.39,-320.67 796.39,-320.67 796.39,-326.67 790.39,-332.67 784.39,-332.67"/>
<text xml:space="preserve" text-anchor="middle" x="745.64" y="-320.12" font-family="Arial" font-size="9.00">PWN::Plugins::</text>
<text xml:space="preserve" text-anchor="middle" x="745.64" y="-309.62" font-family="Arial" font-size="9.00">(Burp, NmapIt,</text>
<text xml:space="preserve" text-anchor="middle" x="745.64" y="-299.12" font-family="Arial" font-size="9.00">TransparentBrowser,</text>
<text xml:space="preserve" text-anchor="middle" x="745.64" y="-288.62" font-family="Arial" font-size="9.00">Metasploit, etc.)</text>
</g>
<!-- Pry&#45;&gt;Plugins -->
<g id="edge3" class="edge">
<title>Pry&#45;&gt;Plugins</title>
<path fill="none" stroke="black" d="M368.5,-160.44C383.57,-171.12 403.25,-184.37 421.64,-194.67 507.19,-242.59 616.7,-275.69 683.71,-293.17"/>
<polygon fill="black" stroke="black" points="682.47,-296.46 693.03,-295.56 684.21,-289.68 682.47,-296.46"/>
<text xml:space="preserve" text-anchor="middle" x="555.27" y="-273.11" font-family="Arial" font-size="8.00">direct method calls</text>
</g>
<!-- SAST -->
<g id="node5" class="node">
<title>SAST</title>
<path fill="none" stroke="black" d="M772.77,-264.42C772.77,-264.42 718.52,-264.42 718.52,-264.42 712.52,-264.42 706.52,-258.42 706.52,-252.42 706.52,-252.42 706.52,-236.92 706.52,-236.92 706.52,-230.92 712.52,-224.92 718.52,-224.92 718.52,-224.92 772.77,-224.92 772.77,-224.92 778.77,-224.92 784.77,-230.92 784.77,-236.92 784.77,-236.92 784.77,-252.42 784.77,-252.42 784.77,-258.42 778.77,-264.42 772.77,-264.42"/>
<text xml:space="preserve" text-anchor="middle" x="745.64" y="-251.87" font-family="Arial" font-size="9.00">PWN::SAST</text>
<text xml:space="preserve" text-anchor="middle" x="745.64" y="-241.37" font-family="Arial" font-size="9.00">(Static Analysis</text>
<text xml:space="preserve" text-anchor="middle" x="745.64" y="-230.87" font-family="Arial" font-size="9.00">+ Testgen)</text>
</g>
<!-- Pry&#45;&gt;SAST -->
<g id="edge4" class="edge">
<title>Pry&#45;&gt;SAST</title>
<path fill="none" stroke="black" d="M381.79,-157.73C394.38,-162.6 408.48,-167.7 421.64,-171.67 517.04,-200.48 631.34,-223.74 695.2,-235.76"/>
<polygon fill="black" stroke="black" points="694.18,-239.13 704.66,-237.53 695.47,-232.25 694.18,-239.13"/>
<text xml:space="preserve" text-anchor="middle" x="555.27" y="-219.86" font-family="Arial" font-size="8.00">PWN::SAST.analyze...</text>
</g>
<!-- Reports -->
<g id="node6" class="node">
<title>Reports</title>
<path fill="none" stroke="black" d="M770.52,-206.67C770.52,-206.67 720.77,-206.67 720.77,-206.67 714.77,-206.67 708.77,-200.67 708.77,-194.67 708.77,-194.67 708.77,-182.67 708.77,-182.67 708.77,-176.67 714.77,-170.67 720.77,-170.67 720.77,-170.67 770.52,-170.67 770.52,-170.67 776.52,-170.67 782.52,-176.67 782.52,-182.67 782.52,-182.67 782.52,-194.67 782.52,-194.67 782.52,-200.67 776.52,-206.67 770.52,-206.67"/>
<text xml:space="preserve" text-anchor="middle" x="745.64" y="-185.37" font-family="Arial" font-size="9.00">PWN::Reports</text>
</g>
<!-- Pry&#45;&gt;Reports -->
<g id="edge5" class="edge">
<title>Pry&#45;&gt;Reports</title>
<path fill="none" stroke="black" d="M398.36,-150.43C406.17,-151.57 414.1,-152.69 421.64,-153.67 519.58,-166.44 634.65,-178.11 697.6,-184.22"/>
<polygon fill="black" stroke="black" points="696.94,-187.67 707.23,-185.15 697.61,-180.7 696.94,-187.67"/>
<text xml:space="preserve" text-anchor="middle" x="555.27" y="-177.16" font-family="Arial" font-size="8.00">PWN::Reports.generate</text>
</g>
<!-- AI -->
<g id="node8" class="node">
<title>AI</title>
<path fill="none" stroke="black" d="M778.02,-152.67C778.02,-152.67 713.27,-152.67 713.27,-152.67 707.27,-152.67 701.27,-146.67 701.27,-140.67 701.27,-140.67 701.27,-128.67 701.27,-128.67 701.27,-122.67 707.27,-116.67 713.27,-116.67 713.27,-116.67 778.02,-116.67 778.02,-116.67 784.02,-116.67 790.02,-122.67 790.02,-128.67 790.02,-128.67 790.02,-140.67 790.02,-140.67 790.02,-146.67 784.02,-152.67 778.02,-152.67"/>
<text xml:space="preserve" text-anchor="middle" x="745.64" y="-136.62" font-family="Arial" font-size="9.00">PWN::AI::</text>
<text xml:space="preserve" text-anchor="middle" x="745.64" y="-126.12" font-family="Arial" font-size="9.00">(Agent, Grok, etc.)</text>
</g>
<!-- Pry&#45;&gt;AI -->
<g id="edge6" class="edge">
<title>Pry&#45;&gt;AI</title>
<path fill="none" stroke="black" d="M403.95,-140.61C481.66,-139.25 614.81,-136.93 689.57,-135.63"/>
<polygon fill="black" stroke="black" points="689.6,-139.13 699.53,-135.46 689.47,-132.13 689.6,-139.13"/>
<text xml:space="preserve" text-anchor="middle" x="555.27" y="-141.02" font-family="Arial" font-size="8.00">pwn&#45;ai or direct</text>
</g>
<!-- History -->
<g id="node9" class="node">
<title>History</title>
<path fill="none" stroke="black" d="M607.89,-110.98C607.89,-112.98 584.3,-114.61 555.27,-114.61 526.23,-114.61 502.64,-112.98 502.64,-110.98 502.64,-110.98 502.64,-78.36 502.64,-78.36 502.64,-76.36 526.23,-74.73 555.27,-74.73 584.3,-74.73 607.89,-76.36 607.89,-78.36 607.89,-78.36 607.89,-110.98 607.89,-110.98"/>
<path fill="none" stroke="black" d="M607.89,-110.98C607.89,-108.98 584.3,-107.36 555.27,-107.36 526.23,-107.36 502.64,-108.98 502.64,-110.98"/>
<text xml:space="preserve" text-anchor="middle" x="555.27" y="-96.62" font-family="Arial" font-size="9.00">Pry Command History</text>
<text xml:space="preserve" text-anchor="middle" x="555.27" y="-86.12" font-family="Arial" font-size="9.00">(~/.pry_history)</text>
</g>
<!-- Pry&#45;&gt;History -->
<g id="edge7" class="edge">
<title>Pry&#45;&gt;History</title>
<path fill="none" stroke="black" d="M394.1,-130.29C423.36,-123.78 460.31,-115.57 491.34,-108.67"/>
<polygon fill="black" stroke="black" points="492,-112.1 501,-106.52 490.48,-105.27 492,-112.1"/>
<text xml:space="preserve" text-anchor="middle" x="453.14" y="-125.91" font-family="Arial" font-size="8.00">every cmd logged</text>
</g>
<!-- Scripts -->
<g id="node10" class="node">
<title>Scripts</title>
<path fill="none" stroke="black" d="M586.52,-52.67C586.52,-52.67 524.02,-52.67 524.02,-52.67 518.02,-52.67 512.02,-46.67 512.02,-40.67 512.02,-40.67 512.02,-28.67 512.02,-28.67 512.02,-22.67 518.02,-16.67 524.02,-16.67 524.02,-16.67 586.52,-16.67 586.52,-16.67 592.52,-16.67 598.52,-22.67 598.52,-28.67 598.52,-28.67 598.52,-40.67 598.52,-40.67 598.52,-46.67 592.52,-52.67 586.52,-52.67"/>
<text xml:space="preserve" text-anchor="middle" x="555.27" y="-36.62" font-family="Arial" font-size="9.00">Custom Scripts</text>
<text xml:space="preserve" text-anchor="middle" x="555.27" y="-26.12" font-family="Arial" font-size="9.00">&amp; Prototypes (.rb)</text>
</g>
<!-- Pry&#45;&gt;Scripts -->
<g id="edge8" class="edge">
<title>Pry&#45;&gt;Scripts</title>
<path fill="none" stroke="black" d="M354.05,-121.09C367.1,-99.18 390.9,-65.46 421.64,-49.17 445.51,-36.52 475.16,-32.39 500.37,-31.64"/>
<polygon fill="black" stroke="black" points="500.13,-35.14 510.09,-31.53 500.05,-28.14 500.13,-35.14"/>
<text xml:space="preserve" text-anchor="middle" x="453.14" y="-61.07" font-family="Arial" font-size="8.00">save / edit</text>
<text xml:space="preserve" text-anchor="middle" x="453.14" y="-51.32" font-family="Arial" font-size="8.00">prototype</text>
</g>
<!-- Driver -->
<g id="node7" class="node">
<title>Driver</title>
<path fill="none" stroke="black" d="M780.64,-98.67C780.64,-98.67 710.64,-98.67 710.64,-98.67 704.64,-98.67 698.64,-92.67 698.64,-86.67 698.64,-86.67 698.64,-74.67 698.64,-74.67 698.64,-68.67 704.64,-62.67 710.64,-62.67 710.64,-62.67 780.64,-62.67 780.64,-62.67 786.64,-62.67 792.64,-68.67 792.64,-74.67 792.64,-74.67 792.64,-86.67 792.64,-86.67 792.64,-92.67 786.64,-98.67 780.64,-98.67"/>
<text xml:space="preserve" text-anchor="middle" x="745.64" y="-82.62" font-family="Arial" font-size="9.00">PWN::Driver</text>
<text xml:space="preserve" text-anchor="middle" x="745.64" y="-72.12" font-family="Arial" font-size="9.00">(Parser, auto_opts)</text>
</g>
<!-- History&#45;&gt;Pry -->
<g id="edge9" class="edge">
<title>History&#45;&gt;Pry</title>
<path fill="none" stroke="black" d="M502.39,-77.6C477.4,-72.05 447.35,-69.37 421.64,-78.42 401.32,-85.57 382.38,-100.43 368.17,-113.95"/>
<polygon fill="black" stroke="black" points="366.08,-111.09 361.45,-120.62 371.01,-116.06 366.08,-111.09"/>
<text xml:space="preserve" text-anchor="middle" x="453.14" y="-100.07" font-family="Arial" font-size="8.00">history</text>
<text xml:space="preserve" text-anchor="middle" x="453.14" y="-90.32" font-family="Arial" font-size="8.00">up&#45;arrow</text>
<text xml:space="preserve" text-anchor="middle" x="453.14" y="-80.57" font-family="Arial" font-size="8.00">ctrl&#45;r search</text>
</g>
<!-- Scripts&#45;&gt;Pry -->
<g id="edge10" class="edge">
<title>Scripts&#45;&gt;Pry</title>
<path fill="none" stroke="black" d="M520.6,-16.23C492.49,-3.52 452.21,8.23 421.64,-9.17 383.95,-30.62 362.44,-78.03 351.73,-109.92"/>
<polygon fill="black" stroke="black" points="348.39,-108.86 348.72,-119.45 355.07,-110.97 348.39,-108.86"/>
<text xml:space="preserve" text-anchor="middle" x="453.14" y="-21.07" font-family="Arial" font-size="8.00">load / require</text>
<text xml:space="preserve" text-anchor="middle" x="453.14" y="-11.32" font-family="Arial" font-size="8.00">copy&#45;paste</text>
</g>
<!-- Scripts&#45;&gt;Driver -->
<g id="edge11" class="edge">
<title>Scripts&#45;&gt;Driver</title>
<path fill="none" stroke="black" d="M599.01,-45.11C625.17,-51.5 658.97,-59.75 687.42,-66.7"/>
<polygon fill="black" stroke="black" points="686.42,-70.06 696.97,-69.03 688.09,-63.26 686.42,-70.06"/>
<text xml:space="preserve" text-anchor="middle" x="651.39" y="-65.29" font-family="Arial" font-size="8.00">wrap as driver</text>
</g>
</g>
</svg>
