<?xml version="1.0" encoding="UTF-8" standalone="no"?>
<!DOCTYPE svg PUBLIC "-//W3C//DTD SVG 1.1//EN"
 "http://www.w3.org/Graphics/SVG/1.1/DTD/svg11.dtd">
<!-- Generated by graphviz version 14.1.2 (0)
 -->
<!-- Title: PWN_REPL Pages: 1 -->
<svg width="840pt" height="529pt"
 viewBox="0.00 0.00 840.00 529.00" xmlns="http://www.w3.org/2000/svg" xmlns:xlink="http://www.w3.org/1999/xlink">
<g id="graph0" class="graph" transform="scale(1 1) rotate(0) translate(43.2 485.95)">
<title>PWN_REPL</title>
<polygon fill="#0f172a" stroke="none" points="-43.2,43.2 -43.2,-485.95 796.57,-485.95 796.57,43.2 -43.2,43.2"/>
<text xml:space="preserve" text-anchor="start" x="190.68" y="-420.75" font-family="sans-Serif" font-weight="bold" font-size="20.00" fill="#e2e8f0">The pwn REPL &#45; Interactive Prototyping</text>
<text xml:space="preserve" text-anchor="start" x="266.81" y="-409.3" font-family="sans-Serif" font-size="11.00" fill="#94a3b8">Pry + full PWN:: preload + custom commands</text>
<g id="clust1" class="cluster">
<title>cluster_repl</title>
<path fill="#2e1065" stroke="#6d28d9" stroke-width="2" d="M139,-242.5C139,-242.5 513,-242.5 513,-242.5 519,-242.5 525,-248.5 525,-254.5 525,-254.5 525,-313.75 525,-313.75 525,-319.75 519,-325.75 513,-325.75 513,-325.75 139,-325.75 139,-325.75 133,-325.75 127,-319.75 127,-313.75 127,-313.75 127,-254.5 127,-254.5 127,-248.5 133,-242.5 139,-242.5"/>
<text xml:space="preserve" text-anchor="middle" x="326" y="-302.75" font-family="sans-Serif" font-size="20.00" fill="#ddd6fe">Plugins::REPL &#160;(Pry)</text>
</g>
<g id="clust3" class="cluster">
<title>cluster_cmds</title>
<path fill="#022c22" stroke="#047857" d="M53,-125.25C53,-125.25 674,-125.25 674,-125.25 680,-125.25 686,-131.25 686,-137.25 686,-137.25 686,-196.5 686,-196.5 686,-202.5 680,-208.5 674,-208.5 674,-208.5 53,-208.5 53,-208.5 47,-208.5 41,-202.5 41,-196.5 41,-196.5 41,-137.25 41,-137.25 41,-131.25 47,-125.25 53,-125.25"/>
<text xml:space="preserve" text-anchor="middle" x="363.5" y="-185.5" font-family="sans-Serif" font-size="20.00" fill="#a7f3d0">Custom Commands</text>
</g>
<g id="clust5" class="cluster">
<title>cluster_ns</title>
<path fill="#422006" stroke="#a16207" d="M20,-8C20,-8 322,-8 322,-8 328,-8 334,-14 334,-20 334,-20 334,-79.25 334,-79.25 334,-85.25 328,-91.25 322,-91.25 322,-91.25 20,-91.25 20,-91.25 14,-91.25 8,-85.25 8,-79.25 8,-79.25 8,-20 8,-20 8,-14 14,-8 20,-8"/>
<text xml:space="preserve" text-anchor="middle" x="171" y="-68.25" font-family="sans-Serif" font-size="20.00" fill="#fde68a">Live Namespace</text>
</g>
<!-- User -->
<g id="node1" class="node">
<title>User</title>
<path fill="#7dd3fc" stroke="#334155" stroke-width="1.3" d="M357.5,-403.75C357.5,-403.75 320.5,-403.75 320.5,-403.75 314.5,-403.75 308.5,-397.75 308.5,-391.75 308.5,-391.75 308.5,-379.75 308.5,-379.75 308.5,-373.75 314.5,-367.75 320.5,-367.75 320.5,-367.75 357.5,-367.75 357.5,-367.75 363.5,-367.75 369.5,-373.75 369.5,-379.75 369.5,-379.75 369.5,-391.75 369.5,-391.75 369.5,-397.75 363.5,-403.75 357.5,-403.75"/>
<text xml:space="preserve" text-anchor="middle" x="339" y="-382.62" font-family="sans-Serif" font-size="10.00" fill="#0f172a">👤 &#160;$ pwn</text>
</g>
<!-- Prompt -->
<g id="node2" class="node">
<title>Prompt</title>
<path fill="#c4b5fd" stroke="#334155" stroke-width="1.3" d="M229.38,-286.5C229.38,-286.5 146.62,-286.5 146.62,-286.5 140.62,-286.5 134.62,-280.5 134.62,-274.5 134.62,-274.5 134.62,-262.5 134.62,-262.5 134.62,-256.5 140.62,-250.5 146.62,-250.5 146.62,-250.5 229.38,-250.5 229.38,-250.5 235.38,-250.5 241.38,-256.5 241.38,-262.5 241.38,-262.5 241.38,-274.5 241.38,-274.5 241.38,-280.5 235.38,-286.5 229.38,-286.5"/>
<text xml:space="preserve" text-anchor="middle" x="188" y="-265" font-family="sans-Serif" font-size="10.00" fill="#0f172a">pwn[v0.5.x]:001 &gt;&gt;&gt;</text>
</g>
<!-- User&#45;&gt;Prompt -->
<g id="edge1" class="edge">
<title>User&#45;&gt;Prompt</title>
<path fill="none" stroke="#38bdf8" stroke-width="2" d="M315.75,-367.25C300.22,-355.54 279.35,-339.76 261,-325.75 247.26,-315.26 232.11,-303.6 219.19,-293.63"/>
<polygon fill="#38bdf8" stroke="#38bdf8" stroke-width="2" points="221.09,-291.56 213.04,-288.89 217.66,-295.99 221.09,-291.56"/>
</g>
<!-- Preload -->
<g id="node3" class="node">
<title>Preload</title>
<path fill="#c4b5fd" stroke="#334155" stroke-width="1.3" d="M384.88,-286.5C384.88,-286.5 293.12,-286.5 293.12,-286.5 287.12,-286.5 281.12,-280.5 281.12,-274.5 281.12,-274.5 281.12,-262.5 281.12,-262.5 281.12,-256.5 287.12,-250.5 293.12,-250.5 293.12,-250.5 384.88,-250.5 384.88,-250.5 390.88,-250.5 396.88,-256.5 396.88,-262.5 396.88,-262.5 396.88,-274.5 396.88,-274.5 396.88,-280.5 390.88,-286.5 384.88,-286.5"/>
<text xml:space="preserve" text-anchor="middle" x="339" y="-271" font-family="sans-Serif" font-size="10.00" fill="#0f172a">autoload PWN::*</text>
<text xml:space="preserve" text-anchor="middle" x="339" y="-259" font-family="sans-Serif" font-size="10.00" fill="#0f172a">Banner · MonkeyPatch</text>
</g>
<!-- User&#45;&gt;Preload -->
<!-- Hist -->
<g id="node4" class="node">
<title>Hist</title>
<path fill="#c4b5fd" stroke="#334155" stroke-width="1.3" d="M505.25,-286.5C505.25,-286.5 448.75,-286.5 448.75,-286.5 442.75,-286.5 436.75,-280.5 436.75,-274.5 436.75,-274.5 436.75,-262.5 436.75,-262.5 436.75,-256.5 442.75,-250.5 448.75,-250.5 448.75,-250.5 505.25,-250.5 505.25,-250.5 511.25,-250.5 517.25,-256.5 517.25,-262.5 517.25,-262.5 517.25,-274.5 517.25,-274.5 517.25,-280.5 511.25,-286.5 505.25,-286.5"/>
<text xml:space="preserve" text-anchor="middle" x="477" y="-271" font-family="sans-Serif" font-size="10.00" fill="#0f172a">~/.pwn_history</text>
<text xml:space="preserve" text-anchor="middle" x="477" y="-259" font-family="sans-Serif" font-size="10.00" fill="#0f172a">replay · edit</text>
</g>
<!-- User&#45;&gt;Hist -->
<!-- CAI -->
<g id="node5" class="node">
<title>CAI</title>
<path fill="#6ee7b7" stroke="#334155" stroke-width="1.3" d="M91,-169.25C91,-169.25 61,-169.25 61,-169.25 55,-169.25 49,-163.25 49,-157.25 49,-157.25 49,-145.25 49,-145.25 49,-139.25 55,-133.25 61,-133.25 61,-133.25 91,-133.25 91,-133.25 97,-133.25 103,-139.25 103,-145.25 103,-145.25 103,-157.25 103,-157.25 103,-163.25 97,-169.25 91,-169.25"/>
<text xml:space="preserve" text-anchor="middle" x="76" y="-147.75" font-family="sans-Serif" font-size="10.00" fill="#0f172a">pwn&#45;ai</text>
</g>
<!-- Prompt&#45;&gt;CAI -->
<g id="edge4" class="edge">
<title>Prompt&#45;&gt;CAI</title>
<path fill="none" stroke="#34d399" stroke-width="1.3" d="M167.12,-249.86C154.03,-238.48 137.04,-223.12 123,-208.5 113.61,-198.72 103.9,-187.34 95.76,-177.38"/>
<polygon fill="#34d399" stroke="#34d399" stroke-width="1.3" points="98.04,-175.76 90.84,-171.29 93.69,-179.28 98.04,-175.76"/>
</g>
<!-- CASM -->
<g id="node6" class="node">
<title>CASM</title>
<path fill="#6ee7b7" stroke="#334155" stroke-width="1.3" d="M186.88,-169.25C186.88,-169.25 155.12,-169.25 155.12,-169.25 149.12,-169.25 143.12,-163.25 143.12,-157.25 143.12,-157.25 143.12,-145.25 143.12,-145.25 143.12,-139.25 149.12,-133.25 155.12,-133.25 155.12,-133.25 186.88,-133.25 186.88,-133.25 192.88,-133.25 198.88,-139.25 198.88,-145.25 198.88,-145.25 198.88,-157.25 198.88,-157.25 198.88,-163.25 192.88,-169.25 186.88,-169.25"/>
<text xml:space="preserve" text-anchor="middle" x="171" y="-147.75" font-family="sans-Serif" font-size="10.00" fill="#0f172a">pwn&#45;asm</text>
</g>
<!-- Prompt&#45;&gt;CASM -->
<g id="edge5" class="edge">
<title>Prompt&#45;&gt;CASM</title>
<path fill="none" stroke="#34d399" stroke-width="1.3" d="M185.42,-250C182.64,-231.19 178.2,-201.06 174.98,-179.22"/>
<polygon fill="#34d399" stroke="#34d399" stroke-width="1.3" points="177.78,-178.99 173.84,-171.49 172.24,-179.81 177.78,-178.99"/>
</g>
<!-- NS -->
<g id="node11" class="node">
<title>NS</title>
<path fill="#fcd34d" stroke="#334155" stroke-width="1.3" d="M313.62,-52C313.62,-52 28.38,-52 28.38,-52 22.38,-52 16.38,-46 16.38,-40 16.38,-40 16.38,-28 16.38,-28 16.38,-22 22.38,-16 28.38,-16 28.38,-16 313.62,-16 313.62,-16 319.62,-16 325.62,-22 325.62,-28 325.62,-28 325.62,-40 325.62,-40 325.62,-46 319.62,-52 313.62,-52"/>
<text xml:space="preserve" text-anchor="middle" x="171" y="-37.05" font-family="sans-Serif" font-size="11.00" fill="#0f172a">PWN::Plugins &#160;· &#160;PWN::SAST &#160;· &#160;PWN::AWS &#160;· &#160;PWN::SDR</text>
<text xml:space="preserve" text-anchor="middle" x="171" y="-23.55" font-family="sans-Serif" font-size="11.00" fill="#0f172a">PWN::WWW &#160;· &#160;PWN::Reports &#160;· &#160;PWN::AI &#160;· &#160;PWN::Memory</text>
</g>
<!-- Prompt&#45;&gt;NS -->
<g id="edge13" class="edge">
<title>Prompt&#45;&gt;NS</title>
<path fill="none" stroke="#f59e0b" stroke-width="2" d="M233.46,-249.97C242.47,-247.05 251.95,-244.37 261,-242.5 308.48,-232.68 663.08,-244.09 696,-208.5 721.12,-181.34 719.84,-153.54 696,-125.25 650.59,-71.37 473.25,-49.66 337.11,-40.91"/>
<polygon fill="#f59e0b" stroke="#f59e0b" stroke-width="2" points="337.32,-38.12 329.16,-40.41 336.97,-43.7 337.32,-38.12"/>
<text xml:space="preserve" text-anchor="middle" x="733.87" y="-147.95" font-family="sans-Serif" font-size="9.00" fill="#cbd5e1">direct call</text>
</g>
<!-- CMEM -->
<g id="node7" class="node">
<title>CMEM</title>
<path fill="#6ee7b7" stroke="#334155" stroke-width="1.3" d="M309.38,-169.25C309.38,-169.25 250.62,-169.25 250.62,-169.25 244.62,-169.25 238.62,-163.25 238.62,-157.25 238.62,-157.25 238.62,-145.25 238.62,-145.25 238.62,-139.25 244.62,-133.25 250.62,-133.25 250.62,-133.25 309.38,-133.25 309.38,-133.25 315.38,-133.25 321.38,-139.25 321.38,-145.25 321.38,-145.25 321.38,-157.25 321.38,-157.25 321.38,-163.25 315.38,-169.25 309.38,-169.25"/>
<text xml:space="preserve" text-anchor="middle" x="280" y="-147.75" font-family="sans-Serif" font-size="10.00" fill="#0f172a">pwn&#45;ai&#45;memory</text>
</g>
<!-- Preload&#45;&gt;CMEM -->
<g id="edge6" class="edge">
<title>Preload&#45;&gt;CMEM</title>
<path fill="none" stroke="#34d399" stroke-width="1.3" d="M330.04,-250C320.28,-230.93 304.57,-200.24 293.35,-178.33"/>
<polygon fill="#34d399" stroke="#34d399" stroke-width="1.3" points="295.89,-177.14 289.75,-171.29 290.9,-179.69 295.89,-177.14"/>
</g>
<!-- CSESS -->
<g id="node8" class="node">
<title>CSESS</title>
<path fill="#6ee7b7" stroke="#334155" stroke-width="1.3" d="M436.25,-169.25C436.25,-169.25 373.75,-169.25 373.75,-169.25 367.75,-169.25 361.75,-163.25 361.75,-157.25 361.75,-157.25 361.75,-145.25 361.75,-145.25 361.75,-139.25 367.75,-133.25 373.75,-133.25 373.75,-133.25 436.25,-133.25 436.25,-133.25 442.25,-133.25 448.25,-139.25 448.25,-145.25 448.25,-145.25 448.25,-157.25 448.25,-157.25 448.25,-163.25 442.25,-169.25 436.25,-169.25"/>
<text xml:space="preserve" text-anchor="middle" x="405" y="-147.75" font-family="sans-Serif" font-size="10.00" fill="#0f172a">pwn&#45;ai&#45;sessions</text>
</g>
<!-- Preload&#45;&gt;CSESS -->
<g id="edge7" class="edge">
<title>Preload&#45;&gt;CSESS</title>
<path fill="none" stroke="#34d399" stroke-width="1.3" d="M349.02,-250C359.99,-230.85 377.68,-199.96 390.23,-178.04"/>
<polygon fill="#34d399" stroke="#34d399" stroke-width="1.3" points="392.57,-179.58 394.12,-171.25 387.71,-176.8 392.57,-179.58"/>
</g>
<!-- CCRON -->
<g id="node9" class="node">
<title>CCRON</title>
<path fill="#6ee7b7" stroke="#334155" stroke-width="1.3" d="M542.12,-169.25C542.12,-169.25 499.88,-169.25 499.88,-169.25 493.88,-169.25 487.88,-163.25 487.88,-157.25 487.88,-157.25 487.88,-145.25 487.88,-145.25 487.88,-139.25 493.88,-133.25 499.88,-133.25 499.88,-133.25 542.12,-133.25 542.12,-133.25 548.12,-133.25 554.12,-139.25 554.12,-145.25 554.12,-145.25 554.12,-157.25 554.12,-157.25 554.12,-163.25 548.12,-169.25 542.12,-169.25"/>
<text xml:space="preserve" text-anchor="middle" x="521" y="-147.75" font-family="sans-Serif" font-size="10.00" fill="#0f172a">pwn&#45;ai&#45;cron</text>
</g>
<!-- Hist&#45;&gt;CCRON -->
<g id="edge8" class="edge">
<title>Hist&#45;&gt;CCRON</title>
<path fill="none" stroke="#34d399" stroke-width="1.3" d="M483.68,-250C490.93,-231.02 502.58,-200.51 510.93,-178.63"/>
<polygon fill="#34d399" stroke="#34d399" stroke-width="1.3" points="513.46,-179.85 513.7,-171.38 508.23,-177.85 513.46,-179.85"/>
</g>
<!-- CDEL -->
<g id="node10" class="node">
<title>CDEL</title>
<path fill="#6ee7b7" stroke="#334155" stroke-width="1.3" d="M666.12,-169.25C666.12,-169.25 605.88,-169.25 605.88,-169.25 599.88,-169.25 593.88,-163.25 593.88,-157.25 593.88,-157.25 593.88,-145.25 593.88,-145.25 593.88,-139.25 599.88,-133.25 605.88,-133.25 605.88,-133.25 666.12,-133.25 666.12,-133.25 672.12,-133.25 678.12,-139.25 678.12,-145.25 678.12,-145.25 678.12,-157.25 678.12,-157.25 678.12,-163.25 672.12,-169.25 666.12,-169.25"/>
<text xml:space="preserve" text-anchor="middle" x="636" y="-147.75" font-family="sans-Serif" font-size="10.00" fill="#0f172a">pwn&#45;ai&#45;delegate</text>
</g>
<!-- Hist&#45;&gt;CDEL -->
<g id="edge9" class="edge">
<title>Hist&#45;&gt;CDEL</title>
<path fill="none" stroke="#34d399" stroke-width="1.3" d="M509,-250.09C528.4,-239.04 553.31,-223.95 574,-208.5 586.96,-198.82 600.37,-186.92 611.39,-176.57"/>
<polygon fill="#34d399" stroke="#34d399" stroke-width="1.3" points="613.32,-178.59 617.18,-171.05 609.46,-174.54 613.32,-178.59"/>
</g>
<!-- CAI&#45;&gt;NS -->
<g id="edge10" class="edge">
<title>CAI&#45;&gt;NS</title>
<path fill="none" stroke="#f59e0b" stroke-width="1.3" d="M90.43,-132.75C106.42,-113.34 132.35,-81.89 150.46,-59.92"/>
<polygon fill="#f59e0b" stroke="#f59e0b" stroke-width="1.3" points="152.57,-61.76 155.5,-53.81 148.25,-58.2 152.57,-61.76"/>
</g>
<!-- CASM&#45;&gt;NS -->
<g id="edge11" class="edge">
<title>CASM&#45;&gt;NS</title>
<path fill="none" stroke="#f59e0b" stroke-width="1.3" d="M171,-132.75C171,-113.94 171,-83.81 171,-61.97"/>
<polygon fill="#f59e0b" stroke="#f59e0b" stroke-width="1.3" points="173.8,-62.26 171,-54.26 168.2,-62.26 173.8,-62.26"/>
</g>
<!-- CMEM&#45;&gt;NS -->
<g id="edge12" class="edge">
<title>CMEM&#45;&gt;NS</title>
<path fill="none" stroke="#f59e0b" stroke-width="1.3" d="M263.45,-132.75C244.93,-113.17 214.82,-81.33 194.02,-59.34"/>
<polygon fill="#f59e0b" stroke="#f59e0b" stroke-width="1.3" points="196.24,-57.61 188.71,-53.72 192.17,-61.46 196.24,-57.61"/>
</g>
</g>
</svg>
