<?xml version="1.0" encoding="UTF-8" standalone="no"?>
<!DOCTYPE svg PUBLIC "-//W3C//DTD SVG 1.1//EN"
 "http://www.w3.org/Graphics/SVG/1.1/DTD/svg11.dtd">
<!-- Generated by graphviz version 14.1.2 (0)
 -->
<!-- Title: PWN_AI_Feedback_Learning_Loop Pages: 1 -->
<svg width="1220pt" height="807pt"
 viewBox="0.00 0.00 1220.00 807.00" xmlns="http://www.w3.org/2000/svg" xmlns:xlink="http://www.w3.org/1999/xlink">
<g id="graph0" class="graph" transform="scale(1 1) rotate(0) translate(4 803.2)">
<title>PWN_AI_Feedback_Learning_Loop</title>
<polygon fill="#f8fafc" stroke="none" points="-4,4 -4,-803.2 1215.95,-803.2 1215.95,4 -4,4"/>
<text xml:space="preserve" text-anchor="middle" x="605.98" y="-780" font-family="Arial" font-size="16.00">PWN&#45;AI: Closed Self&#45;Improvement Feedback Loop</text>
<text xml:space="preserve" text-anchor="middle" x="605.98" y="-761.25" font-family="Arial" font-size="16.00">(Introspection + Extrospection + Extro_Correlate)</text>
<g id="clust2" class="cluster">
<title>cluster_introspect</title>
<path fill="#f0fdf4" stroke="#166534" stroke-width="1.8" stroke-dasharray="5,2" d="M989.95,-338.43C989.95,-338.43 1191.95,-338.43 1191.95,-338.43 1197.95,-338.43 1203.95,-344.43 1203.95,-350.43 1203.95,-350.43 1203.95,-501.62 1203.95,-501.62 1203.95,-507.62 1197.95,-513.62 1191.95,-513.62 1191.95,-513.62 989.95,-513.62 989.95,-513.62 983.95,-513.62 977.95,-507.62 977.95,-501.62 977.95,-501.62 977.95,-350.43 977.95,-350.43 977.95,-344.43 983.95,-338.43 989.95,-338.43"/>
<text xml:space="preserve" text-anchor="middle" x="1090.95" y="-494.42" font-family="Arial" font-size="16.00">🔄 INTROSPECTION</text>
<text xml:space="preserve" text-anchor="middle" x="1090.95" y="-474.92" font-family="Arial" font-size="16.00">(Self&#45;Improvement &amp; Metrics)</text>
</g>
<!-- User -->
<g id="node1" class="node">
<title>User</title>
<path fill="#dbeafe" stroke="#1e40af" stroke-width="1.2" d="M128.33,-753.7C128.33,-753.7 21.58,-753.7 21.58,-753.7 15.58,-753.7 9.58,-747.7 9.58,-741.7 9.58,-741.7 9.58,-729.7 9.58,-729.7 9.58,-723.7 15.58,-717.7 21.58,-717.7 21.58,-717.7 128.33,-717.7 128.33,-717.7 134.33,-717.7 140.33,-723.7 140.33,-729.7 140.33,-729.7 140.33,-741.7 140.33,-741.7 140.33,-747.7 134.33,-753.7 128.33,-753.7"/>
<text xml:space="preserve" text-anchor="middle" x="74.95" y="-738.75" font-family="Arial" font-size="11.00" fill="#1e3a8a">👤 Security Researcher</text>
<text xml:space="preserve" text-anchor="middle" x="74.95" y="-725.25" font-family="Arial" font-size="11.00" fill="#1e3a8a">(pwn&#45;ai TUI user)</text>
</g>
<!-- PwnAI -->
<g id="node5" class="node">
<title>PwnAI</title>
<ellipse fill="#bae6fd" stroke="#0369a1" stroke-width="1.2" cx="74.95" cy="-612.41" rx="74.95" ry="34.29"/>
<text xml:space="preserve" text-anchor="middle" x="74.95" y="-622.21" font-family="Arial" font-size="11.00">pwn&#45;ai TUI</text>
<text xml:space="preserve" text-anchor="middle" x="74.95" y="-608.71" font-family="Arial" font-size="11.00">(Natural Language</text>
<text xml:space="preserve" text-anchor="middle" x="74.95" y="-595.21" font-family="Arial" font-size="11.00">Interface)</text>
</g>
<!-- User&#45;&gt;PwnAI -->
<g id="edge1" class="edge">
<title>User&#45;&gt;PwnAI</title>
<path fill="none" stroke="#1e40af" stroke-width="1.8" d="M33.73,-717.29C23.87,-711.04 14.57,-702.94 8.95,-692.7 -0.01,-676.38 9.2,-660.23 23.29,-646.81"/>
<polygon fill="#1e40af" stroke="#1e40af" stroke-width="1.8" points="24.85,-648.71 28.5,-642.25 21.62,-645.02 24.85,-648.71"/>
<text xml:space="preserve" text-anchor="middle" x="53.95" y="-684.63" font-family="Arial" font-size="8.50">natural language task</text>
<text xml:space="preserve" text-anchor="middle" x="53.95" y="-674.13" font-family="Arial" font-size="8.50">e.g. &quot;find vulns &amp; report&quot;</text>
</g>
<!-- LLM -->
<g id="node2" class="node">
<title>LLM</title>
<path fill="#f3e8ff" stroke="#6b21a8" stroke-width="1.2" d="M513.58,-404.02C513.58,-404.02 354.33,-404.02 354.33,-404.02 348.33,-404.02 342.33,-398.02 342.33,-392.02 342.33,-392.02 342.33,-367.52 342.33,-367.52 342.33,-361.52 348.33,-355.52 354.33,-355.52 354.33,-355.52 513.58,-355.52 513.58,-355.52 519.58,-355.52 525.58,-361.52 525.58,-367.52 525.58,-367.52 525.58,-392.02 525.58,-392.02 525.58,-398.02 519.58,-404.02 513.58,-404.02"/>
<text xml:space="preserve" text-anchor="middle" x="433.95" y="-389.57" font-family="Arial" font-size="11.00" fill="#581c87">🤖 LLM Providers</text>
<text xml:space="preserve" text-anchor="middle" x="433.95" y="-376.07" font-family="Arial" font-size="11.00" fill="#581c87">(Grok + OAuth, OpenAI, Anthropic,</text>
<text xml:space="preserve" text-anchor="middle" x="433.95" y="-362.57" font-family="Arial" font-size="11.00" fill="#581c87">Gemini, Ollama)</text>
</g>
<!-- ToolCall -->
<g id="node6" class="node">
<title>ToolCall</title>
<ellipse fill="#7dd3fc" stroke="#0369a1" stroke-width="1.2" cx="161.95" cy="-379.77" rx="77.6" ry="43.84"/>
<text xml:space="preserve" text-anchor="middle" x="161.95" y="-396.32" font-family="Arial" font-size="11.00">Tool Dispatcher</text>
<text xml:space="preserve" text-anchor="middle" x="161.95" y="-382.82" font-family="Arial" font-size="11.00">(pwn_eval • shell •</text>
<text xml:space="preserve" text-anchor="middle" x="161.95" y="-369.32" font-family="Arial" font-size="11.00">memory_* • skill_* •</text>
<text xml:space="preserve" text-anchor="middle" x="161.95" y="-355.82" font-family="Arial" font-size="11.00">extro_* • cron_*)</text>
</g>
<!-- LLM&#45;&gt;ToolCall -->
<g id="edge6" class="edge">
<title>LLM&#45;&gt;ToolCall</title>
<path fill="none" stroke="#6b21a8" stroke-width="1.05" d="M341.88,-367.66C335.69,-367.11 329.54,-366.64 323.57,-366.27 294.62,-364.51 287.25,-364.26 258.32,-366.27 254.16,-366.56 249.91,-366.92 245.62,-367.33"/>
<polygon fill="#6b21a8" stroke="#6b21a8" stroke-width="1.05" points="245.63,-364.87 238.92,-368.03 246.13,-369.74 245.63,-364.87"/>
<text xml:space="preserve" text-anchor="middle" x="290.94" y="-368.7" font-family="Arial" font-size="8.50">structured replies</text>
</g>
<!-- World -->
<g id="node3" class="node">
<title>World</title>
<path fill="none" stroke="#166534" stroke-width="1.2" stroke-dasharray="5,2" d="M655.2,-636.66C655.2,-636.66 538.7,-636.66 538.7,-636.66 532.7,-636.66 526.7,-630.66 526.7,-624.66 526.7,-624.66 526.7,-600.16 526.7,-600.16 526.7,-594.16 532.7,-588.16 538.7,-588.16 538.7,-588.16 655.2,-588.16 655.2,-588.16 661.2,-588.16 667.2,-594.16 667.2,-600.16 667.2,-600.16 667.2,-624.66 667.2,-624.66 667.2,-630.66 661.2,-636.66 655.2,-636.66"/>
<text xml:space="preserve" text-anchor="middle" x="596.95" y="-622.21" font-family="Arial" font-size="11.00">🌍 Outside World</text>
<text xml:space="preserve" text-anchor="middle" x="596.95" y="-608.71" font-family="Arial" font-size="11.00">(Host, Network, Git Repo,</text>
<text xml:space="preserve" text-anchor="middle" x="596.95" y="-595.21" font-family="Arial" font-size="11.00">Kernel + Toolchain)</text>
</g>
<!-- Extrospect -->
<g id="node12" class="node">
<title>Extrospect</title>
<ellipse fill="#fbbf24" stroke="#78350f" stroke-width="1.2" cx="642.95" cy="-379.77" rx="85.56" ry="43.84"/>
<text xml:space="preserve" text-anchor="middle" x="642.95" y="-396.32" font-family="Arial" font-size="11.00">Extrospection Engine</text>
<text xml:space="preserve" text-anchor="middle" x="642.95" y="-382.82" font-family="Arial" font-size="11.00">(extro_snapshot • drift</text>
<text xml:space="preserve" text-anchor="middle" x="642.95" y="-369.32" font-family="Arial" font-size="11.00">• observe • intel</text>
<text xml:space="preserve" text-anchor="middle" x="642.95" y="-355.82" font-family="Arial" font-size="11.00">• correlate • auto)</text>
</g>
<!-- World&#45;&gt;Extrospect -->
<g id="edge19" class="edge">
<title>World&#45;&gt;Extrospect</title>
<path fill="none" stroke="#166534" stroke-width="1.05" d="M595.45,-587.6C594.86,-577.04 594.25,-564.46 593.95,-553.12 593.59,-539.12 591.62,-535.42 593.95,-521.62 599.19,-490.62 610.49,-457.33 620.91,-430.91"/>
<polygon fill="#166534" stroke="#166534" stroke-width="1.05" points="623.19,-431.82 623.52,-424.41 618.64,-430 623.19,-431.82"/>
<text xml:space="preserve" text-anchor="middle" x="626.95" y="-539.79" font-family="Arial" font-size="8.50">probe: uname, git,</text>
<text xml:space="preserve" text-anchor="middle" x="626.95" y="-529.29" font-family="Arial" font-size="8.50">ss, env, ports</text>
</g>
<!-- Intel -->
<g id="node4" class="node">
<title>Intel</title>
<path fill="none" stroke="#92400e" stroke-width="1.2" stroke-dasharray="5,2" d="M840.45,-636.66C840.45,-636.66 713.45,-636.66 713.45,-636.66 707.45,-636.66 701.45,-630.66 701.45,-624.66 701.45,-624.66 701.45,-600.16 701.45,-600.16 701.45,-594.16 707.45,-588.16 713.45,-588.16 713.45,-588.16 840.45,-588.16 840.45,-588.16 846.45,-588.16 852.45,-594.16 852.45,-600.16 852.45,-600.16 852.45,-624.66 852.45,-624.66 852.45,-630.66 846.45,-636.66 840.45,-636.66"/>
<text xml:space="preserve" text-anchor="middle" x="776.95" y="-622.21" font-family="Arial" font-size="11.00">📡 Threat Intel Feeds</text>
<text xml:space="preserve" text-anchor="middle" x="776.95" y="-608.71" font-family="Arial" font-size="11.00">(NVD, CIRCL CVE&#45;Search,</text>
<text xml:space="preserve" text-anchor="middle" x="776.95" y="-595.21" font-family="Arial" font-size="11.00">Exploit&#45;DB)</text>
</g>
<!-- Intel&#45;&gt;Extrospect -->
<g id="edge20" class="edge">
<title>Intel&#45;&gt;Extrospect</title>
<path fill="none" stroke="#92400e" stroke-width="1.05" d="M769.17,-587.88C762.67,-569.37 752.59,-543.2 740.95,-521.62 723.16,-488.62 699.18,-454.03 679.4,-427.39"/>
<polygon fill="#92400e" stroke="#92400e" stroke-width="1.05" points="681.57,-426.21 675.41,-422.07 677.64,-429.14 681.57,-426.21"/>
<text xml:space="preserve" text-anchor="middle" x="780.46" y="-539.79" font-family="Arial" font-size="8.50">CVE / exploit</text>
<text xml:space="preserve" text-anchor="middle" x="780.46" y="-529.29" font-family="Arial" font-size="8.50">matches</text>
</g>
<!-- PwnAI&#45;&gt;User -->
<g id="edge7" class="edge">
<title>PwnAI&#45;&gt;User</title>
<path fill="none" stroke="#1e40af" stroke-width="1.8" d="M96.06,-645.6C102.92,-659.92 107.69,-677.06 102.95,-692.7 101.19,-698.54 98.31,-704.3 95.06,-709.61"/>
<polygon fill="#1e40af" stroke="#1e40af" stroke-width="1.8" points="93.15,-708.06 91.27,-715.24 97.21,-710.8 93.15,-708.06"/>
<text xml:space="preserve" text-anchor="middle" x="145.73" y="-684.63" font-family="Arial" font-size="8.50">final answers</text>
<text xml:space="preserve" text-anchor="middle" x="145.73" y="-674.13" font-family="Arial" font-size="8.50">+ reports + follow&#45;ups</text>
</g>
<!-- PwnAI&#45;&gt;ToolCall -->
<g id="edge2" class="edge">
<title>PwnAI&#45;&gt;ToolCall</title>
<path fill="none" stroke="#0369a1" stroke-width="1.05" d="M85.58,-577.98C91.11,-561.01 98.13,-540.12 104.95,-521.62 116.17,-491.21 129.75,-457.54 140.84,-430.75"/>
<polygon fill="#0369a1" stroke="#0369a1" stroke-width="1.05" points="143.02,-431.9 143.44,-424.5 138.49,-430.02 143.02,-431.9"/>
<text xml:space="preserve" text-anchor="middle" x="139.45" y="-534.54" font-family="Arial" font-size="8.50">parse + plan steps</text>
</g>
<!-- ToolCall&#45;&gt;LLM -->
<g id="edge5" class="edge">
<title>ToolCall&#45;&gt;LLM</title>
<path fill="none" stroke="#6b21a8" stroke-width="1.05" d="M239.9,-379.77C269.15,-379.77 302.82,-379.77 333.81,-379.77"/>
<polygon fill="#6b21a8" stroke="#6b21a8" stroke-width="1.05" points="333.46,-382.22 340.46,-379.77 333.46,-377.32 333.46,-382.22"/>
<text xml:space="preserve" text-anchor="middle" x="290.94" y="-395.7" font-family="Arial" font-size="8.50">complex reasoning</text>
<text xml:space="preserve" text-anchor="middle" x="290.94" y="-385.2" font-family="Arial" font-size="8.50">/ tool&#45;use schema</text>
</g>
<!-- REPL -->
<g id="node7" class="node">
<title>REPL</title>
<path fill="#e0f2fe" stroke="#075985" stroke-width="1.2" d="M398.58,-636.66C398.58,-636.66 311.33,-636.66 311.33,-636.66 305.33,-636.66 299.33,-630.66 299.33,-624.66 299.33,-624.66 299.33,-600.16 299.33,-600.16 299.33,-594.16 305.33,-588.16 311.33,-588.16 311.33,-588.16 398.58,-588.16 398.58,-588.16 404.58,-588.16 410.58,-594.16 410.58,-600.16 410.58,-600.16 410.58,-624.66 410.58,-624.66 410.58,-630.66 404.58,-636.66 398.58,-636.66"/>
<text xml:space="preserve" text-anchor="middle" x="354.95" y="-622.21" font-family="Arial" font-size="11.00">PWN REPL</text>
<text xml:space="preserve" text-anchor="middle" x="354.95" y="-608.71" font-family="Arial" font-size="11.00">(Full live PWN::</text>
<text xml:space="preserve" text-anchor="middle" x="354.95" y="-595.21" font-family="Arial" font-size="11.00">namespace access)</text>
</g>
<!-- ToolCall&#45;&gt;REPL -->
<g id="edge3" class="edge">
<title>ToolCall&#45;&gt;REPL</title>
<path fill="none" stroke="#075985" stroke-width="1.05" d="M196.86,-419.53C227.52,-450.77 275.09,-492.8 325.95,-513.62 343.1,-520.63 396.5,-507.9 408.95,-521.62 425.36,-539.68 409.75,-563.46 391.17,-582.01"/>
<polygon fill="#075985" stroke="#075985" stroke-width="1.05" points="389.85,-579.88 386.49,-586.49 393.24,-583.42 389.85,-579.88"/>
<text xml:space="preserve" text-anchor="middle" x="450.73" y="-539.79" font-family="Arial" font-size="8.50">pwn_eval(code)</text>
<text xml:space="preserve" text-anchor="middle" x="450.73" y="-529.29" font-family="Arial" font-size="8.50">or shell(command)</text>
</g>
<!-- Metrics -->
<g id="node8" class="node">
<title>Metrics</title>
<path fill="#bbf7d0" stroke="#166534" stroke-width="1.2" d="M238.95,-237.87C238.95,-241.22 204.44,-243.93 161.95,-243.93 119.47,-243.93 84.95,-241.22 84.95,-237.87 84.95,-237.87 84.95,-183.31 84.95,-183.31 84.95,-179.96 119.47,-177.25 161.95,-177.25 204.44,-177.25 238.95,-179.96 238.95,-183.31 238.95,-183.31 238.95,-237.87 238.95,-237.87"/>
<path fill="none" stroke="#166534" stroke-width="1.2" d="M238.95,-237.87C238.95,-234.53 204.44,-231.81 161.95,-231.81 119.47,-231.81 84.95,-234.53 84.95,-237.87"/>
<text xml:space="preserve" text-anchor="middle" x="161.95" y="-220.39" font-family="Arial" font-size="11.00">Metrics Store</text>
<text xml:space="preserve" text-anchor="middle" x="161.95" y="-206.89" font-family="Arial" font-size="11.00">~/.pwn/metrics.json</text>
<text xml:space="preserve" text-anchor="middle" x="161.95" y="-193.39" font-family="Arial" font-size="11.00">(per&#45;tool success &amp; duration)</text>
</g>
<!-- ToolCall&#45;&gt;Metrics -->
<g id="edge8" class="edge">
<title>ToolCall&#45;&gt;Metrics</title>
<path fill="none" stroke="#166534" stroke-width="1.05" d="M161.95,-335.72C161.95,-310.16 161.95,-277.94 161.95,-252.73"/>
<polygon fill="#166534" stroke="#166534" stroke-width="1.05" points="164.4,-253.06 161.95,-246.06 159.5,-253.06 164.4,-253.06"/>
<text xml:space="preserve" text-anchor="middle" x="192.33" y="-297.61" font-family="Arial" font-size="8.50">record(success,</text>
<text xml:space="preserve" text-anchor="middle" x="192.33" y="-287.11" font-family="Arial" font-size="8.50">duration, tool)</text>
</g>
<!-- Learning -->
<g id="node9" class="node">
<title>Learning</title>
<path fill="#86efac" stroke="#166534" stroke-width="1.2" d="M1109.45,-407.05C1109.45,-410.4 1083.68,-413.12 1051.95,-413.12 1020.23,-413.12 994.45,-410.4 994.45,-407.05 994.45,-407.05 994.45,-352.49 994.45,-352.49 994.45,-349.15 1020.23,-346.43 1051.95,-346.43 1083.68,-346.43 1109.45,-349.15 1109.45,-352.49 1109.45,-352.49 1109.45,-407.05 1109.45,-407.05"/>
<path fill="none" stroke="#166534" stroke-width="1.2" d="M1109.45,-407.05C1109.45,-403.71 1083.68,-400.99 1051.95,-400.99 1020.23,-400.99 994.45,-403.71 994.45,-407.05"/>
<text xml:space="preserve" text-anchor="middle" x="1051.95" y="-389.57" font-family="Arial" font-size="11.00">Learning Store</text>
<text xml:space="preserve" text-anchor="middle" x="1051.95" y="-376.07" font-family="Arial" font-size="11.00">~/.pwn/learning.jsonl</text>
<text xml:space="preserve" text-anchor="middle" x="1051.95" y="-362.57" font-family="Arial" font-size="11.00">(outcomes + reflect)</text>
</g>
<!-- ToolCall&#45;&gt;Learning -->
<g id="edge10" class="edge">
<title>ToolCall&#45;&gt;Learning</title>
<path fill="none" stroke="#166534" stroke-width="1.05" d="M197.67,-418.94C228.29,-449.41 275.37,-489.32 325.95,-506.6 394.61,-530.05 916.14,-542.92 978.95,-506.6 1010.31,-488.47 1029.39,-451.18 1040.13,-421.71"/>
<polygon fill="#166534" stroke="#166534" stroke-width="1.05" points="1042.44,-422.55 1042.42,-415.13 1037.81,-420.94 1042.44,-422.55"/>
<text xml:space="preserve" text-anchor="middle" x="703.95" y="-539.79" font-family="Arial" font-size="8.50">note_outcome(task,</text>
<text xml:space="preserve" text-anchor="middle" x="703.95" y="-529.29" font-family="Arial" font-size="8.50">success, details)</text>
</g>
<!-- ToolCall&#45;&gt;Extrospect -->
<g id="edge18" class="edge">
<title>ToolCall&#45;&gt;Extrospect</title>
<path fill="none" stroke="#92400e" stroke-width="1.05" d="M196.42,-419.57C226.82,-451.4 274.24,-493.61 325.95,-511.85 416.49,-543.77 455.89,-554.38 541.95,-511.85 576.31,-494.87 602.19,-459.99 619.15,-430.33"/>
<polygon fill="#92400e" stroke="#92400e" stroke-width="1.05" points="621.24,-431.62 622.5,-424.31 616.96,-429.24 621.24,-431.62"/>
<text xml:space="preserve" text-anchor="middle" x="299.95" y="-545.04" font-family="Arial" font-size="8.50">extro_snapshot</text>
<text xml:space="preserve" text-anchor="middle" x="299.95" y="-534.54" font-family="Arial" font-size="8.50">extro_observe</text>
<text xml:space="preserve" text-anchor="middle" x="299.95" y="-524.04" font-family="Arial" font-size="8.50">extro_intel</text>
</g>
<!-- REPL&#45;&gt;ToolCall -->
<g id="edge4" class="edge">
<title>REPL&#45;&gt;ToolCall</title>
<path fill="none" stroke="#075985" stroke-width="1.05" d="M298.92,-598.98C271.51,-590.29 239.97,-576.01 218.95,-553.12 188.44,-519.88 174.23,-469.91 167.63,-432.32"/>
<polygon fill="#075985" stroke="#075985" stroke-width="1.05" points="170.08,-432.1 166.52,-425.59 165.24,-432.89 170.08,-432.1"/>
<text xml:space="preserve" text-anchor="middle" x="241.45" y="-539.79" font-family="Arial" font-size="8.50">stdout / data</text>
<text xml:space="preserve" text-anchor="middle" x="241.45" y="-529.29" font-family="Arial" font-size="8.50">/ exceptions</text>
</g>
<!-- Introspect -->
<g id="node10" class="node">
<title>Introspect</title>
<ellipse fill="#4ade80" stroke="#14532d" stroke-width="1.2" cx="620.95" cy="-210.59" rx="80.79" ry="43.84"/>
<text xml:space="preserve" text-anchor="middle" x="620.95" y="-227.14" font-family="Arial" font-size="11.00">Introspection Engine</text>
<text xml:space="preserve" text-anchor="middle" x="620.95" y="-213.64" font-family="Arial" font-size="11.00">(learning_reflect</text>
<text xml:space="preserve" text-anchor="middle" x="620.95" y="-200.14" font-family="Arial" font-size="11.00">+ note_outcome</text>
<text xml:space="preserve" text-anchor="middle" x="620.95" y="-186.64" font-family="Arial" font-size="11.00">+ distill_skill)</text>
</g>
<!-- Metrics&#45;&gt;Introspect -->
<g id="edge9" class="edge">
<title>Metrics&#45;&gt;Introspect</title>
<path fill="none" stroke="#166534" stroke-width="1.05" d="M221.46,-243.19C278.47,-270.45 367.15,-302.47 445.33,-286.33 483.71,-278.41 524.04,-261.69 556.35,-245.97"/>
<polygon fill="#166534" stroke="#166534" stroke-width="1.05" points="557.35,-248.21 562.54,-242.92 555.18,-243.82 557.35,-248.21"/>
<text xml:space="preserve" text-anchor="middle" x="420.95" y="-292.36" font-family="Arial" font-size="8.50">per&#45;tool stats</text>
</g>
<!-- Learning&#45;&gt;Introspect -->
<g id="edge11" class="edge">
<title>Learning&#45;&gt;Introspect</title>
<path fill="none" stroke="#166534" stroke-width="1.05" d="M1002.38,-347.94C994.67,-343.66 986.69,-339.5 978.95,-335.93 886.01,-293.03 773.81,-256.35 700.09,-234.17"/>
<polygon fill="#166534" stroke="#166534" stroke-width="1.05" points="701.12,-231.92 693.71,-232.26 699.71,-236.62 701.12,-231.92"/>
<text xml:space="preserve" text-anchor="middle" x="944.61" y="-292.36" font-family="Arial" font-size="8.50">reflect(transcript)</text>
</g>
<!-- Introspect&#45;&gt;Extrospect -->
<g id="edge25" class="edge">
<title>Introspect&#45;&gt;Extrospect</title>
<path fill="none" stroke="#9f1239" stroke-width="2.4" stroke-dasharray="5,2" d="M624.26,-265.29C625.48,-280.11 627.1,-296.18 629.2,-310.93 629.89,-315.73 630.7,-320.71 631.58,-325.68"/>
<polygon fill="#9f1239" stroke="#9f1239" stroke-width="2.4" points="626.7,-265.15 623.72,-258.37 621.82,-265.53 626.7,-265.15"/>
<polygon fill="#9f1239" stroke="#9f1239" stroke-width="2.4" points="629.11,-325.83 632.8,-332.27 633.93,-324.94 629.11,-325.83"/>
<text xml:space="preserve" text-anchor="middle" x="662.58" y="-297.61" font-family="Arial" font-size="8.50">failures +</text>
<text xml:space="preserve" text-anchor="middle" x="662.58" y="-287.11" font-family="Arial" font-size="8.50">low success tools</text>
</g>
<!-- Memory -->
<g id="node13" class="node">
<title>Memory</title>
<path fill="#fcd34d" stroke="#854d0e" stroke-width="1.2" d="M696.45,-69.91C696.45,-73.25 662.61,-75.97 620.95,-75.97 579.29,-75.97 545.45,-73.25 545.45,-69.91 545.45,-69.91 545.45,-15.34 545.45,-15.34 545.45,-12 579.29,-9.28 620.95,-9.28 662.61,-9.28 696.45,-12 696.45,-15.34 696.45,-15.34 696.45,-69.91 696.45,-69.91"/>
<path fill="none" stroke="#854d0e" stroke-width="1.2" d="M696.45,-69.91C696.45,-66.56 662.61,-63.84 620.95,-63.84 579.29,-63.84 545.45,-66.56 545.45,-69.91"/>
<text xml:space="preserve" text-anchor="middle" x="620.95" y="-52.42" font-family="Arial" font-size="11.00">PWN::Memory</text>
<text xml:space="preserve" text-anchor="middle" x="620.95" y="-38.92" font-family="Arial" font-size="11.00">~/.pwn/memory.json</text>
<text xml:space="preserve" text-anchor="middle" x="620.95" y="-25.43" font-family="Arial" font-size="11.00">(facts, preferences, lessons)</text>
</g>
<!-- Introspect&#45;&gt;Memory -->
<g id="edge14" class="edge">
<title>Introspect&#45;&gt;Memory</title>
<path fill="none" stroke="#166534" stroke-width="1.05" d="M620.95,-166.42C620.95,-141.25 620.95,-109.67 620.95,-84.84"/>
<polygon fill="#166534" stroke="#166534" stroke-width="1.05" points="623.4,-84.95 620.95,-77.95 618.5,-84.95 623.4,-84.95"/>
<text xml:space="preserve" text-anchor="middle" x="639.7" y="-123.17" font-family="Arial" font-size="8.50">remember</text>
</g>
<!-- Skills -->
<g id="node14" class="node">
<title>Skills</title>
<path fill="#fcd34d" stroke="#854d0e" stroke-width="1.2" d="M463.33,-77.5C463.33,-81.78 421.92,-85.25 370.95,-85.25 319.98,-85.25 278.58,-81.78 278.58,-77.5 278.58,-77.5 278.58,-7.75 278.58,-7.75 278.58,-3.47 319.98,0 370.95,0 421.92,0 463.33,-3.47 463.33,-7.75 463.33,-7.75 463.33,-77.5 463.33,-77.5"/>
<path fill="none" stroke="#854d0e" stroke-width="1.2" d="M463.33,-77.5C463.33,-73.22 421.92,-69.75 370.95,-69.75 319.98,-69.75 278.58,-73.22 278.58,-77.5"/>
<text xml:space="preserve" text-anchor="middle" x="370.95" y="-59.17" font-family="Arial" font-size="11.00">PWN::Skills</text>
<text xml:space="preserve" text-anchor="middle" x="370.95" y="-45.67" font-family="Arial" font-size="11.00">~/.pwn/skills/*.md</text>
<text xml:space="preserve" text-anchor="middle" x="370.95" y="-32.17" font-family="Arial" font-size="11.00">(workflow procedures</text>
<text xml:space="preserve" text-anchor="middle" x="370.95" y="-18.68" font-family="Arial" font-size="11.00">+ references: CWE/CVE/ATT&amp;CK)</text>
</g>
<!-- Introspect&#45;&gt;Skills -->
<g id="edge12" class="edge">
<title>Introspect&#45;&gt;Skills</title>
<path fill="none" stroke="#14532d" stroke-width="1.5" d="M570.36,-176.01C533.02,-151.22 481.75,-117.18 440.55,-89.83"/>
<polygon fill="#14532d" stroke="#14532d" stroke-width="1.5" points="442.06,-87.89 434.87,-86.06 439.35,-91.97 442.06,-87.89"/>
<text xml:space="preserve" text-anchor="middle" x="546.85" y="-133.68" font-family="Arial" font-size="8.50">distill_skill</text>
<text xml:space="preserve" text-anchor="middle" x="546.85" y="-123.17" font-family="Arial" font-size="8.50">(name, content,</text>
<text xml:space="preserve" text-anchor="middle" x="546.85" y="-112.67" font-family="Arial" font-size="8.50">references)</text>
</g>
<!-- History -->
<g id="node15" class="node">
<title>History</title>
<path fill="#d1d5db" stroke="#374151" stroke-width="1.2" d="M147.7,-69.91C147.7,-73.25 119.58,-75.97 84.95,-75.97 50.33,-75.97 22.2,-73.25 22.2,-69.91 22.2,-69.91 22.2,-15.34 22.2,-15.34 22.2,-12 50.33,-9.28 84.95,-9.28 119.58,-9.28 147.7,-12 147.7,-15.34 147.7,-15.34 147.7,-69.91 147.7,-69.91"/>
<path fill="none" stroke="#374151" stroke-width="1.2" d="M147.7,-69.91C147.7,-66.56 119.58,-63.84 84.95,-63.84 50.33,-63.84 22.2,-66.56 22.2,-69.91"/>
<text xml:space="preserve" text-anchor="middle" x="84.95" y="-52.42" font-family="Arial" font-size="11.00">Sessions + History</text>
<text xml:space="preserve" text-anchor="middle" x="84.95" y="-38.92" font-family="Arial" font-size="11.00">~/.pwn/sessions/*.jsonl</text>
<text xml:space="preserve" text-anchor="middle" x="84.95" y="-25.43" font-family="Arial" font-size="11.00">+ Pry history</text>
</g>
<!-- Introspect&#45;&gt;History -->
<g id="edge16" class="edge">
<title>Introspect&#45;&gt;History</title>
<path fill="none" stroke="black" stroke-width="1.05" d="M558.13,-182.48C544.36,-176.95 529.76,-171.41 515.95,-166.75 475.5,-153.1 464.32,-153.25 423.2,-141.75 330.83,-115.9 224.65,-84.89 156.27,-64.74"/>
<polygon fill="black" stroke="black" stroke-width="1.05" points="157.06,-62.42 149.65,-62.79 155.67,-67.12 157.06,-62.42"/>
<text xml:space="preserve" text-anchor="middle" x="444.58" y="-123.17" font-family="Arial" font-size="8.50">log session</text>
</g>
<!-- ExtroStore -->
<g id="node11" class="node">
<title>ExtroStore</title>
<path fill="#fde68a" stroke="#92400e" stroke-width="1.2" d="M962.83,-407.05C962.83,-410.4 930.16,-413.12 889.95,-413.12 849.74,-413.12 817.08,-410.4 817.08,-407.05 817.08,-407.05 817.08,-352.49 817.08,-352.49 817.08,-349.15 849.74,-346.43 889.95,-346.43 930.16,-346.43 962.83,-349.15 962.83,-352.49 962.83,-352.49 962.83,-407.05 962.83,-407.05"/>
<path fill="none" stroke="#92400e" stroke-width="1.2" d="M962.83,-407.05C962.83,-403.71 930.16,-400.99 889.95,-400.99 849.74,-400.99 817.08,-403.71 817.08,-407.05"/>
<text xml:space="preserve" text-anchor="middle" x="889.95" y="-389.57" font-family="Arial" font-size="11.00">Extrospection Store</text>
<text xml:space="preserve" text-anchor="middle" x="889.95" y="-376.07" font-family="Arial" font-size="11.00">~/.pwn/extrospection.json</text>
<text xml:space="preserve" text-anchor="middle" x="889.95" y="-362.57" font-family="Arial" font-size="11.00">(snapshots + observations)</text>
</g>
<!-- ExtroStore&#45;&gt;Extrospect -->
<g id="edge22" class="edge">
<title>ExtroStore&#45;&gt;Extrospect</title>
<path fill="none" stroke="#92400e" stroke-width="1.05" d="M816.69,-358.89C810.38,-357.63 804.06,-356.56 797.92,-355.77 775.07,-352.84 750.4,-354.47 727.6,-357.96"/>
<polygon fill="#92400e" stroke="#92400e" stroke-width="1.05" points="727.38,-355.52 720.87,-359.07 728.17,-360.35 727.38,-355.52"/>
<text xml:space="preserve" text-anchor="middle" x="772.8" y="-368.7" font-family="Arial" font-size="8.50">load previous</text>
<text xml:space="preserve" text-anchor="middle" x="772.8" y="-358.2" font-family="Arial" font-size="8.50">baseline</text>
</g>
<!-- Extrospect&#45;&gt;ToolCall -->
<g id="edge23" class="edge">
<title>Extrospect&#45;&gt;ToolCall</title>
<path fill="none" stroke="#92400e" stroke-width="1.5" d="M623.27,-422.92C606.52,-453.95 579.22,-493.43 541.95,-511.85 455.89,-554.38 416.49,-543.77 325.95,-511.85 277.67,-494.82 233.14,-456.9 202.7,-426.04"/>
<polygon fill="#92400e" stroke="#92400e" stroke-width="1.5" points="204.64,-424.52 198,-421.2 201.12,-427.93 204.64,-424.52"/>
<text xml:space="preserve" text-anchor="middle" x="299.95" y="-539.79" font-family="Arial" font-size="8.50">EXTROSPECTION</text>
<text xml:space="preserve" text-anchor="middle" x="299.95" y="-529.29" font-family="Arial" font-size="8.50">block injection</text>
</g>
<!-- Extrospect&#45;&gt;Introspect -->
<g id="edge26" class="edge">
<title>Extrospect&#45;&gt;Introspect</title>
<path fill="none" stroke="#9f1239" stroke-width="2.4" stroke-dasharray="5,2" d="M567.25,-346.34C553.61,-336.96 541.2,-325.27 533.2,-310.93 520.68,-288.48 535.81,-266.7 556.83,-249.29"/>
<polygon fill="#9f1239" stroke="#9f1239" stroke-width="2.4" points="565.61,-348.2 572.83,-349.92 568.26,-344.08 565.61,-348.2"/>
<polygon fill="#9f1239" stroke="#9f1239" stroke-width="2.4" points="558.24,-251.29 562.26,-245.06 555.23,-247.42 558.24,-251.29"/>
<text xml:space="preserve" text-anchor="middle" x="575.58" y="-302.86" font-family="Arial" font-size="8.50">extro_correlate():</text>
<text xml:space="preserve" text-anchor="middle" x="575.58" y="-292.36" font-family="Arial" font-size="8.50">&quot;I did it wrong&quot;</text>
<text xml:space="preserve" text-anchor="middle" x="575.58" y="-281.86" font-family="Arial" font-size="8.50">vs &quot;the world changed&quot;</text>
</g>
<!-- Extrospect&#45;&gt;ExtroStore -->
<g id="edge21" class="edge">
<title>Extrospect&#45;&gt;ExtroStore</title>
<path fill="none" stroke="#92400e" stroke-width="1.05" d="M729,-379.77C754.64,-379.77 782.66,-379.77 808.03,-379.77"/>
<polygon fill="#92400e" stroke="#92400e" stroke-width="1.05" points="807.94,-382.22 814.94,-379.77 807.94,-377.32 807.94,-382.22"/>
<text xml:space="preserve" text-anchor="middle" x="772.8" y="-395.7" font-family="Arial" font-size="8.50">persist</text>
<text xml:space="preserve" text-anchor="middle" x="772.8" y="-385.2" font-family="Arial" font-size="8.50">snapshot + obs</text>
</g>
<!-- Extrospect&#45;&gt;Memory -->
<g id="edge24" class="edge">
<title>Extrospect&#45;&gt;Memory</title>
<path fill="none" stroke="black" stroke-width="1.05" d="M723.44,-363.95C753.29,-354.13 784.17,-337.85 801.95,-310.93 809.67,-299.25 806.36,-292.72 801.95,-279.43 775.34,-199.2 708.68,-125.1 664.12,-82.13"/>
<polygon fill="black" stroke="black" stroke-width="1.05" points="665.89,-80.44 659.14,-77.38 662.51,-83.98 665.89,-80.44"/>
<text xml:space="preserve" text-anchor="middle" x="826.21" y="-207.77" font-family="Arial" font-size="8.50">record DRIFT facts</text>
</g>
<!-- Memory&#45;&gt;ToolCall -->
<g id="edge15" class="edge">
<title>Memory&#45;&gt;ToolCall</title>
<path fill="none" stroke="#166534" stroke-width="1.05" d="M579.99,-76.5C555.57,-95.85 523.8,-120.6 494.95,-141.75 479.17,-153.32 472.05,-152.43 458.7,-166.75 427.85,-199.86 439.76,-223.27 406.95,-254.43 381.48,-278.63 362.46,-270.32 337.45,-288.86"/>
<polygon fill="#166534" stroke="#166534" stroke-width="1.05" points="336.04,-286.84 332.18,-293.17 339.15,-290.63 336.04,-286.84"/>
<text xml:space="preserve" text-anchor="middle" x="491.33" y="-213.02" font-family="Arial" font-size="8.50">recall(query)</text>
<text xml:space="preserve" text-anchor="middle" x="491.33" y="-202.52" font-family="Arial" font-size="8.50">→ prompt context</text>
</g>
<!-- Skills&#45;&gt;ToolCall -->
<g id="edge13" class="edge">
<title>Skills&#45;&gt;ToolCall</title>
<path fill="none" stroke="#14532d" stroke-width="1.05" d="M335.69,-85.64C330.87,-93.4 326.65,-101.75 323.95,-110.25 304.57,-171.35 323.27,-190.46 327.2,-254.43 328.08,-268.68 338.09,-277.6 335.43,-287.09"/>
<polygon fill="#14532d" stroke="#14532d" stroke-width="1.05" points="333.47,-285.61 331.8,-292.84 337.61,-288.23 333.47,-285.61"/>
<path fill="none" stroke="#14532d" stroke-width="1.05" d="M330.95,-296.18C302.94,-324.28 263.45,-344.31 229.69,-357.6"/>
<text xml:space="preserve" text-anchor="middle" x="365.08" y="-213.02" font-family="Arial" font-size="8.50">skill_list / skill_view</text>
<text xml:space="preserve" text-anchor="middle" x="365.08" y="-202.52" font-family="Arial" font-size="8.50">→ injected context</text>
</g>
<!-- History&#45;&gt;PwnAI -->
<g id="edge17" class="edge">
<title>History&#45;&gt;PwnAI</title>
<path fill="none" stroke="black" stroke-width="1.05" d="M79.57,-76.44C75.78,-101.18 71.03,-136 68.95,-166.75 58.54,-320.56 62.45,-359.55 67.95,-513.62 68.61,-532.04 69.97,-552.37 71.31,-569.7"/>
<polygon fill="black" stroke="black" stroke-width="1.05" points="68.84,-569.58 71.84,-576.36 73.73,-569.19 68.84,-569.58"/>
<text xml:space="preserve" text-anchor="middle" x="97.23" y="-297.61" font-family="Arial" font-size="8.50">context from</text>
<text xml:space="preserve" text-anchor="middle" x="97.23" y="-287.11" font-family="Arial" font-size="8.50">previous sessions</text>
</g>
</g>
</svg>
