<?xml version="1.0" encoding="UTF-8" standalone="no"?>
<!DOCTYPE svg PUBLIC "-//W3C//DTD SVG 1.1//EN"
 "http://www.w3.org/Graphics/SVG/1.1/DTD/svg11.dtd">
<!-- Generated by graphviz version 14.1.2 (0)
 -->
<!-- Title: PWN_AI_Feedback_Learning_Loop Pages: 1 -->
<svg width="3032pt" height="840pt"
 viewBox="0.00 0.00 3032.00 840.00" xmlns="http://www.w3.org/2000/svg" xmlns:xlink="http://www.w3.org/1999/xlink">
<g id="graph0" class="graph" transform="scale(1 1) rotate(0) translate(43.2 796.7)">
<title>PWN_AI_Feedback_Learning_Loop</title>
<polygon fill="#0f172a" stroke="none" points="-43.2,43.2 -43.2,-796.7 2988.75,-796.7 2988.75,43.2 -43.2,43.2"/>
<text xml:space="preserve" text-anchor="start" x="1279.28" y="-731.5" font-family="sans-Serif" font-weight="bold" font-size="20.00" fill="#e2e8f0">pwn&#45;ai — Closed Self&#45;Improvement Loop</text>
<text xml:space="preserve" text-anchor="start" x="1245.9" y="-720.05" font-family="sans-Serif" font-size="11.00" fill="#94a3b8">Introspection (self) &#160;⟷ &#160;Extrospection (world) &#160;· &#160;Mistakes (negative) &#160;· &#160;Local&#45;model scaffolding</text>
<g id="clust2" class="cluster">
<title>cluster_core</title>
<path fill="#2e1065" stroke="#6d28d9" stroke-width="2" d="M20,-486.5C20,-486.5 1035,-486.5 1035,-486.5 1041,-486.5 1047,-492.5 1047,-498.5 1047,-498.5 1047,-601.5 1047,-601.5 1047,-607.5 1041,-613.5 1035,-613.5 1035,-613.5 20,-613.5 20,-613.5 14,-613.5 8,-607.5 8,-601.5 8,-601.5 8,-498.5 8,-498.5 8,-492.5 14,-486.5 20,-486.5"/>
<text xml:space="preserve" text-anchor="middle" x="527.5" y="-590.5" font-family="sans-Serif" font-size="20.00" fill="#ddd6fe">PWN::AI::Agent::Loop</text>
</g>
<g id="clust4" class="cluster">
<title>cluster_intro</title>
<path fill="#022c22" stroke="#047857" stroke-width="2" d="M446,-289C446,-289 1171,-289 1171,-289 1177,-289 1183,-295 1183,-301 1183,-301 1183,-417.5 1183,-417.5 1183,-423.5 1177,-429.5 1171,-429.5 1171,-429.5 446,-429.5 446,-429.5 440,-429.5 434,-423.5 434,-417.5 434,-417.5 434,-301 434,-301 434,-295 440,-289 446,-289"/>
<text xml:space="preserve" text-anchor="middle" x="808.5" y="-406.5" font-family="sans-Serif" font-size="20.00" fill="#a7f3d0">INTROSPECTION &#160;(self)</text>
</g>
<g id="clust5" class="cluster">
<title>cluster_extro</title>
<path fill="#422006" stroke="#a16207" stroke-width="2" d="M1323,-289C1323,-289 2005,-289 2005,-289 2011,-289 2017,-295 2017,-301 2017,-301 2017,-417.5 2017,-417.5 2017,-423.5 2011,-429.5 2005,-429.5 2005,-429.5 1323,-429.5 1323,-429.5 1317,-429.5 1311,-423.5 1311,-417.5 1311,-417.5 1311,-301 1311,-301 1311,-295 1317,-289 1323,-289"/>
<text xml:space="preserve" text-anchor="middle" x="1664" y="-406.5" font-family="sans-Serif" font-size="20.00" fill="#fde68a">EXTROSPECTION &#160;(world)</text>
</g>
<g id="clust7" class="cluster">
<title>cluster_store</title>
<path fill="#1e293b" stroke="#334155" stroke-dasharray="5,2" d="M608,-8C608,-8 1536,-8 1536,-8 1542,-8 1548,-14 1548,-20 1548,-20 1548,-110.5 1548,-110.5 1548,-116.5 1542,-122.5 1536,-122.5 1536,-122.5 608,-122.5 608,-122.5 602,-122.5 596,-116.5 596,-110.5 596,-110.5 596,-20 596,-20 596,-14 602,-8 608,-8"/>
<text xml:space="preserve" text-anchor="middle" x="1072" y="-99.5" font-family="sans-Serif" font-size="20.00" fill="#94a3b8">~/.pwn/</text>
</g>
<!-- User -->
<g id="node1" class="node">
<title>User</title>
<path fill="#7dd3fc" stroke="#334155" stroke-width="1.4" d="M111.88,-714.5C111.88,-714.5 44.12,-714.5 44.12,-714.5 38.12,-714.5 32.12,-708.5 32.12,-702.5 32.12,-702.5 32.12,-690.5 32.12,-690.5 32.12,-684.5 38.12,-678.5 44.12,-678.5 44.12,-678.5 111.88,-678.5 111.88,-678.5 117.88,-678.5 123.88,-684.5 123.88,-690.5 123.88,-690.5 123.88,-702.5 123.88,-702.5 123.88,-708.5 117.88,-714.5 111.88,-714.5"/>
<text xml:space="preserve" text-anchor="middle" x="78" y="-692.8" font-family="sans-Serif" font-size="11.00" fill="#0f172a">👤 &#160;Researcher</text>
</g>
<!-- Prompt -->
<g id="node4" class="node">
<title>Prompt</title>
<path fill="#c4b5fd" stroke="#334155" stroke-width="1.4" d="M127.62,-543C127.62,-543 28.38,-543 28.38,-543 22.38,-543 16.38,-537 16.38,-531 16.38,-531 16.38,-506.5 16.38,-506.5 16.38,-500.5 22.38,-494.5 28.38,-494.5 28.38,-494.5 127.62,-494.5 127.62,-494.5 133.62,-494.5 139.62,-500.5 139.62,-506.5 139.62,-506.5 139.62,-531 139.62,-531 139.62,-537 133.62,-543 127.62,-543"/>
<text xml:space="preserve" text-anchor="middle" x="78" y="-528.55" font-family="sans-Serif" font-size="11.00" fill="#0f172a">PromptBuilder</text>
<text xml:space="preserve" text-anchor="middle" x="78" y="-515.05" font-family="sans-Serif" font-size="11.00" fill="#0f172a">budget · MemoryIndex</text>
<text xml:space="preserve" text-anchor="middle" x="78" y="-501.55" font-family="sans-Serif" font-size="11.00" fill="#0f172a">relevance&#45;ranked ctx</text>
</g>
<!-- User&#45;&gt;Prompt -->
<g id="edge1" class="edge">
<title>User&#45;&gt;Prompt</title>
<path fill="none" stroke="#38bdf8" stroke-width="2" d="M78,-678.01C78,-649.29 78,-591.62 78,-554.4"/>
<polygon fill="#38bdf8" stroke="#38bdf8" stroke-width="2" points="80.8,-554.59 78,-546.59 75.2,-554.59 80.8,-554.59"/>
<text xml:space="preserve" text-anchor="middle" x="86.25" y="-628.7" font-family="sans-Serif" font-size="9.00" fill="#cbd5e1">task</text>
</g>
<!-- Mistakes -->
<g id="node12" class="node">
<title>Mistakes</title>
<path fill="#6ee7b7" stroke="#334155" stroke-width="2" d="M1163.25,-359C1163.25,-359 1016.75,-359 1016.75,-359 1010.75,-359 1004.75,-353 1004.75,-347 1004.75,-347 1004.75,-309 1004.75,-309 1004.75,-303 1010.75,-297 1016.75,-297 1016.75,-297 1163.25,-297 1163.25,-297 1169.25,-297 1175.25,-303 1175.25,-309 1175.25,-309 1175.25,-347 1175.25,-347 1175.25,-353 1169.25,-359 1163.25,-359"/>
<text xml:space="preserve" text-anchor="middle" x="1090" y="-344.55" font-family="sans-Serif" font-size="11.00" fill="#0f172a">Mistakes</text>
<text xml:space="preserve" text-anchor="middle" x="1090" y="-331.05" font-family="sans-Serif" font-size="11.00" fill="#0f172a">record · resolve</text>
<text xml:space="preserve" text-anchor="middle" x="1090" y="-317.55" font-family="sans-Serif" font-size="11.00" fill="#0f172a">guard · correction_hint</text>
<text xml:space="preserve" text-anchor="middle" x="1090" y="-304.05" font-family="sans-Serif" font-size="11.00" fill="#0f172a">[REPEATING] · [REGRESSED]</text>
</g>
<!-- User&#45;&gt;Mistakes -->
<g id="edge13" class="edge">
<title>User&#45;&gt;Mistakes</title>
<path fill="none" stroke="#fb7185" stroke-width="1.3" stroke-dasharray="5,2" d="M107.03,-677.8C138.66,-659.63 191.39,-632.49 241,-621.5 285.26,-611.7 1012.01,-619.12 1057,-613.5 1346.13,-577.39 1513.96,-687.6 1694,-458.5 1699.77,-451.16 1700.53,-444.17 1694,-437.5 1686.36,-429.7 1311.63,-432.02 1301,-429.5 1246.26,-416.54 1188.93,-388.14 1147.86,-364.83"/>
<polygon fill="#fb7185" stroke="#fb7185" stroke-width="1.3" points="1149.39,-362.48 1141.06,-360.92 1146.6,-367.33 1149.39,-362.48"/>
<text xml:space="preserve" text-anchor="middle" x="1716.56" y="-520.7" font-family="sans-Serif" font-size="9.00" fill="#cbd5e1">&quot;that&#39;s wrong&quot;</text>
<text xml:space="preserve" text-anchor="middle" x="1716.56" y="-510.2" font-family="sans-Serif" font-size="9.00" fill="#cbd5e1">check_user_correction</text>
</g>
<!-- LLM -->
<g id="node2" class="node">
<title>LLM</title>
<path fill="#c4b5fd" stroke="#334155" stroke-width="1.4" d="M684,-714.5C684,-714.5 608,-714.5 608,-714.5 602,-714.5 596,-708.5 596,-702.5 596,-702.5 596,-690.5 596,-690.5 596,-684.5 602,-678.5 608,-678.5 608,-678.5 684,-678.5 684,-678.5 690,-678.5 696,-684.5 696,-690.5 696,-690.5 696,-702.5 696,-702.5 696,-708.5 690,-714.5 684,-714.5"/>
<text xml:space="preserve" text-anchor="middle" x="646" y="-692.8" font-family="sans-Serif" font-size="11.00" fill="#0f172a">🤖 &#160;LLM Provider</text>
</g>
<!-- Dispatch -->
<g id="node5" class="node">
<title>Dispatch</title>
<path fill="#c4b5fd" stroke="#334155" stroke-width="1.4" d="M647,-543C647,-543 589,-543 589,-543 583,-543 577,-537 577,-531 577,-531 577,-506.5 577,-506.5 577,-500.5 583,-494.5 589,-494.5 589,-494.5 647,-494.5 647,-494.5 653,-494.5 659,-500.5 659,-506.5 659,-506.5 659,-531 659,-531 659,-537 653,-543 647,-543"/>
<text xml:space="preserve" text-anchor="middle" x="618" y="-528.55" font-family="sans-Serif" font-size="11.00" fill="#0f172a">Dispatch</text>
<text xml:space="preserve" text-anchor="middle" x="618" y="-515.05" font-family="sans-Serif" font-size="11.00" fill="#0f172a">tolerant parse</text>
<text xml:space="preserve" text-anchor="middle" x="618" y="-501.55" font-family="sans-Serif" font-size="11.00" fill="#0f172a">repair_name</text>
</g>
<!-- LLM&#45;&gt;Dispatch -->
<g id="edge2" class="edge">
<title>LLM&#45;&gt;Dispatch</title>
<path fill="none" stroke="#a78bfa" stroke-width="2" d="M641.51,-667.33C636.6,-636.52 628.74,-587.14 623.47,-554.09"/>
<polygon fill="#a78bfa" stroke="#a78bfa" stroke-width="2" points="638.71,-667.56 642.74,-675.02 644.24,-666.68 638.71,-667.56"/>
<polygon fill="#a78bfa" stroke="#a78bfa" stroke-width="2" points="626.29,-554.01 622.27,-546.55 620.76,-554.89 626.29,-554.01"/>
<text xml:space="preserve" text-anchor="middle" x="656.44" y="-628.7" font-family="sans-Serif" font-size="9.00" fill="#cbd5e1">tool_calls</text>
</g>
<!-- World -->
<g id="node3" class="node">
<title>World</title>
<path fill="#fda4af" stroke="#334155" stroke-width="1.4" d="M440.88,-714.5C440.88,-714.5 319.12,-714.5 319.12,-714.5 313.12,-714.5 307.12,-708.5 307.12,-702.5 307.12,-702.5 307.12,-690.5 307.12,-690.5 307.12,-684.5 313.12,-678.5 319.12,-678.5 319.12,-678.5 440.88,-678.5 440.88,-678.5 446.88,-678.5 452.88,-684.5 452.88,-690.5 452.88,-690.5 452.88,-702.5 452.88,-702.5 452.88,-708.5 446.88,-714.5 440.88,-714.5"/>
<text xml:space="preserve" text-anchor="middle" x="380" y="-699.55" font-family="sans-Serif" font-size="11.00" fill="#0f172a">🌍 &#160;Host · Net · Repo</text>
<text xml:space="preserve" text-anchor="middle" x="380" y="-686.05" font-family="sans-Serif" font-size="11.00" fill="#0f172a">Toolchain · RF · Web · Intel</text>
</g>
<!-- Result -->
<g id="node9" class="node">
<title>Result</title>
<path fill="#c4b5fd" stroke="#334155" stroke-width="1.4" d="M1026.88,-536.75C1026.88,-536.75 977.12,-536.75 977.12,-536.75 971.12,-536.75 965.12,-530.75 965.12,-524.75 965.12,-524.75 965.12,-512.75 965.12,-512.75 965.12,-506.75 971.12,-500.75 977.12,-500.75 977.12,-500.75 1026.88,-500.75 1026.88,-500.75 1032.88,-500.75 1038.88,-506.75 1038.88,-512.75 1038.88,-512.75 1038.88,-524.75 1038.88,-524.75 1038.88,-530.75 1032.88,-536.75 1026.88,-536.75"/>
<text xml:space="preserve" text-anchor="middle" x="1002" y="-521.8" font-family="sans-Serif" font-size="11.00" fill="#0f172a">Result</text>
<text xml:space="preserve" text-anchor="middle" x="1002" y="-508.3" font-family="sans-Serif" font-size="11.00" fill="#0f172a">final answer</text>
</g>
<!-- World&#45;&gt;Result -->
<!-- Snapshot -->
<g id="node14" class="node">
<title>Snapshot</title>
<path fill="#fcd34d" stroke="#334155" stroke-width="1.4" d="M1496.62,-359C1496.62,-359 1331.38,-359 1331.38,-359 1325.38,-359 1319.38,-353 1319.38,-347 1319.38,-347 1319.38,-309 1319.38,-309 1319.38,-303 1325.38,-297 1331.38,-297 1331.38,-297 1496.62,-297 1496.62,-297 1502.62,-297 1508.62,-303 1508.62,-309 1508.62,-309 1508.62,-347 1508.62,-347 1508.62,-353 1502.62,-359 1496.62,-359"/>
<text xml:space="preserve" text-anchor="middle" x="1414" y="-344.55" font-family="sans-Serif" font-size="11.00" fill="#0f172a">snapshot · drift</text>
<text xml:space="preserve" text-anchor="middle" x="1414" y="-331.05" font-family="sans-Serif" font-size="11.00" fill="#0f172a">host/net/toolchain</text>
<text xml:space="preserve" text-anchor="middle" x="1414" y="-317.55" font-family="sans-Serif" font-size="11.00" fill="#0f172a">repo/env/rf/web</text>
<text xml:space="preserve" text-anchor="middle" x="1414" y="-304.05" font-family="sans-Serif" font-size="11.00" fill="#0f172a">(AUTO_SECTIONS=host/repo/env)</text>
</g>
<!-- World&#45;&gt;Snapshot -->
<g id="edge16" class="edge">
<title>World&#45;&gt;Snapshot</title>
<path fill="none" stroke="#fb7185" stroke-width="1.3" d="M391.59,-677.81C404.58,-659.78 427.45,-632.9 455,-621.5 471.91,-614.5 1760.1,-626.48 1773,-613.5 1829.92,-556.24 1801.25,-471.46 1728,-437.5 1688.05,-418.98 1570.94,-445.72 1530,-429.5 1496.69,-416.31 1466.37,-389.25 1445.09,-366.53"/>
<polygon fill="#fb7185" stroke="#fb7185" stroke-width="1.3" points="1447.3,-364.8 1439.84,-360.78 1443.17,-368.58 1447.3,-364.8"/>
</g>
<!-- Observe -->
<g id="node15" class="node">
<title>Observe</title>
<path fill="#fcd34d" stroke="#334155" stroke-width="1.4" d="M1672.5,-346C1672.5,-346 1563.5,-346 1563.5,-346 1557.5,-346 1551.5,-340 1551.5,-334 1551.5,-334 1551.5,-322 1551.5,-322 1551.5,-316 1557.5,-310 1563.5,-310 1563.5,-310 1672.5,-310 1672.5,-310 1678.5,-310 1684.5,-316 1684.5,-322 1684.5,-322 1684.5,-334 1684.5,-334 1684.5,-340 1678.5,-346 1672.5,-346"/>
<text xml:space="preserve" text-anchor="middle" x="1618" y="-331.05" font-family="sans-Serif" font-size="11.00" fill="#0f172a">observe · intel · watch</text>
<text xml:space="preserve" text-anchor="middle" x="1618" y="-317.55" font-family="sans-Serif" font-size="11.00" fill="#0f172a">recon · CVE · web DOM</text>
</g>
<!-- World&#45;&gt;Observe -->
<g id="edge17" class="edge">
<title>World&#45;&gt;Observe</title>
<path fill="none" stroke="#fb7185" stroke-width="1.3" d="M401.19,-677.98C424.65,-659.81 464.4,-632.55 504,-621.5 521.61,-616.59 1807.11,-626.46 1820,-613.5 1859.79,-573.47 1840.19,-539.21 1820,-486.5 1809.53,-459.17 1802.01,-450.92 1776,-437.5 1748.17,-423.14 1733.74,-444.04 1706,-429.5 1673.62,-412.53 1647.75,-378.35 1632.65,-354.59"/>
<polygon fill="#fb7185" stroke="#fb7185" stroke-width="1.3" points="1635.19,-353.38 1628.61,-348.04 1630.42,-356.32 1635.19,-353.38"/>
</g>
<!-- Verify -->
<g id="node16" class="node">
<title>Verify</title>
<path fill="#fcd34d" stroke="#334155" stroke-width="2" d="M1836.5,-352.25C1836.5,-352.25 1739.5,-352.25 1739.5,-352.25 1733.5,-352.25 1727.5,-346.25 1727.5,-340.25 1727.5,-340.25 1727.5,-315.75 1727.5,-315.75 1727.5,-309.75 1733.5,-303.75 1739.5,-303.75 1739.5,-303.75 1836.5,-303.75 1836.5,-303.75 1842.5,-303.75 1848.5,-309.75 1848.5,-315.75 1848.5,-315.75 1848.5,-340.25 1848.5,-340.25 1848.5,-346.25 1842.5,-352.25 1836.5,-352.25"/>
<text xml:space="preserve" text-anchor="middle" x="1788" y="-337.8" font-family="sans-Serif" font-size="11.00" fill="#0f172a">verify (browser)</text>
<text xml:space="preserve" text-anchor="middle" x="1788" y="-324.3" font-family="sans-Serif" font-size="11.00" fill="#0f172a">fact&#45;check own claims</text>
<text xml:space="preserve" text-anchor="middle" x="1788" y="-310.8" font-family="sans-Serif" font-size="11.00" fill="#0f172a">revalidate_memory</text>
</g>
<!-- World&#45;&gt;Verify -->
<g id="edge18" class="edge">
<title>World&#45;&gt;Verify</title>
<path fill="none" stroke="#38bdf8" stroke-width="2" d="M420.16,-677.85C469.07,-656.42 546.06,-622.94 553,-621.5 570.83,-617.79 1851.16,-626.41 1864,-613.5 1932.73,-544.35 1856.88,-420.34 1813.72,-361.58"/>
<polygon fill="#38bdf8" stroke="#38bdf8" stroke-width="2" points="1816.2,-360.22 1809.17,-355.49 1811.71,-363.58 1816.2,-360.22"/>
<text xml:space="preserve" text-anchor="middle" x="1933.26" y="-520.7" font-family="sans-Serif" font-size="9.00" fill="#cbd5e1">TransparentBrowser</text>
<text xml:space="preserve" text-anchor="middle" x="1933.26" y="-510.2" font-family="sans-Serif" font-size="9.00" fill="#cbd5e1">:headless</text>
</g>
<!-- RFTune -->
<g id="node17" class="node">
<title>RFTune</title>
<path fill="#fcd34d" stroke="#334155" stroke-width="2" d="M1996.62,-352.25C1996.62,-352.25 1903.38,-352.25 1903.38,-352.25 1897.38,-352.25 1891.38,-346.25 1891.38,-340.25 1891.38,-340.25 1891.38,-315.75 1891.38,-315.75 1891.38,-309.75 1897.38,-303.75 1903.38,-303.75 1903.38,-303.75 1996.62,-303.75 1996.62,-303.75 2002.62,-303.75 2008.62,-309.75 2008.62,-315.75 2008.62,-315.75 2008.62,-340.25 2008.62,-340.25 2008.62,-346.25 2002.62,-352.25 1996.62,-352.25"/>
<text xml:space="preserve" text-anchor="middle" x="1950" y="-337.8" font-family="sans-Serif" font-size="11.00" fill="#0f172a">rf_tune &#160;📡</text>
<text xml:space="preserve" text-anchor="middle" x="1950" y="-324.3" font-family="sans-Serif" font-size="11.00" fill="#0f172a">tune GQRX · demod</text>
<text xml:space="preserve" text-anchor="middle" x="1950" y="-310.8" font-family="sans-Serif" font-size="11.00" fill="#0f172a">RDS → now_playing</text>
</g>
<!-- World&#45;&gt;RFTune -->
<g id="edge19" class="edge">
<title>World&#45;&gt;RFTune</title>
<path fill="none" stroke="#fb7185" stroke-width="2" d="M436.96,-677.85C506.32,-656.42 615.47,-622.94 625,-621.5 643.68,-618.68 1971.68,-626.9 1985,-613.5 2051.66,-546.44 2000.09,-422.2 1969.07,-362.6"/>
<polygon fill="#fb7185" stroke="#fb7185" stroke-width="2" points="1971.57,-361.35 1965.34,-355.6 1966.63,-363.98 1971.57,-361.35"/>
<text xml:space="preserve" text-anchor="middle" x="2046" y="-520.7" font-family="sans-Serif" font-size="9.00" fill="#cbd5e1">GQRX remote</text>
<text xml:space="preserve" text-anchor="middle" x="2046" y="-510.2" font-family="sans-Serif" font-size="9.00" fill="#cbd5e1">:7356 + SDR</text>
</g>
<!-- Router -->
<g id="node6" class="node">
<title>Router</title>
<path fill="#c4b5fd" stroke="#334155" stroke-width="1.4" d="M300.62,-543C300.62,-543 237.38,-543 237.38,-543 231.38,-543 225.38,-537 225.38,-531 225.38,-531 225.38,-506.5 225.38,-506.5 225.38,-500.5 231.38,-494.5 237.38,-494.5 237.38,-494.5 300.62,-494.5 300.62,-494.5 306.62,-494.5 312.62,-500.5 312.62,-506.5 312.62,-506.5 312.62,-531 312.62,-531 312.62,-537 306.62,-543 300.62,-543"/>
<text xml:space="preserve" text-anchor="middle" x="269" y="-528.55" font-family="sans-Serif" font-size="11.00" fill="#0f172a">Registry</text>
<text xml:space="preserve" text-anchor="middle" x="269" y="-515.05" font-family="sans-Serif" font-size="11.00" fill="#0f172a">tool_router</text>
<text xml:space="preserve" text-anchor="middle" x="269" y="-501.55" font-family="sans-Serif" font-size="11.00" fill="#0f172a">CORE + top&#45;K</text>
</g>
<!-- Prompt&#45;&gt;Router -->
<g id="edge4" class="edge">
<title>Prompt&#45;&gt;Router</title>
<path fill="none" stroke="#a78bfa" stroke-width="1.3" d="M140.3,-518.75C165.15,-518.75 190.01,-518.75 214.86,-518.75"/>
<polygon fill="#a78bfa" stroke="#a78bfa" stroke-width="1.3" points="214.79,-521.55 222.79,-518.75 214.79,-515.95 214.79,-521.55"/>
</g>
<!-- Escalate -->
<g id="node8" class="node">
<title>Escalate</title>
<path fill="#c4b5fd" stroke="#334155" stroke-width="2" d="M868,-536.75C868,-536.75 768,-536.75 768,-536.75 762,-536.75 756,-530.75 756,-524.75 756,-524.75 756,-512.75 756,-512.75 756,-506.75 762,-500.75 768,-500.75 768,-500.75 868,-500.75 868,-500.75 874,-500.75 880,-506.75 880,-512.75 880,-512.75 880,-524.75 880,-524.75 880,-530.75 874,-536.75 868,-536.75"/>
<text xml:space="preserve" text-anchor="middle" x="818" y="-521.8" font-family="sans-Serif" font-size="11.00" fill="#0f172a">escalate</text>
<text xml:space="preserve" text-anchor="middle" x="818" y="-508.3" font-family="sans-Serif" font-size="11.00" fill="#0f172a">≥N fails → Swarm hint</text>
</g>
<!-- Dispatch&#45;&gt;Escalate -->
<g id="edge7" class="edge">
<title>Dispatch&#45;&gt;Escalate</title>
<path fill="none" stroke="#fb7185" stroke-width="1.3" stroke-dasharray="5,2" d="M659.44,-518.75C684.32,-518.75 716.66,-518.75 745.64,-518.75"/>
<polygon fill="#fb7185" stroke="#fb7185" stroke-width="1.3" points="745.36,-521.55 753.36,-518.75 745.36,-515.95 745.36,-521.55"/>
<text xml:space="preserve" text-anchor="middle" x="707.5" y="-523.7" font-family="sans-Serif" font-size="9.00" fill="#cbd5e1">turn_fails ≥ N</text>
</g>
<!-- Dispatch&#45;&gt;Result -->
<g id="edge8" class="edge">
<title>Dispatch&#45;&gt;Result</title>
<path fill="none" stroke="#a78bfa" stroke-width="1.3" d="M635.43,-543.47C658.86,-574.29 703.71,-625.43 756.5,-646 807.85,-666.01 829.83,-667.68 880.5,-646 928.25,-625.57 966.16,-576.15 986.25,-545.26"/>
<polygon fill="#a78bfa" stroke="#a78bfa" stroke-width="1.3" points="988.46,-547 990.38,-538.74 983.73,-544 988.46,-547"/>
</g>
<!-- Metrics -->
<g id="node10" class="node">
<title>Metrics</title>
<path fill="#6ee7b7" stroke="#334155" stroke-width="1.4" d="M949.75,-352.25C949.75,-352.25 842.25,-352.25 842.25,-352.25 836.25,-352.25 830.25,-346.25 830.25,-340.25 830.25,-340.25 830.25,-315.75 830.25,-315.75 830.25,-309.75 836.25,-303.75 842.25,-303.75 842.25,-303.75 949.75,-303.75 949.75,-303.75 955.75,-303.75 961.75,-309.75 961.75,-315.75 961.75,-315.75 961.75,-340.25 961.75,-340.25 961.75,-346.25 955.75,-352.25 949.75,-352.25"/>
<text xml:space="preserve" text-anchor="middle" x="896" y="-337.8" font-family="sans-Serif" font-size="11.00" fill="#0f172a">Metrics</text>
<text xml:space="preserve" text-anchor="middle" x="896" y="-324.3" font-family="sans-Serif" font-size="11.00" fill="#0f172a">per&#45;tool · PER&#45;ENGINE</text>
<text xml:space="preserve" text-anchor="middle" x="896" y="-310.8" font-family="sans-Serif" font-size="11.00" fill="#0f172a">success · avg ms</text>
</g>
<!-- Dispatch&#45;&gt;Metrics -->
<g id="edge10" class="edge">
<title>Dispatch&#45;&gt;Metrics</title>
<path fill="none" stroke="#34d399" stroke-width="1.3" d="M576.52,-506.39C532.57,-492.47 473.21,-467.06 502,-437.5 513.87,-425.32 792.61,-436.73 808,-429.5 838.48,-415.19 862.69,-384.79 877.94,-361.15"/>
<polygon fill="#34d399" stroke="#34d399" stroke-width="1.3" points="880.25,-362.73 882.1,-354.46 875.5,-359.77 880.25,-362.73"/>
<text xml:space="preserve" text-anchor="middle" x="533.5" y="-444.7" font-family="sans-Serif" font-size="9.00" fill="#cbd5e1">record(engine:)</text>
</g>
<!-- Dispatch&#45;&gt;Mistakes -->
<g id="edge12" class="edge">
<title>Dispatch&#45;&gt;Mistakes</title>
<path fill="none" stroke="#fb7185" stroke-width="2" d="M617.05,-494.02C617.73,-475.49 622.06,-450.73 638.75,-437.5 653.74,-425.61 965.3,-436.75 983,-429.5 1013.95,-416.83 1041.29,-390.74 1060.58,-368.31"/>
<polygon fill="#fb7185" stroke="#fb7185" stroke-width="2" points="1062.66,-370.2 1065.63,-362.26 1058.36,-366.61 1062.66,-370.2"/>
<text xml:space="preserve" text-anchor="middle" x="657.88" y="-449.95" font-family="sans-Serif" font-size="9.00" fill="#cbd5e1">on failure</text>
<text xml:space="preserve" text-anchor="middle" x="657.88" y="-439.45" font-family="sans-Serif" font-size="9.00" fill="#cbd5e1">record()</text>
</g>
<!-- Dispatch&#45;&gt;Snapshot -->
<g id="edge14" class="edge">
<title>Dispatch&#45;&gt;Snapshot</title>
<path fill="none" stroke="#f59e0b" stroke-width="1.3" d="M659.59,-504.84C681.77,-498.41 709.65,-491.06 735,-486.5 864.62,-463.2 903.58,-495.4 1030,-458.5 1049.65,-452.76 1051.27,-442.95 1071,-437.5 1123.38,-423.04 1140.3,-442.74 1193,-429.5 1249.41,-415.33 1309.22,-387.23 1352.37,-364.34"/>
<polygon fill="#f59e0b" stroke="#f59e0b" stroke-width="1.3" points="1353.59,-366.87 1359.31,-360.62 1350.94,-361.93 1353.59,-366.87"/>
<text xml:space="preserve" text-anchor="middle" x="1083" y="-444.7" font-family="sans-Serif" font-size="9.00" fill="#cbd5e1">probe</text>
</g>
<!-- Dispatch&#45;&gt;Observe -->
<g id="edge20" class="edge">
<title>Dispatch&#45;&gt;Observe</title>
<path fill="none" stroke="#f59e0b" stroke-width="1.3" stroke-dasharray="5,2" d="M659.43,-502.41C689.76,-490.94 731.77,-474.52 768,-458.5 787.36,-449.94 790.16,-442.41 810.75,-437.5 849.62,-428.24 1493.7,-446.21 1530,-429.5 1563.4,-414.13 1589.18,-379.25 1603.97,-354.93"/>
<polygon fill="#f59e0b" stroke="#f59e0b" stroke-width="1.3" points="1606.28,-356.51 1607.92,-348.19 1601.45,-353.68 1606.28,-356.51"/>
<text xml:space="preserve" text-anchor="middle" x="859.88" y="-449.95" font-family="sans-Serif" font-size="9.00" fill="#cbd5e1">sense tools</text>
<text xml:space="preserve" text-anchor="middle" x="859.88" y="-439.45" font-family="sans-Serif" font-size="9.00" fill="#cbd5e1">verify/watch/rf_tune/intel</text>
</g>
<!-- Plan -->
<g id="node7" class="node">
<title>Plan</title>
<path fill="#c4b5fd" stroke="#334155" stroke-width="1.4" d="M479.62,-536.75C479.62,-536.75 410.38,-536.75 410.38,-536.75 404.38,-536.75 398.38,-530.75 398.38,-524.75 398.38,-524.75 398.38,-512.75 398.38,-512.75 398.38,-506.75 404.38,-500.75 410.38,-500.75 410.38,-500.75 479.62,-500.75 479.62,-500.75 485.62,-500.75 491.62,-506.75 491.62,-512.75 491.62,-512.75 491.62,-524.75 491.62,-524.75 491.62,-530.75 485.62,-536.75 479.62,-536.75"/>
<text xml:space="preserve" text-anchor="middle" x="445" y="-521.8" font-family="sans-Serif" font-size="11.00" fill="#0f172a">plan_first</text>
<text xml:space="preserve" text-anchor="middle" x="445" y="-508.3" font-family="sans-Serif" font-size="11.00" fill="#0f172a">(pre&#45;pass, local)</text>
</g>
<!-- Router&#45;&gt;Plan -->
<g id="edge5" class="edge">
<title>Router&#45;&gt;Plan</title>
<path fill="none" stroke="#a78bfa" stroke-width="1.3" d="M313,-518.75C337.96,-518.75 362.92,-518.75 387.88,-518.75"/>
<polygon fill="#a78bfa" stroke="#a78bfa" stroke-width="1.3" points="387.85,-521.55 395.85,-518.75 387.85,-515.95 387.85,-521.55"/>
</g>
<!-- Plan&#45;&gt;Dispatch -->
<g id="edge6" class="edge">
<title>Plan&#45;&gt;Dispatch</title>
<path fill="none" stroke="#a78bfa" stroke-width="1.3" d="M492.3,-518.75C517.16,-518.75 542.01,-518.75 566.86,-518.75"/>
<polygon fill="#a78bfa" stroke="#a78bfa" stroke-width="1.3" points="566.79,-521.55 574.79,-518.75 566.79,-515.95 566.79,-521.55"/>
</g>
<!-- Escalate&#45;&gt;LLM -->
<g id="edge55" class="edge">
<title>Escalate&#45;&gt;LLM</title>
<path fill="none" stroke="#a78bfa" stroke-width="2" stroke-dasharray="5,2" d="M800.44,-537.7C769.62,-569.18 705.77,-634.43 670.58,-670.38"/>
<polygon fill="#a78bfa" stroke="#a78bfa" stroke-width="2" points="668.83,-668.17 665.24,-675.84 672.83,-672.08 668.83,-668.17"/>
<text xml:space="preserve" text-anchor="middle" x="758.97" y="-633.95" font-family="sans-Serif" font-size="9.00" fill="#cbd5e1">Swarm.ask(persona)</text>
<text xml:space="preserve" text-anchor="middle" x="758.97" y="-623.45" font-family="sans-Serif" font-size="9.00" fill="#cbd5e1">frontier hint</text>
</g>
<!-- Escalate&#45;&gt;Result -->
<!-- Escalate&#45;&gt;Mistakes -->
<g id="edge56" class="edge">
<title>Escalate&#45;&gt;Mistakes</title>
<path fill="none" stroke="#fb7185" stroke-width="1.3" stroke-dasharray="5,2" d="M846.88,-499.81C880.49,-479.14 934.14,-446.8 955.75,-437.5 967.34,-432.51 972.05,-435.77 983,-429.5 1011.29,-413.31 1038.03,-388.2 1057.7,-367.14"/>
<polygon fill="#fb7185" stroke="#fb7185" stroke-width="1.3" points="1059.68,-369.12 1063.02,-361.33 1055.55,-365.33 1059.68,-369.12"/>
<text xml:space="preserve" text-anchor="middle" x="989.88" y="-449.95" font-family="sans-Serif" font-size="9.00" fill="#cbd5e1">record</text>
<text xml:space="preserve" text-anchor="middle" x="989.88" y="-439.45" font-family="sans-Serif" font-size="9.00" fill="#cbd5e1">(tool:&#39;escalation&#39;)</text>
</g>
<!-- Result&#45;&gt;User -->
<g id="edge58" class="edge">
<title>Result&#45;&gt;User</title>
<path fill="none" stroke="#38bdf8" stroke-width="2" d="M989.9,-537.28C973.17,-559.82 940.62,-597.91 902,-613.5 873.56,-624.98 380.37,-617.22 350,-621.5 273.97,-632.22 188.97,-657.59 134.55,-675.63"/>
<polygon fill="#38bdf8" stroke="#38bdf8" stroke-width="2" points="133.99,-672.87 127.29,-678.06 135.77,-678.18 133.99,-672.87"/>
<text xml:space="preserve" text-anchor="middle" x="365" y="-628.7" font-family="sans-Serif" font-size="9.00" fill="#cbd5e1">answer</text>
</g>
<!-- Learning -->
<g id="node11" class="node">
<title>Learning</title>
<path fill="#6ee7b7" stroke="#334155" stroke-width="1.4" d="M774.75,-359C774.75,-359 631.25,-359 631.25,-359 625.25,-359 619.25,-353 619.25,-347 619.25,-347 619.25,-309 619.25,-309 619.25,-303 625.25,-297 631.25,-297 631.25,-297 774.75,-297 774.75,-297 780.75,-297 786.75,-303 786.75,-309 786.75,-309 786.75,-347 786.75,-347 786.75,-353 780.75,-359 774.75,-359"/>
<text xml:space="preserve" text-anchor="middle" x="703" y="-344.55" font-family="sans-Serif" font-size="11.00" fill="#0f172a">Learning</text>
<text xml:space="preserve" text-anchor="middle" x="703" y="-331.05" font-family="sans-Serif" font-size="11.00" fill="#0f172a">note_outcome · reflect</text>
<text xml:space="preserve" text-anchor="middle" x="703" y="-317.55" font-family="sans-Serif" font-size="11.00" fill="#0f172a">exemplars_for · export_finetune</text>
<text xml:space="preserve" text-anchor="middle" x="703" y="-304.05" font-family="sans-Serif" font-size="11.00" fill="#0f172a">fact_check_local_final</text>
</g>
<!-- Result&#45;&gt;Learning -->
<g id="edge11" class="edge">
<title>Result&#45;&gt;Learning</title>
<path fill="none" stroke="#34d399" stroke-width="1.3" d="M964.88,-504.54C946.22,-498.31 923.12,-491.22 902,-486.5 857.56,-476.56 728.92,-492.83 699,-458.5 678.02,-434.43 681.54,-397.23 688.83,-368.87"/>
<polygon fill="#34d399" stroke="#34d399" stroke-width="1.3" points="691.43,-369.98 690.89,-361.52 686.04,-368.47 691.43,-369.98"/>
<text xml:space="preserve" text-anchor="middle" x="730.5" y="-444.7" font-family="sans-Serif" font-size="9.00" fill="#cbd5e1">auto_introspect</text>
</g>
<!-- Result&#45;&gt;Observe -->
<g id="edge15" class="edge">
<title>Result&#45;&gt;Observe</title>
<path fill="none" stroke="#f59e0b" stroke-width="1.3" d="M1031.36,-500.1C1069.25,-477.49 1131.75,-440.79 1143.75,-437.5 1185.14,-426.14 1491.09,-447.63 1530,-429.5 1563.32,-413.97 1589.12,-379.13 1603.94,-354.86"/>
<polygon fill="#f59e0b" stroke="#f59e0b" stroke-width="1.3" points="1606.24,-356.46 1607.89,-348.14 1601.42,-353.61 1606.24,-356.46"/>
<text xml:space="preserve" text-anchor="middle" x="1194.38" y="-449.95" font-family="sans-Serif" font-size="9.00" fill="#cbd5e1">auto_extrospect</text>
<text xml:space="preserve" text-anchor="middle" x="1194.38" y="-439.45" font-family="sans-Serif" font-size="9.00" fill="#cbd5e1">(AUTO_SECTIONS only)</text>
</g>
<!-- Result&#45;&gt;Verify -->
<g id="edge45" class="edge">
<title>Result&#45;&gt;Verify</title>
<path fill="none" stroke="#f59e0b" stroke-width="1.3" stroke-dasharray="5,2" d="M1039.22,-512.11C1088.72,-503.88 1178.44,-486.46 1251,-458.5 1269.1,-451.53 1270.51,-442.5 1289.25,-437.5 1311.62,-431.53 1685.18,-439.63 1706,-429.5 1735.09,-415.35 1757.35,-385.43 1771.29,-361.9"/>
<polygon fill="#f59e0b" stroke="#f59e0b" stroke-width="1.3" points="1773.72,-363.29 1775.25,-354.95 1768.85,-360.52 1773.72,-363.29"/>
<text xml:space="preserve" text-anchor="middle" x="1334.62" y="-449.95" font-family="sans-Serif" font-size="9.00" fill="#cbd5e1">fact_check_local_final</text>
<text xml:space="preserve" text-anchor="middle" x="1334.62" y="-439.45" font-family="sans-Serif" font-size="9.00" fill="#cbd5e1">(CVE / version claims)</text>
</g>
<!-- Correlate -->
<g id="node18" class="node">
<title>Correlate</title>
<path fill="#fda4af" stroke="#334155" stroke-width="2" d="M1372.88,-204C1372.88,-204 1173.12,-204 1173.12,-204 1167.12,-204 1161.12,-198 1161.12,-192 1161.12,-192 1161.12,-179.5 1161.12,-179.5 1161.12,-173.5 1167.12,-167.5 1173.12,-167.5 1173.12,-167.5 1372.88,-167.5 1372.88,-167.5 1378.88,-167.5 1384.88,-173.5 1384.88,-179.5 1384.88,-179.5 1384.88,-192 1384.88,-192 1384.88,-198 1378.88,-204 1372.88,-204"/>
<text xml:space="preserve" text-anchor="middle" x="1273" y="-188.6" font-family="sans-Serif" font-size="12.00" fill="#0f172a">extro_correlate()</text>
<text xml:space="preserve" text-anchor="middle" x="1273" y="-174.35" font-family="sans-Serif" font-size="12.00" fill="#0f172a">&quot;I did it wrong&quot; &#160;vs &#160;&quot;the world changed&quot;</text>
</g>
<!-- Metrics&#45;&gt;Correlate -->
<g id="edge21" class="edge">
<title>Metrics&#45;&gt;Correlate</title>
<path fill="none" stroke="#34d399" stroke-width="1.3" d="M949.11,-303.07C960.25,-298.26 971.96,-293.35 983,-289 1059.61,-258.81 1149.18,-227.88 1208.29,-208.06"/>
<polygon fill="#34d399" stroke="#34d399" stroke-width="1.3" points="1208.94,-210.8 1215.64,-205.6 1207.16,-205.48 1208.94,-210.8"/>
</g>
<!-- Fmet -->
<g id="node19" class="node">
<title>Fmet</title>
<path fill="#fcd34d" stroke="#334155" stroke-width="1.4" d="M1271.5,-48.73C1271.5,-50.53 1255.14,-52 1235,-52 1214.86,-52 1198.5,-50.53 1198.5,-48.73 1198.5,-48.73 1198.5,-19.27 1198.5,-19.27 1198.5,-17.47 1214.86,-16 1235,-16 1255.14,-16 1271.5,-17.47 1271.5,-19.27 1271.5,-19.27 1271.5,-48.73 1271.5,-48.73"/>
<path fill="none" stroke="#334155" stroke-width="1.4" d="M1271.5,-48.73C1271.5,-46.92 1255.14,-45.45 1235,-45.45 1214.86,-45.45 1198.5,-46.92 1198.5,-48.73"/>
<text xml:space="preserve" text-anchor="middle" x="1235" y="-30.3" font-family="sans-Serif" font-size="11.00" fill="#0f172a">metrics.json</text>
</g>
<!-- Metrics&#45;&gt;Fmet -->
<g id="edge29" class="edge">
<title>Metrics&#45;&gt;Fmet</title>
<path fill="none" stroke="#94a3b8" stroke-width="1.3" d="M938.41,-303.16C997.01,-268.75 1103.79,-200.67 1177,-122.5 1194.45,-103.87 1210.17,-79.43 1220.83,-61.11"/>
<polygon fill="#94a3b8" stroke="#94a3b8" stroke-width="1.3" points="1223.14,-62.71 1224.66,-54.38 1218.27,-59.94 1223.14,-62.71"/>
</g>
<!-- ReflectT -->
<g id="node13" class="node">
<title>ReflectT</title>
<path fill="#6ee7b7" stroke="#334155" stroke-width="2" d="M521.5,-352.25C521.5,-352.25 454.5,-352.25 454.5,-352.25 448.5,-352.25 442.5,-346.25 442.5,-340.25 442.5,-340.25 442.5,-315.75 442.5,-315.75 442.5,-309.75 448.5,-303.75 454.5,-303.75 454.5,-303.75 521.5,-303.75 521.5,-303.75 527.5,-303.75 533.5,-309.75 533.5,-315.75 533.5,-315.75 533.5,-340.25 533.5,-340.25 533.5,-346.25 527.5,-352.25 521.5,-352.25"/>
<text xml:space="preserve" text-anchor="middle" x="488" y="-337.8" font-family="sans-Serif" font-size="11.00" fill="#0f172a">Reflect</text>
<text xml:space="preserve" text-anchor="middle" x="488" y="-324.3" font-family="sans-Serif" font-size="11.00" fill="#0f172a">teacher&#45;student</text>
<text xml:space="preserve" text-anchor="middle" x="488" y="-310.8" font-family="sans-Serif" font-size="11.00" fill="#0f172a">(reflect_engine)</text>
</g>
<!-- Learning&#45;&gt;ReflectT -->
<g id="edge42" class="edge">
<title>Learning&#45;&gt;ReflectT</title>
<path fill="none" stroke="#34d399" stroke-width="1.3" d="M618.98,-328C593.91,-328 567.06,-328 544.24,-328"/>
<polygon fill="#34d399" stroke="#34d399" stroke-width="1.3" points="544.35,-325.2 536.35,-328 544.35,-330.8 544.35,-325.2"/>
<text xml:space="preserve" text-anchor="middle" x="576.38" y="-332.95" font-family="sans-Serif" font-size="9.00" fill="#cbd5e1">reflect()</text>
</g>
<!-- Learning&#45;&gt;Correlate -->
<g id="edge22" class="edge">
<title>Learning&#45;&gt;Correlate</title>
<path fill="none" stroke="#34d399" stroke-width="1.3" d="M785.42,-296.31C793.34,-293.7 801.3,-291.22 809,-289 928.74,-254.5 1068.73,-225.11 1163.38,-206.81"/>
<polygon fill="#34d399" stroke="#34d399" stroke-width="1.3" points="1163.71,-209.6 1171.04,-205.34 1162.65,-204.1 1163.71,-209.6"/>
</g>
<!-- Flrn -->
<g id="node20" class="node">
<title>Flrn</title>
<path fill="#fcd34d" stroke="#334155" stroke-width="1.4" d="M683.5,-48.73C683.5,-50.53 665.8,-52 644,-52 622.2,-52 604.5,-50.53 604.5,-48.73 604.5,-48.73 604.5,-19.27 604.5,-19.27 604.5,-17.47 622.2,-16 644,-16 665.8,-16 683.5,-17.47 683.5,-19.27 683.5,-19.27 683.5,-48.73 683.5,-48.73"/>
<path fill="none" stroke="#334155" stroke-width="1.4" d="M683.5,-48.73C683.5,-46.92 665.8,-45.45 644,-45.45 622.2,-45.45 604.5,-46.92 604.5,-48.73"/>
<text xml:space="preserve" text-anchor="middle" x="644" y="-30.3" font-family="sans-Serif" font-size="11.00" fill="#0f172a">learning.jsonl</text>
</g>
<!-- Learning&#45;&gt;Flrn -->
<g id="edge30" class="edge">
<title>Learning&#45;&gt;Flrn</title>
<path fill="none" stroke="#94a3b8" stroke-width="1.3" d="M658.54,-296.57C646.92,-286.54 635.55,-274.46 628,-261 592.12,-197.06 616.97,-106.41 633.14,-61.85"/>
<polygon fill="#94a3b8" stroke="#94a3b8" stroke-width="1.3" points="635.74,-62.88 635.94,-54.41 630.5,-60.91 635.74,-62.88"/>
</g>
<!-- Fmem -->
<g id="node22" class="node">
<title>Fmem</title>
<path fill="#fcd34d" stroke="#334155" stroke-width="1.4" d="M1040.75,-48.73C1040.75,-50.53 1023.38,-52 1002,-52 980.62,-52 963.25,-50.53 963.25,-48.73 963.25,-48.73 963.25,-19.27 963.25,-19.27 963.25,-17.47 980.62,-16 1002,-16 1023.38,-16 1040.75,-17.47 1040.75,-19.27 1040.75,-19.27 1040.75,-48.73 1040.75,-48.73"/>
<path fill="none" stroke="#334155" stroke-width="1.4" d="M1040.75,-48.73C1040.75,-46.92 1023.38,-45.45 1002,-45.45 980.62,-45.45 963.25,-46.92 963.25,-48.73"/>
<text xml:space="preserve" text-anchor="middle" x="1002" y="-30.3" font-family="sans-Serif" font-size="11.00" fill="#0f172a">memory.json</text>
</g>
<!-- Learning&#45;&gt;Fmem -->
<g id="edge33" class="edge">
<title>Learning&#45;&gt;Fmem</title>
<path fill="none" stroke="#94a3b8" stroke-width="1.3" d="M745.23,-296.32C795.42,-258.68 880.13,-191.35 942,-122.5 959.25,-103.31 975.58,-78.92 986.84,-60.77"/>
<polygon fill="#94a3b8" stroke="#94a3b8" stroke-width="1.3" points="989.14,-62.38 990.92,-54.09 984.36,-59.46 989.14,-62.38"/>
<text xml:space="preserve" text-anchor="middle" x="910.6" y="-182.45" font-family="sans-Serif" font-size="9.00" fill="#cbd5e1">lesson</text>
</g>
<!-- Fskl -->
<g id="node24" class="node">
<title>Fskl</title>
<path fill="#fcd34d" stroke="#334155" stroke-width="1.4" d="M791,-48.73C791,-50.53 776.66,-52 759,-52 741.34,-52 727,-50.53 727,-48.73 727,-48.73 727,-19.27 727,-19.27 727,-17.47 741.34,-16 759,-16 776.66,-16 791,-17.47 791,-19.27 791,-19.27 791,-48.73 791,-48.73"/>
<path fill="none" stroke="#334155" stroke-width="1.4" d="M791,-48.73C791,-46.92 776.66,-45.45 759,-45.45 741.34,-45.45 727,-46.92 727,-48.73"/>
<text xml:space="preserve" text-anchor="middle" x="759" y="-30.3" font-family="sans-Serif" font-size="11.00" fill="#0f172a">skills/*.md</text>
</g>
<!-- Learning&#45;&gt;Fskl -->
<g id="edge34" class="edge">
<title>Learning&#45;&gt;Fskl</title>
<path fill="none" stroke="#94a3b8" stroke-width="1.3" d="M674.15,-296.59C647.48,-264.61 614.59,-212.77 633.25,-167.5 642.08,-146.07 649.74,-141.75 670,-130.5 683.95,-122.76 692.03,-131.79 705,-122.5 726.08,-107.41 740.62,-81.28 749.26,-61.49"/>
<polygon fill="#94a3b8" stroke="#94a3b8" stroke-width="1.3" points="751.81,-62.65 752.28,-54.18 746.64,-60.51 751.81,-62.65"/>
<text xml:space="preserve" text-anchor="middle" x="641.12" y="-182.45" font-family="sans-Serif" font-size="9.00" fill="#cbd5e1">skill</text>
</g>
<!-- Fftn -->
<g id="node26" class="node">
<title>Fftn</title>
<path fill="#fcd34d" stroke="#334155" stroke-width="1.4" d="M920.25,-48.73C920.25,-50.53 900.86,-52 877,-52 853.14,-52 833.75,-50.53 833.75,-48.73 833.75,-48.73 833.75,-19.27 833.75,-19.27 833.75,-17.47 853.14,-16 877,-16 900.86,-16 920.25,-17.47 920.25,-19.27 920.25,-19.27 920.25,-48.73 920.25,-48.73"/>
<path fill="none" stroke="#334155" stroke-width="1.4" d="M920.25,-48.73C920.25,-46.92 900.86,-45.45 877,-45.45 853.14,-45.45 833.75,-46.92 833.75,-48.73"/>
<text xml:space="preserve" text-anchor="middle" x="877" y="-30.3" font-family="sans-Serif" font-size="11.00" fill="#0f172a">finetune/*.jsonl</text>
</g>
<!-- Learning&#45;&gt;Fftn -->
<g id="edge41" class="edge">
<title>Learning&#45;&gt;Fftn</title>
<path fill="none" stroke="#94a3b8" stroke-width="1.3" d="M702,-296.47C702.39,-262.02 707.73,-205.82 735.25,-167.5 758.54,-135.07 783.3,-149.18 813,-122.5 832.94,-104.58 850.51,-79.51 862.16,-60.8"/>
<polygon fill="#94a3b8" stroke="#94a3b8" stroke-width="1.3" points="864.46,-62.41 866.22,-54.12 859.68,-59.5 864.46,-62.41"/>
<text xml:space="preserve" text-anchor="middle" x="767.12" y="-182.45" font-family="sans-Serif" font-size="9.00" fill="#cbd5e1">export_finetune</text>
</g>
<!-- Mistakes&#45;&gt;Dispatch -->
<g id="edge50" class="edge">
<title>Mistakes&#45;&gt;Dispatch</title>
<path fill="none" stroke="#fb7185" stroke-width="2" stroke-dasharray="5,2" d="M1141.32,-359.82C1182.85,-383.17 1243.67,-413.81 1301,-429.5 1320.15,-434.74 1376.6,-422.84 1390,-437.5 1396.3,-444.39 1396.46,-451.76 1390,-458.5 1364.8,-484.8 771,-480.99 735,-486.5 713.42,-489.8 690.1,-495.57 670,-501.25"/>
<polygon fill="#fb7185" stroke="#fb7185" stroke-width="2" points="669.31,-498.54 662.41,-503.45 670.87,-503.92 669.31,-498.54"/>
<text xml:space="preserve" text-anchor="middle" x="1427.41" y="-449.95" font-family="sans-Serif" font-size="9.00" fill="#cbd5e1">correction_hint</text>
<text xml:space="preserve" text-anchor="middle" x="1427.41" y="-439.45" font-family="sans-Serif" font-size="9.00" fill="#cbd5e1">(inline, next iter)</text>
</g>
<!-- Mistakes&#45;&gt;Correlate -->
<g id="edge23" class="edge">
<title>Mistakes&#45;&gt;Correlate</title>
<path fill="none" stroke="#34d399" stroke-width="1.3" d="M1130.16,-296.22C1163.67,-270.54 1210.77,-234.44 1241.58,-210.83"/>
<polygon fill="#34d399" stroke="#34d399" stroke-width="1.3" points="1243.22,-213.1 1247.87,-206.01 1239.82,-208.65 1243.22,-213.1"/>
</g>
<!-- Fmis -->
<g id="node21" class="node">
<title>Fmis</title>
<path fill="#fcd34d" stroke="#334155" stroke-width="1.4" d="M1395.25,-48.73C1395.25,-50.53 1377.21,-52 1355,-52 1332.79,-52 1314.75,-50.53 1314.75,-48.73 1314.75,-48.73 1314.75,-19.27 1314.75,-19.27 1314.75,-17.47 1332.79,-16 1355,-16 1377.21,-16 1395.25,-17.47 1395.25,-19.27 1395.25,-19.27 1395.25,-48.73 1395.25,-48.73"/>
<path fill="none" stroke="#334155" stroke-width="1.4" d="M1395.25,-48.73C1395.25,-46.92 1377.21,-45.45 1355,-45.45 1332.79,-45.45 1314.75,-46.92 1314.75,-48.73"/>
<text xml:space="preserve" text-anchor="middle" x="1355" y="-30.3" font-family="sans-Serif" font-size="11.00" fill="#0f172a">mistakes.json</text>
</g>
<!-- Mistakes&#45;&gt;Fmis -->
<g id="edge31" class="edge">
<title>Mistakes&#45;&gt;Fmis</title>
<path fill="none" stroke="#94a3b8" stroke-width="1.3" d="M1176.15,-319.62C1250.87,-308.15 1354.82,-278.84 1406,-204 1436.67,-159.15 1400.4,-95.37 1375.2,-60.39"/>
<polygon fill="#94a3b8" stroke="#94a3b8" stroke-width="1.3" points="1377.58,-58.89 1370.56,-54.13 1373.08,-62.23 1377.58,-58.89"/>
</g>
<!-- Mistakes&#45;&gt;Fmem -->
<g id="edge32" class="edge">
<title>Mistakes&#45;&gt;Fmem</title>
<path fill="none" stroke="#94a3b8" stroke-width="1.3" d="M1080.67,-296.03C1063.34,-238.55 1026.5,-116.28 1010.13,-61.97"/>
<polygon fill="#94a3b8" stroke="#94a3b8" stroke-width="1.3" points="1012.88,-61.38 1007.89,-54.53 1007.51,-63 1012.88,-61.38"/>
<text xml:space="preserve" text-anchor="middle" x="1085.58" y="-182.45" font-family="sans-Serif" font-size="9.00" fill="#cbd5e1">resolve→lesson</text>
</g>
<!-- ReflectT&#45;&gt;LLM -->
<g id="edge44" class="edge">
<title>ReflectT&#45;&gt;LLM</title>
<path fill="none" stroke="#a78bfa" stroke-width="1.3" stroke-dasharray="5,2" d="M505.46,-353.06C524.89,-377.57 558.75,-414.1 598,-429.5 626.34,-440.62 1663.57,-436.57 1694,-437.5 1795.43,-440.59 2536.19,-412.84 2606,-486.5 2644.83,-527.47 2645.3,-572.99 2606,-613.5 2600.89,-618.77 2349.33,-621.23 2342,-621.5 1701.68,-645.17 925.74,-682.01 706.35,-692.58"/>
<polygon fill="#a78bfa" stroke="#a78bfa" stroke-width="1.3" points="706.45,-689.77 698.6,-692.95 706.72,-695.36 706.45,-689.77"/>
<text xml:space="preserve" text-anchor="middle" x="2681.42" y="-515.45" font-family="sans-Serif" font-size="9.00" fill="#cbd5e1">reflect_engine ≠ active</text>
</g>
<!-- ReflectT&#45;&gt;Fmem -->
<g id="edge43" class="edge">
<title>ReflectT&#45;&gt;Fmem</title>
<path fill="none" stroke="#94a3b8" stroke-width="1.3" d="M491.07,-302.93C497.04,-267.04 513.75,-200.23 558,-167.5 592.54,-141.95 905.22,-144.7 942,-122.5 965.14,-108.53 981.47,-81.82 991.19,-61.57"/>
<polygon fill="#94a3b8" stroke="#94a3b8" stroke-width="1.3" points="993.73,-62.74 994.5,-54.3 988.63,-60.42 993.73,-62.74"/>
<text xml:space="preserve" text-anchor="middle" x="588" y="-182.45" font-family="sans-Serif" font-size="9.00" fill="#cbd5e1">frontier :lesson</text>
</g>
<!-- Snapshot&#45;&gt;Correlate -->
<g id="edge24" class="edge">
<title>Snapshot&#45;&gt;Correlate</title>
<path fill="none" stroke="#f59e0b" stroke-width="1.3" d="M1383.41,-296.57C1357.86,-271.16 1321.9,-235.39 1298.04,-211.66"/>
<polygon fill="#f59e0b" stroke="#f59e0b" stroke-width="1.3" points="1300.09,-209.75 1292.45,-206.09 1296.14,-213.72 1300.09,-209.75"/>
</g>
<!-- Observe&#45;&gt;Correlate -->
<g id="edge25" class="edge">
<title>Observe&#45;&gt;Correlate</title>
<path fill="none" stroke="#f59e0b" stroke-width="1.3" d="M1577.8,-309.35C1562.83,-302.86 1545.68,-295.5 1530,-289 1460.96,-260.37 1380.86,-228.75 1328.68,-208.37"/>
<polygon fill="#f59e0b" stroke="#f59e0b" stroke-width="1.3" points="1329.89,-205.83 1321.42,-205.53 1327.86,-211.05 1329.89,-205.83"/>
</g>
<!-- Fext -->
<g id="node25" class="node">
<title>Fext</title>
<path fill="#fcd34d" stroke="#334155" stroke-width="1.4" d="M1540.12,-48.73C1540.12,-50.53 1517.21,-52 1489,-52 1460.79,-52 1437.88,-50.53 1437.88,-48.73 1437.88,-48.73 1437.88,-19.27 1437.88,-19.27 1437.88,-17.47 1460.79,-16 1489,-16 1517.21,-16 1540.12,-17.47 1540.12,-19.27 1540.12,-19.27 1540.12,-48.73 1540.12,-48.73"/>
<path fill="none" stroke="#334155" stroke-width="1.4" d="M1540.12,-48.73C1540.12,-46.92 1517.21,-45.45 1489,-45.45 1460.79,-45.45 1437.88,-46.92 1437.88,-48.73"/>
<text xml:space="preserve" text-anchor="middle" x="1489" y="-30.3" font-family="sans-Serif" font-size="11.00" fill="#0f172a">extrospection.json</text>
</g>
<!-- Observe&#45;&gt;Fext -->
<g id="edge35" class="edge">
<title>Observe&#45;&gt;Fext</title>
<path fill="none" stroke="#94a3b8" stroke-width="1.3" d="M1610.32,-309.61C1588.63,-260.53 1526.86,-120.69 1500.81,-61.73"/>
<polygon fill="#94a3b8" stroke="#94a3b8" stroke-width="1.3" points="1503.4,-60.66 1497.6,-54.47 1498.27,-62.92 1503.4,-60.66"/>
</g>
<!-- Verify&#45;&gt;Mistakes -->
<g id="edge38" class="edge">
<title>Verify&#45;&gt;Mistakes</title>
<path fill="none" stroke="#fb7185" stroke-width="1.3" stroke-dasharray="5,2" d="M1774.64,-353.2C1760.88,-376.17 1737.08,-408.62 1706,-422.83 1624.15,-460.26 1389,-441.7 1301,-422.83 1248.5,-411.58 1193.29,-386.21 1152.52,-364.55"/>
<polygon fill="#fb7185" stroke="#fb7185" stroke-width="1.3" points="1153.89,-362.11 1145.52,-360.78 1151.23,-367.04 1153.89,-362.11"/>
<text xml:space="preserve" text-anchor="middle" x="1669" y="-444.7" font-family="sans-Serif" font-size="9.00" fill="#cbd5e1">:refuted</text>
</g>
<!-- Verify&#45;&gt;Correlate -->
<g id="edge26" class="edge">
<title>Verify&#45;&gt;Correlate</title>
<path fill="none" stroke="#f59e0b" stroke-width="1.3" d="M1740.11,-302.84C1729.08,-297.83 1717.27,-292.9 1706,-289 1599.47,-252.16 1473.69,-224.1 1385.22,-206.77"/>
<polygon fill="#f59e0b" stroke="#f59e0b" stroke-width="1.3" points="1386.02,-204.08 1377.63,-205.3 1384.95,-209.57 1386.02,-204.08"/>
</g>
<!-- Verify&#45;&gt;Fmis -->
<g id="edge37" class="edge">
<title>Verify&#45;&gt;Fmis</title>
<path fill="none" stroke="#fb7185" stroke-width="2" d="M1783.84,-302.76C1776.41,-267.28 1757.38,-201.72 1714,-167.5 1648.85,-116.1 1613.23,-141.63 1531,-130.5 1505.61,-127.07 1438.29,-135.13 1416,-122.5 1392.54,-109.2 1376.03,-82.72 1366.16,-62.36"/>
<polygon fill="#fb7185" stroke="#fb7185" stroke-width="2" points="1368.73,-61.24 1362.86,-55.12 1363.63,-63.56 1368.73,-61.24"/>
<text xml:space="preserve" text-anchor="middle" x="1785.76" y="-187.7" font-family="sans-Serif" font-size="9.00" fill="#cbd5e1">:refuted →</text>
<text xml:space="preserve" text-anchor="middle" x="1785.76" y="-177.2" font-family="sans-Serif" font-size="9.00" fill="#cbd5e1">assumption mistake</text>
</g>
<!-- Verify&#45;&gt;Fmem -->
<g id="edge39" class="edge">
<title>Verify&#45;&gt;Fmem</title>
<path fill="none" stroke="#a78bfa" stroke-width="1.3" stroke-dasharray="5,2" d="M1741.91,-302.87C1706.13,-284.56 1655.03,-259.34 1609,-240 1520.67,-202.89 1499.13,-189.97 1406,-167.5 1256.54,-131.44 1194.38,-202.37 1063,-122.5 1039.67,-108.32 1022.98,-81.45 1013.02,-61.22"/>
<polygon fill="#a78bfa" stroke="#a78bfa" stroke-width="1.3" points="1015.68,-60.29 1009.75,-54.24 1010.61,-62.67 1015.68,-60.29"/>
<text xml:space="preserve" text-anchor="middle" x="1552.99" y="-187.7" font-family="sans-Serif" font-size="9.00" fill="#cbd5e1">mark stale</text>
<text xml:space="preserve" text-anchor="middle" x="1552.99" y="-177.2" font-family="sans-Serif" font-size="9.00" fill="#cbd5e1">[UNVERIFIED]</text>
</g>
<!-- Verify&#45;&gt;Fext -->
<g id="edge40" class="edge">
<title>Verify&#45;&gt;Fext</title>
<path fill="none" stroke="#94a3b8" stroke-width="1.3" d="M1819.45,-302.87C1855.94,-271.8 1907.85,-216.02 1881,-167.5 1848.28,-108.36 1651.85,-64.57 1550.07,-45.52"/>
<polygon fill="#94a3b8" stroke="#94a3b8" stroke-width="1.3" points="1550.83,-42.81 1542.46,-44.11 1549.82,-48.32 1550.83,-42.81"/>
<text xml:space="preserve" text-anchor="middle" x="1909.79" y="-187.7" font-family="sans-Serif" font-size="9.00" fill="#cbd5e1">:confirmed</text>
<text xml:space="preserve" text-anchor="middle" x="1909.79" y="-177.2" font-family="sans-Serif" font-size="9.00" fill="#cbd5e1">:intel obs</text>
</g>
<!-- RFTune&#45;&gt;Correlate -->
<g id="edge27" class="edge">
<title>RFTune&#45;&gt;Correlate</title>
<path fill="none" stroke="#f59e0b" stroke-width="1.3" d="M1904.3,-302.81C1893.29,-297.69 1881.41,-292.71 1870,-289 1710.45,-237.1 1517.88,-210.17 1395.42,-197.25"/>
<polygon fill="#f59e0b" stroke="#f59e0b" stroke-width="1.3" points="1395.83,-194.48 1387.59,-196.44 1395.25,-200.05 1395.83,-194.48"/>
</g>
<!-- RFTune&#45;&gt;Fext -->
<g id="edge36" class="edge">
<title>RFTune&#45;&gt;Fext</title>
<path fill="none" stroke="#94a3b8" stroke-width="1.3" d="M1955.48,-302.89C1961.63,-269.59 1967.58,-208.93 1941,-167.5 1898.41,-101.13 1663.42,-59.55 1550.12,-43.09"/>
<polygon fill="#94a3b8" stroke="#94a3b8" stroke-width="1.3" points="1550.8,-40.36 1542.48,-41.99 1550,-45.9 1550.8,-40.36"/>
<text xml:space="preserve" text-anchor="middle" x="1970.49" y="-187.7" font-family="sans-Serif" font-size="9.00" fill="#cbd5e1">:rf obs</text>
<text xml:space="preserve" text-anchor="middle" x="1970.49" y="-177.2" font-family="sans-Serif" font-size="9.00" fill="#cbd5e1">ttl 300s</text>
</g>
<!-- Correlate&#45;&gt;Prompt -->
<g id="edge51" class="edge">
<title>Correlate&#45;&gt;Prompt</title>
<path fill="none" stroke="#fb7185" stroke-width="2" stroke-dasharray="5,2" d="M1385.59,-202.72C1389.1,-203.16 1392.57,-203.59 1396,-204 1430.03,-208.08 1988.52,-242.87 2027,-289 2067,-336.95 2070.78,-384.97 2027,-429.5 2017.81,-438.85 1568,-435.81 1555,-437.5 1516.41,-442.53 1508.57,-453.37 1470,-458.5 912.1,-532.66 761.86,-412.08 204,-486.5 186.61,-488.82 168.15,-492.62 150.87,-496.78"/>
<polygon fill="#fb7185" stroke="#fb7185" stroke-width="2" points="150.31,-494.03 143.22,-498.68 151.66,-499.47 150.31,-494.03"/>
<text xml:space="preserve" text-anchor="middle" x="2097.81" y="-324.7" font-family="sans-Serif" font-size="9.00" fill="#cbd5e1">findings → next run</text>
</g>
<!-- Correlate&#45;&gt;Fmet -->
<!-- Fmet&#45;&gt;Router -->
<g id="edge54" class="edge">
<title>Fmet&#45;&gt;Router</title>
<path fill="none" stroke="#fbbf24" stroke-width="1.3" stroke-dasharray="5,2" d="M1241.02,-52.37C1249.21,-73.09 1266.03,-106.89 1293,-122.5 1428.29,-200.81 1849.21,-111.09 1995,-167.5 2120.55,-216.08 2241.49,-333.61 2147,-429.5 2136.41,-440.24 1618.85,-434.82 1604,-437.5 1576.61,-442.44 1572.37,-453.44 1545,-458.5 1289.7,-505.74 633.6,-446.98 377,-486.5 358.93,-489.28 339.63,-494.21 322.41,-499.34"/>
<polygon fill="#fbbf24" stroke="#fbbf24" stroke-width="1.3" points="321.79,-496.61 314.97,-501.63 323.44,-501.96 321.79,-496.61"/>
<text xml:space="preserve" text-anchor="middle" x="2162.91" y="-252.45" font-family="sans-Serif" font-size="9.00" fill="#cbd5e1">success_rate</text>
<text xml:space="preserve" text-anchor="middle" x="2162.91" y="-241.95" font-family="sans-Serif" font-size="9.00" fill="#cbd5e1">→ tie&#45;break</text>
</g>
<!-- Flrn&#45;&gt;Plan -->
<g id="edge53" class="edge">
<title>Flrn&#45;&gt;Plan</title>
<path fill="none" stroke="#fbbf24" stroke-width="1.3" stroke-dasharray="5,2" d="M650.7,-52.54C659.73,-73.42 677.98,-107.39 706,-122.5 832.13,-190.53 1853.12,-147.28 1995,-167.5 2124.82,-186 2200.47,-136.51 2281,-240 2332.76,-306.51 2334.44,-370.76 2274,-429.5 2261.63,-441.52 1669.91,-434.1 1653,-437.5 1628.56,-442.41 1625.4,-453.42 1601,-458.5 1373.57,-505.86 785.68,-451.65 556,-486.5 538.05,-489.22 518.88,-493.94 501.62,-498.9"/>
<polygon fill="#fbbf24" stroke="#fbbf24" stroke-width="1.3" points="501.01,-496.16 494.13,-501.11 502.59,-501.53 501.01,-496.16"/>
<text xml:space="preserve" text-anchor="middle" x="2327.26" y="-252.45" font-family="sans-Serif" font-size="9.00" fill="#cbd5e1">exemplars_for</text>
<text xml:space="preserve" text-anchor="middle" x="2327.26" y="-241.95" font-family="sans-Serif" font-size="9.00" fill="#cbd5e1">(few&#45;shot, local)</text>
</g>
<!-- Fmis&#45;&gt;Prompt -->
<g id="edge48" class="edge">
<title>Fmis&#45;&gt;Prompt</title>
<path fill="none" stroke="#fb7185" stroke-width="2" stroke-dasharray="5,2" d="M1361.58,-52.41C1370.45,-73.17 1388.39,-107 1416,-122.5 1558.89,-202.71 1991.12,-136.38 2152,-167.5 2479.83,-230.91 2427.35,-145.8 2370,-261 2314.64,-372.21 2263.46,-386.26 2147,-429.5 2141.09,-431.69 1700.3,-458.24 1694,-458.5 1363.11,-472.19 532.33,-443.26 204,-486.5 186.61,-488.79 168.14,-492.58 150.86,-496.74"/>
<polygon fill="#fb7185" stroke="#fb7185" stroke-width="2" points="150.3,-493.99 143.22,-498.64 151.65,-499.43 150.3,-493.99"/>
<text xml:space="preserve" text-anchor="middle" x="2421.32" y="-252.45" font-family="sans-Serif" font-size="9.00" fill="#cbd5e1">KNOWN MISTAKES</text>
<text xml:space="preserve" text-anchor="middle" x="2421.32" y="-241.95" font-family="sans-Serif" font-size="9.00" fill="#cbd5e1">+ KNOWN FIXES</text>
</g>
<!-- Fmem&#45;&gt;Prompt -->
<g id="edge46" class="edge">
<title>Fmem&#45;&gt;Prompt</title>
<path fill="none" stroke="#fbbf24" stroke-width="1.3" stroke-dasharray="5,2" d="M1008.53,-52.5C1017.35,-73.35 1035.24,-107.27 1063,-122.5 1169.18,-180.73 2031.72,-153.38 2152,-167.5 2373.78,-193.54 2564.28,-71.45 2524,-261 2506.96,-341.18 2516.35,-382.78 2449,-429.5 2437.02,-437.81 2332.55,-436.48 2318,-437.5 2199.7,-445.78 2170.46,-452.93 2052,-458.5 1641.74,-477.78 611.29,-433.61 204,-486.5 186.27,-488.8 167.44,-492.68 149.88,-496.93"/>
<polygon fill="#fbbf24" stroke="#fbbf24" stroke-width="1.3" points="149.27,-494.2 142.18,-498.85 150.62,-499.63 149.27,-494.2"/>
<text xml:space="preserve" text-anchor="middle" x="2559.88" y="-247.2" font-family="sans-Serif" font-size="9.00" fill="#cbd5e1">MEMORY block</text>
</g>
<!-- Fidx -->
<g id="node23" class="node">
<title>Fidx</title>
<path fill="#fcd34d" stroke="#334155" stroke-width="1.4" d="M1155.75,-48.73C1155.75,-50.53 1139.73,-52 1120,-52 1100.27,-52 1084.25,-50.53 1084.25,-48.73 1084.25,-48.73 1084.25,-19.27 1084.25,-19.27 1084.25,-17.47 1100.27,-16 1120,-16 1139.73,-16 1155.75,-17.47 1155.75,-19.27 1155.75,-19.27 1155.75,-48.73 1155.75,-48.73"/>
<path fill="none" stroke="#334155" stroke-width="1.4" d="M1155.75,-48.73C1155.75,-46.92 1139.73,-45.45 1120,-45.45 1100.27,-45.45 1084.25,-46.92 1084.25,-48.73"/>
<text xml:space="preserve" text-anchor="middle" x="1120" y="-30.3" font-family="sans-Serif" font-size="11.00" fill="#0f172a">memory.idx</text>
</g>
<!-- Fidx&#45;&gt;Prompt -->
<g id="edge52" class="edge">
<title>Fidx&#45;&gt;Prompt</title>
<path fill="none" stroke="#fbbf24" stroke-width="2" stroke-dasharray="5,2" d="M1125.76,-52.48C1133.66,-73.31 1150.03,-107.22 1177,-122.5 1292.6,-188.01 2241.08,-144.82 2372,-167.5 2404.41,-173.11 2632.3,-134.97 2602,-261 2582.34,-342.75 2586.42,-383.56 2516,-429.5 2502.95,-438.01 2391.51,-436.03 2376,-437.5 2305.04,-444.2 2288.09,-453.33 2217,-458.5 1770.8,-490.96 647.69,-429.17 204,-486.5 186.6,-488.75 168.13,-492.52 150.85,-496.68"/>
<polygon fill="#fbbf24" stroke="#fbbf24" stroke-width="2" points="150.3,-493.93 143.21,-498.58 151.65,-499.37 150.3,-493.93"/>
<text xml:space="preserve" text-anchor="middle" x="2632.47" y="-252.45" font-family="sans-Serif" font-size="9.00" fill="#cbd5e1">MemoryIndex</text>
<text xml:space="preserve" text-anchor="middle" x="2632.47" y="-241.95" font-family="sans-Serif" font-size="9.00" fill="#cbd5e1">cosine top&#45;K</text>
</g>
<!-- Fskl&#45;&gt;Prompt -->
<g id="edge47" class="edge">
<title>Fskl&#45;&gt;Prompt</title>
<path fill="none" stroke="#fbbf24" stroke-width="1.3" stroke-dasharray="5,2" d="M763.98,-52.46C770.95,-73.27 785.79,-107.15 812,-122.5 876.27,-160.15 2077.74,-161.69 2152,-167.5 2414.95,-188.06 2566.26,-42.43 2741,-240 2747.18,-246.99 2742.87,-251.86 2741,-261 2724.67,-340.78 2736.03,-383.25 2669,-429.5 2651.15,-441.82 2495.49,-434.63 2474,-437.5 2432.43,-443.05 2423.65,-453.54 2382,-458.5 1901.36,-515.79 684.08,-424.72 204,-486.5 186.27,-488.78 167.43,-492.65 149.88,-496.9"/>
<polygon fill="#fbbf24" stroke="#fbbf24" stroke-width="1.3" points="149.26,-494.17 142.18,-498.82 150.62,-499.6 149.26,-494.17"/>
<text xml:space="preserve" text-anchor="middle" x="2771.59" y="-247.2" font-family="sans-Serif" font-size="9.00" fill="#cbd5e1">SKILLS block</text>
</g>
<!-- Fext&#45;&gt;Prompt -->
<g id="edge49" class="edge">
<title>Fext&#45;&gt;Prompt</title>
<path fill="none" stroke="#fbbf24" stroke-width="1.3" stroke-dasharray="5,2" d="M1540.64,-34.34C1764.33,-32.71 2645.77,-39.26 2809,-240 2866.15,-310.28 2807.26,-376.23 2734,-429.5 2634.96,-501.52 2582.25,-451.29 2460,-458.5 2209.75,-473.26 452.64,-454.56 204,-486.5 186.27,-488.78 167.43,-492.64 149.87,-496.89"/>
<polygon fill="#fbbf24" stroke="#fbbf24" stroke-width="1.3" points="149.26,-494.16 142.18,-498.81 150.62,-499.6 149.26,-494.16"/>
<text xml:space="preserve" text-anchor="middle" x="2850.14" y="-247.2" font-family="sans-Serif" font-size="9.00" fill="#cbd5e1">EXTRO block</text>
</g>
<!-- Fftn&#45;&gt;LLM -->
<g id="edge57" class="edge">
<title>Fftn&#45;&gt;LLM</title>
<path fill="none" stroke="#fb7185" stroke-width="2" stroke-dasharray="5,2" d="M884.25,-52.58C893.95,-73.52 913.31,-107.54 942,-122.5 1016.86,-161.54 2376.99,-159.16 2461,-167.5 2654.32,-186.68 2926.82,-70.64 2888,-261 2853.98,-427.83 2877.8,-516.31 2738,-613.5 2652.54,-672.91 1044.79,-691.66 707.67,-694.94"/>
<polygon fill="#fb7185" stroke="#fb7185" stroke-width="2" points="707.68,-692.14 699.71,-695.02 707.74,-697.74 707.68,-692.14"/>
<text xml:space="preserve" text-anchor="middle" x="2914.05" y="-329.95" font-family="sans-Serif" font-size="9.00" fill="#cbd5e1">LoRA (weights)</text>
<text xml:space="preserve" text-anchor="middle" x="2914.05" y="-319.45" font-family="sans-Serif" font-size="9.00" fill="#cbd5e1">cron weekly</text>
</g>
</g>
</svg>
