<?xml version="1.0" encoding="UTF-8" standalone="no"?>
<!DOCTYPE svg PUBLIC "-//W3C//DTD SVG 1.1//EN"
 "http://www.w3.org/Graphics/SVG/1.1/DTD/svg11.dtd">
<!-- Generated by graphviz version 14.1.2 (0)
 -->
<!-- Title: PWN_AI_Feedback_Learning_Loop Pages: 1 -->
<svg width="1195pt" height="689pt"
 viewBox="0.00 0.00 1195.00 689.00" xmlns="http://www.w3.org/2000/svg" xmlns:xlink="http://www.w3.org/1999/xlink">
<g id="graph0" class="graph" transform="scale(1 1) rotate(0) translate(43.2 645.45)">
<title>PWN_AI_Feedback_Learning_Loop</title>
<polygon fill="#0f172a" stroke="none" points="-43.2,43.2 -43.2,-645.45 1152.12,-645.45 1152.12,43.2 -43.2,43.2"/>
<text xml:space="preserve" text-anchor="start" x="360.96" y="-580.25" font-family="sans-Serif" font-weight="bold" font-size="20.00" fill="#e2e8f0">pwn&#45;ai — Closed Self&#45;Improvement Loop</text>
<text xml:space="preserve" text-anchor="start" x="445.34" y="-568.8" font-family="sans-Serif" font-size="11.00" fill="#94a3b8">Introspection (self) &#160;⟷ &#160;Extrospection (world)</text>
<g id="clust2" class="cluster">
<title>cluster_core</title>
<path fill="#2e1065" stroke="#6d28d9" stroke-width="2" d="M120,-389.5C120,-389.5 500,-389.5 500,-389.5 506,-389.5 512,-395.5 512,-401.5 512,-401.5 512,-460.75 512,-460.75 512,-466.75 506,-472.75 500,-472.75 500,-472.75 120,-472.75 120,-472.75 114,-472.75 108,-466.75 108,-460.75 108,-460.75 108,-401.5 108,-401.5 108,-395.5 114,-389.5 120,-389.5"/>
<text xml:space="preserve" text-anchor="middle" x="310" y="-449.75" font-family="sans-Serif" font-size="20.00" fill="#ddd6fe">PWN::AI::Agent::Loop</text>
</g>
<g id="clust4" class="cluster">
<title>cluster_intro</title>
<path fill="#022c22" stroke="#047857" stroke-width="2" d="M357,-247.25C357,-247.25 656,-247.25 656,-247.25 662,-247.25 668,-253.25 668,-259.25 668,-259.25 668,-331 668,-331 668,-337 662,-343 656,-343 656,-343 357,-343 357,-343 351,-343 345,-337 345,-331 345,-331 345,-259.25 345,-259.25 345,-253.25 351,-247.25 357,-247.25"/>
<text xml:space="preserve" text-anchor="middle" x="506.5" y="-320" font-family="sans-Serif" font-size="20.00" fill="#a7f3d0">INTROSPECTION &#160;(self)</text>
</g>
<g id="clust5" class="cluster">
<title>cluster_extro</title>
<path fill="#422006" stroke="#a16207" stroke-width="2" d="M20,-253.5C20,-253.5 304,-253.5 304,-253.5 310,-253.5 316,-259.5 316,-265.5 316,-265.5 316,-324.75 316,-324.75 316,-330.75 310,-336.75 304,-336.75 304,-336.75 20,-336.75 20,-336.75 14,-336.75 8,-330.75 8,-324.75 8,-324.75 8,-265.5 8,-265.5 8,-259.5 14,-253.5 20,-253.5"/>
<text xml:space="preserve" text-anchor="middle" x="162" y="-313.75" font-family="sans-Serif" font-size="20.00" fill="#fde68a">EXTROSPECTION &#160;(world)</text>
</g>
<g id="clust7" class="cluster">
<title>cluster_store</title>
<path fill="#1e293b" stroke="#334155" stroke-dasharray="5,2" d="M199,-8C199,-8 759,-8 759,-8 765,-8 771,-14 771,-20 771,-20 771,-79.25 771,-79.25 771,-85.25 765,-91.25 759,-91.25 759,-91.25 199,-91.25 199,-91.25 193,-91.25 187,-85.25 187,-79.25 187,-79.25 187,-20 187,-20 187,-14 193,-8 199,-8"/>
<text xml:space="preserve" text-anchor="middle" x="479" y="-68.25" font-family="sans-Serif" font-size="20.00" fill="#94a3b8">~/.pwn/</text>
</g>
<!-- User -->
<g id="node1" class="node">
<title>User</title>
<path fill="#7dd3fc" stroke="#334155" stroke-width="1.4" d="M192.88,-563.25C192.88,-563.25 125.12,-563.25 125.12,-563.25 119.12,-563.25 113.12,-557.25 113.12,-551.25 113.12,-551.25 113.12,-539.25 113.12,-539.25 113.12,-533.25 119.12,-527.25 125.12,-527.25 125.12,-527.25 192.88,-527.25 192.88,-527.25 198.88,-527.25 204.88,-533.25 204.88,-539.25 204.88,-539.25 204.88,-551.25 204.88,-551.25 204.88,-557.25 198.88,-563.25 192.88,-563.25"/>
<text xml:space="preserve" text-anchor="middle" x="159" y="-541.55" font-family="sans-Serif" font-size="11.00" fill="#0f172a">👤 &#160;Researcher</text>
</g>
<!-- Prompt -->
<g id="node4" class="node">
<title>Prompt</title>
<path fill="#c4b5fd" stroke="#334155" stroke-width="1.4" d="M189.5,-433.5C189.5,-433.5 128.5,-433.5 128.5,-433.5 122.5,-433.5 116.5,-427.5 116.5,-421.5 116.5,-421.5 116.5,-409.5 116.5,-409.5 116.5,-403.5 122.5,-397.5 128.5,-397.5 128.5,-397.5 189.5,-397.5 189.5,-397.5 195.5,-397.5 201.5,-403.5 201.5,-409.5 201.5,-409.5 201.5,-421.5 201.5,-421.5 201.5,-427.5 195.5,-433.5 189.5,-433.5"/>
<text xml:space="preserve" text-anchor="middle" x="159" y="-418.55" font-family="sans-Serif" font-size="11.00" fill="#0f172a">PromptBuilder</text>
<text xml:space="preserve" text-anchor="middle" x="159" y="-405.05" font-family="sans-Serif" font-size="11.00" fill="#0f172a">inject context</text>
</g>
<!-- User&#45;&gt;Prompt -->
<g id="edge1" class="edge">
<title>User&#45;&gt;Prompt</title>
<path fill="none" stroke="#38bdf8" stroke-width="2" d="M159,-526.75C159,-505.75 159,-470.24 159,-445.2"/>
<polygon fill="#38bdf8" stroke="#38bdf8" stroke-width="2" points="161.8,-445.22 159,-437.22 156.2,-445.22 161.8,-445.22"/>
<text xml:space="preserve" text-anchor="middle" x="167.25" y="-482.7" font-family="sans-Serif" font-size="9.00" fill="#cbd5e1">task</text>
</g>
<!-- LLM -->
<g id="node2" class="node">
<title>LLM</title>
<path fill="#c4b5fd" stroke="#334155" stroke-width="1.4" d="M593,-563.25C593,-563.25 517,-563.25 517,-563.25 511,-563.25 505,-557.25 505,-551.25 505,-551.25 505,-539.25 505,-539.25 505,-533.25 511,-527.25 517,-527.25 517,-527.25 593,-527.25 593,-527.25 599,-527.25 605,-533.25 605,-539.25 605,-539.25 605,-551.25 605,-551.25 605,-557.25 599,-563.25 593,-563.25"/>
<text xml:space="preserve" text-anchor="middle" x="555" y="-541.55" font-family="sans-Serif" font-size="11.00" fill="#0f172a">🤖 &#160;LLM Provider</text>
</g>
<!-- Dispatch -->
<g id="node5" class="node">
<title>Dispatch</title>
<path fill="#c4b5fd" stroke="#334155" stroke-width="1.4" d="M333,-433.5C333,-433.5 299,-433.5 299,-433.5 293,-433.5 287,-427.5 287,-421.5 287,-421.5 287,-409.5 287,-409.5 287,-403.5 293,-397.5 299,-397.5 299,-397.5 333,-397.5 333,-397.5 339,-397.5 345,-403.5 345,-409.5 345,-409.5 345,-421.5 345,-421.5 345,-427.5 339,-433.5 333,-433.5"/>
<text xml:space="preserve" text-anchor="middle" x="316" y="-418.55" font-family="sans-Serif" font-size="11.00" fill="#0f172a">Dispatch</text>
<text xml:space="preserve" text-anchor="middle" x="316" y="-405.05" font-family="sans-Serif" font-size="11.00" fill="#0f172a">tool calls</text>
</g>
<!-- LLM&#45;&gt;Dispatch -->
<g id="edge2" class="edge">
<title>LLM&#45;&gt;Dispatch</title>
<path fill="none" stroke="#a78bfa" stroke-width="2" d="M506.92,-522.02C478.18,-508.41 441.13,-490.29 409,-472.75 390.13,-462.45 369.65,-450.18 352.71,-439.73"/>
<polygon fill="#a78bfa" stroke="#a78bfa" stroke-width="2" points="505.55,-524.47 513.98,-525.35 507.94,-519.41 505.55,-524.47"/>
<polygon fill="#a78bfa" stroke="#a78bfa" stroke-width="2" points="354.55,-437.58 346.28,-435.74 351.6,-442.34 354.55,-437.58"/>
<text xml:space="preserve" text-anchor="middle" x="460" y="-482.7" font-family="sans-Serif" font-size="9.00" fill="#cbd5e1">tool_calls</text>
</g>
<!-- World -->
<g id="node3" class="node">
<title>World</title>
<path fill="#fda4af" stroke="#334155" stroke-width="1.4" d="M434.75,-563.25C434.75,-563.25 339.25,-563.25 339.25,-563.25 333.25,-563.25 327.25,-557.25 327.25,-551.25 327.25,-551.25 327.25,-539.25 327.25,-539.25 327.25,-533.25 333.25,-527.25 339.25,-527.25 339.25,-527.25 434.75,-527.25 434.75,-527.25 440.75,-527.25 446.75,-533.25 446.75,-539.25 446.75,-539.25 446.75,-551.25 446.75,-551.25 446.75,-557.25 440.75,-563.25 434.75,-563.25"/>
<text xml:space="preserve" text-anchor="middle" x="387" y="-548.3" font-family="sans-Serif" font-size="11.00" fill="#0f172a">🌍 &#160;Host · Net · Repo</text>
<text xml:space="preserve" text-anchor="middle" x="387" y="-534.8" font-family="sans-Serif" font-size="11.00" fill="#0f172a">Toolchain · Intel feeds</text>
</g>
<!-- Result -->
<g id="node6" class="node">
<title>Result</title>
<path fill="#c4b5fd" stroke="#334155" stroke-width="1.4" d="M491.88,-433.5C491.88,-433.5 442.12,-433.5 442.12,-433.5 436.12,-433.5 430.12,-427.5 430.12,-421.5 430.12,-421.5 430.12,-409.5 430.12,-409.5 430.12,-403.5 436.12,-397.5 442.12,-397.5 442.12,-397.5 491.88,-397.5 491.88,-397.5 497.88,-397.5 503.88,-403.5 503.88,-409.5 503.88,-409.5 503.88,-421.5 503.88,-421.5 503.88,-427.5 497.88,-433.5 491.88,-433.5"/>
<text xml:space="preserve" text-anchor="middle" x="467" y="-418.55" font-family="sans-Serif" font-size="11.00" fill="#0f172a">Result</text>
<text xml:space="preserve" text-anchor="middle" x="467" y="-405.05" font-family="sans-Serif" font-size="11.00" fill="#0f172a">final answer</text>
</g>
<!-- World&#45;&gt;Result -->
<!-- Snapshot -->
<g id="node9" class="node">
<title>Snapshot</title>
<path fill="#fcd34d" stroke="#334155" stroke-width="1.4" d="M296.38,-297.5C296.38,-297.5 195.62,-297.5 195.62,-297.5 189.62,-297.5 183.62,-291.5 183.62,-285.5 183.62,-285.5 183.62,-273.5 183.62,-273.5 183.62,-267.5 189.62,-261.5 195.62,-261.5 195.62,-261.5 296.38,-261.5 296.38,-261.5 302.38,-261.5 308.38,-267.5 308.38,-273.5 308.38,-273.5 308.38,-285.5 308.38,-285.5 308.38,-291.5 302.38,-297.5 296.38,-297.5"/>
<text xml:space="preserve" text-anchor="middle" x="246" y="-282.55" font-family="sans-Serif" font-size="11.00" fill="#0f172a">snapshot · drift</text>
<text xml:space="preserve" text-anchor="middle" x="246" y="-269.05" font-family="sans-Serif" font-size="11.00" fill="#0f172a">host/net/toolchain/repo</text>
</g>
<!-- World&#45;&gt;Snapshot -->
<g id="edge10" class="edge">
<title>World&#45;&gt;Snapshot</title>
<path fill="none" stroke="#fb7185" stroke-width="1.3" d="M402.07,-526.82C416.01,-511.95 438.14,-491.34 462,-480.75 486.59,-469.84 499.66,-487.73 522,-472.75 572.77,-438.71 628.53,-394.91 586,-351 576.29,-340.98 348.23,-347.42 335,-343 311.08,-335.02 287.9,-318.36 271.19,-304.24"/>
<polygon fill="#fb7185" stroke="#fb7185" stroke-width="1.3" points="273.35,-302.41 265.48,-299.27 269.67,-306.63 273.35,-302.41"/>
</g>
<!-- Observe -->
<g id="node10" class="node">
<title>Observe</title>
<path fill="#fcd34d" stroke="#334155" stroke-width="1.4" d="M128.38,-297.5C128.38,-297.5 27.62,-297.5 27.62,-297.5 21.62,-297.5 15.63,-291.5 15.63,-285.5 15.63,-285.5 15.63,-273.5 15.63,-273.5 15.63,-267.5 21.63,-261.5 27.63,-261.5 27.63,-261.5 128.38,-261.5 128.38,-261.5 134.38,-261.5 140.38,-267.5 140.38,-273.5 140.38,-273.5 140.38,-285.5 140.38,-285.5 140.38,-291.5 134.38,-297.5 128.38,-297.5"/>
<text xml:space="preserve" text-anchor="middle" x="78" y="-282.55" font-family="sans-Serif" font-size="11.00" fill="#0f172a">observe · intel</text>
<text xml:space="preserve" text-anchor="middle" x="78" y="-269.05" font-family="sans-Serif" font-size="11.00" fill="#0f172a">recon facts · CVE feed</text>
</g>
<!-- World&#45;&gt;Observe -->
<g id="edge11" class="edge">
<title>World&#45;&gt;Observe</title>
<path fill="none" stroke="#fb7185" stroke-width="1.3" d="M422.73,-526.62C460,-508.02 514.11,-480.37 522,-472.75 565.98,-430.29 628.82,-394.63 586,-351 569.5,-334.18 184.29,-350.62 162,-343 139.24,-335.22 117.56,-318.78 101.93,-304.72"/>
<polygon fill="#fb7185" stroke="#fb7185" stroke-width="1.3" points="103.97,-302.79 96.2,-299.39 100.15,-306.89 103.97,-302.79"/>
</g>
<!-- Prompt&#45;&gt;Dispatch -->
<g id="edge4" class="edge">
<title>Prompt&#45;&gt;Dispatch</title>
<path fill="none" stroke="#a78bfa" stroke-width="1.3" d="M201.93,-415.5C226.84,-415.5 251.76,-415.5 276.67,-415.5"/>
<polygon fill="#a78bfa" stroke="#a78bfa" stroke-width="1.3" points="276.62,-418.3 284.62,-415.5 276.62,-412.7 276.62,-418.3"/>
</g>
<!-- Dispatch&#45;&gt;Result -->
<g id="edge5" class="edge">
<title>Dispatch&#45;&gt;Result</title>
<path fill="none" stroke="#a78bfa" stroke-width="1.3" d="M345.49,-415.5C370.21,-415.5 394.94,-415.5 419.66,-415.5"/>
<polygon fill="#a78bfa" stroke="#a78bfa" stroke-width="1.3" points="419.54,-418.3 427.54,-415.5 419.54,-412.7 419.54,-418.3"/>
</g>
<!-- Metrics -->
<g id="node7" class="node">
<title>Metrics</title>
<path fill="#6ee7b7" stroke="#334155" stroke-width="1.4" d="M478.75,-297.5C478.75,-297.5 365.25,-297.5 365.25,-297.5 359.25,-297.5 353.25,-291.5 353.25,-285.5 353.25,-285.5 353.25,-273.5 353.25,-273.5 353.25,-267.5 359.25,-261.5 365.25,-261.5 365.25,-261.5 478.75,-261.5 478.75,-261.5 484.75,-261.5 490.75,-267.5 490.75,-273.5 490.75,-273.5 490.75,-285.5 490.75,-285.5 490.75,-291.5 484.75,-297.5 478.75,-297.5"/>
<text xml:space="preserve" text-anchor="middle" x="422" y="-282.55" font-family="sans-Serif" font-size="11.00" fill="#0f172a">Metrics</text>
<text xml:space="preserve" text-anchor="middle" x="422" y="-269.05" font-family="sans-Serif" font-size="11.00" fill="#0f172a">per&#45;tool success · avg ms</text>
</g>
<!-- Dispatch&#45;&gt;Metrics -->
<g id="edge6" class="edge">
<title>Dispatch&#45;&gt;Metrics</title>
<path fill="none" stroke="#34d399" stroke-width="1.3" d="M341.32,-396.81C353.7,-387.32 368.22,-374.84 379,-361.5 392.43,-344.89 403.59,-323.44 411.17,-306.79"/>
<polygon fill="#34d399" stroke="#34d399" stroke-width="1.3" points="413.55,-308.34 414.22,-299.89 408.43,-306.08 413.55,-308.34"/>
<text xml:space="preserve" text-anchor="middle" x="402.55" y="-352.95" font-family="sans-Serif" font-size="9.00" fill="#cbd5e1">record()</text>
</g>
<!-- Dispatch&#45;&gt;Snapshot -->
<g id="edge8" class="edge">
<title>Dispatch&#45;&gt;Snapshot</title>
<path fill="none" stroke="#f59e0b" stroke-width="1.3" d="M286.41,-403.45C268.31,-394.97 246.64,-381.31 236,-361.5 227.09,-344.91 230.13,-323.71 235.11,-307.16"/>
<polygon fill="#f59e0b" stroke="#f59e0b" stroke-width="1.3" points="237.66,-308.37 237.56,-299.89 232.35,-306.58 237.66,-308.37"/>
<text xml:space="preserve" text-anchor="middle" x="248" y="-352.95" font-family="sans-Serif" font-size="9.00" fill="#cbd5e1">probe</text>
</g>
<!-- Result&#45;&gt;User -->
<g id="edge26" class="edge">
<title>Result&#45;&gt;User</title>
<path fill="none" stroke="#38bdf8" stroke-width="2" d="M438.83,-434.16C419.18,-446.03 392.08,-461.5 367,-472.75 317.22,-495.09 258.21,-514.76 215.78,-527.79"/>
<polygon fill="#38bdf8" stroke="#38bdf8" stroke-width="2" points="215.1,-525.07 208.26,-530.08 216.73,-530.43 215.1,-525.07"/>
<text xml:space="preserve" text-anchor="middle" x="360.1" y="-482.7" font-family="sans-Serif" font-size="9.00" fill="#cbd5e1">answer</text>
</g>
<!-- Learning -->
<g id="node8" class="node">
<title>Learning</title>
<path fill="#6ee7b7" stroke="#334155" stroke-width="1.4" d="M647.75,-303.75C647.75,-303.75 546.25,-303.75 546.25,-303.75 540.25,-303.75 534.25,-297.75 534.25,-291.75 534.25,-291.75 534.25,-267.25 534.25,-267.25 534.25,-261.25 540.25,-255.25 546.25,-255.25 546.25,-255.25 647.75,-255.25 647.75,-255.25 653.75,-255.25 659.75,-261.25 659.75,-267.25 659.75,-267.25 659.75,-291.75 659.75,-291.75 659.75,-297.75 653.75,-303.75 647.75,-303.75"/>
<text xml:space="preserve" text-anchor="middle" x="597" y="-289.3" font-family="sans-Serif" font-size="11.00" fill="#0f172a">Learning</text>
<text xml:space="preserve" text-anchor="middle" x="597" y="-275.8" font-family="sans-Serif" font-size="11.00" fill="#0f172a">note_outcome · reflect</text>
<text xml:space="preserve" text-anchor="middle" x="597" y="-262.3" font-family="sans-Serif" font-size="11.00" fill="#0f172a">consolidate · distill_skill</text>
</g>
<!-- Result&#45;&gt;Learning -->
<g id="edge7" class="edge">
<title>Result&#45;&gt;Learning</title>
<path fill="none" stroke="#34d399" stroke-width="1.3" d="M484,-396.98C505.1,-375.23 541.45,-337.76 567.22,-311.2"/>
<polygon fill="#34d399" stroke="#34d399" stroke-width="1.3" points="568.93,-313.46 572.49,-305.77 564.91,-309.56 568.93,-313.46"/>
<text xml:space="preserve" text-anchor="middle" x="552.1" y="-352.95" font-family="sans-Serif" font-size="9.00" fill="#cbd5e1">auto_reflect</text>
</g>
<!-- Result&#45;&gt;Observe -->
<g id="edge9" class="edge">
<title>Result&#45;&gt;Observe</title>
<path fill="none" stroke="#f59e0b" stroke-width="1.3" d="M429.54,-402.15C376,-384.59 282.26,-354.15 266,-351 220.49,-342.18 205.42,-359.25 162,-343 139.62,-334.62 118.07,-318.36 102.4,-304.53"/>
<polygon fill="#f59e0b" stroke="#f59e0b" stroke-width="1.3" points="104.46,-302.61 96.66,-299.3 100.69,-306.76 104.46,-302.61"/>
<text xml:space="preserve" text-anchor="middle" x="332.76" y="-352.95" font-family="sans-Serif" font-size="9.00" fill="#cbd5e1">auto_extrospect</text>
</g>
<!-- Correlate -->
<g id="node11" class="node">
<title>Correlate</title>
<path fill="#fda4af" stroke="#334155" stroke-width="2" d="M345.88,-172.75C345.88,-172.75 146.12,-172.75 146.12,-172.75 140.12,-172.75 134.12,-166.75 134.12,-160.75 134.12,-160.75 134.12,-148.25 134.12,-148.25 134.12,-142.25 140.12,-136.25 146.12,-136.25 146.12,-136.25 345.88,-136.25 345.88,-136.25 351.88,-136.25 357.88,-142.25 357.88,-148.25 357.88,-148.25 357.88,-160.75 357.88,-160.75 357.88,-166.75 351.88,-172.75 345.88,-172.75"/>
<text xml:space="preserve" text-anchor="middle" x="246" y="-157.35" font-family="sans-Serif" font-size="12.00" fill="#0f172a">extro_correlate()</text>
<text xml:space="preserve" text-anchor="middle" x="246" y="-143.1" font-family="sans-Serif" font-size="12.00" fill="#0f172a">&quot;I did it wrong&quot; &#160;vs &#160;&quot;the world changed&quot;</text>
</g>
<!-- Metrics&#45;&gt;Correlate -->
<g id="edge12" class="edge">
<title>Metrics&#45;&gt;Correlate</title>
<path fill="none" stroke="#34d399" stroke-width="1.3" d="M396,-261.03C378.65,-249.31 355.37,-233.48 335,-219.25 316.25,-206.16 295.47,-191.29 278.7,-179.21"/>
<polygon fill="#34d399" stroke="#34d399" stroke-width="1.3" points="280.55,-177.08 272.42,-174.67 277.27,-181.62 280.55,-177.08"/>
</g>
<!-- Fmet -->
<g id="node12" class="node">
<title>Fmet</title>
<path fill="#fcd34d" stroke="#334155" stroke-width="1.4" d="M413.5,-48.73C413.5,-50.53 397.14,-52 377,-52 356.86,-52 340.5,-50.53 340.5,-48.73 340.5,-48.73 340.5,-19.27 340.5,-19.27 340.5,-17.47 356.86,-16 377,-16 397.14,-16 413.5,-17.47 413.5,-19.27 413.5,-19.27 413.5,-48.73 413.5,-48.73"/>
<path fill="none" stroke="#334155" stroke-width="1.4" d="M413.5,-48.73C413.5,-46.92 397.14,-45.45 377,-45.45 356.86,-45.45 340.5,-46.92 340.5,-48.73"/>
<text xml:space="preserve" text-anchor="middle" x="377" y="-30.3" font-family="sans-Serif" font-size="11.00" fill="#0f172a">metrics.json</text>
</g>
<!-- Metrics&#45;&gt;Fmet -->
<g id="edge17" class="edge">
<title>Metrics&#45;&gt;Fmet</title>
<path fill="none" stroke="#94a3b8" stroke-width="1.3" d="M418.76,-260.99C411.01,-219.06 391.35,-112.65 382.04,-62.26"/>
<polygon fill="#94a3b8" stroke="#94a3b8" stroke-width="1.3" points="384.83,-61.97 380.63,-54.62 379.33,-62.99 384.83,-61.97"/>
</g>
<!-- Learning&#45;&gt;Correlate -->
<g id="edge13" class="edge">
<title>Learning&#45;&gt;Correlate</title>
<path fill="none" stroke="#34d399" stroke-width="1.3" d="M533.92,-255.15C526.54,-252.46 519.11,-249.78 512,-247.25 442.72,-222.57 362.94,-195.19 308.96,-176.82"/>
<polygon fill="#34d399" stroke="#34d399" stroke-width="1.3" points="310.2,-174.28 301.72,-174.36 308.4,-179.58 310.2,-174.28"/>
</g>
<!-- Flrn -->
<g id="node13" class="node">
<title>Flrn</title>
<path fill="#fcd34d" stroke="#334155" stroke-width="1.4" d="M535.5,-48.73C535.5,-50.53 517.8,-52 496,-52 474.2,-52 456.5,-50.53 456.5,-48.73 456.5,-48.73 456.5,-19.27 456.5,-19.27 456.5,-17.47 474.2,-16 496,-16 517.8,-16 535.5,-17.47 535.5,-19.27 535.5,-19.27 535.5,-48.73 535.5,-48.73"/>
<path fill="none" stroke="#334155" stroke-width="1.4" d="M535.5,-48.73C535.5,-46.92 517.8,-45.45 496,-45.45 474.2,-45.45 456.5,-46.92 456.5,-48.73"/>
<text xml:space="preserve" text-anchor="middle" x="496" y="-30.3" font-family="sans-Serif" font-size="11.00" fill="#0f172a">learning.jsonl</text>
</g>
<!-- Learning&#45;&gt;Flrn -->
<g id="edge18" class="edge">
<title>Learning&#45;&gt;Flrn</title>
<path fill="none" stroke="#94a3b8" stroke-width="1.3" d="M587.13,-254.71C568.19,-209.03 526.84,-109.35 507.02,-61.57"/>
<polygon fill="#94a3b8" stroke="#94a3b8" stroke-width="1.3" points="509.65,-60.6 504,-54.29 504.48,-62.75 509.65,-60.6"/>
</g>
<!-- Fmem -->
<g id="node14" class="node">
<title>Fmem</title>
<path fill="#fcd34d" stroke="#334155" stroke-width="1.4" d="M655.75,-48.73C655.75,-50.53 638.38,-52 617,-52 595.62,-52 578.25,-50.53 578.25,-48.73 578.25,-48.73 578.25,-19.27 578.25,-19.27 578.25,-17.47 595.62,-16 617,-16 638.38,-16 655.75,-17.47 655.75,-19.27 655.75,-19.27 655.75,-48.73 655.75,-48.73"/>
<path fill="none" stroke="#334155" stroke-width="1.4" d="M655.75,-48.73C655.75,-46.92 638.38,-45.45 617,-45.45 595.62,-45.45 578.25,-46.92 578.25,-48.73"/>
<text xml:space="preserve" text-anchor="middle" x="617" y="-30.3" font-family="sans-Serif" font-size="11.00" fill="#0f172a">memory.json</text>
</g>
<!-- Learning&#45;&gt;Fmem -->
<g id="edge19" class="edge">
<title>Learning&#45;&gt;Fmem</title>
<path fill="none" stroke="#94a3b8" stroke-width="1.3" d="M598.95,-254.71C602.69,-209.22 610.83,-110.18 614.77,-62.17"/>
<polygon fill="#94a3b8" stroke="#94a3b8" stroke-width="1.3" points="617.54,-62.63 615.4,-54.43 611.96,-62.17 617.54,-62.63"/>
<text xml:space="preserve" text-anchor="middle" x="622.16" y="-151.2" font-family="sans-Serif" font-size="9.00" fill="#cbd5e1">lesson</text>
</g>
<!-- Fskl -->
<g id="node15" class="node">
<title>Fskl</title>
<path fill="#fcd34d" stroke="#334155" stroke-width="1.4" d="M763,-48.73C763,-50.53 748.66,-52 731,-52 713.34,-52 699,-50.53 699,-48.73 699,-48.73 699,-19.27 699,-19.27 699,-17.47 713.34,-16 731,-16 748.66,-16 763,-17.47 763,-19.27 763,-19.27 763,-48.73 763,-48.73"/>
<path fill="none" stroke="#334155" stroke-width="1.4" d="M763,-48.73C763,-46.92 748.66,-45.45 731,-45.45 713.34,-45.45 699,-46.92 699,-48.73"/>
<text xml:space="preserve" text-anchor="middle" x="731" y="-30.3" font-family="sans-Serif" font-size="11.00" fill="#0f172a">skills/*.md</text>
</g>
<!-- Learning&#45;&gt;Fskl -->
<g id="edge20" class="edge">
<title>Learning&#45;&gt;Fskl</title>
<path fill="none" stroke="#94a3b8" stroke-width="1.3" d="M612.35,-254.81C619.17,-244.07 627.17,-231.13 634,-219.25 665.74,-164 699.75,-97.49 717.86,-61.42"/>
<polygon fill="#94a3b8" stroke="#94a3b8" stroke-width="1.3" points="720.37,-62.67 721.45,-54.26 715.36,-60.16 720.37,-62.67"/>
<text xml:space="preserve" text-anchor="middle" x="686.07" y="-151.2" font-family="sans-Serif" font-size="9.00" fill="#cbd5e1">skill</text>
</g>
<!-- Snapshot&#45;&gt;Correlate -->
<g id="edge14" class="edge">
<title>Snapshot&#45;&gt;Correlate</title>
<path fill="none" stroke="#f59e0b" stroke-width="1.3" d="M246,-260.88C246,-240.62 246,-207.13 246,-183.34"/>
<polygon fill="#f59e0b" stroke="#f59e0b" stroke-width="1.3" points="248.8,-183.46 246,-175.46 243.2,-183.46 248.8,-183.46"/>
</g>
<!-- Observe&#45;&gt;Correlate -->
<g id="edge15" class="edge">
<title>Observe&#45;&gt;Correlate</title>
<path fill="none" stroke="#f59e0b" stroke-width="1.3" d="M102.07,-260.88C131.26,-239.51 180.6,-203.38 213.24,-179.49"/>
<polygon fill="#f59e0b" stroke="#f59e0b" stroke-width="1.3" points="214.76,-181.84 219.57,-174.85 211.46,-177.32 214.76,-181.84"/>
</g>
<!-- Fext -->
<g id="node16" class="node">
<title>Fext</title>
<path fill="#fcd34d" stroke="#334155" stroke-width="1.4" d="M297.12,-48.73C297.12,-50.53 274.21,-52 246,-52 217.79,-52 194.88,-50.53 194.88,-48.73 194.88,-48.73 194.88,-19.27 194.88,-19.27 194.88,-17.47 217.79,-16 246,-16 274.21,-16 297.12,-17.47 297.12,-19.27 297.12,-19.27 297.12,-48.73 297.12,-48.73"/>
<path fill="none" stroke="#334155" stroke-width="1.4" d="M297.12,-48.73C297.12,-46.92 274.21,-45.45 246,-45.45 217.79,-45.45 194.88,-46.92 194.88,-48.73"/>
<text xml:space="preserve" text-anchor="middle" x="246" y="-30.3" font-family="sans-Serif" font-size="11.00" fill="#0f172a">extrospection.json</text>
</g>
<!-- Observe&#45;&gt;Fext -->
<g id="edge21" class="edge">
<title>Observe&#45;&gt;Fext</title>
<path fill="none" stroke="#94a3b8" stroke-width="1.3" d="M78.63,-260.82C80.4,-232.36 87.19,-175.59 113,-136.25 135.46,-102.02 173.55,-74.77 203.23,-57.2"/>
<polygon fill="#94a3b8" stroke="#94a3b8" stroke-width="1.3" points="204.52,-59.69 210.05,-53.27 201.72,-54.84 204.52,-59.69"/>
</g>
<!-- Correlate&#45;&gt;Prompt -->
<g id="edge25" class="edge">
<title>Correlate&#45;&gt;Prompt</title>
<path fill="none" stroke="#fb7185" stroke-width="2" stroke-dasharray="5,2" d="M358.73,-163.68C473.02,-174.59 638.52,-198.5 678,-247.25 704.78,-280.32 704.96,-310.08 678,-343 619.62,-414.28 356.98,-374.97 266,-389.5 248.45,-392.3 229.5,-396.38 212.5,-400.43"/>
<polygon fill="#fb7185" stroke="#fb7185" stroke-width="2" points="212.25,-397.61 205.13,-402.22 213.57,-403.05 212.25,-397.61"/>
<text xml:space="preserve" text-anchor="middle" x="737.53" y="-276.2" font-family="sans-Serif" font-size="9.00" fill="#cbd5e1">findings → next run</text>
</g>
<!-- Correlate&#45;&gt;Fmet -->
<!-- Fmem&#45;&gt;Prompt -->
<g id="edge22" class="edge">
<title>Fmem&#45;&gt;Prompt</title>
<path fill="none" stroke="#fbbf24" stroke-width="1.3" stroke-dasharray="5,2" d="M633.9,-52.68C673.84,-94.96 771.88,-201.78 787,-247.25 800.43,-287.63 814,-310.1 787,-343 750.13,-387.93 323.49,-380.96 266,-389.5 248.09,-392.16 228.75,-396.28 211.5,-400.42"/>
<polygon fill="#fbbf24" stroke="#fbbf24" stroke-width="1.3" points="211.17,-397.62 204.07,-402.24 212.51,-403.06 211.17,-397.62"/>
<text xml:space="preserve" text-anchor="middle" x="804.5" y="-210.7" font-family="sans-Serif" font-size="9.00" fill="#cbd5e1">MEMORY block</text>
</g>
<!-- Fskl&#45;&gt;Prompt -->
<g id="edge23" class="edge">
<title>Fskl&#45;&gt;Prompt</title>
<path fill="none" stroke="#fbbf24" stroke-width="1.3" stroke-dasharray="5,2" d="M747.89,-52.39C775.06,-81.72 827.43,-144.19 847,-208.75 864.5,-266.48 862.72,-294.39 827,-343 816.11,-357.82 807.77,-356.8 790,-361.5 564.53,-421.12 496.89,-356.62 266,-389.5 248.07,-392.05 228.73,-396.15 211.48,-400.29"/>
<polygon fill="#fbbf24" stroke="#fbbf24" stroke-width="1.3" points="211.15,-397.49 204.05,-402.12 212.49,-402.93 211.15,-397.49"/>
<text xml:space="preserve" text-anchor="middle" x="877.38" y="-210.7" font-family="sans-Serif" font-size="9.00" fill="#cbd5e1">SKILLS block</text>
</g>
<!-- Fext&#45;&gt;Prompt -->
<g id="edge24" class="edge">
<title>Fext&#45;&gt;Prompt</title>
<path fill="none" stroke="#fbbf24" stroke-width="1.3" stroke-dasharray="5,2" d="M263.15,-52.62C276.95,-65.62 297.51,-82.51 319,-91.25 622.57,-214.77 840.6,45.84 1047,-208.75 1084.61,-255.14 1077.51,-295.73 1041,-343 988.27,-411.27 351.49,-377.95 266,-389.5 248.06,-391.92 228.71,-395.99 211.46,-400.14"/>
<polygon fill="#fbbf24" stroke="#fbbf24" stroke-width="1.3" points="211.13,-397.34 204.03,-401.98 212.47,-402.78 211.13,-397.34"/>
<text xml:space="preserve" text-anchor="middle" x="1081.55" y="-210.7" font-family="sans-Serif" font-size="9.00" fill="#cbd5e1">EXTRO block</text>
</g>
</g>
</svg>
