<?xml version="1.0" encoding="UTF-8" standalone="no"?>
<!DOCTYPE svg PUBLIC "-//W3C//DTD SVG 1.1//EN"
 "http://www.w3.org/Graphics/SVG/1.1/DTD/svg11.dtd">
<!-- Generated by graphviz version 14.1.2 (0)
 -->
<!-- Title: PWN&#45;AI Feedback Learning Loop Pages: 1 -->
<svg width="1079pt" height="412pt"
 viewBox="0.00 0.00 1079.00 412.00" xmlns="http://www.w3.org/2000/svg" xmlns:xlink="http://www.w3.org/1999/xlink">
<g id="graph0" class="graph" transform="scale(1 1) rotate(0) translate(4 408.11)">
<title>PWN&#45;AI Feedback Learning Loop</title>
<polygon fill="white" stroke="none" points="-4,4 -4,-408.11 1075.45,-408.11 1075.45,4 -4,4"/>
<g id="clust1" class="cluster">
<title>cluster_agent</title>
<path fill="none" stroke="blue" d="M237.62,-93C237.62,-93 561.62,-93 561.62,-93 567.62,-93 573.62,-99 573.62,-105 573.62,-105 573.62,-310.48 573.62,-310.48 573.62,-316.48 567.62,-322.48 561.62,-322.48 561.62,-322.48 237.62,-322.48 237.62,-322.48 231.62,-322.48 225.62,-316.48 225.62,-310.48 225.62,-310.48 225.62,-105 225.62,-105 225.62,-99 231.62,-93 237.62,-93"/>
<text xml:space="preserve" text-anchor="middle" x="399.62" y="-305.18" font-family="Times,serif" font-size="14.00">PWN::AI::Agent</text>
</g>
<!-- User -->
<g id="node1" class="node">
<title>User</title>
<path fill="none" stroke="black" d="M93.25,-260.85C93.25,-260.85 12,-260.85 12,-260.85 6,-260.85 0,-254.85 0,-248.85 0,-248.85 0,-236.85 0,-236.85 0,-230.85 6,-224.85 12,-224.85 12,-224.85 93.25,-224.85 93.25,-224.85 99.25,-224.85 105.25,-230.85 105.25,-236.85 105.25,-236.85 105.25,-248.85 105.25,-248.85 105.25,-254.85 99.25,-260.85 93.25,-260.85"/>
<text xml:space="preserve" text-anchor="middle" x="52.62" y="-245.35" font-family="Arial" font-size="10.00">Security Researcher</text>
<text xml:space="preserve" text-anchor="middle" x="52.62" y="-233.35" font-family="Arial" font-size="10.00">(User / pwn&#45;ai)</text>
</g>
<!-- PwnAI -->
<g id="node3" class="node">
<title>PwnAI</title>
<ellipse fill="lightblue" stroke="black" cx="466.62" cy="-242.85" rx="98.82" ry="22.63"/>
<text xml:space="preserve" text-anchor="middle" x="466.62" y="-245.35" font-family="Arial" font-size="10.00">pwn&#45;ai TUI</text>
<text xml:space="preserve" text-anchor="middle" x="466.62" y="-233.35" font-family="Arial" font-size="10.00">(Natural Language Interface)</text>
</g>
<!-- User&#45;&gt;PwnAI -->
<g id="edge1" class="edge">
<title>User&#45;&gt;PwnAI</title>
<path fill="none" stroke="black" d="M85.64,-261.31C119.01,-279.26 172.54,-306.16 221.62,-322.48 266.33,-337.35 327.03,-329.84 350.25,-325.63 385.14,-319.29 417.37,-294.2 439.02,-273.29"/>
<polygon fill="black" stroke="black" points="441.4,-275.85 445.99,-266.31 436.45,-270.91 441.4,-275.85"/>
<text xml:space="preserve" text-anchor="middle" x="293.62" y="-342.93" font-family="Arial" font-size="9.00">Natural language task</text>
<text xml:space="preserve" text-anchor="middle" x="293.62" y="-332.43" font-family="Arial" font-size="9.00">(e.g. scan + exploit + report)</text>
</g>
<!-- History -->
<g id="node10" class="node">
<title>History</title>
<path fill="none" stroke="black" d="M160.25,-150.11C160.25,-152.32 143.39,-154.11 122.62,-154.11 101.86,-154.11 85,-152.32 85,-150.11 85,-150.11 85,-114.11 85,-114.11 85,-111.91 101.86,-110.11 122.62,-110.11 143.39,-110.11 160.25,-111.91 160.25,-114.11 160.25,-114.11 160.25,-150.11 160.25,-150.11"/>
<path fill="none" stroke="black" d="M160.25,-150.11C160.25,-147.91 143.39,-146.11 122.62,-146.11 101.86,-146.11 85,-147.91 85,-150.11"/>
<text xml:space="preserve" text-anchor="middle" x="122.62" y="-134.61" font-family="Arial" font-size="10.00">Pry History /</text>
<text xml:space="preserve" text-anchor="middle" x="122.62" y="-122.61" font-family="Arial" font-size="10.00">Session Logs</text>
</g>
<!-- User&#45;&gt;History -->
<g id="edge16" class="edge">
<title>User&#45;&gt;History</title>
<path fill="none" stroke="black" d="M33.61,-224.43C22.5,-212.08 12.25,-195.26 21.12,-181.23 32.87,-162.66 53.93,-151.12 73.83,-144.01"/>
<polygon fill="black" stroke="black" points="74.82,-147.37 83.26,-140.97 72.67,-140.71 74.82,-147.37"/>
<text xml:space="preserve" text-anchor="middle" x="60.88" y="-193.68" font-family="Arial" font-size="9.00">history command to</text>
<text xml:space="preserve" text-anchor="middle" x="60.88" y="-183.18" font-family="Arial" font-size="9.00">inspect previous</text>
</g>
<!-- LLM -->
<g id="node2" class="node">
<title>LLM</title>
<path fill="none" stroke="black" d="M705.5,-264.85C705.5,-264.85 595.75,-264.85 595.75,-264.85 589.75,-264.85 583.75,-258.85 583.75,-252.85 583.75,-252.85 583.75,-232.85 583.75,-232.85 583.75,-226.85 589.75,-220.85 595.75,-220.85 595.75,-220.85 705.5,-220.85 705.5,-220.85 711.5,-220.85 717.5,-226.85 717.5,-232.85 717.5,-232.85 717.5,-252.85 717.5,-252.85 717.5,-258.85 711.5,-264.85 705.5,-264.85"/>
<text xml:space="preserve" text-anchor="middle" x="650.62" y="-251.35" font-family="Arial" font-size="10.00">LLM Providers</text>
<text xml:space="preserve" text-anchor="middle" x="650.62" y="-239.35" font-family="Arial" font-size="10.00">(Grok/OAuth, OpenAI,</text>
<text xml:space="preserve" text-anchor="middle" x="650.62" y="-227.35" font-family="Arial" font-size="10.00">Anthropic, Gemini, Ollama)</text>
</g>
<!-- ToolCall -->
<g id="node4" class="node">
<title>ToolCall</title>
<ellipse fill="lightblue" stroke="black" cx="474.62" cy="-132.11" rx="91.39" ry="31.11"/>
<text xml:space="preserve" text-anchor="middle" x="474.62" y="-140.61" font-family="Arial" font-size="10.00">Tool Calling Dispatcher</text>
<text xml:space="preserve" text-anchor="middle" x="474.62" y="-128.61" font-family="Arial" font-size="10.00">(pwn_eval, shell, memory,</text>
<text xml:space="preserve" text-anchor="middle" x="474.62" y="-116.61" font-family="Arial" font-size="10.00">skill_list, etc.)</text>
</g>
<!-- LLM&#45;&gt;ToolCall -->
<g id="edge6" class="edge">
<title>LLM&#45;&gt;ToolCall</title>
<path fill="none" stroke="black" d="M673.74,-220.48C684.11,-208.31 692.11,-193.15 682.62,-181.23 668.37,-163.3 619.4,-151.47 572.56,-144.02"/>
<polygon fill="black" stroke="black" points="573.26,-140.59 562.85,-142.54 572.2,-147.51 573.26,-140.59"/>
<text xml:space="preserve" text-anchor="middle" x="710.1" y="-188.43" font-family="Arial" font-size="9.00">Responses</text>
</g>
<!-- PwnAI&#45;&gt;User -->
<g id="edge18" class="edge">
<title>PwnAI&#45;&gt;User</title>
<path fill="none" stroke="black" d="M444.57,-265.15C424.25,-283.98 392.24,-309.56 358.62,-320.38 300.66,-339.02 281.11,-333.37 221.62,-320.38 174.75,-310.14 125.34,-285.66 92.14,-266.92"/>
<polygon fill="black" stroke="black" points="94.1,-264.02 83.69,-262.07 90.62,-270.09 94.1,-264.02"/>
<text xml:space="preserve" text-anchor="middle" x="177.62" y="-337.68" font-family="Arial" font-size="9.00">Results, reports, next steps</text>
</g>
<!-- PwnAI&#45;&gt;ToolCall -->
<g id="edge2" class="edge">
<title>PwnAI&#45;&gt;ToolCall</title>
<path fill="none" stroke="black" d="M464.52,-220.07C464.04,-214.28 463.61,-208.02 463.38,-202.23 462.99,-192.9 462.31,-190.5 463.38,-181.23 463.63,-179.05 463.94,-176.83 464.3,-174.6"/>
<polygon fill="black" stroke="black" points="467.7,-175.43 466.13,-164.96 460.83,-174.13 467.7,-175.43"/>
<text xml:space="preserve" text-anchor="middle" x="511" y="-188.43" font-family="Arial" font-size="9.00">Parse intent, plan steps</text>
</g>
<!-- ToolCall&#45;&gt;LLM -->
<g id="edge5" class="edge">
<title>ToolCall&#45;&gt;LLM</title>
<path fill="none" stroke="black" d="M523.24,-158.66C535.12,-165.52 547.58,-173.26 558.62,-181.23 569.99,-189.42 570.78,-194.01 582.12,-202.23 588.11,-206.56 594.59,-210.82 601.11,-214.84"/>
<polygon fill="black" stroke="black" points="598.96,-217.63 609.34,-219.78 602.56,-211.63 598.96,-217.63"/>
<text xml:space="preserve" text-anchor="middle" x="632.38" y="-188.43" font-family="Arial" font-size="9.00">If needed for decisioning</text>
</g>
<!-- Memory -->
<g id="node6" class="node">
<title>Memory</title>
<path fill="none" stroke="black" d="M713.5,-40C713.5,-42.21 688.9,-44 658.62,-44 628.35,-44 603.75,-42.21 603.75,-40 603.75,-40 603.75,-4 603.75,-4 603.75,-1.79 628.35,0 658.62,0 688.9,0 713.5,-1.79 713.5,-4 713.5,-4 713.5,-40 713.5,-40"/>
<path fill="none" stroke="black" d="M713.5,-40C713.5,-37.79 688.9,-36 658.62,-36 628.35,-36 603.75,-37.79 603.75,-40"/>
<text xml:space="preserve" text-anchor="middle" x="658.62" y="-24.5" font-family="Arial" font-size="10.00">PWN::Memory</text>
<text xml:space="preserve" text-anchor="middle" x="658.62" y="-12.5" font-family="Arial" font-size="10.00">(~/.pwn/memory.json)</text>
</g>
<!-- ToolCall&#45;&gt;Memory -->
<g id="edge7" class="edge">
<title>ToolCall&#45;&gt;Memory</title>
<path fill="none" stroke="black" d="M539.4,-109.83C557.6,-102.56 576.97,-93.56 593.62,-83 601.31,-78.13 615.79,-64.93 629.14,-52.14"/>
<polygon fill="black" stroke="black" points="631.39,-54.84 636.15,-45.37 626.52,-49.8 631.39,-54.84"/>
<text xml:space="preserve" text-anchor="middle" x="657.81" y="-69.2" font-family="Arial" font-size="9.00">remember(key, val)</text>
</g>
<!-- Metrics -->
<g id="node7" class="node">
<title>Metrics</title>
<path fill="none" stroke="black" d="M287.38,-40C287.38,-42.21 259.25,-44 224.62,-44 190,-44 161.88,-42.21 161.88,-40 161.88,-40 161.88,-4 161.88,-4 161.88,-1.79 190,0 224.62,0 259.25,0 287.38,-1.79 287.38,-4 287.38,-4 287.38,-40 287.38,-40"/>
<path fill="none" stroke="black" d="M287.38,-40C287.38,-37.79 259.25,-36 224.62,-36 190,-36 161.88,-37.79 161.88,-40"/>
<text xml:space="preserve" text-anchor="middle" x="224.62" y="-24.5" font-family="Arial" font-size="10.00">PWN::AI::Agent::Metrics</text>
<text xml:space="preserve" text-anchor="middle" x="224.62" y="-12.5" font-family="Arial" font-size="10.00">(~/.pwn/metrics.json)</text>
</g>
<!-- ToolCall&#45;&gt;Metrics -->
<g id="edge9" class="edge">
<title>ToolCall&#45;&gt;Metrics</title>
<path fill="none" stroke="black" d="M415.43,-108.05C400.31,-102.66 383.99,-97.25 368.62,-93 346.47,-86.87 339.2,-91.59 317.88,-83 297.87,-74.94 277.52,-62.44 260.96,-50.94"/>
<polygon fill="black" stroke="black" points="263.08,-48.15 252.91,-45.2 259.02,-53.85 263.08,-48.15"/>
<text xml:space="preserve" text-anchor="middle" x="369.25" y="-74.45" font-family="Arial" font-size="9.00">record(success, duration,</text>
<text xml:space="preserve" text-anchor="middle" x="369.25" y="-63.95" font-family="Arial" font-size="9.00">tool=...)</text>
</g>
<!-- Learning -->
<g id="node8" class="node">
<title>Learning</title>
<path fill="none" stroke="black" d="M460.62,-40C460.62,-42.21 431.49,-44 395.62,-44 359.76,-44 330.62,-42.21 330.62,-40 330.62,-40 330.62,-4 330.62,-4 330.62,-1.79 359.76,0 395.62,0 431.49,0 460.62,-1.79 460.62,-4 460.62,-4 460.62,-40 460.62,-40"/>
<path fill="none" stroke="black" d="M460.62,-40C460.62,-37.79 431.49,-36 395.62,-36 359.76,-36 330.62,-37.79 330.62,-40"/>
<text xml:space="preserve" text-anchor="middle" x="395.62" y="-24.5" font-family="Arial" font-size="10.00">PWN::AI::Agent::Learning</text>
<text xml:space="preserve" text-anchor="middle" x="395.62" y="-12.5" font-family="Arial" font-size="10.00">(~/.pwn/learning.jsonl)</text>
</g>
<!-- ToolCall&#45;&gt;Learning -->
<g id="edge11" class="edge">
<title>ToolCall&#45;&gt;Learning</title>
<path fill="none" stroke="black" d="M453.3,-101.45C444.46,-89.21 434.08,-74.9 424.62,-62 422.59,-59.23 420.48,-56.36 418.35,-53.48"/>
<polygon fill="black" stroke="black" points="421.3,-51.58 412.53,-45.63 415.68,-55.75 421.3,-51.58"/>
<text xml:space="preserve" text-anchor="middle" x="514.82" y="-69.2" font-family="Arial" font-size="9.00">note_outcome(task, success, details)</text>
</g>
<!-- REPL -->
<g id="node11" class="node">
<title>REPL</title>
<path fill="none" stroke="black" d="M949.62,-40C949.62,-40 855.62,-40 855.62,-40 849.62,-40 843.62,-34 843.62,-28 843.62,-28 843.62,-16 843.62,-16 843.62,-10 849.62,-4 855.62,-4 855.62,-4 949.62,-4 949.62,-4 955.62,-4 961.62,-10 961.62,-16 961.62,-16 961.62,-28 961.62,-28 961.62,-34 955.62,-40 949.62,-40"/>
<text xml:space="preserve" text-anchor="middle" x="902.62" y="-24.5" font-family="Arial" font-size="10.00">PWN REPL</text>
<text xml:space="preserve" text-anchor="middle" x="902.62" y="-12.5" font-family="Arial" font-size="10.00">(Full PWN namespace)</text>
</g>
<!-- ToolCall&#45;&gt;REPL -->
<g id="edge3" class="edge">
<title>ToolCall&#45;&gt;REPL</title>
<path fill="none" stroke="black" d="M564.63,-126.04C629.65,-120.35 718.82,-108.32 793.62,-83 794.57,-82.68 830.75,-62.73 861.17,-45.93"/>
<polygon fill="black" stroke="black" points="862.82,-49.01 869.88,-41.11 859.44,-42.89 862.82,-49.01"/>
<text xml:space="preserve" text-anchor="middle" x="890.35" y="-69.2" font-family="Arial" font-size="9.00">pwn_eval(code) or shell(cmd)</text>
</g>
<!-- Introspection -->
<g id="node5" class="node">
<title>Introspection</title>
<ellipse fill="lightblue" stroke="black" cx="291.62" cy="-242.85" rx="57.98" ry="22.63"/>
<text xml:space="preserve" text-anchor="middle" x="291.62" y="-245.35" font-family="Arial" font-size="10.00">Introspection &amp;</text>
<text xml:space="preserve" text-anchor="middle" x="291.62" y="-233.35" font-family="Arial" font-size="10.00">Reflection</text>
</g>
<!-- Skills -->
<g id="node9" class="node">
<title>Skills</title>
<path fill="none" stroke="black" d="M836,-260.85C836,-263.06 813.42,-264.85 785.62,-264.85 757.83,-264.85 735.25,-263.06 735.25,-260.85 735.25,-260.85 735.25,-224.85 735.25,-224.85 735.25,-222.65 757.83,-220.85 785.62,-220.85 813.42,-220.85 836,-222.65 836,-224.85 836,-224.85 836,-260.85 836,-260.85"/>
<path fill="none" stroke="black" d="M836,-260.85C836,-258.65 813.42,-256.85 785.62,-256.85 757.83,-256.85 735.25,-258.65 735.25,-260.85"/>
<text xml:space="preserve" text-anchor="middle" x="785.62" y="-245.35" font-family="Arial" font-size="10.00">PWN::Skills</text>
<text xml:space="preserve" text-anchor="middle" x="785.62" y="-233.35" font-family="Arial" font-size="10.00">(~/.pwn/skills/*.md)</text>
</g>
<!-- Introspection&#45;&gt;Skills -->
<g id="edge13" class="edge">
<title>Introspection&#45;&gt;Skills</title>
<path fill="none" stroke="black" d="M303.33,-265.34C314.64,-284.41 333.71,-310.51 358.62,-322.48 410.92,-347.6 431.11,-324.93 489.12,-325.63 594.68,-326.9 632.91,-371.08 726.62,-322.48 746.16,-312.35 760.9,-292.47 770.76,-275.1"/>
<polygon fill="black" stroke="black" points="773.68,-277.07 775.29,-266.6 767.5,-273.78 773.68,-277.07"/>
<text xml:space="preserve" text-anchor="middle" x="541.62" y="-342.93" font-family="Arial" font-size="9.00">distill_skill(name, content,</text>
<text xml:space="preserve" text-anchor="middle" x="541.62" y="-332.43" font-family="Arial" font-size="9.00">references)</text>
</g>
<!-- Introspection&#45;&gt;History -->
<g id="edge15" class="edge">
<title>Introspection&#45;&gt;History</title>
<path fill="none" stroke="black" d="M235.97,-236.03C192.76,-230.23 137.91,-219.64 123.88,-202.23 115.74,-192.14 114.25,-178.27 115.24,-165.6"/>
<polygon fill="black" stroke="black" points="118.67,-166.32 116.53,-155.95 111.73,-165.4 118.67,-166.32"/>
<text xml:space="preserve" text-anchor="middle" x="155.75" y="-188.43" font-family="Arial" font-size="9.00">Update session</text>
</g>
<!-- Memory&#45;&gt;ToolCall -->
<g id="edge8" class="edge">
<title>Memory&#45;&gt;ToolCall</title>
<path fill="none" stroke="black" d="M687.64,-44.42C700,-56.15 709.54,-70.74 699.62,-83 683.44,-103.01 626.56,-115.06 574.04,-122.1"/>
<polygon fill="black" stroke="black" points="573.9,-118.59 564.42,-123.34 574.79,-125.54 573.9,-118.59"/>
<text xml:space="preserve" text-anchor="middle" x="746.87" y="-74.45" font-family="Arial" font-size="9.00">recall(query) injected</text>
<text xml:space="preserve" text-anchor="middle" x="746.87" y="-63.95" font-family="Arial" font-size="9.00">into prompts</text>
</g>
<!-- Metrics&#45;&gt;Introspection -->
<g id="edge10" class="edge">
<title>Metrics&#45;&gt;Introspection</title>
<path fill="none" stroke="black" d="M216.99,-44.37C208.16,-72.7 196.78,-123.73 213.12,-163.23 221.71,-183.98 238.73,-202.12 254.73,-215.73"/>
<polygon fill="black" stroke="black" points="252.31,-218.27 262.28,-221.86 256.72,-212.84 252.31,-218.27"/>
<text xml:space="preserve" text-anchor="middle" x="239.38" y="-128.81" font-family="Arial" font-size="9.00">per&#45;tool stats</text>
</g>
<!-- Learning&#45;&gt;Introspection -->
<g id="edge12" class="edge">
<title>Learning&#45;&gt;Introspection</title>
<path fill="none" stroke="black" d="M330.35,-39.57C319.33,-45.06 309.07,-52.35 301.62,-62 269.11,-104.17 275.42,-169.82 283.3,-209.05"/>
<polygon fill="black" stroke="black" points="279.83,-209.58 285.38,-218.61 286.67,-208.09 279.83,-209.58"/>
<text xml:space="preserve" text-anchor="middle" x="323.33" y="-128.81" font-family="Arial" font-size="9.00">reflect on transcript</text>
</g>
<!-- Skills&#45;&gt;ToolCall -->
<g id="edge14" class="edge">
<title>Skills&#45;&gt;ToolCall</title>
<path fill="none" stroke="black" d="M774.19,-220.58C765.84,-207.15 753.28,-190.63 737.62,-181.23 710.08,-164.68 635.42,-151.96 572.65,-143.76"/>
<polygon fill="black" stroke="black" points="573.35,-140.33 562.99,-142.53 572.46,-147.27 573.35,-140.33"/>
<text xml:space="preserve" text-anchor="middle" x="816.11" y="-193.68" font-family="Arial" font-size="9.00">skill_list / skill_view</text>
<text xml:space="preserve" text-anchor="middle" x="816.11" y="-183.18" font-family="Arial" font-size="9.00">injected into future prompts</text>
</g>
<!-- History&#45;&gt;PwnAI -->
<g id="edge17" class="edge">
<title>History&#45;&gt;PwnAI</title>
<path fill="none" stroke="black" d="M155.7,-153.21C162.48,-156.86 169.67,-160.39 176.62,-163.23 243.8,-190.58 323.55,-211.42 382.4,-224.74"/>
<polygon fill="black" stroke="black" points="381.51,-228.13 392.03,-226.9 383.04,-221.3 381.51,-228.13"/>
<text xml:space="preserve" text-anchor="middle" x="340.33" y="-188.43" font-family="Arial" font-size="9.00">context from prior sessions</text>
</g>
<!-- REPL&#45;&gt;ToolCall -->
<g id="edge4" class="edge">
<title>REPL&#45;&gt;ToolCall</title>
<path fill="none" stroke="black" d="M932.83,-40.31C950.24,-52.43 966.37,-68.91 953.62,-83 928.87,-110.37 710.31,-122.87 577.13,-128"/>
<polygon fill="black" stroke="black" points="577.08,-124.5 567.22,-128.37 577.34,-131.49 577.08,-124.5"/>
<text xml:space="preserve" text-anchor="middle" x="1014.82" y="-69.2" font-family="Arial" font-size="9.00">Results / stdout / exceptions</text>
</g>
</g>
</svg>
