<?xml version="1.0" encoding="UTF-8" standalone="no"?>
<!DOCTYPE svg PUBLIC "-//W3C//DTD SVG 1.1//EN"
 "http://www.w3.org/Graphics/SVG/1.1/DTD/svg11.dtd">
<!-- Generated by graphviz version 14.1.2 (0)
 -->
<!-- Title: PWN_AI_Feedback_Learning_Loop Pages: 1 -->
<svg width="1891pt" height="723pt"
 viewBox="0.00 0.00 1891.00 723.00" xmlns="http://www.w3.org/2000/svg" xmlns:xlink="http://www.w3.org/1999/xlink">
<g id="graph0" class="graph" transform="scale(1 1) rotate(0) translate(43.2 679.95)">
<title>PWN_AI_Feedback_Learning_Loop</title>
<polygon fill="#0f172a" stroke="none" points="-43.2,43.2 -43.2,-679.95 1847.84,-679.95 1847.84,43.2 -43.2,43.2"/>
<text xml:space="preserve" text-anchor="start" x="708.82" y="-614.75" font-family="Helvetica,sans-Serif" font-weight="bold" font-size="20.00" fill="#e2e8f0">pwn&#45;ai — Closed Self&#45;Improvement Loop</text>
<text xml:space="preserve" text-anchor="start" x="715.94" y="-603.3" font-family="Helvetica,sans-Serif" font-size="11.00" fill="#94a3b8">Introspection (self) &#160;⟷ &#160;Extrospection (world) &#160;· &#160;Mistakes (negative feedback)</text>
<g id="clust2" class="cluster">
<title>cluster_core</title>
<path fill="#2e1065" stroke="#6d28d9" stroke-width="2" d="M376.77,-424C376.77,-424 713.77,-424 713.77,-424 719.77,-424 725.77,-430 725.77,-436 725.77,-436 725.77,-495.25 725.77,-495.25 725.77,-501.25 719.77,-507.25 713.77,-507.25 713.77,-507.25 376.77,-507.25 376.77,-507.25 370.77,-507.25 364.77,-501.25 364.77,-495.25 364.77,-495.25 364.77,-436 364.77,-436 364.77,-430 370.77,-424 376.77,-424"/>
<text xml:space="preserve" text-anchor="middle" x="545.27" y="-484.25" font-family="Helvetica,sans-Serif" font-size="20.00" fill="#ddd6fe">PWN::AI::Agent::Loop</text>
</g>
<g id="clust4" class="cluster">
<title>cluster_intro</title>
<path fill="#022c22" stroke="#047857" stroke-width="2" d="M666.77,-257.75C666.77,-257.75 1178.77,-257.75 1178.77,-257.75 1184.77,-257.75 1190.77,-263.75 1190.77,-269.75 1190.77,-269.75 1190.77,-355 1190.77,-355 1190.77,-361 1184.77,-367 1178.77,-367 1178.77,-367 666.77,-367 666.77,-367 660.77,-367 654.77,-361 654.77,-355 654.77,-355 654.77,-269.75 654.77,-269.75 654.77,-263.75 660.77,-257.75 666.77,-257.75"/>
<text xml:space="preserve" text-anchor="middle" x="922.77" y="-344" font-family="Helvetica,sans-Serif" font-size="20.00" fill="#a7f3d0">INTROSPECTION &#160;(self)</text>
</g>
<g id="clust5" class="cluster">
<title>cluster_extro</title>
<path fill="#422006" stroke="#a16207" stroke-width="2" d="M182.77,-264.5C182.77,-264.5 615.77,-264.5 615.77,-264.5 621.77,-264.5 627.77,-270.5 627.77,-276.5 627.77,-276.5 627.77,-348.25 627.77,-348.25 627.77,-354.25 621.77,-360.25 615.77,-360.25 615.77,-360.25 182.77,-360.25 182.77,-360.25 176.77,-360.25 170.77,-354.25 170.77,-348.25 170.77,-348.25 170.77,-276.5 170.77,-276.5 170.77,-270.5 176.77,-264.5 182.77,-264.5"/>
<text xml:space="preserve" text-anchor="middle" x="399.27" y="-337.25" font-family="Helvetica,sans-Serif" font-size="20.00" fill="#fde68a">EXTROSPECTION &#160;(world)</text>
</g>
<g id="clust7" class="cluster">
<title>cluster_store</title>
<path fill="#1e293b" stroke="#334155" stroke-dasharray="5,2" d="M326.77,-8C326.77,-8 1011.77,-8 1011.77,-8 1017.77,-8 1023.77,-14 1023.77,-20 1023.77,-20 1023.77,-79.25 1023.77,-79.25 1023.77,-85.25 1017.77,-91.25 1011.77,-91.25 1011.77,-91.25 326.77,-91.25 326.77,-91.25 320.77,-91.25 314.77,-85.25 314.77,-79.25 314.77,-79.25 314.77,-20 314.77,-20 314.77,-14 320.77,-8 326.77,-8"/>
<text xml:space="preserve" text-anchor="middle" x="669.27" y="-68.25" font-family="Helvetica,sans-Serif" font-size="20.00" fill="#94a3b8">~/.pwn/</text>
</g>
<!-- User -->
<g id="node1" class="node">
<title>User</title>
<path fill="#7dd3fc" stroke="#334155" stroke-width="1.4" d="M574.64,-597.75C574.64,-597.75 506.89,-597.75 506.89,-597.75 500.89,-597.75 494.89,-591.75 494.89,-585.75 494.89,-585.75 494.89,-573.75 494.89,-573.75 494.89,-567.75 500.89,-561.75 506.89,-561.75 506.89,-561.75 574.64,-561.75 574.64,-561.75 580.64,-561.75 586.64,-567.75 586.64,-573.75 586.64,-573.75 586.64,-585.75 586.64,-585.75 586.64,-591.75 580.64,-597.75 574.64,-597.75"/>
<text xml:space="preserve" text-anchor="middle" x="540.77" y="-576.05" font-family="Helvetica,sans-Serif" font-size="11.00" fill="#0f172a">👤 &#160;Researcher</text>
</g>
<!-- Prompt -->
<g id="node4" class="node">
<title>Prompt</title>
<path fill="#c4b5fd" stroke="#334155" stroke-width="1.4" d="M562.27,-468C562.27,-468 501.27,-468 501.27,-468 495.27,-468 489.27,-462 489.27,-456 489.27,-456 489.27,-444 489.27,-444 489.27,-438 495.27,-432 501.27,-432 501.27,-432 562.27,-432 562.27,-432 568.27,-432 574.27,-438 574.27,-444 574.27,-444 574.27,-456 574.27,-456 574.27,-462 568.27,-468 562.27,-468"/>
<text xml:space="preserve" text-anchor="middle" x="531.77" y="-453.05" font-family="Helvetica,sans-Serif" font-size="11.00" fill="#0f172a">PromptBuilder</text>
<text xml:space="preserve" text-anchor="middle" x="531.77" y="-439.55" font-family="Helvetica,sans-Serif" font-size="11.00" fill="#0f172a">inject context</text>
</g>
<!-- User&#45;&gt;Prompt -->
<g id="edge1" class="edge">
<title>User&#45;&gt;Prompt</title>
<path fill="none" stroke="#38bdf8" stroke-width="2" d="M539.54,-561.25C538.05,-540.16 535.53,-504.42 533.77,-479.36"/>
<polygon fill="#38bdf8" stroke="#38bdf8" stroke-width="2" points="536.58,-479.5 533.23,-471.71 531,-479.89 536.58,-479.5"/>
<text xml:space="preserve" text-anchor="middle" x="545.06" y="-517.2" font-family="Helvetica,sans-Serif" font-size="9.00" fill="#cbd5e1">task</text>
</g>
<!-- Mistakes -->
<g id="node9" class="node">
<title>Mistakes</title>
<path fill="#6ee7b7" stroke="#334155" stroke-width="2" d="M1002.02,-327.75C1002.02,-327.75 855.52,-327.75 855.52,-327.75 849.52,-327.75 843.52,-321.75 843.52,-315.75 843.52,-315.75 843.52,-277.75 843.52,-277.75 843.52,-271.75 849.52,-265.75 855.52,-265.75 855.52,-265.75 1002.02,-265.75 1002.02,-265.75 1008.02,-265.75 1014.02,-271.75 1014.02,-277.75 1014.02,-277.75 1014.02,-315.75 1014.02,-315.75 1014.02,-321.75 1008.02,-327.75 1002.02,-327.75"/>
<text xml:space="preserve" text-anchor="middle" x="928.77" y="-313.3" font-family="Helvetica,sans-Serif" font-size="11.00" fill="#0f172a">Mistakes</text>
<text xml:space="preserve" text-anchor="middle" x="928.77" y="-299.8" font-family="Helvetica,sans-Serif" font-size="11.00" fill="#0f172a">record · resolve</text>
<text xml:space="preserve" text-anchor="middle" x="928.77" y="-286.3" font-family="Helvetica,sans-Serif" font-size="11.00" fill="#0f172a">guard · correction_hint</text>
<text xml:space="preserve" text-anchor="middle" x="928.77" y="-272.8" font-family="Helvetica,sans-Serif" font-size="11.00" fill="#0f172a">[REPEATING] · [REGRESSED]</text>
</g>
<!-- User&#45;&gt;Mistakes -->
<g id="edge9" class="edge">
<title>User&#45;&gt;Mistakes</title>
<path fill="none" stroke="#fb7185" stroke-width="1.3" stroke-dasharray="5,2" d="M494.25,-567.02C415.12,-547.04 262.68,-508.42 261.77,-507.25 239.08,-478.02 240.43,-454.22 261.77,-424 299.31,-370.83 335.74,-386.66 399.77,-375 445.91,-366.6 776.92,-380.71 821.77,-367 844.17,-360.15 866.35,-347.12 884.65,-334.2"/>
<polygon fill="#fb7185" stroke="#fb7185" stroke-width="1.3" points="885.82,-336.8 890.65,-329.84 882.53,-332.27 885.82,-336.8"/>
<text xml:space="preserve" text-anchor="middle" x="308.27" y="-451.95" font-family="Helvetica,sans-Serif" font-size="9.00" fill="#cbd5e1">&quot;that&#39;s wrong&quot;</text>
<text xml:space="preserve" text-anchor="middle" x="308.27" y="-441.45" font-family="Helvetica,sans-Serif" font-size="9.00" fill="#cbd5e1">check_user_correction</text>
</g>
<!-- LLM -->
<g id="node2" class="node">
<title>LLM</title>
<path fill="#c4b5fd" stroke="#334155" stroke-width="1.4" d="M726.77,-597.75C726.77,-597.75 650.77,-597.75 650.77,-597.75 644.77,-597.75 638.77,-591.75 638.77,-585.75 638.77,-585.75 638.77,-573.75 638.77,-573.75 638.77,-567.75 644.77,-561.75 650.77,-561.75 650.77,-561.75 726.77,-561.75 726.77,-561.75 732.77,-561.75 738.77,-567.75 738.77,-573.75 738.77,-573.75 738.77,-585.75 738.77,-585.75 738.77,-591.75 732.77,-597.75 726.77,-597.75"/>
<text xml:space="preserve" text-anchor="middle" x="688.77" y="-576.05" font-family="Helvetica,sans-Serif" font-size="11.00" fill="#0f172a">🤖 &#160;LLM Provider</text>
</g>
<!-- Dispatch -->
<g id="node5" class="node">
<title>Dispatch</title>
<path fill="#c4b5fd" stroke="#334155" stroke-width="1.4" d="M705.77,-468C705.77,-468 671.77,-468 671.77,-468 665.77,-468 659.77,-462 659.77,-456 659.77,-456 659.77,-444 659.77,-444 659.77,-438 665.77,-432 671.77,-432 671.77,-432 705.77,-432 705.77,-432 711.77,-432 717.77,-438 717.77,-444 717.77,-444 717.77,-456 717.77,-456 717.77,-462 711.77,-468 705.77,-468"/>
<text xml:space="preserve" text-anchor="middle" x="688.77" y="-453.05" font-family="Helvetica,sans-Serif" font-size="11.00" fill="#0f172a">Dispatch</text>
<text xml:space="preserve" text-anchor="middle" x="688.77" y="-439.55" font-family="Helvetica,sans-Serif" font-size="11.00" fill="#0f172a">tool calls</text>
</g>
<!-- LLM&#45;&gt;Dispatch -->
<g id="edge2" class="edge">
<title>LLM&#45;&gt;Dispatch</title>
<path fill="none" stroke="#a78bfa" stroke-width="2" d="M688.77,-550.28C688.77,-529.21 688.77,-500.63 688.77,-479.54"/>
<polygon fill="#a78bfa" stroke="#a78bfa" stroke-width="2" points="685.97,-550.23 688.77,-558.23 691.57,-550.23 685.97,-550.23"/>
<polygon fill="#a78bfa" stroke="#a78bfa" stroke-width="2" points="691.57,-479.72 688.77,-471.72 685.97,-479.72 691.57,-479.72"/>
<text xml:space="preserve" text-anchor="middle" x="708.27" y="-517.2" font-family="Helvetica,sans-Serif" font-size="9.00" fill="#cbd5e1">tool_calls</text>
</g>
<!-- World -->
<g id="node3" class="node">
<title>World</title>
<path fill="#fda4af" stroke="#334155" stroke-width="1.4" d="M439.64,-597.75C439.64,-597.75 317.89,-597.75 317.89,-597.75 311.89,-597.75 305.89,-591.75 305.89,-585.75 305.89,-585.75 305.89,-573.75 305.89,-573.75 305.89,-567.75 311.89,-561.75 317.89,-561.75 317.89,-561.75 439.64,-561.75 439.64,-561.75 445.64,-561.75 451.64,-567.75 451.64,-573.75 451.64,-573.75 451.64,-585.75 451.64,-585.75 451.64,-591.75 445.64,-597.75 439.64,-597.75"/>
<text xml:space="preserve" text-anchor="middle" x="378.77" y="-582.8" font-family="Helvetica,sans-Serif" font-size="11.00" fill="#0f172a">🌍 &#160;Host · Net · Repo</text>
<text xml:space="preserve" text-anchor="middle" x="378.77" y="-569.3" font-family="Helvetica,sans-Serif" font-size="11.00" fill="#0f172a">Toolchain · RF · Web · Intel</text>
</g>
<!-- Result -->
<g id="node6" class="node">
<title>Result</title>
<path fill="#c4b5fd" stroke="#334155" stroke-width="1.4" d="M434.64,-468C434.64,-468 384.89,-468 384.89,-468 378.89,-468 372.89,-462 372.89,-456 372.89,-456 372.89,-444 372.89,-444 372.89,-438 378.89,-432 384.89,-432 384.89,-432 434.64,-432 434.64,-432 440.64,-432 446.64,-438 446.64,-444 446.64,-444 446.64,-456 446.64,-456 446.64,-462 440.64,-468 434.64,-468"/>
<text xml:space="preserve" text-anchor="middle" x="409.77" y="-453.05" font-family="Helvetica,sans-Serif" font-size="11.00" fill="#0f172a">Result</text>
<text xml:space="preserve" text-anchor="middle" x="409.77" y="-439.55" font-family="Helvetica,sans-Serif" font-size="11.00" fill="#0f172a">final answer</text>
</g>
<!-- World&#45;&gt;Result -->
<!-- Snapshot -->
<g id="node10" class="node">
<title>Snapshot</title>
<path fill="#fcd34d" stroke="#334155" stroke-width="1.4" d="M607.77,-321C607.77,-321 531.77,-321 531.77,-321 525.77,-321 519.77,-315 519.77,-309 519.77,-309 519.77,-284.5 519.77,-284.5 519.77,-278.5 525.77,-272.5 531.77,-272.5 531.77,-272.5 607.77,-272.5 607.77,-272.5 613.77,-272.5 619.77,-278.5 619.77,-284.5 619.77,-284.5 619.77,-309 619.77,-309 619.77,-315 613.77,-321 607.77,-321"/>
<text xml:space="preserve" text-anchor="middle" x="569.77" y="-306.55" font-family="Helvetica,sans-Serif" font-size="11.00" fill="#0f172a">snapshot · drift</text>
<text xml:space="preserve" text-anchor="middle" x="569.77" y="-293.05" font-family="Helvetica,sans-Serif" font-size="11.00" fill="#0f172a">host/net/toolchain</text>
<text xml:space="preserve" text-anchor="middle" x="569.77" y="-279.55" font-family="Helvetica,sans-Serif" font-size="11.00" fill="#0f172a">repo/env/rf/web</text>
</g>
<!-- World&#45;&gt;Snapshot -->
<g id="edge12" class="edge">
<title>World&#45;&gt;Snapshot</title>
<path fill="none" stroke="#fb7185" stroke-width="1.3" d="M452.34,-565.13C459.57,-563.93 466.81,-562.78 473.77,-561.75 541.5,-551.72 729.96,-572.73 779.77,-525.75 829.07,-479.24 849.47,-424.12 802.77,-375 790.66,-362.26 660.97,-373.81 644.77,-367 625.29,-358.81 607.69,-343.23 594.44,-328.92"/>
<polygon fill="#fb7185" stroke="#fb7185" stroke-width="1.3" points="596.64,-327.18 589.23,-323.07 592.46,-330.9 596.64,-327.18"/>
</g>
<!-- Observe -->
<g id="node11" class="node">
<title>Observe</title>
<path fill="#fcd34d" stroke="#334155" stroke-width="1.4" d="M464.27,-314.75C464.27,-314.75 355.27,-314.75 355.27,-314.75 349.27,-314.75 343.27,-308.75 343.27,-302.75 343.27,-302.75 343.27,-290.75 343.27,-290.75 343.27,-284.75 349.27,-278.75 355.27,-278.75 355.27,-278.75 464.27,-278.75 464.27,-278.75 470.27,-278.75 476.27,-284.75 476.27,-290.75 476.27,-290.75 476.27,-302.75 476.27,-302.75 476.27,-308.75 470.27,-314.75 464.27,-314.75"/>
<text xml:space="preserve" text-anchor="middle" x="409.77" y="-299.8" font-family="Helvetica,sans-Serif" font-size="11.00" fill="#0f172a">observe · intel · watch</text>
<text xml:space="preserve" text-anchor="middle" x="409.77" y="-286.3" font-family="Helvetica,sans-Serif" font-size="11.00" fill="#0f172a">recon · CVE · web DOM</text>
</g>
<!-- World&#45;&gt;Observe -->
<g id="edge13" class="edge">
<title>World&#45;&gt;Observe</title>
<path fill="none" stroke="#fb7185" stroke-width="1.3" d="M452.31,-564.9C459.55,-563.74 466.79,-562.67 473.77,-561.75 520.53,-555.59 864.86,-560.49 896.77,-525.75 908.6,-512.87 967.57,-465.4 811.77,-375 781.68,-357.54 531.53,-378.71 498.77,-367 472.96,-357.77 448.76,-337.93 432.13,-321.84"/>
<polygon fill="#fb7185" stroke="#fb7185" stroke-width="1.3" points="434.52,-320.26 426.88,-316.6 430.57,-324.23 434.52,-320.26"/>
</g>
<!-- Verify -->
<g id="node12" class="node">
<title>Verify</title>
<path fill="#fcd34d" stroke="#334155" stroke-width="2" d="M288.27,-321C288.27,-321 191.27,-321 191.27,-321 185.27,-321 179.27,-315 179.27,-309 179.27,-309 179.27,-284.5 179.27,-284.5 179.27,-278.5 185.27,-272.5 191.27,-272.5 191.27,-272.5 288.27,-272.5 288.27,-272.5 294.27,-272.5 300.27,-278.5 300.27,-284.5 300.27,-284.5 300.27,-309 300.27,-309 300.27,-315 294.27,-321 288.27,-321"/>
<text xml:space="preserve" text-anchor="middle" x="239.77" y="-306.55" font-family="Helvetica,sans-Serif" font-size="11.00" fill="#0f172a">verify (browser)</text>
<text xml:space="preserve" text-anchor="middle" x="239.77" y="-293.05" font-family="Helvetica,sans-Serif" font-size="11.00" fill="#0f172a">fact&#45;check own claims</text>
<text xml:space="preserve" text-anchor="middle" x="239.77" y="-279.55" font-family="Helvetica,sans-Serif" font-size="11.00" fill="#0f172a">revalidate_memory</text>
</g>
<!-- World&#45;&gt;Verify -->
<g id="edge14" class="edge">
<title>World&#45;&gt;Verify</title>
<path fill="none" stroke="#38bdf8" stroke-width="2" d="M452.3,-564.85C459.54,-563.7 466.79,-562.65 473.77,-561.75 524.62,-555.23 898.96,-563.39 933.77,-525.75 936.94,-522.32 935.4,-519.62 933.77,-515.25 904.82,-437.87 886.67,-409.86 811.77,-375 787.08,-363.51 347.26,-376.56 321.77,-367 301.16,-359.27 282.11,-343.93 267.57,-329.65"/>
<polygon fill="#38bdf8" stroke="#38bdf8" stroke-width="2" points="269.68,-327.81 262.09,-324.04 265.68,-331.72 269.68,-327.81"/>
<text xml:space="preserve" text-anchor="middle" x="971.59" y="-451.95" font-family="Helvetica,sans-Serif" font-size="9.00" fill="#cbd5e1">TransparentBrowser</text>
<text xml:space="preserve" text-anchor="middle" x="971.59" y="-441.45" font-family="Helvetica,sans-Serif" font-size="9.00" fill="#cbd5e1">:headless</text>
</g>
<!-- Prompt&#45;&gt;Dispatch -->
<g id="edge4" class="edge">
<title>Prompt&#45;&gt;Dispatch</title>
<path fill="none" stroke="#a78bfa" stroke-width="1.3" d="M574.7,-450C599.61,-450 624.52,-450 649.44,-450"/>
<polygon fill="#a78bfa" stroke="#a78bfa" stroke-width="1.3" points="649.39,-452.8 657.39,-450 649.39,-447.2 649.39,-452.8"/>
</g>
<!-- Dispatch&#45;&gt;Result -->
<g id="edge5" class="edge">
<title>Dispatch&#45;&gt;Result</title>
<path fill="none" stroke="#a78bfa" stroke-width="1.3" d="M671.46,-468.49C650.68,-489.19 613.69,-521.53 574.27,-534.5 538.38,-546.31 523.95,-549.49 489.27,-534.5 462.25,-522.82 440.17,-496.95 426.2,-476.88"/>
<polygon fill="#a78bfa" stroke="#a78bfa" stroke-width="1.3" points="428.59,-475.42 421.81,-470.33 423.94,-478.54 428.59,-475.42"/>
</g>
<!-- Metrics -->
<g id="node7" class="node">
<title>Metrics</title>
<path fill="#6ee7b7" stroke="#334155" stroke-width="1.4" d="M788.52,-314.75C788.52,-314.75 675.02,-314.75 675.02,-314.75 669.02,-314.75 663.02,-308.75 663.02,-302.75 663.02,-302.75 663.02,-290.75 663.02,-290.75 663.02,-284.75 669.02,-278.75 675.02,-278.75 675.02,-278.75 788.52,-278.75 788.52,-278.75 794.52,-278.75 800.52,-284.75 800.52,-290.75 800.52,-290.75 800.52,-302.75 800.52,-302.75 800.52,-308.75 794.52,-314.75 788.52,-314.75"/>
<text xml:space="preserve" text-anchor="middle" x="731.77" y="-299.8" font-family="Helvetica,sans-Serif" font-size="11.00" fill="#0f172a">Metrics</text>
<text xml:space="preserve" text-anchor="middle" x="731.77" y="-286.3" font-family="Helvetica,sans-Serif" font-size="11.00" fill="#0f172a">per&#45;tool success · avg ms</text>
</g>
<!-- Dispatch&#45;&gt;Metrics -->
<g id="edge6" class="edge">
<title>Dispatch&#45;&gt;Metrics</title>
<path fill="none" stroke="#34d399" stroke-width="1.3" d="M670.29,-431.36C657.12,-416.55 643.13,-394.72 651.52,-375 660.77,-353.24 679.5,-334.64 696.53,-321.15"/>
<polygon fill="#34d399" stroke="#34d399" stroke-width="1.3" points="697.96,-323.58 702.63,-316.51 694.57,-319.13 697.96,-323.58"/>
<text xml:space="preserve" text-anchor="middle" x="667.64" y="-382.2" font-family="Helvetica,sans-Serif" font-size="9.00" fill="#cbd5e1">record()</text>
</g>
<!-- Dispatch&#45;&gt;Mistakes -->
<g id="edge8" class="edge">
<title>Dispatch&#45;&gt;Mistakes</title>
<path fill="none" stroke="#fb7185" stroke-width="2" d="M718.28,-439.05C743.96,-429.76 781.69,-414.55 811.77,-396 839.59,-378.84 867.75,-355.43 889.46,-335.76"/>
<polygon fill="#fb7185" stroke="#fb7185" stroke-width="2" points="891.22,-337.95 895.22,-330.48 887.44,-333.82 891.22,-337.95"/>
<text xml:space="preserve" text-anchor="middle" x="858.49" y="-387.45" font-family="Helvetica,sans-Serif" font-size="9.00" fill="#cbd5e1">on failure</text>
<text xml:space="preserve" text-anchor="middle" x="858.49" y="-376.95" font-family="Helvetica,sans-Serif" font-size="9.00" fill="#cbd5e1">record()</text>
</g>
<!-- Dispatch&#45;&gt;Snapshot -->
<g id="edge10" class="edge">
<title>Dispatch&#45;&gt;Snapshot</title>
<path fill="none" stroke="#f59e0b" stroke-width="1.3" d="M659.25,-432.87C644.41,-423.61 627.03,-410.88 614.77,-396 598.9,-376.75 587.38,-351 579.97,-330.69"/>
<polygon fill="#f59e0b" stroke="#f59e0b" stroke-width="1.3" points="582.69,-329.98 577.4,-323.35 577.4,-331.83 582.69,-329.98"/>
<text xml:space="preserve" text-anchor="middle" x="626.77" y="-382.2" font-family="Helvetica,sans-Serif" font-size="9.00" fill="#cbd5e1">probe</text>
</g>
<!-- Result&#45;&gt;User -->
<g id="edge38" class="edge">
<title>Result&#45;&gt;User</title>
<path fill="none" stroke="#38bdf8" stroke-width="2" d="M422.03,-468.54C432.47,-481.87 448.77,-499.22 467.77,-507.25 481.59,-513.09 727.32,-504.48 737.77,-515.25 741.02,-518.6 740.61,-522.05 737.77,-525.75 733.37,-531.49 654.26,-551.51 597.65,-565.23"/>
<polygon fill="#38bdf8" stroke="#38bdf8" stroke-width="2" points="597.08,-562.49 589.96,-567.09 598.39,-567.94 597.08,-562.49"/>
<text xml:space="preserve" text-anchor="middle" x="755.05" y="-517.2" font-family="Helvetica,sans-Serif" font-size="9.00" fill="#cbd5e1">answer</text>
</g>
<!-- Learning -->
<g id="node8" class="node">
<title>Learning</title>
<path fill="#6ee7b7" stroke="#334155" stroke-width="1.4" d="M1170.52,-321C1170.52,-321 1069.02,-321 1069.02,-321 1063.02,-321 1057.02,-315 1057.02,-309 1057.02,-309 1057.02,-284.5 1057.02,-284.5 1057.02,-278.5 1063.02,-272.5 1069.02,-272.5 1069.02,-272.5 1170.52,-272.5 1170.52,-272.5 1176.52,-272.5 1182.52,-278.5 1182.52,-284.5 1182.52,-284.5 1182.52,-309 1182.52,-309 1182.52,-315 1176.52,-321 1170.52,-321"/>
<text xml:space="preserve" text-anchor="middle" x="1119.77" y="-306.55" font-family="Helvetica,sans-Serif" font-size="11.00" fill="#0f172a">Learning</text>
<text xml:space="preserve" text-anchor="middle" x="1119.77" y="-293.05" font-family="Helvetica,sans-Serif" font-size="11.00" fill="#0f172a">note_outcome · reflect</text>
<text xml:space="preserve" text-anchor="middle" x="1119.77" y="-279.55" font-family="Helvetica,sans-Serif" font-size="11.00" fill="#0f172a">consolidate · distill_skill</text>
</g>
<!-- Result&#45;&gt;Learning -->
<g id="edge7" class="edge">
<title>Result&#45;&gt;Learning</title>
<path fill="none" stroke="#34d399" stroke-width="1.3" d="M445.63,-431.31C452.81,-428.41 460.41,-425.77 467.77,-424 714.4,-364.49 806.38,-475.4 1035.77,-367 1055.89,-357.49 1075.27,-342.08 1090.33,-328.21"/>
<polygon fill="#34d399" stroke="#34d399" stroke-width="1.3" points="1092.05,-330.44 1095.94,-322.91 1088.2,-326.37 1092.05,-330.44"/>
<text xml:space="preserve" text-anchor="middle" x="1032.88" y="-382.2" font-family="Helvetica,sans-Serif" font-size="9.00" fill="#cbd5e1">auto_reflect</text>
</g>
<!-- Result&#45;&gt;Observe -->
<g id="edge11" class="edge">
<title>Result&#45;&gt;Observe</title>
<path fill="none" stroke="#f59e0b" stroke-width="1.3" d="M409.77,-431.35C409.77,-405.17 409.77,-355.81 409.77,-324.97"/>
<polygon fill="#f59e0b" stroke="#f59e0b" stroke-width="1.3" points="412.57,-325.25 409.77,-317.25 406.97,-325.25 412.57,-325.25"/>
<text xml:space="preserve" text-anchor="middle" x="442.39" y="-382.2" font-family="Helvetica,sans-Serif" font-size="9.00" fill="#cbd5e1">auto_extrospect</text>
</g>
<!-- Correlate -->
<g id="node13" class="node">
<title>Correlate</title>
<path fill="#fda4af" stroke="#334155" stroke-width="2" d="M675.64,-172.75C675.64,-172.75 475.89,-172.75 475.89,-172.75 469.89,-172.75 463.89,-166.75 463.89,-160.75 463.89,-160.75 463.89,-148.25 463.89,-148.25 463.89,-142.25 469.89,-136.25 475.89,-136.25 475.89,-136.25 675.64,-136.25 675.64,-136.25 681.64,-136.25 687.64,-142.25 687.64,-148.25 687.64,-148.25 687.64,-160.75 687.64,-160.75 687.64,-166.75 681.64,-172.75 675.64,-172.75"/>
<text xml:space="preserve" text-anchor="middle" x="575.77" y="-157.35" font-family="Helvetica,sans-Serif" font-size="12.00" fill="#0f172a">extro_correlate()</text>
<text xml:space="preserve" text-anchor="middle" x="575.77" y="-143.1" font-family="Helvetica,sans-Serif" font-size="12.00" fill="#0f172a">&quot;I did it wrong&quot; &#160;vs &#160;&quot;the world changed&quot;</text>
</g>
<!-- Metrics&#45;&gt;Correlate -->
<g id="edge15" class="edge">
<title>Metrics&#45;&gt;Correlate</title>
<path fill="none" stroke="#34d399" stroke-width="1.3" d="M712.33,-278.27C684.8,-253.53 634.35,-208.17 603.08,-180.05"/>
<polygon fill="#34d399" stroke="#34d399" stroke-width="1.3" points="605.23,-178.23 597.41,-174.96 601.49,-182.39 605.23,-178.23"/>
</g>
<!-- Fmet -->
<g id="node14" class="node">
<title>Fmet</title>
<path fill="#fcd34d" stroke="#334155" stroke-width="1.4" d="M541.27,-48.73C541.27,-50.53 524.91,-52 504.77,-52 484.63,-52 468.27,-50.53 468.27,-48.73 468.27,-48.73 468.27,-19.27 468.27,-19.27 468.27,-17.47 484.63,-16 504.77,-16 524.91,-16 541.27,-17.47 541.27,-19.27 541.27,-19.27 541.27,-48.73 541.27,-48.73"/>
<path fill="none" stroke="#334155" stroke-width="1.4" d="M541.27,-48.73C541.27,-46.92 524.91,-45.45 504.77,-45.45 484.63,-45.45 468.27,-46.92 468.27,-48.73"/>
<text xml:space="preserve" text-anchor="middle" x="504.77" y="-30.3" font-family="Helvetica,sans-Serif" font-size="11.00" fill="#0f172a">metrics.json</text>
</g>
<!-- Metrics&#45;&gt;Fmet -->
<g id="edge22" class="edge">
<title>Metrics&#45;&gt;Fmet</title>
<path fill="none" stroke="#94a3b8" stroke-width="1.3" d="M734.76,-278.23C739.19,-246.02 743.59,-176.97 708.77,-136.25 664.64,-84.65 621.2,-125.84 562.77,-91.25 548.84,-83.01 535.69,-70.77 525.44,-59.81"/>
<polygon fill="#94a3b8" stroke="#94a3b8" stroke-width="1.3" points="527.59,-58.01 520.15,-53.95 523.43,-61.77 527.59,-58.01"/>
</g>
<!-- Learning&#45;&gt;Correlate -->
<g id="edge16" class="edge">
<title>Learning&#45;&gt;Correlate</title>
<path fill="none" stroke="#34d399" stroke-width="1.3" d="M1071.59,-271.91C1060.04,-266.77 1047.61,-261.7 1035.77,-257.75 923.4,-220.29 791.01,-192.5 697.18,-175.42"/>
<polygon fill="#34d399" stroke="#34d399" stroke-width="1.3" points="697.96,-172.71 689.58,-174.05 696.96,-178.23 697.96,-172.71"/>
</g>
<!-- Flrn -->
<g id="node15" class="node">
<title>Flrn</title>
<path fill="#fcd34d" stroke="#334155" stroke-width="1.4" d="M1015.27,-48.73C1015.27,-50.53 997.56,-52 975.77,-52 953.97,-52 936.27,-50.53 936.27,-48.73 936.27,-48.73 936.27,-19.27 936.27,-19.27 936.27,-17.47 953.97,-16 975.77,-16 997.56,-16 1015.27,-17.47 1015.27,-19.27 1015.27,-19.27 1015.27,-48.73 1015.27,-48.73"/>
<path fill="none" stroke="#334155" stroke-width="1.4" d="M1015.27,-48.73C1015.27,-46.92 997.56,-45.45 975.77,-45.45 953.97,-45.45 936.27,-46.92 936.27,-48.73"/>
<text xml:space="preserve" text-anchor="middle" x="975.77" y="-30.3" font-family="Helvetica,sans-Serif" font-size="11.00" fill="#0f172a">learning.jsonl</text>
</g>
<!-- Learning&#45;&gt;Flrn -->
<g id="edge23" class="edge">
<title>Learning&#45;&gt;Flrn</title>
<path fill="none" stroke="#94a3b8" stroke-width="1.3" d="M1164.03,-271.94C1172.88,-267.22 1182.11,-262.31 1190.77,-257.75 1214.69,-245.15 1230.72,-252.85 1244.77,-229.75 1274.9,-180.19 1280.7,-144.78 1244.77,-99.25 1217.95,-65.28 1095.51,-47.29 1025.42,-39.62"/>
<polygon fill="#94a3b8" stroke="#94a3b8" stroke-width="1.3" points="1026.1,-36.88 1017.85,-38.82 1025.51,-42.45 1026.1,-36.88"/>
</g>
<!-- Fmem -->
<g id="node17" class="node">
<title>Fmem</title>
<path fill="#fcd34d" stroke="#334155" stroke-width="1.4" d="M785.52,-48.73C785.52,-50.53 768.15,-52 746.77,-52 725.39,-52 708.02,-50.53 708.02,-48.73 708.02,-48.73 708.02,-19.27 708.02,-19.27 708.02,-17.47 725.39,-16 746.77,-16 768.15,-16 785.52,-17.47 785.52,-19.27 785.52,-19.27 785.52,-48.73 785.52,-48.73"/>
<path fill="none" stroke="#334155" stroke-width="1.4" d="M785.52,-48.73C785.52,-46.92 768.15,-45.45 746.77,-45.45 725.39,-45.45 708.02,-46.92 708.02,-48.73"/>
<text xml:space="preserve" text-anchor="middle" x="746.77" y="-30.3" font-family="Helvetica,sans-Serif" font-size="11.00" fill="#0f172a">memory.json</text>
</g>
<!-- Learning&#45;&gt;Fmem -->
<g id="edge26" class="edge">
<title>Learning&#45;&gt;Fmem</title>
<path fill="none" stroke="#94a3b8" stroke-width="1.3" d="M1105.94,-271.82C1085.11,-237.61 1042.65,-174.63 991.77,-136.25 957.9,-110.7 944.97,-109.36 903.77,-99.25 862.19,-89.05 846.97,-108.47 807.77,-91.25 791.97,-84.31 777.61,-71.55 766.79,-59.94"/>
<polygon fill="#94a3b8" stroke="#94a3b8" stroke-width="1.3" points="768.93,-58.13 761.52,-54.02 764.74,-61.85 768.93,-58.13"/>
<text xml:space="preserve" text-anchor="middle" x="1044.3" y="-151.2" font-family="Helvetica,sans-Serif" font-size="9.00" fill="#cbd5e1">lesson</text>
</g>
<!-- Fskl -->
<g id="node18" class="node">
<title>Fskl</title>
<path fill="#fcd34d" stroke="#334155" stroke-width="1.4" d="M892.77,-48.73C892.77,-50.53 878.43,-52 860.77,-52 843.11,-52 828.77,-50.53 828.77,-48.73 828.77,-48.73 828.77,-19.27 828.77,-19.27 828.77,-17.47 843.11,-16 860.77,-16 878.43,-16 892.77,-17.47 892.77,-19.27 892.77,-19.27 892.77,-48.73 892.77,-48.73"/>
<path fill="none" stroke="#334155" stroke-width="1.4" d="M892.77,-48.73C892.77,-46.92 878.43,-45.45 860.77,-45.45 843.11,-45.45 828.77,-46.92 828.77,-48.73"/>
<text xml:space="preserve" text-anchor="middle" x="860.77" y="-30.3" font-family="Helvetica,sans-Serif" font-size="11.00" fill="#0f172a">skills/*.md</text>
</g>
<!-- Learning&#45;&gt;Fskl -->
<g id="edge27" class="edge">
<title>Learning&#45;&gt;Fskl</title>
<path fill="none" stroke="#94a3b8" stroke-width="1.3" d="M1131.34,-272C1149.96,-229.99 1179.87,-142.88 1131.77,-99.25 1113.9,-83.04 936.79,-101.12 914.77,-91.25 900.01,-84.64 887.27,-71.95 877.88,-60.3"/>
<polygon fill="#94a3b8" stroke="#94a3b8" stroke-width="1.3" points="880.19,-58.72 873.12,-54.05 875.74,-62.11 880.19,-58.72"/>
<text xml:space="preserve" text-anchor="middle" x="1165.63" y="-151.2" font-family="Helvetica,sans-Serif" font-size="9.00" fill="#cbd5e1">skill</text>
</g>
<!-- Mistakes&#45;&gt;Dispatch -->
<g id="edge36" class="edge">
<title>Mistakes&#45;&gt;Dispatch</title>
<path fill="none" stroke="#fb7185" stroke-width="2" stroke-dasharray="5,2" d="M891.01,-328.6C871.51,-342.8 846.64,-358.37 821.77,-367 803.79,-373.24 752.78,-365.12 736.52,-375 718.98,-385.65 706.71,-405.46 699.01,-421.9"/>
<polygon fill="#fb7185" stroke="#fb7185" stroke-width="2" points="696.62,-420.37 696,-428.82 701.76,-422.6 696.62,-420.37"/>
<text xml:space="preserve" text-anchor="middle" x="769.14" y="-387.45" font-family="Helvetica,sans-Serif" font-size="9.00" fill="#cbd5e1">correction_hint</text>
<text xml:space="preserve" text-anchor="middle" x="769.14" y="-376.95" font-family="Helvetica,sans-Serif" font-size="9.00" fill="#cbd5e1">(inline, next iter)</text>
</g>
<!-- Mistakes&#45;&gt;Correlate -->
<g id="edge17" class="edge">
<title>Mistakes&#45;&gt;Correlate</title>
<path fill="none" stroke="#34d399" stroke-width="1.3" d="M850.86,-264.8C784.18,-238.3 689.85,-200.83 630.78,-177.36"/>
<polygon fill="#34d399" stroke="#34d399" stroke-width="1.3" points="631.91,-174.79 623.44,-174.44 629.84,-180 631.91,-174.79"/>
</g>
<!-- Fmis -->
<g id="node16" class="node">
<title>Fmis</title>
<path fill="#fcd34d" stroke="#334155" stroke-width="1.4" d="M665.02,-48.73C665.02,-50.53 646.98,-52 624.77,-52 602.56,-52 584.52,-50.53 584.52,-48.73 584.52,-48.73 584.52,-19.27 584.52,-19.27 584.52,-17.47 602.56,-16 624.77,-16 646.98,-16 665.02,-17.47 665.02,-19.27 665.02,-19.27 665.02,-48.73 665.02,-48.73"/>
<path fill="none" stroke="#334155" stroke-width="1.4" d="M665.02,-48.73C665.02,-46.92 646.98,-45.45 624.77,-45.45 602.56,-45.45 584.52,-46.92 584.52,-48.73"/>
<text xml:space="preserve" text-anchor="middle" x="624.77" y="-30.3" font-family="Helvetica,sans-Serif" font-size="11.00" fill="#0f172a">mistakes.json</text>
</g>
<!-- Mistakes&#45;&gt;Fmis -->
<g id="edge24" class="edge">
<title>Mistakes&#45;&gt;Fmis</title>
<path fill="none" stroke="#94a3b8" stroke-width="1.3" d="M896.64,-264.86C861.75,-231.82 803.87,-178.47 750.77,-136.25 723.55,-114.61 713.92,-112.97 686.77,-91.25 674.32,-81.29 661.16,-69.54 650.18,-59.36"/>
<polygon fill="#94a3b8" stroke="#94a3b8" stroke-width="1.3" points="652.15,-57.37 644.4,-53.95 648.32,-61.46 652.15,-57.37"/>
</g>
<!-- Mistakes&#45;&gt;Fmem -->
<g id="edge25" class="edge">
<title>Mistakes&#45;&gt;Fmem</title>
<path fill="none" stroke="#94a3b8" stroke-width="1.3" d="M929.54,-265.05C928.83,-221.04 920.41,-140.75 871.77,-99.25 849.96,-80.64 833.77,-103.32 807.77,-91.25 792.23,-84.03 777.96,-71.38 767.14,-59.9"/>
<polygon fill="#94a3b8" stroke="#94a3b8" stroke-width="1.3" points="769.3,-58.12 761.86,-54.05 765.14,-61.87 769.3,-58.12"/>
<text xml:space="preserve" text-anchor="middle" x="948.53" y="-151.2" font-family="Helvetica,sans-Serif" font-size="9.00" fill="#cbd5e1">resolve→lesson</text>
</g>
<!-- Snapshot&#45;&gt;Correlate -->
<g id="edge18" class="edge">
<title>Snapshot&#45;&gt;Correlate</title>
<path fill="none" stroke="#f59e0b" stroke-width="1.3" d="M570.79,-271.96C571.83,-247.51 573.46,-209.45 574.57,-183.54"/>
<polygon fill="#f59e0b" stroke="#f59e0b" stroke-width="1.3" points="577.37,-183.68 574.91,-175.56 571.77,-183.44 577.37,-183.68"/>
</g>
<!-- Observe&#45;&gt;Correlate -->
<g id="edge19" class="edge">
<title>Observe&#45;&gt;Correlate</title>
<path fill="none" stroke="#f59e0b" stroke-width="1.3" d="M430.46,-278.27C459.74,-253.53 513.43,-208.17 546.71,-180.05"/>
<polygon fill="#f59e0b" stroke="#f59e0b" stroke-width="1.3" points="548.49,-182.22 552.79,-174.91 544.87,-177.94 548.49,-182.22"/>
</g>
<!-- Fext -->
<g id="node19" class="node">
<title>Fext</title>
<path fill="#fcd34d" stroke="#334155" stroke-width="1.4" d="M424.89,-48.73C424.89,-50.53 401.98,-52 373.77,-52 345.56,-52 322.64,-50.53 322.64,-48.73 322.64,-48.73 322.64,-19.27 322.64,-19.27 322.64,-17.47 345.56,-16 373.77,-16 401.98,-16 424.89,-17.47 424.89,-19.27 424.89,-19.27 424.89,-48.73 424.89,-48.73"/>
<path fill="none" stroke="#334155" stroke-width="1.4" d="M424.89,-48.73C424.89,-46.92 401.98,-45.45 373.77,-45.45 345.56,-45.45 322.64,-46.92 322.64,-48.73"/>
<text xml:space="preserve" text-anchor="middle" x="373.77" y="-30.3" font-family="Helvetica,sans-Serif" font-size="11.00" fill="#0f172a">extrospection.json</text>
</g>
<!-- Observe&#45;&gt;Fext -->
<g id="edge28" class="edge">
<title>Observe&#45;&gt;Fext</title>
<path fill="none" stroke="#94a3b8" stroke-width="1.3" d="M388.59,-278.41C363.94,-256.7 324.6,-216.97 308.77,-172.75 294.11,-131.79 325.14,-86.58 349.19,-59.5"/>
<polygon fill="#94a3b8" stroke="#94a3b8" stroke-width="1.3" points="351.06,-61.6 354.41,-53.81 346.94,-57.81 351.06,-61.6"/>
</g>
<!-- Verify&#45;&gt;Correlate -->
<g id="edge20" class="edge">
<title>Verify&#45;&gt;Correlate</title>
<path fill="none" stroke="#f59e0b" stroke-width="1.3" d="M290.76,-271.63C300.99,-266.93 311.69,-262.11 321.77,-257.75 389.27,-228.55 467.95,-197.3 519.64,-177.14"/>
<polygon fill="#f59e0b" stroke="#f59e0b" stroke-width="1.3" points="520.38,-179.86 526.82,-174.35 518.35,-174.64 520.38,-179.86"/>
</g>
<!-- Verify&#45;&gt;Fmis -->
<g id="edge29" class="edge">
<title>Verify&#45;&gt;Fmis</title>
<path fill="none" stroke="#fb7185" stroke-width="2" d="M228.4,-271.58C214.05,-237.09 194.95,-173.77 227.77,-136.25 277.22,-79.71 494.66,-122.92 562.77,-91.25 578.15,-84.1 592.39,-71.78 603.33,-60.49"/>
<polygon fill="#fb7185" stroke="#fb7185" stroke-width="2" points="605.25,-62.54 608.63,-54.77 601.14,-58.74 605.25,-62.54"/>
<text xml:space="preserve" text-anchor="middle" x="268.27" y="-156.45" font-family="Helvetica,sans-Serif" font-size="9.00" fill="#cbd5e1">:refuted →</text>
<text xml:space="preserve" text-anchor="middle" x="268.27" y="-145.95" font-family="Helvetica,sans-Serif" font-size="9.00" fill="#cbd5e1">assumption mistake</text>
</g>
<!-- Verify&#45;&gt;Fmem -->
<g id="edge30" class="edge">
<title>Verify&#45;&gt;Fmem</title>
<path fill="none" stroke="#a78bfa" stroke-width="1.3" stroke-dasharray="5,2" d="M253.87,-271.51C276.3,-235.41 323.73,-168.32 383.52,-136.25 503.59,-71.85 564.09,-150.54 686.77,-91.25 702.06,-83.86 716.09,-71.19 726.74,-59.75"/>
<polygon fill="#a78bfa" stroke="#a78bfa" stroke-width="1.3" points="728.68,-61.78 731.91,-53.94 724.5,-58.05 728.68,-61.78"/>
<text xml:space="preserve" text-anchor="middle" x="413.14" y="-156.45" font-family="Helvetica,sans-Serif" font-size="9.00" fill="#cbd5e1">mark stale</text>
<text xml:space="preserve" text-anchor="middle" x="413.14" y="-145.95" font-family="Helvetica,sans-Serif" font-size="9.00" fill="#cbd5e1">[UNVERIFIED]</text>
</g>
<!-- Verify&#45;&gt;Fext -->
<g id="edge31" class="edge">
<title>Verify&#45;&gt;Fext</title>
<path fill="none" stroke="#94a3b8" stroke-width="1.3" d="M178.28,-280.43C94.18,-256.49 -40.64,-205.67 12.02,-136.25 48.28,-88.45 219.27,-57.06 312.61,-43.18"/>
<polygon fill="#94a3b8" stroke="#94a3b8" stroke-width="1.3" points="312.76,-45.99 320.27,-42.06 311.95,-40.45 312.76,-45.99"/>
<text xml:space="preserve" text-anchor="middle" x="33.39" y="-156.45" font-family="Helvetica,sans-Serif" font-size="9.00" fill="#cbd5e1">:confirmed</text>
<text xml:space="preserve" text-anchor="middle" x="33.39" y="-145.95" font-family="Helvetica,sans-Serif" font-size="9.00" fill="#cbd5e1">:intel obs</text>
</g>
<!-- Correlate&#45;&gt;Prompt -->
<g id="edge37" class="edge">
<title>Correlate&#45;&gt;Prompt</title>
<path fill="none" stroke="#fb7185" stroke-width="2" stroke-dasharray="5,2" d="M688.58,-166C859.66,-183.09 1168.35,-218.92 1200.77,-257.75 1231.89,-295.02 1231.26,-329.21 1200.77,-367 1161.36,-415.85 700.85,-414.78 638.77,-424 621.19,-426.61 602.23,-430.63 585.23,-434.69"/>
<polygon fill="#fb7185" stroke="#fb7185" stroke-width="2" points="584.97,-431.87 577.87,-436.49 586.3,-437.31 584.97,-431.87"/>
<text xml:space="preserve" text-anchor="middle" x="1263.25" y="-293.45" font-family="Helvetica,sans-Serif" font-size="9.00" fill="#cbd5e1">findings → next run</text>
</g>
<!-- Correlate&#45;&gt;Fmet -->
<!-- Fmis&#45;&gt;Prompt -->
<g id="edge34" class="edge">
<title>Fmis&#45;&gt;Prompt</title>
<path fill="none" stroke="#fb7185" stroke-width="2" stroke-dasharray="5,2" d="M638.51,-52.51C649.9,-65.63 667.34,-82.72 686.77,-91.25 712.15,-102.39 1158.49,-124.87 1183.77,-136.25 1290.91,-184.47 1386.68,-275.67 1312.77,-367 1265.49,-425.42 713.18,-413.46 638.77,-424 621.17,-426.49 602.21,-430.48 585.21,-434.55"/>
<polygon fill="#fb7185" stroke="#fb7185" stroke-width="2" points="584.95,-431.73 577.85,-436.36 586.28,-437.17 584.95,-431.73"/>
<text xml:space="preserve" text-anchor="middle" x="1351.6" y="-221.2" font-family="Helvetica,sans-Serif" font-size="9.00" fill="#cbd5e1">KNOWN MISTAKES</text>
<text xml:space="preserve" text-anchor="middle" x="1351.6" y="-210.7" font-family="Helvetica,sans-Serif" font-size="9.00" fill="#cbd5e1">+ KNOWN FIXES</text>
</g>
<!-- Fmem&#45;&gt;Prompt -->
<g id="edge32" class="edge">
<title>Fmem&#45;&gt;Prompt</title>
<path fill="none" stroke="#fbbf24" stroke-width="1.3" stroke-dasharray="5,2" d="M760.26,-52.44C771.45,-65.53 788.59,-82.61 807.77,-91.25 986.98,-172.02 1058.3,-83.87 1247.77,-136.25 1325.31,-157.69 1415.46,-150.31 1402.77,-229.75 1392.64,-293.14 1400.63,-319.21 1357.77,-367 1336.92,-390.25 1324.14,-388.76 1293.77,-396 1152.05,-429.79 783.11,-404.23 638.77,-424 620.83,-426.46 601.48,-430.53 584.24,-434.68"/>
<polygon fill="#fbbf24" stroke="#fbbf24" stroke-width="1.3" points="583.9,-431.88 576.81,-436.51 585.24,-437.32 583.9,-431.88"/>
<text xml:space="preserve" text-anchor="middle" x="1436.22" y="-215.95" font-family="Helvetica,sans-Serif" font-size="9.00" fill="#cbd5e1">MEMORY block</text>
</g>
<!-- Fskl&#45;&gt;Prompt -->
<g id="edge33" class="edge">
<title>Fskl&#45;&gt;Prompt</title>
<path fill="none" stroke="#fbbf24" stroke-width="1.3" stroke-dasharray="5,2" d="M872.48,-52.69C882.15,-65.73 897.13,-82.63 914.77,-91.25 1088.18,-176.05 1162.52,-78.65 1346.77,-136.25 1415.39,-157.7 1495.16,-159.75 1478.77,-229.75 1457.69,-319.76 1443.23,-372.69 1353.77,-396 1199.89,-436.09 796.35,-402.7 638.77,-424 620.82,-426.43 601.48,-430.49 584.23,-434.64"/>
<polygon fill="#fbbf24" stroke="#fbbf24" stroke-width="1.3" points="583.9,-431.84 576.8,-436.48 585.24,-437.28 583.9,-431.84"/>
<text xml:space="preserve" text-anchor="middle" x="1508.31" y="-215.95" font-family="Helvetica,sans-Serif" font-size="9.00" fill="#cbd5e1">SKILLS block</text>
</g>
<!-- Fext&#45;&gt;Prompt -->
<g id="edge35" class="edge">
<title>Fext&#45;&gt;Prompt</title>
<path fill="none" stroke="#fbbf24" stroke-width="1.3" stroke-dasharray="5,2" d="M390.5,-52.69C404.23,-65.91 424.9,-83.05 446.77,-91.25 600.4,-148.86 1020.44,-120.56 1183.77,-136.25 1430.07,-159.92 1572.59,-22.74 1735.77,-208.75 1800.33,-282.34 1713.42,-367.49 1619.77,-396 1515.45,-427.76 746.91,-409.97 638.77,-424 620.81,-426.33 601.46,-430.37 584.22,-434.53"/>
<polygon fill="#fbbf24" stroke="#fbbf24" stroke-width="1.3" points="583.88,-431.73 576.79,-436.37 585.22,-437.16 583.88,-431.73"/>
<text xml:space="preserve" text-anchor="middle" x="1777.26" y="-215.95" font-family="Helvetica,sans-Serif" font-size="9.00" fill="#cbd5e1">EXTRO block</text>
</g>
</g>
</svg>
