<?xml version="1.0" encoding="UTF-8" standalone="no"?>
<!DOCTYPE svg PUBLIC "-//W3C//DTD SVG 1.1//EN"
 "http://www.w3.org/Graphics/SVG/1.1/DTD/svg11.dtd">
<!-- Generated by graphviz version 14.1.2 (0)
 -->
<!-- Title: PWN_AI_Feedback_Learning_Loop Pages: 1 -->
<svg width="4368pt" height="840pt"
 viewBox="0.00 0.00 4368.00 840.00" xmlns="http://www.w3.org/2000/svg" xmlns:xlink="http://www.w3.org/1999/xlink">
<g id="graph0" class="graph" transform="scale(1 1) rotate(0) translate(43.2 796.7)">
<title>PWN_AI_Feedback_Learning_Loop</title>
<polygon fill="#0f172a" stroke="none" points="-43.2,43.2 -43.2,-796.7 4324.42,-796.7 4324.42,43.2 -43.2,43.2"/>
<text xml:space="preserve" text-anchor="start" x="1953.86" y="-731.5" font-family="sans-Serif" font-weight="bold" font-size="20.00" fill="#e2e8f0">pwn&#45;ai &#45; Closed Self&#45;Improvement Loop</text>
<text xml:space="preserve" text-anchor="start" x="1842.11" y="-720.05" font-family="sans-Serif" font-size="11.00" fill="#94a3b8">Introspection (self) &#160;⟷ &#160;Extrospection (world) &#160;· &#160;Mistakes (negative) &#160;· &#160;Reward + Curriculum (RL) &#160;· &#160;Local&#45;model scaffolding</text>
<g id="clust2" class="cluster">
<title>cluster_core</title>
<path fill="#2e1065" stroke="#6d28d9" stroke-width="2" d="M169.68,-486.5C169.68,-486.5 1184.68,-486.5 1184.68,-486.5 1190.68,-486.5 1196.68,-492.5 1196.68,-498.5 1196.68,-498.5 1196.68,-601.5 1196.68,-601.5 1196.68,-607.5 1190.68,-613.5 1184.68,-613.5 1184.68,-613.5 169.68,-613.5 169.68,-613.5 163.68,-613.5 157.68,-607.5 157.68,-601.5 157.68,-601.5 157.68,-498.5 157.68,-498.5 157.68,-492.5 163.68,-486.5 169.68,-486.5"/>
<text xml:space="preserve" text-anchor="middle" x="677.18" y="-590.5" font-family="sans-Serif" font-size="20.00" fill="#ddd6fe">PWN::AI::Agent::Loop</text>
</g>
<g id="clust4" class="cluster">
<title>cluster_intro</title>
<path fill="#022c22" stroke="#047857" stroke-width="2" d="M1135.68,-289C1135.68,-289 2344.68,-289 2344.68,-289 2350.68,-289 2356.68,-295 2356.68,-301 2356.68,-301 2356.68,-417.5 2356.68,-417.5 2356.68,-423.5 2350.68,-429.5 2344.68,-429.5 2344.68,-429.5 1135.68,-429.5 1135.68,-429.5 1129.68,-429.5 1123.68,-423.5 1123.68,-417.5 1123.68,-417.5 1123.68,-301 1123.68,-301 1123.68,-295 1129.68,-289 1135.68,-289"/>
<text xml:space="preserve" text-anchor="middle" x="1740.18" y="-406.5" font-family="sans-Serif" font-size="20.00" fill="#a7f3d0">INTROSPECTION &#160;(self)</text>
</g>
<g id="clust5" class="cluster">
<title>cluster_extro</title>
<path fill="#422006" stroke="#a16207" stroke-width="2" d="M2421.68,-289C2421.68,-289 3103.68,-289 3103.68,-289 3109.68,-289 3115.68,-295 3115.68,-301 3115.68,-301 3115.68,-417.5 3115.68,-417.5 3115.68,-423.5 3109.68,-429.5 3103.68,-429.5 3103.68,-429.5 2421.68,-429.5 2421.68,-429.5 2415.68,-429.5 2409.68,-423.5 2409.68,-417.5 2409.68,-417.5 2409.68,-301 2409.68,-301 2409.68,-295 2415.68,-289 2421.68,-289"/>
<text xml:space="preserve" text-anchor="middle" x="2762.68" y="-406.5" font-family="sans-Serif" font-size="20.00" fill="#fde68a">EXTROSPECTION &#160;(world)</text>
</g>
<g id="clust7" class="cluster">
<title>cluster_store</title>
<path fill="#1e293b" stroke="#334155" stroke-dasharray="5,2" d="M1402.68,-8C1402.68,-8 2518.68,-8 2518.68,-8 2524.68,-8 2530.68,-14 2530.68,-20 2530.68,-20 2530.68,-110.5 2530.68,-110.5 2530.68,-116.5 2524.68,-122.5 2518.68,-122.5 2518.68,-122.5 1402.68,-122.5 1402.68,-122.5 1396.68,-122.5 1390.68,-116.5 1390.68,-110.5 1390.68,-110.5 1390.68,-20 1390.68,-20 1390.68,-14 1396.68,-8 1402.68,-8"/>
<text xml:space="preserve" text-anchor="middle" x="1960.68" y="-99.5" font-family="sans-Serif" font-size="20.00" fill="#94a3b8">~/.pwn/</text>
</g>
<!-- User -->
<g id="node1" class="node">
<title>User</title>
<path fill="#7dd3fc" stroke="#334155" stroke-width="1.4" d="M261.55,-714.5C261.55,-714.5 193.8,-714.5 193.8,-714.5 187.8,-714.5 181.8,-708.5 181.8,-702.5 181.8,-702.5 181.8,-690.5 181.8,-690.5 181.8,-684.5 187.8,-678.5 193.8,-678.5 193.8,-678.5 261.55,-678.5 261.55,-678.5 267.55,-678.5 273.55,-684.5 273.55,-690.5 273.55,-690.5 273.55,-702.5 273.55,-702.5 273.55,-708.5 267.55,-714.5 261.55,-714.5"/>
<text xml:space="preserve" text-anchor="middle" x="227.68" y="-692.8" font-family="sans-Serif" font-size="11.00" fill="#0f172a">👤 &#160;Researcher</text>
</g>
<!-- Prompt -->
<g id="node4" class="node">
<title>Prompt</title>
<path fill="#c4b5fd" stroke="#334155" stroke-width="1.4" d="M277.3,-543C277.3,-543 178.05,-543 178.05,-543 172.05,-543 166.05,-537 166.05,-531 166.05,-531 166.05,-506.5 166.05,-506.5 166.05,-500.5 172.05,-494.5 178.05,-494.5 178.05,-494.5 277.3,-494.5 277.3,-494.5 283.3,-494.5 289.3,-500.5 289.3,-506.5 289.3,-506.5 289.3,-531 289.3,-531 289.3,-537 283.3,-543 277.3,-543"/>
<text xml:space="preserve" text-anchor="middle" x="227.68" y="-528.55" font-family="sans-Serif" font-size="11.00" fill="#0f172a">PromptBuilder</text>
<text xml:space="preserve" text-anchor="middle" x="227.68" y="-515.05" font-family="sans-Serif" font-size="11.00" fill="#0f172a">budget · MemoryIndex</text>
<text xml:space="preserve" text-anchor="middle" x="227.68" y="-501.55" font-family="sans-Serif" font-size="11.00" fill="#0f172a">relevance&#45;ranked ctx</text>
</g>
<!-- User&#45;&gt;Prompt -->
<g id="edge1" class="edge">
<title>User&#45;&gt;Prompt</title>
<path fill="none" stroke="#38bdf8" stroke-width="2" d="M227.68,-678.01C227.68,-649.29 227.68,-591.62 227.68,-554.4"/>
<polygon fill="#38bdf8" stroke="#38bdf8" stroke-width="2" points="230.48,-554.59 227.68,-546.59 224.88,-554.59 230.48,-554.59"/>
<text xml:space="preserve" text-anchor="middle" x="235.93" y="-628.7" font-family="sans-Serif" font-size="9.00" fill="#cbd5e1">task</text>
</g>
<!-- Mistakes -->
<g id="node12" class="node">
<title>Mistakes</title>
<path fill="#6ee7b7" stroke="#334155" stroke-width="2" d="M1424.93,-359C1424.93,-359 1278.43,-359 1278.43,-359 1272.43,-359 1266.43,-353 1266.43,-347 1266.43,-347 1266.43,-309 1266.43,-309 1266.43,-303 1272.43,-297 1278.43,-297 1278.43,-297 1424.93,-297 1424.93,-297 1430.93,-297 1436.93,-303 1436.93,-309 1436.93,-309 1436.93,-347 1436.93,-347 1436.93,-353 1430.93,-359 1424.93,-359"/>
<text xml:space="preserve" text-anchor="middle" x="1351.68" y="-344.55" font-family="sans-Serif" font-size="11.00" fill="#0f172a">Mistakes</text>
<text xml:space="preserve" text-anchor="middle" x="1351.68" y="-331.05" font-family="sans-Serif" font-size="11.00" fill="#0f172a">record · resolve</text>
<text xml:space="preserve" text-anchor="middle" x="1351.68" y="-317.55" font-family="sans-Serif" font-size="11.00" fill="#0f172a">guard · correction_hint</text>
<text xml:space="preserve" text-anchor="middle" x="1351.68" y="-304.05" font-family="sans-Serif" font-size="11.00" fill="#0f172a">[REPEATING] · [REGRESSED]</text>
</g>
<!-- User&#45;&gt;Mistakes -->
<g id="edge13" class="edge">
<title>User&#45;&gt;Mistakes</title>
<path fill="none" stroke="#fb7185" stroke-width="1.3" stroke-dasharray="5,2" d="M181.4,-687.7C140.2,-678.05 82.31,-657.18 54.68,-613.5 24.5,-565.8 16.67,-528.23 54.68,-486.5 133.27,-400.19 461.11,-443.65 577.68,-437.5 596.18,-436.52 1227.49,-436.43 1244.68,-429.5 1276.32,-416.75 1304.13,-389.85 1323.46,-367.09"/>
<polygon fill="#fb7185" stroke="#fb7185" stroke-width="1.3" points="1325.49,-369.02 1328.43,-361.07 1321.18,-365.46 1325.49,-369.02"/>
<text xml:space="preserve" text-anchor="middle" x="101.18" y="-520.7" font-family="sans-Serif" font-size="9.00" fill="#cbd5e1">&quot;that&#39;s wrong&quot;</text>
<text xml:space="preserve" text-anchor="middle" x="101.18" y="-510.2" font-family="sans-Serif" font-size="9.00" fill="#cbd5e1">check_user_correction</text>
</g>
<!-- Fprf -->
<g id="node29" class="node">
<title>Fprf</title>
<path fill="#fcd34d" stroke="#334155" stroke-width="1.4" d="M1738.55,-48.73C1738.55,-50.53 1716.64,-52 1689.68,-52 1662.71,-52 1640.8,-50.53 1640.8,-48.73 1640.8,-48.73 1640.8,-19.27 1640.8,-19.27 1640.8,-17.47 1662.71,-16 1689.68,-16 1716.64,-16 1738.55,-17.47 1738.55,-19.27 1738.55,-19.27 1738.55,-48.73 1738.55,-48.73"/>
<path fill="none" stroke="#334155" stroke-width="1.4" d="M1738.55,-48.73C1738.55,-46.92 1716.64,-45.45 1689.68,-45.45 1662.71,-45.45 1640.8,-46.92 1640.8,-48.73"/>
<text xml:space="preserve" text-anchor="middle" x="1689.68" y="-30.3" font-family="sans-Serif" font-size="11.00" fill="#0f172a">preferences.jsonl</text>
</g>
<!-- User&#45;&gt;Fprf -->
<g id="edge68" class="edge">
<title>User&#45;&gt;Fprf</title>
<path fill="none" stroke="#fb7185" stroke-width="1.3" stroke-dasharray="5,2" d="M181.54,-694.36C128.7,-690.12 45.91,-673.69 18.68,-613.5 -4.59,-562.07 -7.39,-536.57 18.68,-486.5 77.1,-374.28 -72.53,-359.42 951.68,-167.5 988.23,-160.65 1586.71,-139.73 1619.68,-122.5 1645.36,-109.08 1664.85,-81.65 1676.66,-61.06"/>
<polygon fill="#fb7185" stroke="#fb7185" stroke-width="1.3" points="1679.06,-62.52 1680.45,-54.16 1674.15,-59.83 1679.06,-62.52"/>
<text xml:space="preserve" text-anchor="middle" x="382.6" y="-329.95" font-family="sans-Serif" font-size="9.00" fill="#cbd5e1">user_correction</text>
<text xml:space="preserve" text-anchor="middle" x="382.6" y="-319.45" font-family="sans-Serif" font-size="9.00" fill="#cbd5e1">→ DPO pair</text>
</g>
<!-- LLM -->
<g id="node2" class="node">
<title>LLM</title>
<path fill="#c4b5fd" stroke="#334155" stroke-width="1.4" d="M805.68,-714.5C805.68,-714.5 729.68,-714.5 729.68,-714.5 723.68,-714.5 717.68,-708.5 717.68,-702.5 717.68,-702.5 717.68,-690.5 717.68,-690.5 717.68,-684.5 723.68,-678.5 729.68,-678.5 729.68,-678.5 805.68,-678.5 805.68,-678.5 811.68,-678.5 817.68,-684.5 817.68,-690.5 817.68,-690.5 817.68,-702.5 817.68,-702.5 817.68,-708.5 811.68,-714.5 805.68,-714.5"/>
<text xml:space="preserve" text-anchor="middle" x="767.68" y="-692.8" font-family="sans-Serif" font-size="11.00" fill="#0f172a">🤖 &#160;LLM Provider</text>
</g>
<!-- Dispatch -->
<g id="node5" class="node">
<title>Dispatch</title>
<path fill="#c4b5fd" stroke="#334155" stroke-width="1.4" d="M796.68,-543C796.68,-543 738.68,-543 738.68,-543 732.68,-543 726.68,-537 726.68,-531 726.68,-531 726.68,-506.5 726.68,-506.5 726.68,-500.5 732.68,-494.5 738.68,-494.5 738.68,-494.5 796.68,-494.5 796.68,-494.5 802.68,-494.5 808.68,-500.5 808.68,-506.5 808.68,-506.5 808.68,-531 808.68,-531 808.68,-537 802.68,-543 796.68,-543"/>
<text xml:space="preserve" text-anchor="middle" x="767.68" y="-528.55" font-family="sans-Serif" font-size="11.00" fill="#0f172a">Dispatch</text>
<text xml:space="preserve" text-anchor="middle" x="767.68" y="-515.05" font-family="sans-Serif" font-size="11.00" fill="#0f172a">tolerant parse</text>
<text xml:space="preserve" text-anchor="middle" x="767.68" y="-501.55" font-family="sans-Serif" font-size="11.00" fill="#0f172a">repair_name</text>
</g>
<!-- LLM&#45;&gt;Dispatch -->
<g id="edge2" class="edge">
<title>LLM&#45;&gt;Dispatch</title>
<path fill="none" stroke="#a78bfa" stroke-width="2" d="M767.68,-667.33C767.68,-636.66 767.68,-587.57 767.68,-554.52"/>
<polygon fill="#a78bfa" stroke="#a78bfa" stroke-width="2" points="764.88,-666.98 767.68,-674.98 770.48,-666.98 764.88,-666.98"/>
<polygon fill="#a78bfa" stroke="#a78bfa" stroke-width="2" points="770.48,-554.59 767.68,-546.59 764.88,-554.59 770.48,-554.59"/>
<text xml:space="preserve" text-anchor="middle" x="787.18" y="-628.7" font-family="sans-Serif" font-size="9.00" fill="#cbd5e1">tool_calls</text>
</g>
<!-- World -->
<g id="node3" class="node">
<title>World</title>
<path fill="#fda4af" stroke="#334155" stroke-width="1.4" d="M1212.55,-714.5C1212.55,-714.5 1090.8,-714.5 1090.8,-714.5 1084.8,-714.5 1078.8,-708.5 1078.8,-702.5 1078.8,-702.5 1078.8,-690.5 1078.8,-690.5 1078.8,-684.5 1084.8,-678.5 1090.8,-678.5 1090.8,-678.5 1212.55,-678.5 1212.55,-678.5 1218.55,-678.5 1224.55,-684.5 1224.55,-690.5 1224.55,-690.5 1224.55,-702.5 1224.55,-702.5 1224.55,-708.5 1218.55,-714.5 1212.55,-714.5"/>
<text xml:space="preserve" text-anchor="middle" x="1151.68" y="-699.55" font-family="sans-Serif" font-size="11.00" fill="#0f172a">🌍 &#160;Host · Net · Repo</text>
<text xml:space="preserve" text-anchor="middle" x="1151.68" y="-686.05" font-family="sans-Serif" font-size="11.00" fill="#0f172a">Toolchain · RF · Web · Intel</text>
</g>
<!-- Result -->
<g id="node9" class="node">
<title>Result</title>
<path fill="#c4b5fd" stroke="#334155" stroke-width="1.4" d="M1176.55,-536.75C1176.55,-536.75 1126.8,-536.75 1126.8,-536.75 1120.8,-536.75 1114.8,-530.75 1114.8,-524.75 1114.8,-524.75 1114.8,-512.75 1114.8,-512.75 1114.8,-506.75 1120.8,-500.75 1126.8,-500.75 1126.8,-500.75 1176.55,-500.75 1176.55,-500.75 1182.55,-500.75 1188.55,-506.75 1188.55,-512.75 1188.55,-512.75 1188.55,-524.75 1188.55,-524.75 1188.55,-530.75 1182.55,-536.75 1176.55,-536.75"/>
<text xml:space="preserve" text-anchor="middle" x="1151.68" y="-521.8" font-family="sans-Serif" font-size="11.00" fill="#0f172a">Result</text>
<text xml:space="preserve" text-anchor="middle" x="1151.68" y="-508.3" font-family="sans-Serif" font-size="11.00" fill="#0f172a">final answer</text>
</g>
<!-- World&#45;&gt;Result -->
<!-- Snapshot -->
<g id="node16" class="node">
<title>Snapshot</title>
<path fill="#fcd34d" stroke="#334155" stroke-width="1.4" d="M2759.3,-359C2759.3,-359 2594.05,-359 2594.05,-359 2588.05,-359 2582.05,-353 2582.05,-347 2582.05,-347 2582.05,-309 2582.05,-309 2582.05,-303 2588.05,-297 2594.05,-297 2594.05,-297 2759.3,-297 2759.3,-297 2765.3,-297 2771.3,-303 2771.3,-309 2771.3,-309 2771.3,-347 2771.3,-347 2771.3,-353 2765.3,-359 2759.3,-359"/>
<text xml:space="preserve" text-anchor="middle" x="2676.68" y="-344.55" font-family="sans-Serif" font-size="11.00" fill="#0f172a">snapshot · drift</text>
<text xml:space="preserve" text-anchor="middle" x="2676.68" y="-331.05" font-family="sans-Serif" font-size="11.00" fill="#0f172a">host/net/toolchain</text>
<text xml:space="preserve" text-anchor="middle" x="2676.68" y="-317.55" font-family="sans-Serif" font-size="11.00" fill="#0f172a">repo/env/rf/web</text>
<text xml:space="preserve" text-anchor="middle" x="2676.68" y="-304.05" font-family="sans-Serif" font-size="11.00" fill="#0f172a">(AUTO_SECTIONS=host/repo/env)</text>
</g>
<!-- World&#45;&gt;Snapshot -->
<g id="edge16" class="edge">
<title>World&#45;&gt;Snapshot</title>
<path fill="none" stroke="#fb7185" stroke-width="1.3" d="M1225.17,-685.3C1303.52,-672.75 1419.94,-648.68 1446.68,-613.5 1480.83,-568.56 1461.88,-540.86 1446.68,-486.5 1440.46,-464.3 1413.43,-453.86 1429.68,-437.5 1440.74,-426.35 2545.98,-435.04 2560.68,-429.5 2594.2,-416.86 2624.5,-389.78 2645.73,-366.91"/>
<polygon fill="#fb7185" stroke="#fb7185" stroke-width="1.3" points="2647.68,-368.92 2650.97,-361.11 2643.53,-365.17 2647.68,-368.92"/>
</g>
<!-- Observe -->
<g id="node17" class="node">
<title>Observe</title>
<path fill="#fcd34d" stroke="#334155" stroke-width="1.4" d="M3095.18,-346C3095.18,-346 2986.18,-346 2986.18,-346 2980.18,-346 2974.18,-340 2974.18,-334 2974.18,-334 2974.18,-322 2974.18,-322 2974.18,-316 2980.18,-310 2986.18,-310 2986.18,-310 3095.18,-310 3095.18,-310 3101.18,-310 3107.18,-316 3107.18,-322 3107.18,-322 3107.18,-334 3107.18,-334 3107.18,-340 3101.18,-346 3095.18,-346"/>
<text xml:space="preserve" text-anchor="middle" x="3040.68" y="-331.05" font-family="sans-Serif" font-size="11.00" fill="#0f172a">observe · intel · watch</text>
<text xml:space="preserve" text-anchor="middle" x="3040.68" y="-317.55" font-family="sans-Serif" font-size="11.00" fill="#0f172a">recon · CVE · web DOM</text>
</g>
<!-- World&#45;&gt;Observe -->
<g id="edge17" class="edge">
<title>World&#45;&gt;Observe</title>
<path fill="none" stroke="#fb7185" stroke-width="1.3" d="M1225.1,-690.3C1317.23,-681.83 1465.96,-660.96 1488.68,-613.5 1513.04,-562.59 1498.31,-542.12 1488.68,-486.5 1484.88,-464.6 1463,-453.26 1478.68,-437.5 1493.11,-422.98 2934.05,-438.01 2952.68,-429.5 2986.12,-414.22 3011.89,-379.33 3026.66,-354.97"/>
<polygon fill="#fb7185" stroke="#fb7185" stroke-width="1.3" points="3028.98,-356.54 3030.61,-348.23 3024.15,-353.72 3028.98,-356.54"/>
</g>
<!-- Verify -->
<g id="node18" class="node">
<title>Verify</title>
<path fill="#fcd34d" stroke="#334155" stroke-width="2" d="M2527.18,-352.25C2527.18,-352.25 2430.18,-352.25 2430.18,-352.25 2424.18,-352.25 2418.18,-346.25 2418.18,-340.25 2418.18,-340.25 2418.18,-315.75 2418.18,-315.75 2418.18,-309.75 2424.18,-303.75 2430.18,-303.75 2430.18,-303.75 2527.18,-303.75 2527.18,-303.75 2533.18,-303.75 2539.18,-309.75 2539.18,-315.75 2539.18,-315.75 2539.18,-340.25 2539.18,-340.25 2539.18,-346.25 2533.18,-352.25 2527.18,-352.25"/>
<text xml:space="preserve" text-anchor="middle" x="2478.68" y="-337.8" font-family="sans-Serif" font-size="11.00" fill="#0f172a">verify (browser)</text>
<text xml:space="preserve" text-anchor="middle" x="2478.68" y="-324.3" font-family="sans-Serif" font-size="11.00" fill="#0f172a">fact&#45;check own claims</text>
<text xml:space="preserve" text-anchor="middle" x="2478.68" y="-310.8" font-family="sans-Serif" font-size="11.00" fill="#0f172a">revalidate_memory</text>
</g>
<!-- World&#45;&gt;Verify -->
<g id="edge18" class="edge">
<title>World&#45;&gt;Verify</title>
<path fill="none" stroke="#38bdf8" stroke-width="2" d="M1224.96,-694.1C1385.86,-690.38 1759.3,-677.99 1803.68,-642.5 1878.21,-582.88 1791.24,-494.66 1867.68,-437.5 1889.88,-420.9 2340.86,-439.62 2366.68,-429.5 2401.98,-415.66 2433.26,-385.19 2453.73,-361.41"/>
<polygon fill="#38bdf8" stroke="#38bdf8" stroke-width="2" points="2455.84,-363.25 2458.83,-355.32 2451.55,-359.66 2455.84,-363.25"/>
<text xml:space="preserve" text-anchor="middle" x="1878.17" y="-520.7" font-family="sans-Serif" font-size="9.00" fill="#cbd5e1">TransparentBrowser</text>
<text xml:space="preserve" text-anchor="middle" x="1878.17" y="-510.2" font-family="sans-Serif" font-size="9.00" fill="#cbd5e1">:headless</text>
</g>
<!-- RFTune -->
<g id="node19" class="node">
<title>RFTune</title>
<path fill="#fcd34d" stroke="#334155" stroke-width="2" d="M2919.3,-352.25C2919.3,-352.25 2826.05,-352.25 2826.05,-352.25 2820.05,-352.25 2814.05,-346.25 2814.05,-340.25 2814.05,-340.25 2814.05,-315.75 2814.05,-315.75 2814.05,-309.75 2820.05,-303.75 2826.05,-303.75 2826.05,-303.75 2919.3,-303.75 2919.3,-303.75 2925.3,-303.75 2931.3,-309.75 2931.3,-315.75 2931.3,-315.75 2931.3,-340.25 2931.3,-340.25 2931.3,-346.25 2925.3,-352.25 2919.3,-352.25"/>
<text xml:space="preserve" text-anchor="middle" x="2872.68" y="-337.8" font-family="sans-Serif" font-size="11.00" fill="#0f172a">rf_tune &#160;📡</text>
<text xml:space="preserve" text-anchor="middle" x="2872.68" y="-324.3" font-family="sans-Serif" font-size="11.00" fill="#0f172a">tune GQRX · demod</text>
<text xml:space="preserve" text-anchor="middle" x="2872.68" y="-310.8" font-family="sans-Serif" font-size="11.00" fill="#0f172a">RDS → now_playing</text>
</g>
<!-- World&#45;&gt;RFTune -->
<g id="edge19" class="edge">
<title>World&#45;&gt;RFTune</title>
<path fill="none" stroke="#fb7185" stroke-width="2" d="M1225.22,-696.03C1352.86,-695.58 1623.08,-688.63 1845.68,-642.5 1884.35,-634.49 1895.61,-633.49 1929.68,-613.5 2030.93,-554.07 2017.24,-480.02 2126.68,-437.5 2161.17,-424.1 2759.44,-445.77 2792.68,-429.5 2821.24,-415.52 2842.81,-385.92 2856.31,-362.45"/>
<polygon fill="#fb7185" stroke="#fb7185" stroke-width="2" points="2858.74,-363.84 2860.14,-355.48 2853.83,-361.14 2858.74,-363.84"/>
<text xml:space="preserve" text-anchor="middle" x="2079.77" y="-520.7" font-family="sans-Serif" font-size="9.00" fill="#cbd5e1">GQRX remote</text>
<text xml:space="preserve" text-anchor="middle" x="2079.77" y="-510.2" font-family="sans-Serif" font-size="9.00" fill="#cbd5e1">:7356 + SDR</text>
</g>
<!-- Router -->
<g id="node6" class="node">
<title>Router</title>
<path fill="#c4b5fd" stroke="#334155" stroke-width="1.4" d="M450.3,-543C450.3,-543 387.05,-543 387.05,-543 381.05,-543 375.05,-537 375.05,-531 375.05,-531 375.05,-506.5 375.05,-506.5 375.05,-500.5 381.05,-494.5 387.05,-494.5 387.05,-494.5 450.3,-494.5 450.3,-494.5 456.3,-494.5 462.3,-500.5 462.3,-506.5 462.3,-506.5 462.3,-531 462.3,-531 462.3,-537 456.3,-543 450.3,-543"/>
<text xml:space="preserve" text-anchor="middle" x="418.68" y="-528.55" font-family="sans-Serif" font-size="11.00" fill="#0f172a">Registry</text>
<text xml:space="preserve" text-anchor="middle" x="418.68" y="-515.05" font-family="sans-Serif" font-size="11.00" fill="#0f172a">tool_router</text>
<text xml:space="preserve" text-anchor="middle" x="418.68" y="-501.55" font-family="sans-Serif" font-size="11.00" fill="#0f172a">CORE + top&#45;K</text>
</g>
<!-- Prompt&#45;&gt;Router -->
<g id="edge4" class="edge">
<title>Prompt&#45;&gt;Router</title>
<path fill="none" stroke="#a78bfa" stroke-width="1.3" d="M289.97,-518.75C314.83,-518.75 339.68,-518.75 364.54,-518.75"/>
<polygon fill="#a78bfa" stroke="#a78bfa" stroke-width="1.3" points="364.47,-521.55 372.47,-518.75 364.47,-515.95 364.47,-521.55"/>
</g>
<!-- Escalate -->
<g id="node8" class="node">
<title>Escalate</title>
<path fill="#c4b5fd" stroke="#334155" stroke-width="2" d="M1017.68,-536.75C1017.68,-536.75 917.68,-536.75 917.68,-536.75 911.68,-536.75 905.68,-530.75 905.68,-524.75 905.68,-524.75 905.68,-512.75 905.68,-512.75 905.68,-506.75 911.68,-500.75 917.68,-500.75 917.68,-500.75 1017.68,-500.75 1017.68,-500.75 1023.68,-500.75 1029.68,-506.75 1029.68,-512.75 1029.68,-512.75 1029.68,-524.75 1029.68,-524.75 1029.68,-530.75 1023.68,-536.75 1017.68,-536.75"/>
<text xml:space="preserve" text-anchor="middle" x="967.68" y="-521.8" font-family="sans-Serif" font-size="11.00" fill="#0f172a">escalate</text>
<text xml:space="preserve" text-anchor="middle" x="967.68" y="-508.3" font-family="sans-Serif" font-size="11.00" fill="#0f172a">≥N fails → Swarm hint</text>
</g>
<!-- Dispatch&#45;&gt;Escalate -->
<g id="edge7" class="edge">
<title>Dispatch&#45;&gt;Escalate</title>
<path fill="none" stroke="#fb7185" stroke-width="1.3" stroke-dasharray="5,2" d="M809.12,-518.75C833.99,-518.75 866.33,-518.75 895.32,-518.75"/>
<polygon fill="#fb7185" stroke="#fb7185" stroke-width="1.3" points="895.03,-521.55 903.03,-518.75 895.03,-515.95 895.03,-521.55"/>
<text xml:space="preserve" text-anchor="middle" x="857.18" y="-523.7" font-family="sans-Serif" font-size="9.00" fill="#cbd5e1">turn_fails ≥ N</text>
</g>
<!-- Dispatch&#45;&gt;Result -->
<g id="edge8" class="edge">
<title>Dispatch&#45;&gt;Result</title>
<path fill="none" stroke="#a78bfa" stroke-width="1.3" d="M785.11,-543.47C808.54,-574.29 853.39,-625.43 906.18,-646 957.53,-666.01 979.51,-667.68 1030.18,-646 1077.92,-625.57 1115.84,-576.15 1135.92,-545.26"/>
<polygon fill="#a78bfa" stroke="#a78bfa" stroke-width="1.3" points="1138.14,-547 1140.05,-538.74 1133.41,-544 1138.14,-547"/>
</g>
<!-- Metrics -->
<g id="node10" class="node">
<title>Metrics</title>
<path fill="#6ee7b7" stroke="#334155" stroke-width="1.4" d="M2336.43,-352.25C2336.43,-352.25 2228.93,-352.25 2228.93,-352.25 2222.93,-352.25 2216.93,-346.25 2216.93,-340.25 2216.93,-340.25 2216.93,-315.75 2216.93,-315.75 2216.93,-309.75 2222.93,-303.75 2228.93,-303.75 2228.93,-303.75 2336.43,-303.75 2336.43,-303.75 2342.43,-303.75 2348.43,-309.75 2348.43,-315.75 2348.43,-315.75 2348.43,-340.25 2348.43,-340.25 2348.43,-346.25 2342.43,-352.25 2336.43,-352.25"/>
<text xml:space="preserve" text-anchor="middle" x="2282.68" y="-337.8" font-family="sans-Serif" font-size="11.00" fill="#0f172a">Metrics</text>
<text xml:space="preserve" text-anchor="middle" x="2282.68" y="-324.3" font-family="sans-Serif" font-size="11.00" fill="#0f172a">per&#45;tool · PER&#45;ENGINE</text>
<text xml:space="preserve" text-anchor="middle" x="2282.68" y="-310.8" font-family="sans-Serif" font-size="11.00" fill="#0f172a">success · avg ms</text>
</g>
<!-- Dispatch&#45;&gt;Metrics -->
<g id="edge10" class="edge">
<title>Dispatch&#45;&gt;Metrics</title>
<path fill="none" stroke="#34d399" stroke-width="1.3" d="M809.14,-504.04C831.28,-497.39 859.17,-490.08 884.68,-486.5 926.88,-480.57 2388.82,-488.91 2418.68,-458.5 2425.21,-451.84 2423.84,-445.28 2418.68,-437.5 2413.61,-429.87 2407.47,-434.32 2399.68,-429.5 2367.42,-409.54 2335.03,-380.89 2312.54,-359.29"/>
<polygon fill="#34d399" stroke="#34d399" stroke-width="1.3" points="2314.69,-357.48 2307.01,-353.91 2310.79,-361.5 2314.69,-357.48"/>
<text xml:space="preserve" text-anchor="middle" x="2454.58" y="-444.7" font-family="sans-Serif" font-size="9.00" fill="#cbd5e1">record(engine:)</text>
</g>
<!-- Dispatch&#45;&gt;Mistakes -->
<g id="edge12" class="edge">
<title>Dispatch&#45;&gt;Mistakes</title>
<path fill="none" stroke="#fb7185" stroke-width="2" d="M726.07,-505.02C675.54,-489.36 596.49,-464.16 592.43,-458.5 586.98,-450.92 585.87,-444.14 592.43,-437.5 605.16,-424.61 1227.87,-436.27 1244.68,-429.5 1275.91,-416.91 1303.4,-390.55 1322.7,-367.98"/>
<polygon fill="#fb7185" stroke="#fb7185" stroke-width="2" points="1324.8,-369.83 1327.75,-361.88 1320.49,-366.26 1324.8,-369.83"/>
<text xml:space="preserve" text-anchor="middle" x="611.55" y="-449.95" font-family="sans-Serif" font-size="9.00" fill="#cbd5e1">on failure</text>
<text xml:space="preserve" text-anchor="middle" x="611.55" y="-439.45" font-family="sans-Serif" font-size="9.00" fill="#cbd5e1">record()</text>
</g>
<!-- Curric -->
<g id="node15" class="node">
<title>Curric</title>
<path fill="#6ee7b7" stroke="#334155" stroke-width="2" d="M2161.93,-352.25C2161.93,-352.25 2015.43,-352.25 2015.43,-352.25 2009.43,-352.25 2003.43,-346.25 2003.43,-340.25 2003.43,-340.25 2003.43,-315.75 2003.43,-315.75 2003.43,-309.75 2009.43,-303.75 2015.43,-303.75 2015.43,-303.75 2161.93,-303.75 2161.93,-303.75 2167.93,-303.75 2173.93,-309.75 2173.93,-315.75 2173.93,-315.75 2173.93,-340.25 2173.93,-340.25 2173.93,-346.25 2167.93,-352.25 2161.93,-352.25"/>
<text xml:space="preserve" text-anchor="middle" x="2088.68" y="-337.8" font-family="sans-Serif" font-size="11.00" fill="#0f172a">Curriculum</text>
<text xml:space="preserve" text-anchor="middle" x="2088.68" y="-324.3" font-family="sans-Serif" font-size="11.00" fill="#0f172a">practice · counterfactual</text>
<text xml:space="preserve" text-anchor="middle" x="2088.68" y="-310.8" font-family="sans-Serif" font-size="11.00" fill="#0f172a">critic · hindsight · train_and_gate</text>
</g>
<!-- Dispatch&#45;&gt;Curric -->
<g id="edge61" class="edge">
<title>Dispatch&#45;&gt;Curric</title>
<path fill="none" stroke="#fb7185" stroke-width="1.3" stroke-dasharray="5,2" d="M767.14,-493.9C768.15,-475.3 772.94,-450.51 789.93,-437.5 803.07,-427.44 1966.31,-435.65 1981.68,-429.5 2016.33,-415.64 2046.35,-384.75 2065.7,-360.85"/>
<polygon fill="#fb7185" stroke="#fb7185" stroke-width="1.3" points="2067.88,-362.61 2070.63,-354.59 2063.48,-359.15 2067.88,-362.61"/>
<text xml:space="preserve" text-anchor="middle" x="818.8" y="-449.95" font-family="sans-Serif" font-size="9.00" fill="#cbd5e1">counterfactual</text>
<text xml:space="preserve" text-anchor="middle" x="818.8" y="-439.45" font-family="sans-Serif" font-size="9.00" fill="#cbd5e1">[REPEATING]</text>
</g>
<!-- Dispatch&#45;&gt;Snapshot -->
<g id="edge14" class="edge">
<title>Dispatch&#45;&gt;Snapshot</title>
<path fill="none" stroke="#f59e0b" stroke-width="1.3" d="M809.13,-503.33C873.28,-481.14 991.35,-440.81 1011.68,-437.5 1054.14,-430.58 2520.4,-444.64 2560.68,-429.5 2594.21,-416.89 2624.52,-389.81 2645.74,-366.93"/>
<polygon fill="#f59e0b" stroke="#f59e0b" stroke-width="1.3" points="2647.69,-368.94 2650.98,-361.13 2643.54,-365.19 2647.69,-368.94"/>
<text xml:space="preserve" text-anchor="middle" x="1023.68" y="-444.7" font-family="sans-Serif" font-size="9.00" fill="#cbd5e1">probe</text>
</g>
<!-- Dispatch&#45;&gt;Observe -->
<g id="edge20" class="edge">
<title>Dispatch&#45;&gt;Observe</title>
<path fill="none" stroke="#f59e0b" stroke-width="1.3" stroke-dasharray="5,2" d="M809.14,-504.06C831.29,-497.42 859.17,-490.11 884.68,-486.5 1037.41,-464.89 2123.76,-498.74 2272.68,-458.5 2291.21,-453.49 2291.87,-442.44 2310.43,-437.5 2344.91,-428.32 2920.27,-444.44 2952.68,-429.5 2986.06,-414.11 3011.85,-379.24 3026.64,-354.92"/>
<polygon fill="#f59e0b" stroke="#f59e0b" stroke-width="1.3" points="3028.95,-356.5 3030.59,-348.19 3024.13,-353.67 3028.95,-356.5"/>
<text xml:space="preserve" text-anchor="middle" x="2359.55" y="-449.95" font-family="sans-Serif" font-size="9.00" fill="#cbd5e1">sense tools</text>
<text xml:space="preserve" text-anchor="middle" x="2359.55" y="-439.45" font-family="sans-Serif" font-size="9.00" fill="#cbd5e1">verify/watch/rf_tune/intel</text>
</g>
<!-- Plan -->
<g id="node7" class="node">
<title>Plan</title>
<path fill="#c4b5fd" stroke="#334155" stroke-width="1.4" d="M629.3,-536.75C629.3,-536.75 560.05,-536.75 560.05,-536.75 554.05,-536.75 548.05,-530.75 548.05,-524.75 548.05,-524.75 548.05,-512.75 548.05,-512.75 548.05,-506.75 554.05,-500.75 560.05,-500.75 560.05,-500.75 629.3,-500.75 629.3,-500.75 635.3,-500.75 641.3,-506.75 641.3,-512.75 641.3,-512.75 641.3,-524.75 641.3,-524.75 641.3,-530.75 635.3,-536.75 629.3,-536.75"/>
<text xml:space="preserve" text-anchor="middle" x="594.68" y="-521.8" font-family="sans-Serif" font-size="11.00" fill="#0f172a">plan_first</text>
<text xml:space="preserve" text-anchor="middle" x="594.68" y="-508.3" font-family="sans-Serif" font-size="11.00" fill="#0f172a">(pre&#45;pass, local)</text>
</g>
<!-- Router&#45;&gt;Plan -->
<g id="edge5" class="edge">
<title>Router&#45;&gt;Plan</title>
<path fill="none" stroke="#a78bfa" stroke-width="1.3" d="M462.68,-518.75C487.64,-518.75 512.6,-518.75 537.56,-518.75"/>
<polygon fill="#a78bfa" stroke="#a78bfa" stroke-width="1.3" points="537.53,-521.55 545.53,-518.75 537.53,-515.95 537.53,-521.55"/>
</g>
<!-- Plan&#45;&gt;Dispatch -->
<g id="edge6" class="edge">
<title>Plan&#45;&gt;Dispatch</title>
<path fill="none" stroke="#a78bfa" stroke-width="1.3" d="M641.98,-518.75C666.83,-518.75 691.68,-518.75 716.54,-518.75"/>
<polygon fill="#a78bfa" stroke="#a78bfa" stroke-width="1.3" points="716.46,-521.55 724.46,-518.75 716.46,-515.95 716.46,-521.55"/>
</g>
<!-- Escalate&#45;&gt;LLM -->
<g id="edge55" class="edge">
<title>Escalate&#45;&gt;LLM</title>
<path fill="none" stroke="#a78bfa" stroke-width="2" stroke-dasharray="5,2" d="M947.25,-537.7C911.27,-569.31 836.55,-634.98 795.75,-670.83"/>
<polygon fill="#a78bfa" stroke="#a78bfa" stroke-width="2" points="794.02,-668.62 789.86,-676.01 797.72,-672.83 794.02,-668.62"/>
<text xml:space="preserve" text-anchor="middle" x="892.14" y="-633.95" font-family="sans-Serif" font-size="9.00" fill="#cbd5e1">Swarm.ask(persona)</text>
<text xml:space="preserve" text-anchor="middle" x="892.14" y="-623.45" font-family="sans-Serif" font-size="9.00" fill="#cbd5e1">frontier hint</text>
</g>
<!-- Escalate&#45;&gt;Result -->
<!-- Escalate&#45;&gt;Mistakes -->
<g id="edge56" class="edge">
<title>Escalate&#45;&gt;Mistakes</title>
<path fill="none" stroke="#fb7185" stroke-width="1.3" stroke-dasharray="5,2" d="M915.5,-499.77C879.1,-484.58 840.92,-461.51 864.43,-437.5 879.21,-422.4 1225.11,-437.49 1244.68,-429.5 1276.05,-416.69 1303.7,-390.08 1323.03,-367.45"/>
<polygon fill="#fb7185" stroke="#fb7185" stroke-width="1.3" points="1325.04,-369.41 1328,-361.47 1320.73,-365.83 1325.04,-369.41"/>
<text xml:space="preserve" text-anchor="middle" x="898.55" y="-449.95" font-family="sans-Serif" font-size="9.00" fill="#cbd5e1">record</text>
<text xml:space="preserve" text-anchor="middle" x="898.55" y="-439.45" font-family="sans-Serif" font-size="9.00" fill="#cbd5e1">(tool:&#39;escalation&#39;)</text>
</g>
<!-- Result&#45;&gt;User -->
<g id="edge58" class="edge">
<title>Result&#45;&gt;User</title>
<path fill="none" stroke="#38bdf8" stroke-width="2" d="M1137.68,-537.34C1119.89,-558.5 1087.21,-593.67 1051.68,-613.5 1008.65,-637.51 993.24,-634.2 944.68,-642.5 701.88,-683.98 407.35,-693.01 285.12,-694.96"/>
<polygon fill="#38bdf8" stroke="#38bdf8" stroke-width="2" points="285.17,-692.16 277.21,-695.08 285.25,-697.76 285.17,-692.16"/>
<text xml:space="preserve" text-anchor="middle" x="1050.06" y="-628.7" font-family="sans-Serif" font-size="9.00" fill="#cbd5e1">answer</text>
</g>
<!-- Learning -->
<g id="node11" class="node">
<title>Learning</title>
<path fill="#6ee7b7" stroke="#334155" stroke-width="1.4" d="M1764.43,-359C1764.43,-359 1620.93,-359 1620.93,-359 1614.93,-359 1608.93,-353 1608.93,-347 1608.93,-347 1608.93,-309 1608.93,-309 1608.93,-303 1614.93,-297 1620.93,-297 1620.93,-297 1764.43,-297 1764.43,-297 1770.43,-297 1776.43,-303 1776.43,-309 1776.43,-309 1776.43,-347 1776.43,-347 1776.43,-353 1770.43,-359 1764.43,-359"/>
<text xml:space="preserve" text-anchor="middle" x="1692.68" y="-344.55" font-family="sans-Serif" font-size="11.00" fill="#0f172a">Learning</text>
<text xml:space="preserve" text-anchor="middle" x="1692.68" y="-331.05" font-family="sans-Serif" font-size="11.00" fill="#0f172a">note_outcome · reflect</text>
<text xml:space="preserve" text-anchor="middle" x="1692.68" y="-317.55" font-family="sans-Serif" font-size="11.00" fill="#0f172a">exemplars_for · export_finetune</text>
<text xml:space="preserve" text-anchor="middle" x="1692.68" y="-304.05" font-family="sans-Serif" font-size="11.00" fill="#0f172a">fact_check_local_final</text>
</g>
<!-- Result&#45;&gt;Learning -->
<g id="edge11" class="edge">
<title>Result&#45;&gt;Learning</title>
<path fill="none" stroke="#34d399" stroke-width="1.3" d="M1114.22,-503.76C1095.66,-497.42 1072.77,-490.47 1051.68,-486.5 962.8,-469.77 584.04,-501.76 647.68,-437.5 655.6,-429.5 1447.65,-431.82 1458.68,-429.5 1519.44,-416.69 1583.96,-387.69 1629.83,-364.11"/>
<polygon fill="#34d399" stroke="#34d399" stroke-width="1.3" points="1630.9,-366.71 1636.71,-360.54 1628.32,-361.74 1630.9,-366.71"/>
<text xml:space="preserve" text-anchor="middle" x="679.18" y="-444.7" font-family="sans-Serif" font-size="9.00" fill="#cbd5e1">auto_introspect</text>
</g>
<!-- Reward -->
<g id="node14" class="node">
<title>Reward</title>
<path fill="#6ee7b7" stroke="#334155" stroke-width="2" d="M1948.3,-352.25C1948.3,-352.25 1831.05,-352.25 1831.05,-352.25 1825.05,-352.25 1819.05,-346.25 1819.05,-340.25 1819.05,-340.25 1819.05,-315.75 1819.05,-315.75 1819.05,-309.75 1825.05,-303.75 1831.05,-303.75 1831.05,-303.75 1948.3,-303.75 1948.3,-303.75 1954.3,-303.75 1960.3,-309.75 1960.3,-315.75 1960.3,-315.75 1960.3,-340.25 1960.3,-340.25 1960.3,-346.25 1954.3,-352.25 1948.3,-352.25"/>
<text xml:space="preserve" text-anchor="middle" x="1889.68" y="-337.8" font-family="sans-Serif" font-size="11.00" fill="#0f172a">Reward</text>
<text xml:space="preserve" text-anchor="middle" x="1889.68" y="-324.3" font-family="sans-Serif" font-size="11.00" fill="#0f172a">judge (ORM) · prm (PRM)</text>
<text xml:space="preserve" text-anchor="middle" x="1889.68" y="-310.8" font-family="sans-Serif" font-size="11.00" fill="#0f172a">sentinel · semantic_ok</text>
</g>
<!-- Result&#45;&gt;Reward -->
<g id="edge59" class="edge">
<title>Result&#45;&gt;Reward</title>
<path fill="none" stroke="#34d399" stroke-width="2" d="M1114.42,-504.77C1076.61,-489.73 1027.06,-463.65 1052.93,-437.5 1067.48,-422.79 1778.79,-437.94 1797.68,-429.5 1828.75,-415.62 1853.96,-385.59 1870.08,-361.95"/>
<polygon fill="#34d399" stroke="#34d399" stroke-width="2" points="1872.29,-363.68 1874.35,-355.46 1867.61,-360.6 1872.29,-363.68"/>
<text xml:space="preserve" text-anchor="middle" x="1075.8" y="-444.7" font-family="sans-Serif" font-size="9.00" fill="#cbd5e1">judge · prm</text>
</g>
<!-- Result&#45;&gt;Curric -->
<g id="edge60" class="edge">
<title>Result&#45;&gt;Curric</title>
<path fill="none" stroke="#34d399" stroke-width="1.3" d="M1142.61,-500.1C1134.64,-481.83 1126.59,-453.74 1142.68,-437.5 1159.08,-420.94 1960.05,-438.18 1981.68,-429.5 2016.31,-415.59 2046.33,-384.71 2065.69,-360.82"/>
<polygon fill="#34d399" stroke="#34d399" stroke-width="1.3" points="2067.86,-362.59 2070.62,-354.57 2063.47,-359.12 2067.86,-362.59"/>
<text xml:space="preserve" text-anchor="middle" x="1174.18" y="-444.7" font-family="sans-Serif" font-size="9.00" fill="#cbd5e1">critic · hindsight</text>
</g>
<!-- Result&#45;&gt;Observe -->
<g id="edge15" class="edge">
<title>Result&#45;&gt;Observe</title>
<path fill="none" stroke="#f59e0b" stroke-width="1.3" d="M1189.24,-517.88C1316.03,-517.8 1739.4,-513.16 2083.68,-458.5 2120.72,-452.62 2128.23,-442.39 2165.43,-437.5 2187.11,-434.65 2932.81,-438.63 2952.68,-429.5 2986.08,-414.14 3011.86,-379.27 3026.65,-354.93"/>
<polygon fill="#f59e0b" stroke="#f59e0b" stroke-width="1.3" points="3028.96,-356.52 3030.6,-348.2 3024.13,-353.68 3028.96,-356.52"/>
<text xml:space="preserve" text-anchor="middle" x="2216.05" y="-449.95" font-family="sans-Serif" font-size="9.00" fill="#cbd5e1">auto_extrospect</text>
<text xml:space="preserve" text-anchor="middle" x="2216.05" y="-439.45" font-family="sans-Serif" font-size="9.00" fill="#cbd5e1">(AUTO_SECTIONS only)</text>
</g>
<!-- Result&#45;&gt;Verify -->
<g id="edge45" class="edge">
<title>Result&#45;&gt;Verify</title>
<path fill="none" stroke="#f59e0b" stroke-width="1.3" stroke-dasharray="5,2" d="M1189.14,-516.5C1409.42,-509.11 2526.65,-471.05 2538.68,-458.5 2565.38,-430.63 2537.36,-388.72 2511.33,-360.18"/>
<polygon fill="#f59e0b" stroke="#f59e0b" stroke-width="1.3" points="2513.66,-358.57 2506.14,-354.66 2509.58,-362.41 2513.66,-358.57"/>
<text xml:space="preserve" text-anchor="middle" x="2593.9" y="-449.95" font-family="sans-Serif" font-size="9.00" fill="#cbd5e1">fact_check_local_final</text>
<text xml:space="preserve" text-anchor="middle" x="2593.9" y="-439.45" font-family="sans-Serif" font-size="9.00" fill="#cbd5e1">(CVE / version claims)</text>
</g>
<!-- Correlate -->
<g id="node20" class="node">
<title>Correlate</title>
<path fill="#fda4af" stroke="#334155" stroke-width="2" d="M2893.55,-204C2893.55,-204 2693.8,-204 2693.8,-204 2687.8,-204 2681.8,-198 2681.8,-192 2681.8,-192 2681.8,-179.5 2681.8,-179.5 2681.8,-173.5 2687.8,-167.5 2693.8,-167.5 2693.8,-167.5 2893.55,-167.5 2893.55,-167.5 2899.55,-167.5 2905.55,-173.5 2905.55,-179.5 2905.55,-179.5 2905.55,-192 2905.55,-192 2905.55,-198 2899.55,-204 2893.55,-204"/>
<text xml:space="preserve" text-anchor="middle" x="2793.68" y="-188.6" font-family="sans-Serif" font-size="12.00" fill="#0f172a">extro_correlate()</text>
<text xml:space="preserve" text-anchor="middle" x="2793.68" y="-174.35" font-family="sans-Serif" font-size="12.00" fill="#0f172a">&quot;I did it wrong&quot; &#160;vs &#160;&quot;the world changed&quot;</text>
</g>
<!-- Metrics&#45;&gt;Correlate -->
<g id="edge21" class="edge">
<title>Metrics&#45;&gt;Correlate</title>
<path fill="none" stroke="#34d399" stroke-width="1.3" d="M2348.98,-304.7C2365.48,-299.36 2383.17,-293.82 2399.68,-289 2505.44,-258.13 2628.52,-226.94 2708.59,-207.26"/>
<polygon fill="#34d399" stroke="#34d399" stroke-width="1.3" points="2709.13,-210.01 2716.23,-205.39 2707.79,-204.57 2709.13,-210.01"/>
</g>
<!-- Fmet -->
<g id="node21" class="node">
<title>Fmet</title>
<path fill="#fcd34d" stroke="#334155" stroke-width="1.4" d="M2377.18,-48.73C2377.18,-50.53 2360.82,-52 2340.68,-52 2320.54,-52 2304.18,-50.53 2304.18,-48.73 2304.18,-48.73 2304.18,-19.27 2304.18,-19.27 2304.18,-17.47 2320.54,-16 2340.68,-16 2360.82,-16 2377.18,-17.47 2377.18,-19.27 2377.18,-19.27 2377.18,-48.73 2377.18,-48.73"/>
<path fill="none" stroke="#334155" stroke-width="1.4" d="M2377.18,-48.73C2377.18,-46.92 2360.82,-45.45 2340.68,-45.45 2320.54,-45.45 2304.18,-46.92 2304.18,-48.73"/>
<text xml:space="preserve" text-anchor="middle" x="2340.68" y="-30.3" font-family="sans-Serif" font-size="11.00" fill="#0f172a">metrics.json</text>
</g>
<!-- Metrics&#45;&gt;Fmet -->
<g id="edge29" class="edge">
<title>Metrics&#45;&gt;Fmet</title>
<path fill="none" stroke="#94a3b8" stroke-width="1.3" d="M2341.12,-303.14C2421.01,-270.26 2555.2,-213.94 2561.68,-204 2581.99,-172.85 2555.85,-145.18 2521.68,-130.5 2496.51,-119.69 2422.38,-136.23 2398.68,-122.5 2375.4,-109.01 2359.68,-81.98 2350.54,-61.52"/>
<polygon fill="#94a3b8" stroke="#94a3b8" stroke-width="1.3" points="2353.14,-60.47 2347.46,-54.18 2347.98,-62.64 2353.14,-60.47"/>
</g>
<!-- ReflectT -->
<g id="node13" class="node">
<title>ReflectT</title>
<path fill="#6ee7b7" stroke="#334155" stroke-width="2" d="M1211.18,-352.25C1211.18,-352.25 1144.18,-352.25 1144.18,-352.25 1138.18,-352.25 1132.18,-346.25 1132.18,-340.25 1132.18,-340.25 1132.18,-315.75 1132.18,-315.75 1132.18,-309.75 1138.18,-303.75 1144.18,-303.75 1144.18,-303.75 1211.18,-303.75 1211.18,-303.75 1217.18,-303.75 1223.18,-309.75 1223.18,-315.75 1223.18,-315.75 1223.18,-340.25 1223.18,-340.25 1223.18,-346.25 1217.18,-352.25 1211.18,-352.25"/>
<text xml:space="preserve" text-anchor="middle" x="1177.68" y="-337.8" font-family="sans-Serif" font-size="11.00" fill="#0f172a">Reflect</text>
<text xml:space="preserve" text-anchor="middle" x="1177.68" y="-324.3" font-family="sans-Serif" font-size="11.00" fill="#0f172a">teacher&#45;student</text>
<text xml:space="preserve" text-anchor="middle" x="1177.68" y="-310.8" font-family="sans-Serif" font-size="11.00" fill="#0f172a">(reflect_engine)</text>
</g>
<!-- Learning&#45;&gt;ReflectT -->
<g id="edge42" class="edge">
<title>Learning&#45;&gt;ReflectT</title>
<path fill="none" stroke="#34d399" stroke-width="1.3" d="M1633.07,-359.64C1586.93,-382.26 1520.63,-410.76 1458.68,-422.83 1365.32,-441.03 1329.13,-466.57 1244.68,-422.83 1220.08,-410.1 1202.59,-383.72 1191.66,-362.01"/>
<polygon fill="#34d399" stroke="#34d399" stroke-width="1.3" points="1194.2,-360.83 1188.23,-354.82 1189.15,-363.25 1194.2,-360.83"/>
<text xml:space="preserve" text-anchor="middle" x="1550.68" y="-444.7" font-family="sans-Serif" font-size="9.00" fill="#cbd5e1">reflect()</text>
</g>
<!-- Learning&#45;&gt;Correlate -->
<g id="edge22" class="edge">
<title>Learning&#45;&gt;Correlate</title>
<path fill="none" stroke="#34d399" stroke-width="1.3" d="M1770.89,-296.34C1779.83,-293.54 1788.89,-291.01 1797.68,-289 1808.24,-286.58 2407.42,-225.82 2671.22,-199.13"/>
<polygon fill="#34d399" stroke="#34d399" stroke-width="1.3" points="2671.21,-201.94 2678.89,-198.35 2670.65,-196.37 2671.21,-201.94"/>
</g>
<!-- Flrn -->
<g id="node22" class="node">
<title>Flrn</title>
<path fill="#fcd34d" stroke="#334155" stroke-width="1.4" d="M1598.18,-48.73C1598.18,-50.53 1580.47,-52 1558.68,-52 1536.88,-52 1519.18,-50.53 1519.18,-48.73 1519.18,-48.73 1519.18,-19.27 1519.18,-19.27 1519.18,-17.47 1536.88,-16 1558.68,-16 1580.47,-16 1598.18,-17.47 1598.18,-19.27 1598.18,-19.27 1598.18,-48.73 1598.18,-48.73"/>
<path fill="none" stroke="#334155" stroke-width="1.4" d="M1598.18,-48.73C1598.18,-46.92 1580.47,-45.45 1558.68,-45.45 1536.88,-45.45 1519.18,-46.92 1519.18,-48.73"/>
<text xml:space="preserve" text-anchor="middle" x="1558.68" y="-30.3" font-family="sans-Serif" font-size="11.00" fill="#0f172a">learning.jsonl</text>
</g>
<!-- Learning&#45;&gt;Flrn -->
<g id="edge30" class="edge">
<title>Learning&#45;&gt;Flrn</title>
<path fill="none" stroke="#94a3b8" stroke-width="1.3" d="M1608.57,-318.48C1538.92,-306.26 1445.34,-276.49 1406.68,-204 1390.69,-174.02 1399.34,-149.24 1427.68,-130.5 1453.8,-113.23 1470.78,-138.54 1497.68,-122.5 1521.12,-108.51 1537.79,-81.62 1547.72,-61.32"/>
<polygon fill="#94a3b8" stroke="#94a3b8" stroke-width="1.3" points="1550.14,-62.75 1550.97,-54.31 1545.06,-60.39 1550.14,-62.75"/>
</g>
<!-- Fmem -->
<g id="node24" class="node">
<title>Fmem</title>
<path fill="#fcd34d" stroke="#334155" stroke-width="1.4" d="M1476.43,-48.73C1476.43,-50.53 1459.06,-52 1437.68,-52 1416.29,-52 1398.93,-50.53 1398.93,-48.73 1398.93,-48.73 1398.93,-19.27 1398.93,-19.27 1398.93,-17.47 1416.29,-16 1437.68,-16 1459.06,-16 1476.43,-17.47 1476.43,-19.27 1476.43,-19.27 1476.43,-48.73 1476.43,-48.73"/>
<path fill="none" stroke="#334155" stroke-width="1.4" d="M1476.43,-48.73C1476.43,-46.92 1459.06,-45.45 1437.68,-45.45 1416.29,-45.45 1398.93,-46.92 1398.93,-48.73"/>
<text xml:space="preserve" text-anchor="middle" x="1437.68" y="-30.3" font-family="sans-Serif" font-size="11.00" fill="#0f172a">memory.json</text>
</g>
<!-- Learning&#45;&gt;Fmem -->
<g id="edge33" class="edge">
<title>Learning&#45;&gt;Fmem</title>
<path fill="none" stroke="#94a3b8" stroke-width="1.3" d="M1608.46,-317.41C1553.37,-308.53 1481.21,-291.84 1423.68,-261 1390.68,-243.32 1376.72,-238.27 1361.68,-204 1338.95,-152.24 1383.23,-91.92 1413.23,-59.17"/>
<polygon fill="#94a3b8" stroke="#94a3b8" stroke-width="1.3" points="1414.97,-61.41 1418.41,-53.66 1410.89,-57.57 1414.97,-61.41"/>
<text xml:space="preserve" text-anchor="middle" x="1375.18" y="-182.45" font-family="sans-Serif" font-size="9.00" fill="#cbd5e1">lesson</text>
</g>
<!-- Fskl -->
<g id="node26" class="node">
<title>Fskl</title>
<path fill="#fcd34d" stroke="#334155" stroke-width="1.4" d="M2131.68,-48.73C2131.68,-50.53 2106.58,-52 2075.68,-52 2044.78,-52 2019.68,-50.53 2019.68,-48.73 2019.68,-48.73 2019.68,-19.27 2019.68,-19.27 2019.68,-17.47 2044.78,-16 2075.68,-16 2106.58,-16 2131.68,-17.47 2131.68,-19.27 2131.68,-19.27 2131.68,-48.73 2131.68,-48.73"/>
<path fill="none" stroke="#334155" stroke-width="1.4" d="M2131.68,-48.73C2131.68,-46.92 2106.58,-45.45 2075.68,-45.45 2044.78,-45.45 2019.68,-46.92 2019.68,-48.73"/>
<text xml:space="preserve" text-anchor="middle" x="2075.68" y="-30.3" font-family="sans-Serif" font-size="11.00" fill="#0f172a">skills/&lt;n&gt;/SKILL.md</text>
</g>
<!-- Learning&#45;&gt;Fskl -->
<g id="edge34" class="edge">
<title>Learning&#45;&gt;Fskl</title>
<path fill="none" stroke="#94a3b8" stroke-width="1.3" d="M1747.23,-296.37C1810.73,-259.41 1917.15,-193.36 1997.68,-122.5 2019.47,-103.33 2041.19,-78.36 2056.15,-60"/>
<polygon fill="#94a3b8" stroke="#94a3b8" stroke-width="1.3" points="2058.06,-62.1 2060.9,-54.11 2053.7,-58.58 2058.06,-62.1"/>
<text xml:space="preserve" text-anchor="middle" x="1949.43" y="-182.45" font-family="sans-Serif" font-size="9.00" fill="#cbd5e1">skill</text>
</g>
<!-- Fftn -->
<g id="node28" class="node">
<title>Fftn</title>
<path fill="#fcd34d" stroke="#334155" stroke-width="1.4" d="M2260.93,-48.73C2260.93,-50.53 2241.54,-52 2217.68,-52 2193.81,-52 2174.43,-50.53 2174.43,-48.73 2174.43,-48.73 2174.43,-19.27 2174.43,-19.27 2174.43,-17.47 2193.81,-16 2217.68,-16 2241.54,-16 2260.93,-17.47 2260.93,-19.27 2260.93,-19.27 2260.93,-48.73 2260.93,-48.73"/>
<path fill="none" stroke="#334155" stroke-width="1.4" d="M2260.93,-48.73C2260.93,-46.92 2241.54,-45.45 2217.68,-45.45 2193.81,-45.45 2174.43,-46.92 2174.43,-48.73"/>
<text xml:space="preserve" text-anchor="middle" x="2217.68" y="-30.3" font-family="sans-Serif" font-size="11.00" fill="#0f172a">finetune/*.jsonl</text>
</g>
<!-- Learning&#45;&gt;Fftn -->
<g id="edge41" class="edge">
<title>Learning&#45;&gt;Fftn</title>
<path fill="none" stroke="#94a3b8" stroke-width="1.3" d="M1770.03,-296.34C1796.94,-285.45 1827.24,-272.93 1854.68,-261 1863.07,-257.35 2146.6,-128.3 2153.68,-122.5 2174.54,-105.4 2192.1,-80.03 2203.52,-61"/>
<polygon fill="#94a3b8" stroke="#94a3b8" stroke-width="1.3" points="2205.87,-62.52 2207.48,-54.2 2201.03,-59.7 2205.87,-62.52"/>
<text xml:space="preserve" text-anchor="middle" x="2088.91" y="-182.45" font-family="sans-Serif" font-size="9.00" fill="#cbd5e1">export_finetune</text>
</g>
<!-- Mistakes&#45;&gt;Dispatch -->
<g id="edge50" class="edge">
<title>Mistakes&#45;&gt;Dispatch</title>
<path fill="none" stroke="#fb7185" stroke-width="2" stroke-dasharray="5,2" d="M1329.62,-359.8C1305.51,-390.73 1263.84,-436.84 1215.68,-458.5 1148.35,-488.78 957.4,-473.82 884.68,-486.5 863.17,-490.25 839.86,-496.1 819.75,-501.73"/>
<polygon fill="#fb7185" stroke="#fb7185" stroke-width="2" points="819.08,-499.01 812.16,-503.9 820.62,-504.39 819.08,-499.01"/>
<text xml:space="preserve" text-anchor="middle" x="1283.41" y="-449.95" font-family="sans-Serif" font-size="9.00" fill="#cbd5e1">correction_hint</text>
<text xml:space="preserve" text-anchor="middle" x="1283.41" y="-439.45" font-family="sans-Serif" font-size="9.00" fill="#cbd5e1">(inline, next iter)</text>
</g>
<!-- Mistakes&#45;&gt;Correlate -->
<g id="edge23" class="edge">
<title>Mistakes&#45;&gt;Correlate</title>
<path fill="none" stroke="#34d399" stroke-width="1.3" d="M1437.81,-311.93C1482.45,-304.43 1537.89,-295.58 1587.68,-289 2018.46,-232.05 2128.3,-235.68 2561.68,-204 2597.21,-201.4 2635.8,-198.55 2671.12,-195.92"/>
<polygon fill="#34d399" stroke="#34d399" stroke-width="1.3" points="2671.26,-198.72 2679.03,-195.33 2670.84,-193.13 2671.26,-198.72"/>
</g>
<!-- Fmis -->
<g id="node23" class="node">
<title>Fmis</title>
<path fill="#fcd34d" stroke="#334155" stroke-width="1.4" d="M1861.93,-48.73C1861.93,-50.53 1843.88,-52 1821.68,-52 1799.47,-52 1781.43,-50.53 1781.43,-48.73 1781.43,-48.73 1781.43,-19.27 1781.43,-19.27 1781.43,-17.47 1799.47,-16 1821.68,-16 1843.88,-16 1861.93,-17.47 1861.93,-19.27 1861.93,-19.27 1861.93,-48.73 1861.93,-48.73"/>
<path fill="none" stroke="#334155" stroke-width="1.4" d="M1861.93,-48.73C1861.93,-46.92 1843.88,-45.45 1821.68,-45.45 1799.47,-45.45 1781.43,-46.92 1781.43,-48.73"/>
<text xml:space="preserve" text-anchor="middle" x="1821.68" y="-30.3" font-family="sans-Serif" font-size="11.00" fill="#0f172a">mistakes.json</text>
</g>
<!-- Mistakes&#45;&gt;Fmis -->
<g id="edge31" class="edge">
<title>Mistakes&#45;&gt;Fmis</title>
<path fill="none" stroke="#94a3b8" stroke-width="1.3" d="M1366.72,-296.02C1386.47,-258.93 1424.83,-198.01 1476.68,-167.5 1586.44,-102.91 1651.5,-189.72 1759.68,-122.5 1782.85,-108.1 1799.81,-81.51 1810.08,-61.41"/>
<polygon fill="#94a3b8" stroke="#94a3b8" stroke-width="1.3" points="1812.47,-62.88 1813.46,-54.46 1807.44,-60.43 1812.47,-62.88"/>
</g>
<!-- Mistakes&#45;&gt;Fmem -->
<g id="edge32" class="edge">
<title>Mistakes&#45;&gt;Fmem</title>
<path fill="none" stroke="#94a3b8" stroke-width="1.3" d="M1266.32,-296.01C1259.02,-293.57 1251.73,-291.2 1244.68,-289 1148.62,-259.06 998.17,-251.42 1053.68,-167.5 1127.49,-55.89 1302.83,-36.94 1388.65,-34.6"/>
<polygon fill="#94a3b8" stroke="#94a3b8" stroke-width="1.3" points="1388.5,-37.41 1396.44,-34.44 1388.39,-31.81 1388.5,-37.41"/>
<text xml:space="preserve" text-anchor="middle" x="1086.68" y="-182.45" font-family="sans-Serif" font-size="9.00" fill="#cbd5e1">resolve→lesson</text>
</g>
<!-- ReflectT&#45;&gt;LLM -->
<g id="edge44" class="edge">
<title>ReflectT&#45;&gt;LLM</title>
<path fill="none" stroke="#a78bfa" stroke-width="1.3" stroke-dasharray="5,2" d="M1186.55,-353.07C1196.69,-376.85 1215.73,-412.12 1244.68,-429.5 1260.18,-438.81 1313.53,-424.1 1325.68,-437.5 1389.08,-507.47 1286.37,-562.85 1206.68,-613.5 1144.55,-652.98 933.08,-679.01 827.98,-689.82"/>
<polygon fill="#a78bfa" stroke="#a78bfa" stroke-width="1.3" points="827.78,-687.02 820.11,-690.62 828.35,-692.59 827.78,-687.02"/>
<text xml:space="preserve" text-anchor="middle" x="1391.02" y="-515.45" font-family="sans-Serif" font-size="9.00" fill="#cbd5e1">reflect_engine ≠ active</text>
</g>
<!-- ReflectT&#45;&gt;Fmem -->
<g id="edge43" class="edge">
<title>ReflectT&#45;&gt;Fmem</title>
<path fill="none" stroke="#94a3b8" stroke-width="1.3" d="M1131.44,-313.94C1056.78,-290.47 922.76,-237.05 971.68,-167.5 1020.24,-98.45 1279.16,-56.22 1388.69,-41.21"/>
<polygon fill="#94a3b8" stroke="#94a3b8" stroke-width="1.3" points="1389,-43.99 1396.55,-40.14 1388.25,-38.44 1389,-43.99"/>
<text xml:space="preserve" text-anchor="middle" x="1001.68" y="-182.45" font-family="sans-Serif" font-size="9.00" fill="#cbd5e1">frontier :lesson</text>
</g>
<!-- Reward&#45;&gt;Mistakes -->
<g id="edge64" class="edge">
<title>Reward&#45;&gt;Mistakes</title>
<path fill="none" stroke="#fb7185" stroke-width="1.3" stroke-dasharray="5,2" d="M1874.23,-352.84C1858.28,-375.9 1831.05,-408.71 1797.68,-422.83 1711.72,-459.2 1679.31,-440.56 1587.68,-422.83 1529.35,-411.55 1467.15,-385.94 1421.26,-364.17"/>
<polygon fill="#fb7185" stroke="#fb7185" stroke-width="1.3" points="1422.5,-361.66 1414.08,-360.73 1420.08,-366.71 1422.5,-361.66"/>
<text xml:space="preserve" text-anchor="middle" x="1504.68" y="-444.7" font-family="sans-Serif" font-size="9.00" fill="#cbd5e1">sentinel gap</text>
</g>
<!-- Reward&#45;&gt;Verify -->
<g id="edge62" class="edge">
<title>Reward&#45;&gt;Verify</title>
<path fill="none" stroke="#fbbf24" stroke-width="1.3" stroke-dasharray="5,2" d="M1905.13,-352.84C1921.08,-375.9 1948.3,-408.71 1981.68,-422.83 2060.47,-456.17 2286.35,-452.27 2366.68,-422.83 2400.63,-410.39 2431.37,-382.59 2452.02,-360.28"/>
<polygon fill="#fbbf24" stroke="#fbbf24" stroke-width="1.3" points="2454.02,-362.24 2457.3,-354.42 2449.86,-358.49 2454.02,-362.24"/>
<text xml:space="preserve" text-anchor="middle" x="2038.68" y="-444.7" font-family="sans-Serif" font-size="9.00" fill="#cbd5e1">verify_as_reward</text>
</g>
<!-- Reward&#45;&gt;Fprf -->
<g id="edge63" class="edge">
<title>Reward&#45;&gt;Fprf</title>
<path fill="none" stroke="#94a3b8" stroke-width="1.3" d="M1837.44,-302.76C1824.65,-297.58 1810.85,-292.59 1797.68,-289 1662,-252.07 1565.01,-324.73 1492.93,-204 1484.61,-190.07 1483.73,-180.86 1492.93,-167.5 1519.03,-129.58 1545.87,-144.67 1589.68,-130.5 1602.8,-126.25 1608.12,-130.04 1619.68,-122.5 1643.41,-107.01 1662.8,-80.81 1675.1,-61.11"/>
<polygon fill="#94a3b8" stroke="#94a3b8" stroke-width="1.3" points="1677.5,-62.56 1679.23,-54.26 1672.7,-59.67 1677.5,-62.56"/>
<text xml:space="preserve" text-anchor="middle" x="1530.8" y="-182.45" font-family="sans-Serif" font-size="9.00" fill="#cbd5e1">record_preference</text>
</g>
<!-- Curric&#45;&gt;Fmis -->
<g id="edge66" class="edge">
<title>Curric&#45;&gt;Fmis</title>
<path fill="none" stroke="#34d399" stroke-width="1.3" stroke-dasharray="5,2" d="M2020.7,-302.84C1938.69,-273.02 1810.07,-223.81 1796.93,-204 1768.03,-160.45 1790.65,-96.76 1807.55,-61.31"/>
<polygon fill="#34d399" stroke="#34d399" stroke-width="1.3" points="1809.99,-62.69 1811.03,-54.27 1804.97,-60.2 1809.99,-62.69"/>
<text xml:space="preserve" text-anchor="middle" x="1834.8" y="-182.45" font-family="sans-Serif" font-size="9.00" fill="#cbd5e1">practice → resolve</text>
</g>
<!-- Curric&#45;&gt;Fftn -->
<g id="edge67" class="edge">
<title>Curric&#45;&gt;Fftn</title>
<path fill="none" stroke="#94a3b8" stroke-width="1.3" d="M2155.41,-302.82C2249.38,-268.61 2409.8,-209.61 2413.68,-204 2422.9,-190.65 2423.07,-180.73 2413.68,-167.5 2384.79,-126.82 2355,-146.33 2307.68,-130.5 2296.61,-126.8 2292.17,-129.29 2282.68,-122.5 2260.25,-106.46 2242.3,-80.34 2230.99,-60.81"/>
<polygon fill="#94a3b8" stroke="#94a3b8" stroke-width="1.3" points="2233.57,-59.69 2227.23,-54.07 2228.69,-62.42 2233.57,-59.69"/>
<text xml:space="preserve" text-anchor="middle" x="2451.78" y="-182.45" font-family="sans-Serif" font-size="9.00" fill="#cbd5e1">train_and_gate</text>
</g>
<!-- Curric&#45;&gt;Fprf -->
<g id="edge65" class="edge">
<title>Curric&#45;&gt;Fprf</title>
<path fill="none" stroke="#94a3b8" stroke-width="1.3" d="M2024.89,-302.85C2010.77,-297.92 1995.8,-293.02 1981.68,-289 1863.02,-255.2 1793.78,-300.9 1717.43,-204 1685.1,-162.98 1684.07,-98.68 1686.61,-62.37"/>
<polygon fill="#94a3b8" stroke="#94a3b8" stroke-width="1.3" points="1689.39,-62.64 1687.27,-54.44 1683.81,-62.18 1689.39,-62.64"/>
<text xml:space="preserve" text-anchor="middle" x="1745.55" y="-182.45" font-family="sans-Serif" font-size="9.00" fill="#cbd5e1">(loser,winner)</text>
</g>
<!-- Snapshot&#45;&gt;Correlate -->
<g id="edge24" class="edge">
<title>Snapshot&#45;&gt;Correlate</title>
<path fill="none" stroke="#f59e0b" stroke-width="1.3" d="M2702.06,-296.57C2723.08,-271.38 2752.59,-236 2772.38,-212.27"/>
<polygon fill="#f59e0b" stroke="#f59e0b" stroke-width="1.3" points="2774.46,-214.15 2777.44,-206.22 2770.16,-210.56 2774.46,-214.15"/>
</g>
<!-- Observe&#45;&gt;Correlate -->
<g id="edge25" class="edge">
<title>Observe&#45;&gt;Correlate</title>
<path fill="none" stroke="#f59e0b" stroke-width="1.3" d="M3009.89,-309.52C2965.49,-284.31 2883.39,-237.69 2834.13,-209.72"/>
<polygon fill="#f59e0b" stroke="#f59e0b" stroke-width="1.3" points="2835.68,-207.38 2827.34,-205.87 2832.92,-212.25 2835.68,-207.38"/>
</g>
<!-- Fext -->
<g id="node27" class="node">
<title>Fext</title>
<path fill="#fcd34d" stroke="#334155" stroke-width="1.4" d="M2522.8,-48.73C2522.8,-50.53 2499.89,-52 2471.68,-52 2443.47,-52 2420.55,-50.53 2420.55,-48.73 2420.55,-48.73 2420.55,-19.27 2420.55,-19.27 2420.55,-17.47 2443.47,-16 2471.68,-16 2499.89,-16 2522.8,-17.47 2522.8,-19.27 2522.8,-19.27 2522.8,-48.73 2522.8,-48.73"/>
<path fill="none" stroke="#334155" stroke-width="1.4" d="M2522.8,-48.73C2522.8,-46.92 2499.89,-45.45 2471.68,-45.45 2443.47,-45.45 2420.55,-46.92 2420.55,-48.73"/>
<text xml:space="preserve" text-anchor="middle" x="2471.68" y="-30.3" font-family="sans-Serif" font-size="11.00" fill="#0f172a">extrospection.json</text>
</g>
<!-- Observe&#45;&gt;Fext -->
<g id="edge35" class="edge">
<title>Observe&#45;&gt;Fext</title>
<path fill="none" stroke="#94a3b8" stroke-width="1.3" d="M3047.01,-309.3C3056.94,-278.28 3072.53,-213.04 3046.68,-167.5 3030.83,-139.59 3014.7,-141.84 2984.68,-130.5 2828.38,-71.48 2631.05,-47.94 2532.91,-39.38"/>
<polygon fill="#94a3b8" stroke="#94a3b8" stroke-width="1.3" points="2533.33,-36.61 2525.12,-38.72 2532.86,-42.19 2533.33,-36.61"/>
</g>
<!-- Verify&#45;&gt;Mistakes -->
<g id="edge38" class="edge">
<title>Verify&#45;&gt;Mistakes</title>
<path fill="none" stroke="#fb7185" stroke-width="1.3" stroke-dasharray="5,2" d="M2458.62,-352.96C2438.28,-376.1 2404.47,-408.98 2366.68,-422.83 2285.41,-452.62 1672.66,-439.27 1587.68,-422.83 1529.35,-411.55 1467.15,-385.94 1421.26,-364.17"/>
<polygon fill="#fb7185" stroke="#fb7185" stroke-width="1.3" points="1422.5,-361.66 1414.08,-360.73 1420.08,-366.71 1422.5,-361.66"/>
<text xml:space="preserve" text-anchor="middle" x="1892.68" y="-444.7" font-family="sans-Serif" font-size="9.00" fill="#cbd5e1">:refuted</text>
</g>
<!-- Verify&#45;&gt;Correlate -->
<g id="edge26" class="edge">
<title>Verify&#45;&gt;Correlate</title>
<path fill="none" stroke="#f59e0b" stroke-width="1.3" d="M2530.22,-302.92C2540.3,-298.26 2550.81,-293.45 2560.68,-289 2622.97,-260.9 2695.05,-229.43 2742.35,-208.92"/>
<polygon fill="#f59e0b" stroke="#f59e0b" stroke-width="1.3" points="2743.44,-211.5 2749.66,-205.75 2741.21,-206.36 2743.44,-211.5"/>
</g>
<!-- Verify&#45;&gt;Fmis -->
<g id="edge37" class="edge">
<title>Verify&#45;&gt;Fmis</title>
<path fill="none" stroke="#fb7185" stroke-width="2" d="M2457.27,-303.02C2439.92,-284.45 2414.24,-258.79 2388.68,-240 2361.75,-220.21 2351.66,-220.63 2322.68,-204 2267.77,-172.5 2261.45,-148.22 2200.68,-130.5 2166.85,-120.64 1914.77,-139.08 1883.68,-122.5 1859.64,-109.69 1842.83,-82.95 1832.84,-62.38"/>
<polygon fill="#fb7185" stroke="#fb7185" stroke-width="2" points="1835.49,-61.44 1829.61,-55.33 1830.39,-63.77 1835.49,-61.44"/>
<text xml:space="preserve" text-anchor="middle" x="2363.18" y="-187.7" font-family="sans-Serif" font-size="9.00" fill="#cbd5e1">:refuted →</text>
<text xml:space="preserve" text-anchor="middle" x="2363.18" y="-177.2" font-family="sans-Serif" font-size="9.00" fill="#cbd5e1">assumption mistake</text>
</g>
<!-- Verify&#45;&gt;Fmem -->
<g id="edge39" class="edge">
<title>Verify&#45;&gt;Fmem</title>
<path fill="none" stroke="#a78bfa" stroke-width="1.3" stroke-dasharray="5,2" d="M2421.94,-302.76C2365.82,-278.54 2277.66,-239.86 2202.43,-204 2170.13,-188.61 2165.15,-177.07 2130.68,-167.5 1994.79,-129.78 1620.03,-192.61 1497.68,-122.5 1473.98,-108.92 1457.6,-81.71 1448.02,-61.22"/>
<polygon fill="#a78bfa" stroke="#a78bfa" stroke-width="1.3" points="1450.69,-60.33 1444.89,-54.15 1445.56,-62.6 1450.69,-60.33"/>
<text xml:space="preserve" text-anchor="middle" x="2232.05" y="-187.7" font-family="sans-Serif" font-size="9.00" fill="#cbd5e1">mark stale</text>
<text xml:space="preserve" text-anchor="middle" x="2232.05" y="-177.2" font-family="sans-Serif" font-size="9.00" fill="#cbd5e1">[UNVERIFIED]</text>
</g>
<!-- Verify&#45;&gt;Fext -->
<g id="edge40" class="edge">
<title>Verify&#45;&gt;Fext</title>
<path fill="none" stroke="#94a3b8" stroke-width="1.3" d="M2526.56,-302.81C2537.59,-297.8 2549.4,-292.88 2560.68,-289 2722.76,-233.29 3029.54,-304.59 2926.68,-167.5 2879.12,-104.11 2645.5,-61.1 2532.76,-43.68"/>
<polygon fill="#94a3b8" stroke="#94a3b8" stroke-width="1.3" points="2533.5,-40.96 2525.17,-42.52 2532.65,-46.5 2533.5,-40.96"/>
<text xml:space="preserve" text-anchor="middle" x="2967.18" y="-187.7" font-family="sans-Serif" font-size="9.00" fill="#cbd5e1">:confirmed</text>
<text xml:space="preserve" text-anchor="middle" x="2967.18" y="-177.2" font-family="sans-Serif" font-size="9.00" fill="#cbd5e1">:intel obs</text>
</g>
<!-- RFTune&#45;&gt;Correlate -->
<g id="edge27" class="edge">
<title>RFTune&#45;&gt;Correlate</title>
<path fill="none" stroke="#f59e0b" stroke-width="1.3" d="M2859.1,-302.89C2845.05,-277.95 2823.17,-239.1 2808.63,-213.3"/>
<polygon fill="#f59e0b" stroke="#f59e0b" stroke-width="1.3" points="2811.15,-212.07 2804.79,-206.47 2806.27,-214.82 2811.15,-212.07"/>
</g>
<!-- RFTune&#45;&gt;Fext -->
<g id="edge36" class="edge">
<title>RFTune&#45;&gt;Fext</title>
<path fill="none" stroke="#94a3b8" stroke-width="1.3" d="M2915.84,-302.75C2964.43,-272.23 3032.46,-217.71 2998.68,-167.5 2946.57,-90.07 2660.24,-53.18 2532.84,-40.42"/>
<polygon fill="#94a3b8" stroke="#94a3b8" stroke-width="1.3" points="2533.41,-37.66 2525.17,-39.66 2532.86,-43.23 2533.41,-37.66"/>
<text xml:space="preserve" text-anchor="middle" x="3022.36" y="-187.7" font-family="sans-Serif" font-size="9.00" fill="#cbd5e1">:rf obs</text>
<text xml:space="preserve" text-anchor="middle" x="3022.36" y="-177.2" font-family="sans-Serif" font-size="9.00" fill="#cbd5e1">ttl 300s</text>
</g>
<!-- Correlate&#45;&gt;Prompt -->
<g id="edge51" class="edge">
<title>Correlate&#45;&gt;Prompt</title>
<path fill="none" stroke="#fb7185" stroke-width="2" stroke-dasharray="5,2" d="M2897.93,-204.98C2984.66,-222.51 3098.23,-251.82 3125.68,-289 3162.77,-339.23 3168.47,-384.02 3125.68,-429.5 3053.05,-506.68 2755.58,-454.63 2649.68,-458.5 2394.72,-467.82 606.73,-454.02 353.68,-486.5 336.27,-488.73 317.81,-492.5 300.53,-496.66"/>
<polygon fill="#fb7185" stroke="#fb7185" stroke-width="2" points="299.97,-493.91 292.88,-498.56 301.32,-499.34 299.97,-493.91"/>
<text xml:space="preserve" text-anchor="middle" x="3195.04" y="-324.7" font-family="sans-Serif" font-size="9.00" fill="#cbd5e1">findings → next run</text>
</g>
<!-- Correlate&#45;&gt;Fmet -->
<!-- Fmet&#45;&gt;Router -->
<g id="edge54" class="edge">
<title>Fmet&#45;&gt;Router</title>
<path fill="none" stroke="#fbbf24" stroke-width="1.3" stroke-dasharray="5,2" d="M2346.6,-52.53C2354.7,-73.41 2371.43,-107.37 2398.68,-122.5 2412.48,-130.16 2666.92,-129.48 2682.68,-130.5 2844.95,-141.02 2892.62,-115.45 3046.68,-167.5 3184.95,-214.22 3343.26,-321.87 3244.68,-429.5 3145.23,-538.07 3061.73,-451.19 2914.68,-458.5 2649.65,-471.68 789.18,-447.71 526.68,-486.5 508.59,-489.17 489.28,-494.07 472.07,-499.21"/>
<polygon fill="#fbbf24" stroke="#fbbf24" stroke-width="1.3" points="471.45,-496.47 464.62,-501.5 473.09,-501.83 471.45,-496.47"/>
<text xml:space="preserve" text-anchor="middle" x="3243.77" y="-252.45" font-family="sans-Serif" font-size="9.00" fill="#cbd5e1">success_rate</text>
<text xml:space="preserve" text-anchor="middle" x="3243.77" y="-241.95" font-family="sans-Serif" font-size="9.00" fill="#cbd5e1">→ tie&#45;break</text>
</g>
<!-- Flrn&#45;&gt;Plan -->
<g id="edge53" class="edge">
<title>Flrn&#45;&gt;Plan</title>
<path fill="none" stroke="#fbbf24" stroke-width="1.3" stroke-dasharray="5,2" d="M1565.18,-52.54C1573.97,-73.44 1591.84,-107.41 1619.68,-122.5 1759.14,-198.1 2889.19,-148.48 3046.68,-167.5 3200.93,-186.13 3242.32,-187.81 3388.68,-240 3391.47,-241 3482.13,-286.46 3483.68,-289 3516.17,-342.32 3520.27,-378.9 3483.68,-429.5 3459.54,-462.87 3436.3,-451.76 3395.68,-458.5 3100.8,-507.41 1001.55,-444.07 705.68,-486.5 687.7,-489.08 668.53,-493.75 651.26,-498.71"/>
<polygon fill="#fbbf24" stroke="#fbbf24" stroke-width="1.3" points="650.65,-495.97 643.78,-500.93 652.24,-501.34 650.65,-495.97"/>
<text xml:space="preserve" text-anchor="middle" x="3462.48" y="-252.45" font-family="sans-Serif" font-size="9.00" fill="#cbd5e1">exemplars_for</text>
<text xml:space="preserve" text-anchor="middle" x="3462.48" y="-241.95" font-family="sans-Serif" font-size="9.00" fill="#cbd5e1">(few&#45;shot, local)</text>
</g>
<!-- Fmis&#45;&gt;Prompt -->
<g id="edge48" class="edge">
<title>Fmis&#45;&gt;Prompt</title>
<path fill="none" stroke="#fb7185" stroke-width="2" stroke-dasharray="5,2" d="M1828.37,-52.54C1837.4,-73.43 1855.65,-107.39 1883.68,-122.5 2011.78,-191.55 3048.42,-148.29 3192.68,-167.5 4037.58,-280.03 3585.44,-105.92 3501.68,-261 3370.86,-503.19 3189.6,-444.94 2914.68,-458.5 2630.45,-472.52 635.96,-450.45 353.68,-486.5 336.27,-488.72 317.8,-492.48 300.52,-496.64"/>
<polygon fill="#fb7185" stroke="#fb7185" stroke-width="2" points="299.97,-493.89 292.88,-498.54 301.32,-499.33 299.97,-493.89"/>
<text xml:space="preserve" text-anchor="middle" x="3556.34" y="-252.45" font-family="sans-Serif" font-size="9.00" fill="#cbd5e1">KNOWN MISTAKES</text>
<text xml:space="preserve" text-anchor="middle" x="3556.34" y="-241.95" font-family="sans-Serif" font-size="9.00" fill="#cbd5e1">+ KNOWN FIXES</text>
</g>
<!-- Fmem&#45;&gt;Prompt -->
<g id="edge46" class="edge">
<title>Fmem&#45;&gt;Prompt</title>
<path fill="none" stroke="#fbbf24" stroke-width="1.3" stroke-dasharray="5,2" d="M1443.98,-52.54C1452.54,-73.44 1470.03,-107.42 1497.68,-122.5 1535.46,-143.11 3003.75,-164.22 3046.68,-167.5 3307.9,-187.44 3391.65,-134.99 3631.68,-240 3712.37,-275.3 3733.97,-353.37 3689.68,-429.5 3676.56,-452.04 3663.86,-451.73 3638.68,-458.5 3462.43,-505.91 534.74,-463.6 353.68,-486.5 335.94,-488.74 317.1,-492.6 299.54,-496.85"/>
<polygon fill="#fbbf24" stroke="#fbbf24" stroke-width="1.3" points="298.93,-494.11 291.85,-498.76 300.29,-499.55 298.93,-494.11"/>
<text xml:space="preserve" text-anchor="middle" x="3698.38" y="-247.2" font-family="sans-Serif" font-size="9.00" fill="#cbd5e1">MEMORY block</text>
</g>
<!-- Fidx -->
<g id="node25" class="node">
<title>Fidx</title>
<path fill="#fcd34d" stroke="#334155" stroke-width="1.4" d="M1976.43,-48.73C1976.43,-50.53 1960.4,-52 1940.68,-52 1920.95,-52 1904.93,-50.53 1904.93,-48.73 1904.93,-48.73 1904.93,-19.27 1904.93,-19.27 1904.93,-17.47 1920.95,-16 1940.68,-16 1960.4,-16 1976.43,-17.47 1976.43,-19.27 1976.43,-19.27 1976.43,-48.73 1976.43,-48.73"/>
<path fill="none" stroke="#334155" stroke-width="1.4" d="M1976.43,-48.73C1976.43,-46.92 1960.4,-45.45 1940.68,-45.45 1920.95,-45.45 1904.93,-46.92 1904.93,-48.73"/>
<text xml:space="preserve" text-anchor="middle" x="1940.68" y="-30.3" font-family="sans-Serif" font-size="11.00" fill="#0f172a">memory.idx</text>
</g>
<!-- Fidx&#45;&gt;Prompt -->
<g id="edge52" class="edge">
<title>Fidx&#45;&gt;Prompt</title>
<path fill="none" stroke="#fbbf24" stroke-width="2" stroke-dasharray="5,2" d="M1946.61,-52.5C1954.73,-73.36 1971.47,-107.29 1998.68,-122.5 2127.16,-194.32 3176.26,-152.39 3322.68,-167.5 3510.23,-186.86 3619.28,-95.73 3740.68,-240 3794.95,-304.5 3772.31,-355.1 3732.68,-429.5 3722.52,-448.56 3714.15,-451.63 3693.68,-458.5 3605.72,-488.03 445.72,-474.86 353.68,-486.5 336.27,-488.7 317.8,-492.45 300.52,-496.61"/>
<polygon fill="#fbbf24" stroke="#fbbf24" stroke-width="2" points="299.96,-493.86 292.87,-498.51 301.31,-499.3 299.96,-493.86"/>
<text xml:space="preserve" text-anchor="middle" x="3783.36" y="-252.45" font-family="sans-Serif" font-size="9.00" fill="#cbd5e1">MemoryIndex</text>
<text xml:space="preserve" text-anchor="middle" x="3783.36" y="-241.95" font-family="sans-Serif" font-size="9.00" fill="#cbd5e1">cosine top&#45;K</text>
</g>
<!-- Fskl&#45;&gt;Prompt -->
<g id="edge47" class="edge">
<title>Fskl&#45;&gt;Prompt</title>
<path fill="none" stroke="#fbbf24" stroke-width="1.3" stroke-dasharray="5,2" d="M2085.15,-52.65C2097.54,-73.66 2121.38,-107.74 2152.68,-122.5 2292.74,-188.56 3392.44,-145.12 3545.68,-167.5 3670.75,-185.77 3743.53,-139.88 3820.68,-240 3873,-307.91 3832.26,-358.19 3784.68,-429.5 3772.08,-448.37 3764.3,-451.66 3742.68,-458.5 3563.15,-515.27 540.47,-462.9 353.68,-486.5 335.94,-488.74 317.1,-492.59 299.54,-496.84"/>
<polygon fill="#fbbf24" stroke="#fbbf24" stroke-width="1.3" points="298.93,-494.11 291.85,-498.76 300.29,-499.54 298.93,-494.11"/>
<text xml:space="preserve" text-anchor="middle" x="3861.04" y="-247.2" font-family="sans-Serif" font-size="9.00" fill="#cbd5e1">SKILLS block</text>
</g>
<!-- Fext&#45;&gt;Prompt -->
<g id="edge49" class="edge">
<title>Fext&#45;&gt;Prompt</title>
<path fill="none" stroke="#fbbf24" stroke-width="1.3" stroke-dasharray="5,2" d="M2523.34,-38.07C2769.8,-53.27 3817.49,-124.41 3898.68,-240 3948.87,-311.47 3902.18,-362.07 3846.68,-429.5 3829.36,-450.53 3819.07,-451.75 3792.68,-458.5 3607.58,-505.86 543.23,-462.56 353.68,-486.5 335.94,-488.74 317.1,-492.59 299.54,-496.84"/>
<polygon fill="#fbbf24" stroke="#fbbf24" stroke-width="1.3" points="298.93,-494.11 291.85,-498.76 300.29,-499.54 298.93,-494.11"/>
<text xml:space="preserve" text-anchor="middle" x="3938.29" y="-247.2" font-family="sans-Serif" font-size="9.00" fill="#cbd5e1">EXTRO block</text>
</g>
<!-- Fftn&#45;&gt;LLM -->
<g id="edge57" class="edge">
<title>Fftn&#45;&gt;LLM</title>
<path fill="none" stroke="#fb7185" stroke-width="2" stroke-dasharray="5,2" d="M2224.93,-52.57C2234.63,-73.5 2254,-107.5 2282.68,-122.5 2422.07,-195.39 3541.99,-145.01 3697.68,-167.5 3824.05,-185.75 3897.61,-138.96 3975.68,-240 4029.69,-309.91 3976.21,-365.16 3915.68,-429.5 3893.16,-453.43 3879.65,-450.93 3847.68,-458.5 3651.82,-504.87 3596.3,-470.32 3395.68,-486.5 2827.17,-532.36 2687.21,-567.99 2118.68,-613.5 1989.2,-623.86 1075.61,-677.49 828.93,-691.92"/>
<polygon fill="#fb7185" stroke="#fb7185" stroke-width="2" points="828.88,-689.12 821.06,-692.38 829.21,-694.71 828.88,-689.12"/>
<text xml:space="preserve" text-anchor="middle" x="4029.5" y="-329.95" font-family="sans-Serif" font-size="9.00" fill="#cbd5e1">LoRA (weights)</text>
<text xml:space="preserve" text-anchor="middle" x="4029.5" y="-319.45" font-family="sans-Serif" font-size="9.00" fill="#cbd5e1">cron weekly</text>
</g>
<!-- Fprf&#45;&gt;LLM -->
<g id="edge69" class="edge">
<title>Fprf&#45;&gt;LLM</title>
<path fill="none" stroke="#fb7185" stroke-width="2" stroke-dasharray="5,2" d="M1697.86,-52.63C1708.67,-73.6 1729.9,-107.66 1759.68,-122.5 1837.42,-161.25 3235.96,-162.38 3322.68,-167.5 3683.93,-188.83 3796.96,-107.42 4133.68,-240 4216.26,-272.52 4249.05,-357.84 4196.68,-429.5 3990.23,-711.97 1407.21,-663.2 1057.68,-678.5 978.75,-681.96 887.82,-687.55 829.14,-691.37"/>
<polygon fill="#fb7185" stroke="#fb7185" stroke-width="2" points="829.03,-688.57 821.23,-691.89 829.39,-694.16 829.03,-688.57"/>
<text xml:space="preserve" text-anchor="middle" x="4251.6" y="-329.95" font-family="sans-Serif" font-size="9.00" fill="#cbd5e1">DPO (weights)</text>
<text xml:space="preserve" text-anchor="middle" x="4251.6" y="-319.45" font-family="sans-Serif" font-size="9.00" fill="#cbd5e1">cron weekly</text>
</g>
</g>
</svg>
