<?xml version="1.0" encoding="UTF-8" standalone="no"?>
<!DOCTYPE svg PUBLIC "-//W3C//DTD SVG 1.1//EN"
 "http://www.w3.org/Graphics/SVG/1.1/DTD/svg11.dtd">
<!-- Generated by graphviz version 14.1.2 (0)
 -->
<!-- Title: PWN_Reinforcement_Learning Pages: 1 -->
<svg width="2139pt" height="787pt"
 viewBox="0.00 0.00 2139.00 787.00" xmlns="http://www.w3.org/2000/svg" xmlns:xlink="http://www.w3.org/1999/xlink">
<g id="graph0" class="graph" transform="scale(1 1) rotate(0) translate(43.2 744.08)">
<title>PWN_Reinforcement_Learning</title>
<polygon fill="#0f172a" stroke="none" points="-43.2,43.2 -43.2,-744.08 2095.38,-744.08 2095.38,43.2 -43.2,43.2"/>
<text xml:space="preserve" text-anchor="start" x="744.09" y="-678.88" font-family="sans-Serif" font-weight="bold" font-size="20.00" fill="#e2e8f0">PWN::AI::Agent &#45; Reward + Curriculum Reinforcement Loop</text>
<text xml:space="preserve" text-anchor="start" x="695.72" y="-667.42" font-family="sans-Serif" font-size="11.00" fill="#94a3b8">R1..R4 reward signal &#160;· &#160;C1..C4 credit assignment &#160;· &#160;M1..M4 memory &#160;· &#160;S1..S4 self&#45;play &#160;· &#160;W1..W3 weight loop &#160;· &#160;E1..E3 intro↔extro join</text>
<g id="clust2" class="cluster">
<title>cluster_reward</title>
<path fill="#2e1065" stroke="#6d28d9" stroke-width="2" d="M883,-372.5C883,-372.5 1653,-372.5 1653,-372.5 1659,-372.5 1665,-378.5 1665,-384.5 1665,-384.5 1665,-483 1665,-483 1665,-489 1659,-495 1653,-495 1653,-495 883,-495 883,-495 877,-495 871,-489 871,-483 871,-483 871,-384.5 871,-384.5 871,-378.5 877,-372.5 883,-372.5"/>
<text xml:space="preserve" text-anchor="middle" x="1268" y="-472" font-family="sans-Serif" font-size="20.00" fill="#ddd6fe">Tier 1 · Reward &#160;(PWN::AI::Agent::Reward)</text>
</g>
<g id="clust4" class="cluster">
<title>cluster_curr</title>
<path fill="#022c22" stroke="#047857" stroke-width="2" d="M107,-372.5C107,-372.5 835,-372.5 835,-372.5 841,-372.5 847,-378.5 847,-384.5 847,-384.5 847,-483 847,-483 847,-489 841,-495 835,-495 835,-495 107,-495 107,-495 101,-495 95,-489 95,-483 95,-483 95,-384.5 95,-384.5 95,-378.5 101,-372.5 107,-372.5"/>
<text xml:space="preserve" text-anchor="middle" x="471" y="-472" font-family="sans-Serif" font-size="20.00" fill="#a7f3d0">Tier 4 · Curriculum &#160;(PWN::AI::Agent::Curriculum)</text>
</g>
<g id="clust6" class="cluster">
<title>cluster_weight</title>
<path fill="#450a0a" stroke="#b91c1c" stroke-width="2" d="M20,-179C20,-179 522,-179 522,-179 528,-179 534,-185 534,-191 534,-191 534,-301.5 534,-301.5 534,-307.5 528,-313.5 522,-313.5 522,-313.5 20,-313.5 20,-313.5 14,-313.5 8,-307.5 8,-301.5 8,-301.5 8,-191 8,-191 8,-185 14,-179 20,-179"/>
<text xml:space="preserve" text-anchor="middle" x="271" y="-290.5" font-family="sans-Serif" font-size="20.00" fill="#fecaca">Tier 5 · Weight Loop</text>
</g>
<g id="clust8" class="cluster">
<title>cluster_files</title>
<path fill="#422006" stroke="#a16207" stroke-dasharray="5,2" d="M310,-8C310,-8 1004,-8 1004,-8 1010,-8 1016,-14 1016,-20 1016,-20 1016,-118.5 1016,-118.5 1016,-124.5 1010,-130.5 1004,-130.5 1004,-130.5 310,-130.5 310,-130.5 304,-130.5 298,-124.5 298,-118.5 298,-118.5 298,-20 298,-20 298,-14 304,-8 310,-8"/>
<text xml:space="preserve" text-anchor="middle" x="657" y="-107.5" font-family="sans-Serif" font-size="20.00" fill="#fde68a">~/.pwn/</text>
</g>
<!-- Req -->
<g id="node1" class="node">
<title>Req</title>
<path fill="#7dd3fc" stroke="#334155" stroke-width="1.3" d="M482.5,-591.88C482.5,-591.88 439.5,-591.88 439.5,-591.88 433.5,-591.88 427.5,-585.88 427.5,-579.88 427.5,-579.88 427.5,-567.88 427.5,-567.88 427.5,-561.88 433.5,-555.88 439.5,-555.88 439.5,-555.88 482.5,-555.88 482.5,-555.88 488.5,-555.88 494.5,-561.88 494.5,-567.88 494.5,-567.88 494.5,-579.88 494.5,-579.88 494.5,-585.88 488.5,-591.88 482.5,-591.88"/>
<text xml:space="preserve" text-anchor="middle" x="461" y="-570.75" font-family="sans-Serif" font-size="10.00" fill="#0f172a">👤 &#160;request</text>
</g>
<!-- Loop -->
<g id="node2" class="node">
<title>Loop</title>
<path fill="#7dd3fc" stroke="#334155" stroke-width="2" d="M698.38,-595.88C698.38,-595.88 585.62,-595.88 585.62,-595.88 579.62,-595.88 573.62,-589.88 573.62,-583.88 573.62,-583.88 573.62,-563.88 573.62,-563.88 573.62,-557.88 579.62,-551.88 585.62,-551.88 585.62,-551.88 698.38,-551.88 698.38,-551.88 704.38,-551.88 710.38,-557.88 710.38,-563.88 710.38,-563.88 710.38,-583.88 710.38,-583.88 710.38,-589.88 704.38,-595.88 698.38,-595.88"/>
<text xml:space="preserve" text-anchor="middle" x="642" y="-582.38" font-family="sans-Serif" font-size="10.00" fill="#0f172a">Loop.run</text>
<text xml:space="preserve" text-anchor="middle" x="642" y="-570.38" font-family="sans-Serif" font-size="10.00" fill="#0f172a">plan_first · Dispatch · guard</text>
<text xml:space="preserve" text-anchor="middle" x="642" y="-558.38" font-family="sans-Serif" font-size="10.00" fill="#0f172a">final answer</text>
</g>
<!-- Req&#45;&gt;Loop -->
<g id="edge1" class="edge">
<title>Req&#45;&gt;Loop</title>
<path fill="none" stroke="#38bdf8" stroke-width="2" d="M494.94,-573.88C517.24,-573.88 539.53,-573.88 561.83,-573.88"/>
<polygon fill="#38bdf8" stroke="#38bdf8" stroke-width="2" points="561.75,-576.68 569.75,-573.88 561.75,-571.08 561.75,-576.68"/>
</g>
<!-- R1 -->
<g id="node3" class="node">
<title>R1</title>
<path fill="#c4b5fd" stroke="#334155" stroke-width="2" d="M1293,-420.5C1293,-420.5 1193,-420.5 1193,-420.5 1187,-420.5 1181,-414.5 1181,-408.5 1181,-408.5 1181,-396.5 1181,-396.5 1181,-390.5 1187,-384.5 1193,-384.5 1193,-384.5 1293,-384.5 1293,-384.5 1299,-384.5 1305,-390.5 1305,-396.5 1305,-396.5 1305,-408.5 1305,-408.5 1305,-414.5 1299,-420.5 1293,-420.5"/>
<text xml:space="preserve" text-anchor="middle" x="1243" y="-405" font-family="sans-Serif" font-size="10.00" fill="#0f172a">R1 &#160;judge (ORM)</text>
<text xml:space="preserve" text-anchor="middle" x="1243" y="-393" font-family="sans-Serif" font-size="10.00" fill="#0f172a">score · verdict · rationale</text>
</g>
<!-- Loop&#45;&gt;R1 -->
<g id="edge3" class="edge">
<title>Loop&#45;&gt;R1</title>
<path fill="none" stroke="#a78bfa" stroke-width="2" d="M711.27,-551.35C774.65,-531.82 861.05,-505.66 877.75,-503 908.84,-498.04 1132.44,-508.24 1161,-495 1190.16,-481.48 1213.41,-452.17 1227.59,-430.34"/>
<polygon fill="#a78bfa" stroke="#a78bfa" stroke-width="2" points="1229.82,-432.06 1231.69,-423.79 1225.07,-429.09 1229.82,-432.06"/>
<text xml:space="preserve" text-anchor="middle" x="886.38" y="-504.95" font-family="sans-Serif" font-size="9.00" fill="#cbd5e1">final</text>
</g>
<!-- R2 -->
<g id="node4" class="node">
<title>R2</title>
<path fill="#c4b5fd" stroke="#334155" stroke-width="1.3" d="M1645,-420.5C1645,-420.5 1581,-420.5 1581,-420.5 1575,-420.5 1569,-414.5 1569,-408.5 1569,-408.5 1569,-396.5 1569,-396.5 1569,-390.5 1575,-384.5 1581,-384.5 1581,-384.5 1645,-384.5 1645,-384.5 1651,-384.5 1657,-390.5 1657,-396.5 1657,-396.5 1657,-408.5 1657,-408.5 1657,-414.5 1651,-420.5 1645,-420.5"/>
<text xml:space="preserve" text-anchor="middle" x="1613" y="-405" font-family="sans-Serif" font-size="10.00" fill="#0f172a">R2 &#160;prm (PRM)</text>
<text xml:space="preserve" text-anchor="middle" x="1613" y="-393" font-family="sans-Serif" font-size="10.00" fill="#0f172a">per&#45;step +1/0/−1</text>
</g>
<!-- Loop&#45;&gt;R2 -->
<g id="edge4" class="edge">
<title>Loop&#45;&gt;R2</title>
<path fill="none" stroke="#a78bfa" stroke-width="1.3" d="M711.35,-557.42C763.57,-545.68 836.87,-528.96 901,-513.5 919.5,-509.04 923.64,-505.48 942.5,-503 959.21,-500.81 1534.11,-502.88 1549,-495 1574.97,-481.25 1592.62,-451.71 1602.7,-429.89"/>
<polygon fill="#a78bfa" stroke="#a78bfa" stroke-width="1.3" points="1605.26,-431.05 1605.9,-422.6 1600.12,-428.8 1605.26,-431.05"/>
<text xml:space="preserve" text-anchor="middle" x="958.25" y="-504.95" font-family="sans-Serif" font-size="9.00" fill="#cbd5e1">session</text>
</g>
<!-- R3 -->
<g id="node5" class="node">
<title>R3</title>
<path fill="#c4b5fd" stroke="#334155" stroke-width="1.3" d="M989.25,-424.5C989.25,-424.5 890.75,-424.5 890.75,-424.5 884.75,-424.5 878.75,-418.5 878.75,-412.5 878.75,-412.5 878.75,-392.5 878.75,-392.5 878.75,-386.5 884.75,-380.5 890.75,-380.5 890.75,-380.5 989.25,-380.5 989.25,-380.5 995.25,-380.5 1001.25,-386.5 1001.25,-392.5 1001.25,-392.5 1001.25,-412.5 1001.25,-412.5 1001.25,-418.5 995.25,-424.5 989.25,-424.5"/>
<text xml:space="preserve" text-anchor="middle" x="940" y="-411" font-family="sans-Serif" font-size="10.00" fill="#0f172a">R3 &#160;sentinel (ring N=40)</text>
<text xml:space="preserve" text-anchor="middle" x="940" y="-399" font-family="sans-Serif" font-size="10.00" fill="#0f172a">proxy ≠ judge ≠ (1−corr)</text>
<text xml:space="preserve" text-anchor="middle" x="940" y="-387" font-family="sans-Serif" font-size="10.00" fill="#0f172a">→ proxy_distrust haircut</text>
</g>
<!-- Loop&#45;&gt;R3 -->
<g id="edge5" class="edge">
<title>Loop&#45;&gt;R3</title>
<path fill="none" stroke="#a78bfa" stroke-width="1.3" d="M665.37,-550.97C684.42,-534.58 712.84,-513.3 742,-503 766.15,-494.46 833.95,-506.18 857,-495 884.77,-481.53 907.54,-454.29 922.16,-433.02"/>
<polygon fill="#a78bfa" stroke="#a78bfa" stroke-width="1.3" points="924.37,-434.76 926.46,-426.55 919.7,-431.67 924.37,-434.76"/>
</g>
<!-- R4 -->
<g id="node6" class="node">
<title>R4</title>
<path fill="#c4b5fd" stroke="#334155" stroke-width="1.3" d="M1128.62,-420.5C1128.62,-420.5 1053.38,-420.5 1053.38,-420.5 1047.38,-420.5 1041.38,-414.5 1041.38,-408.5 1041.38,-408.5 1041.38,-396.5 1041.38,-396.5 1041.38,-390.5 1047.38,-384.5 1053.38,-384.5 1053.38,-384.5 1128.62,-384.5 1128.62,-384.5 1134.62,-384.5 1140.62,-390.5 1140.62,-396.5 1140.62,-396.5 1140.62,-408.5 1140.62,-408.5 1140.62,-414.5 1134.62,-420.5 1128.62,-420.5"/>
<text xml:space="preserve" text-anchor="middle" x="1091" y="-405" font-family="sans-Serif" font-size="10.00" fill="#0f172a">R4 &#160;semantic_ok</text>
<text xml:space="preserve" text-anchor="middle" x="1091" y="-393" font-family="sans-Serif" font-size="10.00" fill="#0f172a">grep exit 1 ≠ failure</text>
</g>
<!-- Loop&#45;&gt;R4 -->
<g id="edge2" class="edge">
<title>Loop&#45;&gt;R4</title>
<path fill="none" stroke="#a78bfa" stroke-width="1.3" d="M678.61,-551.02C708.51,-534.44 752.46,-512.86 794,-503 818.56,-497.17 998.57,-506.58 1021,-495 1047.9,-481.11 1067.47,-451.66 1078.96,-429.9"/>
<polygon fill="#a78bfa" stroke="#a78bfa" stroke-width="1.3" points="1081.4,-431.27 1082.51,-422.87 1076.4,-428.75 1081.4,-431.27"/>
<text xml:space="preserve" text-anchor="middle" x="812" y="-504.95" font-family="sans-Serif" font-size="9.00" fill="#cbd5e1">Dispatch</text>
</g>
<!-- S2 -->
<g id="node9" class="node">
<title>S2</title>
<path fill="#6ee7b7" stroke="#334155" stroke-width="1.3" d="M193.12,-420.5C193.12,-420.5 114.88,-420.5 114.88,-420.5 108.88,-420.5 102.88,-414.5 102.88,-408.5 102.88,-408.5 102.88,-396.5 102.88,-396.5 102.88,-390.5 108.88,-384.5 114.88,-384.5 114.88,-384.5 193.12,-384.5 193.12,-384.5 199.12,-384.5 205.12,-390.5 205.12,-396.5 205.12,-396.5 205.12,-408.5 205.12,-408.5 205.12,-414.5 199.12,-420.5 193.12,-420.5"/>
<text xml:space="preserve" text-anchor="middle" x="154" y="-405" font-family="sans-Serif" font-size="10.00" fill="#0f172a">S2 &#160;counterfactual</text>
<text xml:space="preserve" text-anchor="middle" x="154" y="-393" font-family="sans-Serif" font-size="10.00" fill="#0f172a">fork alt&#45;persona A/B</text>
</g>
<!-- Loop&#45;&gt;S2 -->
<g id="edge9" class="edge">
<title>Loop&#45;&gt;S2</title>
<path fill="none" stroke="#fb7185" stroke-width="1.3" d="M572.95,-561.3C458.32,-541.89 239.79,-504.03 225,-495 199.32,-479.33 179.4,-450.72 167.29,-429.65"/>
<polygon fill="#fb7185" stroke="#fb7185" stroke-width="1.3" points="169.85,-428.51 163.53,-422.86 164.95,-431.22 169.85,-428.51"/>
<text xml:space="preserve" text-anchor="middle" x="331.63" y="-504.95" font-family="sans-Serif" font-size="9.00" fill="#cbd5e1">[REPEATING]</text>
</g>
<!-- S3 -->
<g id="node10" class="node">
<title>S3</title>
<path fill="#6ee7b7" stroke="#334155" stroke-width="1.3" d="M355.25,-420.5C355.25,-420.5 256.75,-420.5 256.75,-420.5 250.75,-420.5 244.75,-414.5 244.75,-408.5 244.75,-408.5 244.75,-396.5 244.75,-396.5 244.75,-390.5 250.75,-384.5 256.75,-384.5 256.75,-384.5 355.25,-384.5 355.25,-384.5 361.25,-384.5 367.25,-390.5 367.25,-396.5 367.25,-396.5 367.25,-408.5 367.25,-408.5 367.25,-414.5 361.25,-420.5 355.25,-420.5"/>
<text xml:space="preserve" text-anchor="middle" x="306" y="-405" font-family="sans-Serif" font-size="10.00" fill="#0f172a">S3 &#160;critic</text>
<text xml:space="preserve" text-anchor="middle" x="306" y="-393" font-family="sans-Serif" font-size="10.00" fill="#0f172a">tool&#45;armed constitutional</text>
</g>
<!-- Loop&#45;&gt;S3 -->
<g id="edge8" class="edge">
<title>Loop&#45;&gt;S3</title>
<path fill="none" stroke="#34d399" stroke-width="1.3" d="M572.71,-562.34C518.8,-551.73 443.85,-531.54 387,-495 360.33,-477.86 337.2,-449.56 322.56,-428.96"/>
<polygon fill="#34d399" stroke="#34d399" stroke-width="1.3" points="324.99,-427.54 318.13,-422.56 320.38,-430.73 324.99,-427.54"/>
<text xml:space="preserve" text-anchor="middle" x="426.99" y="-504.95" font-family="sans-Serif" font-size="9.00" fill="#cbd5e1">final</text>
</g>
<!-- S4 -->
<g id="node11" class="node">
<title>S4</title>
<path fill="#6ee7b7" stroke="#334155" stroke-width="1.3" d="M510.88,-420.5C510.88,-420.5 419.12,-420.5 419.12,-420.5 413.12,-420.5 407.12,-414.5 407.12,-408.5 407.12,-408.5 407.12,-396.5 407.12,-396.5 407.12,-390.5 413.12,-384.5 419.12,-384.5 419.12,-384.5 510.88,-384.5 510.88,-384.5 516.88,-384.5 522.88,-390.5 522.88,-396.5 522.88,-396.5 522.88,-408.5 522.88,-408.5 522.88,-414.5 516.88,-420.5 510.88,-420.5"/>
<text xml:space="preserve" text-anchor="middle" x="465" y="-405" font-family="sans-Serif" font-size="10.00" fill="#0f172a">S4 &#160;red_team_plan</text>
<text xml:space="preserve" text-anchor="middle" x="465" y="-393" font-family="sans-Serif" font-size="10.00" fill="#0f172a">adversarial plan review</text>
</g>
<!-- Loop&#45;&gt;S4 -->
<g id="edge7" class="edge">
<title>Loop&#45;&gt;S4</title>
<path fill="none" stroke="#34d399" stroke-width="1.3" d="M611.27,-551.17C591.04,-536.3 564.44,-515.61 543,-495 521.27,-474.11 499.25,-447.68 484.17,-428.61"/>
<polygon fill="#34d399" stroke="#34d399" stroke-width="1.3" points="486.5,-427.04 479.36,-422.47 482.09,-430.49 486.5,-427.04"/>
<text xml:space="preserve" text-anchor="middle" x="582.21" y="-504.95" font-family="sans-Serif" font-size="9.00" fill="#cbd5e1">plan_first</text>
</g>
<!-- C3 -->
<g id="node12" class="node">
<title>C3</title>
<path fill="#6ee7b7" stroke="#334155" stroke-width="1.3" d="M658.75,-420.5C658.75,-420.5 575.25,-420.5 575.25,-420.5 569.25,-420.5 563.25,-414.5 563.25,-408.5 563.25,-408.5 563.25,-396.5 563.25,-396.5 563.25,-390.5 569.25,-384.5 575.25,-384.5 575.25,-384.5 658.75,-384.5 658.75,-384.5 664.75,-384.5 670.75,-390.5 670.75,-396.5 670.75,-396.5 670.75,-408.5 670.75,-408.5 670.75,-414.5 664.75,-420.5 658.75,-420.5"/>
<text xml:space="preserve" text-anchor="middle" x="617" y="-405" font-family="sans-Serif" font-size="10.00" fill="#0f172a">C3 &#160;hindsight (HER)</text>
<text xml:space="preserve" text-anchor="middle" x="617" y="-393" font-family="sans-Serif" font-size="10.00" fill="#0f172a">relabel achieved&#45;goal</text>
</g>
<!-- Loop&#45;&gt;C3 -->
<g id="edge10" class="edge">
<title>Loop&#45;&gt;C3</title>
<path fill="none" stroke="#fb7185" stroke-width="1.3" d="M638.78,-551.08C634.24,-520.31 625.95,-464.17 621.02,-430.7"/>
<polygon fill="#fb7185" stroke="#fb7185" stroke-width="1.3" points="623.82,-430.55 619.89,-423.05 618.28,-431.37 623.82,-430.55"/>
<text xml:space="preserve" text-anchor="middle" x="654.58" y="-504.95" font-family="sans-Serif" font-size="9.00" fill="#cbd5e1">failed goal</text>
</g>
<!-- E3 -->
<g id="node7" class="node">
<title>E3</title>
<path fill="#c4b5fd" stroke="#334155" stroke-width="1.3" d="M1517.12,-420.5C1517.12,-420.5 1396.88,-420.5 1396.88,-420.5 1390.88,-420.5 1384.88,-414.5 1384.88,-408.5 1384.88,-408.5 1384.88,-396.5 1384.88,-396.5 1384.88,-390.5 1390.88,-384.5 1396.88,-384.5 1396.88,-384.5 1517.12,-384.5 1517.12,-384.5 1523.12,-384.5 1529.12,-390.5 1529.12,-396.5 1529.12,-396.5 1529.12,-408.5 1529.12,-408.5 1529.12,-414.5 1523.12,-420.5 1517.12,-420.5"/>
<text xml:space="preserve" text-anchor="middle" x="1457" y="-405" font-family="sans-Serif" font-size="10.00" fill="#0f172a">E3 &#160;verify_as_reward</text>
<text xml:space="preserve" text-anchor="middle" x="1457" y="-393" font-family="sans-Serif" font-size="10.00" fill="#0f172a">extro_verify caps/floors judge</text>
</g>
<!-- R1&#45;&gt;E3 -->
<g id="edge6" class="edge">
<title>R1&#45;&gt;E3</title>
<path fill="none" stroke="#fbbf24" stroke-width="1.3" stroke-dasharray="5,2" d="M1305.76,-402.5C1327.34,-402.5 1351.84,-402.5 1374.74,-402.5"/>
<polygon fill="#fbbf24" stroke="#fbbf24" stroke-width="1.3" points="1374.47,-405.3 1382.47,-402.5 1374.47,-399.7 1374.47,-405.3"/>
<text xml:space="preserve" text-anchor="middle" x="1344.94" y="-407.45" font-family="sans-Serif" font-size="9.00" fill="#cbd5e1">ground</text>
</g>
<!-- Fses -->
<g id="node17" class="node">
<title>Fses</title>
<path fill="#fcd34d" stroke="#334155" stroke-width="1.3" d="M641.5,-56C641.5,-58.21 622.45,-60 599,-60 575.55,-60 556.5,-58.21 556.5,-56 556.5,-56 556.5,-20 556.5,-20 556.5,-17.79 575.55,-16 599,-16 622.45,-16 641.5,-17.79 641.5,-20 641.5,-20 641.5,-56 641.5,-56"/>
<path fill="none" stroke="#334155" stroke-width="1.3" d="M641.5,-56C641.5,-53.79 622.45,-52 599,-52 575.55,-52 556.5,-53.79 556.5,-56"/>
<text xml:space="preserve" text-anchor="middle" x="599" y="-40.5" font-family="sans-Serif" font-size="10.00" fill="#0f172a">sessions/*.jsonl</text>
<text xml:space="preserve" text-anchor="middle" x="599" y="-28.5" font-family="sans-Serif" font-size="10.00" fill="#0f172a">(step_reward)</text>
</g>
<!-- R2&#45;&gt;Fses -->
<g id="edge11" class="edge">
<title>R2&#45;&gt;Fses</title>
<path fill="none" stroke="#f59e0b" stroke-width="1.3" d="M1575.7,-383.86C1567,-379.95 1557.73,-375.95 1549,-372.5 1219.16,-242.05 1137.47,-186.28 786,-138.5 758.64,-134.78 686.02,-144.13 662,-130.5 638.18,-116.99 621.4,-90.31 611.18,-69.24"/>
<polygon fill="#f59e0b" stroke="#f59e0b" stroke-width="1.3" points="613.79,-68.2 607.9,-62.1 608.7,-70.54 613.79,-68.2"/>
<text xml:space="preserve" text-anchor="middle" x="1427.86" y="-211.7" font-family="sans-Serif" font-size="9.00" fill="#cbd5e1">step_reward</text>
</g>
<!-- Fmis -->
<g id="node16" class="node">
<title>Fmis</title>
<path fill="#fcd34d" stroke="#334155" stroke-width="1.3" d="M862.38,-52.73C862.38,-54.53 845.17,-56 824,-56 802.83,-56 785.62,-54.53 785.62,-52.73 785.62,-52.73 785.62,-23.27 785.62,-23.27 785.62,-21.47 802.83,-20 824,-20 845.17,-20 862.38,-21.47 862.38,-23.27 862.38,-23.27 862.38,-52.73 862.38,-52.73"/>
<path fill="none" stroke="#334155" stroke-width="1.3" d="M862.38,-52.73C862.38,-50.92 845.17,-49.45 824,-49.45 802.83,-49.45 785.62,-50.92 785.62,-52.73"/>
<text xml:space="preserve" text-anchor="middle" x="824" y="-34.5" font-family="sans-Serif" font-size="10.00" fill="#0f172a">mistakes.json</text>
</g>
<!-- R3&#45;&gt;Fmis -->
<g id="edge13" class="edge">
<title>R3&#45;&gt;Fmis</title>
<path fill="none" stroke="#fb7185" stroke-width="1.3" stroke-dasharray="5,2" d="M933.09,-379.91C913.01,-317.15 854.67,-134.85 832.6,-65.87"/>
<polygon fill="#fb7185" stroke="#fb7185" stroke-width="1.3" points="835.32,-65.19 830.21,-58.42 829.99,-66.89 835.32,-65.19"/>
<text xml:space="preserve" text-anchor="middle" x="940.88" y="-211.7" font-family="sans-Serif" font-size="9.00" fill="#cbd5e1">reward_signal</text>
</g>
<!-- Frws -->
<g id="node21" class="node">
<title>Frws</title>
<path fill="#fcd34d" stroke="#334155" stroke-width="1.3" d="M1007.62,-52.73C1007.62,-54.53 984.04,-56 955,-56 925.96,-56 902.38,-54.53 902.38,-52.73 902.38,-52.73 902.38,-23.27 902.38,-23.27 902.38,-21.47 925.96,-20 955,-20 984.04,-20 1007.62,-21.47 1007.62,-23.27 1007.62,-23.27 1007.62,-52.73 1007.62,-52.73"/>
<path fill="none" stroke="#334155" stroke-width="1.3" d="M1007.62,-52.73C1007.62,-50.92 984.04,-49.45 955,-49.45 925.96,-49.45 902.38,-50.92 902.38,-52.73"/>
<text xml:space="preserve" text-anchor="middle" x="955" y="-34.5" font-family="sans-Serif" font-size="10.00" fill="#0f172a">reward_sentinel.json</text>
</g>
<!-- R3&#45;&gt;Frws -->
<g id="edge12" class="edge">
<title>R3&#45;&gt;Frws</title>
<path fill="none" stroke="#f59e0b" stroke-width="1.3" d="M967.53,-380.16C985.91,-364.09 1008.56,-340.28 1019,-313.5 1047.26,-241.03 1043.45,-212.97 1021,-138.5 1012.52,-110.37 993.19,-82.88 977.63,-63.95"/>
<polygon fill="#f59e0b" stroke="#f59e0b" stroke-width="1.3" points="979.81,-62.19 972.51,-57.89 975.54,-65.81 979.81,-62.19"/>
</g>
<!-- S1 -->
<g id="node8" class="node">
<title>S1</title>
<path fill="#6ee7b7" stroke="#334155" stroke-width="2" d="M826.88,-424.5C826.88,-424.5 723.12,-424.5 723.12,-424.5 717.12,-424.5 711.12,-418.5 711.12,-412.5 711.12,-412.5 711.12,-392.5 711.12,-392.5 711.12,-386.5 717.12,-380.5 723.12,-380.5 723.12,-380.5 826.88,-380.5 826.88,-380.5 832.88,-380.5 838.88,-386.5 838.88,-392.5 838.88,-392.5 838.88,-412.5 838.88,-412.5 838.88,-418.5 832.88,-424.5 826.88,-424.5"/>
<text xml:space="preserve" text-anchor="middle" x="775" y="-411" font-family="sans-Serif" font-size="10.00" fill="#0f172a">S1 &#160;practice</text>
<text xml:space="preserve" text-anchor="middle" x="775" y="-399" font-family="sans-Serif" font-size="10.00" fill="#0f172a">Mistakes.top → self&#45;play</text>
<text xml:space="preserve" text-anchor="middle" x="775" y="-387" font-family="sans-Serif" font-size="10.00" fill="#0f172a">auto&#45;resolve on judge≥0.7</text>
</g>
<!-- S1&#45;&gt;Fmis -->
<g id="edge14" class="edge">
<title>S1&#45;&gt;Fmis</title>
<path fill="none" stroke="#34d399" stroke-width="1.3" d="M779.26,-369.96C788.74,-299.84 811.43,-132.01 820.33,-66.17"/>
<polygon fill="#34d399" stroke="#34d399" stroke-width="1.3" points="776.52,-369.39 778.22,-377.69 782.06,-370.14 776.52,-369.39"/>
<polygon fill="#34d399" stroke="#34d399" stroke-width="1.3" points="823.07,-66.76 821.37,-58.46 817.52,-66.01 823.07,-66.76"/>
<text xml:space="preserve" text-anchor="middle" x="829.87" y="-211.7" font-family="sans-Serif" font-size="9.00" fill="#cbd5e1">auto&#45;resolve</text>
</g>
<!-- Fcur -->
<g id="node19" class="node">
<title>Fcur</title>
<path fill="#fcd34d" stroke="#334155" stroke-width="1.3" d="M746,-52.73C746,-54.53 731.66,-56 714,-56 696.34,-56 682,-54.53 682,-52.73 682,-52.73 682,-23.27 682,-23.27 682,-21.47 696.34,-20 714,-20 731.66,-20 746,-21.47 746,-23.27 746,-23.27 746,-52.73 746,-52.73"/>
<path fill="none" stroke="#334155" stroke-width="1.3" d="M746,-52.73C746,-50.92 731.66,-49.45 714,-49.45 696.34,-49.45 682,-50.92 682,-52.73"/>
<text xml:space="preserve" text-anchor="middle" x="714" y="-34.5" font-family="sans-Serif" font-size="10.00" fill="#0f172a">curriculum/</text>
</g>
<!-- S1&#45;&gt;Fcur -->
<g id="edge15" class="edge">
<title>S1&#45;&gt;Fcur</title>
<path fill="none" stroke="#f59e0b" stroke-width="1.3" d="M771.32,-379.64C760.74,-316.74 730.22,-135.4 718.58,-66.24"/>
<polygon fill="#f59e0b" stroke="#f59e0b" stroke-width="1.3" points="721.36,-65.87 717.27,-58.45 715.84,-66.8 721.36,-65.87"/>
</g>
<!-- W1 -->
<g id="node13" class="node">
<title>W1</title>
<path fill="#fda4af" stroke="#334155" stroke-width="1.3" d="M332,-243C332,-243 226,-243 226,-243 220,-243 214,-237 214,-231 214,-231 214,-199 214,-199 214,-193 220,-187 226,-187 226,-187 332,-187 332,-187 338,-187 344,-193 344,-199 344,-199 344,-231 344,-231 344,-237 338,-243 332,-243"/>
<text xml:space="preserve" text-anchor="middle" x="279" y="-229.5" font-family="sans-Serif" font-size="10.00" fill="#0f172a">W1 &#160;preference ledger</text>
<text xml:space="preserve" text-anchor="middle" x="279" y="-217.5" font-family="sans-Serif" font-size="10.00" fill="#0f172a">(prompt, rejected, chosen)</text>
<text xml:space="preserve" text-anchor="middle" x="279" y="-205.5" font-family="sans-Serif" font-size="10.00" fill="#0f172a">5 free sources</text>
<text xml:space="preserve" text-anchor="middle" x="279" y="-193.5" font-family="sans-Serif" font-size="10.00" fill="#0f172a">export_dpo ≤40%/source</text>
</g>
<!-- S2&#45;&gt;W1 -->
<g id="edge16" class="edge">
<title>S2&#45;&gt;W1</title>
<path fill="none" stroke="#fb7185" stroke-width="1.3" d="M165.76,-384.05C186.13,-353.82 228.36,-291.16 255.09,-251.48"/>
<polygon fill="#fb7185" stroke="#fb7185" stroke-width="1.3" points="257.3,-253.21 259.45,-245.01 252.66,-250.08 257.3,-253.21"/>
<text xml:space="preserve" text-anchor="middle" x="233.43" y="-328.7" font-family="sans-Serif" font-size="9.00" fill="#cbd5e1">(loser,winner)</text>
</g>
<!-- S3&#45;&gt;W1 -->
<g id="edge17" class="edge">
<title>S3&#45;&gt;W1</title>
<path fill="none" stroke="#fb7185" stroke-width="1.3" d="M303.46,-384.05C299.12,-354.26 290.21,-292.98 284.42,-253.23"/>
<polygon fill="#fb7185" stroke="#fb7185" stroke-width="1.3" points="287.19,-252.84 283.27,-245.32 281.65,-253.64 287.19,-252.84"/>
</g>
<!-- C3&#45;&gt;Fses -->
<g id="edge18" class="edge">
<title>C3&#45;&gt;Fses</title>
<path fill="none" stroke="#f59e0b" stroke-width="1.3" d="M616.13,-384.02C613.28,-326.61 604.18,-143.38 600.53,-69.91"/>
<polygon fill="#f59e0b" stroke="#f59e0b" stroke-width="1.3" points="603.35,-70.11 600.15,-62.26 597.76,-70.39 603.35,-70.11"/>
<text xml:space="preserve" text-anchor="middle" x="638.1" y="-211.7" font-family="sans-Serif" font-size="9.00" fill="#cbd5e1">success:true</text>
</g>
<!-- Fprf -->
<g id="node18" class="node">
<title>Fprf</title>
<path fill="#fcd34d" stroke="#334155" stroke-width="1.3" d="M516.12,-52.73C516.12,-54.53 495.9,-56 471,-56 446.1,-56 425.88,-54.53 425.88,-52.73 425.88,-52.73 425.88,-23.27 425.88,-23.27 425.88,-21.47 446.1,-20 471,-20 495.9,-20 516.12,-21.47 516.12,-23.27 516.12,-23.27 516.12,-52.73 516.12,-52.73"/>
<path fill="none" stroke="#334155" stroke-width="1.3" d="M516.12,-52.73C516.12,-50.92 495.9,-49.45 471,-49.45 446.1,-49.45 425.88,-50.92 425.88,-52.73"/>
<text xml:space="preserve" text-anchor="middle" x="471" y="-34.5" font-family="sans-Serif" font-size="10.00" fill="#0f172a">preferences.jsonl</text>
</g>
<!-- W1&#45;&gt;Fprf -->
<g id="edge19" class="edge">
<title>W1&#45;&gt;Fprf</title>
<path fill="none" stroke="#f59e0b" stroke-width="2" d="M344.37,-186.9C350.99,-184.21 357.62,-181.54 364,-179 398.51,-165.26 417.21,-176.66 442,-149 462.14,-126.53 468.57,-91.69 470.48,-67.26"/>
<polygon fill="#f59e0b" stroke="#f59e0b" stroke-width="2" points="473.26,-67.69 470.91,-59.55 467.67,-67.38 473.26,-67.69"/>
</g>
<!-- W2 -->
<g id="node14" class="node">
<title>W2</title>
<path fill="#fda4af" stroke="#334155" stroke-width="2" d="M161.88,-243C161.88,-243 28.12,-243 28.12,-243 22.12,-243 16.12,-237 16.12,-231 16.12,-231 16.12,-199 16.12,-199 16.12,-193 22.12,-187 28.12,-187 28.12,-187 161.88,-187 161.88,-187 167.88,-187 173.88,-193 173.88,-199 173.88,-199 173.88,-231 173.88,-231 173.88,-237 167.88,-243 161.88,-243"/>
<text xml:space="preserve" text-anchor="middle" x="95" y="-229.5" font-family="sans-Serif" font-size="10.00" fill="#0f172a">W2 &#160;train_and_gate</text>
<text xml:space="preserve" text-anchor="middle" x="95" y="-217.5" font-family="sans-Serif" font-size="10.00" fill="#0f172a">SFT+DPO → LoRA vN+1</text>
<text xml:space="preserve" text-anchor="middle" x="95" y="-205.5" font-family="sans-Serif" font-size="10.00" fill="#0f172a">replay Mistakes.top vN vs vN+1</text>
<text xml:space="preserve" text-anchor="middle" x="95" y="-193.5" font-family="sans-Serif" font-size="10.00" fill="#0f172a">promote iff resolved(N+1) &gt; (N)</text>
</g>
<!-- Fftn -->
<g id="node20" class="node">
<title>Fftn</title>
<path fill="#fcd34d" stroke="#334155" stroke-width="1.3" d="M386.25,-52.73C386.25,-54.53 368.21,-56 346,-56 323.79,-56 305.75,-54.53 305.75,-52.73 305.75,-52.73 305.75,-23.27 305.75,-23.27 305.75,-21.47 323.79,-20 346,-20 368.21,-20 386.25,-21.47 386.25,-23.27 386.25,-23.27 386.25,-52.73 386.25,-52.73"/>
<path fill="none" stroke="#334155" stroke-width="1.3" d="M386.25,-52.73C386.25,-50.92 368.21,-49.45 346,-49.45 323.79,-49.45 305.75,-50.92 305.75,-52.73"/>
<text xml:space="preserve" text-anchor="middle" x="346" y="-34.5" font-family="sans-Serif" font-size="10.00" fill="#0f172a">finetune/*.jsonl</text>
</g>
<!-- W2&#45;&gt;Fftn -->
<g id="edge22" class="edge">
<title>W2&#45;&gt;Fftn</title>
<path fill="none" stroke="#f59e0b" stroke-width="1.3" d="M135.05,-186.08C184.43,-151.65 267.43,-93.78 313.21,-61.86"/>
<polygon fill="#f59e0b" stroke="#f59e0b" stroke-width="1.3" points="314.74,-64.21 319.7,-57.34 311.53,-59.62 314.74,-64.21"/>
</g>
<!-- Ollama -->
<g id="node22" class="node">
<title>Ollama</title>
<path fill="#7dd3fc" stroke="#334155" stroke-width="1.3" d="M144.25,-56C144.25,-56 45.75,-56 45.75,-56 39.75,-56 33.75,-50 33.75,-44 33.75,-44 33.75,-32 33.75,-32 33.75,-26 39.75,-20 45.75,-20 45.75,-20 144.25,-20 144.25,-20 150.25,-20 156.25,-26 156.25,-32 156.25,-32 156.25,-44 156.25,-44 156.25,-50 150.25,-56 144.25,-56"/>
<text xml:space="preserve" text-anchor="middle" x="95" y="-40.5" font-family="sans-Serif" font-size="10.00" fill="#0f172a">ollama create pwn&#45;vN+1</text>
<text xml:space="preserve" text-anchor="middle" x="95" y="-28.5" font-family="sans-Serif" font-size="10.00" fill="#0f172a">(local LoRA adapter)</text>
</g>
<!-- W2&#45;&gt;Ollama -->
<g id="edge23" class="edge">
<title>W2&#45;&gt;Ollama</title>
<path fill="none" stroke="#fb7185" stroke-width="2" d="M94.35,-186.17C94.11,-174.66 93.87,-161.19 93.75,-149 93.48,-121.32 93.92,-89.72 94.35,-67.51"/>
<polygon fill="#fb7185" stroke="#fb7185" stroke-width="2" points="97.15,-67.61 94.51,-59.55 91.55,-67.49 97.15,-67.61"/>
<text xml:space="preserve" text-anchor="middle" x="105.38" y="-140.45" font-family="sans-Serif" font-size="9.00" fill="#cbd5e1">LoRA</text>
</g>
<!-- W3 -->
<g id="node15" class="node">
<title>W3</title>
<path fill="#fda4af" stroke="#334155" stroke-width="1.3" d="M514.38,-233C514.38,-233 395.62,-233 395.62,-233 389.62,-233 383.62,-227 383.62,-221 383.62,-221 383.62,-209 383.62,-209 383.62,-203 389.62,-197 395.62,-197 395.62,-197 514.38,-197 514.38,-197 520.38,-197 526.38,-203 526.38,-209 526.38,-209 526.38,-221 526.38,-221 526.38,-227 520.38,-233 514.38,-233"/>
<text xml:space="preserve" text-anchor="middle" x="455" y="-217.5" font-family="sans-Serif" font-size="10.00" fill="#0f172a">W3 &#160;calibrate</text>
<text xml:space="preserve" text-anchor="middle" x="455" y="-205.5" font-family="sans-Serif" font-size="10.00" fill="#0f172a">p(success) vs actual → Brier</text>
</g>
<!-- W3&#45;&gt;Loop -->
<g id="edge25" class="edge">
<title>W3&#45;&gt;Loop</title>
<path fill="none" stroke="#fbbf24" stroke-width="1.3" stroke-dasharray="5,2" d="M473.18,-233.64C498.38,-256.81 546.44,-296.54 596,-313.5 709.6,-352.39 1592.45,-285.31 1675,-372.5 1712.43,-412.04 1713.26,-456.26 1675,-495 1668.7,-501.37 1038.91,-502.02 1030,-503 1007.43,-505.49 1002.3,-509.2 980,-513.5 891.3,-530.6 789.11,-548.27 720.52,-559.84"/>
<polygon fill="#fbbf24" stroke="#fbbf24" stroke-width="1.3" points="720.43,-557.01 713.01,-561.1 721.36,-562.54 720.43,-557.01"/>
<text xml:space="preserve" text-anchor="middle" x="1724.76" y="-399.2" font-family="sans-Serif" font-size="9.00" fill="#cbd5e1">calibration</text>
</g>
<!-- Fmis&#45;&gt;W2 -->
<g id="edge24" class="edge">
<title>Fmis&#45;&gt;W2</title>
<path fill="none" stroke="#fbbf24" stroke-width="1.3" stroke-dasharray="5,2" d="M818.27,-56.63C810.28,-78.1 793.58,-113.59 766,-130.5 657.24,-197.17 318.77,-152.44 194,-179 188.27,-180.22 182.41,-181.69 176.56,-183.32"/>
<polygon fill="#fbbf24" stroke="#fbbf24" stroke-width="1.3" points="176.15,-180.52 169.26,-185.45 177.72,-185.89 176.15,-180.52"/>
<text xml:space="preserve" text-anchor="middle" x="759.79" y="-140.45" font-family="sans-Serif" font-size="9.00" fill="#cbd5e1">eval set</text>
</g>
<!-- Fses&#45;&gt;W2 -->
<g id="edge21" class="edge">
<title>Fses&#45;&gt;W2</title>
<path fill="none" stroke="#f59e0b" stroke-width="1.3" d="M590.5,-60.3C580.74,-81.78 562.57,-114.05 536,-130.5 519.68,-140.6 212.64,-174.43 194,-179 188.91,-180.25 183.71,-181.66 178.5,-183.17"/>
<polygon fill="#f59e0b" stroke="#f59e0b" stroke-width="1.3" points="177.85,-180.45 171,-185.44 179.47,-185.81 177.85,-180.45"/>
<text xml:space="preserve" text-anchor="middle" x="527.83" y="-140.45" font-family="sans-Serif" font-size="9.00" fill="#cbd5e1">export_finetune</text>
</g>
<!-- Fprf&#45;&gt;W2 -->
<g id="edge20" class="edge">
<title>Fprf&#45;&gt;W2</title>
<path fill="none" stroke="#f59e0b" stroke-width="1.3" d="M464.23,-56.46C454.8,-78.11 435.48,-114.15 406,-130.5 379.81,-145.02 300.64,-131.62 271.5,-138.5 231.45,-147.95 188.98,-165.85 155.73,-181.85"/>
<polygon fill="#f59e0b" stroke="#f59e0b" stroke-width="1.3" points="154.78,-179.2 148.82,-185.22 157.24,-184.23 154.78,-179.2"/>
<text xml:space="preserve" text-anchor="middle" x="294.75" y="-140.45" font-family="sans-Serif" font-size="9.00" fill="#cbd5e1">export_dpo</text>
</g>
<!-- Ollama&#45;&gt;Loop -->
<g id="edge32" class="edge">
<title>Ollama&#45;&gt;Loop</title>
<path fill="none" stroke="#fb7185" stroke-width="2" stroke-dasharray="5,2" d="M122.38,-56.63C158.59,-78.83 225.17,-115.83 288,-130.5 341.89,-143.08 730.7,-136.4 786,-138.5 936.61,-144.21 1320.02,-131.35 1463,-179 1611.05,-228.34 1682.06,-235.07 1756,-372.5 1781.79,-420.45 1794.27,-456.28 1756,-495 1749.38,-501.7 1087.36,-501.97 1078,-503 1055.43,-505.48 1050.34,-509.44 1028,-513.5 922.56,-532.67 800.17,-550.8 721.96,-561.87"/>
<polygon fill="#fb7185" stroke="#fb7185" stroke-width="2" points="721.75,-559.07 714.22,-562.96 722.53,-564.62 721.75,-559.07"/>
<text xml:space="preserve" text-anchor="middle" x="1768.75" y="-333.95" font-family="sans-Serif" font-size="9.00" fill="#cbd5e1">promoted vN+1</text>
<text xml:space="preserve" text-anchor="middle" x="1768.75" y="-323.45" font-family="sans-Serif" font-size="9.00" fill="#cbd5e1">(next session)</text>
</g>
<!-- Cron -->
<g id="node23" class="node">
<title>Cron</title>
<path fill="#7dd3fc" stroke="#334155" stroke-width="1.3" d="M994,-596.25C994,-596.25 864,-596.25 864,-596.25 858,-596.25 852,-590.25 852,-584.25 852,-584.25 852,-563.5 852,-563.5 852,-557.5 858,-551.5 864,-551.5 864,-551.5 994,-551.5 994,-551.5 1000,-551.5 1006,-557.5 1006,-563.5 1006,-563.5 1006,-584.25 1006,-584.25 1006,-590.25 1000,-596.25 994,-596.25"/>
<text xml:space="preserve" text-anchor="middle" x="929" y="-582.75" font-family="sans-Serif" font-size="10.00" fill="#0f172a">⏱ &#160;PWN::Cron.install_defaults</text>
<text xml:space="preserve" text-anchor="middle" x="929" y="-570" font-family="sans-Serif" font-size="10.00" fill="#0f172a">practice · offline_judge</text>
<text xml:space="preserve" text-anchor="middle" x="929" y="-558" font-family="sans-Serif" font-size="10.00" fill="#0f172a">train dry_run · consolidate</text>
</g>
<!-- Cron&#45;&gt;S1 -->
<g id="edge26" class="edge">
<title>Cron&#45;&gt;S1</title>
<path fill="none" stroke="#38bdf8" stroke-width="1.3" d="M965.81,-550.89C984.89,-536.83 1001.46,-518.4 987,-503 977.4,-492.77 873.69,-500.97 861,-495 832.79,-481.72 809.26,-454.72 793.98,-433.48"/>
<polygon fill="#38bdf8" stroke="#38bdf8" stroke-width="1.3" points="796.33,-431.95 789.47,-426.98 791.74,-435.15 796.33,-431.95"/>
<text xml:space="preserve" text-anchor="middle" x="1007.46" y="-504.95" font-family="sans-Serif" font-size="9.00" fill="#cbd5e1">0 3 * * *</text>
</g>
<!-- Cron&#45;&gt;W2 -->
<g id="edge28" class="edge">
<title>Cron&#45;&gt;W2</title>
<path fill="none" stroke="#38bdf8" stroke-width="1.3" d="M999.82,-550.93C1057.41,-534.23 1141.09,-512.55 1216,-503 1230.88,-501.1 1744.93,-505.12 1756,-495 1813.16,-442.75 1826.62,-376.4 1772,-321.5 1756.54,-305.96 214.26,-321.86 194,-313.5 163.48,-300.9 137.3,-273.91 119.54,-251.51"/>
<polygon fill="#38bdf8" stroke="#38bdf8" stroke-width="1.3" points="121.91,-250 114.81,-245.37 117.47,-253.42 121.91,-250"/>
<text xml:space="preserve" text-anchor="middle" x="1822.76" y="-399.2" font-family="sans-Serif" font-size="9.00" fill="#cbd5e1">0 4 * * 0</text>
</g>
<!-- OJ -->
<g id="node24" class="node">
<title>OJ</title>
<path fill="#6ee7b7" stroke="#334155" stroke-width="1.3" d="M1283.62,-591.88C1283.62,-591.88 1148.38,-591.88 1148.38,-591.88 1142.38,-591.88 1136.38,-585.88 1136.38,-579.88 1136.38,-579.88 1136.38,-567.88 1136.38,-567.88 1136.38,-561.88 1142.38,-555.88 1148.38,-555.88 1148.38,-555.88 1283.62,-555.88 1283.62,-555.88 1289.62,-555.88 1295.62,-561.88 1295.62,-567.88 1295.62,-567.88 1295.62,-579.88 1295.62,-579.88 1295.62,-585.88 1289.62,-591.88 1283.62,-591.88"/>
<text xml:space="preserve" text-anchor="middle" x="1216" y="-576.38" font-family="sans-Serif" font-size="10.00" fill="#0f172a">P3 &#160;offline_judge</text>
<text xml:space="preserve" text-anchor="middle" x="1216" y="-564.38" font-family="sans-Serif" font-size="10.00" fill="#0f172a">ORM/PRM + W3 cal from PLAN</text>
</g>
<!-- Cron&#45;&gt;OJ -->
<g id="edge27" class="edge">
<title>Cron&#45;&gt;OJ</title>
<path fill="none" stroke="#38bdf8" stroke-width="1.3" d="M1006.29,-573.88C1043.25,-573.88 1087.72,-573.88 1126.18,-573.88"/>
<polygon fill="#38bdf8" stroke="#38bdf8" stroke-width="1.3" points="1125.85,-576.68 1133.85,-573.88 1125.85,-571.08 1125.85,-576.68"/>
<text xml:space="preserve" text-anchor="middle" x="1071.19" y="-578.83" font-family="sans-Serif" font-size="9.00" fill="#cbd5e1">30 3 * * *</text>
</g>
<!-- MemGC -->
<g id="node25" class="node">
<title>MemGC</title>
<path fill="#6ee7b7" stroke="#334155" stroke-width="1.3" d="M1464.62,-591.88C1464.62,-591.88 1347.38,-591.88 1347.38,-591.88 1341.38,-591.88 1335.38,-585.88 1335.38,-579.88 1335.38,-579.88 1335.38,-567.88 1335.38,-567.88 1335.38,-561.88 1341.38,-555.88 1347.38,-555.88 1347.38,-555.88 1464.62,-555.88 1464.62,-555.88 1470.62,-555.88 1476.62,-561.88 1476.62,-567.88 1476.62,-567.88 1476.62,-579.88 1476.62,-579.88 1476.62,-585.88 1470.62,-591.88 1464.62,-591.88"/>
<text xml:space="preserve" text-anchor="middle" x="1406" y="-576.38" font-family="sans-Serif" font-size="10.00" fill="#0f172a">M1/M3 &#160;Learning.consolidate</text>
<text xml:space="preserve" text-anchor="middle" x="1406" y="-564.38" font-family="sans-Serif" font-size="10.00" fill="#0f172a">nightly memory GC</text>
</g>
<!-- Cron&#45;&gt;MemGC -->
<g id="edge29" class="edge">
<title>Cron&#45;&gt;MemGC</title>
<path fill="none" stroke="#38bdf8" stroke-width="1.3" d="M988.99,-596.78C1028.32,-610.55 1081.25,-626.74 1129.62,-633.81 1209.3,-645.46 1300.33,-617.58 1355.45,-596.04"/>
<polygon fill="#38bdf8" stroke="#38bdf8" stroke-width="1.3" points="1356.43,-598.67 1362.82,-593.1 1354.36,-593.47 1356.43,-598.67"/>
<text xml:space="preserve" text-anchor="middle" x="1145" y="-636.2" font-family="sans-Serif" font-size="9.00" fill="#cbd5e1">0 5 * * *</text>
</g>
<!-- OJ&#45;&gt;R1 -->
<g id="edge30" class="edge">
<title>OJ&#45;&gt;R1</title>
<path fill="none" stroke="#a78bfa" stroke-width="1.3" stroke-dasharray="5,2" d="M1218.79,-555.39C1223.48,-525.92 1233.01,-466.17 1238.61,-431.04"/>
<polygon fill="#a78bfa" stroke="#a78bfa" stroke-width="1.3" points="1241.34,-431.69 1239.84,-423.35 1235.81,-430.8 1241.34,-431.69"/>
<text xml:space="preserve" text-anchor="middle" x="1241.33" y="-504.95" font-family="sans-Serif" font-size="9.00" fill="#cbd5e1">backfill</text>
</g>
<!-- OJ&#45;&gt;W3 -->
<g id="edge31" class="edge">
<title>OJ&#45;&gt;W3</title>
<path fill="none" stroke="#fbbf24" stroke-width="1.3" stroke-dasharray="5,2" d="M1293.11,-555.23C1300.48,-553.84 1307.87,-552.57 1315,-551.5 1388.78,-540.47 1933.52,-549.92 1984,-495 2020.84,-454.91 2010.57,-420.02 1984,-372.5 1962.87,-334.71 1942.63,-333.41 1901,-321.5 1831.29,-301.56 665.14,-335.31 596,-313.5 550.28,-299.08 506.26,-264.2 479.91,-240.32"/>
<polygon fill="#fbbf24" stroke="#fbbf24" stroke-width="1.3" points="481.86,-238.31 474.09,-234.93 478.06,-242.42 481.86,-238.31"/>
<text xml:space="preserve" text-anchor="middle" x="2030.06" y="-399.2" font-family="sans-Serif" font-size="9.00" fill="#cbd5e1">p(success)</text>
</g>
</g>
</svg>
