<?xml version="1.0" encoding="UTF-8" standalone="no"?>
<!DOCTYPE svg PUBLIC "-//W3C//DTD SVG 1.1//EN"
 "http://www.w3.org/Graphics/SVG/1.1/DTD/svg11.dtd">
<!-- Generated by graphviz version 14.1.2 (0)
 -->
<!-- Title: PWN_Reinforcement_Learning Pages: 1 -->
<svg width="1925pt" height="627pt"
 viewBox="0.00 0.00 1925.00 627.00" xmlns="http://www.w3.org/2000/svg" xmlns:xlink="http://www.w3.org/1999/xlink">
<g id="graph0" class="graph" transform="scale(1 1) rotate(0) translate(43.2 583.95)">
<title>PWN_Reinforcement_Learning</title>
<polygon fill="#0f172a" stroke="none" points="-43.2,43.2 -43.2,-583.95 1881.9,-583.95 1881.9,43.2 -43.2,43.2"/>
<text xml:space="preserve" text-anchor="start" x="637.35" y="-518.75" font-family="sans-Serif" font-weight="bold" font-size="20.00" fill="#e2e8f0">PWN::AI::Agent &#45; Reward + Curriculum Reinforcement Loop</text>
<text xml:space="preserve" text-anchor="start" x="588.97" y="-507.3" font-family="sans-Serif" font-size="11.00" fill="#94a3b8">R1..R4 reward signal &#160;· &#160;C1..C4 credit assignment &#160;· &#160;M1..M4 memory &#160;· &#160;S1..S4 self&#45;play &#160;· &#160;W1..W3 weight loop &#160;· &#160;E1..E3 intro↔extro join</text>
<g id="clust2" class="cluster">
<title>cluster_reward</title>
<path fill="#2e1065" stroke="#6d28d9" stroke-width="2" d="M832,-314C832,-314 1599,-314 1599,-314 1605,-314 1611,-320 1611,-326 1611,-326 1611,-385.25 1611,-385.25 1611,-391.25 1605,-397.25 1599,-397.25 1599,-397.25 832,-397.25 832,-397.25 826,-397.25 820,-391.25 820,-385.25 820,-385.25 820,-326 820,-326 820,-320 826,-314 832,-314"/>
<text xml:space="preserve" text-anchor="middle" x="1215.5" y="-374.25" font-family="sans-Serif" font-size="20.00" fill="#ddd6fe">Tier 1 · Reward &#160;(PWN::AI::Agent::Reward)</text>
</g>
<g id="clust4" class="cluster">
<title>cluster_curr</title>
<path fill="#022c22" stroke="#047857" stroke-width="2" d="M56,-310C56,-310 784,-310 784,-310 790,-310 796,-316 796,-322 796,-322 796,-389.25 796,-389.25 796,-395.25 790,-401.25 784,-401.25 784,-401.25 56,-401.25 56,-401.25 50,-401.25 44,-395.25 44,-389.25 44,-389.25 44,-322 44,-322 44,-316 50,-310 56,-310"/>
<text xml:space="preserve" text-anchor="middle" x="420" y="-378.25" font-family="sans-Serif" font-size="20.00" fill="#a7f3d0">Tier 4 · Curriculum &#160;(PWN::AI::Agent::Curriculum)</text>
</g>
<g id="clust6" class="cluster">
<title>cluster_weight</title>
<path fill="#450a0a" stroke="#b91c1c" stroke-width="2" d="M20,-147.75C20,-147.75 522,-147.75 522,-147.75 528,-147.75 534,-153.75 534,-159.75 534,-159.75 534,-239 534,-239 534,-245 528,-251 522,-251 522,-251 20,-251 20,-251 14,-251 8,-245 8,-239 8,-239 8,-159.75 8,-159.75 8,-153.75 14,-147.75 20,-147.75"/>
<text xml:space="preserve" text-anchor="middle" x="271" y="-228" font-family="sans-Serif" font-size="20.00" fill="#fecaca">Tier 5 · Weight Loop</text>
</g>
<g id="clust8" class="cluster">
<title>cluster_files</title>
<path fill="#422006" stroke="#a16207" stroke-dasharray="5,2" d="M313,-8C313,-8 1007,-8 1007,-8 1013,-8 1019,-14 1019,-20 1019,-20 1019,-87.25 1019,-87.25 1019,-93.25 1013,-99.25 1007,-99.25 1007,-99.25 313,-99.25 313,-99.25 307,-99.25 301,-93.25 301,-87.25 301,-87.25 301,-20 301,-20 301,-14 307,-8 313,-8"/>
<text xml:space="preserve" text-anchor="middle" x="660" y="-76.25" font-family="sans-Serif" font-size="20.00" fill="#fde68a">~/.pwn/</text>
</g>
<!-- Req -->
<g id="node1" class="node">
<title>Req</title>
<path fill="#7dd3fc" stroke="#334155" stroke-width="1.3" d="M517.5,-497.75C517.5,-497.75 474.5,-497.75 474.5,-497.75 468.5,-497.75 462.5,-491.75 462.5,-485.75 462.5,-485.75 462.5,-473.75 462.5,-473.75 462.5,-467.75 468.5,-461.75 474.5,-461.75 474.5,-461.75 517.5,-461.75 517.5,-461.75 523.5,-461.75 529.5,-467.75 529.5,-473.75 529.5,-473.75 529.5,-485.75 529.5,-485.75 529.5,-491.75 523.5,-497.75 517.5,-497.75"/>
<text xml:space="preserve" text-anchor="middle" x="496" y="-476.62" font-family="sans-Serif" font-size="10.00" fill="#0f172a">👤 &#160;request</text>
</g>
<!-- Loop -->
<g id="node2" class="node">
<title>Loop</title>
<path fill="#7dd3fc" stroke="#334155" stroke-width="2" d="M733.38,-501.75C733.38,-501.75 620.62,-501.75 620.62,-501.75 614.62,-501.75 608.62,-495.75 608.62,-489.75 608.62,-489.75 608.62,-469.75 608.62,-469.75 608.62,-463.75 614.62,-457.75 620.62,-457.75 620.62,-457.75 733.38,-457.75 733.38,-457.75 739.38,-457.75 745.38,-463.75 745.38,-469.75 745.38,-469.75 745.38,-489.75 745.38,-489.75 745.38,-495.75 739.38,-501.75 733.38,-501.75"/>
<text xml:space="preserve" text-anchor="middle" x="677" y="-488.25" font-family="sans-Serif" font-size="10.00" fill="#0f172a">Loop.run</text>
<text xml:space="preserve" text-anchor="middle" x="677" y="-476.25" font-family="sans-Serif" font-size="10.00" fill="#0f172a">plan_first · Dispatch · guard</text>
<text xml:space="preserve" text-anchor="middle" x="677" y="-464.25" font-family="sans-Serif" font-size="10.00" fill="#0f172a">final answer</text>
</g>
<!-- Req&#45;&gt;Loop -->
<g id="edge1" class="edge">
<title>Req&#45;&gt;Loop</title>
<path fill="none" stroke="#38bdf8" stroke-width="2" d="M529.94,-479.75C552.24,-479.75 574.53,-479.75 596.83,-479.75"/>
<polygon fill="#38bdf8" stroke="#38bdf8" stroke-width="2" points="596.75,-482.55 604.75,-479.75 596.75,-476.95 596.75,-482.55"/>
</g>
<!-- R1 -->
<g id="node3" class="node">
<title>R1</title>
<path fill="#c4b5fd" stroke="#334155" stroke-width="2" d="M940,-358C940,-358 840,-358 840,-358 834,-358 828,-352 828,-346 828,-346 828,-334 828,-334 828,-328 834,-322 840,-322 840,-322 940,-322 940,-322 946,-322 952,-328 952,-334 952,-334 952,-346 952,-346 952,-352 946,-358 940,-358"/>
<text xml:space="preserve" text-anchor="middle" x="890" y="-342.5" font-family="sans-Serif" font-size="10.00" fill="#0f172a">R1 &#160;judge (ORM)</text>
<text xml:space="preserve" text-anchor="middle" x="890" y="-330.5" font-family="sans-Serif" font-size="10.00" fill="#0f172a">score · verdict · rationale</text>
</g>
<!-- Loop&#45;&gt;R1 -->
<g id="edge3" class="edge">
<title>Loop&#45;&gt;R1</title>
<path fill="none" stroke="#a78bfa" stroke-width="2" d="M715.32,-456.83C741.25,-441.73 776.09,-420.91 806,-401.25 823.3,-389.88 842.06,-376.52 857.46,-365.27"/>
<polygon fill="#a78bfa" stroke="#a78bfa" stroke-width="2" points="858.87,-367.71 863.66,-360.72 855.56,-363.2 858.87,-367.71"/>
<text xml:space="preserve" text-anchor="middle" x="800.93" y="-411.2" font-family="sans-Serif" font-size="9.00" fill="#cbd5e1">final</text>
</g>
<!-- R2 -->
<g id="node4" class="node">
<title>R2</title>
<path fill="#c4b5fd" stroke="#334155" stroke-width="1.3" d="M1292,-358C1292,-358 1228,-358 1228,-358 1222,-358 1216,-352 1216,-346 1216,-346 1216,-334 1216,-334 1216,-328 1222,-322 1228,-322 1228,-322 1292,-322 1292,-322 1298,-322 1304,-328 1304,-334 1304,-334 1304,-346 1304,-346 1304,-352 1298,-358 1292,-358"/>
<text xml:space="preserve" text-anchor="middle" x="1260" y="-342.5" font-family="sans-Serif" font-size="10.00" fill="#0f172a">R2 &#160;prm (PRM)</text>
<text xml:space="preserve" text-anchor="middle" x="1260" y="-330.5" font-family="sans-Serif" font-size="10.00" fill="#0f172a">per&#45;step +1/0/−1</text>
</g>
<!-- Loop&#45;&gt;R2 -->
<g id="edge4" class="edge">
<title>Loop&#45;&gt;R2</title>
<path fill="none" stroke="#a78bfa" stroke-width="1.3" d="M746.21,-473.57C868.66,-463.55 1117.93,-439.13 1196,-401.25 1213.1,-392.95 1228.71,-378.47 1240.23,-365.78"/>
<polygon fill="#a78bfa" stroke="#a78bfa" stroke-width="1.3" points="1242.08,-367.92 1245.23,-360.06 1237.86,-364.24 1242.08,-367.92"/>
<text xml:space="preserve" text-anchor="middle" x="1189.68" y="-411.2" font-family="sans-Serif" font-size="9.00" fill="#cbd5e1">session</text>
</g>
<!-- R3 -->
<g id="node5" class="node">
<title>R3</title>
<path fill="#c4b5fd" stroke="#334155" stroke-width="1.3" d="M1451.75,-358C1451.75,-358 1356.25,-358 1356.25,-358 1350.25,-358 1344.25,-352 1344.25,-346 1344.25,-346 1344.25,-334 1344.25,-334 1344.25,-328 1350.25,-322 1356.25,-322 1356.25,-322 1451.75,-322 1451.75,-322 1457.75,-322 1463.75,-328 1463.75,-334 1463.75,-334 1463.75,-346 1463.75,-346 1463.75,-352 1457.75,-358 1451.75,-358"/>
<text xml:space="preserve" text-anchor="middle" x="1404" y="-342.5" font-family="sans-Serif" font-size="10.00" fill="#0f172a">R3 &#160;sentinel</text>
<text xml:space="preserve" text-anchor="middle" x="1404" y="-330.5" font-family="sans-Serif" font-size="10.00" fill="#0f172a">proxy ≠ judge ≠ (1−corr)</text>
</g>
<!-- Loop&#45;&gt;R3 -->
<g id="edge5" class="edge">
<title>Loop&#45;&gt;R3</title>
<path fill="none" stroke="#a78bfa" stroke-width="1.3" d="M745.95,-472.5C848.46,-462.91 1047.03,-443.19 1215,-419.75 1263.67,-412.96 1278.87,-420.69 1324,-401.25 1344.26,-392.52 1364.09,-377.64 1378.94,-364.86"/>
<polygon fill="#a78bfa" stroke="#a78bfa" stroke-width="1.3" points="1380.62,-367.11 1384.75,-359.71 1376.91,-362.92 1380.62,-367.11"/>
</g>
<!-- R4 -->
<g id="node6" class="node">
<title>R4</title>
<path fill="#c4b5fd" stroke="#334155" stroke-width="1.3" d="M1590.62,-358C1590.62,-358 1515.38,-358 1515.38,-358 1509.38,-358 1503.38,-352 1503.38,-346 1503.38,-346 1503.38,-334 1503.38,-334 1503.38,-328 1509.38,-322 1515.38,-322 1515.38,-322 1590.62,-322 1590.62,-322 1596.62,-322 1602.62,-328 1602.62,-334 1602.62,-334 1602.62,-346 1602.62,-346 1602.62,-352 1596.62,-358 1590.62,-358"/>
<text xml:space="preserve" text-anchor="middle" x="1553" y="-342.5" font-family="sans-Serif" font-size="10.00" fill="#0f172a">R4 &#160;semantic_ok</text>
<text xml:space="preserve" text-anchor="middle" x="1553" y="-330.5" font-family="sans-Serif" font-size="10.00" fill="#0f172a">grep exit 1 ≠ failure</text>
</g>
<!-- Loop&#45;&gt;R4 -->
<g id="edge2" class="edge">
<title>Loop&#45;&gt;R4</title>
<path fill="none" stroke="#a78bfa" stroke-width="1.3" d="M746.1,-477.51C916.39,-473.6 1351.91,-458.15 1484,-401.25 1502.49,-393.29 1519.56,-378.47 1532.1,-365.53"/>
<polygon fill="#a78bfa" stroke="#a78bfa" stroke-width="1.3" points="1533.82,-367.78 1537.23,-360.02 1529.73,-363.96 1533.82,-367.78"/>
<text xml:space="preserve" text-anchor="middle" x="1479.93" y="-411.2" font-family="sans-Serif" font-size="9.00" fill="#cbd5e1">Dispatch</text>
</g>
<!-- S2 -->
<g id="node9" class="node">
<title>S2</title>
<path fill="#6ee7b7" stroke="#334155" stroke-width="1.3" d="M304.12,-358C304.12,-358 225.88,-358 225.88,-358 219.88,-358 213.88,-352 213.88,-346 213.88,-346 213.88,-334 213.88,-334 213.88,-328 219.88,-322 225.88,-322 225.88,-322 304.12,-322 304.12,-322 310.12,-322 316.12,-328 316.12,-334 316.12,-334 316.12,-346 316.12,-346 316.12,-352 310.12,-358 304.12,-358"/>
<text xml:space="preserve" text-anchor="middle" x="265" y="-342.5" font-family="sans-Serif" font-size="10.00" fill="#0f172a">S2 &#160;counterfactual</text>
<text xml:space="preserve" text-anchor="middle" x="265" y="-330.5" font-family="sans-Serif" font-size="10.00" fill="#0f172a">fork alt&#45;persona A/B</text>
</g>
<!-- Loop&#45;&gt;S2 -->
<g id="edge9" class="edge">
<title>Loop&#45;&gt;S2</title>
<path fill="none" stroke="#fb7185" stroke-width="1.3" d="M607.89,-467.06C522.59,-451.95 383.04,-424.77 336,-401.25 317.94,-392.22 300.61,-377.67 287.59,-365.12"/>
<polygon fill="#fb7185" stroke="#fb7185" stroke-width="1.3" points="289.87,-363.44 282.22,-359.8 285.92,-367.42 289.87,-363.44"/>
<text xml:space="preserve" text-anchor="middle" x="411.06" y="-411.2" font-family="sans-Serif" font-size="9.00" fill="#cbd5e1">[REPEATING]</text>
</g>
<!-- S3 -->
<g id="node10" class="node">
<title>S3</title>
<path fill="#6ee7b7" stroke="#334155" stroke-width="1.3" d="M162.25,-358C162.25,-358 63.75,-358 63.75,-358 57.75,-358 51.75,-352 51.75,-346 51.75,-346 51.75,-334 51.75,-334 51.75,-328 57.75,-322 63.75,-322 63.75,-322 162.25,-322 162.25,-322 168.25,-322 174.25,-328 174.25,-334 174.25,-334 174.25,-346 174.25,-346 174.25,-352 168.25,-358 162.25,-358"/>
<text xml:space="preserve" text-anchor="middle" x="113" y="-342.5" font-family="sans-Serif" font-size="10.00" fill="#0f172a">S3 &#160;critic</text>
<text xml:space="preserve" text-anchor="middle" x="113" y="-330.5" font-family="sans-Serif" font-size="10.00" fill="#0f172a">tool&#45;armed constitutional</text>
</g>
<!-- Loop&#45;&gt;S3 -->
<g id="edge8" class="edge">
<title>Loop&#45;&gt;S3</title>
<path fill="none" stroke="#34d399" stroke-width="1.3" d="M607.81,-467.22C589.05,-464.12 568.75,-460.79 550,-457.75 391.86,-432.13 341.65,-463.41 194,-401.25 173.5,-392.62 153.43,-377.75 138.39,-364.93"/>
<polygon fill="#34d399" stroke="#34d399" stroke-width="1.3" points="140.35,-362.93 132.49,-359.76 136.66,-367.14 140.35,-362.93"/>
<text xml:space="preserve" text-anchor="middle" x="244.2" y="-411.2" font-family="sans-Serif" font-size="9.00" fill="#cbd5e1">final</text>
</g>
<!-- S4 -->
<g id="node11" class="node">
<title>S4</title>
<path fill="#6ee7b7" stroke="#334155" stroke-width="1.3" d="M459.88,-358C459.88,-358 368.12,-358 368.12,-358 362.12,-358 356.12,-352 356.12,-346 356.12,-346 356.12,-334 356.12,-334 356.12,-328 362.12,-322 368.12,-322 368.12,-322 459.88,-322 459.88,-322 465.88,-322 471.88,-328 471.88,-334 471.88,-334 471.88,-346 471.88,-346 471.88,-352 465.88,-358 459.88,-358"/>
<text xml:space="preserve" text-anchor="middle" x="414" y="-342.5" font-family="sans-Serif" font-size="10.00" fill="#0f172a">S4 &#160;red_team_plan</text>
<text xml:space="preserve" text-anchor="middle" x="414" y="-330.5" font-family="sans-Serif" font-size="10.00" fill="#0f172a">adversarial plan review</text>
</g>
<!-- Loop&#45;&gt;S4 -->
<g id="edge7" class="edge">
<title>Loop&#45;&gt;S4</title>
<path fill="none" stroke="#34d399" stroke-width="1.3" d="M613.39,-456.82C576.77,-443.05 530.52,-423.68 492,-401.25 474.03,-390.79 455.55,-376.69 441.09,-364.76"/>
<polygon fill="#34d399" stroke="#34d399" stroke-width="1.3" points="442.93,-362.65 435.01,-359.65 439.33,-366.94 442.93,-362.65"/>
<text xml:space="preserve" text-anchor="middle" x="544.54" y="-411.2" font-family="sans-Serif" font-size="9.00" fill="#cbd5e1">plan_first</text>
</g>
<!-- C3 -->
<g id="node12" class="node">
<title>C3</title>
<path fill="#6ee7b7" stroke="#334155" stroke-width="1.3" d="M607.75,-358C607.75,-358 524.25,-358 524.25,-358 518.25,-358 512.25,-352 512.25,-346 512.25,-346 512.25,-334 512.25,-334 512.25,-328 518.25,-322 524.25,-322 524.25,-322 607.75,-322 607.75,-322 613.75,-322 619.75,-328 619.75,-334 619.75,-334 619.75,-346 619.75,-346 619.75,-352 613.75,-358 607.75,-358"/>
<text xml:space="preserve" text-anchor="middle" x="566" y="-342.5" font-family="sans-Serif" font-size="10.00" fill="#0f172a">C3 &#160;hindsight (HER)</text>
<text xml:space="preserve" text-anchor="middle" x="566" y="-330.5" font-family="sans-Serif" font-size="10.00" fill="#0f172a">relabel achieved&#45;goal</text>
</g>
<!-- Loop&#45;&gt;C3 -->
<g id="edge10" class="edge">
<title>Loop&#45;&gt;C3</title>
<path fill="none" stroke="#fb7185" stroke-width="1.3" d="M659.41,-456.92C639.47,-432.17 607.01,-391.9 586.09,-365.93"/>
<polygon fill="#fb7185" stroke="#fb7185" stroke-width="1.3" points="588.43,-364.37 581.23,-359.9 584.07,-367.88 588.43,-364.37"/>
<text xml:space="preserve" text-anchor="middle" x="649.52" y="-411.2" font-family="sans-Serif" font-size="9.00" fill="#cbd5e1">failed goal</text>
</g>
<!-- E3 -->
<g id="node7" class="node">
<title>E3</title>
<path fill="#c4b5fd" stroke="#334155" stroke-width="1.3" d="M1164.12,-358C1164.12,-358 1043.88,-358 1043.88,-358 1037.88,-358 1031.88,-352 1031.88,-346 1031.88,-346 1031.88,-334 1031.88,-334 1031.88,-328 1037.88,-322 1043.88,-322 1043.88,-322 1164.12,-322 1164.12,-322 1170.12,-322 1176.12,-328 1176.12,-334 1176.12,-334 1176.12,-346 1176.12,-346 1176.12,-352 1170.12,-358 1164.12,-358"/>
<text xml:space="preserve" text-anchor="middle" x="1104" y="-342.5" font-family="sans-Serif" font-size="10.00" fill="#0f172a">E3 &#160;verify_as_reward</text>
<text xml:space="preserve" text-anchor="middle" x="1104" y="-330.5" font-family="sans-Serif" font-size="10.00" fill="#0f172a">extro_verify caps/floors judge</text>
</g>
<!-- R1&#45;&gt;E3 -->
<g id="edge6" class="edge">
<title>R1&#45;&gt;E3</title>
<path fill="none" stroke="#fbbf24" stroke-width="1.3" stroke-dasharray="5,2" d="M952.76,-340C974.34,-340 998.84,-340 1021.74,-340"/>
<polygon fill="#fbbf24" stroke="#fbbf24" stroke-width="1.3" points="1021.47,-342.8 1029.47,-340 1021.47,-337.2 1021.47,-342.8"/>
<text xml:space="preserve" text-anchor="middle" x="991.94" y="-344.95" font-family="sans-Serif" font-size="9.00" fill="#cbd5e1">ground</text>
</g>
<!-- Fses -->
<g id="node17" class="node">
<title>Fses</title>
<path fill="#fcd34d" stroke="#334155" stroke-width="1.3" d="M644.5,-56C644.5,-58.21 625.45,-60 602,-60 578.55,-60 559.5,-58.21 559.5,-56 559.5,-56 559.5,-20 559.5,-20 559.5,-17.79 578.55,-16 602,-16 625.45,-16 644.5,-17.79 644.5,-20 644.5,-20 644.5,-56 644.5,-56"/>
<path fill="none" stroke="#334155" stroke-width="1.3" d="M644.5,-56C644.5,-53.79 625.45,-52 602,-52 578.55,-52 559.5,-53.79 559.5,-56"/>
<text xml:space="preserve" text-anchor="middle" x="602" y="-40.5" font-family="sans-Serif" font-size="10.00" fill="#0f172a">sessions/*.jsonl</text>
<text xml:space="preserve" text-anchor="middle" x="602" y="-28.5" font-family="sans-Serif" font-size="10.00" fill="#0f172a">(step_reward)</text>
</g>
<!-- R2&#45;&gt;Fses -->
<g id="edge11" class="edge">
<title>R2&#45;&gt;Fses</title>
<path fill="none" stroke="#f59e0b" stroke-width="1.3" d="M1228.34,-321.46C1138.01,-271.75 879.67,-131.95 787,-107.25 760.75,-100.25 689.87,-110.19 665,-99.25 649.28,-92.34 635.12,-79.72 624.23,-67.81"/>
<polygon fill="#f59e0b" stroke="#f59e0b" stroke-width="1.3" points="626.55,-66.21 619.17,-62.02 622.33,-69.89 626.55,-66.21"/>
<text xml:space="preserve" text-anchor="middle" x="1118.79" y="-180.45" font-family="sans-Serif" font-size="9.00" fill="#cbd5e1">step_reward</text>
</g>
<!-- Fmis -->
<g id="node16" class="node">
<title>Fmis</title>
<path fill="#fcd34d" stroke="#334155" stroke-width="1.3" d="M865.38,-52.73C865.38,-54.53 848.17,-56 827,-56 805.83,-56 788.62,-54.53 788.62,-52.73 788.62,-52.73 788.62,-23.27 788.62,-23.27 788.62,-21.47 805.83,-20 827,-20 848.17,-20 865.38,-21.47 865.38,-23.27 865.38,-23.27 865.38,-52.73 865.38,-52.73"/>
<path fill="none" stroke="#334155" stroke-width="1.3" d="M865.38,-52.73C865.38,-50.92 848.17,-49.45 827,-49.45 805.83,-49.45 788.62,-50.92 788.62,-52.73"/>
<text xml:space="preserve" text-anchor="middle" x="827" y="-34.5" font-family="sans-Serif" font-size="10.00" fill="#0f172a">mistakes.json</text>
</g>
<!-- R3&#45;&gt;Fmis -->
<g id="edge13" class="edge">
<title>R3&#45;&gt;Fmis</title>
<path fill="none" stroke="#fb7185" stroke-width="1.3" stroke-dasharray="5,2" d="M1371.25,-321.5C1340.86,-304.75 1294.83,-278.11 1257.5,-251 1178.66,-193.75 1182.59,-143.11 1092,-107.25 1049.2,-90.31 927,-118.09 885,-99.25 868.43,-91.82 854.21,-77.27 844,-64.34"/>
<polygon fill="#fb7185" stroke="#fb7185" stroke-width="1.3" points="846.39,-62.86 839.35,-58.14 841.91,-66.22 846.39,-62.86"/>
<text xml:space="preserve" text-anchor="middle" x="1286.75" y="-180.45" font-family="sans-Serif" font-size="9.00" fill="#cbd5e1">reward_signal</text>
</g>
<!-- Frws -->
<g id="node21" class="node">
<title>Frws</title>
<path fill="#fcd34d" stroke="#334155" stroke-width="1.3" d="M1010.62,-52.73C1010.62,-54.53 987.04,-56 958,-56 928.96,-56 905.38,-54.53 905.38,-52.73 905.38,-52.73 905.38,-23.27 905.38,-23.27 905.38,-21.47 928.96,-20 958,-20 987.04,-20 1010.62,-21.47 1010.62,-23.27 1010.62,-23.27 1010.62,-52.73 1010.62,-52.73"/>
<path fill="none" stroke="#334155" stroke-width="1.3" d="M1010.62,-52.73C1010.62,-50.92 987.04,-49.45 958,-49.45 928.96,-49.45 905.38,-50.92 905.38,-52.73"/>
<text xml:space="preserve" text-anchor="middle" x="958" y="-34.5" font-family="sans-Serif" font-size="10.00" fill="#0f172a">reward_sentinel.json</text>
</g>
<!-- R3&#45;&gt;Frws -->
<g id="edge12" class="edge">
<title>R3&#45;&gt;Frws</title>
<path fill="none" stroke="#f59e0b" stroke-width="1.3" d="M1400.76,-321.59C1391.24,-276.1 1358.63,-153.94 1276,-107.25 1195.52,-61.78 1087.94,-46.55 1020.82,-41.49"/>
<polygon fill="#f59e0b" stroke="#f59e0b" stroke-width="1.3" points="1021.36,-38.72 1013.18,-40.95 1020.97,-44.3 1021.36,-38.72"/>
</g>
<!-- S1 -->
<g id="node8" class="node">
<title>S1</title>
<path fill="#6ee7b7" stroke="#334155" stroke-width="2" d="M775.88,-362C775.88,-362 672.12,-362 672.12,-362 666.12,-362 660.12,-356 660.12,-350 660.12,-350 660.12,-330 660.12,-330 660.12,-324 666.12,-318 672.12,-318 672.12,-318 775.88,-318 775.88,-318 781.88,-318 787.88,-324 787.88,-330 787.88,-330 787.88,-350 787.88,-350 787.88,-356 781.88,-362 775.88,-362"/>
<text xml:space="preserve" text-anchor="middle" x="724" y="-348.5" font-family="sans-Serif" font-size="10.00" fill="#0f172a">S1 &#160;practice</text>
<text xml:space="preserve" text-anchor="middle" x="724" y="-336.5" font-family="sans-Serif" font-size="10.00" fill="#0f172a">Mistakes.top → self&#45;play</text>
<text xml:space="preserve" text-anchor="middle" x="724" y="-324.5" font-family="sans-Serif" font-size="10.00" fill="#0f172a">auto&#45;resolve on judge≥0.7</text>
</g>
<!-- S1&#45;&gt;Fmis -->
<g id="edge14" class="edge">
<title>S1&#45;&gt;Fmis</title>
<path fill="none" stroke="#34d399" stroke-width="1.3" d="M740.11,-308.57C744.59,-299.51 749.25,-289.47 753,-280 783,-204.32 808.47,-111.38 820.16,-66.22"/>
<polygon fill="#34d399" stroke="#34d399" stroke-width="1.3" points="737.72,-307.08 736.61,-315.49 742.72,-309.61 737.72,-307.08"/>
<polygon fill="#34d399" stroke="#34d399" stroke-width="1.3" points="822.87,-66.92 822.14,-58.47 817.45,-65.53 822.87,-66.92"/>
<text xml:space="preserve" text-anchor="middle" x="822.38" y="-180.45" font-family="sans-Serif" font-size="9.00" fill="#cbd5e1">auto&#45;resolve</text>
</g>
<!-- Fcur -->
<g id="node19" class="node">
<title>Fcur</title>
<path fill="#fcd34d" stroke="#334155" stroke-width="1.3" d="M749,-52.73C749,-54.53 734.66,-56 717,-56 699.34,-56 685,-54.53 685,-52.73 685,-52.73 685,-23.27 685,-23.27 685,-21.47 699.34,-20 717,-20 734.66,-20 749,-21.47 749,-23.27 749,-23.27 749,-52.73 749,-52.73"/>
<path fill="none" stroke="#334155" stroke-width="1.3" d="M749,-52.73C749,-50.92 734.66,-49.45 717,-49.45 699.34,-49.45 685,-50.92 685,-52.73"/>
<text xml:space="preserve" text-anchor="middle" x="717" y="-34.5" font-family="sans-Serif" font-size="10.00" fill="#0f172a">curriculum/</text>
</g>
<!-- S1&#45;&gt;Fcur -->
<g id="edge15" class="edge">
<title>S1&#45;&gt;Fcur</title>
<path fill="none" stroke="#f59e0b" stroke-width="1.3" d="M723.5,-317.42C722.25,-263.94 719.01,-125.3 717.64,-66.27"/>
<polygon fill="#f59e0b" stroke="#f59e0b" stroke-width="1.3" points="720.44,-66.43 717.45,-58.5 714.84,-66.56 720.44,-66.43"/>
</g>
<!-- W1 -->
<g id="node13" class="node">
<title>W1</title>
<path fill="#fda4af" stroke="#334155" stroke-width="1.3" d="M332,-205.75C332,-205.75 226,-205.75 226,-205.75 220,-205.75 214,-199.75 214,-193.75 214,-193.75 214,-173.75 214,-173.75 214,-167.75 220,-161.75 226,-161.75 226,-161.75 332,-161.75 332,-161.75 338,-161.75 344,-167.75 344,-173.75 344,-173.75 344,-193.75 344,-193.75 344,-199.75 338,-205.75 332,-205.75"/>
<text xml:space="preserve" text-anchor="middle" x="279" y="-192.25" font-family="sans-Serif" font-size="10.00" fill="#0f172a">W1 &#160;preference ledger</text>
<text xml:space="preserve" text-anchor="middle" x="279" y="-180.25" font-family="sans-Serif" font-size="10.00" fill="#0f172a">(prompt, rejected, chosen)</text>
<text xml:space="preserve" text-anchor="middle" x="279" y="-168.25" font-family="sans-Serif" font-size="10.00" fill="#0f172a">5 free sources</text>
</g>
<!-- S2&#45;&gt;W1 -->
<g id="edge16" class="edge">
<title>S2&#45;&gt;W1</title>
<path fill="none" stroke="#fb7185" stroke-width="1.3" d="M266.58,-321.61C268.9,-296.01 273.28,-247.8 276.17,-215.98"/>
<polygon fill="#fb7185" stroke="#fb7185" stroke-width="1.3" points="278.93,-216.45 276.87,-208.23 273.36,-215.95 278.93,-216.45"/>
<text xml:space="preserve" text-anchor="middle" x="300.12" y="-266.2" font-family="sans-Serif" font-size="9.00" fill="#cbd5e1">(loser,winner)</text>
</g>
<!-- S3&#45;&gt;W1 -->
<g id="edge17" class="edge">
<title>S3&#45;&gt;W1</title>
<path fill="none" stroke="#fb7185" stroke-width="1.3" d="M131.72,-321.61C160.22,-295.12 214.77,-244.44 248.88,-212.74"/>
<polygon fill="#fb7185" stroke="#fb7185" stroke-width="1.3" points="250.44,-215.11 254.4,-207.61 246.63,-211.01 250.44,-215.11"/>
</g>
<!-- C3&#45;&gt;Fses -->
<g id="edge18" class="edge">
<title>C3&#45;&gt;Fses</title>
<path fill="none" stroke="#f59e0b" stroke-width="1.3" d="M568.09,-321.57C573.98,-272.53 590.74,-132.84 598.26,-70.13"/>
<polygon fill="#f59e0b" stroke="#f59e0b" stroke-width="1.3" points="601.02,-70.63 599.2,-62.36 595.46,-69.97 601.02,-70.63"/>
<text xml:space="preserve" text-anchor="middle" x="614.25" y="-180.45" font-family="sans-Serif" font-size="9.00" fill="#cbd5e1">success:true</text>
</g>
<!-- Fprf -->
<g id="node18" class="node">
<title>Fprf</title>
<path fill="#fcd34d" stroke="#334155" stroke-width="1.3" d="M519.12,-52.73C519.12,-54.53 498.9,-56 474,-56 449.1,-56 428.88,-54.53 428.88,-52.73 428.88,-52.73 428.88,-23.27 428.88,-23.27 428.88,-21.47 449.1,-20 474,-20 498.9,-20 519.12,-21.47 519.12,-23.27 519.12,-23.27 519.12,-52.73 519.12,-52.73"/>
<path fill="none" stroke="#334155" stroke-width="1.3" d="M519.12,-52.73C519.12,-50.92 498.9,-49.45 474,-49.45 449.1,-49.45 428.88,-50.92 428.88,-52.73"/>
<text xml:space="preserve" text-anchor="middle" x="474" y="-34.5" font-family="sans-Serif" font-size="10.00" fill="#0f172a">preferences.jsonl</text>
</g>
<!-- W1&#45;&gt;Fprf -->
<g id="edge19" class="edge">
<title>W1&#45;&gt;Fprf</title>
<path fill="none" stroke="#f59e0b" stroke-width="2" d="M330.59,-161.2C341.59,-156.69 353.16,-152.01 364,-147.75 399.34,-133.85 417.08,-144.53 444,-117.75 457.57,-104.25 465.1,-83.99 469.23,-67.39"/>
<polygon fill="#f59e0b" stroke="#f59e0b" stroke-width="2" points="471.96,-67.99 470.93,-59.58 466.49,-66.8 471.96,-67.99"/>
</g>
<!-- W2 -->
<g id="node14" class="node">
<title>W2</title>
<path fill="#fda4af" stroke="#334155" stroke-width="2" d="M161.88,-211.75C161.88,-211.75 28.12,-211.75 28.12,-211.75 22.12,-211.75 16.12,-205.75 16.12,-199.75 16.12,-199.75 16.12,-167.75 16.12,-167.75 16.12,-161.75 22.12,-155.75 28.12,-155.75 28.12,-155.75 161.88,-155.75 161.88,-155.75 167.88,-155.75 173.88,-161.75 173.88,-167.75 173.88,-167.75 173.88,-199.75 173.88,-199.75 173.88,-205.75 167.88,-211.75 161.88,-211.75"/>
<text xml:space="preserve" text-anchor="middle" x="95" y="-198.25" font-family="sans-Serif" font-size="10.00" fill="#0f172a">W2 &#160;train_and_gate</text>
<text xml:space="preserve" text-anchor="middle" x="95" y="-186.25" font-family="sans-Serif" font-size="10.00" fill="#0f172a">SFT+DPO → LoRA vN+1</text>
<text xml:space="preserve" text-anchor="middle" x="95" y="-174.25" font-family="sans-Serif" font-size="10.00" fill="#0f172a">replay Mistakes.top vN vs vN+1</text>
<text xml:space="preserve" text-anchor="middle" x="95" y="-162.25" font-family="sans-Serif" font-size="10.00" fill="#0f172a">promote iff resolved(N+1) &gt; (N)</text>
</g>
<!-- Fftn -->
<g id="node20" class="node">
<title>Fftn</title>
<path fill="#fcd34d" stroke="#334155" stroke-width="1.3" d="M389.25,-52.73C389.25,-54.53 371.21,-56 349,-56 326.79,-56 308.75,-54.53 308.75,-52.73 308.75,-52.73 308.75,-23.27 308.75,-23.27 308.75,-21.47 326.79,-20 349,-20 371.21,-20 389.25,-21.47 389.25,-23.27 389.25,-23.27 389.25,-52.73 389.25,-52.73"/>
<path fill="none" stroke="#334155" stroke-width="1.3" d="M389.25,-52.73C389.25,-50.92 371.21,-49.45 349,-49.45 326.79,-49.45 308.75,-50.92 308.75,-52.73"/>
<text xml:space="preserve" text-anchor="middle" x="349" y="-34.5" font-family="sans-Serif" font-size="10.00" fill="#0f172a">finetune/*.jsonl</text>
</g>
<!-- W2&#45;&gt;Fftn -->
<g id="edge22" class="edge">
<title>W2&#45;&gt;Fftn</title>
<path fill="none" stroke="#f59e0b" stroke-width="1.3" d="M133.5,-154.77C154.71,-139.88 181.77,-121.71 207,-107.25 237.94,-89.51 274.2,-72.14 302.33,-59.36"/>
<polygon fill="#f59e0b" stroke="#f59e0b" stroke-width="1.3" points="303.23,-62.02 309.37,-56.18 300.93,-56.92 303.23,-62.02"/>
</g>
<!-- Ollama -->
<g id="node22" class="node">
<title>Ollama</title>
<path fill="#7dd3fc" stroke="#334155" stroke-width="1.3" d="M144.25,-56C144.25,-56 45.75,-56 45.75,-56 39.75,-56 33.75,-50 33.75,-44 33.75,-44 33.75,-32 33.75,-32 33.75,-26 39.75,-20 45.75,-20 45.75,-20 144.25,-20 144.25,-20 150.25,-20 156.25,-26 156.25,-32 156.25,-32 156.25,-44 156.25,-44 156.25,-50 150.25,-56 144.25,-56"/>
<text xml:space="preserve" text-anchor="middle" x="95" y="-40.5" font-family="sans-Serif" font-size="10.00" fill="#0f172a">ollama create pwn&#45;vN+1</text>
<text xml:space="preserve" text-anchor="middle" x="95" y="-28.5" font-family="sans-Serif" font-size="10.00" fill="#0f172a">(local LoRA adapter)</text>
</g>
<!-- W2&#45;&gt;Ollama -->
<g id="edge23" class="edge">
<title>W2&#45;&gt;Ollama</title>
<path fill="none" stroke="#fb7185" stroke-width="2" d="M94.87,-154.92C94.82,-143.41 94.77,-129.94 94.75,-117.75 94.72,-100.97 94.77,-82.18 94.84,-67.17"/>
<polygon fill="#fb7185" stroke="#fb7185" stroke-width="2" points="97.64,-67.56 94.88,-59.54 92.04,-67.53 97.64,-67.56"/>
<text xml:space="preserve" text-anchor="middle" x="106.38" y="-109.2" font-family="sans-Serif" font-size="9.00" fill="#cbd5e1">LoRA</text>
</g>
<!-- W3 -->
<g id="node15" class="node">
<title>W3</title>
<path fill="#fda4af" stroke="#334155" stroke-width="1.3" d="M514.38,-201.75C514.38,-201.75 395.62,-201.75 395.62,-201.75 389.62,-201.75 383.62,-195.75 383.62,-189.75 383.62,-189.75 383.62,-177.75 383.62,-177.75 383.62,-171.75 389.62,-165.75 395.62,-165.75 395.62,-165.75 514.38,-165.75 514.38,-165.75 520.38,-165.75 526.38,-171.75 526.38,-177.75 526.38,-177.75 526.38,-189.75 526.38,-189.75 526.38,-195.75 520.38,-201.75 514.38,-201.75"/>
<text xml:space="preserve" text-anchor="middle" x="455" y="-186.25" font-family="sans-Serif" font-size="10.00" fill="#0f172a">W3 &#160;calibrate</text>
<text xml:space="preserve" text-anchor="middle" x="455" y="-174.25" font-family="sans-Serif" font-size="10.00" fill="#0f172a">p(success) vs actual → Brier</text>
</g>
<!-- W3&#45;&gt;Loop -->
<g id="edge25" class="edge">
<title>W3&#45;&gt;Loop</title>
<path fill="none" stroke="#fbbf24" stroke-width="1.3" stroke-dasharray="5,2" d="M477.07,-202.18C498.63,-218.11 533.06,-240.69 567,-251 679.23,-285.11 1540.41,-224.77 1621,-310 1648.86,-339.47 1647.26,-370.34 1621,-401.25 1588.05,-440.03 1558.55,-413.83 1508,-419.75 1232.77,-451.98 904.04,-469.02 756.06,-475.55"/>
<polygon fill="#fbbf24" stroke="#fbbf24" stroke-width="1.3" points="755.98,-472.75 748.11,-475.89 756.23,-478.34 755.98,-472.75"/>
<text xml:space="preserve" text-anchor="middle" x="1662.67" y="-336.7" font-family="sans-Serif" font-size="9.00" fill="#cbd5e1">calibration</text>
</g>
<!-- Fmis&#45;&gt;W2 -->
<g id="edge24" class="edge">
<title>Fmis&#45;&gt;W2</title>
<path fill="none" stroke="#fbbf24" stroke-width="1.3" stroke-dasharray="5,2" d="M815.48,-56.55C805.14,-70.7 788.6,-89.76 769,-99.25 653.59,-155.14 319.45,-121.18 194,-147.75 188.21,-148.98 182.29,-150.46 176.37,-152.1"/>
<polygon fill="#fbbf24" stroke="#fbbf24" stroke-width="1.3" points="175.87,-149.33 168.98,-154.27 177.45,-154.71 175.87,-149.33"/>
<text xml:space="preserve" text-anchor="middle" x="761.71" y="-109.2" font-family="sans-Serif" font-size="9.00" fill="#cbd5e1">eval set</text>
</g>
<!-- Fses&#45;&gt;W2 -->
<g id="edge21" class="edge">
<title>Fses&#45;&gt;W2</title>
<path fill="none" stroke="#f59e0b" stroke-width="1.3" d="M585.66,-60.39C574.14,-73.83 557.52,-90.27 539,-99.25 504.17,-116.14 231.6,-138.56 194,-147.75 188.91,-148.99 183.71,-150.4 178.5,-151.92"/>
<polygon fill="#f59e0b" stroke="#f59e0b" stroke-width="1.3" points="177.85,-149.19 171,-154.18 179.47,-154.55 177.85,-149.19"/>
<text xml:space="preserve" text-anchor="middle" x="537.83" y="-109.2" font-family="sans-Serif" font-size="9.00" fill="#cbd5e1">export_finetune</text>
</g>
<!-- Fprf&#45;&gt;W2 -->
<g id="edge20" class="edge">
<title>Fprf&#45;&gt;W2</title>
<path fill="none" stroke="#f59e0b" stroke-width="1.3" d="M460.95,-56.49C449.15,-70.81 430.37,-90.13 409,-99.25 381.26,-111.09 302.87,-100.39 273.5,-107.25 233.05,-116.7 190.09,-134.6 156.46,-150.6"/>
<polygon fill="#f59e0b" stroke="#f59e0b" stroke-width="1.3" points="155.44,-147.98 149.45,-153.98 157.87,-153.02 155.44,-147.98"/>
<text xml:space="preserve" text-anchor="middle" x="296.75" y="-109.2" font-family="sans-Serif" font-size="9.00" fill="#cbd5e1">export_dpo</text>
</g>
<!-- Ollama&#45;&gt;Loop -->
<g id="edge28" class="edge">
<title>Ollama&#45;&gt;Loop</title>
<path fill="none" stroke="#fb7185" stroke-width="2" stroke-dasharray="5,2" d="M139.3,-56.56C178.48,-71.13 237.56,-90.78 291,-99.25 345.44,-107.88 731.94,-104.74 787,-107.25 1026.98,-118.19 1092.95,-89.45 1326,-147.75 1499.4,-191.13 1596.38,-160.27 1694,-310 1716.15,-343.97 1720.02,-370.14 1694,-401.25 1664.16,-436.93 1637.17,-414.13 1591,-419.75 1284.13,-457.09 916.24,-471.74 756.97,-476.63"/>
<polygon fill="#fb7185" stroke="#fb7185" stroke-width="2" points="757.27,-473.82 749.36,-476.86 757.44,-479.42 757.27,-473.82"/>
<text xml:space="preserve" text-anchor="middle" x="1702.95" y="-271.45" font-family="sans-Serif" font-size="9.00" fill="#cbd5e1">promoted vN+1</text>
<text xml:space="preserve" text-anchor="middle" x="1702.95" y="-260.95" font-family="sans-Serif" font-size="9.00" fill="#cbd5e1">(next session)</text>
</g>
<!-- Cron -->
<g id="node23" class="node">
<title>Cron</title>
<path fill="#7dd3fc" stroke="#334155" stroke-width="1.3" d="M1451,-497.75C1451,-497.75 1321,-497.75 1321,-497.75 1315,-497.75 1309,-491.75 1309,-485.75 1309,-485.75 1309,-473.75 1309,-473.75 1309,-467.75 1315,-461.75 1321,-461.75 1321,-461.75 1451,-461.75 1451,-461.75 1457,-461.75 1463,-467.75 1463,-473.75 1463,-473.75 1463,-485.75 1463,-485.75 1463,-491.75 1457,-497.75 1451,-497.75"/>
<text xml:space="preserve" text-anchor="middle" x="1386" y="-482.62" font-family="sans-Serif" font-size="10.00" fill="#0f172a">⏱ &#160;PWN::Cron.install_defaults</text>
<text xml:space="preserve" text-anchor="middle" x="1386" y="-469.88" font-family="sans-Serif" font-size="10.00" fill="#0f172a">nightly practice · weekly train</text>
</g>
<!-- Cron&#45;&gt;S1 -->
<g id="edge26" class="edge">
<title>Cron&#45;&gt;S1</title>
<path fill="none" stroke="#38bdf8" stroke-width="1.3" d="M1446.82,-461.1C1480.11,-448.56 1510.76,-430.26 1490,-409.25 1476.72,-395.81 827.98,-407.04 810,-401.25 789.76,-394.73 770.1,-381.64 754.71,-369.32"/>
<polygon fill="#38bdf8" stroke="#38bdf8" stroke-width="1.3" points="756.52,-367.19 748.58,-364.25 752.95,-371.51 756.52,-367.19"/>
<text xml:space="preserve" text-anchor="middle" x="1511.42" y="-411.2" font-family="sans-Serif" font-size="9.00" fill="#cbd5e1">0 3 * * *</text>
</g>
<!-- Cron&#45;&gt;W2 -->
<g id="edge27" class="edge">
<title>Cron&#45;&gt;W2</title>
<path fill="none" stroke="#38bdf8" stroke-width="1.3" d="M1463.55,-465.39C1607.22,-437.67 1890.79,-367.34 1783,-259 1767.43,-243.36 215.1,-257.47 194,-251 172.39,-244.38 151.2,-231.34 134,-218.57"/>
<polygon fill="#38bdf8" stroke="#38bdf8" stroke-width="1.3" points="136,-216.58 127.95,-213.94 132.6,-221.03 136,-216.58"/>
<text xml:space="preserve" text-anchor="middle" x="1822.57" y="-336.7" font-family="sans-Serif" font-size="9.00" fill="#cbd5e1">0 4 * * 0</text>
</g>
</g>
</svg>
