<?xml version="1.0" encoding="UTF-8" standalone="no"?>
<!DOCTYPE svg PUBLIC "-//W3C//DTD SVG 1.1//EN"
 "http://www.w3.org/Graphics/SVG/1.1/DTD/svg11.dtd">
<!-- Generated by graphviz version 14.1.2 (0)
 -->
<!-- Title: PWN_Reinforcement_Learning Pages: 1 -->
<svg width="2205pt" height="787pt"
 viewBox="0.00 0.00 2205.00 787.00" xmlns="http://www.w3.org/2000/svg" xmlns:xlink="http://www.w3.org/1999/xlink">
<g id="graph0" class="graph" transform="scale(1 1) rotate(0) translate(43.2 744.08)">
<title>PWN_Reinforcement_Learning</title>
<polygon fill="#0f172a" stroke="none" points="-43.2,43.2 -43.2,-744.08 2162.06,-744.08 2162.06,43.2 -43.2,43.2"/>
<text xml:space="preserve" text-anchor="start" x="777.43" y="-678.88" font-family="Helvetica,sans-Serif" font-weight="bold" font-size="20.00" fill="#e2e8f0">PWN::AI::Agent &#45; Reward + Curriculum Reinforcement Loop</text>
<text xml:space="preserve" text-anchor="start" x="729.05" y="-667.42" font-family="Helvetica,sans-Serif" font-size="11.00" fill="#94a3b8">R1..R4 reward signal &#160;· &#160;C1..C4 credit assignment &#160;· &#160;M1..M4 memory &#160;· &#160;S1..S4 self&#45;play &#160;· &#160;W1..W3 weight loop &#160;· &#160;E1..E3 intro↔extro join</text>
<g id="clust2" class="cluster">
<title>cluster_reward</title>
<path fill="#2e1065" stroke="#6d28d9" stroke-width="2" d="M901,-372.5C901,-372.5 1719,-372.5 1719,-372.5 1725,-372.5 1731,-378.5 1731,-384.5 1731,-384.5 1731,-483 1731,-483 1731,-489 1725,-495 1719,-495 1719,-495 901,-495 901,-495 895,-495 889,-489 889,-483 889,-483 889,-384.5 889,-384.5 889,-378.5 895,-372.5 901,-372.5"/>
<text xml:space="preserve" text-anchor="middle" x="1310" y="-472" font-family="Helvetica,sans-Serif" font-size="20.00" fill="#ddd6fe">Tier 1 · Reward &#160;(PWN::AI::Agent::Reward)</text>
</g>
<g id="clust4" class="cluster">
<title>cluster_curr</title>
<path fill="#022c22" stroke="#047857" stroke-width="2" d="M21,-372.5C21,-372.5 853,-372.5 853,-372.5 859,-372.5 865,-378.5 865,-384.5 865,-384.5 865,-483 865,-483 865,-489 859,-495 853,-495 853,-495 21,-495 21,-495 15,-495 9,-489 9,-483 9,-483 9,-384.5 9,-384.5 9,-378.5 15,-372.5 21,-372.5"/>
<text xml:space="preserve" text-anchor="middle" x="437" y="-472" font-family="Helvetica,sans-Serif" font-size="20.00" fill="#a7f3d0">Tier 4 · Curriculum &#160;(PWN::AI::Agent::Curriculum)</text>
</g>
<g id="clust6" class="cluster">
<title>cluster_weight</title>
<path fill="#450a0a" stroke="#b91c1c" stroke-width="2" d="M20,-179C20,-179 508,-179 508,-179 514,-179 520,-185 520,-191 520,-191 520,-301.5 520,-301.5 520,-307.5 514,-313.5 508,-313.5 508,-313.5 20,-313.5 20,-313.5 14,-313.5 8,-307.5 8,-301.5 8,-301.5 8,-191 8,-191 8,-185 14,-179 20,-179"/>
<text xml:space="preserve" text-anchor="middle" x="264" y="-290.5" font-family="Helvetica,sans-Serif" font-size="20.00" fill="#fecaca">Tier 5 · Weight Loop</text>
</g>
<g id="clust8" class="cluster">
<title>cluster_files</title>
<path fill="#422006" stroke="#a16207" stroke-dasharray="5,2" d="M296,-8C296,-8 990,-8 990,-8 996,-8 1002,-14 1002,-20 1002,-20 1002,-118.5 1002,-118.5 1002,-124.5 996,-130.5 990,-130.5 990,-130.5 296,-130.5 296,-130.5 290,-130.5 284,-124.5 284,-118.5 284,-118.5 284,-20 284,-20 284,-14 290,-8 296,-8"/>
<text xml:space="preserve" text-anchor="middle" x="643" y="-107.5" font-family="Helvetica,sans-Serif" font-size="20.00" fill="#fde68a">~/.pwn/</text>
</g>
<!-- Req -->
<g id="node1" class="node">
<title>Req</title>
<path fill="#7dd3fc" stroke="#334155" stroke-width="1.3" d="M473.5,-591.88C473.5,-591.88 430.5,-591.88 430.5,-591.88 424.5,-591.88 418.5,-585.88 418.5,-579.88 418.5,-579.88 418.5,-567.88 418.5,-567.88 418.5,-561.88 424.5,-555.88 430.5,-555.88 430.5,-555.88 473.5,-555.88 473.5,-555.88 479.5,-555.88 485.5,-561.88 485.5,-567.88 485.5,-567.88 485.5,-579.88 485.5,-579.88 485.5,-585.88 479.5,-591.88 473.5,-591.88"/>
<text xml:space="preserve" text-anchor="middle" x="452" y="-570.75" font-family="Helvetica,sans-Serif" font-size="10.00" fill="#0f172a">👤 &#160;request</text>
</g>
<!-- Loop -->
<g id="node2" class="node">
<title>Loop</title>
<path fill="#7dd3fc" stroke="#334155" stroke-width="2" d="M689.38,-595.88C689.38,-595.88 576.62,-595.88 576.62,-595.88 570.62,-595.88 564.62,-589.88 564.62,-583.88 564.62,-583.88 564.62,-563.88 564.62,-563.88 564.62,-557.88 570.62,-551.88 576.62,-551.88 576.62,-551.88 689.38,-551.88 689.38,-551.88 695.38,-551.88 701.38,-557.88 701.38,-563.88 701.38,-563.88 701.38,-583.88 701.38,-583.88 701.38,-589.88 695.38,-595.88 689.38,-595.88"/>
<text xml:space="preserve" text-anchor="middle" x="633" y="-582.38" font-family="Helvetica,sans-Serif" font-size="10.00" fill="#0f172a">Loop.run</text>
<text xml:space="preserve" text-anchor="middle" x="633" y="-570.38" font-family="Helvetica,sans-Serif" font-size="10.00" fill="#0f172a">plan_first · Dispatch · guard</text>
<text xml:space="preserve" text-anchor="middle" x="633" y="-558.38" font-family="Helvetica,sans-Serif" font-size="10.00" fill="#0f172a">final answer</text>
</g>
<!-- Req&#45;&gt;Loop -->
<g id="edge1" class="edge">
<title>Req&#45;&gt;Loop</title>
<path fill="none" stroke="#38bdf8" stroke-width="2" d="M485.94,-573.88C508.24,-573.88 530.53,-573.88 552.83,-573.88"/>
<polygon fill="#38bdf8" stroke="#38bdf8" stroke-width="2" points="552.75,-576.68 560.75,-573.88 552.75,-571.08 552.75,-576.68"/>
</g>
<!-- R1 -->
<g id="node3" class="node">
<title>R1</title>
<path fill="#c4b5fd" stroke="#334155" stroke-width="2" d="M1335,-420.5C1335,-420.5 1235,-420.5 1235,-420.5 1229,-420.5 1223,-414.5 1223,-408.5 1223,-408.5 1223,-396.5 1223,-396.5 1223,-390.5 1229,-384.5 1235,-384.5 1235,-384.5 1335,-384.5 1335,-384.5 1341,-384.5 1347,-390.5 1347,-396.5 1347,-396.5 1347,-408.5 1347,-408.5 1347,-414.5 1341,-420.5 1335,-420.5"/>
<text xml:space="preserve" text-anchor="middle" x="1285" y="-405" font-family="Helvetica,sans-Serif" font-size="10.00" fill="#0f172a">R1 &#160;judge (ORM)</text>
<text xml:space="preserve" text-anchor="middle" x="1285" y="-393" font-family="Helvetica,sans-Serif" font-size="10.00" fill="#0f172a">score · verdict · rationale</text>
</g>
<!-- Loop&#45;&gt;R1 -->
<g id="edge3" class="edge">
<title>Loop&#45;&gt;R1</title>
<path fill="none" stroke="#a78bfa" stroke-width="2" d="M702.17,-555.45C782.65,-535.23 905.99,-504.46 916.75,-503 948.28,-498.73 1174.13,-508.38 1203,-495 1232.17,-481.48 1255.41,-452.17 1269.6,-430.35"/>
<polygon fill="#a78bfa" stroke="#a78bfa" stroke-width="2" points="1271.83,-432.06 1273.69,-423.79 1267.08,-429.1 1271.83,-432.06"/>
<text xml:space="preserve" text-anchor="middle" x="925.38" y="-504.95" font-family="Helvetica,sans-Serif" font-size="9.00" fill="#cbd5e1">final</text>
</g>
<!-- R2 -->
<g id="node4" class="node">
<title>R2</title>
<path fill="#c4b5fd" stroke="#334155" stroke-width="1.3" d="M1711,-424.5C1711,-424.5 1623,-424.5 1623,-424.5 1617,-424.5 1611,-418.5 1611,-412.5 1611,-412.5 1611,-392.5 1611,-392.5 1611,-386.5 1617,-380.5 1623,-380.5 1623,-380.5 1711,-380.5 1711,-380.5 1717,-380.5 1723,-386.5 1723,-392.5 1723,-392.5 1723,-412.5 1723,-412.5 1723,-418.5 1717,-424.5 1711,-424.5"/>
<text xml:space="preserve" text-anchor="middle" x="1667" y="-411" font-family="Helvetica,sans-Serif" font-size="10.00" fill="#0f172a">R2 &#160;prm (PRM)</text>
<text xml:space="preserve" text-anchor="middle" x="1667" y="-399" font-family="Helvetica,sans-Serif" font-size="10.00" fill="#0f172a">per&#45;step +1/0/−1</text>
<text xml:space="preserve" text-anchor="middle" x="1667" y="-387" font-family="Helvetica,sans-Serif" font-size="10.00" fill="#0f172a">→ Registry.rank (P18)</text>
</g>
<!-- Loop&#45;&gt;R2 -->
<g id="edge4" class="edge">
<title>Loop&#45;&gt;R2</title>
<path fill="none" stroke="#a78bfa" stroke-width="1.3" d="M702.1,-560.56C764.45,-549.19 858.62,-531.41 940,-513.5 959,-509.32 963.2,-505.48 982.5,-503 1016.03,-498.7 1560.49,-509.57 1591,-495 1617.86,-482.18 1638.57,-454.79 1651.54,-433.3"/>
<polygon fill="#a78bfa" stroke="#a78bfa" stroke-width="1.3" points="1653.88,-434.83 1655.46,-426.51 1649.03,-432.03 1653.88,-434.83"/>
<text xml:space="preserve" text-anchor="middle" x="998.25" y="-504.95" font-family="Helvetica,sans-Serif" font-size="9.00" fill="#cbd5e1">session</text>
</g>
<!-- R3 -->
<g id="node5" class="node">
<title>R3</title>
<path fill="#c4b5fd" stroke="#334155" stroke-width="1.3" d="M1031.25,-424.5C1031.25,-424.5 908.75,-424.5 908.75,-424.5 902.75,-424.5 896.75,-418.5 896.75,-412.5 896.75,-412.5 896.75,-392.5 896.75,-392.5 896.75,-386.5 902.75,-380.5 908.75,-380.5 908.75,-380.5 1031.25,-380.5 1031.25,-380.5 1037.25,-380.5 1043.25,-386.5 1043.25,-392.5 1043.25,-392.5 1043.25,-412.5 1043.25,-412.5 1043.25,-418.5 1037.25,-424.5 1031.25,-424.5"/>
<text xml:space="preserve" text-anchor="middle" x="970" y="-411" font-family="Helvetica,sans-Serif" font-size="10.00" fill="#0f172a">R3 &#160;sentinel (ring N=40)</text>
<text xml:space="preserve" text-anchor="middle" x="970" y="-399" font-family="Helvetica,sans-Serif" font-size="10.00" fill="#0f172a">proxy ≠ judge ≠ (1−corr)</text>
<text xml:space="preserve" text-anchor="middle" x="970" y="-387" font-family="Helvetica,sans-Serif" font-size="10.00" fill="#0f172a">warm full (P10/P16) + distrust</text>
</g>
<!-- Loop&#45;&gt;R3 -->
<g id="edge5" class="edge">
<title>Loop&#45;&gt;R3</title>
<path fill="none" stroke="#a78bfa" stroke-width="1.3" d="M666.63,-550.93C693.46,-534.64 732.6,-513.51 770,-503 815.06,-490.34 832.29,-514.14 875,-495 905.2,-481.46 931.58,-454.05 948.83,-432.74"/>
<polygon fill="#a78bfa" stroke="#a78bfa" stroke-width="1.3" points="951.02,-434.48 953.77,-426.46 946.62,-431.02 951.02,-434.48"/>
</g>
<!-- R4 -->
<g id="node6" class="node">
<title>R4</title>
<path fill="#c4b5fd" stroke="#334155" stroke-width="1.3" d="M1170.62,-420.5C1170.62,-420.5 1095.38,-420.5 1095.38,-420.5 1089.38,-420.5 1083.38,-414.5 1083.38,-408.5 1083.38,-408.5 1083.38,-396.5 1083.38,-396.5 1083.38,-390.5 1089.38,-384.5 1095.38,-384.5 1095.38,-384.5 1170.62,-384.5 1170.62,-384.5 1176.62,-384.5 1182.62,-390.5 1182.62,-396.5 1182.62,-396.5 1182.62,-408.5 1182.62,-408.5 1182.62,-414.5 1176.62,-420.5 1170.62,-420.5"/>
<text xml:space="preserve" text-anchor="middle" x="1133" y="-405" font-family="Helvetica,sans-Serif" font-size="10.00" fill="#0f172a">R4 &#160;semantic_ok</text>
<text xml:space="preserve" text-anchor="middle" x="1133" y="-393" font-family="Helvetica,sans-Serif" font-size="10.00" fill="#0f172a">grep exit 1 ≠ failure</text>
</g>
<!-- Loop&#45;&gt;R4 -->
<g id="edge2" class="edge">
<title>Loop&#45;&gt;R4</title>
<path fill="none" stroke="#a78bfa" stroke-width="1.3" d="M681.37,-550.9C720.34,-534.36 777.01,-512.91 829,-503 854.56,-498.13 1039.88,-506.92 1063,-495 1089.91,-481.13 1109.47,-451.67 1120.97,-429.91"/>
<polygon fill="#a78bfa" stroke="#a78bfa" stroke-width="1.3" points="1123.41,-431.28 1124.51,-422.88 1118.41,-428.76 1123.41,-431.28"/>
<text xml:space="preserve" text-anchor="middle" x="847" y="-504.95" font-family="Helvetica,sans-Serif" font-size="9.00" fill="#cbd5e1">Dispatch</text>
</g>
<!-- S2 -->
<g id="node9" class="node">
<title>S2</title>
<path fill="#6ee7b7" stroke="#334155" stroke-width="1.3" d="M134.62,-420.5C134.62,-420.5 29.38,-420.5 29.38,-420.5 23.38,-420.5 17.38,-414.5 17.38,-408.5 17.38,-408.5 17.38,-396.5 17.38,-396.5 17.38,-390.5 23.38,-384.5 29.38,-384.5 29.38,-384.5 134.62,-384.5 134.62,-384.5 140.62,-384.5 146.62,-390.5 146.62,-396.5 146.62,-396.5 146.62,-408.5 146.62,-408.5 146.62,-414.5 140.62,-420.5 134.62,-420.5"/>
<text xml:space="preserve" text-anchor="middle" x="82" y="-405" font-family="Helvetica,sans-Serif" font-size="10.00" fill="#0f172a">S2 &#160;counterfactual</text>
<text xml:space="preserve" text-anchor="middle" x="82" y="-393" font-family="Helvetica,sans-Serif" font-size="10.00" fill="#0f172a">real_dispatch vs imagined</text>
</g>
<!-- Loop&#45;&gt;S2 -->
<g id="edge9" class="edge">
<title>Loop&#45;&gt;S2</title>
<path fill="none" stroke="#fb7185" stroke-width="1.3" d="M563.8,-561.21C545.04,-558.05 524.74,-554.64 506,-551.5 355.35,-526.27 301.51,-567.38 167,-495 138.01,-479.4 113.5,-450.11 98.36,-428.87"/>
<polygon fill="#fb7185" stroke="#fb7185" stroke-width="1.3" points="100.81,-427.49 93.96,-422.5 96.21,-430.67 100.81,-427.49"/>
<text xml:space="preserve" text-anchor="middle" x="233.23" y="-504.95" font-family="Helvetica,sans-Serif" font-size="9.00" fill="#cbd5e1">[REPEATING]</text>
</g>
<!-- S3 -->
<g id="node10" class="node">
<title>S3</title>
<path fill="#6ee7b7" stroke="#334155" stroke-width="1.3" d="M338.88,-420.5C338.88,-420.5 199.12,-420.5 199.12,-420.5 193.12,-420.5 187.12,-414.5 187.12,-408.5 187.12,-408.5 187.12,-396.5 187.12,-396.5 187.12,-390.5 193.12,-384.5 199.12,-384.5 199.12,-384.5 338.88,-384.5 338.88,-384.5 344.88,-384.5 350.88,-390.5 350.88,-396.5 350.88,-396.5 350.88,-408.5 350.88,-408.5 350.88,-414.5 344.88,-420.5 338.88,-420.5"/>
<text xml:space="preserve" text-anchor="middle" x="269" y="-405" font-family="Helvetica,sans-Serif" font-size="10.00" fill="#0f172a">S3 &#160;critic</text>
<text xml:space="preserve" text-anchor="middle" x="269" y="-393" font-family="Helvetica,sans-Serif" font-size="10.00" fill="#0f172a">tool&#45;armed · revised_answer DPO</text>
</g>
<!-- Loop&#45;&gt;S3 -->
<g id="edge8" class="edge">
<title>Loop&#45;&gt;S3</title>
<path fill="none" stroke="#34d399" stroke-width="1.3" d="M563.78,-561.01C508.97,-549.61 431.77,-529 371,-495 339.57,-477.41 309.64,-448.62 290.43,-428.03"/>
<polygon fill="#34d399" stroke="#34d399" stroke-width="1.3" points="292.65,-426.31 285.18,-422.31 288.52,-430.1 292.65,-426.31"/>
<text xml:space="preserve" text-anchor="middle" x="412.72" y="-504.95" font-family="Helvetica,sans-Serif" font-size="9.00" fill="#cbd5e1">final</text>
</g>
<!-- S4 -->
<g id="node11" class="node">
<title>S4</title>
<path fill="#6ee7b7" stroke="#334155" stroke-width="1.3" d="M494.88,-420.5C494.88,-420.5 403.12,-420.5 403.12,-420.5 397.12,-420.5 391.12,-414.5 391.12,-408.5 391.12,-408.5 391.12,-396.5 391.12,-396.5 391.12,-390.5 397.12,-384.5 403.12,-384.5 403.12,-384.5 494.88,-384.5 494.88,-384.5 500.88,-384.5 506.88,-390.5 506.88,-396.5 506.88,-396.5 506.88,-408.5 506.88,-408.5 506.88,-414.5 500.88,-420.5 494.88,-420.5"/>
<text xml:space="preserve" text-anchor="middle" x="449" y="-405" font-family="Helvetica,sans-Serif" font-size="10.00" fill="#0f172a">S4 &#160;red_team_plan</text>
<text xml:space="preserve" text-anchor="middle" x="449" y="-393" font-family="Helvetica,sans-Serif" font-size="10.00" fill="#0f172a">adversarial plan review</text>
</g>
<!-- Loop&#45;&gt;S4 -->
<g id="edge7" class="edge">
<title>Loop&#45;&gt;S4</title>
<path fill="none" stroke="#34d399" stroke-width="1.3" d="M599.47,-551.2C577.82,-536.5 549.57,-516 527,-495 504.93,-474.47 482.95,-448 467.97,-428.81"/>
<polygon fill="#34d399" stroke="#34d399" stroke-width="1.3" points="470.31,-427.25 463.2,-422.63 465.87,-430.68 470.31,-427.25"/>
<text xml:space="preserve" text-anchor="middle" x="564.7" y="-504.95" font-family="Helvetica,sans-Serif" font-size="9.00" fill="#cbd5e1">plan_first</text>
</g>
<!-- C3 -->
<g id="node12" class="node">
<title>C3</title>
<path fill="#6ee7b7" stroke="#334155" stroke-width="1.3" d="M642.75,-420.5C642.75,-420.5 559.25,-420.5 559.25,-420.5 553.25,-420.5 547.25,-414.5 547.25,-408.5 547.25,-408.5 547.25,-396.5 547.25,-396.5 547.25,-390.5 553.25,-384.5 559.25,-384.5 559.25,-384.5 642.75,-384.5 642.75,-384.5 648.75,-384.5 654.75,-390.5 654.75,-396.5 654.75,-396.5 654.75,-408.5 654.75,-408.5 654.75,-414.5 648.75,-420.5 642.75,-420.5"/>
<text xml:space="preserve" text-anchor="middle" x="601" y="-405" font-family="Helvetica,sans-Serif" font-size="10.00" fill="#0f172a">C3 &#160;hindsight (HER)</text>
<text xml:space="preserve" text-anchor="middle" x="601" y="-393" font-family="Helvetica,sans-Serif" font-size="10.00" fill="#0f172a">relabel achieved&#45;goal</text>
</g>
<!-- Loop&#45;&gt;C3 -->
<g id="edge10" class="edge">
<title>Loop&#45;&gt;C3</title>
<path fill="none" stroke="#fb7185" stroke-width="1.3" d="M628.88,-551.08C623.07,-520.31 612.46,-464.17 606.14,-430.7"/>
<polygon fill="#fb7185" stroke="#fb7185" stroke-width="1.3" points="608.93,-430.37 604.69,-423.03 603.42,-431.41 608.93,-430.37"/>
<text xml:space="preserve" text-anchor="middle" x="643.11" y="-504.95" font-family="Helvetica,sans-Serif" font-size="9.00" fill="#cbd5e1">failed goal</text>
</g>
<!-- E3 -->
<g id="node7" class="node">
<title>E3</title>
<path fill="#c4b5fd" stroke="#334155" stroke-width="1.3" d="M1559.12,-420.5C1559.12,-420.5 1438.88,-420.5 1438.88,-420.5 1432.88,-420.5 1426.88,-414.5 1426.88,-408.5 1426.88,-408.5 1426.88,-396.5 1426.88,-396.5 1426.88,-390.5 1432.88,-384.5 1438.88,-384.5 1438.88,-384.5 1559.12,-384.5 1559.12,-384.5 1565.12,-384.5 1571.12,-390.5 1571.12,-396.5 1571.12,-396.5 1571.12,-408.5 1571.12,-408.5 1571.12,-414.5 1565.12,-420.5 1559.12,-420.5"/>
<text xml:space="preserve" text-anchor="middle" x="1499" y="-405" font-family="Helvetica,sans-Serif" font-size="10.00" fill="#0f172a">E3 &#160;verify_as_reward</text>
<text xml:space="preserve" text-anchor="middle" x="1499" y="-393" font-family="Helvetica,sans-Serif" font-size="10.00" fill="#0f172a">extro_verify caps/floors judge</text>
</g>
<!-- R1&#45;&gt;E3 -->
<g id="edge6" class="edge">
<title>R1&#45;&gt;E3</title>
<path fill="none" stroke="#fbbf24" stroke-width="1.3" stroke-dasharray="5,2" d="M1347.76,-402.5C1369.34,-402.5 1393.84,-402.5 1416.74,-402.5"/>
<polygon fill="#fbbf24" stroke="#fbbf24" stroke-width="1.3" points="1416.47,-405.3 1424.47,-402.5 1416.47,-399.7 1416.47,-405.3"/>
<text xml:space="preserve" text-anchor="middle" x="1386.94" y="-407.45" font-family="Helvetica,sans-Serif" font-size="9.00" fill="#cbd5e1">ground</text>
</g>
<!-- Fses -->
<g id="node17" class="node">
<title>Fses</title>
<path fill="#fcd34d" stroke="#334155" stroke-width="1.3" d="M627.5,-56C627.5,-58.21 608.45,-60 585,-60 561.55,-60 542.5,-58.21 542.5,-56 542.5,-56 542.5,-20 542.5,-20 542.5,-17.79 561.55,-16 585,-16 608.45,-16 627.5,-17.79 627.5,-20 627.5,-20 627.5,-56 627.5,-56"/>
<path fill="none" stroke="#334155" stroke-width="1.3" d="M627.5,-56C627.5,-53.79 608.45,-52 585,-52 561.55,-52 542.5,-53.79 542.5,-56"/>
<text xml:space="preserve" text-anchor="middle" x="585" y="-40.5" font-family="Helvetica,sans-Serif" font-size="10.00" fill="#0f172a">sessions/*.jsonl</text>
<text xml:space="preserve" text-anchor="middle" x="585" y="-28.5" font-family="Helvetica,sans-Serif" font-size="10.00" fill="#0f172a">(step_reward)</text>
</g>
<!-- R2&#45;&gt;Fses -->
<g id="edge11" class="edge">
<title>R2&#45;&gt;Fses</title>
<path fill="none" stroke="#f59e0b" stroke-width="1.3" d="M1611.5,-379.96C1604.61,-377.4 1597.66,-374.86 1591,-372.5 1234.13,-246.18 1147.82,-184 772,-138.5 744.59,-135.18 672.02,-144.13 648,-130.5 624.18,-116.99 607.4,-90.31 597.18,-69.24"/>
<polygon fill="#f59e0b" stroke="#f59e0b" stroke-width="1.3" points="599.79,-68.2 593.9,-62.1 594.7,-70.54 599.79,-68.2"/>
<text xml:space="preserve" text-anchor="middle" x="1448.68" y="-211.7" font-family="Helvetica,sans-Serif" font-size="9.00" fill="#cbd5e1">step_reward</text>
</g>
<!-- Fmis -->
<g id="node16" class="node">
<title>Fmis</title>
<path fill="#fcd34d" stroke="#334155" stroke-width="1.3" d="M848.38,-52.73C848.38,-54.53 831.17,-56 810,-56 788.83,-56 771.62,-54.53 771.62,-52.73 771.62,-52.73 771.62,-23.27 771.62,-23.27 771.62,-21.47 788.83,-20 810,-20 831.17,-20 848.38,-21.47 848.38,-23.27 848.38,-23.27 848.38,-52.73 848.38,-52.73"/>
<path fill="none" stroke="#334155" stroke-width="1.3" d="M848.38,-52.73C848.38,-50.92 831.17,-49.45 810,-49.45 788.83,-49.45 771.62,-50.92 771.62,-52.73"/>
<text xml:space="preserve" text-anchor="middle" x="810" y="-34.5" font-family="Helvetica,sans-Serif" font-size="10.00" fill="#0f172a">mistakes.json</text>
</g>
<!-- R3&#45;&gt;Fmis -->
<g id="edge13" class="edge">
<title>R3&#45;&gt;Fmis</title>
<path fill="none" stroke="#fb7185" stroke-width="1.3" stroke-dasharray="5,2" d="M960.47,-379.91C932.71,-317.02 851.98,-134.11 821.67,-65.45"/>
<polygon fill="#fb7185" stroke="#fb7185" stroke-width="1.3" points="824.33,-64.53 818.54,-58.35 819.21,-66.79 824.33,-64.53"/>
<text xml:space="preserve" text-anchor="middle" x="960.12" y="-211.7" font-family="Helvetica,sans-Serif" font-size="9.00" fill="#cbd5e1">reward_signal</text>
</g>
<!-- Frws -->
<g id="node21" class="node">
<title>Frws</title>
<path fill="#fcd34d" stroke="#334155" stroke-width="1.3" d="M993.62,-52.73C993.62,-54.53 970.04,-56 941,-56 911.96,-56 888.38,-54.53 888.38,-52.73 888.38,-52.73 888.38,-23.27 888.38,-23.27 888.38,-21.47 911.96,-20 941,-20 970.04,-20 993.62,-21.47 993.62,-23.27 993.62,-23.27 993.62,-52.73 993.62,-52.73"/>
<path fill="none" stroke="#334155" stroke-width="1.3" d="M993.62,-52.73C993.62,-50.92 970.04,-49.45 941,-49.45 911.96,-49.45 888.38,-50.92 888.38,-52.73"/>
<text xml:space="preserve" text-anchor="middle" x="941" y="-34.5" font-family="Helvetica,sans-Serif" font-size="10.00" fill="#0f172a">reward_sentinel.json</text>
</g>
<!-- R3&#45;&gt;Frws -->
<g id="edge12" class="edge">
<title>R3&#45;&gt;Frws</title>
<path fill="none" stroke="#f59e0b" stroke-width="1.3" d="M987.28,-379.86C999.65,-362.91 1015.26,-338.15 1022,-313.5 1037.76,-255.84 1032.55,-237.84 1022,-179 1014.01,-134.41 983.93,-90.43 962.77,-63.99"/>
<polygon fill="#f59e0b" stroke="#f59e0b" stroke-width="1.3" points="965,-62.3 957.77,-57.89 960.67,-65.85 965,-62.3"/>
</g>
<!-- S1 -->
<g id="node8" class="node">
<title>S1</title>
<path fill="#6ee7b7" stroke="#334155" stroke-width="2" d="M844.75,-424.5C844.75,-424.5 707.25,-424.5 707.25,-424.5 701.25,-424.5 695.25,-418.5 695.25,-412.5 695.25,-412.5 695.25,-392.5 695.25,-392.5 695.25,-386.5 701.25,-380.5 707.25,-380.5 707.25,-380.5 844.75,-380.5 844.75,-380.5 850.75,-380.5 856.75,-386.5 856.75,-392.5 856.75,-392.5 856.75,-412.5 856.75,-412.5 856.75,-418.5 850.75,-424.5 844.75,-424.5"/>
<text xml:space="preserve" text-anchor="middle" x="776" y="-411" font-family="Helvetica,sans-Serif" font-size="10.00" fill="#0f172a">S1 &#160;practice (P14/P17)</text>
<text xml:space="preserve" text-anchor="middle" x="776" y="-399" font-family="Helvetica,sans-Serif" font-size="10.00" fill="#0f172a">budget&#45;first + winning_trace DPO</text>
<text xml:space="preserve" text-anchor="middle" x="776" y="-387" font-family="Helvetica,sans-Serif" font-size="10.00" fill="#0f172a">auto&#45;resolve on judge≥0.7</text>
</g>
<!-- S1&#45;&gt;Fmis -->
<g id="edge14" class="edge">
<title>S1&#45;&gt;Fmis</title>
<path fill="none" stroke="#34d399" stroke-width="1.3" d="M778.96,-369.96C785.54,-299.84 801.28,-132.01 807.45,-66.17"/>
<polygon fill="#34d399" stroke="#34d399" stroke-width="1.3" points="776.19,-369.45 778.23,-377.68 781.77,-369.98 776.19,-369.45"/>
<polygon fill="#34d399" stroke="#34d399" stroke-width="1.3" points="810.21,-66.69 808.17,-58.47 804.64,-66.17 810.21,-66.69"/>
<text xml:space="preserve" text-anchor="middle" x="821.88" y="-211.7" font-family="Helvetica,sans-Serif" font-size="9.00" fill="#cbd5e1">auto&#45;resolve</text>
</g>
<!-- Fcur -->
<g id="node19" class="node">
<title>Fcur</title>
<path fill="#fcd34d" stroke="#334155" stroke-width="1.3" d="M732,-52.73C732,-54.53 717.66,-56 700,-56 682.34,-56 668,-54.53 668,-52.73 668,-52.73 668,-23.27 668,-23.27 668,-21.47 682.34,-20 700,-20 717.66,-20 732,-21.47 732,-23.27 732,-23.27 732,-52.73 732,-52.73"/>
<path fill="none" stroke="#334155" stroke-width="1.3" d="M732,-52.73C732,-50.92 717.66,-49.45 700,-49.45 682.34,-49.45 668,-50.92 668,-52.73"/>
<text xml:space="preserve" text-anchor="middle" x="700" y="-34.5" font-family="Helvetica,sans-Serif" font-size="10.00" fill="#0f172a">curriculum/</text>
</g>
<!-- S1&#45;&gt;Fcur -->
<g id="edge15" class="edge">
<title>S1&#45;&gt;Fcur</title>
<path fill="none" stroke="#f59e0b" stroke-width="1.3" d="M771.42,-379.64C758.23,-316.74 720.21,-135.4 705.71,-66.24"/>
<polygon fill="#f59e0b" stroke="#f59e0b" stroke-width="1.3" points="708.46,-65.69 704.07,-58.43 702.98,-66.84 708.46,-65.69"/>
</g>
<!-- W1 -->
<g id="node13" class="node">
<title>W1</title>
<path fill="#fda4af" stroke="#334155" stroke-width="1.3" d="M317.88,-243C317.88,-243 220.12,-243 220.12,-243 214.12,-243 208.12,-237 208.12,-231 208.12,-231 208.12,-199 208.12,-199 208.12,-193 214.12,-187 220.12,-187 220.12,-187 317.88,-187 317.88,-187 323.88,-187 329.88,-193 329.88,-199 329.88,-199 329.88,-231 329.88,-231 329.88,-237 323.88,-243 317.88,-243"/>
<text xml:space="preserve" text-anchor="middle" x="269" y="-229.5" font-family="Helvetica,sans-Serif" font-size="10.00" fill="#0f172a">W1 &#160;preference ledger</text>
<text xml:space="preserve" text-anchor="middle" x="269" y="-217.5" font-family="Helvetica,sans-Serif" font-size="10.00" fill="#0f172a">trajectory pairs (P9/P14)</text>
<text xml:space="preserve" text-anchor="middle" x="269" y="-205.5" font-family="Helvetica,sans-Serif" font-size="10.00" fill="#0f172a">scrub+geometry (P15)</text>
<text xml:space="preserve" text-anchor="middle" x="269" y="-193.5" font-family="Helvetica,sans-Serif" font-size="10.00" fill="#0f172a">write+export ≤40%/src</text>
</g>
<!-- S2&#45;&gt;W1 -->
<g id="edge16" class="edge">
<title>S2&#45;&gt;W1</title>
<path fill="none" stroke="#fb7185" stroke-width="1.3" d="M105.38,-384.11C127.59,-367.13 161.44,-340.05 188,-313.5 207.42,-294.08 227.16,-270.42 242.29,-251.28"/>
<polygon fill="#fb7185" stroke="#fb7185" stroke-width="1.3" points="244.33,-253.22 247.05,-245.19 239.92,-249.76 244.33,-253.22"/>
<text xml:space="preserve" text-anchor="middle" x="205.4" y="-328.7" font-family="Helvetica,sans-Serif" font-size="9.00" fill="#cbd5e1">(loser,winner)</text>
</g>
<!-- S3&#45;&gt;W1 -->
<g id="edge17" class="edge">
<title>S3&#45;&gt;W1</title>
<path fill="none" stroke="#fb7185" stroke-width="1.3" d="M269,-384.05C269,-354.26 269,-292.98 269,-253.23"/>
<polygon fill="#fb7185" stroke="#fb7185" stroke-width="1.3" points="271.8,-253.34 269,-245.34 266.2,-253.34 271.8,-253.34"/>
</g>
<!-- C3&#45;&gt;Fses -->
<g id="edge18" class="edge">
<title>C3&#45;&gt;Fses</title>
<path fill="none" stroke="#f59e0b" stroke-width="1.3" d="M600.23,-384.02C597.69,-326.61 589.61,-143.38 586.36,-69.91"/>
<polygon fill="#f59e0b" stroke="#f59e0b" stroke-width="1.3" points="589.18,-70.13 586.03,-62.26 583.58,-70.37 589.18,-70.13"/>
<text xml:space="preserve" text-anchor="middle" x="622.59" y="-211.7" font-family="Helvetica,sans-Serif" font-size="9.00" fill="#cbd5e1">success:true</text>
</g>
<!-- Fprf -->
<g id="node18" class="node">
<title>Fprf</title>
<path fill="#fcd34d" stroke="#334155" stroke-width="1.3" d="M502.12,-52.73C502.12,-54.53 481.9,-56 457,-56 432.1,-56 411.88,-54.53 411.88,-52.73 411.88,-52.73 411.88,-23.27 411.88,-23.27 411.88,-21.47 432.1,-20 457,-20 481.9,-20 502.12,-21.47 502.12,-23.27 502.12,-23.27 502.12,-52.73 502.12,-52.73"/>
<path fill="none" stroke="#334155" stroke-width="1.3" d="M502.12,-52.73C502.12,-50.92 481.9,-49.45 457,-49.45 432.1,-49.45 411.88,-50.92 411.88,-52.73"/>
<text xml:space="preserve" text-anchor="middle" x="457" y="-34.5" font-family="Helvetica,sans-Serif" font-size="10.00" fill="#0f172a">preferences.jsonl</text>
</g>
<!-- W1&#45;&gt;Fprf -->
<g id="edge19" class="edge">
<title>W1&#45;&gt;Fprf</title>
<path fill="none" stroke="#f59e0b" stroke-width="2" d="M330.34,-187.12C336.96,-184.33 343.61,-181.58 350,-179 385.22,-164.8 404.78,-177.39 430,-149 449.96,-126.54 455.71,-91.7 457.1,-67.26"/>
<polygon fill="#f59e0b" stroke="#f59e0b" stroke-width="2" points="459.89,-67.64 457.37,-59.55 454.3,-67.45 459.89,-67.64"/>
</g>
<!-- W2 -->
<g id="node14" class="node">
<title>W2</title>
<path fill="#fda4af" stroke="#334155" stroke-width="2" d="M156.25,-243C156.25,-243 27.75,-243 27.75,-243 21.75,-243 15.75,-237 15.75,-231 15.75,-231 15.75,-199 15.75,-199 15.75,-193 21.75,-187 27.75,-187 27.75,-187 156.25,-187 156.25,-187 162.25,-187 168.25,-193 168.25,-199 168.25,-199 168.25,-231 168.25,-231 168.25,-237 162.25,-243 156.25,-243"/>
<text xml:space="preserve" text-anchor="middle" x="92" y="-229.5" font-family="Helvetica,sans-Serif" font-size="10.00" fill="#0f172a">W2 &#160;train_and_gate</text>
<text xml:space="preserve" text-anchor="middle" x="92" y="-217.5" font-family="Helvetica,sans-Serif" font-size="10.00" fill="#0f172a">SFT(P12)+DPO → LoRA vN+1</text>
<text xml:space="preserve" text-anchor="middle" x="92" y="-205.5" font-family="Helvetica,sans-Serif" font-size="10.00" fill="#0f172a">gate v2 + diet (P11/P19)</text>
<text xml:space="preserve" text-anchor="middle" x="92" y="-193.5" font-family="Helvetica,sans-Serif" font-size="10.00" fill="#0f172a">export_ready without trainer</text>
</g>
<!-- Fftn -->
<g id="node20" class="node">
<title>Fftn</title>
<path fill="#fcd34d" stroke="#334155" stroke-width="1.3" d="M372.25,-52.73C372.25,-54.53 354.21,-56 332,-56 309.79,-56 291.75,-54.53 291.75,-52.73 291.75,-52.73 291.75,-23.27 291.75,-23.27 291.75,-21.47 309.79,-20 332,-20 354.21,-20 372.25,-21.47 372.25,-23.27 372.25,-23.27 372.25,-52.73 372.25,-52.73"/>
<path fill="none" stroke="#334155" stroke-width="1.3" d="M372.25,-52.73C372.25,-50.92 354.21,-49.45 332,-49.45 309.79,-49.45 291.75,-50.92 291.75,-52.73"/>
<text xml:space="preserve" text-anchor="middle" x="332" y="-34.5" font-family="Helvetica,sans-Serif" font-size="10.00" fill="#0f172a">finetune/*.jsonl</text>
</g>
<!-- W2&#45;&gt;Fftn -->
<g id="edge22" class="edge">
<title>W2&#45;&gt;Fftn</title>
<path fill="none" stroke="#f59e0b" stroke-width="1.3" d="M130.29,-186.08C177.29,-151.81 256.13,-94.32 300.03,-62.31"/>
<polygon fill="#f59e0b" stroke="#f59e0b" stroke-width="1.3" points="301.66,-64.59 306.47,-57.61 298.36,-60.06 301.66,-64.59"/>
</g>
<!-- Ollama -->
<g id="node22" class="node">
<title>Ollama</title>
<path fill="#7dd3fc" stroke="#334155" stroke-width="1.3" d="M141.25,-56C141.25,-56 42.75,-56 42.75,-56 36.75,-56 30.75,-50 30.75,-44 30.75,-44 30.75,-32 30.75,-32 30.75,-26 36.75,-20 42.75,-20 42.75,-20 141.25,-20 141.25,-20 147.25,-20 153.25,-26 153.25,-32 153.25,-32 153.25,-44 153.25,-44 153.25,-50 147.25,-56 141.25,-56"/>
<text xml:space="preserve" text-anchor="middle" x="92" y="-40.5" font-family="Helvetica,sans-Serif" font-size="10.00" fill="#0f172a">ollama create pwn&#45;vN+1</text>
<text xml:space="preserve" text-anchor="middle" x="92" y="-28.5" font-family="Helvetica,sans-Serif" font-size="10.00" fill="#0f172a">(local LoRA adapter)</text>
</g>
<!-- W2&#45;&gt;Ollama -->
<g id="edge23" class="edge">
<title>W2&#45;&gt;Ollama</title>
<path fill="none" stroke="#fb7185" stroke-width="2" d="M90.83,-186.17C90.39,-174.67 89.96,-161.19 89.75,-149 89.27,-121.32 90.06,-89.72 90.83,-67.51"/>
<polygon fill="#fb7185" stroke="#fb7185" stroke-width="2" points="93.62,-67.65 91.12,-59.55 88.03,-67.44 93.62,-67.65"/>
<text xml:space="preserve" text-anchor="middle" x="101.38" y="-140.45" font-family="Helvetica,sans-Serif" font-size="9.00" fill="#cbd5e1">LoRA</text>
</g>
<!-- W3 -->
<g id="node15" class="node">
<title>W3</title>
<path fill="#fda4af" stroke="#334155" stroke-width="1.3" d="M500.38,-233C500.38,-233 381.62,-233 381.62,-233 375.62,-233 369.62,-227 369.62,-221 369.62,-221 369.62,-209 369.62,-209 369.62,-203 375.62,-197 381.62,-197 381.62,-197 500.38,-197 500.38,-197 506.38,-197 512.38,-203 512.38,-209 512.38,-209 512.38,-221 512.38,-221 512.38,-227 506.38,-233 500.38,-233"/>
<text xml:space="preserve" text-anchor="middle" x="441" y="-217.5" font-family="Helvetica,sans-Serif" font-size="10.00" fill="#0f172a">W3 &#160;calibrate</text>
<text xml:space="preserve" text-anchor="middle" x="441" y="-205.5" font-family="Helvetica,sans-Serif" font-size="10.00" fill="#0f172a">p(success) vs actual → Brier</text>
</g>
<!-- W3&#45;&gt;Loop -->
<g id="edge25" class="edge">
<title>W3&#45;&gt;Loop</title>
<path fill="none" stroke="#fbbf24" stroke-width="1.3" stroke-dasharray="5,2" d="M458.6,-233.28C483.46,-256.42 531.4,-296.53 581,-313.5 703.11,-355.27 1652.09,-278.95 1741,-372.5 1778.51,-411.96 1779.27,-456.27 1741,-495 1734.45,-501.63 1079.26,-501.98 1070,-503 1047.43,-505.48 1042.34,-509.44 1020,-513.5 913.69,-532.8 790.2,-551.03 711.85,-562.07"/>
<polygon fill="#fbbf24" stroke="#fbbf24" stroke-width="1.3" points="711.53,-559.29 704,-563.17 712.31,-564.83 711.53,-559.29"/>
<text xml:space="preserve" text-anchor="middle" x="1790.79" y="-399.2" font-family="Helvetica,sans-Serif" font-size="9.00" fill="#cbd5e1">calibration</text>
</g>
<!-- Fmis&#45;&gt;W2 -->
<g id="edge24" class="edge">
<title>Fmis&#45;&gt;W2</title>
<path fill="none" stroke="#fbbf24" stroke-width="1.3" stroke-dasharray="5,2" d="M804.27,-56.63C796.28,-78.1 779.58,-113.59 752,-130.5 644.77,-196.27 310.89,-152.12 188,-179 182.5,-180.2 176.9,-181.64 171.29,-183.25"/>
<polygon fill="#fbbf24" stroke="#fbbf24" stroke-width="1.3" points="170.61,-180.53 163.76,-185.52 172.23,-185.89 170.61,-180.53"/>
<text xml:space="preserve" text-anchor="middle" x="746.1" y="-140.45" font-family="Helvetica,sans-Serif" font-size="9.00" fill="#cbd5e1">eval set</text>
</g>
<!-- Fses&#45;&gt;W2 -->
<g id="edge21" class="edge">
<title>Fses&#45;&gt;W2</title>
<path fill="none" stroke="#f59e0b" stroke-width="1.3" d="M576.49,-60.28C566.72,-81.75 548.54,-114.01 522,-130.5 506.07,-140.4 206.18,-174.42 188,-179 183.18,-180.22 178.26,-181.58 173.33,-183.06"/>
<polygon fill="#f59e0b" stroke="#f59e0b" stroke-width="1.3" points="172.53,-180.38 165.72,-185.43 174.19,-185.72 172.53,-180.38"/>
<text xml:space="preserve" text-anchor="middle" x="514.77" y="-140.45" font-family="Helvetica,sans-Serif" font-size="9.00" fill="#cbd5e1">export_finetune</text>
</g>
<!-- Fprf&#45;&gt;W2 -->
<g id="edge20" class="edge">
<title>Fprf&#45;&gt;W2</title>
<path fill="none" stroke="#f59e0b" stroke-width="1.3" d="M450.23,-56.46C440.8,-78.11 421.47,-114.14 392,-130.5 366.21,-144.82 288.14,-131.43 259.5,-138.5 221.43,-147.89 181.29,-165.68 149.86,-181.63"/>
<polygon fill="#f59e0b" stroke="#f59e0b" stroke-width="1.3" points="148.81,-179.02 142.98,-185.17 151.37,-183.99 148.81,-179.02"/>
<text xml:space="preserve" text-anchor="middle" x="282.75" y="-140.45" font-family="Helvetica,sans-Serif" font-size="9.00" fill="#cbd5e1">export_dpo</text>
</g>
<!-- Ollama&#45;&gt;Loop -->
<g id="edge32" class="edge">
<title>Ollama&#45;&gt;Loop</title>
<path fill="none" stroke="#fb7185" stroke-width="2" stroke-dasharray="5,2" d="M117.66,-56.63C151.64,-78.82 214.24,-115.82 274,-130.5 300.87,-137.1 744.35,-137.49 772,-138.5 930.37,-144.27 1332.07,-133.93 1484,-179 1649.95,-228.23 1735.18,-222.75 1822,-372.5 1849.31,-419.6 1860.28,-456.28 1822,-495 1815.13,-501.94 1128.71,-501.94 1119,-503 1096.43,-505.47 1091.38,-509.63 1069,-513.5 945.38,-534.87 800.94,-553.26 713.26,-563.69"/>
<polygon fill="#fb7185" stroke="#fb7185" stroke-width="2" points="712.95,-560.91 705.34,-564.63 713.61,-566.47 712.95,-560.91"/>
<text xml:space="preserve" text-anchor="middle" x="1833.45" y="-333.95" font-family="Helvetica,sans-Serif" font-size="9.00" fill="#cbd5e1">promoted vN+1</text>
<text xml:space="preserve" text-anchor="middle" x="1833.45" y="-323.45" font-family="Helvetica,sans-Serif" font-size="9.00" fill="#cbd5e1">(next session)</text>
</g>
<!-- Cron -->
<g id="node23" class="node">
<title>Cron</title>
<path fill="#7dd3fc" stroke="#334155" stroke-width="1.3" d="M1013,-596.25C1013,-596.25 883,-596.25 883,-596.25 877,-596.25 871,-590.25 871,-584.25 871,-584.25 871,-563.5 871,-563.5 871,-557.5 877,-551.5 883,-551.5 883,-551.5 1013,-551.5 1013,-551.5 1019,-551.5 1025,-557.5 1025,-563.5 1025,-563.5 1025,-584.25 1025,-584.25 1025,-590.25 1019,-596.25 1013,-596.25"/>
<text xml:space="preserve" text-anchor="middle" x="948" y="-582.75" font-family="Helvetica,sans-Serif" font-size="10.00" fill="#0f172a">⏱ &#160;PWN::Cron.install_defaults</text>
<text xml:space="preserve" text-anchor="middle" x="948" y="-570" font-family="Helvetica,sans-Serif" font-size="10.00" fill="#0f172a">practice · offline_judge</text>
<text xml:space="preserve" text-anchor="middle" x="948" y="-558" font-family="Helvetica,sans-Serif" font-size="10.00" fill="#0f172a">train dry_run · consolidate</text>
</g>
<!-- Cron&#45;&gt;S1 -->
<g id="edge26" class="edge">
<title>Cron&#45;&gt;S1</title>
<path fill="none" stroke="#38bdf8" stroke-width="1.3" d="M998.45,-550.92C1022.2,-537.64 1042.13,-520.03 1026,-503 1014.75,-491.12 894.13,-501.22 879,-495 846.95,-481.81 818.18,-454.23 799.24,-432.78"/>
<polygon fill="#38bdf8" stroke="#38bdf8" stroke-width="1.3" points="801.59,-431.22 794.25,-426.98 797.35,-434.87 801.59,-431.22"/>
<text xml:space="preserve" text-anchor="middle" x="1046.97" y="-504.95" font-family="Helvetica,sans-Serif" font-size="9.00" fill="#cbd5e1">0 3 * * *</text>
</g>
<!-- Cron&#45;&gt;W2 -->
<g id="edge28" class="edge">
<title>Cron&#45;&gt;W2</title>
<path fill="none" stroke="#38bdf8" stroke-width="1.3" d="M1023.36,-550.93C1084.62,-534.23 1173.58,-512.55 1253,-503 1268.69,-501.11 1810.9,-506.26 1822,-495 1876.19,-440.05 1873.04,-372.37 1815,-321.5 1798.01,-306.61 208.82,-322.28 188,-313.5 158.17,-300.92 132.9,-274.11 115.78,-251.78"/>
<polygon fill="#38bdf8" stroke="#38bdf8" stroke-width="1.3" points="118.04,-250.13 111.03,-245.37 113.55,-253.46 118.04,-250.13"/>
<text xml:space="preserve" text-anchor="middle" x="1876.79" y="-399.2" font-family="Helvetica,sans-Serif" font-size="9.00" fill="#cbd5e1">0 4 * * 0</text>
</g>
<!-- OJ -->
<g id="node24" class="node">
<title>OJ</title>
<path fill="#6ee7b7" stroke="#334155" stroke-width="1.3" d="M1320.88,-591.88C1320.88,-591.88 1181.12,-591.88 1181.12,-591.88 1175.12,-591.88 1169.12,-585.88 1169.12,-579.88 1169.12,-579.88 1169.12,-567.88 1169.12,-567.88 1169.12,-561.88 1175.12,-555.88 1181.12,-555.88 1181.12,-555.88 1320.88,-555.88 1320.88,-555.88 1326.88,-555.88 1332.88,-561.88 1332.88,-567.88 1332.88,-567.88 1332.88,-579.88 1332.88,-579.88 1332.88,-585.88 1326.88,-591.88 1320.88,-591.88"/>
<text xml:space="preserve" text-anchor="middle" x="1251" y="-576.38" font-family="Helvetica,sans-Serif" font-size="10.00" fill="#0f172a">P3 &#160;offline_judge</text>
<text xml:space="preserve" text-anchor="middle" x="1251" y="-564.38" font-family="Helvetica,sans-Serif" font-size="10.00" fill="#0f172a">ORM/PRM + W3 cal + P10 warm</text>
</g>
<!-- Cron&#45;&gt;OJ -->
<g id="edge27" class="edge">
<title>Cron&#45;&gt;OJ</title>
<path fill="none" stroke="#38bdf8" stroke-width="1.3" d="M1025.64,-573.88C1066.22,-573.88 1116.17,-573.88 1158.72,-573.88"/>
<polygon fill="#38bdf8" stroke="#38bdf8" stroke-width="1.3" points="1158.56,-576.68 1166.56,-573.88 1158.56,-571.08 1158.56,-576.68"/>
<text xml:space="preserve" text-anchor="middle" x="1097.06" y="-578.83" font-family="Helvetica,sans-Serif" font-size="9.00" fill="#cbd5e1">30 3 * * *</text>
</g>
<!-- MemGC -->
<g id="node25" class="node">
<title>MemGC</title>
<path fill="#6ee7b7" stroke="#334155" stroke-width="1.3" d="M1502.62,-591.88C1502.62,-591.88 1385.38,-591.88 1385.38,-591.88 1379.38,-591.88 1373.38,-585.88 1373.38,-579.88 1373.38,-579.88 1373.38,-567.88 1373.38,-567.88 1373.38,-561.88 1379.38,-555.88 1385.38,-555.88 1385.38,-555.88 1502.62,-555.88 1502.62,-555.88 1508.62,-555.88 1514.62,-561.88 1514.62,-567.88 1514.62,-567.88 1514.62,-579.88 1514.62,-579.88 1514.62,-585.88 1508.62,-591.88 1502.62,-591.88"/>
<text xml:space="preserve" text-anchor="middle" x="1444" y="-576.38" font-family="Helvetica,sans-Serif" font-size="10.00" fill="#0f172a">M1/M3 &#160;Learning.consolidate</text>
<text xml:space="preserve" text-anchor="middle" x="1444" y="-564.38" font-family="Helvetica,sans-Serif" font-size="10.00" fill="#0f172a">nightly memory GC</text>
</g>
<!-- Cron&#45;&gt;MemGC -->
<g id="edge29" class="edge">
<title>Cron&#45;&gt;MemGC</title>
<path fill="none" stroke="#38bdf8" stroke-width="1.3" d="M1008.6,-596.78C1048.34,-610.56 1101.79,-626.74 1150.62,-633.81 1235.6,-646.12 1333.04,-617.6 1391.5,-595.81"/>
<polygon fill="#38bdf8" stroke="#38bdf8" stroke-width="1.3" points="1392.21,-598.53 1398.7,-593.07 1390.22,-593.29 1392.21,-598.53"/>
<text xml:space="preserve" text-anchor="middle" x="1166" y="-636.2" font-family="Helvetica,sans-Serif" font-size="9.00" fill="#cbd5e1">0 5 * * *</text>
</g>
<!-- OJ&#45;&gt;R1 -->
<g id="edge30" class="edge">
<title>OJ&#45;&gt;R1</title>
<path fill="none" stroke="#a78bfa" stroke-width="1.3" stroke-dasharray="5,2" d="M1254.51,-555.39C1260.42,-525.92 1272.42,-466.17 1279.47,-431.04"/>
<polygon fill="#a78bfa" stroke="#a78bfa" stroke-width="1.3" points="1282.19,-431.73 1281.02,-423.33 1276.7,-430.62 1282.19,-431.73"/>
<text xml:space="preserve" text-anchor="middle" x="1279.2" y="-504.95" font-family="Helvetica,sans-Serif" font-size="9.00" fill="#cbd5e1">backfill</text>
</g>
<!-- OJ&#45;&gt;W3 -->
<g id="edge31" class="edge">
<title>OJ&#45;&gt;W3</title>
<path fill="none" stroke="#fbbf24" stroke-width="1.3" stroke-dasharray="5,2" d="M1330.18,-555.27C1337.87,-553.86 1345.57,-552.58 1353,-551.5 1429.9,-540.37 1997.33,-552.12 2050,-495 2086.91,-454.98 2078.44,-418.93 2050,-372.5 2023.94,-329.96 1998.48,-333.3 1950,-321.5 1913.05,-312.51 617.25,-325 581,-313.5 535.52,-299.08 491.84,-264.2 465.7,-240.32"/>
<polygon fill="#fbbf24" stroke="#fbbf24" stroke-width="1.3" points="467.69,-238.34 459.93,-234.94 463.87,-242.44 467.69,-238.34"/>
<text xml:space="preserve" text-anchor="middle" x="2096.73" y="-399.2" font-family="Helvetica,sans-Serif" font-size="9.00" fill="#cbd5e1">p(success)</text>
</g>
</g>
</svg>
