<?xml version="1.0" encoding="UTF-8" standalone="no"?>
<!DOCTYPE svg PUBLIC "-//W3C//DTD SVG 1.1//EN"
 "http://www.w3.org/Graphics/SVG/1.1/DTD/svg11.dtd">
<!-- Generated by graphviz version 14.1.2 (0)
 -->
<!-- Title: PWN_Reports Pages: 1 -->
<svg width="614pt" height="421pt"
 viewBox="0.00 0.00 614.00 421.00" xmlns="http://www.w3.org/2000/svg" xmlns:xlink="http://www.w3.org/1999/xlink">
<g id="graph0" class="graph" transform="scale(1 1) rotate(0) translate(43.2 377.45)">
<title>PWN_Reports</title>
<polygon fill="#0f172a" stroke="none" points="-43.2,43.2 -43.2,-377.45 571.2,-377.45 571.2,43.2 -43.2,43.2"/>
<text xml:space="preserve" text-anchor="start" x="106.5" y="-312.25" font-family="sans-Serif" font-weight="bold" font-size="20.00" fill="#e2e8f0">PWN::Reports &#45; Findings Pipeline</text>
<g id="clust1" class="cluster">
<title>cluster_src</title>
<path fill="#022c22" stroke="#047857" d="M12,-8C12,-8 148.75,-8 148.75,-8 154.75,-8 160.75,-14 160.75,-20 160.75,-20 160.75,-283 160.75,-283 160.75,-289 154.75,-295 148.75,-295 148.75,-295 12,-295 12,-295 6,-295 0,-289 0,-283 0,-283 0,-20 0,-20 0,-14 6,-8 12,-8"/>
<text xml:space="preserve" text-anchor="middle" x="80.38" y="-272" font-family="sans-Serif" font-size="20.00" fill="#a7f3d0">Finding Sources</text>
</g>
<g id="clust2" class="cluster">
<title>cluster_gen</title>
<path fill="#422006" stroke="#a16207" d="M242.75,-8C242.75,-8 337.75,-8 337.75,-8 343.75,-8 349.75,-14 349.75,-20 349.75,-20 349.75,-283 349.75,-283 349.75,-289 343.75,-295 337.75,-295 337.75,-295 242.75,-295 242.75,-295 236.75,-295 230.75,-289 230.75,-283 230.75,-283 230.75,-20 230.75,-20 230.75,-14 236.75,-8 242.75,-8"/>
<text xml:space="preserve" text-anchor="middle" x="290.25" y="-272" font-family="sans-Serif" font-size="20.00" fill="#fde68a">Generators</text>
</g>
<g id="clust3" class="cluster">
<title>cluster_out</title>
<path fill="#2e1065" stroke="#6d28d9" d="M431.75,-8C431.75,-8 508,-8 508,-8 514,-8 520,-14 520,-20 520,-20 520,-283 520,-283 520,-289 514,-295 508,-295 508,-295 431.75,-295 431.75,-295 425.75,-295 419.75,-289 419.75,-283 419.75,-283 419.75,-20 419.75,-20 419.75,-14 425.75,-8 431.75,-8"/>
<text xml:space="preserve" text-anchor="middle" x="469.88" y="-272" font-family="sans-Serif" font-size="20.00" fill="#ddd6fe">Delivery</text>
</g>
<!-- Sast -->
<g id="node1" class="node">
<title>Sast</title>
<path fill="#6ee7b7" stroke="#334155" stroke-width="1.3" d="M104,-52C104,-52 55.75,-52 55.75,-52 49.75,-52 43.75,-46 43.75,-40 43.75,-40 43.75,-28 43.75,-28 43.75,-22 49.75,-16 55.75,-16 55.75,-16 104,-16 104,-16 110,-16 116,-22 116,-28 116,-28 116,-40 116,-40 116,-46 110,-52 104,-52"/>
<text xml:space="preserve" text-anchor="middle" x="79.88" y="-30.5" font-family="sans-Serif" font-size="10.00" fill="#0f172a">PWN::SAST</text>
</g>
<!-- Rsast -->
<g id="node5" class="node">
<title>Rsast</title>
<path fill="#fcd34d" stroke="#334155" stroke-width="1.3" d="M319.62,-52C319.62,-52 260.88,-52 260.88,-52 254.88,-52 248.88,-46 248.88,-40 248.88,-40 248.88,-28 248.88,-28 248.88,-22 254.88,-16 260.88,-16 260.88,-16 319.62,-16 319.62,-16 325.62,-16 331.62,-22 331.62,-28 331.62,-28 331.62,-40 331.62,-40 331.62,-46 325.62,-52 319.62,-52"/>
<text xml:space="preserve" text-anchor="middle" x="290.25" y="-30.5" font-family="sans-Serif" font-size="10.00" fill="#0f172a">Reports::SAST</text>
</g>
<!-- Sast&#45;&gt;Rsast -->
<g id="edge1" class="edge">
<title>Sast&#45;&gt;Rsast</title>
<path fill="none" stroke="#f59e0b" stroke-width="1.3" d="M116.22,-34C149.8,-34 200.64,-34 238.53,-34"/>
<polygon fill="#f59e0b" stroke="#f59e0b" stroke-width="1.3" points="238.39,-36.8 246.39,-34 238.39,-31.2 238.39,-36.8"/>
</g>
<!-- Fuzz -->
<g id="node2" class="node">
<title>Fuzz</title>
<path fill="#6ee7b7" stroke="#334155" stroke-width="1.3" d="M105.88,-120C105.88,-120 53.88,-120 53.88,-120 47.88,-120 41.88,-114 41.88,-108 41.88,-108 41.88,-96 41.88,-96 41.88,-90 47.88,-84 53.88,-84 53.88,-84 105.88,-84 105.88,-84 111.88,-84 117.88,-90 117.88,-96 117.88,-96 117.88,-108 117.88,-108 117.88,-114 111.88,-120 105.88,-120"/>
<text xml:space="preserve" text-anchor="middle" x="79.88" y="-98.5" font-family="sans-Serif" font-size="10.00" fill="#0f172a">Plugins::Fuzz</text>
</g>
<!-- Rfuzz -->
<g id="node6" class="node">
<title>Rfuzz</title>
<path fill="#fcd34d" stroke="#334155" stroke-width="1.3" d="M317.38,-120C317.38,-120 263.12,-120 263.12,-120 257.12,-120 251.12,-114 251.12,-108 251.12,-108 251.12,-96 251.12,-96 251.12,-90 257.12,-84 263.12,-84 263.12,-84 317.38,-84 317.38,-84 323.38,-84 329.38,-90 329.38,-96 329.38,-96 329.38,-108 329.38,-108 329.38,-114 323.38,-120 317.38,-120"/>
<text xml:space="preserve" text-anchor="middle" x="290.25" y="-98.5" font-family="sans-Serif" font-size="10.00" fill="#0f172a">Reports::Fuzz</text>
</g>
<!-- Fuzz&#45;&gt;Rfuzz -->
<g id="edge2" class="edge">
<title>Fuzz&#45;&gt;Rfuzz</title>
<path fill="none" stroke="#f59e0b" stroke-width="1.3" d="M118.13,-102C152.41,-102 203.45,-102 240.87,-102"/>
<polygon fill="#f59e0b" stroke="#f59e0b" stroke-width="1.3" points="240.59,-104.8 248.59,-102 240.59,-99.2 240.59,-104.8"/>
</g>
<!-- Uri -->
<g id="node3" class="node">
<title>Uri</title>
<path fill="#6ee7b7" stroke="#334155" stroke-width="1.3" d="M100.62,-188C100.62,-188 59.12,-188 59.12,-188 53.12,-188 47.12,-182 47.12,-176 47.12,-176 47.12,-164 47.12,-164 47.12,-158 53.12,-152 59.12,-152 59.12,-152 100.62,-152 100.62,-152 106.62,-152 112.62,-158 112.62,-164 112.62,-164 112.62,-176 112.62,-176 112.62,-182 106.62,-188 100.62,-188"/>
<text xml:space="preserve" text-anchor="middle" x="79.88" y="-166.5" font-family="sans-Serif" font-size="10.00" fill="#0f172a">URI Buster</text>
</g>
<!-- Ruri -->
<g id="node7" class="node">
<title>Ruri</title>
<path fill="#fcd34d" stroke="#334155" stroke-width="1.3" d="M329.75,-188C329.75,-188 250.75,-188 250.75,-188 244.75,-188 238.75,-182 238.75,-176 238.75,-176 238.75,-164 238.75,-164 238.75,-158 244.75,-152 250.75,-152 250.75,-152 329.75,-152 329.75,-152 335.75,-152 341.75,-158 341.75,-164 341.75,-164 341.75,-176 341.75,-176 341.75,-182 335.75,-188 329.75,-188"/>
<text xml:space="preserve" text-anchor="middle" x="290.25" y="-166.5" font-family="sans-Serif" font-size="10.00" fill="#0f172a">Reports::URIBuster</text>
</g>
<!-- Uri&#45;&gt;Ruri -->
<g id="edge3" class="edge">
<title>Uri&#45;&gt;Ruri</title>
<path fill="none" stroke="#f59e0b" stroke-width="1.3" d="M112.98,-170C143.68,-170 190.77,-170 228.56,-170"/>
<polygon fill="#f59e0b" stroke="#f59e0b" stroke-width="1.3" points="228.48,-172.8 236.48,-170 228.48,-167.2 228.48,-172.8"/>
</g>
<!-- Phone -->
<g id="node4" class="node">
<title>Phone</title>
<path fill="#6ee7b7" stroke="#334155" stroke-width="1.3" d="M107.75,-256C107.75,-256 52,-256 52,-256 46,-256 40,-250 40,-244 40,-244 40,-232 40,-232 40,-226 46,-220 52,-220 52,-220 107.75,-220 107.75,-220 113.75,-220 119.75,-226 119.75,-232 119.75,-232 119.75,-244 119.75,-244 119.75,-250 113.75,-256 107.75,-256"/>
<text xml:space="preserve" text-anchor="middle" x="79.88" y="-234.5" font-family="sans-Serif" font-size="10.00" fill="#0f172a">BareSIP recon</text>
</g>
<!-- Rphone -->
<g id="node8" class="node">
<title>Rphone</title>
<path fill="#fcd34d" stroke="#334155" stroke-width="1.3" d="M320.38,-256C320.38,-256 260.12,-256 260.12,-256 254.12,-256 248.12,-250 248.12,-244 248.12,-244 248.12,-232 248.12,-232 248.12,-226 254.12,-220 260.12,-220 260.12,-220 320.38,-220 320.38,-220 326.38,-220 332.38,-226 332.38,-232 332.38,-232 332.38,-244 332.38,-244 332.38,-250 326.38,-256 320.38,-256"/>
<text xml:space="preserve" text-anchor="middle" x="290.25" y="-234.5" font-family="sans-Serif" font-size="10.00" fill="#0f172a">Reports::Phone</text>
</g>
<!-- Phone&#45;&gt;Rphone -->
<g id="edge4" class="edge">
<title>Phone&#45;&gt;Rphone</title>
<path fill="none" stroke="#f59e0b" stroke-width="1.3" d="M120.07,-238C153.37,-238 201.41,-238 237.8,-238"/>
<polygon fill="#f59e0b" stroke="#f59e0b" stroke-width="1.3" points="237.77,-240.8 245.77,-238 237.77,-235.2 237.77,-240.8"/>
</g>
<!-- HTML -->
<g id="node9" class="node">
<title>HTML</title>
<path fill="#c4b5fd" stroke="#334155" stroke-width="1.3" d="M500,-52C500,-52 439.75,-52 439.75,-52 433.75,-52 427.75,-46 427.75,-40 427.75,-40 427.75,-28 427.75,-28 427.75,-22 433.75,-16 439.75,-16 439.75,-16 500,-16 500,-16 506,-16 512,-22 512,-28 512,-28 512,-40 512,-40 512,-46 506,-52 500,-52"/>
<text xml:space="preserve" text-anchor="middle" x="469.88" y="-36.5" font-family="sans-Serif" font-size="10.00" fill="#0f172a">HTML</text>
<text xml:space="preserve" text-anchor="middle" x="469.88" y="-24.5" font-family="sans-Serif" font-size="10.00" fill="#0f172a">(Header/Footer)</text>
</g>
<!-- Rsast&#45;&gt;HTML -->
<g id="edge5" class="edge">
<title>Rsast&#45;&gt;HTML</title>
<path fill="none" stroke="#a78bfa" stroke-width="1.3" d="M332,-34C357.45,-34 390.44,-34 417.65,-34"/>
<polygon fill="#a78bfa" stroke="#a78bfa" stroke-width="1.3" points="417.42,-36.8 425.42,-34 417.42,-31.2 417.42,-36.8"/>
</g>
<!-- JSON -->
<g id="node10" class="node">
<title>JSON</title>
<path fill="#c4b5fd" stroke="#334155" stroke-width="1.3" d="M484.88,-120C484.88,-120 454.88,-120 454.88,-120 448.88,-120 442.88,-114 442.88,-108 442.88,-108 442.88,-96 442.88,-96 442.88,-90 448.88,-84 454.88,-84 454.88,-84 484.88,-84 484.88,-84 490.88,-84 496.88,-90 496.88,-96 496.88,-96 496.88,-108 496.88,-108 496.88,-114 490.88,-120 484.88,-120"/>
<text xml:space="preserve" text-anchor="middle" x="469.88" y="-98.5" font-family="sans-Serif" font-size="10.00" fill="#0f172a">JSON</text>
</g>
<!-- Rfuzz&#45;&gt;JSON -->
<g id="edge6" class="edge">
<title>Rfuzz&#45;&gt;JSON</title>
<path fill="none" stroke="#a78bfa" stroke-width="1.3" d="M329.79,-102C360.41,-102 402.91,-102 432.85,-102"/>
<polygon fill="#a78bfa" stroke="#a78bfa" stroke-width="1.3" points="432.52,-104.8 440.52,-102 432.52,-99.2 432.52,-104.8"/>
</g>
<!-- DD -->
<g id="node11" class="node">
<title>DD</title>
<path fill="#c4b5fd" stroke="#334155" stroke-width="1.3" d="M498.5,-188C498.5,-188 441.25,-188 441.25,-188 435.25,-188 429.25,-182 429.25,-176 429.25,-176 429.25,-164 429.25,-164 429.25,-158 435.25,-152 441.25,-152 441.25,-152 498.5,-152 498.5,-152 504.5,-152 510.5,-158 510.5,-164 510.5,-164 510.5,-176 510.5,-176 510.5,-182 504.5,-188 498.5,-188"/>
<text xml:space="preserve" text-anchor="middle" x="469.88" y="-172.5" font-family="sans-Serif" font-size="10.00" fill="#0f172a">DefectDojo</text>
<text xml:space="preserve" text-anchor="middle" x="469.88" y="-160.5" font-family="sans-Serif" font-size="10.00" fill="#0f172a">import/reimport</text>
</g>
<!-- Ruri&#45;&gt;DD -->
<g id="edge7" class="edge">
<title>Ruri&#45;&gt;DD</title>
<path fill="none" stroke="#a78bfa" stroke-width="1.3" d="M342.15,-170C366.19,-170 394.79,-170 418.73,-170"/>
<polygon fill="#a78bfa" stroke="#a78bfa" stroke-width="1.3" points="418.72,-172.8 426.72,-170 418.72,-167.2 418.72,-172.8"/>
</g>
<!-- Jira -->
<g id="node12" class="node">
<title>Jira</title>
<path fill="#c4b5fd" stroke="#334155" stroke-width="1.3" d="M498.88,-256C498.88,-256 440.88,-256 440.88,-256 434.88,-256 428.88,-250 428.88,-244 428.88,-244 428.88,-232 428.88,-232 428.88,-226 434.88,-220 440.88,-220 440.88,-220 498.88,-220 498.88,-220 504.88,-220 510.88,-226 510.88,-232 510.88,-232 510.88,-244 510.88,-244 510.88,-250 504.88,-256 498.88,-256"/>
<text xml:space="preserve" text-anchor="middle" x="469.88" y="-234.5" font-family="sans-Serif" font-size="10.00" fill="#0f172a">JiraDataCenter</text>
</g>
<!-- Rphone&#45;&gt;Jira -->
<g id="edge8" class="edge">
<title>Rphone&#45;&gt;Jira</title>
<path fill="none" stroke="#a78bfa" stroke-width="1.3" d="M332.9,-238C358.56,-238 391.62,-238 418.72,-238"/>
<polygon fill="#a78bfa" stroke="#a78bfa" stroke-width="1.3" points="418.44,-240.8 426.44,-238 418.44,-235.2 418.44,-240.8"/>
</g>
</g>
</svg>
