<?xml version="1.0" encoding="UTF-8" standalone="no"?>
<!DOCTYPE svg PUBLIC "-//W3C//DTD SVG 1.1//EN"
 "http://www.w3.org/Graphics/SVG/1.1/DTD/svg11.dtd">
<!-- Generated by graphviz version 14.1.2 (0)
 -->
<!-- Title: PWN Reporting Pipeline Pages: 1 -->
<svg width="445pt" height="181pt"
 viewBox="0.00 0.00 445.00 181.00" xmlns="http://www.w3.org/2000/svg" xmlns:xlink="http://www.w3.org/1999/xlink">
<g id="graph0" class="graph" transform="scale(1 1) rotate(0) translate(4 176.82)">
<title>PWN Reporting Pipeline</title>
<polygon fill="white" stroke="none" points="-4,4 -4,-176.82 440.97,-176.82 440.97,4 -4,4"/>
<!-- Findings -->
<g id="node1" class="node">
<title>Findings</title>
<path fill="none" stroke="black" d="M66.25,-111.66C66.25,-111.66 12,-111.66 12,-111.66 6,-111.66 0,-105.66 0,-99.66 0,-99.66 0,-73.66 0,-73.66 0,-67.66 6,-61.66 12,-61.66 12,-61.66 66.25,-61.66 66.25,-61.66 72.25,-61.66 78.25,-67.66 78.25,-73.66 78.25,-73.66 78.25,-99.66 78.25,-99.66 78.25,-105.66 72.25,-111.66 66.25,-111.66"/>
<text xml:space="preserve" text-anchor="middle" x="39.12" y="-99.11" font-family="Arial" font-size="9.00">Raw Findings</text>
<text xml:space="preserve" text-anchor="middle" x="39.12" y="-88.61" font-family="Arial" font-size="9.00">(Scan results,</text>
<text xml:space="preserve" text-anchor="middle" x="39.12" y="-78.11" font-family="Arial" font-size="9.00">agent outputs,</text>
<text xml:space="preserve" text-anchor="middle" x="39.12" y="-67.61" font-family="Arial" font-size="9.00">exploits, SAST)</text>
</g>
<!-- Reports -->
<g id="node2" class="node">
<title>Reports</title>
<ellipse fill="none" stroke="black" cx="158.24" cy="-86.66" rx="42.99" ry="18"/>
<text xml:space="preserve" text-anchor="middle" x="158.24" y="-83.36" font-family="Arial" font-size="9.00">PWN::Reports</text>
</g>
<!-- Findings&#45;&gt;Reports -->
<g id="edge1" class="edge">
<title>Findings&#45;&gt;Reports</title>
<path fill="none" stroke="black" d="M78.47,-86.66C86.45,-86.66 95,-86.66 103.42,-86.66"/>
<polygon fill="black" stroke="black" points="103.24,-90.16 113.24,-86.66 103.24,-83.16 103.24,-90.16"/>
</g>
<!-- Templates -->
<g id="node3" class="node">
<title>Templates</title>
<path fill="none" stroke="black" d="M436.97,-167.88C436.97,-170.6 415.74,-172.82 389.6,-172.82 363.45,-172.82 342.22,-170.6 342.22,-167.88 342.22,-167.88 342.22,-123.44 342.22,-123.44 342.22,-120.72 363.45,-118.5 389.6,-118.5 415.74,-118.5 436.97,-120.72 436.97,-123.44 436.97,-123.44 436.97,-167.88 436.97,-167.88"/>
<path fill="none" stroke="black" d="M436.97,-167.88C436.97,-165.15 415.74,-162.94 389.6,-162.94 363.45,-162.94 342.22,-165.15 342.22,-167.88"/>
<text xml:space="preserve" text-anchor="middle" x="389.6" y="-152.86" font-family="Arial" font-size="9.00">Templates</text>
<text xml:space="preserve" text-anchor="middle" x="389.6" y="-142.36" font-family="Arial" font-size="9.00">(Markdown, PDF,</text>
<text xml:space="preserve" text-anchor="middle" x="389.6" y="-131.86" font-family="Arial" font-size="9.00">JSON, CSV, HTML)</text>
</g>
<!-- Reports&#45;&gt;Templates -->
<g id="edge2" class="edge">
<title>Reports&#45;&gt;Templates</title>
<path fill="none" stroke="black" d="M200.45,-90.45C206.73,-92.19 213.13,-94.01 219.22,-95.66 256.34,-105.72 298.37,-115.9 331.27,-124.7"/>
<polygon fill="black" stroke="black" points="330.03,-127.99 340.59,-127.23 331.86,-121.23 330.03,-127.99"/>
</g>
<!-- Outputs -->
<g id="node4" class="node">
<title>Outputs</title>
<path fill="none" stroke="black" d="M424.97,-100.41C424.97,-100.41 354.22,-100.41 354.22,-100.41 348.22,-100.41 342.22,-94.41 342.22,-88.41 342.22,-88.41 342.22,-72.91 342.22,-72.91 342.22,-66.91 348.22,-60.91 354.22,-60.91 354.22,-60.91 424.97,-60.91 424.97,-60.91 430.97,-60.91 436.97,-66.91 436.97,-72.91 436.97,-72.91 436.97,-88.41 436.97,-88.41 436.97,-94.41 430.97,-100.41 424.97,-100.41"/>
<text xml:space="preserve" text-anchor="middle" x="389.6" y="-87.86" font-family="Arial" font-size="9.00">Generated Reports</text>
<text xml:space="preserve" text-anchor="middle" x="389.6" y="-77.36" font-family="Arial" font-size="9.00">(DefectDojo import,</text>
<text xml:space="preserve" text-anchor="middle" x="389.6" y="-66.86" font-family="Arial" font-size="9.00">Jira tickets, PDFs)</text>
</g>
<!-- Reports&#45;&gt;Outputs -->
<g id="edge4" class="edge">
<title>Reports&#45;&gt;Outputs</title>
<path fill="none" stroke="black" d="M201.57,-85.55C237.74,-84.61 290.13,-83.24 330.27,-82.19"/>
<polygon fill="black" stroke="black" points="330.35,-85.69 340.26,-81.92 330.17,-78.69 330.35,-85.69"/>
<text xml:space="preserve" text-anchor="middle" x="271.72" y="-88.25" font-family="Times,serif" font-size="14.00">generate</text>
</g>
<!-- Memory -->
<g id="node5" class="node">
<title>Memory</title>
<path fill="none" stroke="black" d="M426.85,-33.39C426.85,-35.19 410.15,-36.66 389.6,-36.66 369.04,-36.66 352.35,-35.19 352.35,-33.39 352.35,-33.39 352.35,-3.93 352.35,-3.93 352.35,-2.13 369.04,-0.66 389.6,-0.66 410.15,-0.66 426.85,-2.13 426.85,-3.93 426.85,-3.93 426.85,-33.39 426.85,-33.39"/>
<path fill="none" stroke="black" d="M426.85,-33.39C426.85,-31.58 410.15,-30.11 389.6,-30.11 369.04,-30.11 352.35,-31.58 352.35,-33.39"/>
<text xml:space="preserve" text-anchor="middle" x="389.6" y="-15.36" font-family="Arial" font-size="9.00">PWN::Memory</text>
</g>
<!-- Reports&#45;&gt;Memory -->
<g id="edge5" class="edge">
<title>Reports&#45;&gt;Memory</title>
<path fill="none" stroke="black" d="M188.84,-73.64C198.43,-69.67 209.18,-65.48 219.22,-62.16 259.75,-48.75 306.85,-36.95 341.08,-29.03"/>
<polygon fill="black" stroke="black" points="341.72,-32.48 350.69,-26.84 340.16,-25.65 341.72,-32.48"/>
<text xml:space="preserve" text-anchor="middle" x="271.72" y="-65.36" font-family="Times,serif" font-size="14.00">store summary</text>
</g>
<!-- Templates&#45;&gt;Reports -->
<g id="edge3" class="edge">
<title>Templates&#45;&gt;Reports</title>
<path fill="none" stroke="black" d="M342.05,-142.59C307.93,-136.2 260.54,-124.85 219.22,-113.66 210.68,-111.35 201.51,-108.69 192.98,-105.84"/>
<polygon fill="black" stroke="black" points="194.24,-102.58 183.65,-102.52 191.9,-109.18 194.24,-102.58"/>
</g>
<!-- Memory&#45;&gt;Reports -->
<g id="edge6" class="edge">
<title>Memory&#45;&gt;Reports</title>
<path fill="none" stroke="black" d="M351.94,-8.17C316.24,-0.04 261.35,6.83 219.22,-13.16 199.26,-22.64 183.74,-42.36 173.5,-59"/>
<polygon fill="black" stroke="black" points="170.54,-57.12 168.57,-67.53 176.6,-60.62 170.54,-57.12"/>
<text xml:space="preserve" text-anchor="middle" x="271.72" y="-16.36" font-family="Times,serif" font-size="14.00">enrich with context</text>
</g>
</g>
</svg>
