<?xml version="1.0" encoding="UTF-8" standalone="no"?>
<!DOCTYPE svg PUBLIC "-//W3C//DTD SVG 1.1//EN"
 "http://www.w3.org/Graphics/SVG/1.1/DTD/svg11.dtd">
<!-- Generated by graphviz version 14.1.2 (0)
 -->
<!-- Title: PWN Reverse Engineering Flow Pages: 1 -->
<svg width="242pt" height="523pt"
 viewBox="0.00 0.00 242.00 523.00" xmlns="http://www.w3.org/2000/svg" xmlns:xlink="http://www.w3.org/1999/xlink">
<g id="graph0" class="graph" transform="scale(1 1) rotate(0) translate(4 518.86)">
<title>PWN Reverse Engineering Flow</title>
<polygon fill="white" stroke="none" points="-4,4 -4,-518.86 237.96,-518.86 237.96,4 -4,4"/>
<!-- Binary -->
<g id="node1" class="node">
<title>Binary</title>
<path fill="none" stroke="black" d="M166.34,-514.86C166.34,-514.86 103.09,-514.86 103.09,-514.86 97.09,-514.86 91.09,-508.86 91.09,-502.86 91.09,-502.86 91.09,-487.36 91.09,-487.36 91.09,-481.36 97.09,-475.36 103.09,-475.36 103.09,-475.36 166.34,-475.36 166.34,-475.36 172.34,-475.36 178.34,-481.36 178.34,-487.36 178.34,-487.36 178.34,-502.86 178.34,-502.86 178.34,-508.86 172.34,-514.86 166.34,-514.86"/>
<text xml:space="preserve" text-anchor="middle" x="134.71" y="-502.31" font-family="Arial" font-size="9.00">Binary / Firmware</text>
<text xml:space="preserve" text-anchor="middle" x="134.71" y="-491.81" font-family="Arial" font-size="9.00">(ELF, PE, APK,</text>
<text xml:space="preserve" text-anchor="middle" x="134.71" y="-481.31" font-family="Arial" font-size="9.00">Serial devices)</text>
</g>
<!-- RE -->
<g id="node2" class="node">
<title>RE</title>
<path fill="none" stroke="black" d="M136.59,-438.36C136.59,-438.36 44.84,-438.36 44.84,-438.36 38.84,-438.36 32.84,-432.36 32.84,-426.36 32.84,-426.36 32.84,-400.36 32.84,-400.36 32.84,-394.36 38.84,-388.36 44.84,-388.36 44.84,-388.36 136.59,-388.36 136.59,-388.36 142.59,-388.36 148.59,-394.36 148.59,-400.36 148.59,-400.36 148.59,-426.36 148.59,-426.36 148.59,-432.36 142.59,-438.36 136.59,-438.36"/>
<text xml:space="preserve" text-anchor="middle" x="90.71" y="-425.81" font-family="Arial" font-size="9.00">RE Tools</text>
<text xml:space="preserve" text-anchor="middle" x="90.71" y="-415.31" font-family="Arial" font-size="9.00">(XXD, Assembly,</text>
<text xml:space="preserve" text-anchor="middle" x="90.71" y="-404.81" font-family="Arial" font-size="9.00">Strings, objdump,</text>
<text xml:space="preserve" text-anchor="middle" x="90.71" y="-394.31" font-family="Arial" font-size="9.00">Radare/Ghidra via shell)</text>
</g>
<!-- Binary&#45;&gt;RE -->
<g id="edge1" class="edge">
<title>Binary&#45;&gt;RE</title>
<path fill="none" stroke="black" d="M124.28,-475.21C119.89,-467.25 114.63,-457.72 109.6,-448.6"/>
<polygon fill="black" stroke="black" points="112.69,-446.96 104.8,-439.9 106.57,-450.34 112.69,-446.96"/>
</g>
<!-- PWNRE -->
<g id="node3" class="node">
<title>PWNRE</title>
<path fill="none" stroke="black" d="M112.84,-351.36C112.84,-351.36 52.59,-351.36 52.59,-351.36 46.59,-351.36 40.59,-345.36 40.59,-339.36 40.59,-339.36 40.59,-323.86 40.59,-323.86 40.59,-317.86 46.59,-311.86 52.59,-311.86 52.59,-311.86 112.84,-311.86 112.84,-311.86 118.84,-311.86 124.84,-317.86 124.84,-323.86 124.84,-323.86 124.84,-339.36 124.84,-339.36 124.84,-345.36 118.84,-351.36 112.84,-351.36"/>
<text xml:space="preserve" text-anchor="middle" x="82.71" y="-338.81" font-family="Arial" font-size="9.00">PWN::Plugins::</text>
<text xml:space="preserve" text-anchor="middle" x="82.71" y="-328.31" font-family="Arial" font-size="9.00">Assembly, XXD,</text>
<text xml:space="preserve" text-anchor="middle" x="82.71" y="-317.81" font-family="Arial" font-size="9.00">Serial, BusPirate</text>
</g>
<!-- RE&#45;&gt;PWNRE -->
<g id="edge2" class="edge">
<title>RE&#45;&gt;PWNRE</title>
<path fill="none" stroke="black" d="M88.27,-388C87.48,-380.18 86.6,-371.42 85.78,-363.22"/>
<polygon fill="black" stroke="black" points="89.26,-362.87 84.78,-353.27 82.3,-363.57 89.26,-362.87"/>
</g>
<!-- Analysis -->
<g id="node4" class="node">
<title>Analysis</title>
<ellipse fill="none" stroke="black" cx="70.71" cy="-246.93" rx="70.71" ry="27.93"/>
<text xml:space="preserve" text-anchor="middle" x="70.71" y="-254.13" font-family="Arial" font-size="9.00">Analysis</text>
<text xml:space="preserve" text-anchor="middle" x="70.71" y="-243.63" font-family="Arial" font-size="9.00">(Deobfuscate, patch,</text>
<text xml:space="preserve" text-anchor="middle" x="70.71" y="-233.13" font-family="Arial" font-size="9.00">identify vulns)</text>
</g>
<!-- PWNRE&#45;&gt;Analysis -->
<g id="edge3" class="edge">
<title>PWNRE&#45;&gt;Analysis</title>
<path fill="none" stroke="black" d="M79.93,-311.43C78.84,-303.94 77.55,-295.06 76.29,-286.36"/>
<polygon fill="black" stroke="black" points="79.78,-286.04 74.88,-276.64 72.85,-287.04 79.78,-286.04"/>
</g>
<!-- FuzzRE -->
<g id="node5" class="node">
<title>FuzzRE</title>
<path fill="none" stroke="black" d="M83.96,-182C83.96,-182 21.46,-182 21.46,-182 15.46,-182 9.46,-176 9.46,-170 9.46,-170 9.46,-158 9.46,-158 9.46,-152 15.46,-146 21.46,-146 21.46,-146 83.96,-146 83.96,-146 89.96,-146 95.96,-152 95.96,-158 95.96,-158 95.96,-170 95.96,-170 95.96,-176 89.96,-182 83.96,-182"/>
<text xml:space="preserve" text-anchor="middle" x="52.71" y="-160.7" font-family="Arial" font-size="9.00">Targeted Fuzzing</text>
</g>
<!-- Analysis&#45;&gt;FuzzRE -->
<g id="edge4" class="edge">
<title>Analysis&#45;&gt;FuzzRE</title>
<path fill="none" stroke="black" d="M64.72,-218.98C62.88,-210.73 60.86,-201.63 59,-193.3"/>
<polygon fill="black" stroke="black" points="62.45,-192.66 56.86,-183.66 55.62,-194.18 62.45,-192.66"/>
</g>
<!-- ExploitRE -->
<g id="node6" class="node">
<title>ExploitRE</title>
<path fill="none" stroke="black" d="M137.21,-109C137.21,-109 76.21,-109 76.21,-109 70.21,-109 64.21,-103 64.21,-97 64.21,-97 64.21,-85 64.21,-85 64.21,-79 70.21,-73 76.21,-73 76.21,-73 137.21,-73 137.21,-73 143.21,-73 149.21,-79 149.21,-85 149.21,-85 149.21,-97 149.21,-97 149.21,-103 143.21,-109 137.21,-109"/>
<text xml:space="preserve" text-anchor="middle" x="106.71" y="-92.95" font-family="Arial" font-size="9.00">Craft Exploit</text>
<text xml:space="preserve" text-anchor="middle" x="106.71" y="-82.45" font-family="Arial" font-size="9.00">(ROP, shellcode)</text>
</g>
<!-- Analysis&#45;&gt;ExploitRE -->
<g id="edge5" class="edge">
<title>Analysis&#45;&gt;ExploitRE</title>
<path fill="none" stroke="black" d="M88.4,-219.4C94.81,-208.32 101.31,-195.01 104.71,-182 109.94,-161.97 110.3,-138.58 109.42,-120.66"/>
<polygon fill="black" stroke="black" points="112.92,-120.5 108.76,-110.75 105.93,-120.96 112.92,-120.5"/>
</g>
<!-- FuzzRE&#45;&gt;ExploitRE -->
<g id="edge6" class="edge">
<title>FuzzRE&#45;&gt;ExploitRE</title>
<path fill="none" stroke="black" d="M65.78,-145.81C72.15,-137.44 79.94,-127.2 87.01,-117.9"/>
<polygon fill="black" stroke="black" points="89.58,-120.31 92.84,-110.23 84,-116.07 89.58,-120.31"/>
</g>
<!-- Test -->
<g id="node7" class="node">
<title>Test</title>
<path fill="none" stroke="black" d="M172.21,-36C172.21,-36 111.21,-36 111.21,-36 105.21,-36 99.21,-30 99.21,-24 99.21,-24 99.21,-12 99.21,-12 99.21,-6 105.21,0 111.21,0 111.21,0 172.21,0 172.21,0 178.21,0 184.21,-6 184.21,-12 184.21,-12 184.21,-24 184.21,-24 184.21,-30 178.21,-36 172.21,-36"/>
<text xml:space="preserve" text-anchor="middle" x="141.71" y="-14.7" font-family="Arial" font-size="9.00">Validate in REPL</text>
</g>
<!-- ExploitRE&#45;&gt;Test -->
<g id="edge7" class="edge">
<title>ExploitRE&#45;&gt;Test</title>
<path fill="none" stroke="black" d="M115.18,-72.81C119.14,-64.79 123.94,-55.05 128.37,-46.07"/>
<polygon fill="black" stroke="black" points="131.36,-47.9 132.65,-37.39 125.09,-44.81 131.36,-47.9"/>
</g>
<!-- Test&#45;&gt;Binary -->
<g id="edge8" class="edge">
<title>Test&#45;&gt;Binary</title>
<path fill="none" stroke="black" d="M156.35,-36.45C166.32,-50.12 177.71,-70.1 177.71,-90 177.71,-414.36 177.71,-414.36 177.71,-414.36 177.71,-433.07 168.43,-451.61 158.49,-466.1"/>
<polygon fill="black" stroke="black" points="155.95,-463.65 152.85,-473.78 161.59,-467.79 155.95,-463.65"/>
<text xml:space="preserve" text-anchor="middle" x="205.84" y="-241.88" font-family="Times,serif" font-size="14.00">re&#45;analyze</text>
</g>
</g>
</svg>
