<?xml version="1.0" encoding="UTF-8" standalone="no"?>
<!DOCTYPE svg PUBLIC "-//W3C//DTD SVG 1.1//EN"
 "http://www.w3.org/Graphics/SVG/1.1/DTD/svg11.dtd">
<!-- Generated by graphviz version 14.1.2 (0)
 -->
<!-- Title: PWN_RE Pages: 1 -->
<svg width="971pt" height="300pt"
 viewBox="0.00 0.00 971.00 300.00" xmlns="http://www.w3.org/2000/svg" xmlns:xlink="http://www.w3.org/1999/xlink">
<g id="graph0" class="graph" transform="scale(1 1) rotate(0) translate(43.2 257.2)">
<title>PWN_RE</title>
<polygon fill="#0f172a" stroke="none" points="-43.2,43.2 -43.2,-257.2 927.45,-257.2 927.45,43.2 -43.2,43.2"/>
<text xml:space="preserve" text-anchor="start" x="241.12" y="-192" font-family="sans-Serif" font-weight="bold" font-size="20.00" fill="#e2e8f0">Reverse Engineering &amp; Binary Exploitation</text>
<text xml:space="preserve" text-anchor="start" x="317.25" y="-180.55" font-family="sans-Serif" font-size="11.00" fill="#94a3b8">pwn&#45;asm · Assembly · XXD · FFI · Radare2 banners</text>
<g id="clust1" class="cluster">
<title>cluster_static</title>
<path fill="#022c22" stroke="#047857" d="M202,-14C202,-14 323.25,-14 323.25,-14 329.25,-14 335.25,-20 335.25,-26 335.25,-26 335.25,-153 335.25,-153 335.25,-159 329.25,-165 323.25,-165 323.25,-165 202,-165 202,-165 196,-165 190,-159 190,-153 190,-153 190,-26 190,-26 190,-20 196,-14 202,-14"/>
<text xml:space="preserve" text-anchor="middle" x="262.62" y="-142" font-family="sans-Serif" font-size="20.00" fill="#a7f3d0">Static</text>
</g>
<g id="clust2" class="cluster">
<title>cluster_disasm</title>
<path fill="#422006" stroke="#a16207" d="M417.25,-8C417.25,-8 523.25,-8 523.25,-8 529.25,-8 535.25,-14 535.25,-20 535.25,-20 535.25,-155 535.25,-155 535.25,-161 529.25,-167 523.25,-167 523.25,-167 417.25,-167 417.25,-167 411.25,-167 405.25,-161 405.25,-155 405.25,-155 405.25,-20 405.25,-20 405.25,-14 411.25,-8 417.25,-8"/>
<text xml:space="preserve" text-anchor="middle" x="470.25" y="-144" font-family="sans-Serif" font-size="20.00" fill="#fde68a">Disassemble</text>
</g>
<g id="clust3" class="cluster">
<title>cluster_dyn</title>
<path fill="#450a0a" stroke="#b91c1c" d="M617.25,-14C617.25,-14 698.75,-14 698.75,-14 704.75,-14 710.75,-20 710.75,-26 710.75,-26 710.75,-153 710.75,-153 710.75,-159 704.75,-165 698.75,-165 698.75,-165 617.25,-165 617.25,-165 611.25,-165 605.25,-159 605.25,-153 605.25,-153 605.25,-26 605.25,-26 605.25,-20 611.25,-14 617.25,-14"/>
<text xml:space="preserve" text-anchor="middle" x="658" y="-142" font-family="sans-Serif" font-size="20.00" fill="#fecaca">Dynamic</text>
</g>
<!-- Bin -->
<g id="node1" class="node">
<title>Bin</title>
<path fill="#7dd3fc" stroke="#334155" stroke-width="1.3" d="M100,-92C100,-92 12,-92 12,-92 6,-92 0,-86 0,-80 0,-80 0,-68 0,-68 0,-62 6,-56 12,-56 12,-56 100,-56 100,-56 106,-56 112,-62 112,-68 112,-68 112,-80 112,-80 112,-86 106,-92 100,-92"/>
<text xml:space="preserve" text-anchor="middle" x="56" y="-70.88" font-family="sans-Serif" font-size="10.00" fill="#0f172a">🔎 &#160;Binary / Firmware</text>
</g>
<!-- XXD -->
<g id="node2" class="node">
<title>XXD</title>
<path fill="#6ee7b7" stroke="#334155" stroke-width="1.3" d="M296.5,-58C296.5,-58 228.75,-58 228.75,-58 222.75,-58 216.75,-52 216.75,-46 216.75,-46 216.75,-34 216.75,-34 216.75,-28 222.75,-22 228.75,-22 228.75,-22 296.5,-22 296.5,-22 302.5,-22 308.5,-28 308.5,-34 308.5,-34 308.5,-46 308.5,-46 308.5,-52 302.5,-58 296.5,-58"/>
<text xml:space="preserve" text-anchor="middle" x="262.62" y="-42.5" font-family="sans-Serif" font-size="10.00" fill="#0f172a">Plugins::XXD</text>
<text xml:space="preserve" text-anchor="middle" x="262.62" y="-30.5" font-family="sans-Serif" font-size="10.00" fill="#0f172a">hex dump / patch</text>
</g>
<!-- Bin&#45;&gt;XXD -->
<g id="edge1" class="edge">
<title>Bin&#45;&gt;XXD</title>
<path fill="none" stroke="#38bdf8" stroke-width="1.3" d="M112.64,-64.75C141.88,-59.9 177.6,-53.96 206.73,-49.12"/>
<polygon fill="#38bdf8" stroke="#38bdf8" stroke-width="1.3" points="206.96,-51.92 214.39,-47.85 206.04,-46.4 206.96,-51.92"/>
</g>
<!-- BDBA -->
<g id="node3" class="node">
<title>BDBA</title>
<path fill="#6ee7b7" stroke="#334155" stroke-width="1.3" d="M315.25,-126C315.25,-126 210,-126 210,-126 204,-126 198,-120 198,-114 198,-114 198,-102 198,-102 198,-96 204,-90 210,-90 210,-90 315.25,-90 315.25,-90 321.25,-90 327.25,-96 327.25,-102 327.25,-102 327.25,-114 327.25,-114 327.25,-120 321.25,-126 315.25,-126"/>
<text xml:space="preserve" text-anchor="middle" x="262.62" y="-110.5" font-family="sans-Serif" font-size="10.00" fill="#0f172a">BlackDuckBinaryAnalysis</text>
<text xml:space="preserve" text-anchor="middle" x="262.62" y="-98.5" font-family="sans-Serif" font-size="10.00" fill="#0f172a">SBOM · CVE match</text>
</g>
<!-- Bin&#45;&gt;BDBA -->
<g id="edge2" class="edge">
<title>Bin&#45;&gt;BDBA</title>
<path fill="none" stroke="#38bdf8" stroke-width="1.3" d="M112.64,-83.25C135.84,-87.1 163.1,-91.63 187.93,-95.75"/>
<polygon fill="#38bdf8" stroke="#38bdf8" stroke-width="1.3" points="187.38,-98.5 195.73,-97.05 188.29,-92.98 187.38,-98.5"/>
</g>
<!-- Asm -->
<g id="node4" class="node">
<title>Asm</title>
<path fill="#fcd34d" stroke="#334155" stroke-width="1.3" d="M506.62,-60C506.62,-60 432.88,-60 432.88,-60 426.88,-60 420.88,-54 420.88,-48 420.88,-48 420.88,-28 420.88,-28 420.88,-22 426.88,-16 432.88,-16 432.88,-16 506.62,-16 506.62,-16 512.62,-16 518.62,-22 518.62,-28 518.62,-28 518.62,-48 518.62,-48 518.62,-54 512.62,-60 506.62,-60"/>
<text xml:space="preserve" text-anchor="middle" x="469.75" y="-46.5" font-family="sans-Serif" font-size="10.00" fill="#0f172a">Plugins::Assembly</text>
<text xml:space="preserve" text-anchor="middle" x="469.75" y="-34.5" font-family="sans-Serif" font-size="10.00" fill="#0f172a">opcodes ↔ asm</text>
<text xml:space="preserve" text-anchor="middle" x="469.75" y="-22.5" font-family="sans-Serif" font-size="10.00" fill="#0f172a">multi&#45;arch</text>
</g>
<!-- XXD&#45;&gt;Asm -->
<g id="edge3" class="edge">
<title>XXD&#45;&gt;Asm</title>
<path fill="none" stroke="#f59e0b" stroke-width="1.3" d="M309.15,-39.56C339.1,-39.26 378.56,-38.88 410.76,-38.57"/>
<polygon fill="#f59e0b" stroke="#f59e0b" stroke-width="1.3" points="410.56,-41.37 418.53,-38.49 410.5,-35.77 410.56,-41.37"/>
</g>
<!-- PwnAsm -->
<g id="node5" class="node">
<title>PwnAsm</title>
<path fill="#fcd34d" stroke="#334155" stroke-width="1.3" d="M505.88,-128C505.88,-128 433.62,-128 433.62,-128 427.62,-128 421.62,-122 421.62,-116 421.62,-116 421.62,-104 421.62,-104 421.62,-98 427.62,-92 433.62,-92 433.62,-92 505.88,-92 505.88,-92 511.88,-92 517.88,-98 517.88,-104 517.88,-104 517.88,-116 517.88,-116 517.88,-122 511.88,-128 505.88,-128"/>
<text xml:space="preserve" text-anchor="middle" x="469.75" y="-112.5" font-family="sans-Serif" font-size="10.00" fill="#0f172a">pwn&#45;asm REPL</text>
<text xml:space="preserve" text-anchor="middle" x="469.75" y="-100.5" font-family="sans-Serif" font-size="10.00" fill="#0f172a">multiline shellcode</text>
</g>
<!-- BDBA&#45;&gt;PwnAsm -->
<g id="edge4" class="edge">
<title>BDBA&#45;&gt;PwnAsm</title>
<path fill="none" stroke="#f59e0b" stroke-width="1.3" d="M327.68,-108.62C354.47,-108.89 385.36,-109.19 411.39,-109.44"/>
<polygon fill="#f59e0b" stroke="#f59e0b" stroke-width="1.3" points="411.12,-112.24 419.14,-109.52 411.17,-106.64 411.12,-112.24"/>
</g>
<!-- FFI -->
<g id="node6" class="node">
<title>FFI</title>
<path fill="#fda4af" stroke="#334155" stroke-width="1.3" d="M690.75,-58C690.75,-58 625.25,-58 625.25,-58 619.25,-58 613.25,-52 613.25,-46 613.25,-46 613.25,-34 613.25,-34 613.25,-28 619.25,-22 625.25,-22 625.25,-22 690.75,-22 690.75,-22 696.75,-22 702.75,-28 702.75,-34 702.75,-34 702.75,-46 702.75,-46 702.75,-52 696.75,-58 690.75,-58"/>
<text xml:space="preserve" text-anchor="middle" x="658" y="-42.5" font-family="sans-Serif" font-size="10.00" fill="#0f172a">PWN::FFI::Stdio</text>
<text xml:space="preserve" text-anchor="middle" x="658" y="-30.5" font-family="sans-Serif" font-size="10.00" fill="#0f172a">native calls</text>
</g>
<!-- Asm&#45;&gt;FFI -->
<g id="edge5" class="edge">
<title>Asm&#45;&gt;FFI</title>
<path fill="none" stroke="#fb7185" stroke-width="1.3" d="M519.2,-38.52C544.81,-38.8 576.34,-39.13 602.76,-39.42"/>
<polygon fill="#fb7185" stroke="#fb7185" stroke-width="1.3" points="602.62,-42.22 610.65,-39.5 602.68,-36.62 602.62,-42.22"/>
</g>
<!-- Fuzz -->
<g id="node7" class="node">
<title>Fuzz</title>
<path fill="#fda4af" stroke="#334155" stroke-width="1.3" d="M690.38,-126C690.38,-126 625.62,-126 625.62,-126 619.62,-126 613.62,-120 613.62,-114 613.62,-114 613.62,-102 613.62,-102 613.62,-96 619.62,-90 625.62,-90 625.62,-90 690.38,-90 690.38,-90 696.38,-90 702.38,-96 702.38,-102 702.38,-102 702.38,-114 702.38,-114 702.38,-120 696.38,-126 690.38,-126"/>
<text xml:space="preserve" text-anchor="middle" x="658" y="-110.5" font-family="sans-Serif" font-size="10.00" fill="#0f172a">Plugins::Fuzz</text>
<text xml:space="preserve" text-anchor="middle" x="658" y="-98.5" font-family="sans-Serif" font-size="10.00" fill="#0f172a">targeted crashes</text>
</g>
<!-- PwnAsm&#45;&gt;Fuzz -->
<g id="edge6" class="edge">
<title>PwnAsm&#45;&gt;Fuzz</title>
<path fill="none" stroke="#fb7185" stroke-width="1.3" d="M518.23,-109.49C544.24,-109.21 576.57,-108.86 603.47,-108.57"/>
<polygon fill="#fb7185" stroke="#fb7185" stroke-width="1.3" points="603.18,-111.38 611.15,-108.49 603.12,-105.78 603.18,-111.38"/>
</g>
<!-- Xpl -->
<g id="node8" class="node">
<title>Xpl</title>
<path fill="#c4b5fd" stroke="#334155" stroke-width="1.3" d="M872.25,-92C872.25,-92 800.75,-92 800.75,-92 794.75,-92 788.75,-86 788.75,-80 788.75,-80 788.75,-68 788.75,-68 788.75,-62 794.75,-56 800.75,-56 800.75,-56 872.25,-56 872.25,-56 878.25,-56 884.25,-62 884.25,-68 884.25,-68 884.25,-80 884.25,-80 884.25,-86 878.25,-92 872.25,-92"/>
<text xml:space="preserve" text-anchor="middle" x="836.5" y="-76.5" font-family="sans-Serif" font-size="10.00" fill="#0f172a">Exploit PoC</text>
<text xml:space="preserve" text-anchor="middle" x="836.5" y="-64.5" font-family="sans-Serif" font-size="10.00" fill="#0f172a">Metasploit module</text>
</g>
<!-- FFI&#45;&gt;Xpl -->
<g id="edge7" class="edge">
<title>FFI&#45;&gt;Xpl</title>
<path fill="none" stroke="#a78bfa" stroke-width="1.3" d="M703.08,-48.49C725.98,-52.9 754.22,-58.34 778.73,-63.06"/>
<polygon fill="#a78bfa" stroke="#a78bfa" stroke-width="1.3" points="777.95,-65.77 786.34,-64.53 779.01,-60.27 777.95,-65.77"/>
</g>
<!-- Fuzz&#45;&gt;Xpl -->
<g id="edge8" class="edge">
<title>Fuzz&#45;&gt;Xpl</title>
<path fill="none" stroke="#a78bfa" stroke-width="1.3" d="M702.63,-99.6C725.61,-95.17 754.07,-89.69 778.75,-84.93"/>
<polygon fill="#a78bfa" stroke="#a78bfa" stroke-width="1.3" points="779.09,-87.72 786.42,-83.45 778.03,-82.22 779.09,-87.72"/>
</g>
</g>
</svg>
