<?xml version="1.0" encoding="UTF-8" standalone="no"?>
<!DOCTYPE svg PUBLIC "-//W3C//DTD SVG 1.1//EN"
 "http://www.w3.org/Graphics/SVG/1.1/DTD/svg11.dtd">
<!-- Generated by graphviz version 14.1.2 (0)
 -->
<!-- Title: PWN_SDR Pages: 1 -->
<svg width="784pt" height="368pt"
 viewBox="0.00 0.00 784.00 368.00" xmlns="http://www.w3.org/2000/svg" xmlns:xlink="http://www.w3.org/1999/xlink">
<g id="graph0" class="graph" transform="scale(1 1) rotate(0) translate(43.2 325.2)">
<title>PWN_SDR</title>
<polygon fill="#0f172a" stroke="none" points="-43.2,43.2 -43.2,-325.2 740.45,-325.2 740.45,43.2 -43.2,43.2"/>
<text xml:space="preserve" text-anchor="start" x="103.38" y="-260" font-family="sans-Serif" font-weight="bold" font-size="20.00" fill="#e2e8f0">PWN::SDR — Software&#45;Defined Radio &amp; RF Hacking</text>
<text xml:space="preserve" text-anchor="start" x="196" y="-248.55" font-family="sans-Serif" font-size="11.00" fill="#94a3b8">GQRX · FlipperZero · RFIDler · SonMicro · FrequencyAllocation</text>
<g id="clust1" class="cluster">
<title>cluster_hw</title>
<path fill="#022c22" stroke="#047857" d="M183.25,-16C183.25,-16 280.5,-16 280.5,-16 286.5,-16 292.5,-22 292.5,-28 292.5,-28 292.5,-223 292.5,-223 292.5,-229 286.5,-235 280.5,-235 280.5,-235 183.25,-235 183.25,-235 177.25,-235 171.25,-229 171.25,-223 171.25,-223 171.25,-28 171.25,-28 171.25,-22 177.25,-16 183.25,-16"/>
<text xml:space="preserve" text-anchor="middle" x="231.88" y="-212" font-family="sans-Serif" font-size="20.00" fill="#a7f3d0">Hardware</text>
</g>
<g id="clust2" class="cluster">
<title>cluster_ctrl</title>
<path fill="#422006" stroke="#a16207" d="M374.5,-8C374.5,-8 498.75,-8 498.75,-8 504.75,-8 510.75,-14 510.75,-20 510.75,-20 510.75,-223 510.75,-223 510.75,-229 504.75,-235 498.75,-235 498.75,-235 374.5,-235 374.5,-235 368.5,-235 362.5,-229 362.5,-223 362.5,-223 362.5,-20 362.5,-20 362.5,-14 368.5,-8 374.5,-8"/>
<text xml:space="preserve" text-anchor="middle" x="436.62" y="-212" font-family="sans-Serif" font-size="20.00" fill="#fde68a">Control</text>
</g>
<g id="clust3" class="cluster">
<title>cluster_dec</title>
<path fill="#2e1065" stroke="#6d28d9" d="M592.75,-84C592.75,-84 677.25,-84 677.25,-84 683.25,-84 689.25,-90 689.25,-96 689.25,-96 689.25,-223 689.25,-223 689.25,-229 683.25,-235 677.25,-235 677.25,-235 592.75,-235 592.75,-235 586.75,-235 580.75,-229 580.75,-223 580.75,-223 580.75,-96 580.75,-96 580.75,-90 586.75,-84 592.75,-84"/>
<text xml:space="preserve" text-anchor="middle" x="635" y="-212" font-family="sans-Serif" font-size="20.00" fill="#ddd6fe">Decode</text>
</g>
<!-- RF -->
<g id="node1" class="node">
<title>RF</title>
<path fill="#fda4af" stroke="#334155" stroke-width="1.3" d="M81.25,-128C81.25,-128 12,-128 12,-128 6,-128 0,-122 0,-116 0,-116 0,-104 0,-104 0,-98 6,-92 12,-92 12,-92 81.25,-92 81.25,-92 87.25,-92 93.25,-98 93.25,-104 93.25,-104 93.25,-116 93.25,-116 93.25,-122 87.25,-128 81.25,-128"/>
<text xml:space="preserve" text-anchor="middle" x="46.62" y="-106.88" font-family="sans-Serif" font-size="10.00" fill="#0f172a">📡 &#160;RF Spectrum</text>
</g>
<!-- SDRhw -->
<g id="node2" class="node">
<title>SDRhw</title>
<path fill="#6ee7b7" stroke="#334155" stroke-width="1.3" d="M272.5,-60C272.5,-60 191.25,-60 191.25,-60 185.25,-60 179.25,-54 179.25,-48 179.25,-48 179.25,-36 179.25,-36 179.25,-30 185.25,-24 191.25,-24 191.25,-24 272.5,-24 272.5,-24 278.5,-24 284.5,-30 284.5,-36 284.5,-36 284.5,-48 284.5,-48 284.5,-54 278.5,-60 272.5,-60"/>
<text xml:space="preserve" text-anchor="middle" x="231.88" y="-44.5" font-family="sans-Serif" font-size="10.00" fill="#0f172a">RTL&#45;SDR / HackRF</text>
<text xml:space="preserve" text-anchor="middle" x="231.88" y="-32.5" font-family="sans-Serif" font-size="10.00" fill="#0f172a">(via GQRX)</text>
</g>
<!-- RF&#45;&gt;SDRhw -->
<g id="edge1" class="edge">
<title>RF&#45;&gt;SDRhw</title>
<path fill="none" stroke="#fb7185" stroke-width="1.3" d="M93.87,-92.84C117.47,-84.08 146.46,-73.32 171.68,-63.97"/>
<polygon fill="#fb7185" stroke="#fb7185" stroke-width="1.3" points="172.42,-66.68 178.94,-61.27 170.47,-61.43 172.42,-66.68"/>
</g>
<!-- Flipper -->
<g id="node3" class="node">
<title>Flipper</title>
<path fill="#6ee7b7" stroke="#334155" stroke-width="1.3" d="M266.12,-128C266.12,-128 197.62,-128 197.62,-128 191.62,-128 185.62,-122 185.62,-116 185.62,-116 185.62,-104 185.62,-104 185.62,-98 191.62,-92 197.62,-92 197.62,-92 266.12,-92 266.12,-92 272.12,-92 278.12,-98 278.12,-104 278.12,-104 278.12,-116 278.12,-116 278.12,-122 272.12,-128 266.12,-128"/>
<text xml:space="preserve" text-anchor="middle" x="231.88" y="-106.5" font-family="sans-Serif" font-size="10.00" fill="#0f172a">SDR::FlipperZero</text>
</g>
<!-- RF&#45;&gt;Flipper -->
<g id="edge2" class="edge">
<title>RF&#45;&gt;Flipper</title>
<path fill="none" stroke="#fb7185" stroke-width="1.3" d="M93.87,-110C118.69,-110 149.45,-110 175.54,-110"/>
<polygon fill="#fb7185" stroke="#fb7185" stroke-width="1.3" points="175.32,-112.8 183.32,-110 175.32,-107.2 175.32,-112.8"/>
</g>
<!-- RFID -->
<g id="node4" class="node">
<title>RFID</title>
<path fill="#6ee7b7" stroke="#334155" stroke-width="1.3" d="M260.5,-196C260.5,-196 203.25,-196 203.25,-196 197.25,-196 191.25,-190 191.25,-184 191.25,-184 191.25,-172 191.25,-172 191.25,-166 197.25,-160 203.25,-160 203.25,-160 260.5,-160 260.5,-160 266.5,-160 272.5,-166 272.5,-172 272.5,-172 272.5,-184 272.5,-184 272.5,-190 266.5,-196 260.5,-196"/>
<text xml:space="preserve" text-anchor="middle" x="231.88" y="-180.5" font-family="sans-Serif" font-size="10.00" fill="#0f172a">SDR::RFIDler</text>
<text xml:space="preserve" text-anchor="middle" x="231.88" y="-168.5" font-family="sans-Serif" font-size="10.00" fill="#0f172a">SonMicroRFID</text>
</g>
<!-- RF&#45;&gt;RFID -->
<g id="edge3" class="edge">
<title>RF&#45;&gt;RFID</title>
<path fill="none" stroke="#fb7185" stroke-width="1.3" d="M93.87,-127.16C120.73,-137.13 154.56,-149.68 181.88,-159.82"/>
<polygon fill="#fb7185" stroke="#fb7185" stroke-width="1.3" points="180.55,-162.31 189.03,-162.47 182.5,-157.06 180.55,-162.31"/>
</g>
<!-- GQRX -->
<g id="node5" class="node">
<title>GQRX</title>
<path fill="#fcd34d" stroke="#334155" stroke-width="1.3" d="M478.75,-60C478.75,-60 394.5,-60 394.5,-60 388.5,-60 382.5,-54 382.5,-48 382.5,-48 382.5,-28 382.5,-28 382.5,-22 388.5,-16 394.5,-16 394.5,-16 478.75,-16 478.75,-16 484.75,-16 490.75,-22 490.75,-28 490.75,-28 490.75,-48 490.75,-48 490.75,-54 484.75,-60 478.75,-60"/>
<text xml:space="preserve" text-anchor="middle" x="436.62" y="-46.5" font-family="sans-Serif" font-size="10.00" fill="#0f172a">SDR::GQRX</text>
<text xml:space="preserve" text-anchor="middle" x="436.62" y="-34.5" font-family="sans-Serif" font-size="10.00" fill="#0f172a">remote control · scan</text>
<text xml:space="preserve" text-anchor="middle" x="436.62" y="-22.5" font-family="sans-Serif" font-size="10.00" fill="#0f172a">spectrum snapshot</text>
</g>
<!-- SDRhw&#45;&gt;GQRX -->
<g id="edge4" class="edge">
<title>SDRhw&#45;&gt;GQRX</title>
<path fill="none" stroke="#f59e0b" stroke-width="1.3" d="M285.09,-40.97C311.75,-40.44 344.39,-39.8 372.46,-39.25"/>
<polygon fill="#f59e0b" stroke="#f59e0b" stroke-width="1.3" points="372.27,-42.05 380.21,-39.09 372.16,-36.45 372.27,-42.05"/>
</g>
<!-- Freq -->
<g id="node6" class="node">
<title>Freq</title>
<path fill="#fcd34d" stroke="#334155" stroke-width="1.3" d="M490.75,-128C490.75,-128 382.5,-128 382.5,-128 376.5,-128 370.5,-122 370.5,-116 370.5,-116 370.5,-104 370.5,-104 370.5,-98 376.5,-92 382.5,-92 382.5,-92 490.75,-92 490.75,-92 496.75,-92 502.75,-98 502.75,-104 502.75,-104 502.75,-116 502.75,-116 502.75,-122 496.75,-128 490.75,-128"/>
<text xml:space="preserve" text-anchor="middle" x="436.62" y="-112.5" font-family="sans-Serif" font-size="10.00" fill="#0f172a">SDR::FrequencyAllocation</text>
<text xml:space="preserve" text-anchor="middle" x="436.62" y="-100.5" font-family="sans-Serif" font-size="10.00" fill="#0f172a">band lookup</text>
</g>
<!-- Flipper&#45;&gt;Freq -->
<g id="edge5" class="edge">
<title>Flipper&#45;&gt;Freq</title>
<path fill="none" stroke="#f59e0b" stroke-width="1.3" d="M278.63,-110C302.66,-110 332.72,-110 360.1,-110"/>
<polygon fill="#f59e0b" stroke="#f59e0b" stroke-width="1.3" points="360.08,-112.8 368.08,-110 360.08,-107.2 360.08,-112.8"/>
</g>
<!-- Scan -->
<g id="node7" class="node">
<title>Scan</title>
<path fill="#fcd34d" stroke="#334155" stroke-width="1.3" d="M481.38,-196C481.38,-196 391.88,-196 391.88,-196 385.88,-196 379.88,-190 379.88,-184 379.88,-184 379.88,-172 379.88,-172 379.88,-166 385.88,-160 391.88,-160 391.88,-160 481.38,-160 481.38,-160 487.38,-160 493.38,-166 493.38,-172 493.38,-172 493.38,-184 493.38,-184 493.38,-190 487.38,-196 481.38,-196"/>
<text xml:space="preserve" text-anchor="middle" x="436.62" y="-180.5" font-family="sans-Serif" font-size="10.00" fill="#0f172a">bin/pwn_gqrx_scanner</text>
<text xml:space="preserve" text-anchor="middle" x="436.62" y="-168.5" font-family="sans-Serif" font-size="10.00" fill="#0f172a">fast · iterative</text>
</g>
<!-- RFID&#45;&gt;Scan -->
<g id="edge6" class="edge">
<title>RFID&#45;&gt;Scan</title>
<path fill="none" stroke="#f59e0b" stroke-width="1.3" d="M272.93,-178C300.54,-178 337.87,-178 369.81,-178"/>
<polygon fill="#f59e0b" stroke="#f59e0b" stroke-width="1.3" points="369.57,-180.8 377.57,-178 369.57,-175.2 369.57,-180.8"/>
</g>
<!-- Dec -->
<g id="node8" class="node">
<title>Dec</title>
<path fill="#c4b5fd" stroke="#334155" stroke-width="1.3" d="M668.12,-128C668.12,-128 601.88,-128 601.88,-128 595.88,-128 589.88,-122 589.88,-116 589.88,-116 589.88,-104 589.88,-104 589.88,-98 595.88,-92 601.88,-92 601.88,-92 668.12,-92 668.12,-92 674.12,-92 680.12,-98 680.12,-104 680.12,-104 680.12,-116 680.12,-116 680.12,-122 674.12,-128 668.12,-128"/>
<text xml:space="preserve" text-anchor="middle" x="635" y="-112.5" font-family="sans-Serif" font-size="10.00" fill="#0f172a">SDR::Decoder::*</text>
<text xml:space="preserve" text-anchor="middle" x="635" y="-100.5" font-family="sans-Serif" font-size="10.00" fill="#0f172a">demod · protocol</text>
</g>
<!-- GQRX&#45;&gt;Dec -->
<g id="edge7" class="edge">
<title>GQRX&#45;&gt;Dec</title>
<path fill="none" stroke="#a78bfa" stroke-width="1.3" d="M491.29,-57.67C518.93,-67.81 552.56,-80.14 580.23,-90.28"/>
<polygon fill="#a78bfa" stroke="#a78bfa" stroke-width="1.3" points="579.04,-92.83 587.52,-92.96 580.97,-87.57 579.04,-92.83"/>
</g>
<!-- Freq&#45;&gt;Dec -->
<g id="edge8" class="edge">
<title>Freq&#45;&gt;Dec</title>
<path fill="none" stroke="#a78bfa" stroke-width="1.3" d="M503.29,-110C528.07,-110 555.97,-110 579.6,-110"/>
<polygon fill="#a78bfa" stroke="#a78bfa" stroke-width="1.3" points="579.48,-112.8 587.48,-110 579.48,-107.2 579.48,-112.8"/>
</g>
<!-- Obs -->
<g id="node9" class="node">
<title>Obs</title>
<path fill="#c4b5fd" stroke="#334155" stroke-width="1.3" d="M669.25,-196C669.25,-196 600.75,-196 600.75,-196 594.75,-196 588.75,-190 588.75,-184 588.75,-184 588.75,-172 588.75,-172 588.75,-166 594.75,-160 600.75,-160 600.75,-160 669.25,-160 669.25,-160 675.25,-160 681.25,-166 681.25,-172 681.25,-172 681.25,-184 681.25,-184 681.25,-190 675.25,-196 669.25,-196"/>
<text xml:space="preserve" text-anchor="middle" x="635" y="-180.5" font-family="sans-Serif" font-size="10.00" fill="#0f172a">extro_observe</text>
<text xml:space="preserve" text-anchor="middle" x="635" y="-168.5" font-family="sans-Serif" font-size="10.00" fill="#0f172a">record signal intel</text>
</g>
<!-- Scan&#45;&gt;Obs -->
<g id="edge9" class="edge">
<title>Scan&#45;&gt;Obs</title>
<path fill="none" stroke="#a78bfa" stroke-width="1.3" d="M493.9,-178C520.43,-178 551.99,-178 578.43,-178"/>
<polygon fill="#a78bfa" stroke="#a78bfa" stroke-width="1.3" points="578.32,-180.8 586.32,-178 578.32,-175.2 578.32,-180.8"/>
</g>
</g>
</svg>
