<?xml version="1.0" encoding="UTF-8" standalone="no"?>
<!DOCTYPE svg PUBLIC "-//W3C//DTD SVG 1.1//EN"
 "http://www.w3.org/Graphics/SVG/1.1/DTD/svg11.dtd">
<!-- Generated by graphviz version 14.1.2 (0)
 -->
<!-- Title: PWN_SDR Pages: 1 -->
<svg width="917pt" height="599pt"
 viewBox="0.00 0.00 917.00 599.00" xmlns="http://www.w3.org/2000/svg" xmlns:xlink="http://www.w3.org/1999/xlink">
<g id="graph0" class="graph" transform="scale(1 1) rotate(0) translate(43.2 556.2)">
<title>PWN_SDR</title>
<polygon fill="#0f172a" stroke="none" points="-43.2,43.2 -43.2,-556.2 873.45,-556.2 873.45,43.2 -43.2,43.2"/>
<text xml:space="preserve" text-anchor="start" x="169.88" y="-491" font-family="Helvetica,sans-Serif" font-weight="bold" font-size="20.00" fill="#e2e8f0">PWN::SDR — Software&#45;Defined Radio &amp; RF Hacking</text>
<text xml:space="preserve" text-anchor="start" x="197.62" y="-479.55" font-family="Helvetica,sans-Serif" font-size="11.00" fill="#94a3b8">GQRX · FlipperZero · RFIDler · SonMicro · FrequencyAllocation · Decoder::* (20 protocols)</text>
<g id="clust1" class="cluster">
<title>cluster_hw</title>
<path fill="#022c22" stroke="#047857" d="M228.5,-239C228.5,-239 346,-239 346,-239 352,-239 358,-245 358,-251 358,-251 358,-446 358,-446 358,-452 352,-458 346,-458 346,-458 228.5,-458 228.5,-458 222.5,-458 216.5,-452 216.5,-446 216.5,-446 216.5,-251 216.5,-251 216.5,-245 222.5,-239 228.5,-239"/>
<text xml:space="preserve" text-anchor="middle" x="287.25" y="-435" font-family="Helvetica,sans-Serif" font-size="20.00" fill="#a7f3d0">Hardware</text>
</g>
<g id="clust2" class="cluster">
<title>cluster_ctrl</title>
<path fill="#422006" stroke="#a16207" d="M440,-219C440,-219 564.25,-219 564.25,-219 570.25,-219 576.25,-225 576.25,-231 576.25,-231 576.25,-454 576.25,-454 576.25,-460 570.25,-466 564.25,-466 564.25,-466 440,-466 440,-466 434,-466 428,-460 428,-454 428,-454 428,-231 428,-231 428,-225 434,-219 440,-219"/>
<text xml:space="preserve" text-anchor="middle" x="502.12" y="-443" font-family="Helvetica,sans-Serif" font-size="20.00" fill="#fde68a">Control · Scan</text>
</g>
<g id="clust3" class="cluster">
<title>cluster_dec</title>
<path fill="#2e1065" stroke="#6d28d9" d="M20,-8C20,-8 810.25,-8 810.25,-8 816.25,-8 822.25,-14 822.25,-20 822.25,-20 822.25,-199 822.25,-199 822.25,-205 816.25,-211 810.25,-211 810.25,-211 20,-211 20,-211 14,-211 8,-205 8,-199 8,-199 8,-20 8,-20 8,-14 14,-8 20,-8"/>
<text xml:space="preserve" text-anchor="middle" x="415.12" y="-188" font-family="Helvetica,sans-Serif" font-size="20.00" fill="#ddd6fe">Decode · Record</text>
</g>
<!-- RF -->
<g id="node1" class="node">
<title>RF</title>
<path fill="#fda4af" stroke="#334155" stroke-width="1.3" d="M111.88,-351C111.88,-351 42.62,-351 42.62,-351 36.62,-351 30.62,-345 30.62,-339 30.62,-339 30.62,-327 30.62,-327 30.62,-321 36.62,-315 42.62,-315 42.62,-315 111.88,-315 111.88,-315 117.88,-315 123.88,-321 123.88,-327 123.88,-327 123.88,-339 123.88,-339 123.88,-345 117.88,-351 111.88,-351"/>
<text xml:space="preserve" text-anchor="middle" x="77.25" y="-329.88" font-family="Helvetica,sans-Serif" font-size="10.00" fill="#0f172a">📡 &#160;RF Spectrum</text>
</g>
<!-- SDRhw -->
<g id="node2" class="node">
<title>SDRhw</title>
<path fill="#6ee7b7" stroke="#334155" stroke-width="1.3" d="M338,-283C338,-283 236.5,-283 236.5,-283 230.5,-283 224.5,-277 224.5,-271 224.5,-271 224.5,-259 224.5,-259 224.5,-253 230.5,-247 236.5,-247 236.5,-247 338,-247 338,-247 344,-247 350,-253 350,-259 350,-259 350,-271 350,-271 350,-277 344,-283 338,-283"/>
<text xml:space="preserve" text-anchor="middle" x="287.25" y="-267.5" font-family="Helvetica,sans-Serif" font-size="10.00" fill="#0f172a">RTL&#45;SDR / HackRF</text>
<text xml:space="preserve" text-anchor="middle" x="287.25" y="-255.5" font-family="Helvetica,sans-Serif" font-size="10.00" fill="#0f172a">(via GQRX / SoapySDR)</text>
</g>
<!-- RF&#45;&gt;SDRhw -->
<g id="edge1" class="edge">
<title>RF&#45;&gt;SDRhw</title>
<path fill="none" stroke="#fb7185" stroke-width="1.3" d="M124.41,-317.91C152.63,-308.69 189.17,-296.74 220.38,-286.53"/>
<polygon fill="#fb7185" stroke="#fb7185" stroke-width="1.3" points="220.86,-289.32 227.59,-284.18 219.12,-284 220.86,-289.32"/>
</g>
<!-- Flipper -->
<g id="node3" class="node">
<title>Flipper</title>
<path fill="#6ee7b7" stroke="#334155" stroke-width="1.3" d="M321.5,-351C321.5,-351 253,-351 253,-351 247,-351 241,-345 241,-339 241,-339 241,-327 241,-327 241,-321 247,-315 253,-315 253,-315 321.5,-315 321.5,-315 327.5,-315 333.5,-321 333.5,-327 333.5,-327 333.5,-339 333.5,-339 333.5,-345 327.5,-351 321.5,-351"/>
<text xml:space="preserve" text-anchor="middle" x="287.25" y="-329.5" font-family="Helvetica,sans-Serif" font-size="10.00" fill="#0f172a">SDR::FlipperZero</text>
</g>
<!-- RF&#45;&gt;Flipper -->
<g id="edge2" class="edge">
<title>RF&#45;&gt;Flipper</title>
<path fill="none" stroke="#fb7185" stroke-width="1.3" d="M124.41,-333C155.89,-333 197.74,-333 231,-333"/>
<polygon fill="#fb7185" stroke="#fb7185" stroke-width="1.3" points="230.61,-335.8 238.61,-333 230.61,-330.2 230.61,-335.8"/>
</g>
<!-- RFID -->
<g id="node4" class="node">
<title>RFID</title>
<path fill="#6ee7b7" stroke="#334155" stroke-width="1.3" d="M315.88,-419C315.88,-419 258.62,-419 258.62,-419 252.62,-419 246.62,-413 246.62,-407 246.62,-407 246.62,-395 246.62,-395 246.62,-389 252.62,-383 258.62,-383 258.62,-383 315.88,-383 315.88,-383 321.88,-383 327.88,-389 327.88,-395 327.88,-395 327.88,-407 327.88,-407 327.88,-413 321.88,-419 315.88,-419"/>
<text xml:space="preserve" text-anchor="middle" x="287.25" y="-403.5" font-family="Helvetica,sans-Serif" font-size="10.00" fill="#0f172a">SDR::RFIDler</text>
<text xml:space="preserve" text-anchor="middle" x="287.25" y="-391.5" font-family="Helvetica,sans-Serif" font-size="10.00" fill="#0f172a">SonMicroRFID</text>
</g>
<!-- RF&#45;&gt;RFID -->
<g id="edge3" class="edge">
<title>RF&#45;&gt;RFID</title>
<path fill="none" stroke="#fb7185" stroke-width="1.3" d="M124.27,-348.51C151.14,-357.52 185.7,-369.02 216.5,-379 223.06,-381.13 229.98,-383.34 236.8,-385.51"/>
<polygon fill="#fb7185" stroke="#fb7185" stroke-width="1.3" points="235.66,-388.09 244.14,-387.83 237.36,-382.75 235.66,-388.09"/>
</g>
<!-- GQRX -->
<g id="node5" class="node">
<title>GQRX</title>
<path fill="#fcd34d" stroke="#334155" stroke-width="1.3" d="M548.75,-283C548.75,-283 455.5,-283 455.5,-283 449.5,-283 443.5,-277 443.5,-271 443.5,-271 443.5,-239 443.5,-239 443.5,-233 449.5,-227 455.5,-227 455.5,-227 548.75,-227 548.75,-227 554.75,-227 560.75,-233 560.75,-239 560.75,-239 560.75,-271 560.75,-271 560.75,-277 554.75,-283 548.75,-283"/>
<text xml:space="preserve" text-anchor="middle" x="502.12" y="-269.5" font-family="Helvetica,sans-Serif" font-size="10.00" fill="#0f172a">SDR::GQRX</text>
<text xml:space="preserve" text-anchor="middle" x="502.12" y="-257.5" font-family="Helvetica,sans-Serif" font-size="10.00" fill="#0f172a">remote control</text>
<text xml:space="preserve" text-anchor="middle" x="502.12" y="-245.5" font-family="Helvetica,sans-Serif" font-size="10.00" fill="#0f172a">spectrum snapshot</text>
<text xml:space="preserve" text-anchor="middle" x="502.12" y="-233.5" font-family="Helvetica,sans-Serif" font-size="10.00" fill="#0f172a">(median floor · DC null)</text>
</g>
<!-- SDRhw&#45;&gt;GQRX -->
<g id="edge4" class="edge">
<title>SDRhw&#45;&gt;GQRX</title>
<path fill="none" stroke="#f59e0b" stroke-width="1.3" d="M350.39,-262.08C376.41,-260.86 406.72,-259.43 433.31,-258.19"/>
<polygon fill="#f59e0b" stroke="#f59e0b" stroke-width="1.3" points="433.09,-261 440.95,-257.83 432.83,-255.41 433.09,-261"/>
</g>
<!-- Xrf -->
<g id="node10" class="node">
<title>Xrf</title>
<path fill="#c4b5fd" stroke="#334155" stroke-width="1.3" d="M126.5,-112C126.5,-112 28,-112 28,-112 22,-112 16,-106 16,-100 16,-100 16,-88 16,-88 16,-82 22,-76 28,-76 28,-76 126.5,-76 126.5,-76 132.5,-76 138.5,-82 138.5,-88 138.5,-88 138.5,-100 138.5,-100 138.5,-106 132.5,-112 126.5,-112"/>
<text xml:space="preserve" text-anchor="middle" x="77.25" y="-96.5" font-family="Helvetica,sans-Serif" font-size="10.00" fill="#0f172a">extro_snapshot :rf</text>
<text xml:space="preserve" text-anchor="middle" x="77.25" y="-84.5" font-family="Helvetica,sans-Serif" font-size="10.00" fill="#0f172a">probe_rf → hw inventory</text>
</g>
<!-- SDRhw&#45;&gt;Xrf -->
<g id="edge10" class="edge">
<title>SDRhw&#45;&gt;Xrf</title>
<path fill="none" stroke="#fbbf24" stroke-width="1.3" stroke-dasharray="5,2" d="M223.87,-247.2C221.33,-245.89 218.86,-244.49 216.5,-243 164.82,-210.3 119.75,-153.58 96.03,-120.36"/>
<polygon fill="#fbbf24" stroke="#fbbf24" stroke-width="1.3" points="98.49,-118.99 91.6,-114.05 93.91,-122.21 98.49,-118.99"/>
</g>
<!-- Freq -->
<g id="node6" class="node">
<title>Freq</title>
<path fill="#fcd34d" stroke="#334155" stroke-width="1.3" d="M556.25,-351C556.25,-351 448,-351 448,-351 442,-351 436,-345 436,-339 436,-339 436,-327 436,-327 436,-321 442,-315 448,-315 448,-315 556.25,-315 556.25,-315 562.25,-315 568.25,-321 568.25,-327 568.25,-327 568.25,-339 568.25,-339 568.25,-345 562.25,-351 556.25,-351"/>
<text xml:space="preserve" text-anchor="middle" x="502.12" y="-335.5" font-family="Helvetica,sans-Serif" font-size="10.00" fill="#0f172a">SDR::FrequencyAllocation</text>
<text xml:space="preserve" text-anchor="middle" x="502.12" y="-323.5" font-family="Helvetica,sans-Serif" font-size="10.00" fill="#0f172a">band lookup</text>
</g>
<!-- Flipper&#45;&gt;Freq -->
<g id="edge5" class="edge">
<title>Flipper&#45;&gt;Freq</title>
<path fill="none" stroke="#f59e0b" stroke-width="1.3" d="M333.92,-333C360.7,-333 395.22,-333 425.92,-333"/>
<polygon fill="#f59e0b" stroke="#f59e0b" stroke-width="1.3" points="425.77,-335.8 433.77,-333 425.77,-330.2 425.77,-335.8"/>
</g>
<!-- Scan -->
<g id="node7" class="node">
<title>Scan</title>
<path fill="#fcd34d" stroke="#334155" stroke-width="1.3" d="M546.88,-427C546.88,-427 457.38,-427 457.38,-427 451.38,-427 445.38,-421 445.38,-415 445.38,-415 445.38,-395 445.38,-395 445.38,-389 451.38,-383 457.38,-383 457.38,-383 546.88,-383 546.88,-383 552.88,-383 558.88,-389 558.88,-395 558.88,-395 558.88,-415 558.88,-415 558.88,-421 552.88,-427 546.88,-427"/>
<text xml:space="preserve" text-anchor="middle" x="502.12" y="-413.5" font-family="Helvetica,sans-Serif" font-size="10.00" fill="#0f172a">bin/pwn_gqrx_scanner</text>
<text xml:space="preserve" text-anchor="middle" x="502.12" y="-401.5" font-family="Helvetica,sans-Serif" font-size="10.00" fill="#0f172a">&#45;&#45;fft&#45;scan · iterative</text>
<text xml:space="preserve" text-anchor="middle" x="502.12" y="-389.5" font-family="Helvetica,sans-Serif" font-size="10.00" fill="#0f172a">&#45;&#45;min&#45;snr&#45;db · &#45;&#45;avg</text>
</g>
<!-- RFID&#45;&gt;Scan -->
<g id="edge6" class="edge">
<title>RFID&#45;&gt;Scan</title>
<path fill="none" stroke="#f59e0b" stroke-width="1.3" d="M328.29,-401.75C358.34,-402.32 400.16,-403.1 435.13,-403.76"/>
<polygon fill="#f59e0b" stroke="#f59e0b" stroke-width="1.3" points="434.78,-406.55 442.83,-403.9 434.88,-400.95 434.78,-406.55"/>
</g>
<!-- Dec -->
<g id="node8" class="node">
<title>Dec</title>
<path fill="#c4b5fd" stroke="#334155" stroke-width="1.3" d="M802.25,-96C802.25,-96 666.25,-96 666.25,-96 660.25,-96 654.25,-90 654.25,-84 654.25,-84 654.25,-28 654.25,-28 654.25,-22 660.25,-16 666.25,-16 666.25,-16 802.25,-16 802.25,-16 808.25,-16 814.25,-22 814.25,-28 814.25,-28 814.25,-84 814.25,-84 814.25,-90 808.25,-96 802.25,-96"/>
<text xml:space="preserve" text-anchor="middle" x="734.25" y="-82.5" font-family="Helvetica,sans-Serif" font-size="10.00" fill="#0f172a">SDR::Decoder::*</text>
<text xml:space="preserve" text-anchor="middle" x="734.25" y="-70.5" font-family="Helvetica,sans-Serif" font-size="10.00" fill="#0f172a">ADSB · APT · BT · DECT · GPS</text>
<text xml:space="preserve" text-anchor="middle" x="734.25" y="-58.5" font-family="Helvetica,sans-Serif" font-size="10.00" fill="#0f172a">GSM · Iridium · LoRa · LTE</text>
<text xml:space="preserve" text-anchor="middle" x="734.25" y="-46.5" font-family="Helvetica,sans-Serif" font-size="10.00" fill="#0f172a">Morse · P25 · POCSAG/FLEX</text>
<text xml:space="preserve" text-anchor="middle" x="734.25" y="-34.5" font-family="Helvetica,sans-Serif" font-size="10.00" fill="#0f172a">RDS · RFID · rtl_433 · RTTY</text>
<text xml:space="preserve" text-anchor="middle" x="734.25" y="-22.5" font-family="Helvetica,sans-Serif" font-size="10.00" fill="#0f172a">WiFi · ZigBee</text>
</g>
<!-- GQRX&#45;&gt;Dec -->
<g id="edge7" class="edge">
<title>GQRX&#45;&gt;Dec</title>
<path fill="none" stroke="#a78bfa" stroke-width="1.3" d="M561.17,-233.24C566.51,-230.18 571.64,-226.77 576.25,-223 622.93,-184.83 611.7,-154.72 654.25,-112 657.34,-108.9 660.61,-105.85 664,-102.88"/>
<polygon fill="#a78bfa" stroke="#a78bfa" stroke-width="1.3" points="665.77,-105.05 670.09,-97.76 662.16,-100.77 665.77,-105.05"/>
</g>
<!-- Freq&#45;&gt;Dec -->
<g id="edge8" class="edge">
<title>Freq&#45;&gt;Dec</title>
<path fill="none" stroke="#a78bfa" stroke-width="1.3" d="M568.68,-316.86C571.37,-315.1 573.91,-313.16 576.25,-311 646.1,-246.61 595.72,-186.82 654.25,-112 656.7,-108.87 659.37,-105.84 662.19,-102.92"/>
<polygon fill="#a78bfa" stroke="#a78bfa" stroke-width="1.3" points="663.82,-105.25 667.64,-97.68 659.93,-101.22 663.82,-105.25"/>
</g>
<!-- Obs -->
<g id="node9" class="node">
<title>Obs</title>
<path fill="#c4b5fd" stroke="#334155" stroke-width="1.3" d="M768.5,-172C768.5,-172 700,-172 700,-172 694,-172 688,-166 688,-160 688,-160 688,-140 688,-140 688,-134 694,-128 700,-128 700,-128 768.5,-128 768.5,-128 774.5,-128 780.5,-134 780.5,-140 780.5,-140 780.5,-160 780.5,-160 780.5,-166 774.5,-172 768.5,-172"/>
<text xml:space="preserve" text-anchor="middle" x="734.25" y="-158.5" font-family="Helvetica,sans-Serif" font-size="10.00" fill="#0f172a">extro_observe</text>
<text xml:space="preserve" text-anchor="middle" x="734.25" y="-146.5" font-family="Helvetica,sans-Serif" font-size="10.00" fill="#0f172a">category: :rf</text>
<text xml:space="preserve" text-anchor="middle" x="734.25" y="-134.5" font-family="Helvetica,sans-Serif" font-size="10.00" fill="#0f172a">record signal intel</text>
</g>
<!-- Scan&#45;&gt;Obs -->
<g id="edge9" class="edge">
<title>Scan&#45;&gt;Obs</title>
<path fill="none" stroke="#a78bfa" stroke-width="1.3" d="M559.35,-389.21C565.35,-386.32 571.12,-382.94 576.25,-379 646.6,-324.88 696.97,-230.14 719.71,-181.21"/>
<polygon fill="#a78bfa" stroke="#a78bfa" stroke-width="1.3" points="722.17,-182.58 722.94,-174.14 717.07,-180.25 722.17,-182.58"/>
</g>
</g>
</svg>
