<?xml version="1.0" encoding="UTF-8" standalone="no"?>
<!DOCTYPE svg PUBLIC "-//W3C//DTD SVG 1.1//EN"
 "http://www.w3.org/Graphics/SVG/1.1/DTD/svg11.dtd">
<!-- Generated by graphviz version 14.1.2 (0)
 -->
<!-- Title: PWN_SDR Pages: 1 -->
<svg width="1835pt" height="916pt"
 viewBox="0.00 0.00 1835.00 916.00" xmlns="http://www.w3.org/2000/svg" xmlns:xlink="http://www.w3.org/1999/xlink">
<g id="graph0" class="graph" transform="scale(1 1) rotate(0) translate(43.2 872.44)">
<title>PWN_SDR</title>
<polygon fill="#0f172a" stroke="none" points="-43.2,43.2 -43.2,-872.44 1792.2,-872.44 1792.2,43.2 -43.2,43.2"/>
<text xml:space="preserve" text-anchor="start" x="629.25" y="-807.24" font-family="sans-Serif" font-weight="bold" font-size="20.00" fill="#e2e8f0">PWN::SDR — Software&#45;Defined Radio &amp; RF Hacking</text>
<text xml:space="preserve" text-anchor="start" x="576.38" y="-795.79" font-family="sans-Serif" font-size="11.00" fill="#94a3b8">GQRX · FlipperZero · RFIDler · FrequencyAllocation · Decoder::* (20) · FFI::{Volk,Liquid,FFTW,HackRF,RTLSdr,SoapySDR}</text>
<g id="clust1" class="cluster">
<title>cluster_hw</title>
<path fill="#022c22" stroke="#047857" d="M223.5,-81.24C223.5,-81.24 486.25,-81.24 486.25,-81.24 492.25,-81.24 498.25,-87.24 498.25,-93.24 498.25,-93.24 498.25,-220.24 498.25,-220.24 498.25,-226.24 492.25,-232.24 486.25,-232.24 486.25,-232.24 223.5,-232.24 223.5,-232.24 217.5,-232.24 211.5,-226.24 211.5,-220.24 211.5,-220.24 211.5,-93.24 211.5,-93.24 211.5,-87.24 217.5,-81.24 223.5,-81.24"/>
<text xml:space="preserve" text-anchor="middle" x="354.88" y="-209.24" font-family="sans-Serif" font-size="20.00" fill="#a7f3d0">Hardware</text>
</g>
<g id="clust2" class="cluster">
<title>cluster_ffi</title>
<path fill="#0c4a6e" stroke="#0369a1" d="M534.25,-343.24C534.25,-343.24 986.62,-343.24 986.62,-343.24 992.62,-343.24 998.62,-349.24 998.62,-355.24 998.62,-355.24 998.62,-550.24 998.62,-550.24 998.62,-556.24 992.62,-562.24 986.62,-562.24 986.62,-562.24 534.25,-562.24 534.25,-562.24 528.25,-562.24 522.25,-556.24 522.25,-550.24 522.25,-550.24 522.25,-355.24 522.25,-355.24 522.25,-349.24 528.25,-343.24 534.25,-343.24"/>
<text xml:space="preserve" text-anchor="middle" x="760.44" y="-539.24" font-family="sans-Serif" font-size="20.00" fill="#bae6fd">PWN::FFI native backends</text>
</g>
<g id="clust3" class="cluster">
<title>cluster_ctrl</title>
<path fill="#422006" stroke="#a16207" d="M551.5,-113.24C551.5,-113.24 1002.75,-113.24 1002.75,-113.24 1008.75,-113.24 1014.75,-119.24 1014.75,-125.24 1014.75,-125.24 1014.75,-280.24 1014.75,-280.24 1014.75,-286.24 1008.75,-292.24 1002.75,-292.24 1002.75,-292.24 551.5,-292.24 551.5,-292.24 545.5,-292.24 539.5,-286.24 539.5,-280.24 539.5,-280.24 539.5,-125.24 539.5,-125.24 539.5,-119.24 545.5,-113.24 551.5,-113.24"/>
<text xml:space="preserve" text-anchor="middle" x="777.12" y="-269.24" font-family="sans-Serif" font-size="20.00" fill="#fde68a">Control · Scan</text>
</g>
<g id="clust4" class="cluster">
<title>cluster_dec</title>
<path fill="#2e1065" stroke="#6d28d9" d="M20,-570.24C20,-570.24 1729,-570.24 1729,-570.24 1735,-570.24 1741,-576.24 1741,-582.24 1741,-582.24 1741,-770.24 1741,-770.24 1741,-776.24 1735,-782.24 1729,-782.24 1729,-782.24 20,-782.24 20,-782.24 14,-782.24 8,-776.24 8,-770.24 8,-770.24 8,-582.24 8,-582.24 8,-576.24 14,-570.24 20,-570.24"/>
<text xml:space="preserve" text-anchor="middle" x="874.5" y="-759.24" font-family="sans-Serif" font-size="20.00" fill="#ddd6fe">Decode · Sense · Record</text>
</g>
<!-- RF -->
<g id="node1" class="node">
<title>RF</title>
<path fill="#fda4af" stroke="#334155" stroke-width="1.3" d="M111.88,-125.24C111.88,-125.24 42.62,-125.24 42.62,-125.24 36.62,-125.24 30.62,-119.24 30.62,-113.24 30.62,-113.24 30.62,-101.24 30.62,-101.24 30.62,-95.24 36.62,-89.24 42.62,-89.24 42.62,-89.24 111.88,-89.24 111.88,-89.24 117.88,-89.24 123.88,-95.24 123.88,-101.24 123.88,-101.24 123.88,-113.24 123.88,-113.24 123.88,-119.24 117.88,-125.24 111.88,-125.24"/>
<text xml:space="preserve" text-anchor="middle" x="77.25" y="-104.11" font-family="sans-Serif" font-size="10.00" fill="#0f172a">📡 &#160;RF Spectrum</text>
</g>
<!-- SDRhw -->
<g id="node2" class="node">
<title>SDRhw</title>
<path fill="#6ee7b7" stroke="#334155" stroke-width="1.3" d="M357,-193.24C357,-193.24 231.5,-193.24 231.5,-193.24 225.5,-193.24 219.5,-187.24 219.5,-181.24 219.5,-181.24 219.5,-169.24 219.5,-169.24 219.5,-163.24 225.5,-157.24 231.5,-157.24 231.5,-157.24 357,-157.24 357,-157.24 363,-157.24 369,-163.24 369,-169.24 369,-169.24 369,-181.24 369,-181.24 369,-187.24 363,-193.24 357,-193.24"/>
<text xml:space="preserve" text-anchor="middle" x="294.25" y="-177.74" font-family="sans-Serif" font-size="10.00" fill="#0f172a">RTL&#45;SDR / HackRF / Airspy</text>
<text xml:space="preserve" text-anchor="middle" x="294.25" y="-165.74" font-family="sans-Serif" font-size="10.00" fill="#0f172a">(via GQRX / SoapySDR / FFI)</text>
</g>
<!-- RF&#45;&gt;SDRhw -->
<g id="edge1" class="edge">
<title>RF&#45;&gt;SDRhw</title>
<path fill="none" stroke="#fb7185" stroke-width="1.3" d="M124.37,-121.82C153.81,-131.13 192.48,-143.37 225.39,-153.77"/>
<polygon fill="#fb7185" stroke="#fb7185" stroke-width="1.3" points="224.16,-156.32 232.63,-156.06 225.84,-150.98 224.16,-156.32"/>
</g>
<!-- Flipper -->
<g id="node3" class="node">
<title>Flipper</title>
<path fill="#6ee7b7" stroke="#334155" stroke-width="1.3" d="M328.5,-125.24C328.5,-125.24 260,-125.24 260,-125.24 254,-125.24 248,-119.24 248,-113.24 248,-113.24 248,-101.24 248,-101.24 248,-95.24 254,-89.24 260,-89.24 260,-89.24 328.5,-89.24 328.5,-89.24 334.5,-89.24 340.5,-95.24 340.5,-101.24 340.5,-101.24 340.5,-113.24 340.5,-113.24 340.5,-119.24 334.5,-125.24 328.5,-125.24"/>
<text xml:space="preserve" text-anchor="middle" x="294.25" y="-103.74" font-family="sans-Serif" font-size="10.00" fill="#0f172a">SDR::FlipperZero</text>
</g>
<!-- RF&#45;&gt;Flipper -->
<g id="edge2" class="edge">
<title>RF&#45;&gt;Flipper</title>
<path fill="none" stroke="#fb7185" stroke-width="1.3" d="M124.37,-107.24C157.64,-107.24 202.71,-107.24 237.92,-107.24"/>
<polygon fill="#fb7185" stroke="#fb7185" stroke-width="1.3" points="237.61,-110.04 245.61,-107.24 237.61,-104.44 237.61,-110.04"/>
</g>
<!-- RFID -->
<g id="node4" class="node">
<title>RFID</title>
<path fill="#6ee7b7" stroke="#334155" stroke-width="1.3" d="M478.25,-125.24C478.25,-125.24 421,-125.24 421,-125.24 415,-125.24 409,-119.24 409,-113.24 409,-113.24 409,-101.24 409,-101.24 409,-95.24 415,-89.24 421,-89.24 421,-89.24 478.25,-89.24 478.25,-89.24 484.25,-89.24 490.25,-95.24 490.25,-101.24 490.25,-101.24 490.25,-113.24 490.25,-113.24 490.25,-119.24 484.25,-125.24 478.25,-125.24"/>
<text xml:space="preserve" text-anchor="middle" x="449.62" y="-109.74" font-family="sans-Serif" font-size="10.00" fill="#0f172a">SDR::RFIDler</text>
<text xml:space="preserve" text-anchor="middle" x="449.62" y="-97.74" font-family="sans-Serif" font-size="10.00" fill="#0f172a">SonMicroRFID</text>
</g>
<!-- RF&#45;&gt;RFID -->
<g id="edge3" class="edge">
<title>RF&#45;&gt;RFID</title>
<path fill="none" stroke="#fb7185" stroke-width="1.3" d="M94.43,-88.94C112.82,-69.34 144.7,-38.82 178.5,-22.24 191.96,-15.63 196.59,-16.8 211.5,-15.24 281.12,-7.93 305.33,13.86 369,-15.24 398.17,-28.57 420.75,-58.45 434.3,-80.56"/>
<polygon fill="#fb7185" stroke="#fb7185" stroke-width="1.3" points="431.73,-81.73 438.21,-87.2 436.56,-78.89 431.73,-81.73"/>
</g>
<!-- Front -->
<g id="node8" class="node">
<title>Front</title>
<path fill="#7dd3fc" stroke="#334155" stroke-width="1.3" d="M685,-421.24C685,-421.24 542.25,-421.24 542.25,-421.24 536.25,-421.24 530.25,-415.24 530.25,-409.24 530.25,-409.24 530.25,-397.24 530.25,-397.24 530.25,-391.24 536.25,-385.24 542.25,-385.24 542.25,-385.24 685,-385.24 685,-385.24 691,-385.24 697,-391.24 697,-397.24 697,-397.24 697,-409.24 697,-409.24 697,-415.24 691,-421.24 685,-421.24"/>
<text xml:space="preserve" text-anchor="middle" x="613.62" y="-405.74" font-family="sans-Serif" font-size="10.00" fill="#0f172a">FFI::{HackRF,RTLSdr,SoapySDR}</text>
<text xml:space="preserve" text-anchor="middle" x="613.62" y="-393.74" font-family="sans-Serif" font-size="10.00" fill="#0f172a">inventory · raw I/Q</text>
</g>
<!-- SDRhw&#45;&gt;Front -->
<g id="edge4" class="edge">
<title>SDRhw&#45;&gt;Front</title>
<path fill="none" stroke="#38bdf8" stroke-width="1.3" d="M306.43,-193.49C324.75,-222.12 363.68,-277.85 409,-312.24 449.44,-342.92 501.85,-366.04 543.38,-381.3"/>
<polygon fill="#38bdf8" stroke="#38bdf8" stroke-width="1.3" points="542.27,-383.88 550.75,-383.96 544.17,-378.61 542.27,-383.88"/>
</g>
<!-- GQRX -->
<g id="node9" class="node">
<title>GQRX</title>
<path fill="#fcd34d" stroke="#334155" stroke-width="1.3" d="M994.75,-253.24C994.75,-253.24 843.75,-253.24 843.75,-253.24 837.75,-253.24 831.75,-247.24 831.75,-241.24 831.75,-241.24 831.75,-209.24 831.75,-209.24 831.75,-203.24 837.75,-197.24 843.75,-197.24 843.75,-197.24 994.75,-197.24 994.75,-197.24 1000.75,-197.24 1006.75,-203.24 1006.75,-209.24 1006.75,-209.24 1006.75,-241.24 1006.75,-241.24 1006.75,-247.24 1000.75,-253.24 994.75,-253.24"/>
<text xml:space="preserve" text-anchor="middle" x="919.25" y="-239.74" font-family="sans-Serif" font-size="10.00" fill="#0f172a">SDR::GQRX</text>
<text xml:space="preserve" text-anchor="middle" x="919.25" y="-227.74" font-family="sans-Serif" font-size="10.00" fill="#0f172a">remote control</text>
<text xml:space="preserve" text-anchor="middle" x="919.25" y="-215.74" font-family="sans-Serif" font-size="10.00" fill="#0f172a">spectrum + FFT geometry</text>
<text xml:space="preserve" text-anchor="middle" x="919.25" y="-203.74" font-family="sans-Serif" font-size="10.00" fill="#0f172a">(RAW panorama · plan&#45;param refine)</text>
</g>
<!-- SDRhw&#45;&gt;GQRX -->
<g id="edge5" class="edge">
<title>SDRhw&#45;&gt;GQRX</title>
<path fill="none" stroke="#f59e0b" stroke-width="1.3" d="M369.54,-168.75C467.22,-161.9 643.79,-155.32 791.75,-181.24 807.64,-184.02 824.21,-188.53 839.92,-193.62"/>
<polygon fill="#f59e0b" stroke="#f59e0b" stroke-width="1.3" points="838.72,-196.17 847.2,-196.05 840.5,-190.86 838.72,-196.17"/>
</g>
<!-- Freq -->
<g id="node10" class="node">
<title>Freq</title>
<path fill="#fcd34d" stroke="#334155" stroke-width="1.3" d="M667.75,-253.24C667.75,-253.24 559.5,-253.24 559.5,-253.24 553.5,-253.24 547.5,-247.24 547.5,-241.24 547.5,-241.24 547.5,-221.24 547.5,-221.24 547.5,-215.24 553.5,-209.24 559.5,-209.24 559.5,-209.24 667.75,-209.24 667.75,-209.24 673.75,-209.24 679.75,-215.24 679.75,-221.24 679.75,-221.24 679.75,-241.24 679.75,-241.24 679.75,-247.24 673.75,-253.24 667.75,-253.24"/>
<text xml:space="preserve" text-anchor="middle" x="613.62" y="-239.74" font-family="sans-Serif" font-size="10.00" fill="#0f172a">SDR::FrequencyAllocation</text>
<text xml:space="preserve" text-anchor="middle" x="613.62" y="-227.74" font-family="sans-Serif" font-size="10.00" fill="#0f172a">band lookup</text>
<text xml:space="preserve" text-anchor="middle" x="613.62" y="-215.74" font-family="sans-Serif" font-size="10.00" fill="#0f172a">plan_bw · precision</text>
</g>
<!-- Flipper&#45;&gt;Freq -->
<g id="edge16" class="edge">
<title>Flipper&#45;&gt;Freq</title>
<path fill="none" stroke="#f59e0b" stroke-width="1.3" d="M341.06,-125.14C394.7,-146.09 484.01,-180.99 545.47,-205"/>
<polygon fill="#f59e0b" stroke="#f59e0b" stroke-width="1.3" points="544.41,-207.59 552.88,-207.89 546.45,-202.37 544.41,-207.59"/>
</g>
<!-- Scan -->
<g id="node11" class="node">
<title>Scan</title>
<path fill="#fcd34d" stroke="#334155" stroke-width="1.3" d="M967.38,-165.24C967.38,-165.24 871.12,-165.24 871.12,-165.24 865.12,-165.24 859.12,-159.24 859.12,-153.24 859.12,-153.24 859.12,-133.24 859.12,-133.24 859.12,-127.24 865.12,-121.24 871.12,-121.24 871.12,-121.24 967.38,-121.24 967.38,-121.24 973.38,-121.24 979.38,-127.24 979.38,-133.24 979.38,-133.24 979.38,-153.24 979.38,-153.24 979.38,-159.24 973.38,-165.24 967.38,-165.24"/>
<text xml:space="preserve" text-anchor="middle" x="919.25" y="-151.74" font-family="sans-Serif" font-size="10.00" fill="#0f172a">bin/pwn_gqrx_scanner</text>
<text xml:space="preserve" text-anchor="middle" x="919.25" y="-139.74" font-family="sans-Serif" font-size="10.00" fill="#0f172a">&#45;&#45;fft&#45;scan · iterative</text>
<text xml:space="preserve" text-anchor="middle" x="919.25" y="-127.74" font-family="sans-Serif" font-size="10.00" fill="#0f172a">&#45;&#45;min&#45;snr&#45;db · &#45;&#45;no&#45;refine</text>
</g>
<!-- RFID&#45;&gt;Scan -->
<g id="edge17" class="edge">
<title>RFID&#45;&gt;Scan</title>
<path fill="none" stroke="#f59e0b" stroke-width="1.3" d="M490.9,-110.34C570.68,-116.48 749.66,-130.26 848.82,-137.89"/>
<polygon fill="#f59e0b" stroke="#f59e0b" stroke-width="1.3" points="848.59,-140.68 856.78,-138.5 849.02,-135.1 848.59,-140.68"/>
</g>
<!-- Volk -->
<g id="node5" class="node">
<title>Volk</title>
<path fill="#7dd3fc" stroke="#334155" stroke-width="1.3" d="M978.62,-523.24C978.62,-523.24 859.88,-523.24 859.88,-523.24 853.88,-523.24 847.88,-517.24 847.88,-511.24 847.88,-511.24 847.88,-499.24 847.88,-499.24 847.88,-493.24 853.88,-487.24 859.88,-487.24 859.88,-487.24 978.62,-487.24 978.62,-487.24 984.62,-487.24 990.62,-493.24 990.62,-499.24 990.62,-499.24 990.62,-511.24 990.62,-511.24 990.62,-517.24 984.62,-523.24 978.62,-523.24"/>
<text xml:space="preserve" text-anchor="middle" x="919.25" y="-507.74" font-family="sans-Serif" font-size="10.00" fill="#0f172a">FFI::Volk</text>
<text xml:space="preserve" text-anchor="middle" x="919.25" y="-495.74" font-family="sans-Serif" font-size="10.00" fill="#0f172a">SIMD s16→f32 · accumulate</text>
</g>
<!-- DSP -->
<g id="node12" class="node">
<title>DSP</title>
<path fill="#c4b5fd" stroke="#334155" stroke-width="1.3" d="M1265.12,-698.24C1265.12,-698.24 1158.38,-698.24 1158.38,-698.24 1152.38,-698.24 1146.38,-692.24 1146.38,-686.24 1146.38,-686.24 1146.38,-666.24 1146.38,-666.24 1146.38,-660.24 1152.38,-654.24 1158.38,-654.24 1158.38,-654.24 1265.12,-654.24 1265.12,-654.24 1271.12,-654.24 1277.12,-660.24 1277.12,-666.24 1277.12,-666.24 1277.12,-686.24 1277.12,-686.24 1277.12,-692.24 1271.12,-698.24 1265.12,-698.24"/>
<text xml:space="preserve" text-anchor="middle" x="1211.75" y="-684.74" font-family="sans-Serif" font-size="10.00" fill="#0f172a">Decoder::DSP</text>
<text xml:space="preserve" text-anchor="middle" x="1211.75" y="-672.74" font-family="sans-Serif" font-size="10.00" fill="#0f172a">pure&#45;Ruby + FFI accel</text>
<text xml:space="preserve" text-anchor="middle" x="1211.75" y="-660.74" font-family="sans-Serif" font-size="10.00" fill="#0f172a">(unpack · resample · FSK)</text>
</g>
<!-- Volk&#45;&gt;DSP -->
<g id="edge9" class="edge">
<title>Volk&#45;&gt;DSP</title>
<path fill="none" stroke="#a78bfa" stroke-width="1.3" d="M938.5,-523.84C961.86,-546.83 1004.41,-586.01 1046.75,-611.24 1074.65,-627.86 1107.56,-641.86 1136.56,-652.57"/>
<polygon fill="#a78bfa" stroke="#a78bfa" stroke-width="1.3" points="1135.5,-655.16 1143.98,-655.25 1137.41,-649.89 1135.5,-655.16"/>
</g>
<!-- Liquid -->
<g id="node6" class="node">
<title>Liquid</title>
<path fill="#7dd3fc" stroke="#334155" stroke-width="1.3" d="M973,-455.24C973,-455.24 865.5,-455.24 865.5,-455.24 859.5,-455.24 853.5,-449.24 853.5,-443.24 853.5,-443.24 853.5,-431.24 853.5,-431.24 853.5,-425.24 859.5,-419.24 865.5,-419.24 865.5,-419.24 973,-419.24 973,-419.24 979,-419.24 985,-425.24 985,-431.24 985,-431.24 985,-443.24 985,-443.24 985,-449.24 979,-455.24 973,-455.24"/>
<text xml:space="preserve" text-anchor="middle" x="919.25" y="-439.74" font-family="sans-Serif" font-size="10.00" fill="#0f172a">FFI::Liquid</text>
<text xml:space="preserve" text-anchor="middle" x="919.25" y="-427.74" font-family="sans-Serif" font-size="10.00" fill="#0f172a">freqdem · msresamp · FIR</text>
</g>
<!-- Liquid&#45;&gt;DSP -->
<g id="edge10" class="edge">
<title>Liquid&#45;&gt;DSP</title>
<path fill="none" stroke="#a78bfa" stroke-width="1.3" d="M985.37,-451.8C996.22,-456.57 1006.59,-462.88 1014.75,-471.24 1046.17,-503.41 1020.51,-530.71 1046.75,-567.24 1054.39,-577.87 1129.75,-631.15 1140.75,-638.24 1146.42,-641.89 1152.48,-645.53 1158.57,-649.04"/>
<polygon fill="#a78bfa" stroke="#a78bfa" stroke-width="1.3" points="1156.79,-651.25 1165.14,-652.74 1159.55,-646.37 1156.79,-651.25"/>
</g>
<!-- FFTW -->
<g id="node7" class="node">
<title>FFTW</title>
<path fill="#7dd3fc" stroke="#334155" stroke-width="1.3" d="M958,-387.24C958,-387.24 880.5,-387.24 880.5,-387.24 874.5,-387.24 868.5,-381.24 868.5,-375.24 868.5,-375.24 868.5,-363.24 868.5,-363.24 868.5,-357.24 874.5,-351.24 880.5,-351.24 880.5,-351.24 958,-351.24 958,-351.24 964,-351.24 970,-357.24 970,-363.24 970,-363.24 970,-375.24 970,-375.24 970,-381.24 964,-387.24 958,-387.24"/>
<text xml:space="preserve" text-anchor="middle" x="919.25" y="-371.74" font-family="sans-Serif" font-size="10.00" fill="#0f172a">FFI::FFTW</text>
<text xml:space="preserve" text-anchor="middle" x="919.25" y="-359.74" font-family="sans-Serif" font-size="10.00" fill="#0f172a">rfft · cfft · power&#45;dB</text>
</g>
<!-- FFTW&#45;&gt;DSP -->
<g id="edge11" class="edge">
<title>FFTW&#45;&gt;DSP</title>
<path fill="none" stroke="#a78bfa" stroke-width="1.3" d="M970.42,-377.89C986.44,-382.9 1003.03,-390.8 1014.75,-403.24 1049.37,-439.99 1020.37,-469.19 1046.75,-512.24 1064,-540.38 1080.72,-537 1100.75,-563.24 1123.67,-593.27 1114.14,-611.43 1140.75,-638.24 1144.25,-641.77 1148.15,-645.05 1152.27,-648.1"/>
<polygon fill="#a78bfa" stroke="#a78bfa" stroke-width="1.3" points="1150.59,-650.34 1158.78,-652.54 1153.75,-645.72 1150.59,-650.34"/>
</g>
<!-- Front&#45;&gt;Volk -->
<g id="edge6" class="edge">
<title>Front&#45;&gt;Volk</title>
<path fill="none" stroke="#38bdf8" stroke-width="1.3" stroke-dasharray="5,2" d="M669.96,-421.83C721.7,-439.21 798.97,-465.17 853.55,-483.5"/>
<polygon fill="#38bdf8" stroke="#38bdf8" stroke-width="1.3" points="852.44,-486.08 860.92,-485.98 854.22,-480.77 852.44,-486.08"/>
</g>
<!-- Front&#45;&gt;Liquid -->
<g id="edge7" class="edge">
<title>Front&#45;&gt;Liquid</title>
<path fill="none" stroke="#38bdf8" stroke-width="1.3" stroke-dasharray="5,2" d="M697.59,-412.53C743.13,-417.63 799.16,-423.9 843.37,-428.85"/>
<polygon fill="#38bdf8" stroke="#38bdf8" stroke-width="1.3" points="842.97,-431.62 851.23,-429.73 843.59,-426.06 842.97,-431.62"/>
</g>
<!-- Front&#45;&gt;FFTW -->
<g id="edge8" class="edge">
<title>Front&#45;&gt;FFTW</title>
<path fill="none" stroke="#38bdf8" stroke-width="1.3" stroke-dasharray="5,2" d="M697.59,-393.95C748.46,-388.25 812.42,-381.09 858.37,-375.94"/>
<polygon fill="#38bdf8" stroke="#38bdf8" stroke-width="1.3" points="858.58,-378.74 866.22,-375.06 857.96,-373.17 858.58,-378.74"/>
</g>
<!-- Xrf -->
<g id="node15" class="node">
<title>Xrf</title>
<path fill="#c4b5fd" stroke="#334155" stroke-width="1.3" d="M126.5,-678.24C126.5,-678.24 28,-678.24 28,-678.24 22,-678.24 16,-672.24 16,-666.24 16,-666.24 16,-654.24 16,-654.24 16,-648.24 22,-642.24 28,-642.24 28,-642.24 126.5,-642.24 126.5,-642.24 132.5,-642.24 138.5,-648.24 138.5,-654.24 138.5,-654.24 138.5,-666.24 138.5,-666.24 138.5,-672.24 132.5,-678.24 126.5,-678.24"/>
<text xml:space="preserve" text-anchor="middle" x="77.25" y="-662.74" font-family="sans-Serif" font-size="10.00" fill="#0f172a">extro_snapshot :rf</text>
<text xml:space="preserve" text-anchor="middle" x="77.25" y="-650.74" font-family="sans-Serif" font-size="10.00" fill="#0f172a">probe_rf → hw inventory</text>
</g>
<!-- Front&#45;&gt;Xrf -->
<g id="edge20" class="edge">
<title>Front&#45;&gt;Xrf</title>
<path fill="none" stroke="#fbbf24" stroke-width="1.3" stroke-dasharray="5,2" d="M590.92,-384.75C568.08,-365.4 530.97,-334.27 498.25,-308.24 459.23,-277.19 436.22,-282.02 409,-240.24 367.34,-176.29 428.92,-120.5 369,-73.24 314.04,-29.89 266.2,-29.56 211.5,-73.24 122,-144.7 88.07,-524.15 80.17,-631.77"/>
<polygon fill="#fbbf24" stroke="#fbbf24" stroke-width="1.3" points="77.39,-631.45 79.61,-639.63 82.97,-631.85 77.39,-631.45"/>
</g>
<!-- GQRX&#45;&gt;DSP -->
<g id="edge12" class="edge">
<title>GQRX&#45;&gt;DSP</title>
<path fill="none" stroke="#a78bfa" stroke-width="1.3" d="M951.31,-253.71C972.14,-274.42 998.61,-304.18 1014.75,-335.24 1041.39,-386.51 1016.47,-412.03 1046.75,-461.24 1063.43,-488.33 1083.41,-481.56 1100.75,-508.24 1133.7,-558.92 1102.46,-591.46 1140.75,-638.24 1143.54,-641.64 1146.71,-644.78 1150.13,-647.68"/>
<polygon fill="#a78bfa" stroke="#a78bfa" stroke-width="1.3" points="1148.33,-649.83 1156.4,-652.44 1151.72,-645.37 1148.33,-649.83"/>
</g>
<!-- Tune -->
<g id="node16" class="node">
<title>Tune</title>
<path fill="#c4b5fd" stroke="#334155" stroke-width="2" d="M1270.75,-622.61C1270.75,-622.61 1152.75,-622.61 1152.75,-622.61 1146.75,-622.61 1140.75,-616.61 1140.75,-610.61 1140.75,-610.61 1140.75,-589.86 1140.75,-589.86 1140.75,-583.86 1146.75,-577.86 1152.75,-577.86 1152.75,-577.86 1270.75,-577.86 1270.75,-577.86 1276.75,-577.86 1282.75,-583.86 1282.75,-589.86 1282.75,-589.86 1282.75,-610.61 1282.75,-610.61 1282.75,-616.61 1276.75,-622.61 1270.75,-622.61"/>
<text xml:space="preserve" text-anchor="middle" x="1211.75" y="-609.11" font-family="sans-Serif" font-size="10.00" fill="#0f172a">extro_rf_tune &#160;📡</text>
<text xml:space="preserve" text-anchor="middle" x="1211.75" y="-596.36" font-family="sans-Serif" font-size="10.00" fill="#0f172a">tune · demod · strength</text>
<text xml:space="preserve" text-anchor="middle" x="1211.75" y="-584.36" font-family="sans-Serif" font-size="10.00" fill="#0f172a">RDS.sample → now_playing</text>
</g>
<!-- GQRX&#45;&gt;Tune -->
<g id="edge13" class="edge">
<title>GQRX&#45;&gt;Tune</title>
<path fill="none" stroke="#f59e0b" stroke-width="2" d="M945.71,-253.7C965.07,-275.63 992.14,-306.89 1014.75,-335.24 1080.25,-417.36 1152.6,-517.97 1188.29,-568.33"/>
<polygon fill="#f59e0b" stroke="#f59e0b" stroke-width="2" points="1185.86,-569.74 1192.77,-574.66 1190.44,-566.51 1185.86,-569.74"/>
<text xml:space="preserve" text-anchor="middle" x="1073.75" y="-444.93" font-family="sans-Serif" font-size="9.00" fill="#cbd5e1">remote :7356</text>
</g>
<!-- Freq&#45;&gt;Scan -->
<g id="edge18" class="edge">
<title>Freq&#45;&gt;Scan</title>
<path fill="none" stroke="#f59e0b" stroke-width="1.3" d="M680.13,-212.25C729.92,-197.82 798.25,-178.02 848.95,-163.32"/>
<polygon fill="#f59e0b" stroke="#f59e0b" stroke-width="1.3" points="849.73,-166.01 856.63,-161.1 848.17,-160.63 849.73,-166.01"/>
<text xml:space="preserve" text-anchor="middle" x="764.38" y="-197.07" font-family="sans-Serif" font-size="9.00" fill="#cbd5e1">plan_bw/step</text>
</g>
<!-- Dec -->
<g id="node13" class="node">
<title>Dec</title>
<path fill="#c4b5fd" stroke="#334155" stroke-width="1.3" d="M1562.5,-658.24C1562.5,-658.24 1426.5,-658.24 1426.5,-658.24 1420.5,-658.24 1414.5,-652.24 1414.5,-646.24 1414.5,-646.24 1414.5,-590.24 1414.5,-590.24 1414.5,-584.24 1420.5,-578.24 1426.5,-578.24 1426.5,-578.24 1562.5,-578.24 1562.5,-578.24 1568.5,-578.24 1574.5,-584.24 1574.5,-590.24 1574.5,-590.24 1574.5,-646.24 1574.5,-646.24 1574.5,-652.24 1568.5,-658.24 1562.5,-658.24"/>
<text xml:space="preserve" text-anchor="middle" x="1494.5" y="-644.74" font-family="sans-Serif" font-size="10.00" fill="#0f172a">SDR::Decoder::*</text>
<text xml:space="preserve" text-anchor="middle" x="1494.5" y="-632.74" font-family="sans-Serif" font-size="10.00" fill="#0f172a">ADSB · APT · BT · DECT · GPS</text>
<text xml:space="preserve" text-anchor="middle" x="1494.5" y="-620.74" font-family="sans-Serif" font-size="10.00" fill="#0f172a">GSM · Iridium · LoRa · LTE</text>
<text xml:space="preserve" text-anchor="middle" x="1494.5" y="-608.74" font-family="sans-Serif" font-size="10.00" fill="#0f172a">Morse · P25 · POCSAG/FLEX</text>
<text xml:space="preserve" text-anchor="middle" x="1494.5" y="-596.74" font-family="sans-Serif" font-size="10.00" fill="#0f172a">RDS · RFID · rtl_433 · RTTY</text>
<text xml:space="preserve" text-anchor="middle" x="1494.5" y="-584.74" font-family="sans-Serif" font-size="10.00" fill="#0f172a">WiFi · ZigBee</text>
</g>
<!-- Freq&#45;&gt;Dec -->
<g id="edge15" class="edge">
<title>Freq&#45;&gt;Dec</title>
<path fill="none" stroke="#a78bfa" stroke-width="1.3" d="M680.13,-245.67C759.96,-263.85 898.58,-297.33 1014.75,-335.24 1179.42,-388.97 1348.41,-506.37 1434.79,-571.82"/>
<polygon fill="#a78bfa" stroke="#a78bfa" stroke-width="1.3" points="1433.01,-573.98 1441.07,-576.6 1436.4,-569.53 1433.01,-573.98"/>
</g>
<!-- Obs -->
<g id="node14" class="node">
<title>Obs</title>
<path fill="#c4b5fd" stroke="#334155" stroke-width="1.3" d="M1721,-636.24C1721,-636.24 1667.5,-636.24 1667.5,-636.24 1661.5,-636.24 1655.5,-630.24 1655.5,-624.24 1655.5,-624.24 1655.5,-612.24 1655.5,-612.24 1655.5,-606.24 1661.5,-600.24 1667.5,-600.24 1667.5,-600.24 1721,-600.24 1721,-600.24 1727,-600.24 1733,-606.24 1733,-612.24 1733,-612.24 1733,-624.24 1733,-624.24 1733,-630.24 1727,-636.24 1721,-636.24"/>
<text xml:space="preserve" text-anchor="middle" x="1694.25" y="-620.74" font-family="sans-Serif" font-size="10.00" fill="#0f172a">extro_observe</text>
<text xml:space="preserve" text-anchor="middle" x="1694.25" y="-608.74" font-family="sans-Serif" font-size="10.00" fill="#0f172a">category: :rf</text>
</g>
<!-- Scan&#45;&gt;Obs -->
<g id="edge19" class="edge">
<title>Scan&#45;&gt;Obs</title>
<path fill="none" stroke="#a78bfa" stroke-width="1.3" d="M980,-165.26C991.71,-170.13 1003.76,-175.55 1014.75,-181.24 1275.96,-316.32 1564.92,-523.64 1660.56,-593.95"/>
<polygon fill="#a78bfa" stroke="#a78bfa" stroke-width="1.3" points="1658.74,-596.09 1666.84,-598.58 1662.06,-591.58 1658.74,-596.09"/>
</g>
<!-- DSP&#45;&gt;Dec -->
<g id="edge14" class="edge">
<title>DSP&#45;&gt;Dec</title>
<path fill="none" stroke="#a78bfa" stroke-width="1.3" d="M1277.51,-662.86C1315.14,-655.08 1363.1,-645.18 1404.27,-636.67"/>
<polygon fill="#a78bfa" stroke="#a78bfa" stroke-width="1.3" points="1404.83,-639.41 1412.1,-635.05 1403.7,-633.93 1404.83,-639.41"/>
</g>
<!-- Dec&#45;&gt;Obs -->
<g id="edge21" class="edge">
<title>Dec&#45;&gt;Obs</title>
<path fill="none" stroke="#c4b5fd" stroke-width="1.3" stroke-dasharray="5,2" d="M1575.08,-618.24C1598.89,-618.24 1624.25,-618.24 1645.35,-618.24"/>
<polygon fill="#c4b5fd" stroke="#c4b5fd" stroke-width="1.3" points="1645.07,-621.04 1653.07,-618.24 1645.07,-615.44 1645.07,-621.04"/>
</g>
<!-- Tune&#45;&gt;Dec -->
<g id="edge23" class="edge">
<title>Tune&#45;&gt;Dec</title>
<path fill="none" stroke="#c4b5fd" stroke-width="1.3" stroke-dasharray="5,2" d="M1283.6,-604.78C1320.21,-607.13 1365.27,-610.02 1404.24,-612.51"/>
<polygon fill="#c4b5fd" stroke="#c4b5fd" stroke-width="1.3" points="1403.88,-615.3 1412.04,-613.01 1404.24,-609.71 1403.88,-615.3"/>
<text xml:space="preserve" text-anchor="middle" x="1348.62" y="-612.26" font-family="sans-Serif" font-size="9.00" fill="#cbd5e1">RDS.sample</text>
</g>
<!-- Tune&#45;&gt;Obs -->
<g id="edge22" class="edge">
<title>Tune&#45;&gt;Obs</title>
<path fill="none" stroke="#a78bfa" stroke-width="2" d="M1261.15,-623.48C1301.2,-641.36 1360.14,-664.58 1414.5,-674.24 1484.52,-686.67 1505.11,-689.78 1574.5,-674.24 1602.59,-667.94 1631.87,-654.23 1654.33,-641.95"/>
<polygon fill="#a78bfa" stroke="#a78bfa" stroke-width="2" points="1655.58,-644.46 1661.18,-638.1 1652.84,-639.57 1655.58,-644.46"/>
<text xml:space="preserve" text-anchor="middle" x="1494.5" y="-697.21" font-family="sans-Serif" font-size="9.00" fill="#cbd5e1">category::rf</text>
<text xml:space="preserve" text-anchor="middle" x="1494.5" y="-686.71" font-family="sans-Serif" font-size="9.00" fill="#cbd5e1">ttl 300s</text>
</g>
</g>
</svg>
