<?xml version="1.0" encoding="UTF-8" standalone="no"?>
<!DOCTYPE svg PUBLIC "-//W3C//DTD SVG 1.1//EN"
 "http://www.w3.org/Graphics/SVG/1.1/DTD/svg11.dtd">
<!-- Generated by graphviz version 14.1.2 (0)
 -->
<!-- Title: PWN_SDR Pages: 1 -->
<svg width="1792pt" height="864pt"
 viewBox="0.00 0.00 1792.00 864.00" xmlns="http://www.w3.org/2000/svg" xmlns:xlink="http://www.w3.org/1999/xlink">
<g id="graph0" class="graph" transform="scale(1 1) rotate(0) translate(43.2 821.05)">
<title>PWN_SDR</title>
<polygon fill="#0f172a" stroke="none" points="-43.2,43.2 -43.2,-821.05 1748.95,-821.05 1748.95,43.2 -43.2,43.2"/>
<text xml:space="preserve" text-anchor="start" x="614.38" y="-755.85" font-family="sans-Serif" font-weight="bold" font-size="20.00" fill="#e2e8f0">PWN::SDR &#45; Software&#45;Defined Radio &amp; RF Hacking</text>
<text xml:space="preserve" text-anchor="start" x="469.62" y="-744.4" font-family="sans-Serif" font-size="11.00" fill="#94a3b8">GQRX · FlipperZero · RFIDler · FrequencyAllocation · Decoder::* (20) · Base.run_iq (true&#45;air) · FFI::{Volk,Liquid,FFTW,RTLSdr,HackRF,AdalmPluto,SoapySDR}</text>
<g id="clust1" class="cluster">
<title>cluster_hw</title>
<path fill="#022c22" stroke="#047857" d="M223.5,-558C223.5,-558 487,-558 487,-558 493,-558 499,-564 499,-570 499,-570 499,-697 499,-697 499,-703 493,-709 487,-709 487,-709 223.5,-709 223.5,-709 217.5,-709 211.5,-703 211.5,-697 211.5,-697 211.5,-570 211.5,-570 211.5,-564 217.5,-558 223.5,-558"/>
<text xml:space="preserve" text-anchor="middle" x="355.25" y="-686" font-family="sans-Serif" font-size="20.00" fill="#a7f3d0">Hardware</text>
</g>
<g id="clust2" class="cluster">
<title>cluster_ffi</title>
<path fill="#0c4a6e" stroke="#0369a1" d="M553.75,-259C553.75,-259 1000.5,-259 1000.5,-259 1006.5,-259 1012.5,-265 1012.5,-271 1012.5,-271 1012.5,-466 1012.5,-466 1012.5,-472 1006.5,-478 1000.5,-478 1000.5,-478 553.75,-478 553.75,-478 547.75,-478 541.75,-472 541.75,-466 541.75,-466 541.75,-271 541.75,-271 541.75,-265 547.75,-259 553.75,-259"/>
<text xml:space="preserve" text-anchor="middle" x="777.12" y="-455" font-family="sans-Serif" font-size="20.00" fill="#bae6fd">PWN::FFI native backends</text>
</g>
<g id="clust3" class="cluster">
<title>cluster_ctrl</title>
<path fill="#422006" stroke="#a16207" d="M535,-543C535,-543 989.25,-543 989.25,-543 995.25,-543 1001.25,-549 1001.25,-555 1001.25,-555 1001.25,-710 1001.25,-710 1001.25,-716 995.25,-722 989.25,-722 989.25,-722 535,-722 535,-722 529,-722 523,-716 523,-710 523,-710 523,-555 523,-555 523,-549 529,-543 535,-543"/>
<text xml:space="preserve" text-anchor="middle" x="762.12" y="-699" font-family="sans-Serif" font-size="20.00" fill="#fde68a">Control · Scan</text>
</g>
<g id="clust4" class="cluster">
<title>cluster_dec</title>
<path fill="#2e1065" stroke="#6d28d9" d="M20,-8C20,-8 1685.75,-8 1685.75,-8 1691.75,-8 1697.75,-14 1697.75,-20 1697.75,-20 1697.75,-239 1697.75,-239 1697.75,-245 1691.75,-251 1685.75,-251 1685.75,-251 20,-251 20,-251 14,-251 8,-245 8,-239 8,-239 8,-20 8,-20 8,-14 14,-8 20,-8"/>
<text xml:space="preserve" text-anchor="middle" x="852.88" y="-228" font-family="sans-Serif" font-size="20.00" fill="#ddd6fe">Decode · Sense · Record</text>
</g>
<!-- RF -->
<g id="node1" class="node">
<title>RF</title>
<path fill="#fda4af" stroke="#334155" stroke-width="1.3" d="M111.88,-670C111.88,-670 42.62,-670 42.62,-670 36.62,-670 30.62,-664 30.62,-658 30.62,-658 30.62,-646 30.62,-646 30.62,-640 36.62,-634 42.62,-634 42.62,-634 111.88,-634 111.88,-634 117.88,-634 123.88,-640 123.88,-646 123.88,-646 123.88,-658 123.88,-658 123.88,-664 117.88,-670 111.88,-670"/>
<text xml:space="preserve" text-anchor="middle" x="77.25" y="-648.88" font-family="sans-Serif" font-size="10.00" fill="#0f172a">📡 &#160;RF Spectrum</text>
</g>
<!-- SDRhw -->
<g id="node2" class="node">
<title>SDRhw</title>
<path fill="#6ee7b7" stroke="#334155" stroke-width="1.3" d="M357.75,-670C357.75,-670 231.5,-670 231.5,-670 225.5,-670 219.5,-664 219.5,-658 219.5,-658 219.5,-646 219.5,-646 219.5,-640 225.5,-634 231.5,-634 231.5,-634 357.75,-634 357.75,-634 363.75,-634 369.75,-640 369.75,-646 369.75,-646 369.75,-658 369.75,-658 369.75,-664 363.75,-670 357.75,-670"/>
<text xml:space="preserve" text-anchor="middle" x="294.62" y="-654.5" font-family="sans-Serif" font-size="10.00" fill="#0f172a">RTL&#45;SDR / HackRF / Airspy</text>
<text xml:space="preserve" text-anchor="middle" x="294.62" y="-642.5" font-family="sans-Serif" font-size="10.00" fill="#0f172a">ADALM&#45;Pluto / any Soapy dev</text>
</g>
<!-- RF&#45;&gt;SDRhw -->
<g id="edge1" class="edge">
<title>RF&#45;&gt;SDRhw</title>
<path fill="none" stroke="#fb7185" stroke-width="1.3" d="M124.45,-652C149.22,-652 180.5,-652 209.42,-652"/>
<polygon fill="#fb7185" stroke="#fb7185" stroke-width="1.3" points="209.15,-654.8 217.15,-652 209.15,-649.2 209.15,-654.8"/>
</g>
<!-- Flipper -->
<g id="node3" class="node">
<title>Flipper</title>
<path fill="#6ee7b7" stroke="#334155" stroke-width="1.3" d="M328.88,-602C328.88,-602 260.38,-602 260.38,-602 254.38,-602 248.38,-596 248.38,-590 248.38,-590 248.38,-578 248.38,-578 248.38,-572 254.38,-566 260.38,-566 260.38,-566 328.88,-566 328.88,-566 334.88,-566 340.88,-572 340.88,-578 340.88,-578 340.88,-590 340.88,-590 340.88,-596 334.88,-602 328.88,-602"/>
<text xml:space="preserve" text-anchor="middle" x="294.62" y="-580.5" font-family="sans-Serif" font-size="10.00" fill="#0f172a">SDR::FlipperZero</text>
</g>
<!-- RF&#45;&gt;Flipper -->
<g id="edge2" class="edge">
<title>RF&#45;&gt;Flipper</title>
<path fill="none" stroke="#fb7185" stroke-width="1.3" d="M124.45,-637.41C157.92,-626.84 203.31,-612.51 238.65,-601.36"/>
<polygon fill="#fb7185" stroke="#fb7185" stroke-width="1.3" points="239.21,-604.12 245.99,-599.04 237.52,-598.78 239.21,-604.12"/>
</g>
<!-- RFID -->
<g id="node4" class="node">
<title>RFID</title>
<path fill="#6ee7b7" stroke="#334155" stroke-width="1.3" d="M479,-670C479,-670 421.75,-670 421.75,-670 415.75,-670 409.75,-664 409.75,-658 409.75,-658 409.75,-646 409.75,-646 409.75,-640 415.75,-634 421.75,-634 421.75,-634 479,-634 479,-634 485,-634 491,-640 491,-646 491,-646 491,-658 491,-658 491,-664 485,-670 479,-670"/>
<text xml:space="preserve" text-anchor="middle" x="450.38" y="-654.5" font-family="sans-Serif" font-size="10.00" fill="#0f172a">SDR::RFIDler</text>
<text xml:space="preserve" text-anchor="middle" x="450.38" y="-642.5" font-family="sans-Serif" font-size="10.00" fill="#0f172a">SonMicroRFID</text>
</g>
<!-- RF&#45;&gt;RFID -->
<g id="edge3" class="edge">
<title>RF&#45;&gt;RFID</title>
<path fill="none" stroke="#fb7185" stroke-width="1.3" d="M109.53,-670.6C128.71,-680.91 154.18,-692.69 178.5,-698 261.54,-716.14 287.65,-720.01 369.75,-698 386.35,-693.55 403.07,-684.71 416.87,-675.95"/>
<polygon fill="#fb7185" stroke="#fb7185" stroke-width="1.3" points="418.28,-678.38 423.42,-671.64 415.2,-673.7 418.28,-678.38"/>
</g>
<!-- Front -->
<g id="node8" class="node">
<title>Front</title>
<path fill="#7dd3fc" stroke="#334155" stroke-width="2" d="M675.25,-381C675.25,-381 561.75,-381 561.75,-381 555.75,-381 549.75,-375 549.75,-369 549.75,-369 549.75,-337 549.75,-337 549.75,-331 555.75,-325 561.75,-325 561.75,-325 675.25,-325 675.25,-325 681.25,-325 687.25,-331 687.25,-337 687.25,-337 687.25,-369 687.25,-369 687.25,-375 681.25,-381 675.25,-381"/>
<text xml:space="preserve" text-anchor="middle" x="618.5" y="-367.5" font-family="sans-Serif" font-size="10.00" fill="#0f172a">FFI::{RTLSdr,HackRF,</text>
<text xml:space="preserve" text-anchor="middle" x="618.5" y="-355.5" font-family="sans-Serif" font-size="10.00" fill="#0f172a">AdalmPluto,SoapySDR}</text>
<text xml:space="preserve" text-anchor="middle" x="618.5" y="-343.5" font-family="sans-Serif" font-size="10.00" fill="#0f172a">open · configure · start_rx</text>
<text xml:space="preserve" text-anchor="middle" x="618.5" y="-331.5" font-family="sans-Serif" font-size="10.00" fill="#0f172a">read_sync raw I/Q · stop_rx</text>
</g>
<!-- SDRhw&#45;&gt;Front -->
<g id="edge4" class="edge">
<title>SDRhw&#45;&gt;Front</title>
<path fill="none" stroke="#38bdf8" stroke-width="1.3" d="M363.77,-633.47C365.82,-632.38 367.82,-631.22 369.75,-630 376.48,-625.74 520.24,-463.24 585.62,-389.15"/>
<polygon fill="#38bdf8" stroke="#38bdf8" stroke-width="1.3" points="587.58,-391.17 590.77,-383.32 583.38,-387.46 587.58,-391.17"/>
<text xml:space="preserve" text-anchor="middle" x="450.38" y="-583.15" font-family="sans-Serif" font-size="9.00" fill="#cbd5e1">libusb / libiio</text>
</g>
<!-- GQRX -->
<g id="node9" class="node">
<title>GQRX</title>
<path fill="#fcd34d" stroke="#334155" stroke-width="1.3" d="M694,-607C694,-607 543,-607 543,-607 537,-607 531,-601 531,-595 531,-595 531,-563 531,-563 531,-557 537,-551 543,-551 543,-551 694,-551 694,-551 700,-551 706,-557 706,-563 706,-563 706,-595 706,-595 706,-601 700,-607 694,-607"/>
<text xml:space="preserve" text-anchor="middle" x="618.5" y="-593.5" font-family="sans-Serif" font-size="10.00" fill="#0f172a">SDR::GQRX</text>
<text xml:space="preserve" text-anchor="middle" x="618.5" y="-581.5" font-family="sans-Serif" font-size="10.00" fill="#0f172a">remote control</text>
<text xml:space="preserve" text-anchor="middle" x="618.5" y="-569.5" font-family="sans-Serif" font-size="10.00" fill="#0f172a">spectrum + FFT geometry</text>
<text xml:space="preserve" text-anchor="middle" x="618.5" y="-557.5" font-family="sans-Serif" font-size="10.00" fill="#0f172a">(RAW panorama · plan&#45;param refine)</text>
</g>
<!-- SDRhw&#45;&gt;GQRX -->
<g id="edge5" class="edge">
<title>SDRhw&#45;&gt;GQRX</title>
<path fill="none" stroke="#f59e0b" stroke-width="1.3" d="M370.28,-635.07C415.11,-624.9 472.63,-611.86 520.9,-600.91"/>
<polygon fill="#f59e0b" stroke="#f59e0b" stroke-width="1.3" points="521.32,-603.68 528.5,-599.18 520.08,-598.22 521.32,-603.68"/>
</g>
<!-- Freq -->
<g id="node10" class="node">
<title>Freq</title>
<path fill="#fcd34d" stroke="#334155" stroke-width="1.3" d="M672.62,-683C672.62,-683 564.38,-683 564.38,-683 558.38,-683 552.38,-677 552.38,-671 552.38,-671 552.38,-651 552.38,-651 552.38,-645 558.38,-639 564.38,-639 564.38,-639 672.62,-639 672.62,-639 678.62,-639 684.62,-645 684.62,-651 684.62,-651 684.62,-671 684.62,-671 684.62,-677 678.62,-683 672.62,-683"/>
<text xml:space="preserve" text-anchor="middle" x="618.5" y="-669.5" font-family="sans-Serif" font-size="10.00" fill="#0f172a">SDR::FrequencyAllocation</text>
<text xml:space="preserve" text-anchor="middle" x="618.5" y="-657.5" font-family="sans-Serif" font-size="10.00" fill="#0f172a">band lookup</text>
<text xml:space="preserve" text-anchor="middle" x="618.5" y="-645.5" font-family="sans-Serif" font-size="10.00" fill="#0f172a">plan_bw · precision</text>
</g>
<!-- Flipper&#45;&gt;Freq -->
<g id="edge19" class="edge">
<title>Flipper&#45;&gt;Freq</title>
<path fill="none" stroke="#f59e0b" stroke-width="1.3" d="M341.25,-585.8C383.55,-588.8 447.53,-596.79 499,-618 511.09,-622.98 511.19,-629.4 523,-635 529.24,-637.95 535.87,-640.63 542.62,-643.03"/>
<polygon fill="#f59e0b" stroke="#f59e0b" stroke-width="1.3" points="541.52,-645.61 550,-645.51 543.31,-640.31 541.52,-645.61"/>
</g>
<!-- Scan -->
<g id="node11" class="node">
<title>Scan</title>
<path fill="#fcd34d" stroke="#334155" stroke-width="1.3" d="M981.25,-683C981.25,-683 885,-683 885,-683 879,-683 873,-677 873,-671 873,-671 873,-651 873,-651 873,-645 879,-639 885,-639 885,-639 981.25,-639 981.25,-639 987.25,-639 993.25,-645 993.25,-651 993.25,-651 993.25,-671 993.25,-671 993.25,-677 987.25,-683 981.25,-683"/>
<text xml:space="preserve" text-anchor="middle" x="933.12" y="-669.5" font-family="sans-Serif" font-size="10.00" fill="#0f172a">bin/pwn_gqrx_scanner</text>
<text xml:space="preserve" text-anchor="middle" x="933.12" y="-657.5" font-family="sans-Serif" font-size="10.00" fill="#0f172a">&#45;&#45;fft&#45;scan · iterative</text>
<text xml:space="preserve" text-anchor="middle" x="933.12" y="-645.5" font-family="sans-Serif" font-size="10.00" fill="#0f172a">&#45;&#45;min&#45;snr&#45;db · &#45;&#45;no&#45;refine</text>
</g>
<!-- RFID&#45;&gt;Scan -->
<g id="edge20" class="edge">
<title>RFID&#45;&gt;Scan</title>
<path fill="none" stroke="#f59e0b" stroke-width="1.3" d="M467.15,-670.63C480.4,-684.73 500.71,-703 523,-711 647.98,-755.85 691.96,-739.03 821.75,-711 843.23,-706.36 865.56,-697.18 884.46,-687.94"/>
<polygon fill="#f59e0b" stroke="#f59e0b" stroke-width="1.3" points="885.52,-690.54 891.41,-684.45 883.01,-685.54 885.52,-690.54"/>
</g>
<!-- Volk -->
<g id="node5" class="node">
<title>Volk</title>
<path fill="#7dd3fc" stroke="#334155" stroke-width="1.3" d="M992.5,-439C992.5,-439 873.75,-439 873.75,-439 867.75,-439 861.75,-433 861.75,-427 861.75,-427 861.75,-415 861.75,-415 861.75,-409 867.75,-403 873.75,-403 873.75,-403 992.5,-403 992.5,-403 998.5,-403 1004.5,-409 1004.5,-415 1004.5,-415 1004.5,-427 1004.5,-427 1004.5,-433 998.5,-439 992.5,-439"/>
<text xml:space="preserve" text-anchor="middle" x="933.12" y="-423.5" font-family="sans-Serif" font-size="10.00" fill="#0f172a">FFI::Volk</text>
<text xml:space="preserve" text-anchor="middle" x="933.12" y="-411.5" font-family="sans-Serif" font-size="10.00" fill="#0f172a">SIMD s16→f32 · accumulate</text>
</g>
<!-- DSP -->
<g id="node13" class="node">
<title>DSP</title>
<path fill="#c4b5fd" stroke="#334155" stroke-width="1.3" d="M1227.5,-135C1227.5,-135 1097.5,-135 1097.5,-135 1091.5,-135 1085.5,-129 1085.5,-123 1085.5,-123 1085.5,-103 1085.5,-103 1085.5,-97 1091.5,-91 1097.5,-91 1097.5,-91 1227.5,-91 1227.5,-91 1233.5,-91 1239.5,-97 1239.5,-103 1239.5,-103 1239.5,-123 1239.5,-123 1239.5,-129 1233.5,-135 1227.5,-135"/>
<text xml:space="preserve" text-anchor="middle" x="1162.5" y="-121.5" font-family="sans-Serif" font-size="10.00" fill="#0f172a">Decoder::DSP</text>
<text xml:space="preserve" text-anchor="middle" x="1162.5" y="-109.5" font-family="sans-Serif" font-size="10.00" fill="#0f172a">pure&#45;Ruby + FFI accel</text>
<text xml:space="preserve" text-anchor="middle" x="1162.5" y="-97.5" font-family="sans-Serif" font-size="10.00" fill="#0f172a">(unpack · resample · FSK · FM)</text>
</g>
<!-- Volk&#45;&gt;DSP -->
<g id="edge10" class="edge">
<title>Volk&#45;&gt;DSP</title>
<path fill="none" stroke="#a78bfa" stroke-width="1.3" d="M992.63,-402.4C1000,-398.21 1006.9,-393.13 1012.5,-387 1086.54,-305.93 1015.06,-235.21 1085.5,-151 1088.48,-147.44 1091.87,-144.18 1095.54,-141.2"/>
<polygon fill="#a78bfa" stroke="#a78bfa" stroke-width="1.3" points="1096.98,-143.61 1101.8,-136.63 1093.68,-139.09 1096.98,-143.61"/>
</g>
<!-- Liquid -->
<g id="node6" class="node">
<title>Liquid</title>
<path fill="#7dd3fc" stroke="#334155" stroke-width="1.3" d="M986.88,-371C986.88,-371 879.38,-371 879.38,-371 873.38,-371 867.38,-365 867.38,-359 867.38,-359 867.38,-347 867.38,-347 867.38,-341 873.38,-335 879.38,-335 879.38,-335 986.88,-335 986.88,-335 992.88,-335 998.88,-341 998.88,-347 998.88,-347 998.88,-359 998.88,-359 998.88,-365 992.88,-371 986.88,-371"/>
<text xml:space="preserve" text-anchor="middle" x="933.12" y="-355.5" font-family="sans-Serif" font-size="10.00" fill="#0f172a">FFI::Liquid</text>
<text xml:space="preserve" text-anchor="middle" x="933.12" y="-343.5" font-family="sans-Serif" font-size="10.00" fill="#0f172a">freqdem · msresamp · FIR</text>
</g>
<!-- Liquid&#45;&gt;DSP -->
<g id="edge11" class="edge">
<title>Liquid&#45;&gt;DSP</title>
<path fill="none" stroke="#a78bfa" stroke-width="1.3" d="M990.91,-334.55C998.79,-330.3 1006.3,-325.17 1012.5,-319 1070.22,-261.58 1029.61,-210.2 1085.5,-151 1088.89,-147.4 1092.7,-144.1 1096.76,-141.07"/>
<polygon fill="#a78bfa" stroke="#a78bfa" stroke-width="1.3" points="1098.16,-143.51 1103.19,-136.69 1095,-138.88 1098.16,-143.51"/>
</g>
<!-- FFTW -->
<g id="node7" class="node">
<title>FFTW</title>
<path fill="#7dd3fc" stroke="#334155" stroke-width="1.3" d="M971.88,-303C971.88,-303 894.38,-303 894.38,-303 888.38,-303 882.38,-297 882.38,-291 882.38,-291 882.38,-279 882.38,-279 882.38,-273 888.38,-267 894.38,-267 894.38,-267 971.88,-267 971.88,-267 977.88,-267 983.88,-273 983.88,-279 983.88,-279 983.88,-291 983.88,-291 983.88,-297 977.88,-303 971.88,-303"/>
<text xml:space="preserve" text-anchor="middle" x="933.12" y="-287.5" font-family="sans-Serif" font-size="10.00" fill="#0f172a">FFI::FFTW</text>
<text xml:space="preserve" text-anchor="middle" x="933.12" y="-275.5" font-family="sans-Serif" font-size="10.00" fill="#0f172a">rfft · cfft · power&#45;dB</text>
</g>
<!-- FFTW&#45;&gt;DSP -->
<g id="edge12" class="edge">
<title>FFTW&#45;&gt;DSP</title>
<path fill="none" stroke="#a78bfa" stroke-width="1.3" d="M984.23,-273.83C994.2,-270.15 1004.16,-265.32 1012.5,-259 1058.68,-224.01 1041.94,-189.2 1085.5,-151 1089.76,-147.26 1094.46,-143.79 1099.36,-140.59"/>
<polygon fill="#a78bfa" stroke="#a78bfa" stroke-width="1.3" points="1100.72,-143.04 1106.09,-136.48 1097.8,-138.26 1100.72,-143.04"/>
</g>
<!-- Front&#45;&gt;Volk -->
<g id="edge7" class="edge">
<title>Front&#45;&gt;Volk</title>
<path fill="none" stroke="#38bdf8" stroke-width="1.3" stroke-dasharray="5,2" d="M687.94,-371.07C706.71,-375.82 727.1,-380.78 746,-385 780.5,-392.69 818.81,-400.27 851.66,-406.47"/>
<polygon fill="#38bdf8" stroke="#38bdf8" stroke-width="1.3" points="850.91,-409.18 859.29,-407.9 851.94,-403.67 850.91,-409.18"/>
</g>
<!-- Front&#45;&gt;Liquid -->
<g id="edge8" class="edge">
<title>Front&#45;&gt;Liquid</title>
<path fill="none" stroke="#38bdf8" stroke-width="1.3" stroke-dasharray="5,2" d="M688.11,-353C738.09,-353 805.76,-353 857.16,-353"/>
<polygon fill="#38bdf8" stroke="#38bdf8" stroke-width="1.3" points="856.92,-355.8 864.92,-353 856.92,-350.2 856.92,-355.8"/>
</g>
<!-- Front&#45;&gt;FFTW -->
<g id="edge9" class="edge">
<title>Front&#45;&gt;FFTW</title>
<path fill="none" stroke="#38bdf8" stroke-width="1.3" stroke-dasharray="5,2" d="M687.89,-338.7C727.1,-330.44 777.22,-319.78 821.75,-310 838.19,-306.39 855.99,-302.4 872.4,-298.68"/>
<polygon fill="#38bdf8" stroke="#38bdf8" stroke-width="1.3" points="872.78,-301.46 879.96,-296.96 871.54,-296 872.78,-301.46"/>
</g>
<!-- Base -->
<g id="node12" class="node">
<title>Base</title>
<path fill="#c4b5fd" stroke="#334155" stroke-width="2" d="M984.25,-181C984.25,-181 882,-181 882,-181 876,-181 870,-175 870,-169 870,-169 870,-125 870,-125 870,-119 876,-113 882,-113 882,-113 984.25,-113 984.25,-113 990.25,-113 996.25,-119 996.25,-125 996.25,-125 996.25,-169 996.25,-169 996.25,-175 990.25,-181 984.25,-181"/>
<text xml:space="preserve" text-anchor="middle" x="933.12" y="-167.5" font-family="sans-Serif" font-size="10.00" fill="#0f172a">Decoder::Base</text>
<text xml:space="preserve" text-anchor="middle" x="933.12" y="-155.5" font-family="sans-Serif" font-size="10.00" fill="#0f172a">run_iq (TRUE&#45;AIR I/Q)</text>
<text xml:space="preserve" text-anchor="middle" x="933.12" y="-143.5" font-family="sans-Serif" font-size="10.00" fill="#0f172a">run_native (48 kHz UDP)</text>
<text xml:space="preserve" text-anchor="middle" x="933.12" y="-131.5" font-family="sans-Serif" font-size="10.00" fill="#0f172a">run_detector (energy)</text>
<text xml:space="preserve" text-anchor="middle" x="933.12" y="-119.5" font-family="sans-Serif" font-size="10.00" fill="#0f172a">resolve_iq_source :auto</text>
</g>
<!-- Front&#45;&gt;Base -->
<g id="edge6" class="edge">
<title>Front&#45;&gt;Base</title>
<path fill="none" stroke="#38bdf8" stroke-width="2" d="M687.9,-329.92C694.13,-327.16 700.25,-324.18 706,-321 773.4,-283.73 842.34,-227.55 886.09,-189.18"/>
<polygon fill="#38bdf8" stroke="#38bdf8" stroke-width="2" points="887.81,-191.39 891.96,-183.99 884.11,-187.19 887.81,-191.39"/>
<text xml:space="preserve" text-anchor="middle" x="783.88" y="-305.11" font-family="sans-Serif" font-size="9.00" fill="#cbd5e1">raw I/Q</text>
<text xml:space="preserve" text-anchor="middle" x="783.88" y="-294.61" font-family="sans-Serif" font-size="9.00" fill="#cbd5e1">cu8/cs8/cs16</text>
</g>
<!-- Xrf -->
<g id="node16" class="node">
<title>Xrf</title>
<path fill="#c4b5fd" stroke="#334155" stroke-width="1.3" d="M126.5,-55C126.5,-55 28,-55 28,-55 22,-55 16,-49 16,-43 16,-43 16,-31 16,-31 16,-25 22,-19 28,-19 28,-19 126.5,-19 126.5,-19 132.5,-19 138.5,-25 138.5,-31 138.5,-31 138.5,-43 138.5,-43 138.5,-49 132.5,-55 126.5,-55"/>
<text xml:space="preserve" text-anchor="middle" x="77.25" y="-39.5" font-family="sans-Serif" font-size="10.00" fill="#0f172a">extro_snapshot :rf</text>
<text xml:space="preserve" text-anchor="middle" x="77.25" y="-27.5" font-family="sans-Serif" font-size="10.00" fill="#0f172a">probe_rf → hw inventory</text>
</g>
<!-- Front&#45;&gt;Xrf -->
<g id="edge23" class="edge">
<title>Front&#45;&gt;Xrf</title>
<path fill="none" stroke="#fbbf24" stroke-width="1.3" stroke-dasharray="5,2" d="M605.88,-381.91C588.86,-419.86 553.15,-484.82 499,-512 463.55,-529.79 446.19,-527.66 409.75,-512 212.47,-427.22 113.67,-153.42 86.31,-64.89"/>
<polygon fill="#fbbf24" stroke="#fbbf24" stroke-width="1.3" points="89.03,-64.23 84.03,-57.39 83.67,-65.85 89.03,-64.23"/>
</g>
<!-- GQRX&#45;&gt;Base -->
<g id="edge13" class="edge">
<title>GQRX&#45;&gt;Base</title>
<path fill="none" stroke="#f59e0b" stroke-width="1.3" d="M706.48,-558.54C748.07,-544.15 794.61,-520.4 821.75,-482 881.89,-396.91 822.79,-347.64 861.75,-251 870.44,-229.43 884.11,-207.78 897.1,-189.86"/>
<polygon fill="#f59e0b" stroke="#f59e0b" stroke-width="1.3" points="899.31,-191.58 901.82,-183.49 894.81,-188.25 899.31,-191.58"/>
<text xml:space="preserve" text-anchor="middle" x="783.88" y="-543.53" font-family="sans-Serif" font-size="9.00" fill="#cbd5e1">48 kHz UDP audio</text>
</g>
<!-- Tune -->
<g id="node17" class="node">
<title>Tune</title>
<path fill="#c4b5fd" stroke="#334155" stroke-width="2" d="M1221.5,-211.38C1221.5,-211.38 1103.5,-211.38 1103.5,-211.38 1097.5,-211.38 1091.5,-205.38 1091.5,-199.38 1091.5,-199.38 1091.5,-178.62 1091.5,-178.62 1091.5,-172.62 1097.5,-166.62 1103.5,-166.62 1103.5,-166.62 1221.5,-166.62 1221.5,-166.62 1227.5,-166.62 1233.5,-172.62 1233.5,-178.62 1233.5,-178.62 1233.5,-199.38 1233.5,-199.38 1233.5,-205.38 1227.5,-211.38 1221.5,-211.38"/>
<text xml:space="preserve" text-anchor="middle" x="1162.5" y="-197.88" font-family="sans-Serif" font-size="10.00" fill="#0f172a">extro_rf_tune &#160;📡</text>
<text xml:space="preserve" text-anchor="middle" x="1162.5" y="-185.12" font-family="sans-Serif" font-size="10.00" fill="#0f172a">tune · demod · strength</text>
<text xml:space="preserve" text-anchor="middle" x="1162.5" y="-173.12" font-family="sans-Serif" font-size="10.00" fill="#0f172a">RDS.sample → now_playing</text>
</g>
<!-- GQRX&#45;&gt;Tune -->
<g id="edge14" class="edge">
<title>GQRX&#45;&gt;Tune</title>
<path fill="none" stroke="#f59e0b" stroke-width="2" d="M706.48,-567.15C807.32,-551.93 965.68,-523.02 1012.5,-486 1099.37,-417.31 1139.74,-284.62 1154.5,-222.55"/>
<polygon fill="#f59e0b" stroke="#f59e0b" stroke-width="2" points="1157.15,-223.54 1156.21,-215.11 1151.69,-222.28 1157.15,-223.54"/>
<text xml:space="preserve" text-anchor="middle" x="933.12" y="-539.52" font-family="sans-Serif" font-size="9.00" fill="#cbd5e1">remote :7356</text>
</g>
<!-- Freq&#45;&gt;Scan -->
<g id="edge21" class="edge">
<title>Freq&#45;&gt;Scan</title>
<path fill="none" stroke="#f59e0b" stroke-width="1.3" d="M685.04,-661C737.12,-661 809.78,-661 862.82,-661"/>
<polygon fill="#f59e0b" stroke="#f59e0b" stroke-width="1.3" points="862.52,-663.8 870.52,-661 862.52,-658.2 862.52,-663.8"/>
<text xml:space="preserve" text-anchor="middle" x="783.88" y="-662.95" font-family="sans-Serif" font-size="9.00" fill="#cbd5e1">plan_bw/step</text>
</g>
<!-- Dec -->
<g id="node14" class="node">
<title>Dec</title>
<path fill="#c4b5fd" stroke="#334155" stroke-width="1.3" d="M1519.25,-127C1519.25,-127 1383.25,-127 1383.25,-127 1377.25,-127 1371.25,-121 1371.25,-115 1371.25,-115 1371.25,-59 1371.25,-59 1371.25,-53 1377.25,-47 1383.25,-47 1383.25,-47 1519.25,-47 1519.25,-47 1525.25,-47 1531.25,-53 1531.25,-59 1531.25,-59 1531.25,-115 1531.25,-115 1531.25,-121 1525.25,-127 1519.25,-127"/>
<text xml:space="preserve" text-anchor="middle" x="1451.25" y="-113.5" font-family="sans-Serif" font-size="10.00" fill="#0f172a">SDR::Decoder::*</text>
<text xml:space="preserve" text-anchor="middle" x="1451.25" y="-101.5" font-family="sans-Serif" font-size="10.00" fill="#0f172a">ADSB · APT · BT · DECT · GPS</text>
<text xml:space="preserve" text-anchor="middle" x="1451.25" y="-89.5" font-family="sans-Serif" font-size="10.00" fill="#0f172a">GSM · Iridium · LoRa · LTE</text>
<text xml:space="preserve" text-anchor="middle" x="1451.25" y="-77.5" font-family="sans-Serif" font-size="10.00" fill="#0f172a">Morse · P25 · POCSAG/FLEX</text>
<text xml:space="preserve" text-anchor="middle" x="1451.25" y="-65.5" font-family="sans-Serif" font-size="10.00" fill="#0f172a">RDS · RFID · rtl_433 · RTTY</text>
<text xml:space="preserve" text-anchor="middle" x="1451.25" y="-53.5" font-family="sans-Serif" font-size="10.00" fill="#0f172a">WiFi · ZigBee</text>
</g>
<!-- Freq&#45;&gt;Dec -->
<g id="edge18" class="edge">
<title>Freq&#45;&gt;Dec</title>
<path fill="none" stroke="#a78bfa" stroke-width="1.3" d="M685.03,-654.69C766.74,-644.41 908.34,-618.5 1012.5,-556 1061.04,-526.87 1308.52,-248.27 1408.39,-134.76"/>
<polygon fill="#a78bfa" stroke="#a78bfa" stroke-width="1.3" points="1410.27,-136.86 1413.45,-129.01 1406.06,-133.17 1410.27,-136.86"/>
</g>
<!-- Obs -->
<g id="node15" class="node">
<title>Obs</title>
<path fill="#c4b5fd" stroke="#334155" stroke-width="1.3" d="M1677.75,-209C1677.75,-209 1624.25,-209 1624.25,-209 1618.25,-209 1612.25,-203 1612.25,-197 1612.25,-197 1612.25,-185 1612.25,-185 1612.25,-179 1618.25,-173 1624.25,-173 1624.25,-173 1677.75,-173 1677.75,-173 1683.75,-173 1689.75,-179 1689.75,-185 1689.75,-185 1689.75,-197 1689.75,-197 1689.75,-203 1683.75,-209 1677.75,-209"/>
<text xml:space="preserve" text-anchor="middle" x="1651" y="-193.5" font-family="sans-Serif" font-size="10.00" fill="#0f172a">extro_observe</text>
<text xml:space="preserve" text-anchor="middle" x="1651" y="-181.5" font-family="sans-Serif" font-size="10.00" fill="#0f172a">category: :rf</text>
</g>
<!-- Scan&#45;&gt;Obs -->
<g id="edge22" class="edge">
<title>Scan&#45;&gt;Obs</title>
<path fill="none" stroke="#a78bfa" stroke-width="1.3" d="M993.79,-668.02C1075.64,-674.71 1224.68,-676.12 1331.25,-615 1498.64,-518.99 1605.56,-296.09 1638.85,-218.34"/>
<polygon fill="#a78bfa" stroke="#a78bfa" stroke-width="1.3" points="1641.42,-219.46 1641.96,-211 1636.26,-217.28 1641.42,-219.46"/>
</g>
<!-- Base&#45;&gt;DSP -->
<g id="edge15" class="edge">
<title>Base&#45;&gt;DSP</title>
<path fill="none" stroke="#a78bfa" stroke-width="1.3" d="M997.16,-137.57C1021.28,-133.97 1049.23,-129.79 1075.16,-125.91"/>
<polygon fill="#a78bfa" stroke="#a78bfa" stroke-width="1.3" points="1075.54,-128.68 1083.04,-124.73 1074.72,-123.15 1075.54,-128.68"/>
</g>
<!-- Base&#45;&gt;Dec -->
<g id="edge17" class="edge">
<title>Base&#45;&gt;Dec</title>
<path fill="none" stroke="#a78bfa" stroke-width="2" d="M982.98,-112.2C1011.42,-94.1 1048.81,-73.85 1085.5,-64.5 1176.91,-41.21 1285.18,-52.56 1359.89,-66.17"/>
<polygon fill="#a78bfa" stroke="#a78bfa" stroke-width="2" points="1359.31,-68.91 1367.69,-67.64 1360.34,-63.41 1359.31,-68.91"/>
<text xml:space="preserve" text-anchor="middle" x="1162.5" y="-66.45" font-family="sans-Serif" font-size="9.00" fill="#cbd5e1">feed_iq / feed</text>
</g>
<!-- DSP&#45;&gt;Dec -->
<g id="edge16" class="edge">
<title>DSP&#45;&gt;Dec</title>
<path fill="none" stroke="#a78bfa" stroke-width="1.3" d="M1239.97,-106.07C1277.21,-102.69 1322.22,-98.61 1361.02,-95.09"/>
<polygon fill="#a78bfa" stroke="#a78bfa" stroke-width="1.3" points="1361.07,-97.9 1368.78,-94.39 1360.56,-92.32 1361.07,-97.9"/>
</g>
<!-- Dec&#45;&gt;Obs -->
<g id="edge24" class="edge">
<title>Dec&#45;&gt;Obs</title>
<path fill="none" stroke="#c4b5fd" stroke-width="1.3" stroke-dasharray="5,2" d="M1529.27,-127.51C1555.31,-141.2 1583.48,-156.02 1606.06,-167.89"/>
<polygon fill="#c4b5fd" stroke="#c4b5fd" stroke-width="1.3" points="1604.61,-170.29 1612.99,-171.54 1607.21,-165.33 1604.61,-170.29"/>
</g>
<!-- Tune&#45;&gt;Dec -->
<g id="edge26" class="edge">
<title>Tune&#45;&gt;Dec</title>
<path fill="none" stroke="#c4b5fd" stroke-width="1.3" stroke-dasharray="5,2" d="M1228.93,-165.73C1268.2,-151.76 1318.67,-133.8 1361.5,-118.57"/>
<polygon fill="#c4b5fd" stroke="#c4b5fd" stroke-width="1.3" points="1362.35,-121.24 1368.95,-115.92 1360.47,-115.96 1362.35,-121.24"/>
<text xml:space="preserve" text-anchor="middle" x="1305.38" y="-149.09" font-family="sans-Serif" font-size="9.00" fill="#cbd5e1">RDS.sample</text>
</g>
<!-- Tune&#45;&gt;Obs -->
<g id="edge25" class="edge">
<title>Tune&#45;&gt;Obs</title>
<path fill="none" stroke="#a78bfa" stroke-width="2" d="M1234.24,-189.29C1334.22,-189.7 1514.3,-190.44 1600.88,-190.8"/>
<polygon fill="#a78bfa" stroke="#a78bfa" stroke-width="2" points="1600.68,-193.6 1608.69,-190.83 1600.7,-188 1600.68,-193.6"/>
<text xml:space="preserve" text-anchor="middle" x="1451.25" y="-202.96" font-family="sans-Serif" font-size="9.00" fill="#cbd5e1">category::rf</text>
<text xml:space="preserve" text-anchor="middle" x="1451.25" y="-192.46" font-family="sans-Serif" font-size="9.00" fill="#cbd5e1">ttl 300s</text>
</g>
</g>
</svg>
