<?xml version="1.0" encoding="UTF-8" standalone="no"?>
<!DOCTYPE svg PUBLIC "-//W3C//DTD SVG 1.1//EN"
 "http://www.w3.org/Graphics/SVG/1.1/DTD/svg11.dtd">
<!-- Generated by graphviz version 14.1.2 (0)
 -->
<!-- Title: PWN_SDR Pages: 1 -->
<svg width="1860pt" height="821pt"
 viewBox="0.00 0.00 1860.00 821.00" xmlns="http://www.w3.org/2000/svg" xmlns:xlink="http://www.w3.org/1999/xlink">
<g id="graph0" class="graph" transform="scale(1 1) rotate(0) translate(43.2 778.2)">
<title>PWN_SDR</title>
<polygon fill="#0f172a" stroke="none" points="-43.2,43.2 -43.2,-778.2 1816.7,-778.2 1816.7,43.2 -43.2,43.2"/>
<text xml:space="preserve" text-anchor="start" x="641.5" y="-713" font-family="sans-Serif" font-weight="bold" font-size="20.00" fill="#e2e8f0">PWN::SDR — Software&#45;Defined Radio &amp; RF Hacking</text>
<text xml:space="preserve" text-anchor="start" x="588.62" y="-701.55" font-family="sans-Serif" font-size="11.00" fill="#94a3b8">GQRX · FlipperZero · RFIDler · FrequencyAllocation · Decoder::* (20) · FFI::{Volk,Liquid,FFTW,HackRF,RTLSdr,SoapySDR}</text>
<g id="clust1" class="cluster">
<title>cluster_hw</title>
<path fill="#022c22" stroke="#047857" d="M223.5,-469C223.5,-469 365,-469 365,-469 371,-469 377,-475 377,-481 377,-481 377,-676 377,-676 377,-682 371,-688 365,-688 365,-688 223.5,-688 223.5,-688 217.5,-688 211.5,-682 211.5,-676 211.5,-676 211.5,-481 211.5,-481 211.5,-475 217.5,-469 223.5,-469"/>
<text xml:space="preserve" text-anchor="middle" x="294.25" y="-665" font-family="sans-Serif" font-size="20.00" fill="#a7f3d0">Hardware</text>
</g>
<g id="clust2" class="cluster">
<title>cluster_ffi</title>
<path fill="#0c4a6e" stroke="#0369a1" d="M454,-228C454,-228 967.75,-228 967.75,-228 973.75,-228 979.75,-234 979.75,-240 979.75,-240 979.75,-435 979.75,-435 979.75,-441 973.75,-447 967.75,-447 967.75,-447 454,-447 454,-447 448,-447 442,-441 442,-435 442,-435 442,-240 442,-240 442,-234 448,-228 454,-228"/>
<text xml:space="preserve" text-anchor="middle" x="710.88" y="-424" font-family="sans-Serif" font-size="20.00" fill="#bae6fd">PWN::FFI native backends</text>
</g>
<g id="clust3" class="cluster">
<title>cluster_ctrl</title>
<path fill="#422006" stroke="#a16207" d="M660.75,-518C660.75,-518 1121.25,-518 1121.25,-518 1127.25,-518 1133.25,-524 1133.25,-530 1133.25,-530 1133.25,-609 1133.25,-609 1133.25,-615 1127.25,-621 1121.25,-621 1121.25,-621 660.75,-621 660.75,-621 654.75,-621 648.75,-615 648.75,-609 648.75,-609 648.75,-530 648.75,-530 648.75,-524 654.75,-518 660.75,-518"/>
<text xml:space="preserve" text-anchor="middle" x="891" y="-598" font-family="sans-Serif" font-size="20.00" fill="#fde68a">Control · Scan</text>
</g>
<g id="clust4" class="cluster">
<title>cluster_dec</title>
<path fill="#2e1065" stroke="#6d28d9" d="M20,-8C20,-8 1753.5,-8 1753.5,-8 1759.5,-8 1765.5,-14 1765.5,-20 1765.5,-20 1765.5,-208 1765.5,-208 1765.5,-214 1759.5,-220 1753.5,-220 1753.5,-220 20,-220 20,-220 14,-220 8,-214 8,-208 8,-208 8,-20 8,-20 8,-14 14,-8 20,-8"/>
<text xml:space="preserve" text-anchor="middle" x="886.75" y="-197" font-family="sans-Serif" font-size="20.00" fill="#ddd6fe">Decode · Sense · Record</text>
</g>
<!-- RF -->
<g id="node1" class="node">
<title>RF</title>
<path fill="#fda4af" stroke="#334155" stroke-width="1.3" d="M111.88,-581C111.88,-581 42.62,-581 42.62,-581 36.62,-581 30.62,-575 30.62,-569 30.62,-569 30.62,-557 30.62,-557 30.62,-551 36.62,-545 42.62,-545 42.62,-545 111.88,-545 111.88,-545 117.88,-545 123.88,-551 123.88,-557 123.88,-557 123.88,-569 123.88,-569 123.88,-575 117.88,-581 111.88,-581"/>
<text xml:space="preserve" text-anchor="middle" x="77.25" y="-559.88" font-family="sans-Serif" font-size="10.00" fill="#0f172a">📡 &#160;RF Spectrum</text>
</g>
<!-- SDRhw -->
<g id="node2" class="node">
<title>SDRhw</title>
<path fill="#6ee7b7" stroke="#334155" stroke-width="1.3" d="M357,-581C357,-581 231.5,-581 231.5,-581 225.5,-581 219.5,-575 219.5,-569 219.5,-569 219.5,-557 219.5,-557 219.5,-551 225.5,-545 231.5,-545 231.5,-545 357,-545 357,-545 363,-545 369,-551 369,-557 369,-557 369,-569 369,-569 369,-575 363,-581 357,-581"/>
<text xml:space="preserve" text-anchor="middle" x="294.25" y="-565.5" font-family="sans-Serif" font-size="10.00" fill="#0f172a">RTL&#45;SDR / HackRF / Airspy</text>
<text xml:space="preserve" text-anchor="middle" x="294.25" y="-553.5" font-family="sans-Serif" font-size="10.00" fill="#0f172a">(via GQRX / SoapySDR / FFI)</text>
</g>
<!-- RF&#45;&gt;SDRhw -->
<g id="edge1" class="edge">
<title>RF&#45;&gt;SDRhw</title>
<path fill="none" stroke="#fb7185" stroke-width="1.3" d="M124.37,-563C149.09,-563 180.33,-563 209.19,-563"/>
<polygon fill="#fb7185" stroke="#fb7185" stroke-width="1.3" points="208.91,-565.8 216.91,-563 208.91,-560.2 208.91,-565.8"/>
</g>
<!-- Flipper -->
<g id="node3" class="node">
<title>Flipper</title>
<path fill="#6ee7b7" stroke="#334155" stroke-width="1.3" d="M328.5,-513C328.5,-513 260,-513 260,-513 254,-513 248,-507 248,-501 248,-501 248,-489 248,-489 248,-483 254,-477 260,-477 260,-477 328.5,-477 328.5,-477 334.5,-477 340.5,-483 340.5,-489 340.5,-489 340.5,-501 340.5,-501 340.5,-507 334.5,-513 328.5,-513"/>
<text xml:space="preserve" text-anchor="middle" x="294.25" y="-491.5" font-family="sans-Serif" font-size="10.00" fill="#0f172a">SDR::FlipperZero</text>
</g>
<!-- RF&#45;&gt;Flipper -->
<g id="edge2" class="edge">
<title>RF&#45;&gt;Flipper</title>
<path fill="none" stroke="#fb7185" stroke-width="1.3" d="M124.37,-548.41C157.79,-537.84 203.1,-523.51 238.37,-512.36"/>
<polygon fill="#fb7185" stroke="#fb7185" stroke-width="1.3" points="238.91,-515.12 245.7,-510.04 237.22,-509.78 238.91,-515.12"/>
</g>
<!-- RFID -->
<g id="node4" class="node">
<title>RFID</title>
<path fill="#6ee7b7" stroke="#334155" stroke-width="1.3" d="M322.88,-649C322.88,-649 265.62,-649 265.62,-649 259.62,-649 253.62,-643 253.62,-637 253.62,-637 253.62,-625 253.62,-625 253.62,-619 259.62,-613 265.62,-613 265.62,-613 322.88,-613 322.88,-613 328.88,-613 334.88,-619 334.88,-625 334.88,-625 334.88,-637 334.88,-637 334.88,-643 328.88,-649 322.88,-649"/>
<text xml:space="preserve" text-anchor="middle" x="294.25" y="-633.5" font-family="sans-Serif" font-size="10.00" fill="#0f172a">SDR::RFIDler</text>
<text xml:space="preserve" text-anchor="middle" x="294.25" y="-621.5" font-family="sans-Serif" font-size="10.00" fill="#0f172a">SonMicroRFID</text>
</g>
<!-- RF&#45;&gt;RFID -->
<g id="edge3" class="edge">
<title>RF&#45;&gt;RFID</title>
<path fill="none" stroke="#fb7185" stroke-width="1.3" d="M124.24,-579.76C149.8,-588.85 182.25,-600.03 211.5,-609 221.83,-612.17 232.96,-615.33 243.59,-618.23"/>
<polygon fill="#fb7185" stroke="#fb7185" stroke-width="1.3" points="242.82,-620.92 251.27,-620.3 244.28,-615.51 242.82,-620.92"/>
</g>
<!-- Front -->
<g id="node8" class="node">
<title>Front</title>
<path fill="#7dd3fc" stroke="#334155" stroke-width="1.3" d="M604.75,-374C604.75,-374 462,-374 462,-374 456,-374 450,-368 450,-362 450,-362 450,-350 450,-350 450,-344 456,-338 462,-338 462,-338 604.75,-338 604.75,-338 610.75,-338 616.75,-344 616.75,-350 616.75,-350 616.75,-362 616.75,-362 616.75,-368 610.75,-374 604.75,-374"/>
<text xml:space="preserve" text-anchor="middle" x="533.38" y="-358.5" font-family="sans-Serif" font-size="10.00" fill="#0f172a">FFI::{HackRF,RTLSdr,SoapySDR}</text>
<text xml:space="preserve" text-anchor="middle" x="533.38" y="-346.5" font-family="sans-Serif" font-size="10.00" fill="#0f172a">inventory · raw I/Q</text>
</g>
<!-- SDRhw&#45;&gt;Front -->
<g id="edge4" class="edge">
<title>SDRhw&#45;&gt;Front</title>
<path fill="none" stroke="#38bdf8" stroke-width="1.3" d="M369.26,-545.41C371.93,-544.05 374.52,-542.58 377,-541 441.45,-499.91 492.87,-423.59 517.16,-383"/>
<polygon fill="#38bdf8" stroke="#38bdf8" stroke-width="1.3" points="519.55,-384.45 521.2,-376.14 514.73,-381.61 519.55,-384.45"/>
</g>
<!-- GQRX -->
<g id="node9" class="node">
<title>GQRX</title>
<path fill="#fcd34d" stroke="#334155" stroke-width="1.3" d="M947,-582C947,-582 853.75,-582 853.75,-582 847.75,-582 841.75,-576 841.75,-570 841.75,-570 841.75,-538 841.75,-538 841.75,-532 847.75,-526 853.75,-526 853.75,-526 947,-526 947,-526 953,-526 959,-532 959,-538 959,-538 959,-570 959,-570 959,-576 953,-582 947,-582"/>
<text xml:space="preserve" text-anchor="middle" x="900.38" y="-568.5" font-family="sans-Serif" font-size="10.00" fill="#0f172a">SDR::GQRX</text>
<text xml:space="preserve" text-anchor="middle" x="900.38" y="-556.5" font-family="sans-Serif" font-size="10.00" fill="#0f172a">remote control</text>
<text xml:space="preserve" text-anchor="middle" x="900.38" y="-544.5" font-family="sans-Serif" font-size="10.00" fill="#0f172a">spectrum snapshot</text>
<text xml:space="preserve" text-anchor="middle" x="900.38" y="-532.5" font-family="sans-Serif" font-size="10.00" fill="#0f172a">(median floor · DC null)</text>
</g>
<!-- SDRhw&#45;&gt;GQRX -->
<g id="edge5" class="edge">
<title>SDRhw&#45;&gt;GQRX</title>
<path fill="none" stroke="#f59e0b" stroke-width="1.3" d="M369.37,-567.12C466.04,-571.73 640.35,-577.39 789,-568 802.86,-567.12 817.64,-565.64 831.74,-563.95"/>
<polygon fill="#f59e0b" stroke="#f59e0b" stroke-width="1.3" points="831.82,-566.76 839.41,-563 831.13,-561.2 831.82,-566.76"/>
</g>
<!-- Freq -->
<g id="node10" class="node">
<title>Freq</title>
<path fill="#fcd34d" stroke="#334155" stroke-width="1.3" d="M777,-562C777,-562 668.75,-562 668.75,-562 662.75,-562 656.75,-556 656.75,-550 656.75,-550 656.75,-538 656.75,-538 656.75,-532 662.75,-526 668.75,-526 668.75,-526 777,-526 777,-526 783,-526 789,-532 789,-538 789,-538 789,-550 789,-550 789,-556 783,-562 777,-562"/>
<text xml:space="preserve" text-anchor="middle" x="722.88" y="-546.5" font-family="sans-Serif" font-size="10.00" fill="#0f172a">SDR::FrequencyAllocation</text>
<text xml:space="preserve" text-anchor="middle" x="722.88" y="-534.5" font-family="sans-Serif" font-size="10.00" fill="#0f172a">band lookup</text>
</g>
<!-- Flipper&#45;&gt;Freq -->
<g id="edge16" class="edge">
<title>Flipper&#45;&gt;Freq</title>
<path fill="none" stroke="#f59e0b" stroke-width="1.3" d="M340.91,-500.24C414.04,-508.64 558.22,-525.2 646.72,-535.37"/>
<polygon fill="#f59e0b" stroke="#f59e0b" stroke-width="1.3" points="646.2,-538.13 654.47,-536.26 646.84,-532.56 646.2,-538.13"/>
</g>
<!-- Scan -->
<g id="node11" class="node">
<title>Scan</title>
<path fill="#fcd34d" stroke="#334155" stroke-width="1.3" d="M1113.25,-582C1113.25,-582 1023.75,-582 1023.75,-582 1017.75,-582 1011.75,-576 1011.75,-570 1011.75,-570 1011.75,-550 1011.75,-550 1011.75,-544 1017.75,-538 1023.75,-538 1023.75,-538 1113.25,-538 1113.25,-538 1119.25,-538 1125.25,-544 1125.25,-550 1125.25,-550 1125.25,-570 1125.25,-570 1125.25,-576 1119.25,-582 1113.25,-582"/>
<text xml:space="preserve" text-anchor="middle" x="1068.5" y="-568.5" font-family="sans-Serif" font-size="10.00" fill="#0f172a">bin/pwn_gqrx_scanner</text>
<text xml:space="preserve" text-anchor="middle" x="1068.5" y="-556.5" font-family="sans-Serif" font-size="10.00" fill="#0f172a">&#45;&#45;fft&#45;scan · iterative</text>
<text xml:space="preserve" text-anchor="middle" x="1068.5" y="-544.5" font-family="sans-Serif" font-size="10.00" fill="#0f172a">&#45;&#45;min&#45;snr&#45;db · &#45;&#45;avg</text>
</g>
<!-- RFID&#45;&gt;Scan -->
<g id="edge17" class="edge">
<title>RFID&#45;&gt;Scan</title>
<path fill="none" stroke="#f59e0b" stroke-width="1.3" d="M335.49,-640.57C443.76,-664.36 748.69,-718.42 979.75,-634 1004.15,-625.08 1026.46,-606.06 1042.48,-589.53"/>
<polygon fill="#f59e0b" stroke="#f59e0b" stroke-width="1.3" points="1044.16,-591.82 1047.6,-584.07 1040.08,-587.99 1044.16,-591.82"/>
</g>
<!-- Volk -->
<g id="node5" class="node">
<title>Volk</title>
<path fill="#7dd3fc" stroke="#334155" stroke-width="1.3" d="M959.75,-408C959.75,-408 841,-408 841,-408 835,-408 829,-402 829,-396 829,-396 829,-384 829,-384 829,-378 835,-372 841,-372 841,-372 959.75,-372 959.75,-372 965.75,-372 971.75,-378 971.75,-384 971.75,-384 971.75,-396 971.75,-396 971.75,-402 965.75,-408 959.75,-408"/>
<text xml:space="preserve" text-anchor="middle" x="900.38" y="-392.5" font-family="sans-Serif" font-size="10.00" fill="#0f172a">FFI::Volk</text>
<text xml:space="preserve" text-anchor="middle" x="900.38" y="-380.5" font-family="sans-Serif" font-size="10.00" fill="#0f172a">SIMD s16→f32 · accumulate</text>
</g>
<!-- DSP -->
<g id="node12" class="node">
<title>DSP</title>
<path fill="#c4b5fd" stroke="#334155" stroke-width="1.3" d="M1289.62,-104C1289.62,-104 1182.88,-104 1182.88,-104 1176.88,-104 1170.88,-98 1170.88,-92 1170.88,-92 1170.88,-72 1170.88,-72 1170.88,-66 1176.88,-60 1182.88,-60 1182.88,-60 1289.62,-60 1289.62,-60 1295.62,-60 1301.62,-66 1301.62,-72 1301.62,-72 1301.62,-92 1301.62,-92 1301.62,-98 1295.62,-104 1289.62,-104"/>
<text xml:space="preserve" text-anchor="middle" x="1236.25" y="-90.5" font-family="sans-Serif" font-size="10.00" fill="#0f172a">Decoder::DSP</text>
<text xml:space="preserve" text-anchor="middle" x="1236.25" y="-78.5" font-family="sans-Serif" font-size="10.00" fill="#0f172a">pure&#45;Ruby + FFI accel</text>
<text xml:space="preserve" text-anchor="middle" x="1236.25" y="-66.5" font-family="sans-Serif" font-size="10.00" fill="#0f172a">(unpack · resample · FSK)</text>
</g>
<!-- Volk&#45;&gt;DSP -->
<g id="edge9" class="edge">
<title>Volk&#45;&gt;DSP</title>
<path fill="none" stroke="#a78bfa" stroke-width="1.3" d="M972.33,-399.75C1024.11,-402.59 1092.17,-396.68 1133.25,-355 1207.24,-279.93 1105.35,-206.73 1165.25,-120 1167.59,-116.61 1170.34,-113.49 1173.36,-110.63"/>
<polygon fill="#a78bfa" stroke="#a78bfa" stroke-width="1.3" points="1174.98,-112.93 1179.35,-105.67 1171.4,-108.62 1174.98,-112.93"/>
</g>
<!-- Liquid -->
<g id="node6" class="node">
<title>Liquid</title>
<path fill="#7dd3fc" stroke="#334155" stroke-width="1.3" d="M954.12,-340C954.12,-340 846.62,-340 846.62,-340 840.62,-340 834.62,-334 834.62,-328 834.62,-328 834.62,-316 834.62,-316 834.62,-310 840.62,-304 846.62,-304 846.62,-304 954.12,-304 954.12,-304 960.12,-304 966.12,-310 966.12,-316 966.12,-316 966.12,-328 966.12,-328 966.12,-334 960.12,-340 954.12,-340"/>
<text xml:space="preserve" text-anchor="middle" x="900.38" y="-324.5" font-family="sans-Serif" font-size="10.00" fill="#0f172a">FFI::Liquid</text>
<text xml:space="preserve" text-anchor="middle" x="900.38" y="-312.5" font-family="sans-Serif" font-size="10.00" fill="#0f172a">freqdem · msresamp · FIR</text>
</g>
<!-- Liquid&#45;&gt;DSP -->
<g id="edge10" class="edge">
<title>Liquid&#45;&gt;DSP</title>
<path fill="none" stroke="#a78bfa" stroke-width="1.3" d="M966.5,-305.36C971.04,-303.7 975.5,-301.92 979.75,-300 1053.77,-266.66 1081.76,-263.76 1133.25,-201 1157.8,-171.08 1139.59,-148.98 1165.25,-120 1168.35,-116.5 1171.86,-113.26 1175.61,-110.27"/>
<polygon fill="#a78bfa" stroke="#a78bfa" stroke-width="1.3" points="1177.16,-112.6 1182,-105.64 1173.87,-108.07 1177.16,-112.6"/>
</g>
<!-- FFTW -->
<g id="node7" class="node">
<title>FFTW</title>
<path fill="#7dd3fc" stroke="#334155" stroke-width="1.3" d="M939.12,-272C939.12,-272 861.62,-272 861.62,-272 855.62,-272 849.62,-266 849.62,-260 849.62,-260 849.62,-248 849.62,-248 849.62,-242 855.62,-236 861.62,-236 861.62,-236 939.12,-236 939.12,-236 945.12,-236 951.12,-242 951.12,-248 951.12,-248 951.12,-260 951.12,-260 951.12,-266 945.12,-272 939.12,-272"/>
<text xml:space="preserve" text-anchor="middle" x="900.38" y="-256.5" font-family="sans-Serif" font-size="10.00" fill="#0f172a">FFI::FFTW</text>
<text xml:space="preserve" text-anchor="middle" x="900.38" y="-244.5" font-family="sans-Serif" font-size="10.00" fill="#0f172a">rfft · cfft · power&#45;dB</text>
</g>
<!-- FFTW&#45;&gt;DSP -->
<g id="edge11" class="edge">
<title>FFTW&#45;&gt;DSP</title>
<path fill="none" stroke="#a78bfa" stroke-width="1.3" d="M951.41,-242.13C960.98,-239.26 970.8,-235.87 979.75,-232 1068.13,-193.75 1081.69,-167.87 1165.25,-120 1171.35,-116.5 1177.8,-112.89 1184.2,-109.36"/>
<polygon fill="#a78bfa" stroke="#a78bfa" stroke-width="1.3" points="1185.49,-111.85 1191.15,-105.54 1182.79,-106.94 1185.49,-111.85"/>
</g>
<!-- Front&#45;&gt;Volk -->
<g id="edge6" class="edge">
<title>Front&#45;&gt;Volk</title>
<path fill="none" stroke="#38bdf8" stroke-width="1.3" stroke-dasharray="5,2" d="M617.12,-365.7C627.76,-366.86 638.51,-367.99 648.75,-369 705.58,-374.61 769.75,-379.97 818.93,-383.87"/>
<polygon fill="#38bdf8" stroke="#38bdf8" stroke-width="1.3" points="818.41,-386.64 826.6,-384.47 818.85,-381.05 818.41,-386.64"/>
</g>
<!-- Front&#45;&gt;Liquid -->
<g id="edge7" class="edge">
<title>Front&#45;&gt;Liquid</title>
<path fill="none" stroke="#38bdf8" stroke-width="1.3" stroke-dasharray="5,2" d="M617.2,-348.28C679.46,-342.49 764.05,-334.61 824.34,-328.99"/>
<polygon fill="#38bdf8" stroke="#38bdf8" stroke-width="1.3" points="824.51,-331.79 832.22,-328.26 823.99,-326.21 824.51,-331.79"/>
</g>
<!-- Front&#45;&gt;FFTW -->
<g id="edge8" class="edge">
<title>Front&#45;&gt;FFTW</title>
<path fill="none" stroke="#38bdf8" stroke-width="1.3" stroke-dasharray="5,2" d="M604.06,-337.47C608.35,-336.3 612.61,-335.14 616.75,-334 693.95,-312.77 782.77,-287.49 839.91,-271.11"/>
<polygon fill="#38bdf8" stroke="#38bdf8" stroke-width="1.3" points="840.34,-273.9 847.26,-269 838.8,-268.52 840.34,-273.9"/>
</g>
<!-- Xrf -->
<g id="node15" class="node">
<title>Xrf</title>
<path fill="#c4b5fd" stroke="#334155" stroke-width="1.3" d="M126.5,-116C126.5,-116 28,-116 28,-116 22,-116 16,-110 16,-104 16,-104 16,-92 16,-92 16,-86 22,-80 28,-80 28,-80 126.5,-80 126.5,-80 132.5,-80 138.5,-86 138.5,-92 138.5,-92 138.5,-104 138.5,-104 138.5,-110 132.5,-116 126.5,-116"/>
<text xml:space="preserve" text-anchor="middle" x="77.25" y="-100.5" font-family="sans-Serif" font-size="10.00" fill="#0f172a">extro_snapshot :rf</text>
<text xml:space="preserve" text-anchor="middle" x="77.25" y="-88.5" font-family="sans-Serif" font-size="10.00" fill="#0f172a">probe_rf → hw inventory</text>
</g>
<!-- Front&#45;&gt;Xrf -->
<g id="edge19" class="edge">
<title>Front&#45;&gt;Xrf</title>
<path fill="none" stroke="#fbbf24" stroke-width="1.3" stroke-dasharray="5,2" d="M528.28,-374.4C515.72,-426.82 474.57,-570.61 409,-529 380.8,-511.1 394.86,-489.22 377,-461 290.12,-323.71 157.71,-180.44 103.12,-123.51"/>
<polygon fill="#fbbf24" stroke="#fbbf24" stroke-width="1.3" points="105.18,-121.61 97.61,-117.79 101.14,-125.49 105.18,-121.61"/>
</g>
<!-- GQRX&#45;&gt;DSP -->
<g id="edge12" class="edge">
<title>GQRX&#45;&gt;DSP</title>
<path fill="none" stroke="#a78bfa" stroke-width="1.3" d="M959.5,-534.61C966.67,-530.99 973.62,-526.81 979.75,-522 998.78,-507.08 994.11,-494.54 1011.75,-478 1058.38,-434.26 1099.31,-455.18 1133.25,-401 1199.98,-294.48 1094.96,-224.21 1165.25,-120 1167.51,-116.65 1170.17,-113.56 1173.11,-110.73"/>
<polygon fill="#a78bfa" stroke="#a78bfa" stroke-width="1.3" points="1174.59,-113.15 1178.9,-105.85 1170.98,-108.87 1174.59,-113.15"/>
</g>
<!-- Tune -->
<g id="node16" class="node">
<title>Tune</title>
<path fill="#c4b5fd" stroke="#334155" stroke-width="2" d="M1295.25,-180.38C1295.25,-180.38 1177.25,-180.38 1177.25,-180.38 1171.25,-180.38 1165.25,-174.38 1165.25,-168.38 1165.25,-168.38 1165.25,-147.62 1165.25,-147.62 1165.25,-141.62 1171.25,-135.62 1177.25,-135.62 1177.25,-135.62 1295.25,-135.62 1295.25,-135.62 1301.25,-135.62 1307.25,-141.62 1307.25,-147.62 1307.25,-147.62 1307.25,-168.38 1307.25,-168.38 1307.25,-174.38 1301.25,-180.38 1295.25,-180.38"/>
<text xml:space="preserve" text-anchor="middle" x="1236.25" y="-166.88" font-family="sans-Serif" font-size="10.00" fill="#0f172a">extro_rf_tune &#160;📡</text>
<text xml:space="preserve" text-anchor="middle" x="1236.25" y="-154.12" font-family="sans-Serif" font-size="10.00" fill="#0f172a">tune · demod · strength</text>
<text xml:space="preserve" text-anchor="middle" x="1236.25" y="-142.12" font-family="sans-Serif" font-size="10.00" fill="#0f172a">RDS.sample → now_playing</text>
</g>
<!-- GQRX&#45;&gt;Tune -->
<g id="edge13" class="edge">
<title>GQRX&#45;&gt;Tune</title>
<path fill="none" stroke="#f59e0b" stroke-width="2" d="M959.53,-551.89C1011.67,-546.91 1086.9,-531.6 1133.25,-486 1215.83,-404.75 1231.81,-257.94 1234.72,-191.85"/>
<polygon fill="#f59e0b" stroke="#f59e0b" stroke-width="2" points="1237.51,-192.34 1235,-184.25 1231.91,-192.14 1237.51,-192.34"/>
<text xml:space="preserve" text-anchor="middle" x="1068.5" y="-545.79" font-family="sans-Serif" font-size="9.00" fill="#cbd5e1">remote :7356</text>
</g>
<!-- Dec -->
<g id="node13" class="node">
<title>Dec</title>
<path fill="#c4b5fd" stroke="#334155" stroke-width="1.3" d="M1587,-96C1587,-96 1451,-96 1451,-96 1445,-96 1439,-90 1439,-84 1439,-84 1439,-28 1439,-28 1439,-22 1445,-16 1451,-16 1451,-16 1587,-16 1587,-16 1593,-16 1599,-22 1599,-28 1599,-28 1599,-84 1599,-84 1599,-90 1593,-96 1587,-96"/>
<text xml:space="preserve" text-anchor="middle" x="1519" y="-82.5" font-family="sans-Serif" font-size="10.00" fill="#0f172a">SDR::Decoder::*</text>
<text xml:space="preserve" text-anchor="middle" x="1519" y="-70.5" font-family="sans-Serif" font-size="10.00" fill="#0f172a">ADSB · APT · BT · DECT · GPS</text>
<text xml:space="preserve" text-anchor="middle" x="1519" y="-58.5" font-family="sans-Serif" font-size="10.00" fill="#0f172a">GSM · Iridium · LoRa · LTE</text>
<text xml:space="preserve" text-anchor="middle" x="1519" y="-46.5" font-family="sans-Serif" font-size="10.00" fill="#0f172a">Morse · P25 · POCSAG/FLEX</text>
<text xml:space="preserve" text-anchor="middle" x="1519" y="-34.5" font-family="sans-Serif" font-size="10.00" fill="#0f172a">RDS · RFID · rtl_433 · RTTY</text>
<text xml:space="preserve" text-anchor="middle" x="1519" y="-22.5" font-family="sans-Serif" font-size="10.00" fill="#0f172a">WiFi · ZigBee</text>
</g>
<!-- Freq&#45;&gt;Dec -->
<g id="edge15" class="edge">
<title>Freq&#45;&gt;Dec</title>
<path fill="none" stroke="#a78bfa" stroke-width="1.3" d="M789.62,-539.65C874.05,-531.65 1022.84,-509.2 1133.25,-447 1214.24,-401.37 1395.44,-197.97 1476.92,-103.95"/>
<polygon fill="#a78bfa" stroke="#a78bfa" stroke-width="1.3" points="1478.91,-105.93 1482.03,-98.04 1474.68,-102.26 1478.91,-105.93"/>
</g>
<!-- Obs -->
<g id="node14" class="node">
<title>Obs</title>
<path fill="#c4b5fd" stroke="#334155" stroke-width="1.3" d="M1745.5,-178C1745.5,-178 1692,-178 1692,-178 1686,-178 1680,-172 1680,-166 1680,-166 1680,-154 1680,-154 1680,-148 1686,-142 1692,-142 1692,-142 1745.5,-142 1745.5,-142 1751.5,-142 1757.5,-148 1757.5,-154 1757.5,-154 1757.5,-166 1757.5,-166 1757.5,-172 1751.5,-178 1745.5,-178"/>
<text xml:space="preserve" text-anchor="middle" x="1718.75" y="-162.5" font-family="sans-Serif" font-size="10.00" fill="#0f172a">extro_observe</text>
<text xml:space="preserve" text-anchor="middle" x="1718.75" y="-150.5" font-family="sans-Serif" font-size="10.00" fill="#0f172a">category: :rf</text>
</g>
<!-- Scan&#45;&gt;Obs -->
<g id="edge18" class="edge">
<title>Scan&#45;&gt;Obs</title>
<path fill="none" stroke="#a78bfa" stroke-width="1.3" d="M1125.74,-558.67C1194.28,-554.86 1311.71,-541.13 1399,-493 1541.52,-414.41 1658.76,-250.53 1700.94,-186.47"/>
<polygon fill="#a78bfa" stroke="#a78bfa" stroke-width="1.3" points="1703.07,-188.34 1705.09,-180.11 1698.38,-185.28 1703.07,-188.34"/>
</g>
<!-- DSP&#45;&gt;Dec -->
<g id="edge14" class="edge">
<title>DSP&#45;&gt;Dec</title>
<path fill="none" stroke="#a78bfa" stroke-width="1.3" d="M1302.01,-76C1339.64,-72.52 1387.6,-68.08 1428.77,-64.26"/>
<polygon fill="#a78bfa" stroke="#a78bfa" stroke-width="1.3" points="1428.86,-67.07 1436.57,-63.54 1428.35,-61.49 1428.86,-67.07"/>
</g>
<!-- Dec&#45;&gt;Obs -->
<g id="edge20" class="edge">
<title>Dec&#45;&gt;Obs</title>
<path fill="none" stroke="#c4b5fd" stroke-width="1.3" stroke-dasharray="5,2" d="M1597.02,-96.51C1623.06,-110.2 1651.23,-125.02 1673.81,-136.89"/>
<polygon fill="#c4b5fd" stroke="#c4b5fd" stroke-width="1.3" points="1672.36,-139.29 1680.74,-140.54 1674.96,-134.33 1672.36,-139.29"/>
</g>
<!-- Tune&#45;&gt;Dec -->
<g id="edge22" class="edge">
<title>Tune&#45;&gt;Dec</title>
<path fill="none" stroke="#c4b5fd" stroke-width="1.3" stroke-dasharray="5,2" d="M1301.31,-134.73C1339.15,-120.98 1387.62,-103.37 1429.12,-88.29"/>
<polygon fill="#c4b5fd" stroke="#c4b5fd" stroke-width="1.3" points="1429.99,-90.95 1436.56,-85.59 1428.08,-85.69 1429.99,-90.95"/>
<text xml:space="preserve" text-anchor="middle" x="1373.12" y="-118.09" font-family="sans-Serif" font-size="9.00" fill="#cbd5e1">RDS.sample</text>
</g>
<!-- Tune&#45;&gt;Obs -->
<g id="edge21" class="edge">
<title>Tune&#45;&gt;Obs</title>
<path fill="none" stroke="#a78bfa" stroke-width="2" d="M1308.15,-158.3C1406.83,-158.71 1583.08,-159.44 1668.56,-159.8"/>
<polygon fill="#a78bfa" stroke="#a78bfa" stroke-width="2" points="1668.47,-162.59 1676.49,-159.83 1668.5,-156.99 1668.47,-162.59"/>
<text xml:space="preserve" text-anchor="middle" x="1519" y="-171.93" font-family="sans-Serif" font-size="9.00" fill="#cbd5e1">category::rf</text>
<text xml:space="preserve" text-anchor="middle" x="1519" y="-161.43" font-family="sans-Serif" font-size="9.00" fill="#cbd5e1">ttl 300s</text>
</g>
</g>
</svg>
