<?xml version="1.0" encoding="UTF-8" standalone="no"?>
<!DOCTYPE svg PUBLIC "-//W3C//DTD SVG 1.1//EN"
 "http://www.w3.org/Graphics/SVG/1.1/DTD/svg11.dtd">
<!-- Generated by graphviz version 14.1.2 (0)
 -->
<!-- Title: PWN Sessions, Cron &amp; Scheduled Automation Pages: 1 -->
<svg width="396pt" height="438pt"
 viewBox="0.00 0.00 396.00 438.00" xmlns="http://www.w3.org/2000/svg" xmlns:xlink="http://www.w3.org/1999/xlink">
<g id="graph0" class="graph" transform="scale(1 1) rotate(0) translate(4 433.82)">
<title>PWN Sessions, Cron &amp; Scheduled Automation</title>
<polygon fill="white" stroke="none" points="-4,4 -4,-433.82 391.5,-433.82 391.5,4 -4,4"/>
<!-- Agent -->
<g id="node1" class="node">
<title>Agent</title>
<path fill="none" stroke="black" d="M195.62,-429.82C195.62,-429.82 118.88,-429.82 118.88,-429.82 112.88,-429.82 106.88,-423.82 106.88,-417.82 106.88,-417.82 106.88,-405.82 106.88,-405.82 106.88,-399.82 112.88,-393.82 118.88,-393.82 118.88,-393.82 195.62,-393.82 195.62,-393.82 201.62,-393.82 207.62,-399.82 207.62,-405.82 207.62,-405.82 207.62,-417.82 207.62,-417.82 207.62,-423.82 201.62,-429.82 195.62,-429.82"/>
<text xml:space="preserve" text-anchor="middle" x="157.25" y="-408.52" font-family="Arial" font-size="9.00">pwn&#45;ai Agent / REPL</text>
</g>
<!-- Sessions -->
<g id="node2" class="node">
<title>Sessions</title>
<path fill="none" stroke="black" d="M95.75,-336.39C95.75,-339.11 78.05,-341.32 56.25,-341.32 34.45,-341.32 16.75,-339.11 16.75,-336.39 16.75,-336.39 16.75,-291.95 16.75,-291.95 16.75,-289.23 34.45,-287.01 56.25,-287.01 78.05,-287.01 95.75,-289.23 95.75,-291.95 95.75,-291.95 95.75,-336.39 95.75,-336.39"/>
<path fill="none" stroke="black" d="M95.75,-336.39C95.75,-333.66 78.05,-331.45 56.25,-331.45 34.45,-331.45 16.75,-333.66 16.75,-336.39"/>
<text xml:space="preserve" text-anchor="middle" x="56.25" y="-321.37" font-family="Arial" font-size="9.00">PWN::Sessions</text>
<text xml:space="preserve" text-anchor="middle" x="56.25" y="-310.87" font-family="Arial" font-size="9.00">(record/replay,</text>
<text xml:space="preserve" text-anchor="middle" x="56.25" y="-300.37" font-family="Arial" font-size="9.00">transcripts)</text>
</g>
<!-- Agent&#45;&gt;Sessions -->
<g id="edge1" class="edge">
<title>Agent&#45;&gt;Sessions</title>
<path fill="none" stroke="black" d="M109.32,-393.46C100.41,-388.71 91.73,-382.88 84.75,-375.82 78.12,-369.12 72.83,-360.58 68.7,-352.04"/>
<polygon fill="black" stroke="black" points="72.02,-350.91 64.82,-343.14 65.6,-353.7 72.02,-350.91"/>
<text xml:space="preserve" text-anchor="middle" x="114" y="-362.52" font-family="Times,serif" font-size="14.00">save / load</text>
</g>
<!-- Memory -->
<g id="node5" class="node">
<title>Memory</title>
<path fill="none" stroke="black" d="M74.5,-231.24C74.5,-233.05 57.8,-234.51 37.25,-234.51 16.7,-234.51 0,-233.05 0,-231.24 0,-231.24 0,-201.78 0,-201.78 0,-199.98 16.7,-198.51 37.25,-198.51 57.8,-198.51 74.5,-199.98 74.5,-201.78 74.5,-201.78 74.5,-231.24 74.5,-231.24"/>
<path fill="none" stroke="black" d="M74.5,-231.24C74.5,-229.43 57.8,-227.97 37.25,-227.97 16.7,-227.97 0,-229.43 0,-231.24"/>
<text xml:space="preserve" text-anchor="middle" x="37.25" y="-213.21" font-family="Arial" font-size="9.00">PWN::Memory</text>
</g>
<!-- Sessions&#45;&gt;Memory -->
<g id="edge5" class="edge">
<title>Sessions&#45;&gt;Memory</title>
<path fill="none" stroke="black" d="M50.96,-286.52C48.45,-273.91 45.46,-258.83 42.91,-246"/>
<polygon fill="black" stroke="black" points="46.39,-245.58 41.01,-236.45 39.53,-246.94 46.39,-245.58"/>
<text xml:space="preserve" text-anchor="middle" x="91.19" y="-255.71" font-family="Times,serif" font-size="14.00">persist key facts</text>
</g>
<!-- Cron -->
<g id="node3" class="node">
<title>Cron</title>
<ellipse fill="none" stroke="black" cx="157.25" cy="-109.01" rx="62.23" ry="20.51"/>
<text xml:space="preserve" text-anchor="middle" x="157.25" y="-110.96" font-family="Arial" font-size="9.00">PWN::Cron</text>
<text xml:space="preserve" text-anchor="middle" x="157.25" y="-100.46" font-family="Arial" font-size="9.00">(scheduled tasks)</text>
</g>
<!-- Cron&#45;&gt;Agent -->
<g id="edge3" class="edge">
<title>Cron&#45;&gt;Agent</title>
<path fill="none" stroke="black" d="M157.25,-129.85C157.25,-181.68 157.25,-321.28 157.25,-381.98"/>
<polygon fill="black" stroke="black" points="153.75,-381.84 157.25,-391.84 160.75,-381.84 153.75,-381.84"/>
<text xml:space="preserve" text-anchor="middle" x="235.25" y="-255.71" font-family="Times,serif" font-size="14.00">run autonomous pwn&#45;ai jobs</text>
</g>
<!-- Drivers -->
<g id="node4" class="node">
<title>Drivers</title>
<path fill="none" stroke="black" d="M261,-36C261,-36 225.5,-36 225.5,-36 219.5,-36 213.5,-30 213.5,-24 213.5,-24 213.5,-12 213.5,-12 213.5,-6 219.5,0 225.5,0 225.5,0 261,0 261,0 267,0 273,-6 273,-12 273,-12 273,-24 273,-24 273,-30 267,-36 261,-36"/>
<text xml:space="preserve" text-anchor="middle" x="243.25" y="-19.95" font-family="Arial" font-size="9.00">Drivers &amp;</text>
<text xml:space="preserve" text-anchor="middle" x="243.25" y="-9.45" font-family="Arial" font-size="9.00">Bin Scripts</text>
</g>
<!-- Cron&#45;&gt;Drivers -->
<g id="edge2" class="edge">
<title>Cron&#45;&gt;Drivers</title>
<path fill="none" stroke="black" d="M175.52,-88.99C185.48,-78.63 198.03,-65.6 209.25,-54 212.19,-50.96 215.28,-47.77 218.34,-44.61"/>
<polygon fill="black" stroke="black" points="220.78,-47.13 225.23,-37.52 215.76,-42.25 220.78,-47.13"/>
<text xml:space="preserve" text-anchor="middle" x="261.75" y="-57.2" font-family="Times,serif" font-size="14.00">invoke on schedule</text>
</g>
<!-- Drivers&#45;&gt;Agent -->
<g id="edge4" class="edge">
<title>Drivers&#45;&gt;Agent</title>
<path fill="none" stroke="black" d="M273.26,-27.31C287.59,-32.72 303.84,-41.21 314.25,-54 329.9,-73.23 328.25,-83.21 328.25,-108.01 328.25,-315.17 328.25,-315.17 328.25,-315.17 328.25,-366.77 268.22,-390.8 219.29,-401.82"/>
<polygon fill="black" stroke="black" points="218.64,-398.38 209.57,-403.86 220.08,-405.23 218.64,-398.38"/>
<text xml:space="preserve" text-anchor="middle" x="357.88" y="-211.46" font-family="Times,serif" font-size="14.00">orchestrate</text>
</g>
<!-- Memory&#45;&gt;Cron -->
<g id="edge6" class="edge">
<title>Memory&#45;&gt;Cron</title>
<path fill="none" stroke="black" d="M31.25,-198.11C27.29,-183.22 24.58,-161.95 35.25,-147.51 47.19,-131.35 65.99,-121.93 85.28,-116.5"/>
<polygon fill="black" stroke="black" points="85.97,-119.94 94.86,-114.18 84.31,-113.14 85.97,-119.94"/>
<text xml:space="preserve" text-anchor="middle" x="89.25" y="-167.21" font-family="Times,serif" font-size="14.00">use recalled context</text>
<text xml:space="preserve" text-anchor="middle" x="89.25" y="-150.71" font-family="Times,serif" font-size="14.00">for jobs</text>
</g>
</g>
</svg>
