<?xml version="1.0" encoding="UTF-8" standalone="no"?>
<!DOCTYPE svg PUBLIC "-//W3C//DTD SVG 1.1//EN"
 "http://www.w3.org/Graphics/SVG/1.1/DTD/svg11.dtd">
<!-- Generated by graphviz version 14.1.2 (0)
 -->
<!-- Title: PWN_ZeroDay Pages: 1 -->
<svg width="1064pt" height="309pt"
 viewBox="0.00 0.00 1064.00 309.00" xmlns="http://www.w3.org/2000/svg" xmlns:xlink="http://www.w3.org/1999/xlink">
<g id="graph0" class="graph" transform="scale(1 1) rotate(0) translate(43.2 265.39)">
<title>PWN_ZeroDay</title>
<polygon fill="#0f172a" stroke="none" points="-43.2,43.2 -43.2,-265.39 1021.2,-265.39 1021.2,43.2 -43.2,43.2"/>
<text xml:space="preserve" text-anchor="start" x="304.5" y="-200.19" font-family="sans-Serif" font-weight="bold" font-size="20.00" fill="#e2e8f0">Zero&#45;Day Research Lifecycle with PWN</text>
<text xml:space="preserve" text-anchor="start" x="337.12" y="-188.74" font-family="sans-Serif" font-size="11.00" fill="#94a3b8">attack surface → hypothesis → prove → weaponise → disclose</text>
<g id="clust1" class="cluster">
<title>cluster_hyp</title>
<path fill="#022c22" stroke="#047857" d="M210.5,-24.19C210.5,-24.19 312,-24.19 312,-24.19 318,-24.19 324,-30.19 324,-36.19 324,-36.19 324,-163.19 324,-163.19 324,-169.19 318,-175.19 312,-175.19 312,-175.19 210.5,-175.19 210.5,-175.19 204.5,-175.19 198.5,-169.19 198.5,-163.19 198.5,-163.19 198.5,-36.19 198.5,-36.19 198.5,-30.19 204.5,-24.19 210.5,-24.19"/>
<text xml:space="preserve" text-anchor="middle" x="261.25" y="-152.19" font-family="sans-Serif" font-size="20.00" fill="#a7f3d0">Hypothesise</text>
</g>
<g id="clust2" class="cluster">
<title>cluster_prove</title>
<path fill="#422006" stroke="#a16207" d="M407,-24.19C407,-24.19 502.75,-24.19 502.75,-24.19 508.75,-24.19 514.75,-30.19 514.75,-36.19 514.75,-36.19 514.75,-163.19 514.75,-163.19 514.75,-169.19 508.75,-175.19 502.75,-175.19 502.75,-175.19 407,-175.19 407,-175.19 401,-175.19 395,-169.19 395,-163.19 395,-163.19 395,-36.19 395,-36.19 395,-30.19 401,-24.19 407,-24.19"/>
<text xml:space="preserve" text-anchor="middle" x="454.88" y="-152.19" font-family="sans-Serif" font-size="20.00" fill="#fde68a">Prove</text>
</g>
<g id="clust3" class="cluster">
<title>cluster_weapon</title>
<path fill="#450a0a" stroke="#b91c1c" d="M674.75,-24.19C674.75,-24.19 767.25,-24.19 767.25,-24.19 773.25,-24.19 779.25,-30.19 779.25,-36.19 779.25,-36.19 779.25,-163.19 779.25,-163.19 779.25,-169.19 773.25,-175.19 767.25,-175.19 767.25,-175.19 674.75,-175.19 674.75,-175.19 668.75,-175.19 662.75,-169.19 662.75,-163.19 662.75,-163.19 662.75,-36.19 662.75,-36.19 662.75,-30.19 668.75,-24.19 674.75,-24.19"/>
<text xml:space="preserve" text-anchor="middle" x="721" y="-152.19" font-family="sans-Serif" font-size="20.00" fill="#fecaca">Weaponise</text>
</g>
<g id="clust4" class="cluster">
<title>cluster_disc</title>
<path fill="#2e1065" stroke="#6d28d9" d="M862.25,-24.19C862.25,-24.19 958,-24.19 958,-24.19 964,-24.19 970,-30.19 970,-36.19 970,-36.19 970,-163.19 970,-163.19 970,-169.19 964,-175.19 958,-175.19 958,-175.19 862.25,-175.19 862.25,-175.19 856.25,-175.19 850.25,-169.19 850.25,-163.19 850.25,-163.19 850.25,-36.19 850.25,-36.19 850.25,-30.19 856.25,-24.19 862.25,-24.19"/>
<text xml:space="preserve" text-anchor="middle" x="910.12" y="-152.19" font-family="sans-Serif" font-size="20.00" fill="#ddd6fe">Disclose</text>
</g>
<!-- Surface -->
<g id="node1" class="node">
<title>Surface</title>
<path fill="#7dd3fc" stroke="#334155" stroke-width="1.3" d="M107.5,-101.19C107.5,-101.19 12,-101.19 12,-101.19 6,-101.19 0,-95.19 0,-89.19 0,-89.19 0,-77.19 0,-77.19 0,-71.19 6,-65.19 12,-65.19 12,-65.19 107.5,-65.19 107.5,-65.19 113.5,-65.19 119.5,-71.19 119.5,-77.19 119.5,-77.19 119.5,-89.19 119.5,-89.19 119.5,-95.19 113.5,-101.19 107.5,-101.19"/>
<text xml:space="preserve" text-anchor="middle" x="59.75" y="-85.69" font-family="sans-Serif" font-size="10.00" fill="#0f172a">Attack Surface</text>
<text xml:space="preserve" text-anchor="middle" x="59.75" y="-73.69" font-family="sans-Serif" font-size="10.00" fill="#0f172a">OpenAPI · Shodan · Git</text>
</g>
<!-- SAST -->
<g id="node2" class="node">
<title>SAST</title>
<path fill="#6ee7b7" stroke="#334155" stroke-width="1.3" d="M285.25,-136.19C285.25,-136.19 236.25,-136.19 236.25,-136.19 230.25,-136.19 224.25,-130.19 224.25,-124.19 224.25,-124.19 224.25,-112.19 224.25,-112.19 224.25,-106.19 230.25,-100.19 236.25,-100.19 236.25,-100.19 285.25,-100.19 285.25,-100.19 291.25,-100.19 297.25,-106.19 297.25,-112.19 297.25,-112.19 297.25,-124.19 297.25,-124.19 297.25,-130.19 291.25,-136.19 285.25,-136.19"/>
<text xml:space="preserve" text-anchor="middle" x="260.75" y="-120.69" font-family="sans-Serif" font-size="10.00" fill="#0f172a">PWN::SAST</text>
<text xml:space="preserve" text-anchor="middle" x="260.75" y="-108.69" font-family="sans-Serif" font-size="10.00" fill="#0f172a">taint patterns</text>
</g>
<!-- Surface&#45;&gt;SAST -->
<g id="edge1" class="edge">
<title>Surface&#45;&gt;SAST</title>
<path fill="none" stroke="#38bdf8" stroke-width="1.3" d="M119.92,-93.59C150.05,-98.89 186.12,-105.24 214.08,-110.16"/>
<polygon fill="#38bdf8" stroke="#38bdf8" stroke-width="1.3" points="213.3,-112.86 221.67,-111.49 214.27,-107.35 213.3,-112.86"/>
</g>
<!-- AI -->
<g id="node3" class="node">
<title>AI</title>
<path fill="#6ee7b7" stroke="#334155" stroke-width="1.3" d="M291.25,-68.19C291.25,-68.19 230.25,-68.19 230.25,-68.19 224.25,-68.19 218.25,-62.19 218.25,-56.19 218.25,-56.19 218.25,-44.19 218.25,-44.19 218.25,-38.19 224.25,-32.19 230.25,-32.19 230.25,-32.19 291.25,-32.19 291.25,-32.19 297.25,-32.19 303.25,-38.19 303.25,-44.19 303.25,-44.19 303.25,-56.19 303.25,-56.19 303.25,-62.19 297.25,-68.19 291.25,-68.19"/>
<text xml:space="preserve" text-anchor="middle" x="260.75" y="-52.69" font-family="sans-Serif" font-size="10.00" fill="#0f172a">pwn&#45;ai</text>
<text xml:space="preserve" text-anchor="middle" x="260.75" y="-40.69" font-family="sans-Serif" font-size="10.00" fill="#0f172a">Agent::VulnGen</text>
</g>
<!-- Surface&#45;&gt;AI -->
<g id="edge2" class="edge">
<title>Surface&#45;&gt;AI</title>
<path fill="none" stroke="#38bdf8" stroke-width="1.3" d="M119.92,-73.38C147.98,-68.72 181.19,-63.22 208.2,-58.74"/>
<polygon fill="#38bdf8" stroke="#38bdf8" stroke-width="1.3" points="208.48,-61.53 215.91,-57.46 207.56,-56 208.48,-61.53"/>
</g>
<!-- Fuzz -->
<g id="node4" class="node">
<title>Fuzz</title>
<path fill="#fcd34d" stroke="#334155" stroke-width="1.3" d="M477.5,-136.19C477.5,-136.19 432.25,-136.19 432.25,-136.19 426.25,-136.19 420.25,-130.19 420.25,-124.19 420.25,-124.19 420.25,-112.19 420.25,-112.19 420.25,-106.19 426.25,-100.19 432.25,-100.19 432.25,-100.19 477.5,-100.19 477.5,-100.19 483.5,-100.19 489.5,-106.19 489.5,-112.19 489.5,-112.19 489.5,-124.19 489.5,-124.19 489.5,-130.19 483.5,-136.19 477.5,-136.19"/>
<text xml:space="preserve" text-anchor="middle" x="454.88" y="-120.69" font-family="sans-Serif" font-size="10.00" fill="#0f172a">Fuzz · Sock</text>
<text xml:space="preserve" text-anchor="middle" x="454.88" y="-108.69" font-family="sans-Serif" font-size="10.00" fill="#0f172a">Packet</text>
</g>
<!-- SAST&#45;&gt;Fuzz -->
<g id="edge3" class="edge">
<title>SAST&#45;&gt;Fuzz</title>
<path fill="none" stroke="#f59e0b" stroke-width="1.3" d="M297.89,-118.19C329.74,-118.19 376.24,-118.19 410.18,-118.19"/>
<polygon fill="#f59e0b" stroke="#f59e0b" stroke-width="1.3" points="409.87,-120.99 417.87,-118.19 409.87,-115.39 409.87,-120.99"/>
</g>
<!-- TB -->
<g id="node5" class="node">
<title>TB</title>
<path fill="#fcd34d" stroke="#334155" stroke-width="1.3" d="M494.75,-68.19C494.75,-68.19 415,-68.19 415,-68.19 409,-68.19 403,-62.19 403,-56.19 403,-56.19 403,-44.19 403,-44.19 403,-38.19 409,-32.19 415,-32.19 415,-32.19 494.75,-32.19 494.75,-32.19 500.75,-32.19 506.75,-38.19 506.75,-44.19 506.75,-44.19 506.75,-56.19 506.75,-56.19 506.75,-62.19 500.75,-68.19 494.75,-68.19"/>
<text xml:space="preserve" text-anchor="middle" x="454.88" y="-52.69" font-family="sans-Serif" font-size="10.00" fill="#0f172a">TransparentBrowser</text>
<text xml:space="preserve" text-anchor="middle" x="454.88" y="-40.69" font-family="sans-Serif" font-size="10.00" fill="#0f172a">Burp replay</text>
</g>
<!-- AI&#45;&gt;TB -->
<g id="edge4" class="edge">
<title>AI&#45;&gt;TB</title>
<path fill="none" stroke="#f59e0b" stroke-width="1.3" d="M303.44,-50.19C329.61,-50.19 363.82,-50.19 393,-50.19"/>
<polygon fill="#f59e0b" stroke="#f59e0b" stroke-width="1.3" points="392.72,-52.99 400.72,-50.19 392.72,-47.39 392.72,-52.99"/>
</g>
<!-- Asm -->
<g id="node6" class="node">
<title>Asm</title>
<path fill="#fda4af" stroke="#334155" stroke-width="1.3" d="M758.5,-136.19C758.5,-136.19 682.5,-136.19 682.5,-136.19 676.5,-136.19 670.5,-130.19 670.5,-124.19 670.5,-124.19 670.5,-112.19 670.5,-112.19 670.5,-106.19 676.5,-100.19 682.5,-100.19 682.5,-100.19 758.5,-100.19 758.5,-100.19 764.5,-100.19 770.5,-106.19 770.5,-112.19 770.5,-112.19 770.5,-124.19 770.5,-124.19 770.5,-130.19 764.5,-136.19 758.5,-136.19"/>
<text xml:space="preserve" text-anchor="middle" x="720.5" y="-120.69" font-family="sans-Serif" font-size="10.00" fill="#0f172a">Assembly</text>
<text xml:space="preserve" text-anchor="middle" x="720.5" y="-108.69" font-family="sans-Serif" font-size="10.00" fill="#0f172a">pwn&#45;asm shellcode</text>
</g>
<!-- Fuzz&#45;&gt;Asm -->
<g id="edge5" class="edge">
<title>Fuzz&#45;&gt;Asm</title>
<path fill="none" stroke="#fb7185" stroke-width="1.3" d="M490.07,-118.19C533.13,-118.19 607.81,-118.19 660.24,-118.19"/>
<polygon fill="#fb7185" stroke="#fb7185" stroke-width="1.3" points="660.12,-120.99 668.12,-118.19 660.12,-115.39 660.12,-120.99"/>
</g>
<!-- MSF -->
<g id="node7" class="node">
<title>MSF</title>
<path fill="#fda4af" stroke="#334155" stroke-width="1.3" d="M739,-68.19C739,-68.19 702,-68.19 702,-68.19 696,-68.19 690,-62.19 690,-56.19 690,-56.19 690,-44.19 690,-44.19 690,-38.19 696,-32.19 702,-32.19 702,-32.19 739,-32.19 739,-32.19 745,-32.19 751,-38.19 751,-44.19 751,-44.19 751,-56.19 751,-56.19 751,-62.19 745,-68.19 739,-68.19"/>
<text xml:space="preserve" text-anchor="middle" x="720.5" y="-52.69" font-family="sans-Serif" font-size="10.00" fill="#0f172a">Metasploit</text>
<text xml:space="preserve" text-anchor="middle" x="720.5" y="-40.69" font-family="sans-Serif" font-size="10.00" fill="#0f172a">module</text>
</g>
<!-- TB&#45;&gt;MSF -->
<g id="edge6" class="edge">
<title>TB&#45;&gt;MSF</title>
<path fill="none" stroke="#fb7185" stroke-width="1.3" d="M507.33,-50.19C557.76,-50.19 633.56,-50.19 679.6,-50.19"/>
<polygon fill="#fb7185" stroke="#fb7185" stroke-width="1.3" points="679.54,-52.99 687.54,-50.19 679.54,-47.39 679.54,-52.99"/>
</g>
<!-- H1 -->
<g id="node8" class="node">
<title>H1</title>
<path fill="#c4b5fd" stroke="#334155" stroke-width="1.3" d="M950,-136.19C950,-136.19 870.25,-136.19 870.25,-136.19 864.25,-136.19 858.25,-130.19 858.25,-124.19 858.25,-124.19 858.25,-112.19 858.25,-112.19 858.25,-106.19 864.25,-100.19 870.25,-100.19 870.25,-100.19 950,-100.19 950,-100.19 956,-100.19 962,-106.19 962,-112.19 962,-112.19 962,-124.19 962,-124.19 962,-130.19 956,-136.19 950,-136.19"/>
<text xml:space="preserve" text-anchor="middle" x="910.12" y="-120.69" font-family="sans-Serif" font-size="10.00" fill="#0f172a">HackerOne</text>
<text xml:space="preserve" text-anchor="middle" x="910.12" y="-108.69" font-family="sans-Serif" font-size="10.00" fill="#0f172a">BugCrowd · Synack</text>
</g>
<!-- Asm&#45;&gt;H1 -->
<g id="edge7" class="edge">
<title>Asm&#45;&gt;H1</title>
<path fill="none" stroke="#a78bfa" stroke-width="1.3" d="M770.8,-118.19C794.47,-118.19 823.07,-118.19 848.11,-118.19"/>
<polygon fill="#a78bfa" stroke="#a78bfa" stroke-width="1.3" points="847.9,-120.99 855.9,-118.19 847.9,-115.39 847.9,-120.99"/>
</g>
<!-- Rep -->
<g id="node9" class="node">
<title>Rep</title>
<path fill="#c4b5fd" stroke="#334155" stroke-width="1.3" d="M939.88,-68.19C939.88,-68.19 880.38,-68.19 880.38,-68.19 874.38,-68.19 868.38,-62.19 868.38,-56.19 868.38,-56.19 868.38,-44.19 868.38,-44.19 868.38,-38.19 874.38,-32.19 880.38,-32.19 880.38,-32.19 939.88,-32.19 939.88,-32.19 945.88,-32.19 951.88,-38.19 951.88,-44.19 951.88,-44.19 951.88,-56.19 951.88,-56.19 951.88,-62.19 945.88,-68.19 939.88,-68.19"/>
<text xml:space="preserve" text-anchor="middle" x="910.12" y="-52.69" font-family="sans-Serif" font-size="10.00" fill="#0f172a">Reports · Skills</text>
<text xml:space="preserve" text-anchor="middle" x="910.12" y="-40.69" font-family="sans-Serif" font-size="10.00" fill="#0f172a">distill_skill</text>
</g>
<!-- MSF&#45;&gt;Rep -->
<g id="edge8" class="edge">
<title>MSF&#45;&gt;Rep</title>
<path fill="none" stroke="#a78bfa" stroke-width="1.3" d="M751.65,-50.19C780.31,-50.19 823.98,-50.19 858.07,-50.19"/>
<polygon fill="#a78bfa" stroke="#a78bfa" stroke-width="1.3" points="857.9,-52.99 865.9,-50.19 857.9,-47.39 857.9,-52.99"/>
</g>
<!-- Rep&#45;&gt;AI -->
<g id="edge9" class="edge">
<title>Rep&#45;&gt;AI</title>
<path fill="none" stroke="#fbbf24" stroke-width="1.3" stroke-dasharray="5,2" d="M867.84,-36.49C842.58,-28.83 809.42,-20.07 779.25,-16.19 609.87,5.62 564.45,5.09 395,-16.19 367.6,-19.63 337.77,-26.9 313.29,-33.84"/>
<polygon fill="#fbbf24" stroke="#fbbf24" stroke-width="1.3" points="312.63,-31.11 305.73,-36.03 314.19,-36.49 312.63,-31.11"/>
<text xml:space="preserve" text-anchor="middle" x="588.75" y="-2.92" font-family="sans-Serif" font-size="9.00" fill="#cbd5e1">lesson → next hunt</text>
</g>
</g>
</svg>
