<?xml version="1.0" encoding="UTF-8" standalone="no"?>
<!DOCTYPE svg PUBLIC "-//W3C//DTD SVG 1.1//EN"
 "http://www.w3.org/Graphics/SVG/1.1/DTD/svg11.dtd">
<!-- Generated by graphviz version 14.1.2 (0)
 -->
<!-- Title: PWN Zero&#45;Day Research Workflow Pages: 1 -->
<svg width="272pt" height="529pt"
 viewBox="0.00 0.00 272.00 529.00" xmlns="http://www.w3.org/2000/svg" xmlns:xlink="http://www.w3.org/1999/xlink">
<g id="graph0" class="graph" transform="scale(1 1) rotate(0) translate(4 524.69)">
<title>PWN Zero&#45;Day Research Workflow</title>
<polygon fill="white" stroke="none" points="-4,4 -4,-524.69 267.62,-524.69 267.62,4 -4,4"/>
<!-- Target -->
<g id="node1" class="node">
<title>Target</title>
<path fill="none" stroke="black" d="M147.88,-520.69C147.88,-520.69 77.12,-520.69 77.12,-520.69 71.12,-520.69 65.12,-514.69 65.12,-508.69 65.12,-508.69 65.12,-493.19 65.12,-493.19 65.12,-487.19 71.12,-481.19 77.12,-481.19 77.12,-481.19 147.88,-481.19 147.88,-481.19 153.88,-481.19 159.88,-487.19 159.88,-493.19 159.88,-493.19 159.88,-508.69 159.88,-508.69 159.88,-514.69 153.88,-520.69 147.88,-520.69"/>
<text xml:space="preserve" text-anchor="middle" x="112.5" y="-508.14" font-family="Arial" font-size="9.00">Target Research</text>
<text xml:space="preserve" text-anchor="middle" x="112.5" y="-497.64" font-family="Arial" font-size="9.00">(Binary, Firmware,</text>
<text xml:space="preserve" text-anchor="middle" x="112.5" y="-487.14" font-family="Arial" font-size="9.00">Protocol, Web App)</text>
</g>
<!-- RE -->
<g id="node2" class="node">
<title>RE</title>
<path fill="none" stroke="black" d="M91,-444.19C91,-444.19 12,-444.19 12,-444.19 6,-444.19 0,-438.19 0,-432.19 0,-432.19 0,-420.19 0,-420.19 0,-414.19 6,-408.19 12,-408.19 12,-408.19 91,-408.19 91,-408.19 97,-408.19 103,-414.19 103,-420.19 103,-420.19 103,-432.19 103,-432.19 103,-438.19 97,-444.19 91,-444.19"/>
<text xml:space="preserve" text-anchor="middle" x="51.5" y="-428.14" font-family="Arial" font-size="9.00">Reverse Engineering</text>
<text xml:space="preserve" text-anchor="middle" x="51.5" y="-417.64" font-family="Arial" font-size="9.00">+ Static Analysis</text>
</g>
<!-- Target&#45;&gt;RE -->
<g id="edge1" class="edge">
<title>Target&#45;&gt;RE</title>
<path fill="none" stroke="black" d="M96.47,-480.82C89.38,-472.36 80.92,-462.28 73.27,-453.15"/>
<polygon fill="black" stroke="black" points="76.04,-451.01 66.93,-445.59 70.68,-455.51 76.04,-451.01"/>
</g>
<!-- SAST -->
<g id="node3" class="node">
<title>SAST</title>
<path fill="none" stroke="black" d="M215.5,-444.19C215.5,-444.19 133.5,-444.19 133.5,-444.19 127.5,-444.19 121.5,-438.19 121.5,-432.19 121.5,-432.19 121.5,-420.19 121.5,-420.19 121.5,-414.19 127.5,-408.19 133.5,-408.19 133.5,-408.19 215.5,-408.19 215.5,-408.19 221.5,-408.19 227.5,-414.19 227.5,-420.19 227.5,-420.19 227.5,-432.19 227.5,-432.19 227.5,-438.19 221.5,-444.19 215.5,-444.19"/>
<text xml:space="preserve" text-anchor="middle" x="174.5" y="-422.89" font-family="Arial" font-size="9.00">PWN::SAST + Custom</text>
</g>
<!-- Target&#45;&gt;SAST -->
<g id="edge2" class="edge">
<title>Target&#45;&gt;SAST</title>
<path fill="none" stroke="black" d="M128.79,-480.82C136,-472.36 144.6,-462.28 152.38,-453.15"/>
<polygon fill="black" stroke="black" points="155,-455.47 158.82,-445.59 149.67,-450.93 155,-455.47"/>
</g>
<!-- Fuzz -->
<g id="node4" class="node">
<title>Fuzz</title>
<path fill="none" stroke="black" d="M178.38,-371.19C178.38,-371.19 110.62,-371.19 110.62,-371.19 104.62,-371.19 98.62,-365.19 98.62,-359.19 98.62,-359.19 98.62,-347.19 98.62,-347.19 98.62,-341.19 104.62,-335.19 110.62,-335.19 110.62,-335.19 178.38,-335.19 178.38,-335.19 184.38,-335.19 190.38,-341.19 190.38,-347.19 190.38,-347.19 190.38,-359.19 190.38,-359.19 190.38,-365.19 184.38,-371.19 178.38,-371.19"/>
<text xml:space="preserve" text-anchor="middle" x="144.5" y="-355.14" font-family="Arial" font-size="9.00">Fuzzing + Protocol</text>
<text xml:space="preserve" text-anchor="middle" x="144.5" y="-344.64" font-family="Arial" font-size="9.00">Analysis</text>
</g>
<!-- RE&#45;&gt;Fuzz -->
<g id="edge3" class="edge">
<title>RE&#45;&gt;Fuzz</title>
<path fill="none" stroke="black" d="M74.01,-408C85.69,-399.08 100.15,-388.04 112.93,-378.29"/>
<polygon fill="black" stroke="black" points="114.84,-381.23 120.67,-372.38 110.6,-375.67 114.84,-381.23"/>
</g>
<!-- Dyn -->
<g id="node5" class="node">
<title>Dyn</title>
<path fill="none" stroke="black" d="M142.88,-296.25C142.88,-296.25 78.12,-296.25 78.12,-296.25 72.12,-296.25 66.12,-290.25 66.12,-284.25 66.12,-284.25 66.12,-272.25 66.12,-272.25 66.12,-266.25 72.12,-260.25 78.12,-260.25 78.12,-260.25 142.88,-260.25 142.88,-260.25 148.88,-260.25 154.88,-266.25 154.88,-272.25 154.88,-272.25 154.88,-284.25 154.88,-284.25 154.88,-290.25 148.88,-296.25 142.88,-296.25"/>
<text xml:space="preserve" text-anchor="middle" x="110.5" y="-280.2" font-family="Arial" font-size="9.00">Dynamic Analysis</text>
<text xml:space="preserve" text-anchor="middle" x="110.5" y="-269.7" font-family="Arial" font-size="9.00">(REPL + Debug)</text>
</g>
<!-- RE&#45;&gt;Dyn -->
<g id="edge6" class="edge">
<title>RE&#45;&gt;Dyn</title>
<path fill="none" stroke="black" d="M58.5,-407.87C68.57,-382.97 87.25,-336.77 99.26,-307.05"/>
<polygon fill="black" stroke="black" points="102.44,-308.53 102.94,-297.94 95.95,-305.9 102.44,-308.53"/>
</g>
<!-- SAST&#45;&gt;Fuzz -->
<g id="edge4" class="edge">
<title>SAST&#45;&gt;Fuzz</title>
<path fill="none" stroke="black" d="M167.24,-408C163.88,-400.06 159.82,-390.45 156.06,-381.55"/>
<polygon fill="black" stroke="black" points="159.4,-380.46 152.28,-372.61 152.95,-383.18 159.4,-380.46"/>
</g>
<!-- Fuzz&#45;&gt;Dyn -->
<g id="edge5" class="edge">
<title>Fuzz&#45;&gt;Dyn</title>
<path fill="none" stroke="black" d="M136.44,-334.9C132.53,-326.52 127.74,-316.24 123.35,-306.81"/>
<polygon fill="black" stroke="black" points="126.65,-305.62 119.26,-298.04 120.31,-308.58 126.65,-305.62"/>
</g>
<!-- Exploit -->
<g id="node8" class="node">
<title>Exploit</title>
<path fill="none" stroke="black" d="M137.88,-212.56C137.88,-212.56 97.12,-212.56 97.12,-212.56 91.12,-212.56 85.12,-206.56 85.12,-200.56 85.12,-200.56 85.12,-188.56 85.12,-188.56 85.12,-182.56 91.12,-176.56 97.12,-176.56 97.12,-176.56 137.88,-176.56 137.88,-176.56 143.88,-176.56 149.88,-182.56 149.88,-188.56 149.88,-188.56 149.88,-200.56 149.88,-200.56 149.88,-206.56 143.88,-212.56 137.88,-212.56"/>
<text xml:space="preserve" text-anchor="middle" x="117.5" y="-196.51" font-family="Arial" font-size="9.00">Exploit Dev</text>
<text xml:space="preserve" text-anchor="middle" x="117.5" y="-186.01" font-family="Arial" font-size="9.00">&amp; Validation</text>
</g>
<!-- Dyn&#45;&gt;Exploit -->
<g id="edge9" class="edge">
<title>Dyn&#45;&gt;Exploit</title>
<path fill="none" stroke="black" d="M111.98,-259.93C112.88,-249.53 114.03,-236.05 115.05,-224.11"/>
<polygon fill="black" stroke="black" points="118.52,-224.63 115.89,-214.37 111.55,-224.03 118.52,-224.63"/>
</g>
<!-- Memory -->
<g id="node6" class="node">
<title>Memory</title>
<path fill="none" stroke="black" d="M89.5,-49.38C89.5,-52.1 71.12,-54.31 48.5,-54.31 25.88,-54.31 7.5,-52.1 7.5,-49.38 7.5,-49.38 7.5,-4.94 7.5,-4.94 7.5,-2.21 25.88,0 48.5,0 71.12,0 89.5,-2.21 89.5,-4.94 89.5,-4.94 89.5,-49.38 89.5,-49.38"/>
<path fill="none" stroke="black" d="M89.5,-49.38C89.5,-46.65 71.12,-44.44 48.5,-44.44 25.88,-44.44 7.5,-46.65 7.5,-49.38"/>
<text xml:space="preserve" text-anchor="middle" x="48.5" y="-34.36" font-family="Arial" font-size="9.00">PWN Memory</text>
<text xml:space="preserve" text-anchor="middle" x="48.5" y="-23.86" font-family="Arial" font-size="9.00">(historical vulns,</text>
<text xml:space="preserve" text-anchor="middle" x="48.5" y="-13.36" font-family="Arial" font-size="9.00">references)</text>
</g>
<!-- Memory&#45;&gt;RE -->
<g id="edge7" class="edge">
<title>Memory&#45;&gt;RE</title>
<path fill="none" stroke="black" d="M41.34,-54.52C37.08,-72.49 32.5,-96.92 32.5,-118.81 32.5,-354.19 32.5,-354.19 32.5,-354.19 32.5,-368.7 36.25,-384.32 40.41,-397.21"/>
<polygon fill="black" stroke="black" points="36.99,-398.03 43.6,-406.31 43.6,-395.71 36.99,-398.03"/>
<text xml:space="preserve" text-anchor="middle" x="63.25" y="-232.71" font-family="Times,serif" font-size="8.00">recall past findings</text>
</g>
<!-- Skill -->
<g id="node7" class="node">
<title>Skill</title>
<path fill="none" stroke="black" d="M263.62,-294.56C263.62,-296.56 243.4,-298.19 218.5,-298.19 193.6,-298.19 173.38,-296.56 173.38,-294.56 173.38,-294.56 173.38,-261.94 173.38,-261.94 173.38,-259.94 193.6,-258.31 218.5,-258.31 243.4,-258.31 263.62,-259.94 263.62,-261.94 263.62,-261.94 263.62,-294.56 263.62,-294.56"/>
<path fill="none" stroke="black" d="M263.62,-294.56C263.62,-292.56 243.4,-290.94 218.5,-290.94 193.6,-290.94 173.38,-292.56 173.38,-294.56"/>
<text xml:space="preserve" text-anchor="middle" x="218.5" y="-280.2" font-family="Arial" font-size="9.00">Skills (prior</text>
<text xml:space="preserve" text-anchor="middle" x="218.5" y="-269.7" font-family="Arial" font-size="9.00">zero&#45;day patterns)</text>
</g>
<!-- Skill&#45;&gt;Exploit -->
<g id="edge8" class="edge">
<title>Skill&#45;&gt;Exploit</title>
<path fill="none" stroke="black" d="M194.56,-257.89C180.56,-246.56 162.73,-232.15 147.76,-220.03"/>
<polygon fill="black" stroke="black" points="150.01,-217.36 140.04,-213.79 145.61,-222.8 150.01,-217.36"/>
<text xml:space="preserve" text-anchor="middle" x="193.53" y="-232.71" font-family="Times,serif" font-size="8.00">apply patterns</text>
</g>
<!-- Disclose -->
<g id="node9" class="node">
<title>Disclose</title>
<path fill="none" stroke="black" d="M162.25,-139.56C162.25,-139.56 72.75,-139.56 72.75,-139.56 66.75,-139.56 60.75,-133.56 60.75,-127.56 60.75,-127.56 60.75,-112.06 60.75,-112.06 60.75,-106.06 66.75,-100.06 72.75,-100.06 72.75,-100.06 162.25,-100.06 162.25,-100.06 168.25,-100.06 174.25,-106.06 174.25,-112.06 174.25,-112.06 174.25,-127.56 174.25,-127.56 174.25,-133.56 168.25,-139.56 162.25,-139.56"/>
<text xml:space="preserve" text-anchor="middle" x="117.5" y="-127.01" font-family="Arial" font-size="9.00">Responsible Disclosure</text>
<text xml:space="preserve" text-anchor="middle" x="117.5" y="-116.51" font-family="Arial" font-size="9.00">&amp; Fix (Reports,</text>
<text xml:space="preserve" text-anchor="middle" x="117.5" y="-106.01" font-family="Arial" font-size="9.00">HackerOne, etc.)</text>
</g>
<!-- Exploit&#45;&gt;Disclose -->
<g id="edge10" class="edge">
<title>Exploit&#45;&gt;Disclose</title>
<path fill="none" stroke="black" d="M117.5,-176.32C117.5,-168.81 117.5,-159.78 117.5,-151.2"/>
<polygon fill="black" stroke="black" points="121,-151.49 117.5,-141.49 114,-151.49 121,-151.49"/>
</g>
<!-- Disclose&#45;&gt;Memory -->
<g id="edge11" class="edge">
<title>Disclose&#45;&gt;Memory</title>
<path fill="none" stroke="black" d="M102.87,-99.59C94.92,-89.15 84.85,-75.91 75.53,-63.67"/>
<polygon fill="black" stroke="black" points="78.37,-61.62 69.53,-55.78 72.8,-65.86 78.37,-61.62"/>
<text xml:space="preserve" text-anchor="middle" x="122.93" y="-74.46" font-family="Times,serif" font-size="8.00">remember disclosure</text>
</g>
</g>
</svg>
